<?xml version="1.0" encoding="UTF-8"?>
<svg xmlns="http://www.w3.org/2000/svg" width="2in" height="2in" viewBox="0 0 50.8 50.8" baseProfile="tiny-ps" version="1.2">
  <title>Medplum</title>
  <path fill="#ad7136" d="M28.796 6.964c.62-1.655 1.655-3 3-4.139L29.52.031a12.2 12.2 0 0 0-4.45 7.037l1.76 2.38z" />
  <path fill="#946af9" d="M31.797 6.55c-1.76 0-3.415.414-4.968 1.139-1.655-.725-3.311-1.139-5.07-1.139-9.003 0-16.35 9.935-16.35 22.145 0 12.211 7.347 22.146 16.35 22.146 1.759 0 3.415-.414 5.07-1.139 1.553.725 3.208 1.139 4.968 1.139 9.002 0 16.35-9.935 16.35-22.146 0-12.21-7.348-22.145-16.35-22.145Z" />
  <path fill="#7857c5" d="m23.518 50.634-1.76.207c-9.002 0-16.35-9.935-16.35-22.146 0-12.21 7.348-22.145 16.35-22.145l1.76.104c-4.036 1.242-7.244 10.555-7.244 22.041 0 11.487 3.208 20.8 7.244 21.939z" />
  <path fill="#40bc26" d="M21.034 22.797a18.213 18.213 0 0 1-18.316 4.45A18.213 18.213 0 0 1 25.588 4.48l.103.517c1.76 6.106.207 12.935-4.657 17.799z" />
  <path fill="#33961e" d="M25.691 4.998A43.566 43.566 0 0 0 5.512 27.971l-2.794-.724A18.213 18.213 0 0 1 25.588 4.48Z" />
</svg>