<?xml version="1.0" encoding="iso-8859-1"?>
<!-- Generator: Adobe Illustrator 19.0.0, SVG Export Plug-In . SVG Version: 6.00 Build 0)  -->
<svg version="1.1" id="Layer_1" xmlns="http://www.w3.org/2000/svg" x="0px" y="0px"
	 viewBox="0 0 309.267 309.267" style="enable-background:new 0 0 309.267 309.267;" xml:space="preserve">
<g>
	<path style="fill:#D0994B;" d="M280.273,120.972V62.82c0-10.67-8.659-19.329-19.329-19.329H125.64c0,0-18.324-28.994-28.994-28.994
		H48.323c-10.67,0-19.329,8.65-19.329,19.329v87.146H280.273z"/>
	<path style="fill:#E4E7E7;" d="M28.994,72.484h251.279V149.8H28.994V72.484z"/>
	<path style="fill:#3DB39E;" d="M251.279,178.794c32.028,0,57.988,25.969,57.988,57.988c0,32.009-25.959,57.988-57.988,57.988
		c-32.009,0-57.988-25.978-57.988-57.988C193.292,204.764,219.27,178.794,251.279,178.794z"/>
	<path style="fill:#FFFFFF;" d="M270.609,227.117h-9.665v-9.665c0-5.345-4.32-9.665-9.665-9.665s-9.665,4.32-9.665,9.665v9.665
		h-9.665c-5.345,0-9.665,4.32-9.665,9.665c0,5.354,4.32,9.665,9.665,9.665h9.665v9.665c0,5.354,4.32,9.665,9.665,9.665
		s9.665-4.31,9.665-9.665v-9.665h9.665c5.345,0,9.665-4.31,9.665-9.665C280.273,231.438,275.953,227.117,270.609,227.117z"/>
	<path style="fill:#F4B459;" d="M179.597,236.783c0-39.586,32.106-71.682,71.682-71.682c19.126,0,36.455,7.538,49.318,19.754
		l8.669-73.712c0-10.679-8.659-19.329-19.329-19.329H19.329C8.659,91.814,0,100.463,0,111.143l19.329,164.298
		c0,10.67,8.659,19.329,19.329,19.329h170.609C191.32,281.733,179.597,260.644,179.597,236.783z"/>
</g>
<g>
</g>
<g>
</g>
<g>
</g>
<g>
</g>
<g>
</g>
<g>
</g>
<g>
</g>
<g>
</g>
<g>
</g>
<g>
</g>
<g>
</g>
<g>
</g>
<g>
</g>
<g>
</g>
<g>
</g>
</svg>
