<svg width="606" height="607" viewBox="0 0 606 607" fill="none" xmlns="http://www.w3.org/2000/svg">
<path fill-rule="evenodd" clip-rule="evenodd" d="M282.581 406.066V504.138H325.149V406.437C370.277 416.533 404.002 456.829 404.002 505.001C404.002 560.782 358.782 606.001 303.001 606.001C247.221 606.001 202.001 560.782 202.001 505.001C202.001 456.216 236.589 415.51 282.581 406.066Z" fill="#0D9488"/>
<path fill-rule="evenodd" clip-rule="evenodd" d="M406.065 323.422H505.866V280.853H406.436C416.532 235.725 456.827 202 505 202C560.781 202 606 247.22 606 303C606 358.781 560.781 404.001 505 404.001C456.215 404.001 415.509 369.413 406.065 323.422Z" fill="#0D9488"/>
<path fill-rule="evenodd" clip-rule="evenodd" d="M199.565 280.853H101.865V323.422H199.935C190.491 369.413 149.785 404.001 101 404.001C45.2193 404.001 0 358.781 0 303C0 247.22 45.2193 202 101 202C149.173 202 189.468 235.725 199.565 280.853Z" fill="#0D9488"/>
<path fill-rule="evenodd" clip-rule="evenodd" d="M325.149 199.565C370.277 189.468 404.002 149.173 404.002 101C404.002 45.2194 358.782 6.10352e-05 303.001 6.10352e-05C247.221 6.10352e-05 202.001 45.2194 202.001 101C202.001 149.785 236.589 190.492 282.581 199.935V100.137H325.149V199.565Z" fill="#0D9488"/>
</svg>
