<?xml version="1.0" encoding="UTF-8" standalone="no"?>
<svg
   version="1.1"
   id="svg1"
   width="3.5in"
   height="2.75in"
   viewBox="0 0 336 264"
   xmlns="http://www.w3.org/2000/svg">
  <defs id="defs1">
    <clipPath clipPathUnits="userSpaceOnUse" id="clipPath2">
      <path d="M 0,612 H 792 V 0 H 0 Z" transform="translate(-296.86461,-237.15411)" id="path2" />
    </clipPath>
    <clipPath clipPathUnits="userSpaceOnUse" id="clipPath4">
      <path d="M 0,612 H 792 V 0 H 0 Z" transform="translate(-298.41961,-234.5599)" id="path4" />
    </clipPath>
    <clipPath clipPathUnits="userSpaceOnUse" id="clipPath6">
      <path d="M 0,612 H 792 V 0 H 0 Z" transform="translate(-309.17071,-240.78841)" id="path6" />
    </clipPath>
    <clipPath clipPathUnits="userSpaceOnUse" id="clipPath8">
      <path d="M 0,612 H 792 V 0 H 0 Z" transform="translate(-312.13931,-234.5599)" id="path8" />
    </clipPath>
    <clipPath clipPathUnits="userSpaceOnUse" id="clipPath10">
      <path d="M 0,612 H 792 V 0 H 0 Z" transform="translate(-329.49251,-240.6355)" id="path10" />
    </clipPath>
    <clipPath clipPathUnits="userSpaceOnUse" id="clipPath12">
      <path d="M 0,612 H 792 V 0 H 0 Z" transform="translate(-334.15061,-243.18811)" id="path12" />
    </clipPath>
    <clipPath clipPathUnits="userSpaceOnUse" id="clipPath14">
      <path d="M 0,612 H 792 V 0 H 0 Z" transform="translate(-344.44601,-243.18811)" id="path14" />
    </clipPath>
    <clipPath clipPathUnits="userSpaceOnUse" id="clipPath16">
      <path d="M 0,612 H 792 V 0 H 0 Z" transform="translate(-359.08411,-241.2742)" id="path16" />
    </clipPath>
    <clipPath clipPathUnits="userSpaceOnUse" id="clipPath18">
      <path d="M 0,612 H 792 V 0 H 0 Z" transform="translate(-366.62761,-243.18811)" id="path18" />
    </clipPath>
    <clipPath clipPathUnits="userSpaceOnUse" id="clipPath20">
      <path d="M 0,612 H 792 V 0 H 0 Z" transform="translate(-378.94921,-239.12311)" id="path20" />
    </clipPath>
    <clipPath clipPathUnits="userSpaceOnUse" id="clipPath22">
      <path d="M 0,612 H 792 V 0 H 0 Z" transform="translate(-392.20741,-240.78841)" id="path22" />
    </clipPath>
    <clipPath clipPathUnits="userSpaceOnUse" id="clipPath24">
      <path d="M 0,612 H 792 V 0 H 0 Z" transform="translate(-402.00061,-243.18811)" id="path24" />
    </clipPath>
    <clipPath clipPathUnits="userSpaceOnUse" id="clipPath26">
      <path d="M 0,612 H 792 V 0 H 0 Z" transform="translate(-412.89401,-238.2775)" id="path26" />
    </clipPath>
    <clipPath clipPathUnits="userSpaceOnUse" id="clipPath28">
      <path d="M 0,612 H 792 V 0 H 0 Z" transform="translate(-425.70621,-239.12311)" id="path28" />
    </clipPath>
    <clipPath clipPathUnits="userSpaceOnUse" id="clipPath30">
      <path d="M 0,612 H 792 V 0 H 0 Z" transform="translate(-441.29741,-235.36401)" id="path30" />
    </clipPath>
    <clipPath clipPathUnits="userSpaceOnUse" id="clipPath32">
      <path d="M 0,612 H 792 V 0 H 0 Z" id="path32" />
    </clipPath>
    <clipPath clipPathUnits="userSpaceOnUse" id="clipPath34">
      <path d="M 0,612 H 792 V 0 H 0 Z" transform="translate(-461.82331,-240.78841)" id="path34" />
    </clipPath>
    <clipPath clipPathUnits="userSpaceOnUse" id="clipPath36">
      <path d="M 0,612 H 792 V 0 H 0 Z" transform="translate(-466.28401,-243.18811)" id="path36" />
    </clipPath>
    <clipPath clipPathUnits="userSpaceOnUse" id="clipPath38">
      <path d="M 0,612 H 792 V 0 H 0 Z" transform="translate(-480.27481,-240.3307)" id="path38" />
    </clipPath>
    <clipPath clipPathUnits="userSpaceOnUse" id="clipPath40">
      <path d="M 0,612 H 792 V 0 H 0 Z" transform="translate(-492.49481,-240.78841)" id="path40" />
    </clipPath>
    <clipPath clipPathUnits="userSpaceOnUse" id="clipPath42">
      <path d="M 0,612 H 792 V 0 H 0 Z" transform="translate(-496.95541,-243.18811)" id="path42" />
    </clipPath>
    <clipPath clipPathUnits="userSpaceOnUse" id="clipPath44">
      <path d="M 0,612 H 792 V 0 H 0 Z" transform="translate(-295.00581,-224.68341)" id="path44" />
    </clipPath>
    <clipPath clipPathUnits="userSpaceOnUse" id="clipPath46">
      <path d="M 0,612 H 792 V 0 H 0 Z" transform="translate(-300.32281,-222.32541)" id="path46" />
    </clipPath>
    <clipPath clipPathUnits="userSpaceOnUse" id="clipPath48">
      <path d="M 0,612 H 792 V 0 H 0 Z" transform="translate(-311.02561,-227.236)" id="path48" />
    </clipPath>
    <clipPath clipPathUnits="userSpaceOnUse" id="clipPath50">
      <path d="M 0,612 H 792 V 0 H 0 Z" transform="translate(-325.02601,-225.32211)" id="path50" />
    </clipPath>
    <clipPath clipPathUnits="userSpaceOnUse" id="clipPath52">
      <path d="M 0,612 H 792 V 0 H 0 Z" transform="translate(-334.05391,-223.17111)" id="path52" />
    </clipPath>
    <clipPath clipPathUnits="userSpaceOnUse" id="clipPath54">
      <path d="M 0,612 H 792 V 0 H 0 Z" transform="translate(-343.34491,-222.32541)" id="path54" />
    </clipPath>
    <clipPath clipPathUnits="userSpaceOnUse" id="clipPath56">
      <path d="M 0,612 H 792 V 0 H 0 Z" transform="translate(-354.08931,-227.236)" id="path56" />
    </clipPath>
    <clipPath clipPathUnits="userSpaceOnUse" id="clipPath58">
      <path d="M 0,612 H 792 V 0 H 0 Z" transform="translate(-372.12271,-224.37861)" id="path58" />
    </clipPath>
    <clipPath clipPathUnits="userSpaceOnUse" id="clipPath60">
      <path d="M 0,612 H 792 V 0 H 0 Z" transform="translate(-378.86211,-227.236)" id="path60" />
    </clipPath>
    <clipPath clipPathUnits="userSpaceOnUse" id="clipPath62">
      <path d="M 0,612 H 792 V 0 H 0 Z" transform="translate(-393.21861,-219.41191)" id="path62" />
    </clipPath>
    <clipPath clipPathUnits="userSpaceOnUse" id="clipPath64">
      <path d="M 0,612 H 792 V 0 H 0 Z" transform="translate(-410.35021,-223.07431)" id="path64" />
    </clipPath>
    <clipPath clipPathUnits="userSpaceOnUse" id="clipPath66">
      <path d="M 0,612 H 792 V 0 H 0 Z" transform="translate(-419.75921,-223.17111)" id="path66" />
    </clipPath>
    <clipPath clipPathUnits="userSpaceOnUse" id="clipPath68">
      <path d="M 0,612 H 792 V 0 H 0 Z" transform="translate(-427.56401,-227.236)" id="path68" />
    </clipPath>
    <clipPath clipPathUnits="userSpaceOnUse" id="clipPath70">
      <path d="M 0,612 H 792 V 0 H 0 Z" transform="translate(-435.61551,-227.236)" id="path70" />
    </clipPath>
    <clipPath clipPathUnits="userSpaceOnUse" id="clipPath72">
      <path d="M 0,612 H 792 V 0 H 0 Z" transform="translate(-446.75181,-227.236)" id="path72" />
    </clipPath>
    <clipPath clipPathUnits="userSpaceOnUse" id="clipPath74">
      <path d="M 0,612 H 792 V 0 H 0 Z" transform="translate(-456.27021,-227.236)" id="path74" />
    </clipPath>
    <clipPath clipPathUnits="userSpaceOnUse" id="clipPath76">
      <path d="M 0,612 H 792 V 0 H 0 Z" transform="translate(-470.27061,-225.32211)" id="path76" />
    </clipPath>
    <clipPath clipPathUnits="userSpaceOnUse" id="clipPath78">
      <path d="M 0,612 H 792 V 0 H 0 Z" id="path78" />
    </clipPath>
    <clipPath clipPathUnits="userSpaceOnUse" id="clipPath80">
      <path d="M 0,612 H 792 V 0 H 0 Z" transform="translate(-484.05621,-222.32541)" id="path80" />
    </clipPath>
    <clipPath clipPathUnits="userSpaceOnUse" id="clipPath82">
      <path d="M 0,612 H 792 V 0 H 0 Z" transform="translate(-494.56551,-227.236)" id="path82" />
    </clipPath>
    <clipPath clipPathUnits="userSpaceOnUse" id="clipPath84">
      <path d="M 0,612 H 792 V 0 H 0 Z" transform="translate(-288.5347,-255.92821)" id="path84" />
    </clipPath>
    <clipPath clipPathUnits="userSpaceOnUse" id="clipPath86">
      <path d="M 0,612 H 792 V 0 H 0 Z" transform="translate(-503.76232,-274.63551)" id="path86" />
    </clipPath>
    <clipPath clipPathUnits="userSpaceOnUse" id="clipPath88">
      <path d="M 0,612 H 792 V 0 H 0 Z" transform="translate(-502.22512,-258.96211)" id="path88" />
    </clipPath>
    <clipPath clipPathUnits="userSpaceOnUse" id="clipPath90">
      <path d="M 0,612 H 792 V 0 H 0 Z" transform="translate(-508.15552,-259.49631)" id="path90" />
    </clipPath>
  </defs>
  <g id="layer-MC0" transform="translate(-4.0478713e-4,-1.0939893)">
    <g id="g1" transform="translate(-3.2663789,0.8222674)">
      <path id="path1" d="m 0,0 c 0,-0.583 -0.088,-1.12 -0.263,-1.609 -0.176,-0.491 -0.438,-0.916 -0.784,-1.276 -0.347,-0.361 -0.78,-0.644 -1.298,-0.847 -0.517,-0.203 -1.114,-0.305 -1.789,-0.305 -0.685,0 -1.286,0.102 -1.803,0.305 -0.519,0.203 -0.95,0.486 -1.297,0.847 -0.347,0.36 -0.608,0.785 -0.784,1.276 C -8.194,-1.12 -8.282,-0.583 -8.282,0 v 6.034 h 2.165 V 0.083 c 0,-0.306 0.048,-0.587 0.145,-0.846 0.097,-0.259 0.234,-0.483 0.409,-0.673 0.175,-0.19 0.386,-0.338 0.632,-0.444 0.244,-0.107 0.511,-0.16 0.797,-0.16 0.287,0 0.55,0.053 0.791,0.16 0.24,0.106 0.448,0.254 0.624,0.444 0.176,0.19 0.312,0.414 0.409,0.673 0.097,0.259 0.146,0.54 0.146,0.846 V 6.034 H 0 Z" style="fill:#1c5db1;fill-opacity:1;fill-rule:nonzero;stroke:none" transform="matrix(1.3333333,0,0,-1.3333333,38.264382,223.51952)" clip-path="url(#clipPath2)" />
      <path id="path3" d="m 0,0 c 0,0.175 0.032,0.342 0.097,0.499 0.065,0.157 0.155,0.293 0.27,0.41 0.116,0.115 0.252,0.205 0.41,0.27 0.157,0.064 0.323,0.097 0.499,0.097 0.175,0 0.342,-0.033 0.5,-0.097 C 1.932,1.114 2.069,1.024 2.184,0.909 2.3,0.792 2.391,0.656 2.455,0.499 2.52,0.342 2.552,0.175 2.552,0 2.552,-0.176 2.52,-0.343 2.455,-0.499 2.391,-0.657 2.3,-0.793 2.184,-0.909 2.069,-1.025 1.932,-1.115 1.776,-1.18 1.618,-1.243 1.451,-1.276 1.276,-1.276 1.1,-1.276 0.934,-1.243 0.777,-1.18 0.619,-1.115 0.483,-1.025 0.367,-0.909 0.252,-0.793 0.162,-0.657 0.097,-0.499 0.032,-0.343 0,-0.176 0,0" style="fill:#1c5db1;fill-opacity:1;fill-rule:nonzero;stroke:none" transform="matrix(1.3333333,0,0,-1.3333333,40.337712,226.97846)" clip-path="url(#clipPath4)" />
      <path id="path5" d="M 0,0 C -0.176,0.222 -0.414,0.386 -0.715,0.493 -1.016,0.598 -1.3,0.652 -1.568,0.652 -1.726,0.652 -1.887,0.633 -2.053,0.596 -2.22,0.559 -2.377,0.501 -2.525,0.423 -2.674,0.344 -2.794,0.24 -2.885,0.11 c -0.093,-0.129 -0.14,-0.286 -0.14,-0.471 0,-0.296 0.111,-0.522 0.333,-0.679 0.223,-0.158 0.501,-0.291 0.84,-0.403 0.337,-0.111 0.701,-0.222 1.089,-0.333 0.388,-0.111 0.75,-0.269 1.088,-0.472 0.338,-0.203 0.617,-0.476 0.84,-0.817 0.222,-0.343 0.333,-0.801 0.333,-1.374 0,-0.546 -0.103,-1.022 -0.306,-1.429 C 0.989,-6.275 0.714,-6.613 0.367,-6.881 0.02,-7.149 -0.382,-7.348 -0.84,-7.477 c -0.458,-0.129 -0.94,-0.194 -1.449,-0.194 -0.639,0 -1.231,0.097 -1.776,0.291 -0.546,0.194 -1.054,0.509 -1.526,0.943 l 1.54,1.693 c 0.221,-0.296 0.502,-0.526 0.839,-0.687 0.338,-0.162 0.687,-0.243 1.047,-0.243 0.176,0 0.354,0.021 0.535,0.063 0.18,0.041 0.341,0.103 0.484,0.187 0.144,0.083 0.26,0.189 0.348,0.319 0.088,0.13 0.131,0.282 0.131,0.458 0,0.296 -0.113,0.529 -0.339,0.7 -0.227,0.171 -0.511,0.317 -0.854,0.437 -0.342,0.12 -0.712,0.24 -1.109,0.36 -0.398,0.121 -0.768,0.283 -1.11,0.486 -0.342,0.203 -0.627,0.472 -0.853,0.805 -0.227,0.333 -0.34,0.772 -0.34,1.318 0,0.526 0.104,0.989 0.312,1.387 0.208,0.397 0.486,0.73 0.832,0.998 0.347,0.269 0.747,0.47 1.2,0.604 0.453,0.134 0.921,0.201 1.401,0.201 0.556,0 1.092,-0.078 1.61,-0.236 0.517,-0.157 0.984,-0.421 1.4,-0.79 z" style="fill:#1c5db1;fill-opacity:1;fill-rule:nonzero;stroke:none" transform="matrix(1.3333333,0,0,-1.3333333,54.672512,218.67379)" clip-path="url(#clipPath6)" />
      <path id="path7" d="m 0,0 c 0,0.175 0.033,0.342 0.097,0.499 0.066,0.157 0.155,0.293 0.271,0.41 0.116,0.115 0.251,0.205 0.409,0.27 0.158,0.064 0.324,0.097 0.499,0.097 0.175,0 0.342,-0.033 0.501,-0.097 C 1.933,1.114 2.069,1.024 2.185,0.909 2.301,0.792 2.391,0.656 2.456,0.499 2.52,0.342 2.553,0.175 2.553,0 2.553,-0.176 2.52,-0.343 2.456,-0.499 2.391,-0.657 2.301,-0.793 2.185,-0.909 2.069,-1.025 1.933,-1.115 1.777,-1.18 1.618,-1.243 1.451,-1.276 1.276,-1.276 1.101,-1.276 0.935,-1.243 0.777,-1.18 0.619,-1.115 0.484,-1.025 0.368,-0.909 0.252,-0.793 0.163,-0.657 0.097,-0.499 0.033,-0.343 0,-0.176 0,0" style="fill:#1c5db1;fill-opacity:1;fill-rule:nonzero;stroke:none" transform="matrix(1.3333333,0,0,-1.3333333,58.630642,226.97846)" clip-path="url(#clipPath8)" />
      <path id="path9" d="m 0,0 c -0.213,0.259 -0.474,0.458 -0.784,0.597 -0.309,0.138 -0.667,0.208 -1.075,0.208 -0.407,0 -0.783,-0.079 -1.13,-0.236 -0.347,-0.158 -0.647,-0.377 -0.902,-0.659 -0.254,-0.283 -0.454,-0.617 -0.597,-1.005 -0.143,-0.389 -0.215,-0.81 -0.215,-1.263 0,-0.463 0.072,-0.885 0.215,-1.27 0.143,-0.384 0.341,-0.717 0.59,-0.998 0.25,-0.283 0.543,-0.502 0.881,-0.659 0.338,-0.158 0.701,-0.236 1.09,-0.236 0.443,0 0.836,0.093 1.178,0.278 0.343,0.184 0.624,0.444 0.846,0.776 L 1.9,-5.812 c -0.416,-0.583 -0.942,-1.013 -1.581,-1.29 -0.638,-0.278 -1.294,-0.416 -1.97,-0.416 -0.767,0 -1.474,0.12 -2.122,0.361 -0.647,0.24 -1.206,0.584 -1.679,1.033 -0.471,0.448 -0.838,0.992 -1.103,1.629 -0.263,0.639 -0.394,1.35 -0.394,2.137 0,0.786 0.131,1.498 0.394,2.136 0.265,0.638 0.632,1.181 1.103,1.63 0.473,0.449 1.032,0.793 1.679,1.033 0.648,0.241 1.355,0.361 2.122,0.361 0.278,0 0.567,-0.025 0.867,-0.076 0.3,-0.052 0.596,-0.132 0.888,-0.243 C 0.396,2.373 0.675,2.225 0.943,2.039 1.211,1.854 1.451,1.628 1.664,1.359 Z" style="fill:#1c5db1;fill-opacity:1;fill-rule:nonzero;stroke:none" transform="matrix(1.3333333,0,0,-1.3333333,81.768246,218.87766)" clip-path="url(#clipPath10)" />
      <path id="path11" d="M 0,0 H 6.673 V -1.997 H 2.164 V -3.829 H 6.423 V -5.826 H 2.164 V -7.824 H 6.922 V -9.821 H 0 Z" style="fill:#1c5db1;fill-opacity:1;fill-rule:nonzero;stroke:none" transform="matrix(1.3333333,0,0,-1.3333333,87.979046,215.47419)" clip-path="url(#clipPath12)" />
      <path id="path13" d="M 0,0 H 2.942 L 7.116,-6.825 H 7.144 V 0 H 9.308 V -9.821 H 6.478 L 2.193,-2.83 H 2.164 V -9.821 H 0 Z" style="fill:#1c5db1;fill-opacity:1;fill-rule:nonzero;stroke:none" transform="matrix(1.3333333,0,0,-1.3333333,101.70624,215.47419)" clip-path="url(#clipPath14)" />
      <path id="path15" d="M 0,0 H -2.801 V 1.914 H 4.967 V 0 H 2.165 V -7.907 H 0 Z" style="fill:#1c5db1;fill-opacity:1;fill-rule:nonzero;stroke:none" transform="matrix(1.3333333,0,0,-1.3333333,121.22371,218.02606)" clip-path="url(#clipPath16)" />
      <path id="path17" d="M 0,0 H 6.673 V -1.997 H 2.165 V -3.829 H 6.423 V -5.826 H 2.165 V -7.824 H 6.922 V -9.821 H 0 Z" style="fill:#1c5db1;fill-opacity:1;fill-rule:nonzero;stroke:none" transform="matrix(1.3333333,0,0,-1.3333333,131.28171,215.47419)" clip-path="url(#clipPath18)" />
      <path id="path19" d="M 0,0 H 1.275 C 1.47,0 1.676,0.008 1.893,0.021 2.11,0.035 2.307,0.076 2.483,0.146 2.658,0.216 2.804,0.324 2.92,0.472 3.034,0.62 3.092,0.828 3.092,1.096 3.092,1.346 3.042,1.544 2.941,1.692 2.839,1.84 2.709,1.954 2.553,2.033 2.395,2.111 2.214,2.165 2.011,2.193 1.807,2.22 1.608,2.234 1.415,2.234 H 0 Z M -2.165,4.065 H 1.637 C 2.136,4.065 2.61,4.017 3.058,3.919 3.507,3.822 3.899,3.66 4.238,3.434 4.575,3.207 4.843,2.902 5.041,2.518 5.241,2.135 5.34,1.656 5.34,1.083 5.34,0.389 5.159,-0.2 4.799,-0.686 4.438,-1.172 3.911,-1.479 3.218,-1.609 L 5.715,-5.756 H 3.121 L 1.068,-1.831 H 0 v -3.925 h -2.165 z" style="fill:#1c5db1;fill-opacity:1;fill-rule:nonzero;stroke:none" transform="matrix(1.3333333,0,0,-1.3333333,147.71051,220.89419)" clip-path="url(#clipPath20)" />
      <path id="path21" d="m 0,0 c -0.176,0.222 -0.414,0.386 -0.714,0.493 -0.3,0.105 -0.585,0.159 -0.854,0.159 -0.156,0 -0.319,-0.019 -0.485,-0.056 C -2.22,0.559 -2.376,0.501 -2.525,0.423 -2.673,0.344 -2.793,0.24 -2.885,0.11 c -0.092,-0.129 -0.139,-0.286 -0.139,-0.471 0,-0.296 0.111,-0.522 0.333,-0.679 0.222,-0.158 0.502,-0.291 0.839,-0.403 0.338,-0.111 0.701,-0.222 1.09,-0.333 0.388,-0.111 0.75,-0.269 1.088,-0.472 0.338,-0.203 0.617,-0.476 0.839,-0.817 0.223,-0.343 0.333,-0.801 0.333,-1.374 0,-0.546 -0.101,-1.022 -0.305,-1.429 C 0.99,-6.275 0.714,-6.613 0.368,-6.881 0.021,-7.149 -0.381,-7.348 -0.839,-7.477 -1.297,-7.606 -1.78,-7.671 -2.288,-7.671 c -0.638,0 -1.23,0.097 -1.776,0.291 -0.546,0.194 -1.055,0.509 -1.526,0.943 l 1.54,1.693 c 0.222,-0.296 0.501,-0.526 0.839,-0.687 0.337,-0.162 0.686,-0.243 1.047,-0.243 0.177,0 0.355,0.021 0.535,0.063 0.18,0.041 0.342,0.103 0.485,0.187 0.143,0.083 0.259,0.189 0.347,0.319 0.087,0.13 0.131,0.282 0.131,0.458 0,0.296 -0.113,0.529 -0.339,0.7 -0.228,0.171 -0.512,0.317 -0.853,0.437 -0.342,0.12 -0.713,0.24 -1.111,0.36 -0.396,0.121 -0.767,0.283 -1.109,0.486 -0.342,0.203 -0.627,0.472 -0.853,0.805 -0.226,0.333 -0.341,0.772 -0.341,1.318 0,0.526 0.105,0.989 0.313,1.387 0.208,0.397 0.486,0.73 0.833,0.998 0.346,0.269 0.746,0.47 1.2,0.604 0.453,0.134 0.919,0.201 1.401,0.201 0.554,0 1.091,-0.078 1.608,-0.236 0.519,-0.157 0.985,-0.421 1.401,-0.79 z" style="fill:#1c5db1;fill-opacity:1;fill-rule:nonzero;stroke:none" transform="matrix(1.3333333,0,0,-1.3333333,165.38811,218.67379)" clip-path="url(#clipPath22)" />
      <path id="path23" d="M 0,0 H 6.589 V -1.997 H 2.165 V -3.995 H 6.256 V -5.992 H 2.165 V -9.821 H 0 Z" style="fill:#1c5db1;fill-opacity:1;fill-rule:nonzero;stroke:none" transform="matrix(1.3333333,0,0,-1.3333333,178.44571,215.47419)" clip-path="url(#clipPath24)" />
      <path id="path25" d="M 0,0 C 0,-0.463 0.072,-0.885 0.215,-1.27 0.358,-1.654 0.564,-1.987 0.832,-2.268 1.1,-2.551 1.421,-2.77 1.797,-2.927 2.17,-3.085 2.589,-3.163 3.052,-3.163 c 0.461,0 0.88,0.078 1.255,0.236 0.375,0.157 0.696,0.376 0.965,0.659 0.268,0.281 0.473,0.614 0.616,0.998 0.144,0.385 0.216,0.807 0.216,1.27 0,0.453 -0.072,0.874 -0.216,1.263 C 5.745,1.651 5.54,1.986 5.272,2.268 5.003,2.55 4.682,2.769 4.307,2.927 3.932,3.084 3.513,3.163 3.052,3.163 2.589,3.163 2.17,3.084 1.797,2.927 1.421,2.769 1.1,2.55 0.832,2.268 0.564,1.986 0.358,1.651 0.215,1.263 0.072,0.874 0,0.453 0,0 m -2.248,0 c 0,0.786 0.132,1.498 0.396,2.136 0.264,0.638 0.632,1.181 1.102,1.63 0.472,0.449 1.032,0.793 1.68,1.033 C 1.576,5.04 2.285,5.16 3.052,5.16 3.819,5.16 4.526,5.04 5.174,4.799 5.821,4.559 6.38,4.215 6.853,3.766 7.324,3.317 7.692,2.774 7.956,2.136 8.219,1.498 8.35,0.786 8.35,0 8.35,-0.787 8.219,-1.498 7.956,-2.136 7.692,-2.774 7.324,-3.318 6.853,-3.766 6.38,-4.215 5.821,-4.559 5.174,-4.799 4.526,-5.04 3.819,-5.16 3.052,-5.16 c -0.767,0 -1.476,0.12 -2.122,0.361 -0.648,0.24 -1.208,0.584 -1.68,1.033 -0.47,0.448 -0.838,0.992 -1.102,1.63 -0.264,0.638 -0.396,1.349 -0.396,2.136" style="fill:#1c5db1;fill-opacity:1;fill-rule:nonzero;stroke:none" transform="matrix(1.3333333,0,0,-1.3333333,192.97024,222.02166)" clip-path="url(#clipPath26)" />
      <path id="path27" d="m 0,0 h 1.276 c 0.194,0 0.4,0.008 0.617,0.021 0.217,0.014 0.414,0.055 0.59,0.125 0.175,0.07 0.321,0.178 0.436,0.326 0.116,0.148 0.174,0.356 0.174,0.624 0,0.25 -0.051,0.448 -0.152,0.596 C 2.839,1.84 2.709,1.954 2.552,2.033 2.395,2.111 2.214,2.165 2.011,2.193 1.807,2.22 1.609,2.234 1.415,2.234 H 0 Z m -2.165,4.065 h 3.801 c 0.5,0 0.974,-0.048 1.423,-0.146 C 3.507,3.822 3.899,3.66 4.237,3.434 4.575,3.207 4.843,2.902 5.042,2.518 5.241,2.135 5.34,1.656 5.34,1.083 5.34,0.389 5.16,-0.2 4.799,-0.686 4.438,-1.172 3.911,-1.479 3.218,-1.609 L 5.715,-5.756 H 3.121 L 1.067,-1.831 H 0 v -3.925 h -2.165 z" style="fill:#1c5db1;fill-opacity:1;fill-rule:nonzero;stroke:none" transform="matrix(1.3333333,0,0,-1.3333333,210.05318,220.89419)" clip-path="url(#clipPath28)" />
      <path id="path29" d="m 0,0 h 1.123 c 0.5,0 0.964,0.051 1.395,0.153 0.429,0.101 0.802,0.271 1.116,0.506 0.314,0.236 0.562,0.546 0.742,0.93 0.18,0.383 0.27,0.853 0.27,1.408 0,0.481 -0.09,0.899 -0.27,1.255 C 4.196,4.608 3.953,4.902 3.648,5.133 3.343,5.363 2.984,5.538 2.573,5.653 2.162,5.769 1.729,5.827 1.276,5.827 H 0 Z m -2.165,7.824 h 3.247 c 0.785,0 1.532,-0.088 2.24,-0.263 C 4.029,7.385 4.646,7.1 5.174,6.707 5.701,6.315 6.119,5.804 6.429,5.175 6.738,4.546 6.894,3.782 6.894,2.885 6.894,2.09 6.743,1.389 6.443,0.784 6.142,0.178 5.738,-0.33 5.229,-0.742 4.721,-1.153 4.134,-1.466 3.468,-1.678 2.801,-1.891 2.104,-1.997 1.373,-1.997 h -3.538 z" style="fill:#1c5db1;fill-opacity:1;fill-rule:nonzero;stroke:none" transform="matrix(1.3333333,0,0,-1.3333333,230.84144,225.90632)" clip-path="url(#clipPath30)" />
      <path id="path31" d="m 450.878,243.188 h 2.164 v -9.821 h -2.164 z" style="fill:#1c5db1;fill-opacity:1;fill-rule:nonzero;stroke:none" transform="matrix(1.3333333,0,0,-1.3333333,-357.55509,539.72499)" clip-path="url(#clipPath32)" />
      <path id="path33" d="m 0,0 c -0.176,0.222 -0.414,0.386 -0.715,0.493 -0.3,0.105 -0.584,0.159 -0.853,0.159 -0.157,0 -0.319,-0.019 -0.485,-0.056 C -2.22,0.559 -2.377,0.501 -2.525,0.423 -2.673,0.344 -2.793,0.24 -2.885,0.11 c -0.093,-0.129 -0.139,-0.286 -0.139,-0.471 0,-0.296 0.111,-0.522 0.333,-0.679 0.222,-0.158 0.501,-0.291 0.839,-0.403 0.338,-0.111 0.701,-0.222 1.089,-0.333 0.389,-0.111 0.751,-0.269 1.089,-0.472 0.337,-0.203 0.617,-0.476 0.839,-0.817 0.222,-0.343 0.333,-0.801 0.333,-1.374 0,-0.546 -0.102,-1.022 -0.305,-1.429 C 0.989,-6.275 0.714,-6.613 0.368,-6.881 0.02,-7.149 -0.381,-7.348 -0.84,-7.477 c -0.458,-0.129 -0.94,-0.194 -1.449,-0.194 -0.638,0 -1.23,0.097 -1.776,0.291 -0.546,0.194 -1.054,0.509 -1.526,0.943 l 1.541,1.693 c 0.221,-0.296 0.501,-0.526 0.839,-0.687 0.337,-0.162 0.686,-0.243 1.046,-0.243 0.177,0 0.355,0.021 0.535,0.063 0.181,0.041 0.342,0.103 0.485,0.187 0.144,0.083 0.26,0.189 0.347,0.319 0.088,0.13 0.132,0.282 0.132,0.458 0,0.296 -0.113,0.529 -0.34,0.7 -0.227,0.171 -0.511,0.317 -0.853,0.437 -0.342,0.12 -0.712,0.24 -1.11,0.36 -0.397,0.121 -0.768,0.283 -1.109,0.486 -0.343,0.203 -0.628,0.472 -0.854,0.805 -0.226,0.333 -0.34,0.772 -0.34,1.318 0,0.526 0.105,0.989 0.313,1.387 0.208,0.397 0.485,0.73 0.832,0.998 0.347,0.269 0.747,0.47 1.2,0.604 0.453,0.134 0.92,0.201 1.401,0.201 0.555,0 1.091,-0.078 1.609,-0.236 0.518,-0.157 0.985,-0.421 1.401,-0.79 z" style="fill:#1c5db1;fill-opacity:1;fill-rule:nonzero;stroke:none" transform="matrix(1.3333333,0,0,-1.3333333,258.20931,218.67379)" clip-path="url(#clipPath34)" />
      <path id="path35" d="M 0,0 H 6.673 V -1.997 H 2.165 V -3.829 H 6.423 V -5.826 H 2.165 V -7.824 H 6.922 V -9.821 H 0 Z" style="fill:#1c5db1;fill-opacity:1;fill-rule:nonzero;stroke:none" transform="matrix(1.3333333,0,0,-1.3333333,264.15691,215.47419)" clip-path="url(#clipPath36)" />
      <path id="path37" d="m 0,0 -1.193,-3.052 h 2.4 z m -0.833,2.857 h 1.79 L 5.229,-6.964 H 2.788 l -0.846,2.08 h -3.815 l -0.819,-2.08 h -2.385 z" style="fill:#1c5db1;fill-opacity:1;fill-rule:nonzero;stroke:none" transform="matrix(1.3333333,0,0,-1.3333333,282.81131,219.28406)" clip-path="url(#clipPath38)" />
      <path id="path39" d="m 0,0 c -0.176,0.222 -0.414,0.386 -0.715,0.493 -0.3,0.105 -0.584,0.159 -0.853,0.159 -0.157,0 -0.319,-0.019 -0.485,-0.056 C -2.22,0.559 -2.377,0.501 -2.525,0.423 -2.673,0.344 -2.793,0.24 -2.885,0.11 c -0.093,-0.129 -0.139,-0.286 -0.139,-0.471 0,-0.296 0.111,-0.522 0.333,-0.679 0.222,-0.158 0.501,-0.291 0.839,-0.403 0.338,-0.111 0.701,-0.222 1.089,-0.333 0.389,-0.111 0.751,-0.269 1.089,-0.472 0.337,-0.203 0.617,-0.476 0.839,-0.817 0.222,-0.343 0.333,-0.801 0.333,-1.374 0,-0.546 -0.102,-1.022 -0.305,-1.429 C 0.989,-6.275 0.714,-6.613 0.368,-6.881 0.02,-7.149 -0.381,-7.348 -0.84,-7.477 c -0.458,-0.129 -0.94,-0.194 -1.449,-0.194 -0.638,0 -1.23,0.097 -1.776,0.291 -0.546,0.194 -1.054,0.509 -1.526,0.943 l 1.541,1.693 c 0.221,-0.296 0.501,-0.526 0.838,-0.687 0.338,-0.162 0.687,-0.243 1.047,-0.243 0.177,0 0.355,0.021 0.535,0.063 0.181,0.041 0.342,0.103 0.485,0.187 0.144,0.083 0.26,0.189 0.347,0.319 0.088,0.13 0.132,0.282 0.132,0.458 0,0.296 -0.113,0.529 -0.34,0.7 -0.227,0.171 -0.511,0.317 -0.853,0.437 -0.342,0.12 -0.712,0.24 -1.11,0.36 -0.397,0.121 -0.768,0.283 -1.109,0.486 -0.343,0.203 -0.628,0.472 -0.854,0.805 -0.226,0.333 -0.34,0.772 -0.34,1.318 0,0.526 0.105,0.989 0.313,1.387 0.208,0.397 0.485,0.73 0.832,0.998 0.347,0.269 0.747,0.47 1.2,0.604 0.453,0.134 0.92,0.201 1.401,0.201 0.555,0 1.091,-0.078 1.609,-0.236 0.518,-0.157 0.985,-0.421 1.401,-0.79 z" style="fill:#1c5db1;fill-opacity:1;fill-rule:nonzero;stroke:none" transform="matrix(1.3333333,0,0,-1.3333333,299.10464,218.67379)" clip-path="url(#clipPath40)" />
      <path id="path41" d="M 0,0 H 6.673 V -1.997 H 2.165 V -3.829 H 6.423 V -5.826 H 2.165 V -7.824 H 6.922 V -9.821 H 0 Z" style="fill:#1c5db1;fill-opacity:1;fill-rule:nonzero;stroke:none" transform="matrix(1.3333333,0,0,-1.3333333,305.05211,215.47419)" clip-path="url(#clipPath42)" />
      <path id="path43" d="m 0,0 c -0.213,0.259 -0.474,0.458 -0.784,0.597 -0.31,0.138 -0.668,0.208 -1.075,0.208 -0.407,0 -0.784,-0.079 -1.13,-0.236 -0.347,-0.158 -0.648,-0.377 -0.902,-0.659 -0.255,-0.283 -0.454,-0.617 -0.597,-1.005 -0.143,-0.389 -0.215,-0.81 -0.215,-1.263 0,-0.463 0.072,-0.885 0.215,-1.27 0.143,-0.384 0.34,-0.717 0.59,-0.998 0.249,-0.283 0.543,-0.502 0.88,-0.659 0.339,-0.158 0.701,-0.236 1.09,-0.236 0.444,0 0.837,0.093 1.178,0.278 0.343,0.184 0.625,0.444 0.847,0.777 L 1.9,-5.812 C 1.483,-6.395 0.957,-6.825 0.318,-7.102 -0.319,-7.38 -0.976,-7.518 -1.651,-7.518 c -0.767,0 -1.475,0.12 -2.122,0.361 -0.648,0.24 -1.207,0.584 -1.679,1.033 -0.471,0.448 -0.838,0.992 -1.103,1.629 -0.264,0.639 -0.395,1.35 -0.395,2.137 0,0.786 0.131,1.498 0.395,2.136 0.265,0.638 0.632,1.181 1.103,1.63 0.472,0.449 1.031,0.793 1.679,1.033 0.647,0.241 1.355,0.361 2.122,0.361 0.278,0 0.566,-0.025 0.867,-0.076 0.3,-0.052 0.596,-0.132 0.888,-0.243 C 0.396,2.373 0.674,2.225 0.943,2.039 1.21,1.854 1.451,1.628 1.664,1.359 Z" style="fill:#1c5db1;fill-opacity:1;fill-rule:nonzero;stroke:none" transform="matrix(1.3333333,0,0,-1.3333333,35.785982,240.14712)" clip-path="url(#clipPath44)" />
      <path id="path45" d="m 0,0 c 0,-0.463 0.072,-0.885 0.215,-1.27 0.143,-0.384 0.348,-0.717 0.617,-0.998 0.268,-0.283 0.59,-0.502 0.964,-0.659 0.375,-0.158 0.793,-0.236 1.256,-0.236 0.462,0 0.88,0.078 1.255,0.236 0.374,0.157 0.696,0.376 0.965,0.659 0.267,0.281 0.473,0.614 0.617,0.998 0.143,0.385 0.215,0.807 0.215,1.27 0,0.453 -0.072,0.874 -0.215,1.263 C 5.745,1.651 5.539,1.986 5.272,2.268 5.003,2.55 4.681,2.769 4.307,2.927 3.932,3.084 3.514,3.163 3.052,3.163 2.589,3.163 2.171,3.084 1.796,2.927 1.422,2.769 1.1,2.55 0.832,2.268 0.563,1.986 0.358,1.651 0.215,1.263 0.072,0.874 0,0.453 0,0 m -2.247,0 c 0,0.786 0.132,1.498 0.395,2.136 0.263,0.638 0.631,1.181 1.103,1.63 0.471,0.449 1.032,0.793 1.678,1.033 C 1.576,5.04 2.284,5.16 3.052,5.16 3.819,5.16 4.526,5.04 5.174,4.799 5.821,4.559 6.38,4.215 6.853,3.766 7.325,3.317 7.692,2.774 7.956,2.136 8.219,1.498 8.35,0.786 8.35,0 8.35,-0.787 8.219,-1.498 7.956,-2.136 7.692,-2.774 7.325,-3.318 6.853,-3.766 6.38,-4.215 5.821,-4.559 5.174,-4.799 4.526,-5.04 3.819,-5.16 3.052,-5.16 c -0.768,0 -1.476,0.12 -2.123,0.361 -0.646,0.24 -1.207,0.584 -1.678,1.033 -0.472,0.448 -0.84,0.992 -1.103,1.63 -0.263,0.638 -0.395,1.349 -0.395,2.136" style="fill:#1c5db1;fill-opacity:1;fill-rule:nonzero;stroke:none" transform="matrix(1.3333333,0,0,-1.3333333,42.875312,243.29112)" clip-path="url(#clipPath46)" />
      <path id="path47" d="M 0,0 H 2.941 L 7.117,-6.825 H 7.144 V 0 H 9.307 V -9.821 H 6.478 L 2.192,-2.83 H 2.165 V -9.821 H 0 Z" style="fill:#1c5db1;fill-opacity:1;fill-rule:nonzero;stroke:none" transform="matrix(1.3333333,0,0,-1.3333333,57.145712,236.74366)" clip-path="url(#clipPath48)" />
      <path id="path49" d="M 0,0 H -2.802 V 1.914 H 4.966 V 0 H 2.164 V -7.907 H 0 Z" style="fill:#1c5db1;fill-opacity:1;fill-rule:nonzero;stroke:none" transform="matrix(1.3333333,0,0,-1.3333333,75.812912,239.29552)" clip-path="url(#clipPath50)" />
      <path id="path51" d="m 0,0 h 1.276 c 0.195,0 0.4,0.008 0.618,0.021 0.217,0.014 0.413,0.055 0.589,0.125 0.176,0.07 0.321,0.178 0.437,0.326 0.115,0.148 0.173,0.356 0.173,0.624 0,0.25 -0.051,0.448 -0.151,0.596 C 2.839,1.84 2.709,1.954 2.553,2.033 2.396,2.111 2.215,2.165 2.012,2.193 1.807,2.22 1.609,2.234 1.415,2.234 H 0 Z M -2.164,4.065 H 1.637 C 2.136,4.065 2.611,4.017 3.059,3.919 3.507,3.822 3.9,3.66 4.238,3.434 4.575,3.207 4.844,2.902 5.042,2.518 5.241,2.135 5.341,1.656 5.341,1.083 5.341,0.389 5.16,-0.2 4.799,-0.686 4.439,-1.172 3.912,-1.479 3.218,-1.609 L 5.715,-5.756 H 3.122 L 1.068,-1.831 H 0 v -3.925 h -2.164 z" style="fill:#1c5db1;fill-opacity:1;fill-rule:nonzero;stroke:none" transform="matrix(1.3333333,0,0,-1.3333333,87.850116,242.16352)" clip-path="url(#clipPath52)" />
      <path id="path53" d="m 0,0 c 0,-0.463 0.072,-0.885 0.215,-1.27 0.143,-0.384 0.349,-0.717 0.617,-0.998 0.269,-0.283 0.59,-0.502 0.965,-0.659 0.374,-0.158 0.792,-0.236 1.255,-0.236 0.462,0 0.88,0.078 1.256,0.236 0.374,0.157 0.695,0.376 0.964,0.659 0.268,0.281 0.474,0.614 0.617,0.998 0.143,0.385 0.215,0.807 0.215,1.27 0,0.453 -0.072,0.874 -0.215,1.263 C 5.746,1.651 5.54,1.986 5.272,2.268 5.003,2.55 4.682,2.769 4.308,2.927 3.932,3.084 3.514,3.163 3.052,3.163 2.589,3.163 2.171,3.084 1.797,2.927 1.422,2.769 1.101,2.55 0.832,2.268 0.564,1.986 0.358,1.651 0.215,1.263 0.072,0.874 0,0.453 0,0 m -2.247,0 c 0,0.786 0.132,1.498 0.395,2.136 0.264,0.638 0.632,1.181 1.103,1.63 C -0.277,4.215 0.283,4.559 0.93,4.799 1.577,5.04 2.285,5.16 3.052,5.16 3.82,5.16 4.526,5.04 5.175,4.799 5.821,4.559 6.381,4.215 6.853,3.766 7.325,3.317 7.693,2.774 7.956,2.136 8.219,1.498 8.35,0.786 8.35,0 8.35,-0.787 8.219,-1.498 7.956,-2.136 7.693,-2.774 7.325,-3.318 6.853,-3.766 6.381,-4.215 5.821,-4.559 5.175,-4.799 4.526,-5.04 3.82,-5.16 3.052,-5.16 c -0.767,0 -1.475,0.12 -2.122,0.361 -0.647,0.24 -1.207,0.584 -1.679,1.033 -0.471,0.448 -0.839,0.992 -1.103,1.63 -0.263,0.638 -0.395,1.349 -0.395,2.136" style="fill:#1c5db1;fill-opacity:1;fill-rule:nonzero;stroke:none" transform="matrix(1.3333333,0,0,-1.3333333,100.23811,243.29112)" clip-path="url(#clipPath54)" />
      <path id="path55" d="M 0,0 H 2.165 V -7.824 H 6.173 V -9.821 H 0 Z" style="fill:#1c5db1;fill-opacity:1;fill-rule:nonzero;stroke:none" transform="matrix(1.3333333,0,0,-1.3333333,114.56398,236.74366)" clip-path="url(#clipPath56)" />
      <path id="path57" d="m 0,0 -1.193,-3.052 h 2.4 z M -0.832,2.857 H 0.957 L 5.23,-6.964 H 2.788 l -0.846,2.08 h -3.814 l -0.819,-2.08 h -2.386 z" style="fill:#1c5db1;fill-opacity:1;fill-rule:nonzero;stroke:none" transform="matrix(1.3333333,0,0,-1.3333333,138.60851,240.55352)" clip-path="url(#clipPath58)" />
      <path id="path59" d="M 0,0 H 2.941 L 7.116,-6.825 H 7.143 V 0 H 9.307 V -9.821 H 6.477 L 2.192,-2.83 H 2.164 V -9.821 H 0 Z" style="fill:#1c5db1;fill-opacity:1;fill-rule:nonzero;stroke:none" transform="matrix(1.3333333,0,0,-1.3333333,147.59438,236.74366)" clip-path="url(#clipPath60)" />
      <path id="path61" d="m 0,0 h 1.123 c 0.5,0 0.964,0.051 1.395,0.153 0.43,0.101 0.802,0.271 1.116,0.506 0.315,0.236 0.563,0.546 0.743,0.93 0.179,0.383 0.27,0.853 0.27,1.408 0,0.481 -0.091,0.899 -0.27,1.255 C 4.197,4.608 3.954,4.902 3.649,5.133 3.343,5.363 2.985,5.538 2.573,5.653 2.162,5.769 1.729,5.827 1.276,5.827 H 0 Z M -2.165,7.824 H 1.083 C 1.868,7.824 2.615,7.736 3.322,7.561 4.03,7.385 4.647,7.1 5.174,6.707 5.701,6.315 6.12,5.804 6.43,5.175 6.739,4.546 6.894,3.782 6.894,2.885 6.894,2.09 6.743,1.389 6.443,0.784 6.143,0.178 5.739,-0.33 5.23,-0.742 4.721,-1.153 4.134,-1.466 3.468,-1.678 2.802,-1.891 2.105,-1.997 1.373,-1.997 h -3.538 z" style="fill:#1c5db1;fill-opacity:1;fill-rule:nonzero;stroke:none" transform="matrix(1.3333333,0,0,-1.3333333,166.73638,247.17579)" clip-path="url(#clipPath62)" />
      <path id="path63" d="M 0,0 H 1.442 C 1.637,0 1.824,0.018 2.004,0.055 2.185,0.093 2.345,0.155 2.49,0.243 2.633,0.331 2.748,0.451 2.837,0.604 2.924,0.756 2.969,0.948 2.969,1.18 2.969,1.429 2.911,1.63 2.794,1.782 2.678,1.935 2.531,2.053 2.351,2.136 2.17,2.22 1.97,2.273 1.747,2.296 1.525,2.318 1.312,2.331 1.109,2.331 H 0 Z M -2.165,4.162 H 1.484 C 1.992,4.162 2.473,4.115 2.926,4.023 3.379,3.93 3.775,3.771 4.112,3.544 4.45,3.318 4.718,3.012 4.917,2.629 5.116,2.245 5.215,1.762 5.215,1.18 5.215,0.606 5.123,0.125 4.938,-0.263 4.753,-0.652 4.498,-0.962 4.174,-1.193 3.851,-1.424 3.468,-1.588 3.024,-1.686 2.58,-1.782 2.099,-1.831 1.581,-1.831 H 0 V -5.66 h -2.165 z" style="fill:#1c5db1;fill-opacity:1;fill-rule:nonzero;stroke:none" transform="matrix(1.3333333,0,0,-1.3333333,189.57851,242.29259)" clip-path="url(#clipPath64)" />
      <path id="path65" d="m 0,0 h 1.276 c 0.194,0 0.4,0.008 0.617,0.021 0.217,0.014 0.414,0.055 0.59,0.125 0.175,0.07 0.321,0.178 0.436,0.326 0.116,0.148 0.174,0.356 0.174,0.624 0,0.25 -0.051,0.448 -0.152,0.596 C 2.839,1.84 2.709,1.954 2.552,2.033 2.395,2.111 2.214,2.165 2.011,2.193 1.807,2.22 1.609,2.234 1.415,2.234 H 0 Z m -2.165,4.065 h 3.801 c 0.5,0 0.974,-0.048 1.423,-0.146 C 3.507,3.822 3.899,3.66 4.237,3.434 4.575,3.207 4.843,2.902 5.042,2.518 5.241,2.135 5.34,1.656 5.34,1.083 5.34,0.389 5.16,-0.2 4.799,-0.686 4.438,-1.172 3.911,-1.479 3.218,-1.609 L 5.715,-5.756 H 3.121 L 1.067,-1.831 H 0 v -3.925 h -2.165 z" style="fill:#1c5db1;fill-opacity:1;fill-rule:nonzero;stroke:none" transform="matrix(1.3333333,0,0,-1.3333333,202.12384,242.16352)" clip-path="url(#clipPath66)" />
      <path id="path67" d="M 0,0 H 6.673 V -1.997 H 2.165 V -3.829 H 6.423 V -5.826 H 2.165 V -7.824 H 6.922 V -9.821 H 0 Z" style="fill:#1c5db1;fill-opacity:1;fill-rule:nonzero;stroke:none" transform="matrix(1.3333333,0,0,-1.3333333,212.53024,236.74366)" clip-path="url(#clipPath68)" />
      <path id="path69" d="M 0,0 H 2.468 L 4.896,-6.437 H 4.924 L 7.394,0 H 9.71 L 5.66,-9.821 H 3.926 Z" style="fill:#1c5db1;fill-opacity:1;fill-rule:nonzero;stroke:none" transform="matrix(1.3333333,0,0,-1.3333333,223.26558,236.74366)" clip-path="url(#clipPath70)" />
      <path id="path71" d="M 0,0 H 6.673 V -1.997 H 2.165 V -3.829 H 6.423 V -5.826 H 2.165 V -7.824 H 6.922 V -9.821 H 0 Z" style="fill:#1c5db1;fill-opacity:1;fill-rule:nonzero;stroke:none" transform="matrix(1.3333333,0,0,-1.3333333,238.11398,236.74366)" clip-path="url(#clipPath72)" />
      <path id="path73" d="M 0,0 H 2.941 L 7.117,-6.825 H 7.144 V 0 H 9.308 V -9.821 H 6.478 L 2.192,-2.83 H 2.165 V -9.821 H 0 Z" style="fill:#1c5db1;fill-opacity:1;fill-rule:nonzero;stroke:none" transform="matrix(1.3333333,0,0,-1.3333333,250.80518,236.74366)" clip-path="url(#clipPath74)" />
      <path id="path75" d="M 0,0 H -2.802 V 1.914 H 4.967 V 0 H 2.165 V -7.907 H 0 Z" style="fill:#1c5db1;fill-opacity:1;fill-rule:nonzero;stroke:none" transform="matrix(1.3333333,0,0,-1.3333333,269.47238,239.29552)" clip-path="url(#clipPath76)" />
      <path id="path77" d="m 477.481,227.236 h 2.164 v -9.821 h -2.164 z" style="fill:#1c5db1;fill-opacity:1;fill-rule:nonzero;stroke:none" transform="matrix(1.3333333,0,0,-1.3333333,-357.55509,539.72499)" clip-path="url(#clipPath78)" />
      <path id="path79" d="M 0,0 C 0,-0.463 0.072,-0.885 0.215,-1.27 0.358,-1.654 0.564,-1.987 0.832,-2.268 1.1,-2.551 1.421,-2.77 1.796,-2.927 2.17,-3.085 2.589,-3.163 3.052,-3.163 c 0.462,0 0.88,0.078 1.255,0.236 0.374,0.157 0.696,0.376 0.965,0.659 0.268,0.281 0.473,0.614 0.616,0.998 0.144,0.385 0.216,0.807 0.216,1.27 0,0.453 -0.072,0.874 -0.216,1.263 C 5.745,1.651 5.54,1.986 5.272,2.268 5.003,2.55 4.681,2.769 4.307,2.927 3.932,3.084 3.514,3.163 3.052,3.163 2.589,3.163 2.17,3.084 1.796,2.927 1.421,2.769 1.1,2.55 0.832,2.268 0.564,1.986 0.358,1.651 0.215,1.263 0.072,0.874 0,0.453 0,0 m -2.248,0 c 0,0.786 0.133,1.498 0.396,2.136 0.263,0.638 0.631,1.181 1.103,1.63 0.471,0.449 1.031,0.793 1.678,1.033 C 1.576,5.04 2.284,5.16 3.052,5.16 3.819,5.16 4.526,5.04 5.174,4.799 5.821,4.559 6.38,4.215 6.853,3.766 7.324,3.317 7.692,2.774 7.956,2.136 8.219,1.498 8.35,0.786 8.35,0 8.35,-0.787 8.219,-1.498 7.956,-2.136 7.692,-2.774 7.324,-3.318 6.853,-3.766 6.38,-4.215 5.821,-4.559 5.174,-4.799 4.526,-5.04 3.819,-5.16 3.052,-5.16 c -0.768,0 -1.476,0.12 -2.123,0.361 -0.647,0.24 -1.207,0.584 -1.678,1.033 -0.472,0.448 -0.84,0.992 -1.103,1.63 -0.263,0.638 -0.396,1.349 -0.396,2.136" style="fill:#1c5db1;fill-opacity:1;fill-rule:nonzero;stroke:none" transform="matrix(1.3333333,0,0,-1.3333333,287.85318,243.29112)" clip-path="url(#clipPath80)" />
      <path id="path81" d="M 0,0 H 2.941 L 7.117,-6.825 H 7.144 V 0 H 9.308 V -9.821 H 6.478 L 2.192,-2.83 H 2.165 V -9.821 H 0 Z" style="fill:#1c5db1;fill-opacity:1;fill-rule:nonzero;stroke:none" transform="matrix(1.3333333,0,0,-1.3333333,301.86558,236.74366)" clip-path="url(#clipPath82)" />
      <path id="path83" d="m 0,0 h 44.381 150.117 c 10.788,0 19.663,8.2 20.73,18.707 0.071,0.701 0.107,1.412 0.107,2.131 v 113.08 H 47.287 20.838 c -7.193,0 -13.534,-3.644 -17.279,-9.187 C 2.81,123.622 2.165,122.438 1.638,121.191 0.583,118.698 0,115.957 0,113.08 Z" style="fill:#1c5db1;fill-opacity:1;fill-rule:nonzero;stroke:none" transform="matrix(1.3333333,0,0,-1.3333333,27.157842,198.48739)" clip-path="url(#clipPath84)" />
      <path id="path85" d="m 0,0 c -1.067,-10.508 -9.941,-18.707 -20.73,-18.707 h -148.586 l 113.428,45.828 c 4.172,-1.541 8.5,-2.239 12.419,-2.239 11.75,0 17.966,6.189 19.383,7.797 0.186,0.211 0.184,0.524 -0.004,0.733 l -4.329,4.807 28.527,11.526 V 2.131 C 0.108,1.411 0.071,0.701 0,0 m -192.961,-18.707 64.188,44.944 h 16.284 c 17.873,0 31.731,10.42 31.731,29.819 0,21.017 -13.029,29.435 -31.101,30.107 l 27.671,29.048 H -7.849 L -56.948,84.389 c -9.818,-3.966 -18.417,-12.757 -18.417,-28.447 0,-13.96 6.874,-22.451 15.301,-26.948 l -118.064,-47.701 z m -22.266,2.351 24.883,64.838 c 2.634,-12.812 12.027,-19.634 21.578,-22.276 l -40.44,-44.913 h -6.021 z m 1.637,118.84 c 0.527,1.247 1.172,2.431 1.921,3.54 3.745,5.543 10.087,9.187 17.279,9.187 h 26.119 L -182.533,78.05 c -5.063,-4.931 -8.546,-12.122 -8.546,-22.108 0,-0.051 0.004,-0.1 0.004,-0.151 L -215.227,-7.143 V 94.373 c 0,2.877 0.582,5.618 1.637,8.111 m 97.22,-16.271 h -17.17 c -0.304,0 -0.551,-0.246 -0.551,-0.55 V 26.788 c 0,-0.076 0.016,-0.148 0.044,-0.214 l -64.668,-45.281 h -6.05 l 39.703,44.094 c 2.012,-0.338 3.993,-0.505 5.878,-0.505 11.751,0 17.967,6.189 19.384,7.797 0.185,0.211 0.184,0.524 -0.004,0.733 l -7.458,8.282 c -0.202,0.225 -0.55,0.247 -0.775,0.045 -1.306,-1.178 -5.785,-4.721 -12.497,-4.833 -8.454,-0.141 -17.018,6.871 -17.018,19.036 0,12.165 8.838,19.038 17.116,19.038 6.147,0 10.107,-2.896 11.314,-3.918 0.226,-0.192 0.56,-0.164 0.758,0.056 l 7.508,8.339 c 0.182,0.202 0.194,0.505 0.02,0.714 -1.229,1.475 -6.508,6.831 -18.348,6.831 -5.87,0 -12.574,-1.521 -18.318,-5.056 l 12.767,33.265 h 75.989 z m 2.356,-47.777 h -6.311 c -0.305,0 -0.551,0.246 -0.551,0.55 v 34.478 c 0,0.304 0.246,0.551 0.551,0.551 h 7.243 c 11.181,0 18.601,-5.506 18.601,-17.281 0,-13.639 -7.25,-18.298 -19.533,-18.298 m 82.466,3.258 c -0.202,0.225 -0.55,0.247 -0.775,0.045 -1.306,-1.178 -5.785,-4.721 -12.497,-4.833 -8.453,-0.141 -17.018,6.871 -17.018,19.036 0,12.165 8.838,19.038 17.116,19.038 6.148,0 10.107,-2.896 11.314,-3.918 0.226,-0.192 0.56,-0.164 0.758,0.056 l 7.508,8.339 c 0.182,0.202 0.194,0.505 0.02,0.714 -1.229,1.475 -6.508,6.831 -18.347,6.831 -1.1,0 -2.232,-0.06 -3.379,-0.169 l 45.207,28.378 H 0.108 V 53.305 L -30.769,40.83 Z m -162.842,77.685 c -13.788,0 -25.005,-11.218 -25.005,-25.006 V -22.875 h 31.344 6.889 160.432 c 13.788,0 25.005,11.217 25.005,25.006 v 117.248 z" style="fill:#ffffff;fill-opacity:1;fill-rule:nonzero;stroke:none" transform="matrix(1.3333333,0,0,-1.3333333,314.12798,173.54432)" clip-path="url(#clipPath86)" />
      <path id="path87" d="M 0,0 H 1.089 V -3.171 H 1.671 V 0 h 1.09 V 0.534 H 0 Z" style="fill:#1c5db1;fill-opacity:1;fill-rule:nonzero;stroke:none" transform="matrix(1.3333333,0,0,-1.3333333,312.07838,194.44219)" clip-path="url(#clipPath88)" />
      <path id="path89" d="M 0,0 -1.025,-2.812 -2.037,-0.083 -2.068,0 h -0.714 v -3.705 h 0.581 v 2.51 l 0.926,-2.51 h 0.483 l 0.921,2.507 V -3.705 H 0.71 V 0 Z" style="fill:#1c5db1;fill-opacity:1;fill-rule:nonzero;stroke:none" transform="matrix(1.3333333,0,0,-1.3333333,319.98558,193.72992)" clip-path="url(#clipPath90)" />
    </g>
  </g>
</svg>
