<?xml version="1.0" encoding="UTF-8"?>
<svg xmlns="http://www.w3.org/2000/svg" width="89" height="29" viewBox="0 0 89 29" fill="none">
  <path d="M61.6619 22.7928C59.0305 22.7928 56.8978 20.6601 56.8978 18.0287C56.8978 16.7141 57.431 15.5225 58.2923 14.659L54.5707 10.9375C52.7553 12.7529 51.6328 15.2591 51.6328 18.0287C51.6328 23.5678 56.1228 28.0578 61.6619 28.0578C64.4315 28.0578 66.9377 26.9353 68.7531 25.1199L65.0316 21.3983C64.1703 22.2596 62.9787 22.7928 61.6619 22.7928Z" fill="#211D4F"></path>
  <path d="M71.6964 18.0283H66.4336C66.4336 19.3429 65.9004 20.5345 65.0391 21.398L68.7606 25.1195C70.576 23.3041 71.6985 20.7979 71.6985 18.0283H71.6964Z" fill="#BF5DFF"></path>
  <path d="M65.0337 14.6585L68.7552 10.937C66.9398 9.12152 64.4336 7.99902 61.6641 7.99902V13.2618C62.9787 13.2618 64.1703 13.795 65.0337 14.6563V14.6585Z" fill="#03E9CA"></path>
  <path d="M66.4279 18.0287H71.6907C71.6907 15.2591 70.5682 12.7529 68.7528 10.9375L65.0312 14.659C65.8926 15.5203 66.4257 16.7119 66.4257 18.0287H66.4279Z" fill="#FFCA6A"></path>
  <path d="M61.6615 13.2638V8.00098C58.8919 8.00098 56.3857 9.12348 54.5703 10.9389L58.2918 14.6604C59.1531 13.7991 60.3447 13.2659 61.6615 13.2659V13.2638Z" fill="#0075F4"></path>
  <path d="M29.326 7.99902C23.7869 7.99902 19.2969 12.489 19.2969 18.0281C19.2969 23.5673 23.7869 28.0573 29.326 28.0573C34.8651 28.0573 39.3551 23.5673 39.3551 18.0281C39.3551 12.489 34.8651 7.99902 29.326 7.99902ZM29.326 22.775C26.7054 22.775 24.5791 20.6487 24.5791 18.0281C24.5791 15.4075 26.7054 13.2813 29.326 13.2813C31.9466 13.2813 34.0729 15.4075 34.0729 18.0281C34.0729 20.6487 31.9466 22.775 29.326 22.775Z" fill="#211D4F"></path>
  <path d="M42.7812 0.0576172H48.2966V27.7316H42.7812V0.0576172Z" fill="#211D4F"></path>
  <path d="M74.8828 8.63789H79.2606L79.811 11.4981H79.8801C81.1559 9.18835 83.362 8.43066 85.0501 8.43066C85.6351 8.43066 86.0841 8.4652 86.4964 8.56882V13.7388C85.9805 13.6006 85.4278 13.5661 84.9119 13.5661C82.6022 13.5661 80.396 14.8073 80.396 18.3907V27.7312H74.8828V8.63789Z" fill="#211D4F"></path>
  <path d="M17.5422 25.1193L13.8206 21.3978C12.9593 22.2591 11.7678 22.7923 10.451 22.7923C7.81958 22.7923 5.68683 20.6595 5.68683 18.0281C5.68683 16.7135 6.22002 15.5219 7.08132 14.6585C7.94262 13.7972 9.1342 13.264 10.451 13.264C11.7678 13.264 12.9572 13.7972 13.8206 14.6585L17.5422 10.937C15.7267 9.12152 13.2205 7.99902 10.451 7.99902C7.68143 7.99902 5.17523 9.12152 3.3598 10.937C1.54437 12.7502 0.421875 15.2586 0.421875 18.0281C0.421875 23.5673 4.91187 28.0573 10.451 28.0573C13.2205 28.0573 15.7267 26.9348 17.5422 25.1193Z" fill="#211D4F"></path>
  <path d="M86.4915 23.7695C87.5994 23.7695 88.4776 24.6739 88.4776 25.7531C88.4776 26.8271 87.5994 27.7315 86.4915 27.7315C85.3836 27.7315 84.5156 26.8271 84.5156 25.7531C84.5156 24.6739 85.3836 23.7695 86.4915 23.7695ZM86.4915 27.4283C87.4309 27.4283 88.1712 26.6626 88.1712 25.7531C88.1712 24.8435 87.4309 24.0624 86.4915 24.0624C85.5521 24.0624 84.822 24.8435 84.822 25.7531C84.822 26.6626 85.5521 27.4283 86.4915 27.4283ZM87.2063 25.2906C87.2063 25.6863 86.8591 25.897 86.5272 25.9227L87.3288 26.8065H86.9663L86.2056 25.9381H86.1698V26.8065H85.8941V24.6431H86.4149C86.9459 24.6431 87.2063 24.9309 87.2063 25.2906ZM86.1698 25.6966H86.3588C86.7161 25.6966 86.9204 25.5578 86.9204 25.2906C86.9204 25.0182 86.7059 24.9052 86.3485 24.9052H86.1698V25.6966Z" fill="#211D4F"></path>
</svg>
