<svg width="96" height="32" viewBox="0 0 96 32" fill="none" xmlns="http://www.w3.org/2000/svg">
<path d="M9.38411 21.3325H4.05078V26.6659H9.38411V21.3325Z" fill="black"/>
<path d="M9.38411 10.6655H4.05078V15.9989H9.38411V10.6655Z" fill="black"/>
<path d="M20.0495 15.999H9.38281V21.3324H20.0495V15.999Z" fill="black"/>
<path d="M20.0495 5.33252H9.38281V10.6659H20.0495V5.33252Z" fill="black"/>
<path d="M30.7188 5.3335H40.5502V7.52763H33.0654V12.6711H39.9475V14.7522H33.0654V21.3335H30.7188V5.3335Z" fill="black"/>
<path d="M42.4453 5.3335H44.6853V21.3335H42.4453V5.3335Z" fill="black"/>
<path d="M46.5352 15.2779C46.5352 11.4827 48.8221 8.87793 52.1597 8.87793C55.4749 8.87793 57.6477 11.3473 57.6477 15.0059V15.9435H48.7944C48.8626 18.047 50.1437 19.6929 52.1554 19.6929C53.6872 19.6929 54.6024 19.0987 55.6082 17.4753L57.3458 18.6411C56.2706 20.6539 54.4882 21.6822 52.1789 21.6822C48.7986 21.6801 46.5352 19.0934 46.5352 15.2779ZM55.429 14.2262C55.3384 12.2827 54.1032 10.8651 52.1597 10.8651C50.308 10.8651 48.8904 12.3969 48.8445 14.2262H55.429Z" fill="black"/>
<path d="M62.1298 15.1862L58.0594 9.21924H60.7122L63.4557 13.472H63.5016L66.2909 9.21924H68.9202L64.8274 15.1862L69.0344 21.3334H66.405L63.5016 16.8747H63.4557L60.5757 21.3334H57.9453L62.1298 15.1862Z" fill="black"/>
<path d="M70.4748 9.21896H72.6689V10.339H72.7148C73.4924 9.47069 74.7276 8.87549 76.1676 8.87549C79.3463 8.87549 81.6076 11.5048 81.6076 15.2755C81.6076 19.0462 79.3441 21.6755 76.1879 21.6755C74.7703 21.6755 73.4679 21.0814 72.7585 20.2355H72.7127V26.6664H70.4727L70.4748 9.21896ZM79.3687 15.2776C79.3687 12.6259 78.0428 10.9566 75.9852 10.9566C74.1324 10.9566 72.7148 12.3742 72.7148 14.2035V16.3294C72.7148 18.1587 74.1324 19.5987 75.9148 19.5987C78.0193 19.5987 79.3687 17.9304 79.3687 15.2776Z" fill="black"/>
<path d="M82.3882 18.1811C82.3882 16.147 83.5775 15.0718 86.6645 14.3411C88.8586 13.7928 89.5445 13.3352 89.5445 12.467C89.5445 11.4835 88.6986 10.8435 87.3269 10.8435C85.841 10.8435 84.8117 11.7352 84.5151 13.2435L82.3477 12.7859C82.7594 10.4072 84.7253 8.87549 87.3322 8.87549C90.145 8.87549 91.8826 10.4531 91.8826 13.0142V21.3342H89.8197V20.1704H89.7738C89.1103 21.1304 87.8538 21.6798 86.3669 21.6798C83.9477 21.6798 82.3882 20.308 82.3882 18.1811ZM89.6597 17.2446V14.8435H89.6138C89.3845 15.3694 88.6762 15.7352 87.2362 16.1235C85.3162 16.6035 84.5834 17.1294 84.5834 18.0435C84.5834 19.0952 85.3151 19.667 86.641 19.667C88.4021 19.668 89.6597 18.6664 89.6597 17.2446Z" fill="black"/>
</svg>
