<svg xmlns="http://www.w3.org/2000/svg" xmlns:xlink="http://www.w3.org/1999/xlink" id="Layer_1" x="0px" y="0px" viewBox="0 0 1000 430" style="enable-background:new 0 0 1000 430;" xml:space="preserve"><style type="text/css">	.st0{fill:#FFFFFF;}	.st1{fill:#FDD922;}	.st2{fill:#355A62;}</style><path class="st0" d="M994,214.5c0-51.6-45.8-93.5-102.2-93.5c-27.2,0-52,9.8-70.3,25.6c-11.5-11.6-30.9-23.6-62.3-23.6 c-11.1,0-21.7,2-31.6,5.7c-1.4-0.5-2.8-1-4.2-1.4l19.3-63.3c0.3-0.9,0.5-1.7,0.7-2.5c0.2-0.8,0.3-1.5,0.5-2.3l0.4-2.2l0.1-1.6 c0-0.1,0-0.1,0-0.2c0-0.6,0.1-1.2,0.1-1.7c0-0.7,0-1.4,0-2.1v0v0v-0.6l0-0.5c0-0.9-0.1-1.7-0.2-2.6c0-0.3-0.1-0.9-0.2-1.5l-0.1-1.3 l-0.4-1.7c-0.2-0.9-0.4-1.8-0.6-2.6l-0.5-2l-0.9-2.3l-0.7-2l-0.7-1.4c-0.3-0.5-0.5-1.1-0.8-1.6c-0.2-0.4-0.4-0.8-0.6-1.1 c-0.2-0.4-0.4-0.7-0.7-1.1l0-0.1c-0.3-0.5-0.7-1-1-1.5c-0.4-0.5-0.7-1-1.1-1.5l-1.8-2.4l-1.3-1.2c-0.1-0.1-0.3-0.3-0.4-0.4l0-0.1 l-0.1-0.1l-1.9-1.9l-0.9-0.7l-0.4-0.4l-1.1-0.8l-1.1-0.9l-1.9-1.2c-0.7-0.4-1.4-0.9-2.1-1.3c-0.1,0-0.2-0.1-0.3-0.1 c-0.3-0.2-0.6-0.3-0.9-0.5l-0.2-0.1l-0.3-0.2c-0.8-0.4-1.6-0.8-2.5-1.2l-1.6-0.7l-1.2-0.4c-0.6-0.2-1.2-0.4-1.6-0.5 c-0.9-0.3-1.8-0.5-2.7-0.8L711,9.7l-0.5-0.1c-0.6-0.1-1.1-0.2-1.7-0.3c-0.6-0.1-1.2-0.2-1.9-0.3c-0.5-0.1-1-0.1-1.4-0.1 c-0.7-0.1-1.3-0.1-2-0.1l-0.8,0h-0.9h-1l-0.5,0c-0.2,0-0.5,0-0.7,0c-0.5,0-0.9,0-1.4,0.1c-0.5,0-1,0.1-1.4,0.1L695.3,9l-1.2,0.3 l-1.1,0.2l-1,0.3L578.7,33.8c-17.9,3.8-31.7,17.9-35,35.9c-3.3,18,4.5,36.1,19.8,46.1l2.5,1.7c-4.8,2.5-9.2,5.5-13.3,8.9 c-8.2-2.4-17-3.6-26.1-3.6c-20.4,0-39.4,5.9-54.8,16.9c-9.5-9.3-22.7-14.8-38.1-14.8h-4c-7.9,0-15.2,1.4-21.9,4.1 c-10.1-4-21.1-6.1-32.7-6.1c-23.2,0-44.3,7.9-60.6,22.3c-11.2-11.5-29.4-22.3-58.4-22.3c-14.5,0-28.4,3.2-40.6,9.4 c-11.2-6.1-24.5-9.2-39.9-9.2c-10.6,0-20.8,1.9-30,5.4c-6.2-2.3-13-3.5-20.3-3.5h-4c-0.5,0-0.9,0-1.3,0 c-1.8-13.9-8.7-26.5-19.5-35.3c-10.3-8.4-23.7-13-37.7-13C48,76.5,34.6,81.2,24.2,90C11.8,100.4,5,115.4,5,132.1 c0,9.2,2.1,17.8,5.9,25.5C8.4,164,7.2,171,7.2,178.2V273c0,12.1,3.5,23.3,10,32.3c-6.3,7.6-10,17.4-10,28.2v47.1 c0.1,3.8,0.9,12.3,6.5,21c5.9,9.2,13.9,13.3,17.2,15c9.9,4.9,18.8,4.9,24,4.8c12.6-0.2,21.7-4.5,25.9-6.6c6.5-3.1,11.2-6.7,14.4-9.4 c9.8,4.3,17.8,5,23.5,4.8c11.4-0.4,25.3-4.8,25.3-4.8c11.7,3.9,21.1,4.4,27.5,4.2c12.3-0.4,28-4.2,28-4.2c7.1,3.3,20.3,8.4,37.6,8.5 c17.8,0.1,31.3-5.1,38.4-8.5c5,2.4,14.5,6.1,26.8,6.3c13.2,0.1,23.2-3.8,28.3-6.3c15.6,6.8,28.2,7.8,36.8,7.4 c15.4-0.7,34.6-6.5,37.3-7.3c7.3,3.2,15.3,4.9,23.8,4.9c20.5,0,38.5-10.3,49.3-26c11-1.5,20.7-7.3,27.2-15.7 c12.7,2.7,25.6,2.4,30.5,2.4c32.3,0,57.7-9.3,75.7-27.6c5.6-5.7,10.3-12.2,14.2-19.4c5.1,1.5,10.6,2.3,16.2,2.3h4.2 c10.3,0,20.1-2.6,28.3-7.5c8.1,4.8,17.8,7.5,28.5,7.5h4c17,0,31.5-6.8,41.1-18c9.6,11.3,24,18,41,18h4c15.9,0,29.5-5.9,39-15.8 c17.1,11.6,38.1,17.8,61,17.8c35.2,0,64.5-13.4,82.6-37.7c12.3-15.9,12.7-30.7,10.8-40.5c5.1-11.1,7.9-23.3,7.9-36L994,214.5z"></path><polygon class="st1" points="592.2,78.8 616.2,94.4 677.1,60.8 "></polygon><path class="st1" d="M672.6,72l-52.2,28.8l0,0l3.9,18.9l1.9-6.1c0,0,0-0.1,0.1-0.1c0.1-0.2,0.2-0.4,0.3-0.6c0-0.1,0.1-0.2,0.1-0.3 c0.2-0.3,0.4-0.5,0.6-0.7c0,0,0,0,0,0L672.6,72L672.6,72L672.6,72z"></path><polygon class="st1" points="674.7,80.4 645.1,106.5 636.2,114.3 636.2,114.4 637.2,115 637.2,115 640.4,117.2 643.7,119.3  671.4,137.8 693.1,66.4 694,63.4 "></polygon><path class="st2" d="M705.5,51.5c0-0.1,0-0.2,0-0.3c0-0.1,0-0.2,0-0.2c0,0,0-0.1,0-0.1c0,0,0,0,0,0c0,0,0-0.1,0-0.1c0,0,0-0.1,0-0.1 c0-0.1,0-0.2-0.1-0.3c0,0,0-0.1,0-0.1l0,0c0,0,0,0,0,0c0-0.1-0.1-0.1-0.1-0.2c0-0.1-0.1-0.1-0.1-0.2c0,0,0-0.1-0.1-0.1 c0,0,0-0.1-0.1-0.1c0-0.1-0.1-0.1-0.1-0.2c0,0,0,0,0,0c0,0,0-0.1-0.1-0.1l0,0c0,0,0-0.1-0.1-0.1c0,0-0.1-0.1-0.1-0.1 c0,0,0,0-0.1-0.1c0,0,0,0-0.1-0.1c0,0-0.1-0.1-0.1-0.1c0,0-0.1,0-0.1-0.1c-0.1,0-0.1-0.1-0.2-0.1c0,0-0.1-0.1-0.2-0.1c0,0,0,0,0,0 c0,0,0,0,0,0c0,0-0.1,0-0.1-0.1c-0.1,0-0.2-0.1-0.2-0.1c0,0,0,0,0,0c0,0-0.1,0-0.1-0.1c0,0,0,0-0.1,0c0,0-0.1,0-0.1,0 c-0.1,0-0.1,0-0.2-0.1c-0.1,0-0.1,0-0.2-0.1c0,0,0,0-0.1,0c0,0-0.1,0-0.1,0c-0.1,0-0.1,0-0.2,0c-0.1,0-0.2,0-0.2,0c0,0-0.1,0-0.1,0 c0,0-0.1,0-0.1,0c-0.1,0-0.1,0-0.2,0c-0.1,0-0.2,0-0.2,0c0,0-0.1,0-0.1,0c0,0,0,0-0.1,0c0,0,0,0,0,0c0,0-0.1,0-0.1,0l-114,24.3 c-2.4,0.5-4.3,2.4-4.7,4.8c-0.4,2.4,0.6,4.9,2.7,6.2l27.8,18.1l7.3,34.7l0,0c0,0.2,0.1,0.3,0.1,0.5c0,0.1,0.1,0.3,0.2,0.4 c0,0,0,0.1,0.1,0.2c0.1,0.3,0.3,0.5,0.5,0.7c0,0,0.1,0.1,0.1,0.1c0.2,0.2,0.4,0.4,0.7,0.5c0,0,0.1,0,0.1,0.1c0,0,0,0,0,0 c0.2,0.1,0.4,0.2,0.6,0.2c0.1,0,0.2,0.1,0.3,0.1c0,0,0,0,0,0c0.3,0.1,0.7,0.1,1,0.1l0,0l0,0c0,0,0.1,0,0.1,0c0.2,0,0.5,0,0.7-0.1 c0.1,0,0.2-0.1,0.3-0.1c0.2,0,0.3-0.1,0.5-0.1c0.1,0,0.2-0.1,0.3-0.1c0.1-0.1,0.3-0.1,0.4-0.2c0.2-0.1,0.4-0.3,0.6-0.5l11.9-12.8 l30.6,20.3c1,0.7,2.2,1,3.4,1c0.7,0,1.4-0.1,2.1-0.4c1.8-0.6,3.2-2.1,3.8-4l27.2-89.4c0,0,0-0.1,0-0.1c0-0.1,0-0.1,0-0.2 c0,0,0,0,0-0.1c0,0,0-0.1,0-0.1c0-0.1,0-0.2,0-0.3c0-0.1,0-0.1,0-0.2C705.5,51.6,705.5,51.6,705.5,51.5 C705.5,51.5,705.5,51.5,705.5,51.5L705.5,51.5z M693.1,66.4l-21.7,71.4l-27.7-18.4l-3.3-2.2l-3.3-2.2l0,0l-1-0.7l0,0l8.9-7.8 l29.6-26.1l19.3-17L693.1,66.4L693.1,66.4z M677.1,60.8l-60.9,33.6l-24-15.6L677.1,60.8z M620.4,100.9L672.6,72l0,0l-45.2,39.9 c0,0,0,0,0,0c-0.2,0.2-0.4,0.5-0.6,0.7c-0.1,0.1-0.1,0.2-0.1,0.3c-0.1,0.2-0.2,0.4-0.3,0.6c0,0,0,0.1-0.1,0.1l-1.9,6.1L620.4,100.9 L620.4,100.9L620.4,100.9z"></path><path class="st2" d="M71.8,327.9c-6.4,0-11.9,3.3-14.1,8v-3c0-2.7-1.9-4.3-5-4.3h-1.4c-3.3,0-5,1.8-5,5v47.1c0,3.3,1.8,5,5,5h1.4 c3.3,0,5-1.8,5-5v-16.6c2.1,5,7.7,8.2,14,8.2c10.4,0,19-7.3,19-22.3C90.7,335.2,82.2,327.9,71.8,327.9z M68.3,363.2 c-6.5,0-10.9-4.9-10.9-12.9s4.4-13,11-13s10.9,5,10.9,13S74.8,363.2,68.3,363.2z"></path><path class="st2" d="M119.6,328c-13.1,0-22.2,9-22.2,22.3s8.9,22.3,22.5,22.3c8.1,0,14.3-2.8,18-7.8c2.2-2.7,1.6-4.7-1.9-5.5l-1-0.2 c-2.6-0.6-3.8,0.4-5.6,2c-2.5,2-5,3.1-8.9,3.1c-7,0-11.4-4.1-11.6-11.2h27c3.5,0,5.3-1.7,5-5C140.2,335.7,132.1,328,119.6,328 L119.6,328z M109.1,345.4c0.7-6.2,4.9-9.5,10.8-9.5s10.1,3.7,10.5,9.5H109.1z"></path><path class="st2" d="M187.1,314.6h-1.4c-3.3,0-5,1.8-5,5v16.6c-2.2-5.3-8-8.3-14.1-8.3c-10.8,0-18.9,7.8-18.9,22.3 c0,14.5,8.2,22.4,19,22.4c6,0,11.8-3,14-8.1v3c0,2.7,1.9,4.3,5,4.3h1.4c3.3,0,5-1.8,5-5v-47.1C192.1,316.4,190.3,314.6,187.1,314.6 L187.1,314.6z M170.1,363.3c-6.6,0-11-4.9-11-13c0-8.1,4.4-12.9,10.9-12.9s11,5,11,12.9S176.6,363.3,170.1,363.3z"></path><path class="st2" d="M207.8,311.8c-3.8,0-6.5,2-6.5,5.8c0,3.7,2.7,5.8,6.5,5.8c3.5,0,6.5-2,6.5-5.8 C214.3,313.8,211.2,311.8,207.8,311.8z"></path><path class="st2" d="M208.4,328.7h-1.5c-3.2,0-5,1.8-5,5v33.2c0,3.3,1.8,5,5,5h1.5c3.2,0,5-1.8,5-5v-33.2 C213.4,330.4,211.6,328.7,208.4,328.7z"></path><path class="st2" d="M261.1,328.7h-1.4c-3.2,0-5,1.6-5,4.4v3.2c-2.2-5.3-8-8.3-14.1-8.3c-10.8,0-18.9,7.8-18.9,22.3 c0,14.5,8.2,22.4,19,22.4c6,0,11.8-3,14-8.1v3c0,2.7,1.9,4.3,5,4.3h1.4c3.3,0,5-1.8,5-5v-33.1C266.2,330.4,264.4,328.7,261.1,328.7 L261.1,328.7z M244.2,363.3c-6.6,0-11-4.9-11-13c0-8.1,4.4-12.9,10.9-12.9s11,5,11,12.9S250.7,363.3,244.2,363.3L244.2,363.3z"></path><path class="st2" d="M297.6,363.6c-5.4-0.2-7.5-2.8-7.5-9.9v-16.3h6.8c3.5,0,5-1.6,5-4.4s-1.5-4.3-5-4.3h-6.8v-4.7 c0-3.6-1.7-5.1-5.5-4.3l-1.3,0.3c-3.3,0.7-4.7,2.3-4.7,5.3v3.5h-2.2c-2.5,0-3.9,1.5-3.9,4.3c0,2.8,1.5,4.4,4.2,4.4h1.9v17.3 c0,13.2,5.4,17.9,17.1,17.9c0.7,0,1.4,0,2.2-0.1c3.2-0.3,4.5-2.2,4.3-5C302.1,364.9,300.4,363.7,297.6,363.6L297.6,363.6z"></path><path class="st2" d="M330.5,328.2c-5.6,0-8.7,3.6-10,7v-1.9c0-3.1-1.8-4.6-5-4.6h-1.4c-3.3,0-5,1.8-5,5v33.2c0,3.3,1.8,5,5,5h1.4 c3.3,0,5-1.8,5-5v-15.4c0-7.9,3-11.7,8.7-12.7c3.1-0.5,4.9-1.4,5.3-4.5l0.1-0.8C334.9,330.2,333.6,328.2,330.5,328.2L330.5,328.2z"></path><path class="st2" d="M347.1,328.7h-1.5c-3.2,0-5,1.8-5,5v33.2c0,3.3,1.8,5,5,5h1.5c3.2,0,5-1.8,5-5v-33.2 C352.1,330.4,350.3,328.7,347.1,328.7z"></path><path class="st2" d="M346.5,311.8c-3.8,0-6.5,2-6.5,5.8c0,3.7,2.7,5.8,6.5,5.8c3.5,0,6.5-2,6.5-5.8C353,313.8,350,311.8,346.5,311.8 z"></path><path class="st2" d="M382.8,337.4c3.8,0,6.7,1.4,8.8,4c1.7,2,3,2.9,5.8,2.4l0.8-0.1c3.2-0.5,4.5-2.8,3-5.8 c-3.1-6.3-9.5-9.9-18.9-9.9c-12.5,0-21.7,9.1-21.7,22.3c0,13.2,9.3,22.3,21.7,22.3l0,0c9.3,0,16-3.7,19-10.1 c1.3-2.9,0.1-5.1-3.4-5.6l-0.6-0.1c-2.7-0.4-4,0.5-5.7,2.4c-2.1,2.5-5,4-8.7,4c-6.5,0-10.8-5.2-10.8-12.9S376.3,337.3,382.8,337.4 L382.8,337.4z"></path><path class="st2" d="M447.7,358.7c0-17-26.5-10-26.5-18.4c0-2.8,2.9-4.3,7.2-4.3c2.6,0,5.2,1,7.5,2.4c2,1.1,3.1,2.5,5.9,1.9l1-0.2 c3.6-0.8,4.1-3.8,1.6-6.3c-3.7-3.7-10.3-5.6-16.2-5.6c-10.2,0-18.2,4.7-18.2,12.9c0,16.4,26.2,10.1,26.2,18.8c0,3-2.9,4.8-7.8,4.8 c-3.2,0-6.5-1.2-9-3.1c-2.5-1.9-3.6-2.6-5.9-2.1l-1.2,0.2c-3.9,0.8-4.3,3.9-1.9,6.4c3.8,4.1,10.8,6.6,18,6.6 C439.9,372.6,447.7,367.1,447.7,358.7L447.7,358.7z"></path><path class="st2" d="M461.4,328.9h-8.9c-0.9,0-1.5,0.6-1.5,1.4s0.6,1.4,1.5,1.4h2.9v7.8c0,1,0.6,1.6,1.5,1.6c1,0,1.5-0.6,1.5-1.6 v-7.8h2.9c0.9,0,1.5-0.5,1.5-1.4S462.3,328.9,461.4,328.9z"></path><path class="st2" d="M477.1,328.7c-0.9,0-1.4,0.3-2,1.2l-3,5.2l-3-5.1c-0.4-0.8-1-1.3-2.1-1.3c-1.2,0-1.9,1-1.9,2.1v8.7 c0,1,0.6,1.6,1.5,1.6s1.5-0.6,1.5-1.6v-5.6h0.1l2.5,4.2c0.3,0.5,0.8,0.8,1.4,0.8s1-0.3,1.3-0.8l2.4-4.1h0.1v5.5c0,1,0.6,1.6,1.5,1.6 c0.9,0,1.5-0.6,1.5-1.6v-8.8C479,329.6,478.3,328.7,477.1,328.7L477.1,328.7z"></path><path class="st2" d="M62.8,115.7c-10.9,0-18.7,5.8-18.7,16.5s7.8,16.5,18.7,16.5c9.9,0,18.7-5.8,18.7-16.5S72.7,115.7,62.8,115.7z"></path><path class="st2" d="M64.6,164h-4.2c-9.2,0-14.2,5.1-14.2,14.4v94.8c0,9.3,5,14.4,14.2,14.4h4.2c9.2,0,14.2-5.1,14.2-14.4v-94.8 C78.8,169.1,73.8,164,64.6,164z"></path><path class="st2" d="M256.2,162c-23.1,0-37.6,13-43.4,26.4c-6.8-19.2-17.1-26.3-37.1-26.3c-17.7,0-31.1,9-35.9,21.2v-5.9 c0-8.8-5.1-13.5-14.4-13.5h-4c-9.3,0-14.4,5.1-14.4,14.4v94.8c0,9.3,5.1,14.4,14.4,14.4h4c9.3,0,14.4-5.1,14.4-14.4v-46.5 c0-26.2,7.1-37.2,24.3-37.2s22.5,9.4,22.5,36v47.7c0,9.3,5.1,14.4,14.4,14.4h4c9.3,0,14.4-5.1,14.4-14.4v-48.8 c0-24.8,7.1-35,24.3-35s23.4,10,23.4,36v47.8c0,9.3,5.1,14.4,14.4,14.4h4c9.3,0,14.4-5.1,14.4-14.4v-50.8 C299.9,179.4,287.1,162,256.2,162L256.2,162z"></path><path class="st2" d="M433.9,164h-4c-9.1,0-14.4,4.6-14.4,12.6v9.1c-6.4-15.1-22.9-23.7-40.2-23.7c-30.8,0-54,22.3-54,63.8 s23.4,64.1,54.1,64.1c17.1,0,33.8-8.6,40-23.3v8.4c0,7.8,5.3,12.3,14.4,12.3h4c9.3,0,14.4-5.1,14.4-14.4v-94.6 C448.2,169.1,443.1,164,433.9,164L433.9,164z M385.4,262.9c-18.8,0-31.4-14.1-31.4-37.2s12.7-37,31.1-37s31.4,14.2,31.4,37 S403.9,262.9,385.4,262.9L385.4,262.9z"></path><path class="st2" d="M645.8,164h-4.2c-9.2,0-14.2,5.1-14.2,14.4v94.8c0,9.3,5,14.4,14.2,14.4h4.2c9.2,0,14.2-5.1,14.2-14.4v-94.8 C660,169.1,655,164,645.8,164z"></path><path class="st2" d="M759.2,162.1c-18.6,0-32.7,9.3-38.2,22v-6.2c0-8.9-5.1-14-14.4-14h-4c-9.3,0-14.4,5.1-14.4,14.4v94.8 c0,9.3,5.1,14.4,14.4,14.4h4c9.3,0,14.4-5.1,14.4-14.4v-48.7c0-22.8,7.5-35,26.5-35c19,0,26.8,10.4,26.8,33.1v50.6 c0,9.3,5.1,14.4,14.4,14.4h4c9.3,0,14.4-5.1,14.4-14.4v-53.6C807.2,180.6,792.4,162.1,759.2,162.1L759.2,162.1z"></path><path class="st2" d="M891.7,162c-37.5,0-63.4,25.8-63.4,63.8s25.4,63.8,64.4,63.8c23.3,0,41-8,51.5-22.3c6.2-7.8,4.5-13.4-5.3-15.7 l-3-0.7c-7.5-1.8-10.8,1.1-16.2,5.6c-7,5.8-14.4,8.8-25.5,8.8c-20.1,0-32.5-11.7-33.1-32h77.3c9.9,0,15-4.8,14.4-14.4 C950.6,184,927.7,162,891.7,162L891.7,162z M861.8,211.8c2-17.7,14-27,30.8-27c16.8,0,28.8,10.5,30.1,27H861.8z"></path><path class="st2" d="M601.7,147.8c-9.9,0.6-19.8,3.6-26.5,11.3c-3.3,3.8-5.8,8.3-7.1,13.2c-1,3.8-0.9,7.6-0.9,11.6 C560.9,171,546,162,526.7,162c-30.9,0-54.5,21-54.5,59.8s23.9,59.8,54.9,59.8c17.3,0,33.3-8.1,39.3-21.5v11.7 c0,25.1-11.2,35.4-31.4,35.4c-10.5,0-19-3.7-25.7-10.3c-4.9-4.9-9.1-7.6-16.7-5.7l-4.2,1c-9.6,2.4-12.5,9.7-6.4,17.9 c10.9,14.4,29.3,22.2,53.4,22.2c42.5,0,63.7-20.1,63.7-66.5c0-3.1,0-6.2,0-9.2c0-7.3,0-14.6,0-22c0-8.7,0-17.4,0-26.1 c0-7.2,0-14.4,0-21.6c0-6.4,0.1-12.8,0.8-19.2c0.6-5.7,1.5-11.6,3.8-16.8C604.4,149.4,603.3,147.7,601.7,147.8L601.7,147.8z  M536.2,257.6c-18.4,0-31.3-13-31.3-35.9s12.8-35.7,31.1-35.7c18.3,0,31.2,13.3,31.2,35.7S554.5,257.6,536.2,257.6z"></path></svg>
