<svg id="Layer_1" data-name="Layer 1" xmlns="http://www.w3.org/2000/svg" viewBox="0 0 176.29 202.97"><defs><style>.cls-1{fill:#3c404c;}</style></defs><path class="cls-1" d="M108.76,93.3l8.18,7.18a1.47,1.47,0,0,0,2-.13,1.43,1.43,0,0,0-.13-2l-7.9-6.94.53-.53a34.12,34.12,0,1,0-3.16,2.78ZM87.46,98a31.13,31.13,0,0,1-16-4.45c-2.66-1.73-4.18-4.13-4.18-6.6,0-4.9,6-9,13.13-9,9.58,0,18.22,6.68,25.57,12.94l.67.58-.71.52A30.83,30.83,0,0,1,87.46,98ZM64.25,87.68l-1.06-1.32a30.85,30.85,0,0,1-6.86-19.49,31.13,31.13,0,1,1,61.41,7.2l-.4,1.69-.89-1.49A10,10,0,0,0,97.8,79.36v.17L97.86,81l-1.11-.68C91,76.78,85.63,75.06,80.36,75.06c-8.26,0-15.26,4.8-15.92,10.93Zm43.57-1.12a7.21,7.21,0,1,1,7.21-7.2A7.21,7.21,0,0,1,107.82,86.56Z"/><path class="cls-1" d="M52.68,165.66a1,1,0,0,1,1.91,0v3.63h5.17v-3.63a.93.93,0,0,1,.94-.95,1,1,0,0,1,1,.95v9.09a1,1,0,0,1-1,.95.93.93,0,0,1-.94-.95v-3.69H54.59v3.69a1,1,0,0,1-1.91,0Z"/><path class="cls-1" d="M66.07,174.66v-8.91a1,1,0,0,1,1-1h6.3a.86.86,0,0,1,.85.85.85.85,0,0,1-.85.85H68v2.82h4.66a.86.86,0,0,1,.85.86.85.85,0,0,1-.85.84H68v2.91H73.4a.86.86,0,0,1,.85.85.84.84,0,0,1-.85.85H67A1,1,0,0,1,66.07,174.66Z"/><path class="cls-1" d="M77.44,174.38l4-9a1.2,1.2,0,0,1,1.14-.78h.09a1.19,1.19,0,0,1,1.13.78l4,9a.91.91,0,0,1,.1.41.88.88,0,0,1-.89.91,1,1,0,0,1-.93-.67l-.88-2H80l-.92,2.08a.91.91,0,0,1-.88.61.87.87,0,0,1-.88-.88A1.12,1.12,0,0,1,77.44,174.38Zm7.09-3.06-1.9-4.38-1.91,4.38Z"/><path class="cls-1" d="M91.65,165.66a1,1,0,1,1,1.9,0v8.23h4.91a.87.87,0,0,1,0,1.73H92.61a1,1,0,0,1-1-1Z"/><path class="cls-1" d="M104,166.55h-2.63a.88.88,0,0,1,0-1.76h7.2a.88.88,0,0,1,0,1.76h-2.65v8.2a1,1,0,0,1-1.92,0Z"/><path class="cls-1" d="M113,165.66a1,1,0,0,1,1.9,0v3.63H120v-3.63a.93.93,0,0,1,.94-.95,1,1,0,0,1,1,.95v9.09a1,1,0,0,1-1,.95.93.93,0,0,1-.94-.95v-3.69h-5.17v3.69a.95.95,0,1,1-1.9,0Z"/><path class="cls-1" d="M68.93,132.31a1.69,1.69,0,0,0-1.7,1.75v11.08a6.4,6.4,0,0,1-6.46,6.75c-3.73,0-6-2.43-6-6.5V134.06a1.74,1.74,0,0,0-1.74-1.75,1.69,1.69,0,0,0-1.71,1.75v12.13c0,5.46,3.25,8.86,8.48,8.86a8.36,8.36,0,0,0,7.39-4v2a1.7,1.7,0,1,0,3.4,0v-19A1.7,1.7,0,0,0,68.93,132.31Z"/><path class="cls-1" d="M78.7,123.93a1.86,1.86,0,0,0-2,1.84v.55a1.88,1.88,0,0,0,2,1.83,1.9,1.9,0,0,0,2-1.83v-.55A1.87,1.87,0,0,0,78.7,123.93Z"/><path class="cls-1" d="M78.7,132.31a1.75,1.75,0,0,0-1.7,1.75v19a1.72,1.72,0,0,0,1.74,1.74,1.69,1.69,0,0,0,1.71-1.74v-19A1.73,1.73,0,0,0,78.7,132.31Z"/><path class="cls-1" d="M88.77,123.3a1.75,1.75,0,0,0-1.71,1.75v28a1.72,1.72,0,0,0,1.75,1.74,1.68,1.68,0,0,0,1.7-1.74v-28A1.74,1.74,0,0,0,88.77,123.3Z"/><path class="cls-1" d="M107,135.59a1.56,1.56,0,0,0,1.58-1.53,1.6,1.6,0,0,0-1.58-1.54h-5.57v-5.06a1.77,1.77,0,0,0-1.74-1.75A1.71,1.71,0,0,0,98,127.46v5.06H96.29a1.55,1.55,0,0,0-1.53,1.54,1.58,1.58,0,0,0,1.53,1.53H98v13.1c0,4,2.23,6.27,6.28,6.27a8.24,8.24,0,0,0,3.24-.6,1.45,1.45,0,0,0,1-1.36,1.41,1.41,0,0,0-1.88-1.41,6.1,6.1,0,0,1-1.6.22c-2.41,0-3.59-1.16-3.59-3.54V135.59Z"/><path class="cls-1" d="M121.46,132.06a10.15,10.15,0,0,0-7.59,3.35,12.05,12.05,0,0,0-3,8.12v.08c0,6.55,4.74,11.48,11,11.48a11.22,11.22,0,0,0,8.31-3.32,1.49,1.49,0,1,0-2-2.22,8.85,8.85,0,0,1-6.23,2.51c-4.09,0-7.13-2.89-7.59-7.21h15.71a1.62,1.62,0,0,0,1.62-1.62C131.71,137.68,128.19,132.06,121.46,132.06Zm6.79,10.19H114.38c.46-4.28,3.33-7.25,7-7.25C124.38,135,127.75,136.91,128.25,142.25Z"/><path class="cls-1" d="M155.46,123.3a1.69,1.69,0,0,0-1.7,1.75V136.5a9.83,9.83,0,0,0-8.28-4.44c-5.11,0-10.54,4-10.54,11.47v.08c0,7.43,5.43,11.44,10.54,11.44,3.37,0,6.08-1.53,8.28-4.65v2.65a1.72,1.72,0,0,0,1.75,1.74,1.7,1.7,0,0,0,1.7-1.74v-28A1.73,1.73,0,0,0,155.46,123.3Zm-9.38,28.64c-4.34,0-7.61-3.6-7.61-8.37v-.08c0-4.9,3.13-8.32,7.61-8.32a8,8,0,0,1,7.81,8.32v.08C153.89,147.59,150.9,151.94,146.08,151.94Z"/><path class="cls-1" d="M47.52,152.34a14.68,14.68,0,0,1-4.07-1.42,15.35,15.35,0,1,0-2.78,2.1,18.18,18.18,0,0,0,6.26,2.46l.3,0a1.59,1.59,0,0,0,.29-3.16ZM32.91,152a12.12,12.12,0,1,1,7.79-2.85,17.05,17.05,0,0,1-3.9-4.5A1.59,1.59,0,0,0,34,146.09a19.16,19.16,0,0,0,3.88,4.81A12,12,0,0,1,32.91,152Z"/></svg>
