<svg width="148" height="44" viewBox="0 0 148 44" fill="none" xmlns="http://www.w3.org/2000/svg">
<g clip-path="url(#clip0_409_1725)">
<path d="M71.9496 31.7173C72.5032 32.6345 73.0048 33.5822 73.4519 34.5559H69.8243C69.3564 33.6637 68.8632 32.7851 68.3453 31.9211C67.8282 31.0576 67.2885 30.2079 66.7269 29.3728C66.211 28.5998 65.6728 27.8418 65.1132 27.0999C64.6424 26.4743 64.1598 25.8577 63.6657 25.2503C63.3723 25.2857 63.0715 25.2857 62.7651 25.2857H58.872V34.5484H55.5684V11.1831C56.5917 10.9452 57.6331 10.7942 58.6816 10.7319C59.7291 10.656 60.779 10.6163 61.8292 10.6128C65.142 10.61 67.6656 11.2361 69.4 12.4903C71.1335 13.7454 72.0007 15.6154 72.0007 18.1004C72.0418 19.547 71.6058 20.9669 70.7602 22.1401C69.8276 23.3302 68.5505 24.2021 67.1039 24.6363C67.5698 25.2286 68.0285 25.8265 68.4799 26.43C69.0777 27.2336 69.6505 28.0555 70.1976 28.8946C70.7872 29.7952 71.3749 30.7367 71.9496 31.7173ZM66.5765 21.7493V21.7289C67.1792 21.4295 67.6809 20.9595 68.0194 20.377C68.3908 19.6672 68.5672 18.8698 68.531 18.0688C68.5591 17.2952 68.3829 16.5278 68.0203 15.8443C67.6941 15.2622 67.2192 14.7777 66.6443 14.4403C66.0109 14.0825 65.3194 13.8396 64.6016 13.723C63.7764 13.5836 62.9408 13.5155 62.104 13.5193C60.6946 13.5165 59.6175 13.55 58.872 13.6188V22.5709H61.2192C62.2422 22.5776 63.2646 22.5201 64.2804 22.3987C65.0771 22.315 65.8537 22.0954 66.5765 21.7493ZM88.3819 20.377C88.6214 21.2795 88.7403 22.2099 88.7347 23.1449V34.261L87.5964 34.4489C87.0474 34.5368 86.4963 34.6113 85.9437 34.6722C85.3402 34.7401 84.6735 34.8034 83.9605 34.8592C83.2465 34.915 82.5399 34.9429 81.8342 34.9429C80.9002 34.9536 79.9683 34.8505 79.059 34.6359C78.2775 34.4558 77.5384 34.1253 76.8826 33.6627C76.264 33.2075 75.7723 32.6007 75.4546 31.9006C75.0934 31.0702 74.9191 30.1704 74.944 29.2649C74.9203 28.3837 75.1251 27.5115 75.5382 26.7333C75.9199 26.0353 76.4687 25.4433 77.1352 25.0103C77.8687 24.5589 78.6734 24.2355 79.5149 24.0539C80.4539 23.8464 81.413 23.7434 82.3746 23.7468C82.7042 23.7468 83.0338 23.7636 83.3616 23.7989C83.7023 23.8306 84.0273 23.878 84.3291 23.9338C84.6299 23.9897 84.8954 24.0455 85.122 24.0892C85.3476 24.1339 85.5064 24.1692 85.5983 24.1934V23.3003C85.5988 22.777 85.5415 22.2553 85.4274 21.7447C85.3237 21.2503 85.1153 20.7839 84.8165 20.377C84.5051 19.9645 84.0965 19.6359 83.6271 19.4206C82.9999 19.1593 82.3237 19.0368 81.6448 19.0615C80.728 19.0504 79.812 19.1239 78.9086 19.2811C78.3116 19.3806 77.7248 19.5351 77.1556 19.7435L76.7833 17.1114C77.4416 16.8612 78.125 16.6835 78.8213 16.5811C79.8438 16.4034 80.88 16.3169 81.9178 16.3225C83.011 16.2945 84.1004 16.4634 85.1341 16.8212C85.9292 17.094 86.6433 17.5625 87.2108 18.1838C87.7782 18.8051 88.1809 19.5592 88.3819 20.377ZM85.6048 32.0243L85.6132 26.7054C85.259 26.559 84.8867 26.461 84.5064 26.4142C83.8932 26.3272 83.2743 26.2871 82.655 26.2942C82.1481 26.297 81.643 26.3314 81.1397 26.3984C80.6321 26.4597 80.1378 26.6036 79.6764 26.8245C79.2466 27.0348 78.8687 27.339 78.5706 27.7139C78.2599 28.1469 78.1047 28.6726 78.1305 29.2053C78.1305 30.3618 78.4908 31.1507 79.2168 31.5973C80.1254 32.0848 81.1494 32.3151 82.1787 32.2634C82.9168 32.2634 83.5826 32.2476 84.1619 32.2113C84.6474 32.191 85.1302 32.1285 85.6048 32.0243ZM104.828 10.8519H107.966V34.0498C107.256 34.2693 106.323 34.461 105.19 34.6675C103.898 34.8852 102.59 34.9876 101.281 34.9745C100.025 34.9941 98.7768 34.7737 97.6035 34.3251C96.5576 33.9149 95.6111 33.2856 94.8274 32.4793C94.031 31.6419 93.4217 30.6441 93.0401 29.5523C92.6051 28.3049 92.3929 26.9903 92.4133 25.669C92.3991 24.396 92.5769 23.1282 92.9407 21.9084C93.2547 20.8339 93.7804 19.8333 94.4866 18.9657C95.1659 18.1473 96.0197 17.492 96.9852 17.0482C98.0512 16.5775 99.2066 16.3448 100.372 16.3662C101.289 16.3455 102.204 16.4804 103.076 16.7653C103.689 16.9616 104.277 17.2296 104.828 17.5627V10.8519ZM104.828 31.7852L104.825 20.525C104.318 20.1371 103.757 19.8267 103.159 19.6039C102.402 19.303 101.594 19.1514 100.78 19.1573C99.9752 19.1373 99.1773 19.3096 98.4522 19.6597C97.8187 19.9771 97.2738 20.447 96.8663 21.0274C96.4396 21.6527 96.139 22.3556 95.9815 23.0965C95.7986 23.9385 95.7076 24.7991 95.7122 25.6606C95.715 27.7363 96.2248 29.3393 97.2433 30.4697C97.7591 31.0328 98.3915 31.4762 99.0962 31.7688C99.8009 32.0615 100.561 32.1963 101.323 32.1639C102.046 32.1732 102.768 32.1313 103.485 32.0402C103.938 31.9881 104.387 31.9025 104.828 31.7852ZM139.192 27.5948C140.051 29.9107 140.898 32.2311 141.734 34.5559H138.129C137.74 33.5232 137.38 32.523 137.038 31.5303C136.689 30.5208 136.337 29.5119 135.984 28.5038H125.301L123.16 34.5559H119.722C120.629 32.0439 121.48 29.7235 122.276 27.5948C123.034 25.5635 123.81 23.539 124.603 21.5214C125.341 19.6825 126.099 17.8523 126.88 16.0313C127.628 14.2881 128.41 12.56 129.227 10.8482H132.253C133.071 12.5596 133.853 14.2876 134.6 16.0313C135.384 17.8492 136.138 19.6795 136.864 21.5214C137.659 23.5384 138.435 25.563 139.192 27.5948ZM126.266 25.763H135.045C134.343 23.8343 133.623 21.9123 132.884 19.9974C132.19 18.1942 131.447 16.41 130.656 14.6469C129.84 16.4035 129.086 18.1881 128.395 19.9974C127.663 21.9109 126.953 23.8328 126.266 25.763ZM144.7 10.851H148V34.5549H144.7V10.851Z" fill="black"/>
<path d="M37.1214 28.4991C36.506 28.1399 35.7899 27.993 35.0831 28.0809C34.3763 28.1688 33.7179 28.4866 33.2088 28.9857L30.3658 27.3352L30.31 27.3073L28.2005 26.0829L30.3611 24.8269C30.498 24.7477 30.6117 24.6338 30.6907 24.4966C30.7697 24.3594 30.8114 24.2038 30.8114 24.0454C30.8114 23.887 30.7697 23.7314 30.6907 23.5942C30.6117 23.457 30.498 23.3431 30.3611 23.2639L28.1959 22.0079L30.3611 20.7519C30.498 20.6727 30.6117 20.5588 30.6907 20.4216C30.7697 20.2844 30.8114 20.1288 30.8114 19.9704C30.8114 19.812 30.7697 19.6564 30.6907 19.5192C30.6117 19.382 30.498 19.2681 30.3611 19.1889L28.2005 17.9292L30.3611 16.6732L30.3927 16.649L33.2041 15.0227C33.6061 15.4059 34.0988 15.6803 34.6358 15.82C35.053 15.9327 35.4882 15.9618 35.9165 15.9057C36.3449 15.8496 36.758 15.7094 37.1323 15.4931C37.5065 15.2768 37.8344 14.9886 38.0974 14.6451C38.3603 14.3016 38.553 13.9095 38.6645 13.4913C38.8364 12.8423 38.8065 12.1561 38.5789 11.5246C38.3513 10.893 37.9367 10.346 37.3906 9.95682C36.8455 9.5687 36.1946 9.35763 35.526 9.35214C34.8573 9.34665 34.203 9.547 33.6516 9.92612C33.0993 10.3063 32.6759 10.8464 32.438 11.4741C32.2 12.1019 32.159 12.7874 32.3202 13.4392L29.9173 14.8273L23.339 11.0351C23.2369 10.9759 23.1241 10.9375 23.0072 10.9221C22.8902 10.9067 22.7714 10.9146 22.6575 10.9454C22.5436 10.9761 22.4369 11.0292 22.3435 11.1014C22.2501 11.1737 22.1719 11.2637 22.1134 11.3663C21.9945 11.5736 21.9625 11.8196 22.0243 12.0505C22.086 12.2814 22.2366 12.4783 22.443 12.5981L28.1207 15.8917L19.3976 20.9631L10.6736 15.8917L16.3485 12.5981L18.5016 11.3505V15.8917C18.5016 16.3894 18.9027 16.7932 19.3976 16.7932C19.5155 16.7929 19.6322 16.7694 19.7411 16.724C19.8499 16.6786 19.9487 16.6121 20.0319 16.5284C20.1151 16.4446 20.1811 16.3453 20.226 16.2361C20.2709 16.1268 20.2938 16.0098 20.2936 15.8917V6.47724C21.0568 6.25801 21.7154 5.77002 22.1482 5.10303C22.581 4.43603 22.7589 3.63488 22.6491 2.84693C22.5415 2.05899 22.153 1.33668 21.5554 0.813397C20.9577 0.29011 20.1913 0.0011923 19.3976 0C18.6038 0.000967795 17.8371 0.289784 17.2393 0.813091C16.6414 1.3364 16.2528 2.05883 16.1451 2.84693C16.0355 3.63501 16.2135 4.43625 16.6465 5.10327C17.0794 5.77028 17.7382 6.25819 18.5016 6.47724V9.26835L15.4358 11.0435L8.85007 14.8506L6.47038 13.4597C6.67244 12.6861 6.58702 11.8654 6.23002 11.1503C5.87301 10.4351 5.26878 9.87444 4.52985 9.57258C3.7912 9.27248 2.9686 9.25303 2.21665 9.5179C1.46469 9.78276 0.835172 10.3137 0.446394 11.0109C0.0113521 11.7661 -0.10775 12.6631 0.115107 13.5059C0.337965 14.3488 0.884666 15.069 1.63578 15.5093C2.00698 15.7322 2.41927 15.8778 2.84796 15.9373C3.27666 15.9968 3.71292 15.9689 4.1306 15.8554C4.66819 15.7177 5.16108 15.443 5.56139 15.058L8.40069 16.7094L10.5575 17.9608L8.39326 19.2168C8.36615 19.2347 8.34068 19.2549 8.31712 19.2773H8.29391C8.2555 19.3086 8.21978 19.3432 8.18714 19.3805V19.4001C8.15508 19.4378 8.1259 19.478 8.09986 19.5201C8.07847 19.5595 8.06105 19.601 8.04786 19.6438C8.03972 19.6589 8.03318 19.6748 8.02837 19.6913C8.01908 19.7266 8.0098 19.7629 8.00423 19.7992V19.8671C8.00227 19.8975 8.00227 19.9279 8.00423 19.9583C8.00231 19.9877 8.00231 20.0173 8.00423 20.0467V20.1183C8.01073 20.1528 8.01815 20.1881 8.02837 20.2216C8.03312 20.2384 8.03966 20.2546 8.04786 20.27C8.08301 20.3841 8.14735 20.4871 8.23449 20.5686C8.28741 20.6217 8.34591 20.6682 8.40904 20.7082L10.5733 21.9642L8.40069 23.2639C8.26379 23.3431 8.15012 23.457 8.07109 23.5942C7.99205 23.7314 7.95045 23.887 7.95045 24.0454C7.95045 24.2038 7.99205 24.3594 8.07109 24.4966C8.15012 24.6338 8.26379 24.7477 8.40069 24.8269L10.5659 26.0829L8.40069 27.3389H8.37283L5.55768 28.9857C5.07788 28.5165 4.46564 28.2066 3.80406 28.0981C3.14247 27.9896 2.46358 28.0877 1.85954 28.3791C1.25476 28.6715 0.753808 29.1424 0.424001 29.7285C0.0941938 30.3146 -0.0486562 30.9878 0.0146504 31.6577C0.0767529 32.3276 0.342249 32.9622 0.775371 33.4763C1.20849 33.9903 1.78843 34.3589 2.43706 34.5326C2.85271 34.6452 3.28652 34.6742 3.71343 34.618C4.14035 34.5618 4.55194 34.4215 4.92446 34.2051C5.29749 33.9883 5.62423 33.7 5.88598 33.3566C6.14774 33.0132 6.33938 32.6215 6.44995 32.2038C6.59076 31.6611 6.59076 31.0914 6.44995 30.5487L8.82872 29.1652L18.4682 34.7475V37.5386C17.707 37.7578 17.0504 38.245 16.6191 38.9106C16.1879 39.5762 16.011 40.3755 16.121 41.1614C16.2288 41.9472 16.6166 42.6674 17.2129 43.1891C17.8091 43.7109 18.5735 43.9989 19.3651 44C20.9992 44 22.3827 42.7887 22.6083 41.1614C22.7183 40.3755 22.5414 39.5762 22.1101 38.9106C21.6789 38.245 21.0223 37.7578 20.2611 37.5386V34.7475L29.8969 29.1652L32.2756 30.5571C32.1144 31.2088 32.1555 31.8944 32.3934 32.5221C32.6313 33.1499 33.0547 33.6899 33.6071 34.0702C34.1585 34.4493 34.8127 34.6496 35.4814 34.6441C36.1501 34.6386 36.801 34.4276 37.3461 34.0395C37.8921 33.6502 38.3067 33.1033 38.5343 32.4717C38.7619 31.8402 38.7918 31.154 38.6199 30.505C38.5143 30.0882 38.3275 29.6965 38.0704 29.3522C37.8132 29.008 37.4907 28.7181 37.1214 28.4991ZM34.7426 11.3542C34.9132 11.2555 35.1016 11.1915 35.297 11.1661C35.4924 11.1407 35.6908 11.1544 35.8809 11.2063C36.1968 11.2921 36.4757 11.4799 36.6743 11.7406C36.8729 12.0013 36.9801 12.3204 36.9793 12.6484C36.9815 12.9767 36.875 13.2964 36.6765 13.5575C36.478 13.8187 36.1987 14.0065 35.8823 14.0916C35.5659 14.1767 35.2302 14.1542 34.9279 14.0278C34.6256 13.9013 34.3736 13.6779 34.2115 13.3927C34.0181 13.0524 33.9654 12.6497 34.0647 12.271C34.164 11.8922 34.4073 11.5675 34.7426 11.3663V11.3542ZM17.9028 3.31212C17.9028 2.70831 18.2639 2.16497 18.8182 1.93424C19.0891 1.82146 19.3874 1.79193 19.675 1.84942C19.9627 1.9069 20.2268 2.0488 20.4338 2.25708C20.8581 2.68412 20.9853 3.32514 20.756 3.88244C20.5257 4.43973 19.9853 4.8035 19.3855 4.8035C18.9918 4.80178 18.6148 4.64392 18.337 4.36445C18.0591 4.08497 17.903 3.70662 17.9028 3.31212ZM4.56699 13.4038C4.47009 13.5728 4.34089 13.7211 4.18678 13.84C4.03267 13.9589 3.85667 14.0462 3.66886 14.097C3.48104 14.1477 3.28509 14.1608 3.09221 14.1356C2.89932 14.1104 2.7133 14.0473 2.54476 13.95C2.20238 13.7527 1.9518 13.4277 1.84777 13.046C1.74374 12.6642 1.7947 12.2567 1.98953 11.9125C2.11326 11.6747 2.29889 11.475 2.52673 11.3344C2.75458 11.1938 3.01614 11.1176 3.2837 11.1138C3.55126 11.1101 3.81484 11.179 4.04649 11.3132C4.27814 11.4474 4.46922 11.642 4.59949 11.8762C4.72993 12.1112 4.79471 12.3772 4.78703 12.646C4.77935 12.9149 4.69949 13.1767 4.55585 13.4038H4.56699ZM4.71833 31.7452C4.66754 31.9333 4.58024 32.1097 4.46142 32.264C4.3426 32.4184 4.19459 32.5478 4.02585 32.6448C3.85711 32.7418 3.67094 32.8046 3.47799 32.8295C3.28503 32.8544 3.08907 32.841 2.9013 32.79C2.71058 32.7416 2.53155 32.6552 2.3749 32.5359C2.21825 32.4167 2.08718 32.267 1.98953 32.0959C1.86773 31.8835 1.80004 31.6442 1.79246 31.3993C1.78487 31.1544 1.83763 30.9114 1.94605 30.6917C2.05447 30.4721 2.21523 30.2827 2.4141 30.1401C2.61297 29.9975 2.84384 29.9063 3.08628 29.8743C3.32873 29.8424 3.57528 29.8709 3.80415 29.9572C4.03302 30.0434 4.23715 30.1849 4.39849 30.369C4.55983 30.5531 4.67342 30.7742 4.7292 31.0128C4.78499 31.2514 4.78125 31.5 4.71833 31.7368V31.7452ZM20.8683 40.6888C20.8694 40.9836 20.7832 41.272 20.6208 41.5178C20.4584 41.7635 20.2269 41.9555 19.9556 42.0695C19.6847 42.1829 19.3862 42.2129 19.0981 42.1558C18.8101 42.0986 18.5456 41.9568 18.3382 41.7485C18.1304 41.5397 17.9888 41.274 17.9313 40.9848C17.8739 40.6956 17.903 40.3958 18.0151 40.1231C18.2444 39.5649 18.7857 39.2021 19.3855 39.2021C20.2026 39.2039 20.8646 39.8673 20.8683 40.6888ZM19.3855 33.1928L10.6615 28.1204L12.3634 27.1315L18.9371 30.9478C19.0736 31.0264 19.2282 31.0677 19.3855 31.0677C19.5429 31.0677 19.6975 31.0264 19.834 30.9478L26.4039 27.1315L28.1216 28.1288L19.3855 33.1928ZM19.3855 29.1178L10.6615 24.0454L12.3746 23.049L18.9529 26.8644C19.0893 26.943 19.2439 26.9844 19.4013 26.9845C19.4709 26.983 19.54 26.9737 19.6074 26.9565C19.692 26.9378 19.7733 26.9067 19.8489 26.8644L26.4197 23.049L28.1374 24.0454L19.3855 29.1178ZM19.3855 25.0428L12.8073 21.2264L10.642 19.9546L12.3634 18.9535L15.42 20.7519L18.9334 22.7894C19.0016 22.8299 19.075 22.8609 19.1516 22.8815C19.3827 22.9415 19.6282 22.907 19.834 22.7857L26.4039 18.9702L28.1216 19.9546L19.3855 25.0428ZM36.7695 32.0959C36.6722 32.2652 36.5426 32.4136 36.3881 32.5326C36.2336 32.6517 36.0572 32.7391 35.869 32.7898C35.6807 32.8405 35.4844 32.8535 35.2911 32.8282C35.0979 32.8029 34.9115 32.7396 34.7426 32.642C34.4925 32.4926 34.2915 32.273 34.1646 32.0104C34.0376 31.7478 33.9902 31.4537 34.0283 31.1644C34.0663 30.8751 34.1881 30.6033 34.3785 30.3826C34.569 30.1619 34.8199 30.002 35.1001 29.9226C35.4803 29.8214 35.885 29.8755 36.2254 30.0729C36.5659 30.2704 36.8143 30.595 36.9162 30.9757C37.0165 31.3535 36.9645 31.7573 36.7695 32.0959Z" fill="#43D2FF"/>
</g>
<defs>
<clipPath id="clip0_409_1725">
<rect width="148" height="44" fill="white"/>
</clipPath>
</defs>
</svg>
