<?xml version="1.0" encoding="utf-8"?>
<svg xmlns="http://www.w3.org/2000/svg" fill="none" height="16" viewBox="0 0 58 16" width="58">
<path d="M9.346 7.914c2-.577 3.15-2.053 3.15-3.957C12.496 1.433 10.814 0 7.642 0 6.6 0 5.28.107 3.704.107H1.341C.447.107 0 .342 0 .877c0 .706.958.62 1.256 1.048.17.235.32 2.203.32 5.882 0 3.893-.065 5.926-.426 6.204-.405.32-1.15.278-1.15.94 0 .707.894.856 2.895.856s2.917-.128 2.917-.855c0-.685-.745-.6-1.15-.92-.34-.257-.362-1.626-.362-4.171v-.428c0-.706.022-.898.426-.898h.98c2.511 0 3.022 1.262 3.831 4.021.66 2.268.958 3.38 3.13 3.38 1.447 0 2.256-.514 2.256-1.155 0-.3-.277-.556-.532-.556-.298 0-.532.042-.703.042-.83 0-.83-1.005-1.34-2.78-.597-2.011-1.236-3.08-3.002-3.401v-.172ZM4.343 7.06V5.027c0-1.647.021-2.695.149-3.145.149-.449.553-.534 1.575-.534 2.278 0 3.449.984 3.449 2.887 0 2.032-1.15 2.888-3.555 2.888-.511 0-1.043-.021-1.618-.064Z" fill="#32302E"/>
<path d="M17.446 8.941c-.51 0-.66-.064-.66-.406 0-1.348.958-2.482 2.384-2.482 1.47 0 2.47 1.134 2.47 2.482 0 .342-.17.406-.681.406h-3.513Zm.213 1.24h5.194c.958 0 1.214-.085 1.214-1.09 0-2.717-1.746-4.428-4.535-4.428-3.3 0-5.641 2.439-5.641 5.84 0 3.101 2.299 5.497 5.386 5.497 1.469 0 2.554-.492 3.725-1.454.66-.535 1-1.07 1-1.39 0-.3-.233-.536-.553-.536-.425 0-.745.407-1.234.749-.703.492-1.427.727-2.214.727-1.916 0-3.321-1.583-3.321-3.315 0-.578.085-.6.83-.6h.149ZM28.646 5.99v-.578c-.021-.492-.192-.706-.596-.706-.34 0-1.32.171-2.661.706-.575.235-.873.449-.873.791 0 .535.617.492 1.15.77.383.214.404 1.284.404 3.359v.641c0 .642.021 1.155.021 1.604 0 .942-.085 1.476-.51 1.712-.362.192-.81.192-.81.684 0 .727.81.834 2.704.834 1.703 0 2.49-.15 2.49-.77 0-.577-.468-.513-.957-.791-.383-.214-.426-.813-.426-1.882 0-2.075.043-3.508.447-4.321.383-.792 1.128-1.284 1.895-1.284 1.98 0 2.022 1.776 2.022 5.22 0 1.326-.042 2.053-.425 2.267-.49.278-.959.214-.959.791 0 .642.81.75 2.555.75 1.852 0 2.661-.087 2.661-.814 0-.492-.447-.492-.809-.684-.49-.257-.51-.899-.51-2.075v-.599c0-3.23.531-4.856 2.34-4.856 1.938 0 2.023 1.69 2.023 4.963 0 1.476-.085 2.289-.49 2.503-.51.278-.957.256-.957.812 0 .642.83.75 2.597.75 1.873 0 2.703-.087 2.703-.814 0-.492-.468-.492-.83-.684-.425-.236-.49-.62-.49-1.326 0-.3.022-.663.022-1.091-.021-2.375.085-4.086-.49-5.284-.553-1.155-1.81-1.925-3.576-1.925-1.022 0-1.66.428-2.363 1.027-.468.385-.66.834-.916.834-.234 0-.532-.727-1.32-1.262-.532-.364-1.149-.599-1.873-.599-1.405 0-2.022.642-2.746 1.305l-.255.235a.162.162 0 0 1-.107.043c-.085 0-.085-.043-.085-.128v-.129ZM49.053 16c3.15 0 5.578-2.524 5.578-5.904 0-3.166-2.193-5.433-5.322-5.433-3.236 0-5.663 2.439-5.663 5.711 0 3.252 2.3 5.626 5.407 5.626Zm-2.66-6.588c0-2.032 1.021-3.23 2.383-3.23 1.64 0 3.13 2.053 3.13 5.027 0 2.032-1.022 3.272-2.384 3.272-1.66 0-3.13-2.053-3.13-5.07ZM54.636 14.31c0 .941.745 1.69 1.682 1.69.937 0 1.682-.749 1.682-1.69 0-.962-.745-1.69-1.682-1.69-.936 0-1.681.728-1.681 1.69Z" fill="#32302E"/>
</svg>