<svg width="30" height="17" viewBox="0 0 64 36" fill="none" xmlns="http://www.w3.org/2000/svg"><title>Ro</title><path fill-rule="evenodd" clip-rule="evenodd" d="M13.14112,6.06076V1.16488h-1.97073l-6.72521,1.94421L0,4.3905v.98095c2.81911,0,4.1182,1.50235,4.44518,4.00331v25.46921H13.32671v-14.68766c0-6.6987,2.44794-10.8169,9.07594-10.8169V.32533c-4.42751,.00884-7.7857,2.38608-9.26153,5.73543M45.84811,.33416c-10.24247,0-18.09887,7.52941-18.09887,17.76305,0,10.17177,7.60011,17.57746,18.09003,17.57746,10.56062,0,18.16073-7.40569,18.16073-17.57746S56.1436,.33416,45.84811,.33416m0,27.48412c-5.27589,0-9.20851-3.99448-9.20851-9.72107,0-5.79729,3.86192-9.91549,9.20851-9.91549s9.27037,4.1889,9.27037,9.91549-3.93262,9.72107-9.27037,9.72107" fill="#1a1a1a"/></svg>
