<svg xmlns="http://www.w3.org/2000/svg" fill="none" viewBox="0 0 125 41" height="full"><g clip-path="url(#logo_svg__a)"><path fill="#5DC6B2" d="M33.664 33.182c2.33-1.699 4.998-6.208 4.742-7.702-.32-1.869-3.472-3.098-3.516-3.688-.063-.857 3.06-.163 4.08-1.568.833-1.146-.031-4.925-1.608-7.864-1.903-3.55-5.052-6.423-6.477-4.757-2.048 2.395-2.676 8.19-9.59 8.673a.35.35 0 0 0-.305.193c-.092.163-.11.402-.007.489 1.337 1.103 6.056 3.681 8.705 14.47.643 2.62 1.922 3.25 3.975 1.754"/><path fill="#00A7A2" d="M.038 26.928c.305 2.867 2.877 7.432 4.298 7.959 1.778.658 4.42-1.459 4.952-1.2.774.373-1.389 2.73-.682 4.317.575 1.294 4.28 2.435 7.615 2.54 4.025.127 8.088-1.164 7.357-3.23-1.05-2.973-5.753-6.413-2.717-12.642a.35.35 0 0 0-.014-.361c-.095-.162-.293-.297-.419-.251-1.623.607-6.217 3.404-16.883.304-2.591-.753-3.777.04-3.508 2.565"/><path fill="#A7E2C0" d="M22.268.934C19.632-.235 14.394-.291 13.226.677c-1.458 1.211-.946 4.557-1.436 4.89-.71.483-1.67-2.569-3.398-2.75-1.408-.148-4.249 2.49-6.007 5.325-2.122 3.422-3.035 7.586-.88 7.986 3.098.576 8.43-1.777 12.306 3.968.072.107.162.17.32.168.187-.001.403-.105.426-.237.287-1.71.16-7.086 8.178-14.775 1.948-1.867 1.854-3.29-.468-4.32z"/><path fill="#424242" d="M72.978 11.825h4.176V10h-4.176V7.92l4.859-.002V6.094h-7.143v9.94h7.288V14.21h-5.004zM100.087 12.4l-4.53-6.306h-2.003v9.94h2.014V9.703l4.53 6.333h.057c.621.002 1.037 0 1.315 0 .377 0 .504.003.55 0h.068V6.094h-2.001zM84.4 11.825h4.176V10H84.4V7.92l4.859-.002-.001-1.824h-7.142v9.94h7.288V14.21H84.4zM65.087 10.631q-.645-.315-1.65-.66a13 13 0 0 1-1.086-.392 2.1 2.1 0 0 1-.652-.426.85.85 0 0 1-.255-.625q0-.248.138-.44a.87.87 0 0 1 .385-.296q.247-.103.563-.103c.495 0 .93.073 1.506.307.577.234 1.282.662 1.282.662l.83-1.687a8.4 8.4 0 0 0-1.618-.73c-.477-.16-1.226-.284-2.055-.284-.63 0-1.196.12-1.718.358a3 3 0 0 0-1.244 1.01q-.461.653-.46 1.492 0 .962.468 1.574.466.612 1.127.942.66.33 1.677.688.687.233 1.08.405.39.172.631.42.24.248.24.604 0 .29-.15.516a1 1 0 0 1-.433.35 2 2 0 0 1-.647.139 4.9 4.9 0 0 1-1.676-.3c-.877-.276-1.523-.838-1.523-.838l-.917 1.618c.778.755 2.57 1.238 4.097 1.238a4.65 4.65 0 0 0 1.849-.357 3 3 0 0 0 1.312-1.052q.482-.694.482-1.644 0-.976-.468-1.573a3.2 3.2 0 0 0-1.113-.914zM65.337 28.615l-4.051-.02v-3.886h-2.27v9.94h2.27l.026-4.208 4.051.02v4.188h2.284v-9.94h-2.284zM122.691 28.615l-4.052-.02v-3.886h-2.271v9.94h2.271l.027-4.208 4.051.02v4.188H125v-9.94h-2.283zM98.144 24.709h-2.285v9.94h6.669v-1.825l-4.385-.02zM104.246 26.534l3.06.02v8.095h2.279l.027-8.115h3.054V24.71h-8.42zM74.45 30.44h4.175v-1.826H74.45v-2.08h4.858v-1.825h-7.142v9.94h7.288v-1.825H74.45zM90.029 34.65h2.307l-3.725-9.941h-2.222l-3.725 9.94h2.092s.57-1.512.577-1.539l.253-.685h3.632l.809 2.225zm-2.615-7.19 1.165 3.204h-2.344z"/></g><defs><clipPath id="logo_svg__a"><path fill="#fff" d="M0 0h125v40.551H0z"/></clipPath></defs></svg>
