<?xml version="1.0" encoding="utf-8"?>
<!-- Generator: Adobe Illustrator 23.0.3, SVG Export Plug-In . SVG Version: 6.00 Build 0)  -->
<svg version="1.1" id="Layer_1" xmlns="http://www.w3.org/2000/svg" xmlns:xlink="http://www.w3.org/1999/xlink" x="0px" y="0px"
	 viewBox="0 0 101.05 27.84" style="enable-background:new 0 0 101.05 27.84;" xml:space="preserve">
<style type="text/css">
	.st0{fill:#FFFFFF;}
	.st1{fill:#8C1515;}
	.st2{fill:#333333;}
	.st3{fill:#A61D38;}
</style>
<polygon class="st0" points="19.05,1.92 1.28,1.92 0.56,10.15 0.5,12.76 5.91,22.57 11.56,27.76 17.62,22.24 20.19,13.01 "/>
<g>
	<path class="st0" d="M11.3,1.51v11.25H0.5c0.02,0.09,0.03,0.18,0.05,0.27H11.3v13.44v1.3c0.05,0.03,0.09,0.05,0.13,0.08
		c0.05-0.03,0.09-0.05,0.13-0.08v-1.3V1.51H11.3z"/>
	<path class="st0" d="M5.87,3.58l0.01,0.31c0.21-0.17,0.51-0.3,0.76-0.35C6.5,4.14,6.2,4.3,5.88,4.35L5.87,4.86
		c0.26-0.21,0.66-0.5,0.96-0.56C6.66,5.07,6.29,5.34,5.88,5.4v0.5C6.21,5.69,6.72,5.32,7.1,5.26C6.88,6.03,6.4,6.34,5.88,6.39
		l0,0.46c0.33-0.21,0.84-0.54,1.22-0.6C6.89,7,6.39,7.45,5.88,7.52v0.39C6.21,7.7,6.72,7.37,7.1,7.31C6.9,8.09,6.4,8.52,5.88,8.56
		v0.32c0.39-0.23,1.04-0.64,1.49-0.7C7.11,9.02,6.5,9.48,5.88,9.54V9.9c0.21-0.17,0.65-0.35,0.9-0.4c-0.13,0.57-0.59,0.77-0.9,0.85
		l0,0.68c0.07,0,0.14-0.01,0.22-0.02c-0.02-0.24,0.12-0.48,0.42-0.67c0.01,0.18-0.09,0.45-0.15,0.62c0.17-0.04,0.33-0.08,0.49-0.15
		c-0.09-0.34,0.03-0.82,0.42-1.22c0.07,0.27,0,0.7-0.03,0.99c0.17-0.11,0.35-0.22,0.52-0.37C7.58,9.88,7.62,9.37,7.99,8.86
		C8.09,9.11,8.1,9.59,8.1,9.88c0.15-0.16,0.31-0.34,0.45-0.53C8.3,9.03,8.29,8.73,8.6,8.11C8.71,8.36,8.8,8.74,8.81,9.03
		C8.94,8.85,9.04,8.71,9.15,8.5C9.09,8.34,9.12,8.22,9.2,8.12c0.12-0.14,0.29-0.27,0.44-0.17c0.21,0.1,0.11,0.33,0.03,0.51
		c-0.05,0.12-0.15,0.21-0.31,0.2c-0.11,0.2-0.27,0.41-0.4,0.58C9.28,9.33,9.5,9.4,9.71,9.62C9.25,9.81,8.97,9.77,8.75,9.57
		c-0.15,0.2-0.37,0.41-0.52,0.58c0.3,0.09,0.5,0.18,0.75,0.43c-0.5,0.21-0.87,0.14-1.1-0.09c-0.17,0.15-0.34,0.3-0.52,0.41
		c0.3,0.15,0.51,0.31,0.69,0.56c-0.57,0.13-0.95-0.03-1.11-0.35c-0.17,0.07-0.33,0.13-0.5,0.16c0.16,0.14,0.27,0.25,0.36,0.43
		c-0.39-0.01-0.62-0.1-0.67-0.34c-0.08,0.01-0.16,0.06-0.24,0.06v0.77L5.4,11.96V11.4c-0.05-0.01-0.16-0.04-0.21-0.05
		c-0.07,0.23-0.24,0.32-0.62,0.32c0.08-0.19,0.13-0.32,0.32-0.41c-0.17-0.05-0.34-0.13-0.51-0.21c-0.15,0.36-0.49,0.5-1.09,0.37
		c0.18-0.25,0.4-0.47,0.7-0.57c-0.15-0.1-0.3-0.19-0.45-0.34c-0.22,0.25-0.59,0.33-1.11,0.12c0.21-0.21,0.42-0.38,0.74-0.45
		c-0.16-0.16-0.31-0.35-0.46-0.55C2.48,9.83,2.13,9.89,1.66,9.7c0.21-0.21,0.45-0.44,0.75-0.44C2.32,9.13,2.24,8.98,2.15,8.82
		c-0.1,0-0.19,0-0.29-0.13C1.75,8.55,1.64,8.24,1.83,8.15c0.11-0.1,0.38,0.05,0.47,0.21C2.37,8.5,2.35,8.59,2.32,8.69
		c0.09,0.15,0.2,0.29,0.29,0.42C2.55,8.69,2.67,8.34,2.78,8.09c0.38,0.53,0.31,0.98,0.1,1.3c0.16,0.19,0.29,0.34,0.45,0.5
		c-0.04-0.3-0.01-0.74,0.1-1c0.35,0.49,0.4,0.99,0.24,1.32c0.15,0.12,0.29,0.24,0.43,0.34c-0.08-0.28-0.12-0.74-0.04-1.01
		c0.4,0.41,0.52,0.86,0.43,1.21c0.17,0.08,0.33,0.14,0.5,0.18c-0.08-0.17-0.16-0.45-0.15-0.63c0.3,0.19,0.38,0.41,0.36,0.65
		c0.05,0,0.17,0.06,0.22,0.06l-0.01-0.67c-0.29-0.08-0.74-0.25-0.88-0.82C4.8,9.6,5.15,9.66,5.41,9.89V9.54
		c-0.6-0.05-1.2-0.47-1.49-1.32c0.52,0.09,1.02,0.34,1.49,0.65V8.56C4.89,8.52,4.4,8.04,4.18,7.35c0.43,0.08,0.83,0.28,1.23,0.56
		V7.52C4.92,7.46,4.42,7.05,4.18,6.29c0.43,0.08,0.83,0.27,1.23,0.55V6.4c-0.5-0.04-0.98-0.32-1.23-1.1
		c0.43,0.08,0.83,0.31,1.23,0.59V5.4c-0.4-0.04-0.77-0.29-0.97-1.06c0.35,0.08,0.65,0.23,0.97,0.51V4.35
		C5.1,4.29,4.82,4.17,4.67,3.57c0.21,0.05,0.46,0.06,0.74,0.31l-0.01-0.3c-0.23-0.34-0.18-0.5-0.15-0.77
		c0.02-0.25,0.12-0.43,0.38-0.44C5.91,2.38,6,2.56,6.02,2.81C6.05,3.08,6.1,3.24,5.87,3.58"/>
	<path class="st0" d="M17.14,9.8c0.16-1.91,0.45-2.44,0.93-2.84l0.04-0.03l-0.18-1.17l-0.09,0.02c-0.26,0.04-0.49,0.29-0.65,0.5
		l0-1.11l-1.29-0.76l0,0.66c-0.14-0.14-0.27-0.25-0.32-0.29c-0.15-0.11-0.28-0.16-0.41-0.16c-0.08,0-0.15,0.02-0.21,0.03
		c-0.1,0.03-0.17,0.05-0.32-0.01c-0.65-0.13-1.15,0.01-1.43,0.41c-0.26,0.37-0.3,0.94-0.11,1.49c0.16,0.44,0.46,0.9,0.68,1.2
		c0.13,0.18,1.26,1.37,1.52,1.64c0.19,0.19,0.39,0.38,0.6,0.57l0,0.51l-0.33-0.22l-0.32,0.75l0.07,0.04
		c0.29,0.18,0.57,0.64,0.76,3.06c-0.7,0.26-1.64,1.1-1.67,1.96c-0.01,0.4,0.18,0.96,1.17,1.35c0.21,0.08,0.44,0.17,0.67,0.27
		c0.01,0.44,0.02,0.91,0.03,1.42c-0.18,0.07-0.58,0.28-0.66,0.61c-0.06,0.26,0.1,0.51,0.47,0.75c0.07,0.04,0.13,0.07,0.2,0.09
		c0,0.13,0,0.26,0,0.39c-0.22,0.1-0.3,0.15-0.43,0.3c-0.07,0.08-0.13,0.16-0.09,0.23c0.01,0.02,0.04,0.07,0.11,0.07
		c0.05,0,0.13-0.02,0.26-0.08c0.08-0.03,0.13-0.04,0.16-0.05c0.06,0.14,0.19,0.23,0.34,0.23c0.16,0,0.29-0.11,0.32-0.29
		c0-0.05,0-0.1,0-0.16c0.18-0.09,0.29-0.24,0.3-0.44c0.01-0.22-0.11-0.44-0.3-0.58c0-0.19,0-0.37,0-0.55
		c0.66-0.13,1.35-0.56,1.42-1.13c0.04-0.34-0.15-0.84-1.23-1.28c-0.07-0.03-0.13-0.05-0.19-0.08c0-0.89,0-1.7,0.01-2.43
		c1.17-0.58,1.96-1.13,2.06-1.86C19.14,12.05,18.51,11.15,17.14,9.8z M15.16,4.88c0.03-0.04,0.12-0.04,0.18,0.02
		c0.03,0.03,0.05,0.07,0.05,0.1c0,0.03-0.01,0.05-0.02,0.07c-0.02,0.02-0.04,0.03-0.07,0.03c-0.04,0-0.08-0.02-0.11-0.05
		c-0.03-0.03-0.05-0.07-0.05-0.11C15.13,4.92,15.14,4.9,15.16,4.88z M14.87,5.43c0.03-0.05,0.11-0.07,0.18-0.03
		c0.07,0.04,0.1,0.11,0.08,0.16c-0.02,0.04-0.06,0.05-0.1,0.05c-0.03,0-0.06-0.01-0.08-0.02c-0.04-0.02-0.07-0.06-0.08-0.09
		C14.86,5.48,14.86,5.45,14.87,5.43z M15.51,8.27c-1.76-1.6-1.84-2.32-1.72-2.62c0.1-0.27,0.41-0.34,0.58-0.34
		c0.05,0,0.08,0.01,0.1,0.01c0.06,0.01,0.06,0.02,0.08,0.09c0.03,0.11,0.07,0.28,0.41,0.39c0.42,0.14,0.73,0.21,0.95,0.22l0,2.59
		C15.76,8.51,15.64,8.39,15.51,8.27z M17.61,18.5c0,0.08-0.1,0.22-0.63,0.39c0-0.31,0-0.62,0-0.92
		C17.35,18.16,17.62,18.35,17.61,18.5z M17,5.28l0,0.77l-0.47-0.12l-0.21-0.11c0.03-0.16-0.09-0.36-0.24-0.54l0-0.54L17,5.28z
		 M15.31,16.06c-0.03-0.23,0.23-0.53,0.84-0.99c0.03,0.5,0.05,1.07,0.08,1.71C15.69,16.53,15.34,16.3,15.31,16.06z M16.44,17.73
		c0.12,0.05,0.24,0.1,0.35,0.15c0,0.34,0,0.7,0,1.06l0,0v0.67h0.01c0,0.13,0,0.27,0,0.41c-0.09-0.04-0.27-0.15-0.32-0.29
		C16.47,19.01,16.46,18.34,16.44,17.73z M16.67,21.42c-0.06,0-0.13-0.03-0.17-0.12l0-0.03c0-0.25,0-0.49-0.01-0.72
		c0.2,0.04,0.31,0.08,0.3,0.34v0.34l0.01,0c0,0.02,0,0.04,0,0.06C16.78,21.41,16.7,21.42,16.67,21.42z M16.79,17.03
		c-0.13-0.05-0.25-0.11-0.37-0.16c-0.18-5.17-0.58-5.73-0.93-5.97l0.17-0.39l0.43,0.29l0-0.69c0.08,0.07,0.16,0.15,0.24,0.22
		c0.19,0.17,0.38,0.34,0.56,0.51C16.81,12.25,16.78,14.23,16.79,17.03z M16.96,9.63c-0.27-0.26-0.56-0.54-0.88-0.83l0-2.77
		c0.06-0.01,0.1-0.04,0.14-0.07l0.21,0.1l0.28,0.44l0.09-0.03L16.78,6.2L17,6.15l0,0.45l0.18,0.04c0.1-0.19,0.35-0.55,0.6-0.66
		l0.13,0.87C17.42,7.27,17.13,7.81,16.96,9.63z M16.99,13.69c0.01-1.07,0.04-1.95,0.07-2.69c0.63,0.6,1.09,1.17,1.01,1.69
		C18.01,13.06,17.65,13.39,16.99,13.69z"/>
	<path class="st0" d="M8.62,17.38l0-2.39H4.37v4.25h1.31v2.39h4.25v-4.25H8.62z M7.36,15.52h0.7v1.78h-0.7V15.52z M8.08,19.23v0.54
		H7.54v-0.54H8.08z M5.01,15.52h1.78v0.7H5.01V15.52z M5.68,18.69H4.99v-1.78h0.69V18.69z M6.22,16.84h0.54v0.54H6.22V16.84z
		 M6.28,18h1.78v0.7H6.28V18z M7,21.01H6.3v-1.78H7V21.01z M9.29,20.99H7.52v-0.7h1.78V20.99z M9.31,19.75h-0.7v-1.78h0.7V19.75z"/>
</g>
<g>
	<g>
		<path class="st1" d="M47.85,15.07c-2.55,0-2.75-1.94-2.75-2.53c0-0.7,0.19-1.93,1.81-2.53c1.68-0.62,2.04-0.69,3.19-1.05v-0.3
			c0-0.56,0-0.7-0.11-1.04c-0.22-0.67-0.86-1.08-1.73-1.08c-1.27,0-1.8,0.97-1.8,0.98l-0.1,0.19L45.9,7.41l0.05-0.15
			c0.23-0.73,1.16-1.98,3.18-1.98c1.31,0,2.17,0.37,2.7,1.18c0.39,0.64,0.43,1.52,0.43,2.44c0,0.81-0.02,1.71-0.04,2.44
			c-0.01,0.5-0.02,0.93-0.02,1.2c0,0.67,0.11,1.18,0.66,1.18c0.14,0,0.23-0.03,0.31-0.09l0.15-0.13l0.31,0.35L53.51,14
			c-0.51,0.62-1,1.05-1.86,1.05c-0.75,0-1.27-0.36-1.44-0.95C49.79,14.53,49.04,15.07,47.85,15.07z M50.11,10.11
			c-1.25,0.38-1.68,0.59-2.07,0.78c-0.54,0.27-0.82,0.83-0.82,1.48c0,0.51,0.18,1.36,1.41,1.36c0.4,0,0.98-0.07,1.49-0.44V10.11z"/>
	</g>
	<g>
		<g>
			<path class="st1" d="M32.25,15.04c-1.22,0-2.15-0.13-3.11-0.45l-0.14-0.04v-0.68c0-0.91-0.02-1.27-0.04-1.56l-0.03-0.47l0.56,0
				l0.01,0.2c0.02,0.42,0.17,0.84,0.43,1.14c0.4,0.45,1.32,0.73,2.18,0.73c1.8,0,2.63-0.68,2.63-2.14c0-1.25-0.77-1.77-1.84-2.49
				l-0.17-0.12L31.61,8.4c-1.57-1.04-2.36-1.87-2.36-3.53c0-0.81,0.31-3.46,4.25-3.46c1.62,0,2.87,0.21,2.92,0.22l0.17,0.03
				l-0.01,0.17c0,0-0.01,0.52-0.01,1.08c0,0.44-0.01,0.82,0.01,1.22l0.02,0.29h-0.48l-0.01-0.18c-0.04-0.5-0.18-0.86-0.46-1.14
				c-0.38-0.38-1.22-0.56-2.11-0.56c-2.09,0-2.34,1.08-2.34,1.88c0,1.11,0.57,1.49,1.81,2.31l1.43,0.95
				c1.22,0.81,2.36,1.58,2.36,3.59C36.8,14.67,33.62,15.04,32.25,15.04z"/>
		</g>
		<g>
			<path class="st1" d="M41.61,15.1c-1.46,0-2.26-0.52-2.62-1.68c-0.15-0.46-0.15-1.37-0.15-1.92c0-1.5,0.01-2.71,0.03-4.11
				l0.01-0.66h-1.24V6.36l0.12-0.05c0.58-0.24,0.8-0.4,1.06-0.6c0.91-0.7,1.53-1.89,1.54-1.91l0.21-0.36h0.41v2.12h3.21v1.17h-3.21
				v4.95c0,1.48,0.28,2.32,1.67,2.32c0.65,0,1.15-0.25,1.15-0.26l0.19-0.1l0.16,0.38l-0.08,0.09C44.05,14.15,43.32,15.1,41.61,15.1z
				"/>
		</g>
		<g>
			<path class="st1" d="M54.42,14.98v-0.45l0.18-0.01c0.16-0.01,0.56-0.08,0.83-0.39c0.29-0.32,0.31-1.13,0.31-2.73V8.71
				c0-1.16-0.02-1.65-0.19-1.91c-0.19-0.28-0.62-0.31-0.84-0.32c-0.03,0-0.05,0-0.08-0.01l-0.18-0.02V5.91l0.21,0.02
				c0.04,0,0.08,0,0.14,0c0.29,0,0.98-0.04,1.7-0.18c0.55-0.09,0.88-0.28,0.99-0.33l0.11-0.05l0.19,0.11v0.75
				c0.48-0.35,1.43-0.91,2.73-0.91c1.7,0,2.81,0.79,3.12,2.23c0.09,0.36,0.12,1.22,0.12,1.69v2.75c0,1.55,0.06,1.99,0.35,2.26
				c0.15,0.13,0.46,0.25,0.73,0.26l0.19,0.01v0.44l-0.47-0.02c-0.68-0.03-1.26-0.07-1.87-0.07c-0.7,0-1.3,0-2.14,0.08l-0.22,0.02
				v-0.44l0.17-0.02c0.37-0.06,0.62-0.16,0.78-0.32c0.3-0.31,0.32-1.03,0.34-1.66c0-0.1,0.01-0.21,0.01-0.33
				c0.02-0.35,0.02-1.09,0.02-1.63c0-0.71,0-1.43-0.08-2.15c-0.14-1.22-0.78-1.78-2-1.78c-0.84,0-1.37,0.19-1.76,0.4v4.95
				c0,1.55,0.06,1.99,0.35,2.26c0.15,0.13,0.45,0.25,0.73,0.26l0.18,0.01v0.44l-0.5-0.03c-0.65-0.03-1.22-0.06-1.81-0.06
				c-0.68,0-1.32,0-2.16,0.08L54.42,14.98z"/>
		</g>
		<g>
			<path class="st1" d="M66.16,14.98v-0.46l0.18-0.01c0.16-0.01,0.56-0.07,0.84-0.39c0.29-0.33,0.31-1.12,0.31-2.73V6.73h-1.23V6.2
				l0.12-0.05c0.53-0.22,0.86-0.39,1.1-0.58c0-0.84,0.03-1.91,0.14-2.5c0.37-1.94,1.64-2.93,3.78-2.93c0.92,0,1.79,0.31,2.3,0.72
				l0.07,0.06l0.03,0.2l-0.94,1.3l-0.22,0L72.6,2.3c-0.36-0.8-0.88-1.11-1.59-1.11c-0.29,0-0.7,0.09-0.95,0.34
				c-0.41,0.41-0.48,1.01-0.48,2.21v1.82h2.1v1.17h-2.1v5.22c0,1.24,0.04,1.85,0.2,2.09c0.26,0.4,1.06,0.43,1.3,0.43h0.2v0.5
				l-0.21-0.01c-1.04-0.05-1.81-0.08-2.37-0.08c-0.7,0-1.49,0-2.34,0.08L66.16,14.98z"/>
		</g>
		<g>
			<path class="st1" d="M76.99,15.14c-2.87,0-4.59-1.79-4.59-4.79c0-2.33,1.25-5.05,4.79-5.05c2.88,0,4.59,1.79,4.59,4.79
				C81.79,12.42,80.53,15.14,76.99,15.14z M77.11,6.39c-0.55,0-1,0.14-1.33,0.43c-0.76,0.63-1.14,1.79-1.14,3.43
				c0,0.63,0.12,3.8,2.44,3.8c0.55,0,1-0.15,1.34-0.43c0.75-0.63,1.14-1.79,1.14-3.43C79.55,9.56,79.43,6.39,77.11,6.39z"/>
		</g>
		<g>
			<path class="st1" d="M82.69,14.98v-0.48l0.18-0.02c0.16-0.01,0.56-0.07,0.84-0.39c0.29-0.32,0.3-1.1,0.3-2.7V8.71
				c0-1.16-0.02-1.65-0.18-1.91c-0.19-0.28-0.62-0.31-0.85-0.32c-0.03,0-0.05,0-0.07-0.01l-0.18-0.02V5.88l0.2,0
				c0.04,0,0.1,0,0.15,0c0.29,0,0.98-0.04,1.7-0.18c0.46-0.08,0.85-0.19,1.01-0.27l0.11-0.05l0.17,0.09V6.3
				c0.45-0.43,1.17-0.88,2.18-0.88c0.66,0,1.19,0.18,1.58,0.52l0.06,0.06v0.3L89.1,7.76h-0.38l-0.06-0.09
				C88.44,7.32,88,6.91,87.15,6.91c-0.39,0-0.73,0.1-1.03,0.3v4.75c0,1.24,0.04,1.83,0.2,2.07c0.27,0.39,1.06,0.43,1.3,0.43h0.2
				v0.52l-0.21-0.01c-1.04-0.05-1.81-0.08-2.37-0.08c-0.7,0-1.49,0-2.33,0.08L82.69,14.98z"/>
		</g>
		<g>
			<path class="st1" d="M97.5,15.11l-0.25-0.08v-0.79c-0.47,0.35-1.39,0.88-2.63,0.88c-2.59,0-4.26-1.79-4.26-4.57
				c0-0.92,0.18-1.8,0.52-2.54c0.79-1.71,2.43-2.69,4.49-2.69c0.76,0,1.44,0.09,1.84,0.18v-2c0-1.17-0.02-1.8-0.18-2.05
				c-0.19-0.27-0.6-0.31-0.83-0.32c-0.03,0-0.05,0-0.08-0.01l-0.18-0.02l0.04-0.42h0.2c0.04,0,1.13-0.09,2.02-0.26
				c0.37-0.06,0.74-0.14,0.93-0.21l0.09-0.04l0.16,0.1l-0.01,0.09c-0.06,0.78-0.07,2.44-0.07,3.68v7.68c0,1.15,0.02,1.86,0.18,2.09
				c0.2,0.28,0.61,0.33,0.83,0.34c0.03,0,0.06,0,0.08,0.01l0.18,0.01v0.51h-0.2c-0.21,0-1.03,0.06-1.83,0.19
				c-0.46,0.07-0.79,0.14-0.96,0.22L97.5,15.11z M95.32,6.45c-1.83,0-2.73,1.26-2.73,3.84c0,1.05,0.3,3.48,3.03,3.48h0.09
				c0.33,0,0.95-0.05,1.49-0.38V7.08C97.05,6.93,96.48,6.45,95.32,6.45z"/>
		</g>
	</g>
</g>
<g>
	<g>
		<path class="st2" d="M29.94,19.08h1.54l1.42,3.86l0.52,1.49h0.05l0.5-1.49l1.39-3.86h1.54v7.84h-1.31v-3.59
			c0-0.73,0.11-1.77,0.18-2.5h-0.05l-0.64,1.79l-1.36,3.56h-0.65l-1.36-3.56l-0.62-1.79h-0.05c0.07,0.72,0.18,1.76,0.18,2.5v3.59
			h-1.28V19.08z"/>
		<path class="st2" d="M41.88,19.08h4.73v1.17h-3.33v2h2.82v1.17h-2.82v2.32h3.45v1.17h-4.85V19.08z"/>
		<path class="st2" d="M51.33,19.08h2.1c2.4,0,3.81,1.3,3.81,3.89c0,2.6-1.42,3.96-3.74,3.96h-2.17V19.08z M53.34,25.8
			c1.58,0,2.48-0.9,2.48-2.83c0-1.92-0.9-2.76-2.48-2.76h-0.61v5.59H53.34z"/>
		<path class="st2" d="M61.83,19.08h1.39v7.84h-1.39V19.08z"/>
		<path class="st2" d="M71.43,18.94c0.95,0,1.74,0.47,2.23,1l-0.78,0.86c-0.4-0.4-0.84-0.65-1.44-0.65c-1.29,0-2.21,1.08-2.21,2.84
			c0,1.79,0.84,2.87,2.16,2.87c0.7,0,1.2-0.29,1.64-0.78l0.78,0.85c-0.64,0.73-1.46,1.14-2.45,1.14c-2,0-3.56-1.44-3.56-4.04
			C67.81,20.46,69.42,18.94,71.43,18.94z"/>
		<path class="st2" d="M78.13,19.08h1.39v7.84h-1.39V19.08z"/>
		<path class="st2" d="M84.51,19.08h1.43l2.45,4.41l0.8,1.67h0.05c-0.06-0.8-0.18-1.8-0.18-2.67v-3.41h1.33v7.84h-1.43l-2.45-4.41
			l-0.8-1.67h-0.05c0.06,0.83,0.18,1.78,0.18,2.65v3.43h-1.33V19.08z"/>
		<path class="st2" d="M95.38,19.08h4.73v1.17h-3.33v2h2.82v1.17h-2.82v2.32h3.45v1.17h-4.85V19.08z"/>
	</g>
</g>
<path class="st3" d="M14.98,5.54c0.05,0.02,0.1,0.02,0.11-0.01c0.02-0.03-0.01-0.08-0.05-0.1C15,5.4,14.94,5.4,14.93,5.44
	C14.91,5.47,14.93,5.51,14.98,5.54"/>
<path class="st3" d="M15.23,5.01c0.04,0.04,0.09,0.04,0.11,0.02c0.02-0.03,0.01-0.08-0.03-0.11c-0.04-0.04-0.09-0.04-0.11-0.02
	C15.18,4.92,15.19,4.97,15.23,5.01"/>
<g>
	<path class="st1" d="M16.33,5.8l0.21,0.11l0.47,0.12l0-0.77l-0.92-0.54l0,0.54C16.24,5.45,16.36,5.65,16.33,5.8z"/>
	<path class="st1" d="M17.62,18.49c0.01-0.16-0.26-0.34-0.63-0.53c0,0.3,0,0.61,0,0.92C17.52,18.71,17.62,18.57,17.62,18.49z"/>
	<path class="st1" d="M15.32,16.04c0.03,0.24,0.39,0.47,0.92,0.72c-0.02-0.64-0.05-1.21-0.08-1.71
		C15.55,15.51,15.29,15.81,15.32,16.04z"/>
	<path class="st1" d="M16.81,20.01c0-0.14,0-0.27,0-0.41l-0.01,0v-0.67l0,0c0-0.37,0-0.72,0-1.07c-0.11-0.05-0.23-0.1-0.35-0.15
		c0.02,0.61,0.03,1.28,0.04,2.01C16.54,19.87,16.72,19.97,16.81,20.01z"/>
	<path class="st1" d="M14.95,5.8c-0.34-0.11-0.38-0.28-0.41-0.39c-0.02-0.07-0.02-0.08-0.08-0.09c-0.02,0-0.05-0.01-0.1-0.01
		c-0.17,0-0.47,0.07-0.58,0.34c-0.11,0.29-0.04,1.02,1.72,2.61c0.14,0.13,0.26,0.24,0.39,0.36l0-2.59
		C15.68,6.01,15.37,5.94,14.95,5.8z"/>
	<path class="st1" d="M15.04,5.6c0.04,0,0.08-0.02,0.1-0.05c0.03-0.06-0.01-0.13-0.08-0.16C15,5.35,14.91,5.36,14.89,5.41
		c-0.01,0.02-0.01,0.05-0.01,0.07c0.01,0.04,0.04,0.07,0.08,0.09C14.99,5.59,15.02,5.6,15.04,5.6z"/>
	<path class="st1" d="M15.3,5.09c0.03,0,0.06-0.01,0.07-0.03c0.02-0.02,0.03-0.05,0.02-0.07c0-0.04-0.02-0.08-0.05-0.1
		c-0.06-0.05-0.15-0.06-0.18-0.02c-0.02,0.02-0.03,0.04-0.03,0.07c0,0.04,0.02,0.08,0.05,0.11C15.23,5.07,15.27,5.09,15.3,5.09z"/>
	<path class="st1" d="M16.81,21.23v-0.34c0-0.26-0.11-0.3-0.3-0.34c0,0.24,0,0.47,0.01,0.72l0,0.03c0.04,0.09,0.11,0.12,0.17,0.12
		c0.03,0,0.12-0.01,0.14-0.12c0-0.02,0-0.04,0-0.06L16.81,21.23z"/>
	<path class="st1" d="M17,13.67c0.66-0.3,1.02-0.63,1.08-1.01c0.08-0.51-0.38-1.08-1.01-1.69C17.04,11.72,17.02,12.61,17,13.67z"/>
	<path class="st1" d="M21.61,1.5H11.58v24.95v1.3c0.74-0.41,1.44-0.85,2.09-1.3C25.74,18.12,22.56,3.73,21.61,1.5z M19.05,12.8
		c-0.1,0.73-0.9,1.27-2.06,1.86c-0.01,0.73-0.01,1.54-0.01,2.43c0.06,0.03,0.13,0.05,0.19,0.08c1.09,0.44,1.27,0.94,1.23,1.28
		c-0.06,0.57-0.76,0.99-1.42,1.12c0,0.18,0,0.37,0,0.55c0.19,0.15,0.31,0.36,0.3,0.58c-0.01,0.2-0.12,0.35-0.3,0.44
		c0,0.05,0,0.1,0,0.16c-0.04,0.18-0.17,0.29-0.32,0.29c-0.15,0-0.28-0.09-0.34-0.23c-0.04,0.01-0.08,0.02-0.16,0.05
		c-0.14,0.06-0.21,0.08-0.26,0.08c-0.08,0-0.11-0.05-0.11-0.07c-0.04-0.08,0.02-0.16,0.09-0.23c0.13-0.15,0.21-0.2,0.43-0.3
		c0-0.13,0-0.26,0-0.39c-0.07-0.02-0.14-0.05-0.2-0.09c-0.37-0.24-0.53-0.49-0.47-0.75c0.07-0.33,0.48-0.54,0.66-0.61
		c-0.01-0.5-0.02-0.97-0.03-1.42c-0.23-0.09-0.46-0.18-0.67-0.27c-0.99-0.38-1.18-0.94-1.17-1.35c0.03-0.87,0.97-1.7,1.67-1.96
		c-0.19-2.42-0.48-2.88-0.76-3.06l-0.07-0.04l0.32-0.75l0.33,0.22l0-0.51c-0.21-0.19-0.41-0.38-0.6-0.57
		c-0.26-0.27-1.39-1.46-1.52-1.64c-0.22-0.3-0.52-0.75-0.68-1.2c-0.19-0.55-0.15-1.12,0.11-1.49c0.28-0.39,0.78-0.54,1.43-0.41
		c0.15,0.06,0.22,0.04,0.32,0.02c0.06-0.02,0.13-0.03,0.21-0.03c0.13,0,0.26,0.05,0.41,0.16c0.05,0.04,0.18,0.15,0.32,0.29l0-0.66
		l1.29,0.76l0,1.11c0.16-0.22,0.4-0.46,0.65-0.5l0.09-0.02l0.18,1.17l-0.04,0.03c-0.48,0.4-0.77,0.93-0.93,2.84
		C18.53,11.14,19.16,12.04,19.05,12.8z"/>
	<path class="st1" d="M17.92,6.84l-0.13-0.87c-0.25,0.11-0.5,0.47-0.6,0.66l-0.18-0.04l0-0.45l-0.22,0.04l0.02,0.28l-0.09,0.03
		l-0.28-0.44l-0.21-0.1C16.2,5.98,16.15,6,16.09,6.01l0,2.77c0.32,0.29,0.61,0.57,0.88,0.83C17.14,7.8,17.43,7.26,17.92,6.84z"/>
	<path class="st1" d="M16.1,10.09l0,0.69l-0.43-0.29l-0.17,0.39c0.35,0.24,0.75,0.8,0.93,5.97c0.12,0.05,0.24,0.11,0.37,0.16
		c0-2.79,0.02-4.77,0.09-6.2c-0.18-0.17-0.37-0.33-0.56-0.51C16.26,10.24,16.18,10.16,16.1,10.09z"/>
	<path class="st1" d="M0.51,12.74h10.8V1.5H1.28C0.76,2.69-0.38,7.37,0.51,12.74z M2.16,8.81c-0.1,0-0.19,0-0.29-0.13
		C1.76,8.54,1.65,8.23,1.84,8.13c0.11-0.1,0.38,0.05,0.47,0.21c0.08,0.15,0.05,0.23,0.02,0.34c0.09,0.15,0.2,0.29,0.29,0.42
		C2.56,8.68,2.68,8.33,2.79,8.08c0.38,0.53,0.31,0.98,0.1,1.3c0.16,0.19,0.29,0.34,0.45,0.5c-0.04-0.3-0.01-0.74,0.1-1
		c0.35,0.49,0.4,0.99,0.24,1.31c0.15,0.12,0.29,0.24,0.43,0.34c-0.08-0.28-0.12-0.74-0.04-1.01c0.4,0.41,0.52,0.86,0.43,1.21
		c0.17,0.08,0.33,0.14,0.5,0.18c-0.08-0.17-0.16-0.45-0.14-0.63c0.3,0.19,0.38,0.41,0.36,0.65C5.26,10.95,5.39,11,5.43,11
		l-0.01-0.67c-0.29-0.08-0.74-0.25-0.88-0.82c0.28,0.07,0.63,0.13,0.88,0.36V9.52c-0.6-0.05-1.2-0.47-1.49-1.32
		C4.45,8.3,4.94,8.54,5.42,8.85V8.54C4.9,8.5,4.41,8.02,4.19,7.34c0.43,0.08,0.83,0.28,1.23,0.56V7.5C4.93,7.45,4.43,7.03,4.19,6.27
		c0.43,0.08,0.83,0.27,1.23,0.55V6.38c-0.5-0.03-0.98-0.32-1.23-1.1c0.43,0.08,0.83,0.31,1.23,0.59V5.39
		C5.03,5.34,4.65,5.1,4.45,4.33C4.8,4.41,5.1,4.55,5.42,4.84V4.33C5.12,4.28,4.83,4.16,4.68,3.56c0.21,0.05,0.46,0.06,0.74,0.31
		L5.42,3.57C5.19,3.22,5.24,3.07,5.27,2.8c0.03-0.25,0.12-0.43,0.38-0.44c0.27,0.01,0.36,0.2,0.39,0.44
		c0.03,0.27,0.08,0.42-0.15,0.77l0,0.31C6.1,3.71,6.4,3.58,6.65,3.53c-0.13,0.6-0.43,0.75-0.75,0.81L5.88,4.84
		c0.26-0.21,0.66-0.5,0.96-0.56C6.67,5.05,6.3,5.33,5.89,5.39v0.5c0.33-0.21,0.84-0.58,1.22-0.64C6.9,6.02,6.42,6.33,5.9,6.37
		l0,0.46c0.33-0.21,0.84-0.54,1.22-0.6C6.91,6.98,6.4,7.44,5.9,7.51v0.39c0.33-0.21,0.84-0.54,1.22-0.6
		c-0.2,0.79-0.7,1.21-1.22,1.26v0.32c0.39-0.23,1.04-0.64,1.49-0.7C7.12,9,6.51,9.46,5.89,9.52v0.36c0.21-0.17,0.65-0.35,0.9-0.4
		c-0.13,0.57-0.59,0.77-0.9,0.85l0,0.68c0.07,0,0.14-0.02,0.22-0.02c-0.02-0.24,0.12-0.48,0.42-0.67c0.01,0.18-0.09,0.45-0.15,0.62
		c0.17-0.04,0.33-0.08,0.49-0.15C6.79,10.44,6.9,9.97,7.3,9.57c0.07,0.27,0,0.7-0.03,0.99c0.17-0.11,0.35-0.22,0.52-0.37
		C7.59,9.86,7.63,9.35,8,8.85C8.11,9.1,8.11,9.58,8.12,9.87c0.15-0.16,0.31-0.34,0.45-0.53C8.31,9.02,8.3,8.71,8.61,8.1
		c0.11,0.25,0.21,0.62,0.21,0.92c0.13-0.17,0.23-0.32,0.35-0.53C9.1,8.33,9.13,8.21,9.21,8.1C9.33,7.96,9.5,7.84,9.65,7.93
		c0.21,0.1,0.11,0.33,0.03,0.51c-0.05,0.12-0.14,0.2-0.3,0.2c-0.11,0.2-0.27,0.41-0.4,0.58c0.31,0.1,0.53,0.17,0.74,0.39
		C9.26,9.79,8.99,9.75,8.76,9.56c-0.15,0.2-0.37,0.41-0.52,0.58c0.3,0.09,0.5,0.18,0.75,0.43c-0.5,0.21-0.87,0.14-1.1-0.09
		c-0.17,0.15-0.34,0.31-0.52,0.41c0.3,0.15,0.51,0.31,0.69,0.56c-0.57,0.13-0.95-0.03-1.11-0.35c-0.17,0.07-0.33,0.13-0.5,0.16
		c0.16,0.14,0.27,0.25,0.36,0.43c-0.39-0.01-0.62-0.1-0.67-0.34c-0.08,0.01-0.16,0.06-0.24,0.06v0.77l-0.48-0.21v-0.56
		c-0.05-0.01-0.16-0.04-0.21-0.05c-0.07,0.23-0.24,0.32-0.62,0.32c0.08-0.19,0.13-0.32,0.32-0.42c-0.17-0.04-0.34-0.13-0.51-0.21
		c-0.15,0.36-0.49,0.5-1.09,0.37c0.18-0.25,0.4-0.47,0.7-0.57c-0.15-0.1-0.3-0.19-0.45-0.34c-0.22,0.25-0.59,0.33-1.11,0.12
		c0.21-0.21,0.42-0.38,0.74-0.45C3.02,10,2.87,9.81,2.72,9.61c-0.23,0.2-0.57,0.27-1.04,0.07c0.21-0.21,0.45-0.44,0.75-0.44
		C2.34,9.11,2.25,8.96,2.16,8.81z"/>
	<rect x="6.31" y="19.22" class="st1" width="0.69" height="1.78"/>
	<rect x="7.53" y="20.28" class="st1" width="1.78" height="0.7"/>
	<rect x="8.63" y="17.96" class="st1" width="0.7" height="1.78"/>
	<rect x="6.24" y="16.82" class="st1" width="0.54" height="0.54"/>
	<rect x="6.29" y="17.98" class="st1" width="1.78" height="0.7"/>
	<rect x="7.55" y="19.22" class="st1" width="0.54" height="0.54"/>
	<path class="st1" d="M9.22,26.45c0.65,0.45,1.34,0.88,2.09,1.3v-1.3V13.01H0.56C1.38,17.6,3.72,22.65,9.22,26.45z M8.63,14.97
		l0,2.39h1.31v4.25H5.7v-2.4H4.38v-4.25H8.63z"/>
	<rect x="5" y="16.9" class="st1" width="0.69" height="1.78"/>
	<rect x="7.38" y="15.51" class="st1" width="0.7" height="1.78"/>
	<rect x="5.02" y="15.51" class="st1" width="1.78" height="0.7"/>
</g>
</svg>
