<svg xmlns="http://www.w3.org/2000/svg" viewBox="0 0 208 22"><g transform="translate(0 0.5)"><path d="M 0 0 L 208 0 L 208 21 L 0 21 Z" fill="transparent"></path><path d="M 22.322 15.727 L 31.512 6.537 L 28.78 3.807 L 19.59 12.996 L 19.59 0 L 15.727 0 L 15.727 12.996 L 7.871 5.139 L 6.538 3.806 L 3.806 6.538 L 12.996 15.728 L 0 15.728 L 0 19.59 L 12.14 19.59 C 13.47 19.593 14.784 19.293 15.981 18.713 C 16.576 18.426 17.137 18.072 17.653 17.659 C 17.653 17.659 17.653 17.657 17.656 17.656 L 17.636 17.636 L 17.659 17.655 L 17.682 17.635 L 17.662 17.656 L 17.664 17.659 C 18.18 18.072 18.741 18.426 19.336 18.713 C 20.533 19.293 21.847 19.593 23.177 19.59 L 35.317 19.59 L 35.317 15.727 L 22.323 15.727 Z" fill="rgb(255,194,32)"></path><path d="M 43.311 15.04 L 46.755 15.04 C 47.001 16.659 48.147 17.37 49.815 17.37 C 51.485 17.37 52.385 16.74 52.385 15.75 C 52.385 14.409 50.609 14.27 48.695 13.888 C 46.183 13.395 43.724 12.708 43.724 9.642 C 43.724 6.575 46.236 5.149 49.435 5.149 C 53.125 5.149 55.175 6.985 55.447 9.805 L 52.085 9.805 C 51.92 8.297 50.965 7.749 49.38 7.749 C 47.931 7.749 46.977 8.297 46.977 9.311 C 46.977 10.515 48.834 10.626 50.829 11.038 C 53.179 11.532 55.776 12.19 55.776 15.475 C 55.776 18.298 53.372 19.997 49.874 19.997 C 45.804 19.997 43.534 18.026 43.317 15.037 L 43.314 15.04 Z M 65.363 19.59 L 65.363 17.947 L 65.281 17.947 C 64.327 19.233 63.231 19.975 61.264 19.975 C 58.149 19.975 56.401 17.976 56.401 14.906 L 56.401 5.533 L 60.09 5.533 L 60.09 14.273 C 60.09 15.916 60.827 16.82 62.412 16.82 C 64.16 16.82 65.228 15.505 65.228 13.641 L 65.228 5.533 L 68.946 5.533 L 68.946 19.587 L 65.366 19.587 Z M 70.419 5.534 L 73.999 5.534 L 73.999 7.424 L 74.08 7.424 C 74.845 6.138 76.212 5.149 78.15 5.149 C 79.926 5.149 81.347 6.135 82.03 7.614 L 82.082 7.614 C 83.039 6.08 84.514 5.149 86.29 5.149 C 89.242 5.149 90.909 7.066 90.909 10.133 L 90.909 19.583 L 87.19 19.583 L 87.19 10.763 C 87.19 9.173 86.396 8.353 85.03 8.353 C 83.472 8.353 82.517 9.557 82.517 11.422 L 82.517 19.586 L 78.8 19.586 L 78.8 10.765 C 78.8 9.175 78.007 8.355 76.64 8.355 C 75.136 8.355 74.127 9.559 74.127 11.425 L 74.127 19.589 L 70.41 19.589 L 70.41 5.534 L 70.42 5.534 Z M 92.281 5.534 L 95.861 5.534 L 95.861 7.424 L 95.943 7.424 C 96.707 6.138 98.074 5.149 100.013 5.149 C 101.788 5.149 103.209 6.135 103.892 7.614 L 103.946 7.614 C 104.903 6.08 106.378 5.149 108.154 5.149 C 111.106 5.149 112.773 7.066 112.773 10.133 L 112.773 19.583 L 109.056 19.583 L 109.056 10.763 C 109.056 9.173 108.263 8.353 106.896 8.353 C 105.338 8.353 104.383 9.557 104.383 11.422 L 104.383 19.586 L 100.667 19.586 L 100.667 10.765 C 100.667 9.175 99.873 8.355 98.507 8.355 C 97.002 8.355 95.994 9.559 95.994 11.425 L 95.994 19.589 L 92.277 19.589 L 92.277 5.534 L 92.283 5.534 Z M 113.461 12.549 C 113.461 8.384 116.277 5.151 120.374 5.151 C 124.884 5.151 127.289 8.603 127.289 13.617 L 117.122 13.617 C 117.397 15.782 118.599 17.125 120.702 17.125 C 122.151 17.125 122.997 16.468 123.409 15.398 L 127.071 15.398 C 126.553 17.892 124.339 20.001 120.731 20.001 C 116.086 20.001 113.462 16.741 113.462 12.551 Z M 117.179 11.041 L 123.409 11.041 C 123.3 9.26 122.126 8.028 120.432 8.028 C 118.466 8.028 117.507 9.205 117.179 11.041 Z M 131.662 7.781 L 131.743 7.781 C 132.589 6.191 133.548 5.371 135.187 5.371 C 135.595 5.371 135.842 5.398 136.06 5.48 L 136.06 8.74 L 135.979 8.74 C 133.546 8.493 131.796 9.781 131.796 12.74 L 131.796 19.589 L 128.078 19.589 L 128.078 5.534 L 131.658 5.534 L 131.658 7.78 L 131.662 7.78 Z M 144.122 7.37 L 144.204 7.37 C 145.215 5.89 146.364 5.151 148.276 5.151 C 151.173 5.151 153.114 7.342 153.114 10.411 L 153.114 19.591 L 149.396 19.591 L 149.396 10.959 C 149.396 9.452 148.523 8.384 146.964 8.384 C 145.325 8.384 144.121 9.699 144.121 11.616 L 144.121 19.589 L 140.403 19.589 L 140.403 0 L 144.121 0 L 144.121 7.37 Z M 153.797 12.549 C 153.797 8.384 156.613 5.151 160.712 5.151 C 165.222 5.151 167.625 8.603 167.625 13.617 L 157.459 13.617 C 157.733 15.782 158.935 17.125 161.039 17.125 C 162.487 17.125 163.333 16.468 163.744 15.398 L 167.406 15.398 C 166.887 17.892 164.674 20.001 161.066 20.001 C 156.423 20.001 153.797 16.741 153.797 12.551 Z M 157.515 11.041 L 163.746 11.041 C 163.637 9.26 162.463 8.028 160.768 8.028 C 158.803 8.028 157.844 9.205 157.515 11.041 Z M 176.808 18.029 L 176.751 18.029 C 176.039 19.096 175.028 19.919 172.625 19.919 C 169.756 19.919 167.734 18.411 167.734 15.616 C 167.734 12.521 170.248 11.532 173.361 11.093 C 175.683 10.765 176.751 10.573 176.751 9.504 C 176.751 8.49 175.958 7.834 174.4 7.834 C 172.652 7.834 171.804 8.463 171.695 9.804 L 168.389 9.804 C 168.498 7.34 170.33 5.174 174.429 5.174 C 178.528 5.174 180.331 7.064 180.331 10.353 L 180.331 17.503 C 180.331 18.571 180.497 19.203 180.824 19.45 L 180.824 19.588 L 177.243 19.588 C 177.024 19.312 176.888 18.655 176.806 18.026 L 176.806 18.029 Z M 176.835 14.631 L 176.835 12.521 C 176.18 12.906 175.169 13.126 174.239 13.344 C 172.298 13.782 171.342 14.22 171.342 15.534 C 171.342 16.849 172.215 17.315 173.527 17.315 C 175.658 17.315 176.832 16.001 176.832 14.631 Z M 181.809 0 L 185.525 0 L 185.525 19.59 L 181.809 19.59 Z M 186.233 5.533 L 188.174 5.533 L 188.174 1.823 L 191.808 1.823 L 191.808 5.536 L 194.211 5.536 L 194.211 8.002 L 191.808 8.002 L 191.808 15.599 C 191.808 16.641 192.382 16.995 193.203 16.995 C 193.668 16.995 194.295 16.968 194.295 16.968 L 194.295 19.56 C 194.295 19.56 193.45 19.616 191.973 19.616 C 190.169 19.616 188.175 18.903 188.175 16.246 L 188.175 7.999 L 186.234 7.999 L 186.234 5.533 Z M 198.913 7.37 L 198.994 7.37 C 200.006 5.89 201.155 5.151 203.068 5.151 C 205.965 5.151 207.907 7.342 207.907 10.411 L 207.907 19.591 L 204.189 19.591 L 204.189 10.959 C 204.189 9.452 203.315 8.384 201.756 8.384 C 200.117 8.384 198.913 9.699 198.913 11.616 L 198.913 19.589 L 195.196 19.589 L 195.196 0 L 198.913 0 Z" fill="rgb(23,21,21)"></path></g></svg>
