<svg width="156" height="30" viewBox="0 0 156 31" fill="none" xmlns="http://www.w3.org/2000/svg"><path d="M21.5466 8.57143C24.1346 8.57143 25.9761 6.73853 25.9761 4.31033C25.9761 2.03208 24.1346 0 21.5466 0C18.9587 0 17.1172 2.02984 17.1172 4.31033C17.1172 6.73853 18.9587 8.57143 21.5466 8.57143Z" fill="#282725"></path><path d="M50.1871 26.1146C49.7287 26.6764 49.2497 27.1079 48.7157 27.1079C47.7577 27.1079 47.3039 26.5326 47.3039 25.2921V16.8355C47.3039 11.7206 43.9761 9.57448 38.1776 9.7655C36.4518 9.82168 33.9995 10.143 30.4333 11.2307V17.4018H31.2905C33.6236 12.9005 36.3464 11.7049 37.9713 11.4195C39.9401 11.0757 41.0906 12.1499 41.0906 14.0623V18.8603H36.5664C32.1178 18.8603 29.1292 20.6289 29.1292 24.4269C29.1292 27.5483 31.5838 30.0001 35.2256 30.0001C38.5603 30.0001 40.7858 27.8832 41.2441 25.9662C41.7277 29.1844 44.235 30.0001 45.8829 30.0001C47.9135 30.0001 49.7539 28.8001 50.7509 26.5056L50.1871 26.1146ZM41.0952 22.6537C41.0952 25.0718 39.8369 26.0584 38.3403 26.0584C36.8437 26.0584 35.5557 25.1123 35.5557 23.4268C35.5557 21.8919 36.2959 20.6761 39.2479 20.3031L41.0975 20.1323V22.6537H41.0952Z" fill="#282725"></path><path d="M25.1382 23.3614V15.5236L25.1769 10.8549H8.73677V4.58147H7.77184C7.77184 4.58147 6.78183 10.1803 0 11.534V12.4664H2.40432V23.5878C2.40432 27.788 5.1531 30.0002 8.54971 30.0002C11.9463 30.0002 13.696 27.9449 14.5012 25.2441L13.8351 25.0267C13.3082 25.9995 12.2703 26.385 11.1844 26.385C9.73363 26.385 8.74133 25.2217 8.74133 23.4578V12.4642H16.4721C18.4362 12.4642 18.8057 13.4414 18.8057 15.5168V23.3547C18.8057 27.2636 17.7724 27.4742 16.0227 28.7227V29.4802H27.928V28.7294C26.1784 27.4832 25.145 27.2703 25.145 23.3614H25.1382Z" fill="#282725"></path><path d="M57.0318 30.1056V4.99256H60.0454V15.9346H72.8171V4.99256H75.8307V30.1056H72.8171V18.6612H60.0454V30.1056H57.0318ZM88.0865 30.6078C83.2074 30.6078 79.261 26.7332 79.261 21.2084C79.261 15.6835 83.2432 11.8089 88.23 11.8089C93.4678 11.8089 96.7684 15.5041 96.7684 20.7061V21.6748H82.0952C82.2746 25.2982 84.6065 28.1324 88.1941 28.1324C91.2435 28.1324 93.0014 26.4821 94.1136 24.1502L96.2661 25.4058C94.6158 28.7423 92.0687 30.6078 88.0865 30.6078ZM82.0952 19.3428H93.8625C93.6831 15.9346 91.1 14.1409 88.1941 14.1409C85.1088 14.1409 82.6692 16.401 82.0952 19.3428ZM105.212 30.6078C101.589 30.6078 99.2567 28.3476 99.2567 25.1547C99.2567 21.6748 102.091 19.9169 105.32 19.4146L111.347 18.4459V17.6208C111.347 15.2889 109.804 14.105 107.149 14.105C104.351 14.105 102.916 15.5041 102.916 17.0109C102.916 17.1544 102.916 17.2262 102.988 17.5132L100.512 18.3383C100.333 17.9437 100.225 17.4056 100.225 16.9392C100.225 14.1767 103.024 11.8089 107.149 11.8089C111.706 11.8089 114.217 13.9615 114.217 17.6926V25.657C114.217 27.7019 114.468 28.7423 115.329 30.1056H112.423C111.957 29.5674 111.383 28.4194 111.383 26.5897C110.414 28.9934 107.831 30.6078 105.212 30.6078ZM105.678 28.0965C109.266 28.0965 111.347 24.8318 111.347 21.3878V20.6702L105.894 21.5671C103.49 21.9618 102.127 23.2174 102.127 25.0471C102.127 26.8767 103.526 28.0965 105.678 28.0965ZM118.283 30.1056V4.99256H121.153V30.1056H118.283ZM131.688 30.6078C129.14 30.6078 126.988 29.2087 126.988 25.5493V14.5714H123.974V12.3112H126.988V7.50386H129.894V12.3112H134.127V14.5714H129.894V25.3341C129.894 27.1996 130.719 28.0606 132.333 28.0606C132.836 28.0606 133.374 27.953 133.732 27.8454L133.984 30.2491C133.374 30.4643 132.62 30.6078 131.688 30.6078ZM137.238 30.1056V4.99256H140.108V15.5759C141.436 13.244 143.804 11.8089 146.53 11.8089C150.369 11.8089 152.773 14.1409 152.773 18.0513V30.1056H149.867V18.7688C149.867 15.9705 148.181 14.4279 145.562 14.4279C142.763 14.4279 140.108 16.9392 140.108 20.5267V30.1056H137.238Z" fill="#282725"></path></svg>
