<svg width="130" height="22" viewBox="0 0 130 22" fill="none" xmlns="http://www.w3.org/2000/svg">
<g clip-path="url(#clip0_5926_1630)">
<path d="M9.876 1.08247C9.99082 1.31701 10.1042 1.55213 10.2162 1.78747C11.2246 3.90595 12.1197 6.05686 12.9099 8.23769C13.2274 9.11426 13.5276 9.99599 13.8118 10.8821C14.5818 8.30224 15.5264 5.76633 16.667 3.28033C16.7642 3.06846 16.8628 2.85676 16.9629 2.64561C17.0279 2.50841 17.0922 2.37082 17.1565 2.23342C17.4581 2.3098 17.7599 2.38631 18.0616 2.46269C18.048 2.61294 18.0342 2.76341 18.0213 2.91386C18.0016 3.14538 17.9805 3.37672 17.9578 3.6075C17.7148 6.08719 17.3066 8.5251 16.7511 10.9257C18.3178 9.29485 19.9924 7.75296 21.7877 6.31055C21.9614 6.17101 22.1364 6.03234 22.3123 5.89465C22.4326 5.80056 22.5517 5.70545 22.6713 5.61076C22.9066 5.80464 23.1421 5.99849 23.3775 6.19238C23.2998 6.32161 23.2218 6.45081 23.1448 6.58065C23.0322 6.77047 22.9185 6.95955 22.8036 7.14752C21.5525 9.19469 20.1669 11.1311 18.6627 12.9698C20.4767 12.2989 22.3411 11.7364 24.2614 11.2943C24.462 11.2481 24.6635 11.2031 24.8654 11.1596C25.0142 11.1274 25.1626 11.0944 25.311 11.0614C25.4359 11.3301 25.5609 11.5989 25.6858 11.8676C25.5616 11.953 25.4372 12.0382 25.3135 12.1245C25.1458 12.2416 24.9775 12.3575 24.8085 12.472C23.4917 13.364 22.1376 14.176 20.7495 14.9147C22.2055 14.9226 23.6647 14.969 25.1272 15.0562C25.404 15.0721 25.6687 15.0901 25.9464 15.1087C26.1047 15.1198 26.2632 15.1302 26.4215 15.1406C26.4468 15.4466 26.4723 15.7529 26.4976 16.0589C26.343 16.0936 26.1879 16.128 26.0333 16.1633C25.7623 16.2244 25.504 16.2833 25.2332 16.3416C21.6599 17.1195 18.0653 17.6435 14.4524 17.9428C14.049 17.9914 13.6479 18.0134 13.2485 18.0112C12.8492 18.0134 12.4482 17.9917 12.045 17.9431C8.43209 17.6438 4.83746 17.1195 1.26414 16.3416C0.993359 16.2833 0.735095 16.2244 0.464012 16.1633C0.30945 16.128 0.154615 16.0936 0 16.0589C0.0253484 15.7529 0.0508238 15.4466 0.0761719 15.1406C0.234514 15.1302 0.392902 15.1198 0.551294 15.1087C0.828951 15.0901 1.09358 15.0721 1.37046 15.0562C3.3135 14.9404 5.25073 14.8963 7.18237 14.9193C5.14553 13.8621 3.16319 12.6944 1.24097 11.4051C1.04331 11.2725 0.846069 11.1388 0.649681 11.0037C0.522489 10.9161 0.394777 10.8296 0.267236 10.7428C0.401693 10.4704 0.536175 10.1978 0.670631 9.92543C0.820622 9.96676 0.970655 10.0082 1.121 10.0488C1.35318 10.1115 1.58484 10.1757 1.81575 10.2409C4.24226 10.9269 6.59886 11.7545 8.89213 12.7104C7.47643 10.8479 6.1697 8.90051 4.98482 6.85901C4.86944 6.66022 4.75511 6.46046 4.64204 6.25989C4.56748 6.12767 4.49189 5.9957 4.41668 5.86398C4.65949 5.67575 4.90262 5.48747 5.1454 5.29924C5.26201 5.39887 5.37855 5.49878 5.49581 5.59787C5.67369 5.74823 5.85026 5.89965 6.02582 6.0518C7.69577 7.49902 9.26165 9.02698 10.7329 10.6283C10.5827 10.0818 10.4383 9.53358 10.3006 8.98352C9.7384 6.73744 9.28115 4.4611 8.93717 2.1527C8.89895 1.89625 8.86213 1.63928 8.82674 1.38203C8.80584 1.23013 8.78384 1.07827 8.76229 0.926557C9.06607 0.83978 9.37007 0.753373 9.67382 0.666595C9.741 0.805246 9.80821 0.944003 9.876 1.08247Z" fill="#1a1a1a"/>
<path d="M129.811 15.2567L130 15.4161C129.576 16.122 128.446 17.5111 126.821 17.5111C124.513 17.5111 123.171 16.0764 123.171 13.8676V6.21642H121.334V5.89761C123.642 5.12337 125.455 3.8254 126.326 2.25418H126.656V5.5788H129.811V6.21642H126.656V13.7538C126.656 14.9607 127.221 16.0082 128.399 15.9171C129.082 15.8715 129.435 15.5527 129.811 15.2567Z" fill="#1a1a1a"/>
<path d="M121.072 9.19964V15.3935C121.072 16.2816 121.402 16.6459 122.414 16.8508V17.1696H116.245V16.8508C117.281 16.6459 117.587 16.2816 117.587 15.3935V9.40459C117.587 8.12937 116.952 7.37792 115.868 7.37792C115.02 7.37792 114.314 7.74227 113.561 8.47094V15.3935C113.561 16.2816 113.867 16.6459 114.903 16.8508V17.1696H108.733V16.8508C109.746 16.6459 110.076 16.2816 110.076 15.3935V3.75725C110.076 2.66422 109.557 2.36819 108.733 2.39096V2.07216L113.231 0.705872H113.561V7.76502C114.691 6.35319 115.963 5.26016 117.54 5.26016C119.942 5.26016 121.072 6.8314 121.072 9.19964Z" fill="#1a1a1a"/>
<path d="M100.815 14.8697L102.91 14.4371C105.524 13.8678 108.114 15.0291 108.114 17.7162C108.114 20.4032 105.171 21.9972 101.262 21.9972C97.7535 21.9972 96.2465 20.7903 96.2465 19.5379C96.2465 18.5359 97.0941 17.8073 98.1539 17.534C97.2354 17.1241 96.6703 16.3499 96.6703 15.2796C96.6703 14.1866 97.306 13.0936 98.6248 12.5471C97.4002 11.9094 96.4584 10.8164 96.4584 9.24518C96.4584 7.03634 98.5068 5.2374 101.709 5.2374H102.086C105.195 5.32848 107.196 5.57897 107.29 4.21271H107.573L107.808 6.37597C107.055 6.37597 106.16 6.21659 104.841 5.96611C106.137 6.69478 106.937 7.85613 106.937 9.24518C106.937 11.4768 104.889 13.2529 101.709 13.2529C100.862 13.2529 99.9433 13.0936 99.0957 12.752C98.6719 13.0252 98.4834 13.4124 98.4834 13.7767C98.4834 14.7786 99.6609 15.143 100.815 14.8697ZM101.403 5.82946C100.485 5.82946 99.8728 6.87694 99.8728 8.42542C99.8728 10.7709 100.768 12.6609 102.016 12.6609C102.934 12.6609 103.475 11.5907 103.475 10.0422C103.475 7.69672 102.604 5.82946 101.403 5.82946ZM102.204 21.3824C104.37 21.3824 105.948 20.6081 105.948 19.0369C105.948 17.6251 104.253 16.9875 102.463 17.3518L101.027 17.6706C100.226 17.8528 99.4961 17.8756 98.8601 17.7389C98.6248 18.0577 98.46 18.4449 98.46 18.8775C98.46 20.4943 100.155 21.3824 102.204 21.3824Z" fill="#1a1a1a"/>
<path d="M92.8106 4.05331C91.5389 4.05331 90.597 3.16523 90.597 2.00389C90.597 0.865317 91.5389 0 92.8106 0C94.082 0 95.0239 0.865317 95.0239 2.00389C95.0239 3.16523 94.082 4.05331 92.8106 4.05331ZM94.5529 5.23745V15.3935C94.5529 16.2816 94.8591 16.6459 95.8952 16.8509V17.1697H89.7257V16.8509C90.7384 16.6459 91.068 16.2816 91.068 15.3935V8.31157C91.068 7.19579 90.5499 6.89977 89.7257 6.94531V6.62649L94.2234 5.23745H94.5529Z" fill="#1a1a1a"/>
<path d="M87.452 0.705841V15.3934C87.452 16.2815 87.7581 16.6459 88.7942 16.8508V17.1696H82.6248V16.8508C83.6371 16.6459 83.967 16.2815 83.967 15.3934V3.75723C83.967 2.66419 83.449 2.36816 82.6248 2.39093V2.07213L87.1224 0.705841H87.452Z" fill="#1a1a1a"/>
<path d="M82.4145 15.1658L82.7206 15.2797C81.9198 17.2836 80.5542 17.5113 79.8476 17.5113C78.8115 17.5113 77.3045 16.7826 77.2102 15.0747C76.6217 16.7143 75.256 17.5113 73.7253 17.5113C71.8178 17.5113 70.4285 16.2816 70.4285 14.5738C70.4285 12.2055 71.9826 10.862 75.7741 10.4977L77.2102 10.361V9.08582C77.2102 7.17302 76.504 5.87505 75.1618 5.87505C73.631 5.87505 73.0896 7.24134 73.3249 8.19775C73.631 9.33631 73.0658 9.90561 72.2654 10.065C71.2527 10.2699 70.3813 9.7462 70.4285 8.63039C70.4756 6.96807 72.2888 5.23746 75.7269 5.23746C78.9058 5.23746 80.6955 6.87699 80.6955 9.40463V14.9609C80.6955 15.6212 80.978 16.0083 81.4018 16.0083C81.755 16.0083 82.0846 15.7806 82.4145 15.1658ZM75.609 15.5757C76.2921 15.5757 76.8807 15.0747 77.2102 14.3233V11.0214L76.0565 11.1808C74.6437 11.3857 73.89 12.2511 73.89 13.6401C73.89 14.7787 74.5729 15.5757 75.609 15.5757Z" fill="#1a1a1a"/>
<path d="M67.7934 5.23746C68.9709 5.23746 69.9598 5.71564 69.9598 6.85421C69.9598 7.83339 69.3475 8.40266 68.5942 8.40266C67.5581 8.40266 67.4401 7.62845 66.5691 7.62845C65.3445 7.62845 64.3555 9.06304 64.3318 10.9758V15.439C64.3318 16.3499 64.6851 16.6232 66.3335 16.8509V17.1697H59.3632V16.8509C60.4702 16.6232 60.8468 16.3499 60.8468 15.439V8.31158C60.8468 7.1958 60.3288 6.89975 59.5046 6.94529V6.62651L64.0023 5.23746H64.3318V8.92642C64.8031 6.4671 66.3806 5.23746 67.7934 5.23746Z" fill="#1a1a1a"/>
<path d="M59.0717 15.2567L59.2602 15.4161C58.8364 16.122 57.7061 17.5111 56.0811 17.5111C53.7736 17.5111 52.4313 16.0765 52.4313 13.8677V6.21645H50.5947V5.89763C52.9022 5.12342 54.7154 3.82545 55.5867 2.25421H55.9163V5.57885H59.0717V6.21645H55.9163V13.7538C55.9163 14.9607 56.4815 16.0082 57.6589 15.9171C58.3418 15.8716 58.695 15.5527 59.0717 15.2567Z" fill="#1a1a1a"/>
<path d="M49.9483 0.705841V15.3934C49.9483 16.2815 50.2544 16.6459 51.2905 16.8508V17.1696H45.1207V16.8508C46.1334 16.6459 46.463 16.2815 46.463 15.3934V3.75723C46.463 2.66419 45.9449 2.36816 45.1207 2.39093V2.07213L49.6184 0.705841H49.9483Z" fill="#1a1a1a"/>
<path d="M44.9423 15.1658L45.2484 15.2797C44.4242 17.2836 43.0823 17.5113 42.3758 17.5113C41.3397 17.5113 39.7855 16.7598 39.7147 14.9836C38.5846 16.3727 37.3366 17.4885 35.7354 17.4885C33.357 17.4885 32.2031 15.9173 32.2031 13.5718V8.31158C32.2031 7.1958 31.685 6.89975 30.8608 6.94529V6.62651L35.3821 5.23746H35.7116V13.3213C35.7116 14.5965 36.3945 15.3252 37.4777 15.3252C38.349 15.3252 38.9847 15.0064 39.7147 14.3233V8.31158C39.7147 7.1958 39.1966 6.89975 38.3727 6.94529V6.62651L42.8938 5.23746H43.2234V14.9609C43.2234 15.6212 43.4824 16.0083 43.9299 16.0083C44.2595 16.0083 44.6127 15.7806 44.9423 15.1658Z" fill="#1a1a1a"/>
</g>
<defs>
<clipPath id="clip0_5926_1630">
<rect width="130" height="22" fill="#1a1a1a"/>
</clipPath>
</defs>
</svg>