<svg width="93" height="34" viewBox="0 0 93 34" fill="none" xmlns="http://www.w3.org/2000/svg">
<g clip-path="url(#clip0_1207_5674)">
<path d="M9.14016 6.80799C8.73328 7.83607 8.19926 9.17295 7.79238 10.1502C7.37824 9.15115 6.88418 7.84334 6.44461 6.7426L4.08328 0.846543L0 0.864707L6.58266 15.2906L9.12562 15.2797L15.5848 0.799316L11.5269 0.81748L9.14016 6.80799Z" fill="#FF671F"/>
<path d="M80.834 11.2835C80.2745 11.7776 79.8604 11.9556 79.399 11.9592C78.6797 11.9592 78.2184 11.654 78.2111 10.5533L78.1711 0.537635L75.6282 0.548533L75.2722 1.34412C74.0624 0.657518 72.6238 0.250643 70.9782 0.257908C68.9511 0.268807 67.2255 0.89365 65.9722 2.06705C64.5699 3.37486 63.7598 5.35838 63.7707 7.91224C63.7779 9.23459 63.9705 10.3935 64.3338 11.3888C63.7961 11.8429 63.3965 12.021 62.946 12.0246C62.2267 12.0246 61.7545 11.7194 61.7508 10.6187L61.7327 6.53904C61.7145 2.37947 59.6801 0.359627 56.3924 0.377791C54.1837 0.388689 52.647 1.34049 51.7279 3.11693L51.3828 0.704744L48.2513 0.715643L48.2985 11.6395C48.2731 11.6577 48.2477 11.6758 48.2259 11.694C47.8335 11.9737 47.4993 12.0936 47.1397 12.0936C46.424 12.0936 45.9481 11.7885 45.9445 10.6877L45.9263 6.6117C45.9118 2.45213 43.8738 0.42865 40.5861 0.446814C38.3773 0.457713 36.8406 1.41314 35.9215 3.18959L35.5764 0.7774L32.4486 0.788299L32.4922 11.6286C32.0199 12.0028 31.6421 12.1626 31.2352 12.1663C30.5159 12.1663 30.0509 11.8611 30.0473 10.7604L30.0037 0.744705L27.4643 0.755604L27.1083 1.55119C25.8986 0.864588 24.46 0.457713 22.818 0.464979C18.5313 0.483143 15.5887 3.26951 15.6105 8.12295C15.6286 12.8202 17.9791 15.5593 22.1096 15.5412C24.3946 15.5303 25.7751 14.4477 26.567 13.1362C27.0865 14.8291 28.5033 15.5157 29.9673 15.5085C30.8901 15.5012 31.9363 15.1415 32.5067 14.6402V15.2396L36.2303 15.2251L36.1976 7.4981C36.1867 4.93334 37.3129 3.7999 39.4417 3.789C41.1891 3.7781 42.17 4.72627 42.1736 6.62623C42.1736 6.62623 42.1845 11.4034 42.199 12.0101C42.239 13.8446 43.5359 14.8436 44.4041 15.1779L44.415 15.1924H44.4477C44.8946 15.3595 45.3777 15.4431 45.8682 15.4394C45.8863 15.4394 45.9045 15.4394 45.9227 15.4394C46.7618 15.4285 47.5683 15.2215 48.2186 14.7274C48.2477 14.7056 48.2731 14.6838 48.3022 14.662V15.1779L52.0258 15.1633L51.9931 7.43635C51.9822 4.86795 53.1047 3.73451 55.2372 3.72361C56.9846 3.71635 57.9654 4.66088 57.9691 6.56084C57.9691 6.56084 57.98 11.338 57.9909 11.9447C58.0345 13.7829 59.3277 14.7783 60.1996 15.1161L60.2105 15.1306H60.2432C60.69 15.2941 61.1732 15.3813 61.6636 15.3777H61.7363C62.7353 15.3595 63.6835 15.0653 64.381 14.3387C64.8097 13.8955 65.1075 13.4632 65.2928 13.1726C65.4926 13.4305 65.7179 13.6666 65.9576 13.8773C67.0293 14.8364 68.4752 15.3413 70.2589 15.3377C72.5439 15.3268 73.9244 14.2442 74.7163 12.9328C75.2395 14.6257 76.6526 15.3123 78.1166 15.305C79.1447 15.2978 80.3218 14.8582 80.834 14.266L80.8231 11.2835H80.834ZM22.9996 12.2208C20.6383 12.2317 19.5303 10.7204 19.5157 8.10115C19.5048 5.48189 20.6528 3.70545 23.2212 3.69455C24.4019 3.68728 25.43 3.91615 26.3055 4.39931L26.32 8.47896C26.3309 10.5097 25.2556 12.2062 22.9996 12.2171V12.2208ZM71.1598 12.021C68.7949 12.0319 67.6868 10.5206 67.6723 7.90135C67.6614 5.28209 68.8094 3.50564 71.3778 3.49474C72.5584 3.48748 73.5865 3.71635 74.462 4.19951L74.4802 8.27916C74.4875 10.3099 73.4158 12.0064 71.1598 12.0173V12.021Z" fill="#FF671F"/>
<path fill-rule="evenodd" clip-rule="evenodd" d="M25.4544 25.7822C25.3018 25.3971 24.9131 25.0992 24.3027 24.9829C22.2429 24.587 19.0969 24.151 16.8664 24.6088C15.7148 24.8449 14.5087 25.2954 13.4479 25.9057C12.3835 25.2954 11.181 24.8449 10.0294 24.6088C7.79888 24.151 4.65287 24.587 2.59306 24.9829C1.98275 25.0992 1.57951 25.437 1.42693 25.8257C1.29251 26.2181 1.4015 26.6976 1.79384 27.1772C3.11619 28.8047 5.24501 31.1624 7.25033 32.2449C9.09943 33.244 11.5116 33.9124 13.4515 33.6109C15.3878 33.9088 17.8036 33.244 19.6527 32.2449C21.6544 31.1624 23.7869 28.8047 25.1092 27.1772C25.5016 26.694 25.5924 26.1745 25.4616 25.7822H25.4544Z" fill="#FFCD00"/>
<path fill-rule="evenodd" clip-rule="evenodd" d="M20.5333 19.8861C20.1881 19.6572 19.6977 19.6354 19.131 19.8897C17.4417 20.6454 15.0404 21.8623 13.4238 23.2755C11.8072 21.8623 9.40595 20.6454 7.71669 19.8897C7.14997 19.6354 6.62321 19.679 6.2781 19.9115C5.94388 20.1586 5.7586 20.6127 5.8022 21.2302C5.95114 23.3191 6.27446 26.5123 7.36431 28.5104C9.42048 32.2813 12.1051 33.6109 13.4238 33.6109C14.7425 33.6109 17.024 32.7281 19.4834 28.5104C20.6277 26.5414 20.8929 23.3227 21.0455 21.2302C21.0891 20.609 20.8675 20.1331 20.5333 19.8861Z" fill="#F78F25"/>
<path fill-rule="evenodd" clip-rule="evenodd" d="M14.0226 23.8495C15.8499 25.7821 17.2631 28.7574 16.8162 30.9879C17.561 29.3096 17.7644 27.1045 17.4883 25.2154C17.1541 22.9631 15.6683 20.1549 14.593 18.3567C14.2733 17.8226 13.8628 17.5574 13.4486 17.5502C13.0345 17.5611 12.5768 17.8263 12.2607 18.3567C11.7594 19.1922 11.1709 20.2494 10.6514 21.3646C11.9192 22.0876 13.1653 22.934 14.0263 23.8458L14.0226 23.8495Z" fill="#FF671F"/>
<path d="M27.7548 33.5091L27.6895 18.0769L29.317 17.5829L29.346 24.082C30.1452 22.4908 31.7291 21.6153 33.7163 21.608C36.5971 21.5971 38.5516 23.3009 38.5661 26.8175L38.5952 33.4655L36.9422 33.4728L36.9132 26.8248C36.9023 24.3254 35.6054 23.1883 33.3857 23.1992C30.8246 23.2101 29.3496 25.0374 29.3605 27.6821L29.386 33.5019L27.7548 33.5091Z" fill="#003C71"/>
<path d="M40.6003 27.6531C40.5858 24.0966 42.671 21.5682 46.2675 21.5537C49.824 21.5391 51.8657 24.0276 51.8802 27.6059C51.8802 27.8602 51.862 28.0927 51.8402 28.2853L42.3586 28.3252C42.5366 30.7156 44.0261 32.1506 46.6707 32.1397C48.004 32.1324 49.399 31.8091 50.6668 30.9808L51.3716 32.3758C50.042 33.2295 48.3927 33.68 46.6126 33.6872C42.6529 33.7054 40.6112 31.2351 40.5967 27.6568L40.6003 27.6531ZM50.1437 26.8503C49.9439 24.587 48.6034 23.0903 46.2748 23.0976C43.9243 23.1085 42.5548 24.6161 42.3949 26.883L50.1437 26.8503Z" fill="#003C71"/>
<path d="M67.2289 31.5218L67.2362 33.0875C66.9819 33.3418 66.4333 33.5998 65.6523 33.6034C64.4462 33.607 63.28 33.0621 63.1238 31.1803C62.4082 32.4118 61.0386 33.6252 58.9025 33.6325C55.5349 33.647 53.3261 31.4746 53.3116 27.6238C53.2971 23.813 55.5712 21.517 59.0224 21.5025C60.6935 21.4952 62.0957 22.0838 63.1565 23.0719L63.3418 21.7386L64.7186 21.7314L64.755 30.3048C64.7586 31.5109 65.1001 32.0195 65.9901 32.0159C66.4551 32.0159 66.8584 31.8851 67.2362 31.5254L67.2289 31.5218ZM63.0839 27.5366L63.073 24.8047C62.1357 23.6858 60.8424 23.0574 59.066 23.0646C56.5884 23.0755 55.0299 24.7757 55.0408 27.6129C55.0517 30.4501 56.563 32.0522 59.0405 32.0413C61.7942 32.0304 63.0984 30.1631 63.0875 27.5366H63.0839Z" fill="#003C71"/>
<path d="M68.5186 30.4575L68.4678 17.9062L70.0953 17.4121L70.1498 30.2832C70.1534 31.4893 70.5167 31.9942 71.4067 31.9942C71.8717 31.9942 72.275 31.8634 72.631 31.5038L72.6382 33.0695C72.3839 33.3238 71.8354 33.5818 71.0725 33.5854C69.7829 33.589 68.5295 32.9605 68.5186 30.4648V30.4575Z" fill="#003C71"/>
<path d="M74.4831 29.3968L74.4577 23.2574L72.5723 23.2647V22.1857L74.4504 21.6917L74.821 19.0433H76.0925L76.1034 21.6844L80.2956 21.6662L80.3029 23.232L76.1106 23.2501L76.1361 29.3896C76.1433 31.1261 76.7609 31.9907 78.4974 31.9834C79.1549 31.9834 79.6199 31.9144 80.1249 31.7001L80.1321 33.1822C79.7507 33.3966 78.9914 33.5455 78.3121 33.5492C75.7728 33.5601 74.494 32.1033 74.4831 29.3932V29.3968Z" fill="#003C71"/>
<path d="M82.163 33.2803L82.0977 17.8481L83.7252 17.354L83.7506 23.8531C84.5498 22.2619 86.1337 21.3864 88.1209 21.3792C90.998 21.3683 92.9525 23.0721 92.967 26.5886L92.9961 33.2367L91.3468 33.2439L91.3177 26.5959C91.3068 24.0965 90.0099 22.9594 87.7903 22.9703C85.2291 22.9812 83.7542 24.8085 83.7651 27.4532L83.7905 33.273L82.1594 33.2803H82.163Z" fill="#003C71"/>
</g>
<defs>
<clipPath id="clip0_1207_5674">
<rect width="93" height="33.4255" fill="white" transform="translate(0 0.257935)"/>
</clipPath>
</defs>
</svg>
