<svg width="16" height="16" viewBox="0 0 16 16" fill="none"
  xmlns="http://www.w3.org/2000/svg">
  <g clip-path="url(#clip0_1952_272)">
    <path fill-rule="evenodd" clip-rule="evenodd" d="M14.2222 16H1.77778C0.795938 16 0 15.2041 0 14.2222V1.77778C0 0.795938 0.795938 0 1.77778 0H14.2222C15.2041 0 16 0.795938 16 1.77778V14.2222C16 15.2041 15.2041 16 14.2222 16ZM11.4034 13.7777H13.7777V8.90022C13.7777 6.8365 12.6079 5.83866 10.9738 5.83866C9.33907 5.83866 8.65107 7.11171 8.65107 7.11171V6.07402H6.36291V13.7777H8.65107V9.73375C8.65107 8.65019 9.14986 8.0054 10.1045 8.0054C10.9821 8.0054 11.4034 8.625 11.4034 9.73375V13.7777ZM2.22217 3.64373C2.22217 4.42876 2.85374 5.06528 3.63313 5.06528C4.41253 5.06528 5.04372 4.42876 5.04372 3.64373C5.04372 2.85869 4.41253 2.22217 3.63313 2.22217C2.85374 2.22217 2.22217 2.85869 2.22217 3.64373ZM4.83759 13.7777H2.45162V6.07402H4.83759V13.7777Z" fill="currentColor"></path>
  </g>
  <defs>
    <clipPath id="clip0_1952_272">
      <rect width="16" height="16" fill="currentColor"></rect>
    </clipPath>
  </defs>
</svg>