<svg width="9" height="10" viewBox="0 0 9 10" fill="none" xmlns="http://www.w3.org/2000/svg">
<g clip-path="url(#clip0_601_19949)">
<path d="M2.03033 4.46967C1.73744 4.17678 1.26256 4.17678 0.96967 4.46967C0.676777 4.76256 0.676777 5.23744 0.96967 5.53033L2.03033 4.46967ZM4.5 8L3.96967 8.53033C4.26256 8.82322 4.73744 8.82322 5.03033 8.53033L4.5 8ZM8.03033 5.53033C8.32322 5.23744 8.32322 4.76256 8.03033 4.46967C7.73744 4.17678 7.26256 4.17678 6.96967 4.46967L8.03033 5.53033ZM0.96967 5.53033L3.96967 8.53033L5.03033 7.46967L2.03033 4.46967L0.96967 5.53033ZM5.03033 8.53033L8.03033 5.53033L6.96967 4.46967L3.96967 7.46967L5.03033 8.53033Z" fill="#4D4D4D"/>
</g>
<defs>
<clipPath id="clip0_601_19949">
<rect width="8" height="8" fill="white" transform="translate(0.5 2)"/>
</clipPath>
</defs>
</svg>
