<svg width="35" height="34" viewBox="0 0 35 34" fill="none" xmlns="http://www.w3.org/2000/svg">
<path fill-rule="evenodd" clip-rule="evenodd" d="M12.3333 3C12.8856 3 13.3333 3.44772 13.3333 4V7C13.3333 7.01147 13.3331 7.02289 13.3327 7.03427C14.1852 6.99997 15.1581 6.99998 16.2601 7H16.2601L16.3333 7H18.3333L18.4065 7H18.4065C19.5086 6.99998 20.4814 6.99997 21.3339 7.03427C21.3335 7.02289 21.3333 7.01147 21.3333 7V4C21.3333 3.44772 21.781 3 22.3333 3C22.8856 3 23.3333 3.44772 23.3333 4V7C23.3333 7.07808 23.3244 7.15406 23.3074 7.22699C24.3112 7.41265 25.1691 7.76471 25.8688 8.46447C26.6714 9.26702 27.0166 10.2775 27.1779 11.4777C27.2007 11.6466 27.22 11.8222 27.2366 12.0046C27.2684 12.0016 27.3007 12 27.3333 12H30.3333C30.8856 12 31.3333 12.4477 31.3333 13C31.3333 13.5523 30.8856 14 30.3333 14H27.3333L27.3248 14C27.3333 14.5927 27.3333 15.2343 27.3333 15.9269V16V18V18.0731C27.3333 18.7657 27.3333 19.4073 27.3248 20L27.3333 20H30.3333C30.8856 20 31.3333 20.4477 31.3333 21C31.3333 21.5523 30.8856 22 30.3333 22H27.3333C27.3007 22 27.2684 21.9984 27.2366 21.9954C27.22 22.1778 27.2007 22.3534 27.1779 22.5223C27.0166 23.7225 26.6714 24.733 25.8688 25.5355C25.1691 26.2353 24.3112 26.5873 23.3074 26.773C23.3244 26.8459 23.3333 26.9219 23.3333 27V30C23.3333 30.5523 22.8856 31 22.3333 31C21.781 31 21.3333 30.5523 21.3333 30V27C21.3333 26.9885 21.3335 26.9771 21.3339 26.9657C20.4814 27 19.5085 27 18.4065 27H18.3333H16.3333H16.2602C15.1581 27 14.1852 27 13.3327 26.9657C13.3331 26.9771 13.3333 26.9885 13.3333 27V30C13.3333 30.5523 12.8856 31 12.3333 31C11.781 31 11.3333 30.5523 11.3333 30V27C11.3333 26.9219 11.3423 26.8459 11.3592 26.773C10.3554 26.5873 9.49754 26.2353 8.79778 25.5355C7.99522 24.733 7.65003 23.7225 7.48868 22.5223C7.46597 22.3534 7.44658 22.1778 7.43002 21.9954C7.3982 21.9984 7.36594 22 7.33331 22H4.33331C3.78103 22 3.33331 21.5523 3.33331 21C3.33331 20.4477 3.78103 20 4.33331 20H7.33331L7.3418 20C7.33329 19.4073 7.3333 18.7658 7.33331 18.0732V18.0732L7.33331 18V16L7.33331 15.9268V15.9268C7.3333 15.2342 7.33329 14.5927 7.3418 14L7.33331 14H4.33331C3.78103 14 3.33331 13.5523 3.33331 13C3.33331 12.4477 3.78103 12 4.33331 12H7.33331C7.36594 12 7.3982 12.0016 7.43002 12.0046C7.44658 11.8222 7.46597 11.6466 7.48868 11.4777C7.65003 10.2775 7.99522 9.26702 8.79778 8.46447C9.49754 7.76471 10.3554 7.41265 11.3592 7.22699C11.3423 7.15406 11.3333 7.07808 11.3333 7V4C11.3333 3.44772 11.781 3 12.3333 3ZM10.212 9.87868C10.581 9.50966 11.0991 9.26907 12.0775 9.13753C13.0846 9.00212 14.4194 9 16.3333 9H18.3333C20.2472 9 21.582 9.00212 22.5892 9.13753C23.5675 9.26907 24.0856 9.50966 24.4546 9.87868C24.8237 10.2477 25.0642 10.7658 25.1958 11.7442C25.3312 12.7513 25.3333 14.0861 25.3333 16V18C25.3333 19.9139 25.3312 21.2487 25.1958 22.2558C25.0642 23.2342 24.8237 23.7523 24.4546 24.1213C24.0856 24.4903 23.5675 24.7309 22.5892 24.8625C21.582 24.9979 20.2472 25 18.3333 25H16.3333C14.4194 25 13.0846 24.9979 12.0775 24.8625C11.0991 24.7309 10.581 24.4903 10.212 24.1213C9.84298 23.7523 9.60238 23.2342 9.47084 22.2558C9.33544 21.2487 9.33331 19.9139 9.33331 18V16C9.33331 14.0861 9.33544 12.7513 9.47084 11.7442C9.60238 10.7658 9.84298 10.2477 10.212 9.87868ZM15.3333 12L15.2789 12H15.2789H15.2789H15.2789H15.2789H15.2788H15.2788H15.2788H15.2788H15.2788C14.8548 11.9999 14.4427 11.9998 14.1028 12.0455C13.7196 12.097 13.2823 12.2226 12.9191 12.5858C12.5559 12.949 12.4304 13.3863 12.3788 13.7695C12.3331 14.1094 12.3332 14.5215 12.3333 14.9455V14.9455V14.9455V14.9455V14.9455V14.9455V14.9456V14.9456V14.9456V14.9456L12.3333 15V19L12.3333 19.0544C12.3332 19.4785 12.3331 19.8906 12.3788 20.2305C12.4304 20.6137 12.5559 21.051 12.9191 21.4142C13.2823 21.7774 13.7196 21.903 14.1028 21.9545C14.4427 22.0002 14.8548 22.0001 15.2789 22L15.3333 22H19.3333L19.3877 22C19.8118 22.0001 20.2239 22.0002 20.5638 21.9545C20.947 21.903 21.3843 21.7774 21.7475 21.4142C22.1107 21.051 22.2363 20.6137 22.2878 20.2305C22.3335 19.8906 22.3334 19.4785 22.3333 19.0544L22.3333 19V15L22.3333 14.9456C22.3334 14.5215 22.3335 14.1094 22.2878 13.7695C22.2363 13.3863 22.1107 12.949 21.7475 12.5858C21.3843 12.2226 20.947 12.097 20.5638 12.0455C20.2239 11.9998 19.8118 11.9999 19.3877 12L19.3333 12H15.3333ZM14.361 14.036L14.362 14.0287L14.3693 14.0277C14.5595 14.0021 14.8336 14 15.3333 14H19.3333C19.833 14 20.1071 14.0021 20.2973 14.0277L20.3046 14.0287L20.3056 14.036C20.3312 14.2262 20.3333 14.5003 20.3333 15V19C20.3333 19.4997 20.3312 19.7738 20.3056 19.964L20.3046 19.9713L20.2973 19.9723C20.1071 19.9979 19.833 20 19.3333 20H15.3333C14.8336 20 14.5595 19.9979 14.3693 19.9723L14.362 19.9713L14.361 19.964C14.3354 19.7738 14.3333 19.4997 14.3333 19V15C14.3333 14.5003 14.3354 14.2262 14.361 14.036Z" fill="#946AF9"/>
</svg>
