<svg width="35" height="34" viewBox="0 0 35 34" fill="none" xmlns="http://www.w3.org/2000/svg">
<path d="M14.779 5.92163L13.8182 5.64447L13.8182 5.64447L14.779 5.92163ZM15.0763 5.05313L14.1955 4.57969L14.1955 4.57969L15.0763 5.05313ZM16.4164 4.04492L16.2057 3.06738L16.2057 3.06739L16.4164 4.04492ZM18.2502 4.04492L18.461 3.06739L18.461 3.06738L18.2502 4.04492ZM19.5903 5.05313L20.4712 4.57969L20.4712 4.57969L19.5903 5.05313ZM19.8876 5.92159L20.8484 5.64443L20.8484 5.64443L19.8876 5.92159ZM20.1766 6.92342L19.2158 7.20058L19.2158 7.20058L20.1766 6.92342ZM20.3109 7.45078L19.3225 7.60314L19.4176 8.21994L20.0135 8.40554L20.3109 7.45078ZM21.9796 8.14264L21.5143 9.02781L22.0673 9.3185L22.5711 8.94895L21.9796 8.14264ZM22.448 7.86427L22.9314 8.73965L22.9314 8.73965L22.448 7.86427ZM23.3607 7.36023L23.8441 8.23562L23.8441 8.23562L23.3607 7.36023ZM24.185 6.95631L23.897 5.9987L23.897 5.9987L24.185 6.95631ZM25.8456 7.19103L26.3878 6.35077L26.3878 6.35077L25.8456 7.19103ZM26.5257 7.8076L25.8186 8.51471L25.8186 8.51471L26.5257 7.8076ZM27.1423 8.4877L27.9825 7.94551L27.9825 7.94551L27.1423 8.4877ZM27.377 10.1482L26.4194 9.86017L26.4194 9.86017L27.377 10.1482ZM26.9731 10.9725L26.0977 10.4891L26.0977 10.4891L26.9731 10.9725ZM26.469 11.8853L27.3444 12.3687L27.3444 12.3687L26.469 11.8853ZM26.1906 12.3537L25.3843 11.7622L25.0148 12.266L25.3055 12.819L26.1906 12.3537ZM26.8825 14.0224L25.9278 14.3198L26.1134 14.9157L26.7302 15.0108L26.8825 14.0224ZM27.4099 14.1567L27.1327 15.1175L27.1327 15.1175L27.4099 14.1567ZM28.4117 14.4457L28.6888 13.4849L28.6888 13.4849L28.4117 14.4457ZM29.2802 14.743L28.8067 15.6238L28.8067 15.6238L29.2802 14.743ZM30.2884 16.0831L29.3109 16.2939L29.3109 16.2939L30.2884 16.0831ZM30.2884 17.9169L29.3109 17.7061L29.3109 17.7061L30.2884 17.9169ZM29.2802 19.257L28.8067 18.3762L28.8067 18.3762L29.2802 19.257ZM28.4117 19.5543L28.1345 18.5935L28.1345 18.5935L28.4117 19.5543ZM27.4099 19.8433L27.687 20.8041L27.6871 20.8041L27.4099 19.8433ZM26.8825 19.9776L26.7302 18.9892L26.1134 19.0843L25.9278 19.6802L26.8825 19.9776ZM26.1906 21.6463L25.3055 21.181L25.0148 21.734L25.3843 22.2378L26.1906 21.6463ZM26.469 22.1147L25.5936 22.5981L25.5936 22.5981L26.469 22.1147ZM26.9731 23.0274L27.8484 22.544L27.8484 22.544L26.9731 23.0274ZM27.377 23.8518L28.3346 23.5637L28.3346 23.5637L27.377 23.8518ZM27.1423 25.5123L27.9825 26.0545L27.9825 26.0545L27.1423 25.5123ZM25.8456 26.809L25.3034 25.9687L25.3034 25.9687L25.8456 26.809ZM24.1851 27.0437L24.4731 26.0861L24.4731 26.0861L24.1851 27.0437ZM23.3607 26.6398L23.8442 25.7644L23.8442 25.7644L23.3607 26.6398ZM22.448 26.1358L21.9646 27.0111L21.9646 27.0111L22.448 26.1358ZM21.9796 25.8574L22.5711 25.0511L22.0673 24.6815L21.5143 24.9722L21.9796 25.8574ZM20.3109 26.5492L20.0135 25.5945L19.4176 25.7801L19.3225 26.3969L20.3109 26.5492ZM20.1766 27.0766L19.2158 26.7994L19.2158 26.7994L20.1766 27.0766ZM19.8876 28.0784L20.8485 28.3555L20.8485 28.3555L19.8876 28.0784ZM19.5903 28.9469L18.7095 28.4734L18.7095 28.4734L19.5903 28.9469ZM18.2502 29.9551L18.0394 28.9775L18.0394 28.9775L18.2502 29.9551ZM16.4164 29.9551L16.6272 28.9775L16.6272 28.9775L16.4164 29.9551ZM15.0763 28.9469L15.9571 28.4734L15.9571 28.4734L15.0763 28.9469ZM14.779 28.0784L13.8182 28.3555L13.8182 28.3555L14.779 28.0784ZM14.49 27.0766L15.4508 26.7994L15.4508 26.7994L14.49 27.0766ZM14.3558 26.5492L15.3441 26.3969L15.249 25.7801L14.6531 25.5945L14.3558 26.5492ZM12.687 25.8573L13.1523 24.9722L12.5993 24.6815L12.0955 25.051L12.687 25.8573ZM12.2186 26.1357L11.7352 25.2603L11.7352 25.2603L12.2186 26.1357ZM11.3059 26.6397L10.8225 25.7644L10.8225 25.7644L11.3059 26.6397ZM10.4815 27.0437L10.7696 28.0013L10.7696 28.0013L10.4815 27.0437ZM8.82101 26.809L8.27881 27.6492L8.27881 27.6492L8.82101 26.809ZM8.1409 26.1924L8.84801 25.4853L8.84801 25.4853L8.1409 26.1924ZM7.52433 25.5123L8.36458 24.9701L8.36458 24.9701L7.52433 25.5123ZM7.28961 23.8517L8.24722 24.1398L8.24722 24.1398L7.28961 23.8517ZM7.69353 23.0274L6.81815 22.544L6.81815 22.544L7.69353 23.0274ZM8.19756 22.1147L7.32217 21.6313L7.32217 21.6313L8.19756 22.1147ZM8.47596 21.6463L9.28225 22.2378L9.65182 21.734L9.36112 21.181L8.47596 21.6463ZM7.78409 19.9776L8.73885 19.6802L8.55326 19.0843L7.93645 18.9892L7.78409 19.9776ZM7.25675 19.8433L6.97959 20.8041L6.97959 20.8041L7.25675 19.8433ZM6.25496 19.5543L6.53212 18.5935L6.53212 18.5935L6.25496 19.5543ZM5.38644 19.257L5.85988 18.3762L5.85988 18.3762L5.38644 19.257ZM4.37824 17.9169L3.4007 18.1276L3.4007 18.1276L4.37824 17.9169ZM4.37824 16.0831L3.4007 15.8724L3.4007 15.8724L4.37824 16.0831ZM5.38644 14.743L4.913 13.8621L4.913 13.8621L5.38644 14.743ZM6.2549 14.4457L5.97774 13.4849L5.97774 13.4849L6.2549 14.4457ZM7.25673 14.1567L7.53389 15.1175L7.5339 15.1175L7.25673 14.1567ZM7.7841 14.0224L7.93645 15.0108L8.55326 14.9157L8.73885 14.3198L7.7841 14.0224ZM8.47596 12.3537L9.36112 12.819L9.65182 12.266L9.28226 11.7622L8.47596 12.3537ZM8.19757 11.8853L9.07296 11.4019L9.07296 11.4019L8.19757 11.8853ZM7.69354 10.9726L6.81816 11.456L7.69354 10.9726ZM7.28962 10.1483L8.24723 9.8602L8.24723 9.8602L7.28962 10.1483ZM7.52434 8.48774L8.36459 9.02994L8.36459 9.02994L7.52434 8.48774ZM8.14091 7.80764L7.4338 7.10053L7.4338 7.10053L8.14091 7.80764ZM8.82102 7.19106L8.27882 6.35081L8.27882 6.35081L8.82102 7.19106ZM10.4815 6.95635L10.7696 5.99874L10.7696 5.99874L10.4815 6.95635ZM11.3059 7.36027L11.7893 6.48488L11.7893 6.48488L11.3059 7.36027ZM12.2186 7.86429L12.702 6.98891L12.702 6.98891L12.2186 7.86429ZM12.687 8.14267L12.0955 8.94898L12.5993 9.31853L13.1523 9.02783L12.687 8.14267ZM14.3558 7.45078L14.6531 8.40554L15.249 8.21994L15.3441 7.60314L14.3558 7.45078ZM14.49 6.92342L15.4508 7.20058L15.4508 7.20058L14.49 6.92342ZM14.1955 4.57969C14.0318 4.88415 13.9359 5.23645 13.8182 5.64447L15.7398 6.19879C15.8839 5.6992 15.9189 5.59759 15.9571 5.52656L14.1955 4.57969ZM16.2057 3.06739C15.3464 3.25264 14.6116 3.80543 14.1955 4.57969L15.9571 5.52656C16.0958 5.26848 16.3408 5.08421 16.6272 5.02246L16.2057 3.06739ZM17.3333 3C16.9086 3 16.5436 2.99453 16.2057 3.06738L16.6272 5.02246C16.706 5.00547 16.8133 5 17.3333 5V3ZM18.461 3.06738C18.1231 2.99453 17.758 3 17.3333 3V5C17.8533 5 17.9606 5.00547 18.0394 5.02246L18.461 3.06738ZM20.4712 4.57969C20.055 3.80543 19.3202 3.25264 18.461 3.06739L18.0394 5.02246C18.3259 5.08421 18.5708 5.26848 18.7095 5.52656L20.4712 4.57969ZM20.8484 5.64443C20.7307 5.23641 20.6348 4.88415 20.4712 4.57969L18.7095 5.52656C18.7477 5.59759 18.7827 5.69916 18.9268 6.19875L20.8484 5.64443ZM21.1374 6.64626L20.8484 5.64443L18.9268 6.19875L19.2158 7.20058L21.1374 6.64626ZM21.2992 7.29842C21.2667 7.08754 21.2052 6.88123 21.1374 6.64626L19.2158 7.20058C19.2975 7.48372 19.3141 7.54804 19.3225 7.60314L21.2992 7.29842ZM22.4449 7.25748C21.8617 6.95096 21.2476 6.69516 20.6083 6.49603L20.0135 8.40554C20.5356 8.56818 21.0375 8.77718 21.5143 9.02781L22.4449 7.25748ZM21.9646 6.98888C21.7501 7.10731 21.5605 7.20984 21.3881 7.33633L22.5711 8.94895C22.616 8.91601 22.673 8.88235 22.9314 8.73965L21.9646 6.98888ZM22.8773 6.48484L21.9646 6.98888L22.9314 8.73965L23.8441 8.23562L22.8773 6.48484ZM23.897 5.9987C23.566 6.09828 23.249 6.27954 22.8773 6.48484L23.8441 8.23562C24.2993 7.98423 24.3959 7.93715 24.4731 7.91392L23.897 5.9987ZM26.3878 6.35077C25.6492 5.87418 24.7387 5.74548 23.897 5.9987L24.4731 7.91392C24.7537 7.82951 25.0572 7.87241 25.3034 8.03128L26.3878 6.35077ZM27.2328 7.10049C26.9325 6.80019 26.6782 6.53819 26.3878 6.35077L25.3034 8.03128C25.3711 8.075 25.4509 8.147 25.8186 8.51471L27.2328 7.10049ZM27.9825 7.94551C27.7951 7.65507 27.5331 7.40079 27.2328 7.10049L25.8186 8.51471C26.1863 8.8824 26.2583 8.96214 26.302 9.0299L27.9825 7.94551ZM28.3346 10.4363C28.5878 9.59456 28.4591 8.6841 27.9825 7.94551L26.302 9.0299C26.4609 9.2761 26.5038 9.57958 26.4194 9.86017L28.3346 10.4363ZM27.8485 11.456C28.0537 11.0842 28.235 10.7673 28.3346 10.4363L26.4194 9.86017C26.3961 9.93738 26.3491 10.0339 26.0977 10.4891L27.8485 11.456ZM27.3444 12.3687L27.8485 11.456L26.0977 10.4891L25.5936 11.4019L27.3444 12.3687ZM26.997 12.9452C27.1234 12.7727 27.226 12.5831 27.3444 12.3687L25.5936 11.4019C25.451 11.6602 25.4173 11.7173 25.3843 11.7622L26.997 12.9452ZM27.8373 13.7251C27.6382 13.0857 27.3823 12.4715 27.0758 11.8884L25.3055 12.819C25.5561 13.2958 25.7651 13.7977 25.9278 14.3198L27.8373 13.7251ZM27.6871 13.1959C27.4521 13.1281 27.2458 13.0666 27.0349 13.0341L26.7302 15.0108C26.7853 15.0193 26.8496 15.0359 27.1327 15.1175L27.6871 13.1959ZM28.6888 13.4849L27.6871 13.1959L27.1327 15.1175L28.1345 15.4065L28.6888 13.4849ZM29.7536 13.8621C29.4492 13.6985 29.0969 13.6026 28.6888 13.4849L28.1345 15.4065C28.6341 15.5506 28.7357 15.5856 28.8067 15.6238L29.7536 13.8621ZM31.2659 15.8724C31.0807 15.0131 30.5279 14.2783 29.7536 13.8621L28.8067 15.6238C29.0648 15.7625 29.2491 16.0074 29.3109 16.2939L31.2659 15.8724ZM31.3333 17C31.3333 16.5753 31.3388 16.2102 31.2659 15.8723L29.3109 16.2939C29.3278 16.3727 29.3333 16.48 29.3333 17H31.3333ZM31.2659 18.1277C31.3388 17.7898 31.3333 17.4247 31.3333 17H29.3333C29.3333 17.52 29.3278 17.6273 29.3109 17.7061L31.2659 18.1277ZM29.7536 20.1379C30.5279 19.7217 31.0807 18.9869 31.2659 18.1276L29.3109 17.7061C29.2491 17.9926 29.0648 18.2375 28.8067 18.3762L29.7536 20.1379ZM28.6888 20.5151C29.0969 20.3974 29.4492 20.3015 29.7536 20.1379L28.8067 18.3762C28.7357 18.4144 28.6341 18.4494 28.1345 18.5935L28.6888 20.5151ZM27.6871 20.8041L28.6888 20.5151L28.1345 18.5935L27.1327 18.8825L27.6871 20.8041ZM27.0349 20.9659C27.2458 20.9334 27.4521 20.8719 27.687 20.8041L27.1327 18.8825C26.8496 18.9641 26.7853 18.9807 26.7302 18.9892L27.0349 20.9659ZM27.0758 22.1116C27.3823 21.5285 27.6382 20.9143 27.8373 20.2749L25.9278 19.6802C25.7651 20.2023 25.5561 20.7042 25.3055 21.181L27.0758 22.1116ZM25.3843 22.2378C25.4173 22.2827 25.4509 22.3397 25.5936 22.5981L27.3444 21.6313C27.226 21.4168 27.1235 21.2273 26.997 21.0548L25.3843 22.2378ZM25.5936 22.5981L26.0977 23.5108L27.8484 22.544L27.3444 21.6313L25.5936 22.5981ZM26.0977 23.5108C26.3491 23.9661 26.3961 24.0626 26.4194 24.1398L28.3346 23.5637C28.235 23.2327 28.0537 22.9158 27.8484 22.544L26.0977 23.5108ZM26.4194 24.1398C26.5038 24.4204 26.4609 24.7239 26.302 24.9701L27.9825 26.0545C28.4591 25.3159 28.5878 24.4055 28.3346 23.5637L26.4194 24.1398ZM26.302 24.9701C26.2583 25.0379 26.1863 25.1176 25.8186 25.4853L27.2328 26.8995C27.5331 26.5992 27.7951 26.3449 27.9825 26.0545L26.302 24.9701ZM25.8186 25.4853C25.4509 25.853 25.3711 25.925 25.3034 25.9687L26.3878 27.6492C26.6782 27.4618 26.9325 27.1998 27.2328 26.8995L25.8186 25.4853ZM25.3034 25.9687C25.0572 26.1276 24.7537 26.1705 24.4731 26.0861L23.897 28.0013C24.7387 28.2545 25.6492 28.1258 26.3878 27.6492L25.3034 25.9687ZM24.4731 26.0861C24.3959 26.0629 24.2994 26.0158 23.8442 25.7644L22.8773 27.5152C23.2491 27.7205 23.566 27.9017 23.897 28.0013L24.4731 26.0861ZM23.8442 25.7644L22.9314 25.2604L21.9646 27.0111L22.8773 27.5152L23.8442 25.7644ZM22.9314 25.2604C22.673 25.1177 22.616 25.084 22.5711 25.0511L21.3881 26.6637C21.5605 26.7902 21.7501 26.8927 21.9646 27.0111L22.9314 25.2604ZM20.6083 27.504C21.2476 27.3048 21.8617 27.049 22.4449 26.7425L21.5143 24.9722C21.0375 25.2228 20.5356 25.4318 20.0135 25.5945L20.6083 27.504ZM21.1374 27.3537C21.2052 27.1188 21.2667 26.9125 21.2992 26.7016L19.3225 26.3969C19.3141 26.452 19.2975 26.5163 19.2158 26.7994L21.1374 27.3537ZM20.8485 28.3555L21.1374 27.3537L19.2158 26.7994L18.9268 27.8012L20.8485 28.3555ZM20.4712 29.4203C20.6348 29.1158 20.7308 28.7636 20.8485 28.3555L18.9268 27.8012C18.7827 28.3008 18.7477 28.4024 18.7095 28.4734L20.4712 29.4203ZM18.461 30.9326C19.3202 30.7474 20.055 30.1946 20.4712 29.4203L18.7095 28.4734C18.5708 28.7315 18.3259 28.9158 18.0394 28.9775L18.461 30.9326ZM17.3333 31C17.758 31 18.1231 31.0055 18.461 30.9326L18.0394 28.9775C17.9606 28.9945 17.8533 29 17.3333 29V31ZM16.2057 30.9326C16.5436 31.0055 16.9086 31 17.3333 31V29C16.8133 29 16.706 28.9945 16.6272 28.9775L16.2057 30.9326ZM14.1955 29.4203C14.6116 30.1946 15.3464 30.7474 16.2057 30.9326L16.6272 28.9775C16.3408 28.9158 16.0958 28.7315 15.9571 28.4734L14.1955 29.4203ZM13.8182 28.3555C13.9359 28.7636 14.0318 29.1158 14.1955 29.4203L15.9571 28.4734C15.9189 28.4024 15.8839 28.3008 15.7398 27.8012L13.8182 28.3555ZM13.5292 27.3537L13.8182 28.3555L15.7398 27.8012L15.4508 26.7994L13.5292 27.3537ZM13.3674 26.7016C13.3999 26.9125 13.4614 27.1188 13.5292 27.3537L15.4508 26.7994C15.3692 26.5163 15.3526 26.452 15.3441 26.3969L13.3674 26.7016ZM12.2217 26.7425C12.8048 27.049 13.419 27.3048 14.0584 27.504L14.6531 25.5945C14.131 25.4318 13.6291 25.2228 13.1523 24.9722L12.2217 26.7425ZM12.702 27.0111C12.9164 26.8927 13.106 26.7901 13.2785 26.6636L12.0955 25.051C12.0506 25.084 11.9936 25.1176 11.7352 25.2603L12.702 27.0111ZM11.7893 27.5151L12.702 27.0111L11.7352 25.2603L10.8225 25.7644L11.7893 27.5151ZM10.7696 28.0013C11.1006 27.9017 11.4175 27.7204 11.7893 27.5151L10.8225 25.7644C10.3673 26.0157 10.2707 26.0628 10.1935 26.0861L10.7696 28.0013ZM8.27881 27.6492C9.0174 28.1258 9.92786 28.2545 10.7696 28.0013L10.1935 26.0861C9.91289 26.1705 9.6094 26.1276 9.3632 25.9687L8.27881 27.6492ZM7.43379 26.8995C7.73409 27.1998 7.98837 27.4618 8.27881 27.6492L9.3632 25.9687C9.29544 25.925 9.21572 25.853 8.84801 25.4853L7.43379 26.8995ZM6.68407 26.0545C6.87149 26.3449 7.1335 26.5992 7.4338 26.8995L8.84801 25.4853C8.4803 25.1176 8.4083 25.0378 8.36458 24.9701L6.68407 26.0545ZM6.332 23.5637C6.07879 24.4054 6.20748 25.3159 6.68408 26.0545L8.36458 24.9701C8.20571 24.7239 8.16282 24.4204 8.24722 24.1398L6.332 23.5637ZM6.81815 22.544C6.61284 22.9157 6.43158 23.2327 6.332 23.5637L8.24722 24.1398C8.27045 24.0626 8.31753 23.966 8.56892 23.5108L6.81815 22.544ZM7.32217 21.6313L6.81815 22.544L8.56892 23.5108L9.07295 22.5981L7.32217 21.6313ZM7.66966 21.0548C7.54314 21.2272 7.4406 21.4168 7.32217 21.6313L9.07295 22.5981C9.21567 22.3397 9.24931 22.2827 9.28225 22.2378L7.66966 21.0548ZM6.82934 20.2749C7.02847 20.9142 7.28428 21.5284 7.59079 22.1116L9.36112 21.181C9.11049 20.7042 8.90149 20.2023 8.73885 19.6802L6.82934 20.2749ZM6.97959 20.8041C7.21456 20.8719 7.42086 20.9334 7.63174 20.9659L7.93645 18.9892C7.88135 18.9807 7.81703 18.9641 7.53391 18.8825L6.97959 20.8041ZM5.9778 20.5151L6.97959 20.8041L7.53391 18.8825L6.53212 18.5935L5.9778 20.5151ZM4.913 20.1379C5.21747 20.3015 5.56976 20.3974 5.9778 20.5151L6.53212 18.5935C6.03249 18.4494 5.93091 18.4144 5.85988 18.3762L4.913 20.1379ZM3.4007 18.1276C3.58596 18.9869 4.13875 19.7217 4.913 20.1379L5.85988 18.3762C5.60179 18.2375 5.41753 17.9926 5.35577 17.7061L3.4007 18.1276ZM3.33331 17C3.33331 17.4247 3.32785 17.7898 3.4007 18.1276L5.35577 17.7061C5.33878 17.6273 5.33331 17.52 5.33331 17H3.33331ZM3.4007 15.8724C3.32785 16.2102 3.33331 16.5753 3.33331 17H5.33331C5.33331 16.48 5.33878 16.3727 5.35577 16.2939L3.4007 15.8724ZM4.913 13.8621C4.13875 14.2783 3.58596 15.0131 3.4007 15.8724L5.35577 16.2939C5.41753 16.0074 5.60179 15.7625 5.85988 15.6238L4.913 13.8621ZM5.97774 13.4849C5.56972 13.6026 5.21746 13.6985 4.913 13.8621L5.85988 15.6238C5.9309 15.5856 6.03247 15.5506 6.53206 15.4065L5.97774 13.4849ZM6.97957 13.1959L5.97774 13.4849L6.53206 15.4065L7.53389 15.1175L6.97957 13.1959ZM7.63174 13.0341C7.42086 13.0666 7.21455 13.1281 6.97957 13.1959L7.5339 15.1175C7.81702 15.0359 7.88135 15.0193 7.93645 15.0108L7.63174 13.0341ZM7.5908 11.8884C7.28428 12.4716 7.02847 13.0857 6.82934 13.7251L8.73885 14.3198C8.90149 13.7977 9.11049 13.2958 9.36112 12.819L7.5908 11.8884ZM9.28226 11.7622C9.24932 11.7173 9.21567 11.6603 9.07296 11.4019L7.32218 12.3687C7.44061 12.5832 7.54315 12.7728 7.66965 12.9452L9.28226 11.7622ZM9.07296 11.4019L8.56893 10.4892L6.81816 11.456L7.32218 12.3687L9.07296 11.4019ZM8.56893 10.4892C8.31754 10.034 8.27046 9.93743 8.24723 9.8602L6.33201 10.4363C6.43159 10.7673 6.61285 11.0843 6.81816 11.456L8.56893 10.4892ZM8.24723 9.8602C8.16283 9.57962 8.20573 9.27613 8.36459 9.02994L6.68409 7.94554C6.20749 8.68414 6.0788 9.59459 6.33201 10.4363L8.24723 9.8602ZM8.36459 9.02994C8.40831 8.96218 8.48031 8.88245 8.84801 8.51475L7.4338 7.10053C7.1335 7.40083 6.8715 7.6551 6.68409 7.94554L8.36459 9.02994ZM8.84801 8.51475C9.21572 8.14704 9.29545 8.07504 9.36321 8.03131L8.27882 6.35081C7.98838 6.53822 7.7341 6.80023 7.4338 7.10053L8.84801 8.51475ZM9.36321 8.03131C9.60941 7.87245 9.9129 7.82955 10.1935 7.91396L10.7696 5.99874C9.92787 5.74552 9.01741 5.87421 8.27882 6.35081L9.36321 8.03131ZM10.1935 7.91396C10.2707 7.93719 10.3673 7.98427 10.8225 8.23565L11.7893 6.48488C11.4176 6.27958 11.1006 6.09831 10.7696 5.99874L10.1935 7.91396ZM10.8225 8.23565L11.7352 8.73968L12.702 6.98891L11.7893 6.48488L10.8225 8.23565ZM11.7352 8.73968C11.9936 8.88239 12.0506 8.91604 12.0955 8.94898L13.2785 7.33636C13.106 7.20986 12.9164 7.10732 12.702 6.98891L11.7352 8.73968ZM14.0584 6.49603C13.419 6.69516 12.8048 6.95098 12.2217 7.25751L13.1523 9.02783C13.6291 8.77719 14.131 8.56819 14.6531 8.40554L14.0584 6.49603ZM13.5292 6.64626C13.4614 6.88123 13.3999 7.08754 13.3674 7.29842L15.3441 7.60314C15.3526 7.54804 15.3692 7.48372 15.4508 7.20058L13.5292 6.64626ZM13.8182 5.64447L13.5292 6.64626L15.4508 7.20058L15.7398 6.19879L13.8182 5.64447ZM19.3333 17C19.3333 18.1046 18.4379 19 17.3333 19V21C19.5425 21 21.3333 19.2091 21.3333 17H19.3333ZM17.3333 19C16.2287 19 15.3333 18.1046 15.3333 17H13.3333C13.3333 19.2091 15.1242 21 17.3333 21V19ZM15.3333 17C15.3333 15.8954 16.2287 15 17.3333 15V13C15.1242 13 13.3333 14.7909 13.3333 17H15.3333ZM17.3333 15C18.4379 15 19.3333 15.8954 19.3333 17H21.3333C21.3333 14.7909 19.5425 13 17.3333 13V15Z" fill="#966DF7"/>
</svg>
