<svg width="17" height="16" viewBox="0 0 17 16" fill="none" xmlns="http://www.w3.org/2000/svg">
<g clip-path="url(#clip0_577_5006)">
<path d="M8.5 0C4.08267 0 0.5 3.582 0.5 8C0.5 11.5347 2.792 14.5333 5.97133 15.5913C6.37067 15.6653 6.5 15.4173 6.5 15.2067V13.7173C4.27467 14.2013 3.81133 12.7733 3.81133 12.7733C3.44733 11.8487 2.92267 11.6027 2.92267 11.6027C2.19667 11.106 2.978 11.1167 2.978 11.1167C3.78133 11.1727 4.204 11.9413 4.204 11.9413C4.91733 13.164 6.07533 12.8107 6.532 12.606C6.60333 12.0893 6.81067 11.736 7.04 11.5367C5.26333 11.3333 3.39533 10.6473 3.39533 7.58267C3.39533 6.70867 3.708 5.99533 4.21933 5.43533C4.13667 5.23333 3.86267 4.41933 4.29733 3.318C4.29733 3.318 4.96933 3.10333 6.498 4.138C7.136 3.96067 7.82 3.872 8.5 3.86867C9.18 3.872 9.86467 3.96067 10.504 4.138C12.0313 3.10333 12.702 3.318 12.702 3.318C13.1373 4.42 12.8633 5.234 12.7807 5.43533C13.294 5.99533 13.604 6.70933 13.604 7.58267C13.604 10.6553 11.7327 11.332 9.95133 11.53C10.238 11.778 10.5 12.2647 10.5 13.0113V15.2067C10.5 15.4193 10.628 15.6693 11.034 15.5907C14.2107 14.5313 16.5 11.5333 16.5 8C16.5 3.582 12.918 0 8.5 0Z" fill="#4D4D4D"/>
</g>
<defs>
<clipPath id="clip0_577_5006">
<rect width="16" height="16" fill="white" transform="translate(0.5)"/>
</clipPath>
</defs>
</svg>
