<svg width="514" height="472" viewBox="0 0 514 472" fill="none" xmlns="http://www.w3.org/2000/svg">
<path d="M403.408 62.4386L315.948 12.3476C315.853 12.2929 315.772 12.3367 315.772 12.4424L315.772 89.4963C315.772 89.592 315.839 89.704 315.924 89.7533L403.384 140.263C403.48 140.318 403.561 140.275 403.561 140.169L403.561 62.6965C403.561 62.6009 403.494 62.4879 403.408 62.4386Z" fill="white" stroke="#181A3D" stroke-width="0.595178"/>
<path d="M410.83 58.4698L402.98 62.5041C402.889 62.5505 402.817 62.6671 402.817 62.7654L402.817 140.169C402.817 140.272 402.895 140.317 402.989 140.267L410.84 136.14C410.93 136.092 411.001 135.977 411.001 135.878L411.001 58.5681C411.001 58.4662 410.924 58.4215 410.83 58.4698Z" fill="#181A3D"/>
<path d="M323.546 7.89376L315.84 11.699C315.755 11.7407 315.749 11.8087 315.828 11.8541L402.864 62.1302C402.953 62.1819 403.114 62.1837 403.209 62.1338L410.937 58.1181C411.019 58.0755 411.022 58.0083 410.945 57.9638L323.887 7.9001C323.799 7.84929 323.643 7.84658 323.546 7.89376Z" fill="#83A0D4" stroke="#181A3D" stroke-width="0.595178"/>
<path d="M393.752 81.386L384.381 75.5866C384.293 75.5302 384.218 75.573 384.218 75.6795L384.218 87.1552C384.218 87.2499 384.278 87.361 384.356 87.4111L393.726 93.392C393.814 93.4485 393.889 93.4057 393.889 93.2982L393.889 81.6419C393.889 81.5481 393.83 81.4361 393.752 81.386Z" fill="#222233"/>
<path d="M381.827 74.6903L371.015 68.8909C370.914 68.8345 370.826 68.8773 370.826 68.9838L370.826 80.4595C370.826 80.5542 370.895 80.6653 370.985 80.7154L381.797 86.6964C381.899 86.7528 381.986 86.71 381.986 86.6026L381.986 74.9462C381.986 74.8524 381.917 74.7404 381.827 74.6903Z" fill="#222233"/>
<path d="M359.519 51.8736L328.212 33.1805C328.118 33.1234 328.037 33.1667 328.037 33.2744L327.676 87.4697C327.676 87.5654 327.74 87.6777 327.824 87.7283L359.131 106.039C359.225 106.096 359.306 106.053 359.306 105.945L359.667 52.1322C359.667 52.0374 359.602 51.9242 359.519 51.8736Z" fill="#BBAEDB"/>
<path d="M393.82 101.07L389.101 97.9452C389.057 97.9148 389.018 97.9379 389.018 97.9953L388.949 104.17C388.949 104.221 388.979 104.281 389.018 104.308L393.807 107.247C393.851 107.278 393.889 107.255 393.889 107.197L393.889 101.208C393.889 101.157 393.859 101.097 393.82 101.07Z" fill="#222233"/>
<path d="M388.191 97.6609L383.471 94.5362C383.427 94.5057 383.389 94.5288 383.389 94.5862L383.389 100.769C383.389 100.82 383.419 100.88 383.458 100.907L388.178 103.838C388.222 103.868 388.26 103.845 388.26 103.788L388.26 97.7988C388.26 97.7483 388.23 97.6879 388.191 97.6609Z" fill="#222233"/>
<path d="M382.655 94.7345L377.599 91.7833C377.552 91.7546 377.511 91.7764 377.511 91.8306L377.437 97.662C377.437 97.7102 377.469 97.7667 377.511 97.7922L382.642 100.569C382.689 100.597 382.73 100.576 382.73 100.521L382.73 94.8647C382.73 94.817 382.697 94.76 382.655 94.7345Z" fill="#222233"/>
<path d="M376.624 91.5147L371.568 88.5635C371.52 88.5348 371.479 88.5565 371.479 88.6108L371.479 94.4505C371.479 94.4987 371.512 94.5552 371.554 94.5807L376.61 97.3486C376.658 97.3773 376.698 97.3556 376.698 97.3009L376.698 91.6449C376.698 91.5971 376.666 91.5401 376.624 91.5147Z" fill="#222233"/>
<path d="M388.533 110.762L385.988 109.316C385.964 109.299 385.944 109.312 385.944 109.344L385.944 112.454C385.944 112.482 385.96 112.516 385.981 112.531L388.526 114.002C388.55 114.02 388.57 114.006 388.57 113.974L388.57 110.84C388.57 110.811 388.554 110.777 388.533 110.762Z" fill="#222233"/>
<path d="M385.664 109.09L383.118 107.644C383.094 107.627 383.074 107.64 383.074 107.673L383.074 110.782C383.074 110.811 383.09 110.844 383.111 110.86L385.657 112.331C385.68 112.348 385.7 112.335 385.7 112.302L385.7 109.168C385.7 109.14 385.684 109.105 385.664 109.09Z" fill="#222233"/>
<path d="M394.461 114.171L391.916 112.725C391.892 112.708 391.872 112.721 391.872 112.754L391.872 115.863C391.872 115.892 391.888 115.925 391.909 115.941L394.454 117.412C394.478 117.429 394.498 117.416 394.498 117.383L394.498 114.249C394.498 114.221 394.482 114.186 394.461 114.171Z" fill="#222233"/>
<path d="M391.478 112.463L388.933 111.017C388.909 111 388.889 111.013 388.889 111.046L388.889 114.155C388.889 114.184 388.905 114.218 388.926 114.233L391.472 115.704C391.495 115.721 391.515 115.708 391.515 115.675L391.515 112.541C391.515 112.513 391.499 112.479 391.478 112.463Z" fill="#222233"/>
<path d="M376.883 104.252L374.463 102.808C374.441 102.791 374.422 102.804 374.422 102.836L374.422 105.942C374.422 105.971 374.437 106.005 374.457 106.02L376.876 107.49C376.899 107.507 376.918 107.494 376.918 107.461L376.918 104.33C376.918 104.302 376.903 104.268 376.883 104.252Z" fill="#222233"/>
<path d="M374.155 102.582L371.735 101.138C371.713 101.121 371.694 101.134 371.694 101.166L371.694 104.272C371.694 104.301 371.709 104.335 371.729 104.35L374.148 105.82C374.171 105.837 374.19 105.824 374.19 105.791L374.19 102.66C374.19 102.632 374.175 102.598 374.155 102.582Z" fill="#222233"/>
<path d="M382.518 107.658L380.098 106.214C380.076 106.197 380.057 106.21 380.057 106.242L380.057 109.348C380.057 109.377 380.072 109.411 380.092 109.426L382.511 110.896C382.534 110.913 382.553 110.9 382.553 110.867L382.553 107.736C382.553 107.708 382.538 107.674 382.518 107.658Z" fill="#222233"/>
<path d="M379.682 105.952L377.262 104.508C377.24 104.491 377.221 104.504 377.221 104.536L377.221 107.642C377.221 107.671 377.236 107.705 377.256 107.72L379.675 109.19C379.698 109.207 379.717 109.194 379.717 109.161L379.717 106.03C379.717 106.002 379.702 105.968 379.682 105.952Z" fill="#222233"/>
<path d="M395.98 73.0355L370.996 58.4769C370.905 58.4172 370.826 58.4618 370.826 58.5737L370.996 62.9866C370.996 63.0843 371.057 63.2001 371.137 63.2522L395.952 77.767C396.043 77.8268 396.121 77.7822 396.121 77.6702L396.121 73.3012C396.121 73.2035 396.06 73.0877 395.98 73.0355Z" fill="#222233"/>
<path d="M257.063 177.51C257.119 177.478 257.188 177.478 257.245 177.51L509.857 322.027C509.98 322.097 509.98 322.272 509.858 322.342L257.246 468.355C257.189 468.388 257.119 468.388 257.063 468.355L2.65125 322.343C2.52866 322.273 2.5296 322.096 2.65222 322.027L257.063 177.51Z" fill="#130731"/>
<path d="M4.43729 281.307C4.38138 281.275 4.34654 281.216 4.34654 281.152L4.04776 256.532C4.04593 256.391 4.19991 256.301 4.32272 256.372L257.651 402.197C257.708 402.23 257.742 402.29 257.742 402.355L257.742 427.278C257.742 427.419 257.589 427.506 257.467 427.436L4.43729 281.307Z" fill="#7F58DB" stroke="#181A3D" stroke-width="0.461263"/>
<path d="M257.063 111.296C257.119 111.264 257.188 111.264 257.245 111.296L509.857 256.552C509.98 256.622 509.98 256.799 509.858 256.87L257.246 403.629C257.189 403.662 257.119 403.662 257.063 403.629L2.65125 256.871C2.52866 256.8 2.5296 256.622 2.65222 256.551L257.063 111.296Z" fill="white"/>
<path d="M257.063 112.04C257.119 112.008 257.188 112.008 257.245 112.04L509.857 257.296C509.98 257.366 509.98 257.543 509.858 257.614L257.246 404.373C257.189 404.406 257.119 404.406 257.063 404.373L2.65125 257.615C2.52866 257.544 2.5296 257.366 2.65222 257.295L257.063 112.04Z" fill="url(#paint0_linear_577_5027)"/>
<path d="M257.063 111.296C257.119 111.264 257.188 111.264 257.245 111.296L509.857 256.552C509.98 256.622 509.98 256.799 509.858 256.87L257.246 403.629C257.189 403.662 257.119 403.662 257.063 403.629L2.65126 256.871C2.52866 256.8 2.52961 256.622 2.65221 256.551L257.063 111.296Z" stroke="#181A3D" stroke-width="0.461263"/>
<path opacity="0.4" d="M316.516 350.469L256.238 315.865L195.993 350.45L256.264 385.054L316.516 350.469Z" fill="#A6B2F2"/>
<path opacity="0.4" d="M316.516 282.765L256.238 248.163L195.993 282.752L256.264 317.353L316.516 282.765Z" fill="#A6B2F2"/>
<path opacity="0.4" d="M313.25 215.694L257.437 184.067L201.654 215.677L257.461 247.305L313.25 215.694Z" fill="#828FD6"/>
<path opacity="0.4" d="M430.798 282.65L373.503 249.537L316.226 282.638L373.52 315.75L430.798 282.65Z" fill="#A6B2F2"/>
<path opacity="0.4" d="M199.713 282.765L142.045 249.651L84.3968 282.752L142.064 315.865L199.713 282.765Z" fill="#A6B2F2"/>
<path opacity="0.4" d="M434.064 216.553L373.421 183.438L312.796 216.535L373.439 249.651L434.064 216.553Z" fill="#A6B2F2"/>
<path opacity="0.4" d="M318.079 150.969L257.435 117.854L196.811 150.951L257.454 184.067L318.079 150.969Z" fill="#A6B2F2"/>
<path opacity="0.4" d="M202.026 215.686L141.755 183.323L81.1306 216.42L141.773 249.537L202.026 215.686Z" fill="#A6B2F2"/>
<path d="M222.218 99.413L263.906 80.0756C264.146 79.9284 264.44 80.1233 264.438 80.4288L260.356 170.391C260.355 170.698 260.057 170.889 259.818 170.737L222.212 146.393C222.101 146.322 222.032 146.189 222.032 146.046L222.032 99.7638C222.032 99.6178 222.103 99.4836 222.218 99.413Z" fill="#70D58D" stroke="#181A3D" stroke-width="0.461263"/>
<path d="M306.292 135.059C305.749 134.788 301.405 132.887 301.405 132.887L298.792 132.887L302.864 134.788L306.292 135.059Z" fill="white" stroke="#181A3D" stroke-width="0.238071"/>
<path d="M308.199 140.127C308.038 139.553 306.266 134.916 306.266 134.916L302.024 134.916L303.709 140.946L308.199 140.127Z" fill="white" stroke="#181A3D" stroke-width="0.461263"/>
<path d="M308.464 144.567C308.343 145.112 307.378 149.997 307.378 149.997L304.121 151.626L304.941 145.556L308.464 144.567Z" fill="#56C175" stroke="#181A3D" stroke-width="0.461263"/>
<path d="M308.199 140.127L308.464 144.567L304.175 146.218L303.988 140.973L308.199 140.127Z" fill="#D0FFDA" stroke="#181A3D" stroke-width="0.461263"/>
<path d="M299.673 149.846L298.318 145.069L298.055 137.687L299.066 132.823C299.067 132.819 299.068 132.816 299.07 132.814C299.071 132.812 299.075 132.81 299.075 132.81L303.042 134.918C303.042 134.918 303.046 134.919 303.048 134.921C303.049 134.923 303.051 134.926 303.052 134.93L304.625 140.647L304.821 146.147L303.659 151.953C303.658 151.957 303.657 151.959 303.655 151.962C303.653 151.964 303.649 151.965 303.649 151.965L299.683 149.858C299.683 149.858 299.679 149.857 299.677 149.854C299.676 149.852 299.674 149.85 299.673 149.846Z" fill="white" stroke="#181A3D" stroke-width="0.461263"/>
<path d="M301.018 148.075L300.216 145.506L300.074 141.531L300.692 138.909C300.692 138.907 300.693 138.905 300.694 138.904C300.695 138.903 300.696 138.902 300.697 138.902L301.774 138.864C301.775 138.864 301.776 138.864 301.777 138.865C301.778 138.866 301.779 138.868 301.78 138.87L302.711 141.945L302.817 144.907L302.107 148.037C302.106 148.038 302.105 148.04 302.104 148.041C302.103 148.042 302.102 148.043 302.101 148.043L301.024 148.081C301.023 148.081 301.022 148.081 301.021 148.08C301.02 148.079 301.019 148.077 301.018 148.075Z" fill="#D0FFDA"/>
<path d="M298.468 102.345L259.765 122.284C259.523 122.196 259.23 122.315 259.23 122.501L259.23 170.544C259.23 170.732 259.53 170.851 259.772 170.758L298.476 148.836C298.59 148.792 298.661 148.71 298.661 148.621L298.661 102.562C298.661 102.471 298.587 102.388 298.468 102.345Z" fill="#56C175" stroke="#181A3D" stroke-width="0.461263"/>
<path d="M291.13 117.224L268.411 130.236C268.296 130.196 268.158 130.251 268.158 130.337L268.219 152.077C268.219 152.164 268.36 152.219 268.475 152.176L291.134 139.841C291.188 139.821 291.221 139.783 291.221 139.742L291.221 117.325C291.221 117.283 291.186 117.244 291.13 117.224Z" fill="#98DABA" stroke="#181A3D" stroke-width="0.461263"/>
<path d="M258.734 168.698C258.587 168.133 256.968 163.566 256.968 163.566L253.094 163.566L254.633 169.505L258.734 168.698Z" fill="white" stroke="#181A3D" stroke-width="0.461263"/>
<path d="M258.734 172.441C258.624 172.978 257.742 177.788 257.742 177.788L254.767 179.927L255.758 174.045L258.734 172.441Z" fill="#56C175" stroke="#181A3D" stroke-width="0.461263"/>
<path d="M258.734 168.698L258.734 172.976L255.058 174.697L254.888 169.531L258.734 168.698Z" fill="#D0FFDA" stroke="#181A3D" stroke-width="0.461263"/>
<path d="M250.946 178.27L249.708 173.565L249.468 166.295L250.392 161.504C250.393 161.501 250.394 161.498 250.395 161.496C250.396 161.494 250.4 161.492 250.4 161.492L254.023 163.568C254.023 163.568 254.027 163.569 254.029 163.571C254.03 163.573 254.032 163.576 254.033 163.579L255.47 169.21L255.649 174.627L254.587 180.345C254.586 180.348 254.585 180.351 254.583 180.353C254.582 180.355 254.578 180.357 254.578 180.357L250.955 178.281C250.955 178.281 250.951 178.28 250.95 178.278C250.948 178.276 250.947 178.273 250.946 178.27Z" fill="white" stroke="#181A3D" stroke-width="0.461263"/>
<path d="M252.175 176.526L251.442 173.995L251.313 170.08L251.877 167.498C251.877 167.496 251.878 167.495 251.879 167.493C251.88 167.492 251.881 167.492 251.882 167.492L252.865 167.454C252.866 167.454 252.868 167.454 252.869 167.455C252.87 167.456 252.871 167.458 252.871 167.46L253.722 170.489L253.818 173.405L253.17 176.487C253.169 176.489 253.168 176.491 253.167 176.492C253.166 176.493 253.165 176.494 253.164 176.494L252.181 176.532C252.179 176.532 252.178 176.531 252.177 176.53C252.177 176.529 252.176 176.528 252.175 176.526Z" fill="#D0FFDA"/>
<path fill-rule="evenodd" clip-rule="evenodd" d="M141.476 247.986L145.82 250.446L145.82 204.837L100.754 179.317L100.754 183.949L96.4102 181.489L96.4102 227.098L141.476 252.618L141.476 247.986ZM145.169 249.328L145.169 205.216L101.406 180.435L101.406 184.318L141.476 207.008L141.476 247.237L145.169 249.328ZM100.754 184.697L97.0618 182.607L97.0618 226.718L140.825 251.5L140.825 247.617L100.754 224.926L100.754 184.697ZM101.406 185.066L101.406 224.546L140.825 246.868L140.825 207.388L101.406 185.066Z" fill="#181A3D"/>
<path d="M141.561 247.361L100.755 225.054L97.1795 227.097L141.383 252.008L141.561 247.361Z" fill="white" stroke="#181A3D" stroke-width="0.223192"/>
<path d="M100.642 224.862L100.642 196.776L97.0646 195.754L97.0646 226.906L100.642 224.862Z" fill="white" stroke="#181A3D" stroke-width="0.223192"/>
<path d="M145.597 250.308L145.597 205.741L141.7 207.689L141.7 252.256L145.597 250.308Z" fill="#181A3D" stroke="#181A3D" stroke-width="0.446384"/>
<path d="M101.297 224.383C101.351 224.355 101.421 224.376 101.452 224.43C101.482 224.485 101.463 224.553 101.408 224.582L101.297 224.383ZM96.5649 227.146C96.5103 227.174 96.4409 227.153 96.4102 227.098C96.3794 227.043 96.3988 226.976 96.4537 226.947L96.5649 227.146ZM101.408 224.582L96.5649 227.146L96.4537 226.947L101.297 224.383L101.408 224.582Z" fill="#2568FE"/>
<path d="M222.217 100.746C222.102 100.675 222.032 100.541 222.032 100.397L222.032 99.3968C222.032 99.2516 222.104 99.1174 222.219 99.0456L260.007 77.8454C260.119 77.776 260.257 77.7763 260.37 77.8463L298.475 100.324C298.589 100.395 298.661 100.529 298.661 100.673L298.661 101.672C298.661 101.818 298.587 101.954 298.47 102.024L259.856 123.126C259.744 123.194 259.607 123.192 259.496 123.123L222.217 100.746Z" fill="#BECEE9"/>
<path d="M222.217 100.746L222.328 100.533M222.217 100.746C222.102 100.675 222.032 100.541 222.032 100.397L222.032 99.3968C222.032 99.2516 222.104 99.1174 222.219 99.0456L260.007 77.8454C260.119 77.776 260.257 77.7763 260.37 77.8463L298.475 100.324C298.589 100.395 298.661 100.529 298.661 100.673L298.661 101.672C298.661 101.818 298.587 101.954 298.47 102.024L259.856 123.126C259.744 123.194 259.607 123.192 259.496 123.123L222.217 100.746Z" stroke="#181A3D" stroke-width="0.461263"/>
<path d="M242.558 91.8998L266.099 105.484C266.216 105.455 266.36 105.493 266.358 105.553L265.815 110.361C265.364 110.429 265.388 110.932 265.273 110.904L242.558 97.8308C242.503 97.8169 242.468 97.7907 242.468 97.7621L242.468 91.9684C242.468 91.9398 242.502 91.9136 242.558 91.8998Z" fill="#181A3D" stroke="#181A3D" stroke-width="0.461263"/>
<path d="M279.297 97.7183L265.521 105.483C265.407 105.456 265.272 105.493 265.272 105.55L265.272 110.827C265.272 110.886 265.413 110.922 265.526 110.894L279.303 103.054C279.357 103.04 279.39 103.015 279.39 102.987L279.39 97.7863C279.39 97.7577 279.354 97.7314 279.297 97.7183Z" fill="#C0E4FF" stroke="#181A3D" stroke-width="0.461263"/>
<path d="M279.3 97.1598C279.355 97.174 279.39 97.2008 279.39 97.2296L279.39 97.4292C279.39 97.458 279.355 97.4848 279.3 97.4989L265.455 105.463C265.401 105.477 265.335 105.477 265.281 105.464L242.558 92.0694C242.502 92.0553 242.468 92.0285 242.468 91.9995L242.468 91.8C242.468 91.771 242.502 91.7444 242.558 91.73L256.593 83.7656C256.647 83.7517 256.713 83.7519 256.767 83.7657L279.3 97.1598Z" fill="white" stroke="#181A3D" stroke-width="0.461263"/>
<path d="M241.472 96.7864L264.73 109.818C264.847 109.789 264.99 109.827 264.989 109.887L264.73 112.532C264.278 112.601 264.302 113.104 264.187 113.075L241.382 100.044C241.326 100.03 241.292 100.004 241.292 99.9756L241.382 96.855C241.382 96.8264 241.416 96.8002 241.472 96.7864Z" fill="white" stroke="#181A3D" stroke-width="0.461263"/>
<path d="M287.985 97.7183L264.435 109.826C264.321 109.8 264.186 109.837 264.186 109.894L264.186 112.999C264.186 113.057 264.327 113.094 264.44 113.066L287.991 100.882C288.044 100.868 288.077 100.843 288.077 100.815L288.077 97.7863C288.077 97.7577 288.042 97.7314 287.985 97.7183Z" fill="#C0E4FF" stroke="#181A3D" stroke-width="0.461263"/>
<path d="M258.389 86.9473L226.113 52.5186L214.636 56.1701L247.948 92.1681L258.389 86.9473Z" fill="#EBF4FB" stroke="#181A3D" stroke-width="0.446384"/>
<path d="M216.111 57.6367L244.782 90.095L248.21 92.0321L216.517 56.2158L216.111 57.6367Z" fill="white" stroke="#181A3D" stroke-width="0.446384"/>
<path d="M288.077 97.2981C288.132 97.3123 288.167 97.339 288.167 97.3678L288.167 97.5674C288.167 97.5962 288.132 97.623 288.077 97.6372L264.458 109.945C264.405 109.959 264.338 109.959 264.284 109.946L241.561 96.5514C241.506 96.5372 241.472 96.5104 241.472 96.4815L241.472 96.2819C241.472 96.2529 241.506 96.2263 241.561 96.212L264.186 83.7552C264.24 83.7413 264.307 83.7415 264.36 83.7554L288.077 97.2981Z" fill="white" stroke="#181A3D" stroke-width="0.461263"/>
<path d="M252.148 89.3816L266.265 81.7801L269.523 90.4676L254.781 98.5224L252.148 89.3816Z" fill="white" stroke="#181A3D" stroke-width="0.461263"/>
<path d="M214.234 59.8648L229.437 51.1241L229.437 31.6306L214.234 40.5496L214.234 59.8648Z" fill="#EBF4FB" stroke="#181A3D" stroke-width="0.461263" stroke-linecap="round" stroke-linejoin="round"/>
<path d="M210.976 37.5493L226.568 28.3727L229.437 29.9916L213.9 39.232L210.976 37.5493Z" fill="#EBF4FB" stroke="#181A3D" stroke-width="0.461263" stroke-linecap="round" stroke-linejoin="round"/>
<path d="M211.167 38.1609C211.127 38.1408 211.079 38.1412 211.039 38.1622C211 38.1831 210.976 38.2215 210.976 38.2629L210.976 58.2234C210.976 58.2659 211.001 58.3047 211.042 58.3255L214.042 59.8501C214.082 59.8701 214.131 59.8697 214.17 59.8486C214.209 59.8279 214.234 59.7894 214.234 59.748L214.234 39.7874C214.234 39.7451 214.208 39.7061 214.168 39.6855L211.167 38.1609Z" fill="white" stroke="#181A3D" stroke-width="0.461263" stroke-linecap="round" stroke-linejoin="round"/>
<path d="M221.835 78.3255L259.843 56.4737L259.843 7.37341L221.835 28.9486L221.835 78.3255Z" fill="#EBF4FB" stroke="#181A3D" stroke-width="0.461263" stroke-linecap="round" stroke-linejoin="round"/>
<path d="M214.234 25.4203L252.755 3.39636L259.843 7.2817L221.458 29.4587L214.234 25.4203Z" fill="#83A0D5" stroke="#181A3D" stroke-width="0.461263" stroke-linecap="round" stroke-linejoin="round"/>
<path d="M214.68 25.1512C214.587 25.1017 214.474 25.1028 214.382 25.1542C214.29 25.2056 214.234 25.2994 214.234 25.401L214.234 74.3041C214.234 74.4084 214.293 74.5035 214.387 74.5542L221.388 78.2896C221.481 78.3385 221.595 78.3376 221.687 78.2859C221.778 78.2352 221.835 78.141 221.835 78.0395L221.835 29.1361C221.835 29.0324 221.776 28.9368 221.681 28.8863L214.68 25.1512Z" fill="white" stroke="#181A3D" stroke-width="0.461263" stroke-linecap="round" stroke-linejoin="round"/>
<path d="M380.037 237.468C378.675 236.803 369.967 232.387 369.967 232.387L364.607 208.569L378.922 215.512L380.037 237.468Z" fill="white" stroke="black" stroke-width="0.461263"/>
<path d="M391.013 237.468C392.375 236.803 401.083 232.387 401.083 232.387L406.444 208.569L392.129 215.512L391.013 237.468Z" fill="#8D69C9" stroke="black" stroke-width="0.461263"/>
<path d="M380.038 237.422L391.028 237.422L392.303 215.511L378.923 215.511L380.038 237.422Z" fill="#99B3E7" stroke="black" stroke-width="0.461263"/>
<path d="M406.415 199.401L394.586 193.434L376.471 193.434L364.637 199.401C364.629 199.405 364.622 199.412 364.616 199.42C364.611 199.428 364.608 199.437 364.608 199.448L364.608 208.498C364.609 208.508 364.612 208.518 364.616 208.527C364.622 208.536 364.629 208.544 364.637 208.549L378.788 215.445L392.287 215.445L406.415 208.549C406.424 208.544 406.43 208.536 406.436 208.527C406.44 208.518 406.443 208.508 406.444 208.498L406.444 199.448C406.444 199.437 406.441 199.428 406.436 199.42C406.43 199.412 406.424 199.405 406.415 199.401Z" fill="white" stroke="black" stroke-width="0.461263"/>
<path d="M402.077 200.317L392.252 195.606L377.205 195.606L367.375 200.317C367.368 200.319 367.361 200.325 367.357 200.331C367.353 200.338 367.352 200.345 367.35 200.353L367.35 207.498C367.352 207.506 367.353 207.513 367.357 207.521C367.361 207.528 367.368 207.534 367.375 207.538L379.129 212.981L390.341 212.981L402.077 207.538C402.084 207.534 402.089 207.528 402.095 207.521C402.099 207.513 402.1 207.506 402.1 207.498L402.1 200.353C402.1 200.345 402.099 200.338 402.095 200.331C402.089 200.325 402.084 200.319 402.077 200.317Z" fill="#99B3E7"/>
<path d="M89.1042 185.67L135.643 210.278C135.958 210.106 136.342 210.333 136.34 210.689L136.475 219.429C136.472 219.785 136.083 220.007 135.771 219.83L89.0977 192.771C88.951 192.687 88.8606 192.533 88.8606 192.366L88.8606 186.078C88.8606 185.908 88.9538 185.751 89.1042 185.67Z" fill="#BBAEDB"/>
<path d="M89.1042 185.67L135.643 210.278C135.958 210.106 136.342 210.333 136.34 210.689L136.475 219.429C136.472 219.785 136.083 220.007 135.771 219.83L89.0977 192.771C88.951 192.687 88.8606 192.533 88.8606 192.366L88.8606 186.078C88.8606 185.908 88.9538 185.751 89.1042 185.67Z" fill="#BBAEDB"/>
<path d="M89.1042 185.67L135.643 210.278C135.958 210.106 136.342 210.333 136.34 210.689L136.475 219.429C136.472 219.785 136.083 220.007 135.771 219.83L89.0977 192.771C88.951 192.687 88.8606 192.533 88.8606 192.366L88.8606 186.078C88.8606 185.908 88.9538 185.751 89.1042 185.67Z" fill="#BBAEDB"/>
<path d="M89.1042 185.67L135.643 210.278C135.958 210.106 136.342 210.333 136.34 210.689L136.475 219.429C136.472 219.785 136.083 220.007 135.771 219.83L89.0977 192.771C88.951 192.687 88.8606 192.533 88.8606 192.366L88.8606 186.078C88.8606 185.908 88.9538 185.751 89.1042 185.67Z" stroke="#181A3D" stroke-width="0.461263"/>
<path fill-rule="evenodd" clip-rule="evenodd" d="M243.602 189.414L247.898 191.838L247.898 146.904L203.327 121.763L203.327 126.326L199.031 123.903L199.031 168.836L243.602 193.977L243.602 189.414ZM247.253 190.737L247.253 147.278L203.971 122.864L203.971 126.689L243.602 149.044L243.602 188.677L247.253 190.737ZM203.327 127.064L199.675 125.004L199.675 168.462L242.957 192.876L242.957 189.051L203.327 166.696L203.327 127.064ZM203.971 127.427L203.971 166.322L242.957 188.313L242.957 149.418L203.971 127.427Z" fill="#181A3D"/>
<path d="M243.656 188.91L205.426 167.069L205.18 171.348L243.41 193.189L243.656 188.91Z" fill="#181A3D" stroke="#181A3D" stroke-width="0.446384"/>
<path d="M247.675 191.699L247.675 147.8L243.825 149.717L243.825 193.617L247.675 191.699Z" fill="#181A3D" stroke="#181A3D" stroke-width="0.446384"/>
<path d="M205.722 120.2L88.8622 185.415C88.5505 185.249 135.715 210.631 135.715 210.631L135.715 219.424C135.715 219.782 136.1 220.007 136.411 219.832L186.159 191.836C186.306 191.753 250.501 155.077 250.501 154.908L251.047 145.804C249.958 145.261 205.874 120.281 205.722 120.2Z" fill="#917DC1" stroke="#181A3D" stroke-width="0.461263"/>
<path d="M196.824 129.128L219.55 141.89C219.663 141.863 219.801 141.899 219.8 141.955L219.276 146.472C218.84 146.537 218.863 147.009 218.752 146.982L196.824 134.7C196.77 134.687 196.737 134.662 196.737 134.635L196.737 129.192C196.737 129.165 196.77 129.141 196.824 129.128Z" fill="white" stroke="#181A3D" stroke-width="0.461263"/>
<path d="M250.756 145.752L136.509 210.439C136.195 210.267 135.81 210.495 135.813 210.85L135.805 219.377C135.808 219.733 136.197 219.955 136.509 219.778L250.147 154.713C250.294 154.63 250.384 154.475 250.384 154.308L251 146.161C251 145.991 250.907 145.834 250.756 145.752Z" fill="#181A3D" stroke="#181A3D" stroke-width="0.461263"/>
<path d="M234.582 134.336L220.061 141.783C219.942 141.758 219.8 141.794 219.8 141.848L219.8 146.91C219.8 146.966 219.948 147.001 220.067 146.974L234.588 139.453C234.644 139.44 234.679 139.416 234.679 139.389L234.679 134.401C234.679 134.373 234.642 134.348 234.582 134.336Z" fill="#181A3D" stroke="#181A3D" stroke-width="0.461263"/>
<path d="M234.587 134.26C234.644 134.274 234.679 134.301 234.679 134.329L234.679 134.528C234.679 134.556 234.644 134.583 234.587 134.597L220.359 142.509C220.304 142.523 220.236 142.523 220.18 142.509L196.829 129.203C196.772 129.189 196.737 129.163 196.737 129.134L196.737 128.936C196.737 128.907 196.772 128.88 196.829 128.866L211.253 120.954C211.308 120.94 211.376 120.941 211.431 120.954L234.587 134.26Z" fill="#BBAEDB" stroke="#181A3D" stroke-width="0.461263"/>
<line y1="-0.223192" x2="132.27" y2="-0.223192" transform="matrix(-0.870257 0.492598 0.492598 0.870257 251.155 145.653)" stroke="#181A3D" stroke-width="0.446384"/>
<path d="M262.851 82.2574L266.67 82.7038L252.485 88.9532L250.303 88.0604L262.851 82.2574Z" fill="#222233" stroke="#181A3D" stroke-width="0.446384"/>
<path d="M230.356 61.1052L253.11 48.061C253.2 48.0019 253.279 48.046 253.279 48.1567L253.279 53.3008C253.279 53.3974 253.218 53.5119 253.138 53.5635L230.384 66.6077C230.294 66.6668 230.215 66.6227 230.215 66.512L230.215 61.3679C230.215 61.2712 230.276 61.1568 230.356 61.1052Z" fill="#BECEE9"/>
<path d="M250.303 88.9531L252.261 89.7313L254.023 98.6248L252.261 96.9572L250.303 88.9531Z" fill="#56C175" stroke="#181A3D" stroke-width="0.446384"/>
<path d="M271.788 91.3568L254.525 100.524L265.384 107.111L282.648 97.9436L271.788 91.3568Z" fill="#222233"/>
<path d="M480.704 145.91L434.722 119.514C434.425 119.343 434.062 119.569 434.064 119.924L434.971 276.716C434.973 277.072 435.34 277.293 435.635 277.116L480.711 250.176C480.849 250.093 480.934 249.94 480.934 249.774L480.934 146.316C480.934 146.147 480.845 145.992 480.704 145.91Z" fill="#181A3D" stroke="#181A3D" stroke-width="0.461263"/>
<path d="M388.166 144.528L434.172 118.024C434.46 117.858 434.808 118.083 434.808 118.435L434.808 276.711C434.808 277.068 434.451 277.292 434.163 277.118L388.158 249.141C388.022 249.058 387.938 248.902 387.938 248.734L387.938 144.939C387.938 144.766 388.026 144.608 388.166 144.528Z" fill="#5EBE7A" stroke="#181A3D" stroke-width="0.461263"/>
<path d="M388.905 145.758C388.767 145.673 388.682 145.515 388.682 145.344L388.682 144.158C388.682 143.987 388.767 143.829 388.905 143.744L434.352 115.798L388.905 145.758ZM388.905 145.758L434.352 115.798L388.905 145.758ZM388.905 145.758L434.352 173.703C434.487 173.786 434.652 173.787 434.788 173.705L480.709 145.758C480.848 145.674 480.934 145.515 480.934 145.343L480.934 144.159C480.934 143.987 480.848 143.828 480.709 143.744L434.788 115.797C434.652 115.715 434.487 115.716 434.352 115.798L388.905 145.758ZM388.905 145.758L434.485 116.051L434.352 115.798" fill="#F3FFF6"/>
<path d="M388.905 145.758L434.485 116.051L434.352 115.798M388.905 145.758C388.767 145.673 388.682 145.515 388.682 145.344L388.682 144.158C388.682 143.987 388.767 143.829 388.905 143.744L434.352 115.798L388.905 145.758ZM388.905 145.758L434.352 115.798L388.905 145.758ZM388.905 145.758L434.352 173.703C434.487 173.786 434.652 173.787 434.788 173.705L480.709 145.758C480.848 145.674 480.934 145.515 480.934 145.343L480.934 144.159C480.934 143.987 480.848 143.828 480.709 143.744L434.788 115.797C434.652 115.715 434.487 115.716 434.352 115.798L388.905 145.758Z" stroke="#181A3D" stroke-width="0.461263"/>
<path d="M480.704 134.869L434.722 108.355C434.424 108.183 434.061 108.411 434.064 108.767L435.02 215.71C435.023 216.063 435.384 216.284 435.678 216.114L480.704 190.07C480.846 189.989 480.934 189.833 480.934 189.663L480.934 135.278C480.934 135.108 480.845 134.951 480.704 134.869Z" fill="#181A3D" stroke="#181A3D" stroke-width="0.461263"/>
<path d="M388.905 130.853C388.767 130.77 388.682 130.616 388.682 130.449L388.682 129.294C388.682 129.127 388.767 128.973 388.905 128.89L434.352 101.661L388.905 130.853ZM388.905 130.853L434.352 101.661L388.905 130.853ZM388.905 130.853L434.352 158.081C434.487 158.162 434.652 158.163 434.788 158.083L480.709 130.853C480.848 130.771 480.934 130.616 480.934 130.449L480.934 129.295C480.934 129.127 480.848 128.972 480.709 128.89L434.788 101.66C434.652 101.58 434.487 101.581 434.352 101.661L388.905 130.853ZM388.905 130.853L434.485 101.907L434.352 101.661" fill="#F3FFF6"/>
<path d="M388.905 130.853L434.485 101.907L434.352 101.661M388.905 130.853C388.767 130.77 388.682 130.616 388.682 130.449L388.682 129.294C388.682 129.127 388.767 128.973 388.905 128.89L434.352 101.661L388.905 130.853ZM388.905 130.853L434.352 101.661L388.905 130.853ZM388.905 130.853L434.352 158.081C434.487 158.162 434.652 158.163 434.788 158.083L480.709 130.853C480.848 130.771 480.934 130.616 480.934 130.449L480.934 129.295C480.934 129.127 480.848 128.972 480.709 128.89L434.788 101.66C434.652 101.58 434.487 101.581 434.352 101.661L388.905 130.853Z" stroke="#181A3D" stroke-width="0.461263"/>
<path d="M480.704 100.753L434.721 74.1322C434.424 73.9599 434.061 74.1892 434.064 74.547L434.895 159.167C434.899 159.52 435.259 159.742 435.553 159.572L480.704 133.477C480.845 133.396 480.934 133.238 480.934 133.067L480.934 101.163C480.934 100.992 480.845 100.836 480.704 100.753Z" fill="#181A3D" stroke="#181A3D" stroke-width="0.461263"/>
<path d="M480.712 102L480.578 101.753L480.712 102C480.849 101.917 480.934 101.763 480.934 101.595L480.934 100.434C480.934 100.265 480.848 100.11 480.709 100.026L434.788 72.646C434.652 72.5654 434.487 72.5658 434.352 72.647L388.905 100.027C388.767 100.111 388.682 100.265 388.682 100.433L388.682 101.592C388.682 101.763 388.77 101.92 388.911 102.002L435.539 129.07C435.674 129.149 435.837 129.147 435.971 129.066L480.712 102Z" fill="#AAE1BA"/>
<path d="M480.712 102L480.578 101.753L480.712 102ZM480.712 102C480.849 101.917 480.934 101.763 480.934 101.595L480.934 100.434C480.934 100.265 480.848 100.11 480.709 100.026L434.788 72.646C434.652 72.5654 434.487 72.5658 434.352 72.647L388.905 100.027C388.767 100.111 388.682 100.265 388.682 100.433L388.682 101.592C388.682 101.763 388.77 101.92 388.911 102.002L435.539 129.07C435.674 129.149 435.837 129.147 435.971 129.066L480.712 102Z" stroke="#181A3D" stroke-width="0.461263"/>
<path d="M427.368 205.787L423.648 204.68L423.648 226.826L427.368 228.487L427.368 205.787Z" fill="#181A3D"/>
<path d="M429.41 204.464L427.238 203.378L423.98 204.464L427.238 205.748L429.41 204.464Z" fill="#181A3D"/>
<path d="M429.6 204.68L427.368 205.672L427.368 207.655L429.6 206.663L429.6 204.68Z" fill="#AAE1BA"/>
<path d="M429.6 224.767L427.368 226.007L427.368 228.487L429.6 227.247L429.6 224.767Z" fill="#AAE1BA"/>
<path d="M429.6 224.767L426.624 224.767L426.624 226.255L428.608 225.263L429.6 224.767Z" fill="#181A3D"/>
<path d="M403.949 168.501L405.696 169.302C405.85 169.302 405.998 169.218 406.107 169.067C406.217 168.917 406.278 168.713 406.278 168.501L406.278 166.899L407.443 167.7C407.597 167.7 407.745 167.615 407.854 167.465C407.963 167.315 408.025 167.111 408.025 166.899L408.025 164.495C408.025 164.283 407.963 164.079 407.854 163.929C407.745 163.778 407.597 163.694 407.443 163.694L406.278 162.893L406.278 160.89C406.278 160.677 406.217 160.474 406.107 160.323C405.998 160.173 405.85 160.089 405.696 160.088L403.949 158.887C403.795 158.887 403.647 158.971 403.538 159.121C403.429 159.272 403.367 159.475 403.367 159.688L403.367 161.29L401.911 160.088C401.757 160.089 401.609 160.173 401.5 160.323C401.391 160.474 401.329 160.677 401.329 160.89L401.329 163.293C401.329 163.506 401.391 163.709 401.5 163.859C401.609 164.01 401.757 164.094 401.911 164.094L403.367 165.296L403.367 167.7C403.367 167.912 403.429 168.116 403.538 168.266C403.647 168.416 403.795 168.501 403.949 168.501ZM407.443 164.495L407.443 166.899L405.734 165.897L405.696 168.501L403.949 167.7L403.949 164.896L401.911 163.293L401.911 160.89L403.949 162.492L403.949 159.688L405.696 160.89L405.696 163.293L407.443 164.495Z" fill="white"/>
<path d="M252.535 23.4835L230.215 36.5562L230.215 44.1819L236.219 40.9137L238.139 34.9766C238.231 34.7953 238.374 34.6428 238.55 34.5362C238.727 34.4296 238.93 34.3731 239.138 34.3731C239.345 34.3731 239.548 34.4296 239.725 34.5362C239.901 34.6428 240.044 34.7953 240.136 34.9766L242.491 39.5629L244.846 34.9766C245.024 34.6062 245.415 34.3774 245.839 34.3774L252.535 31.1092L252.535 23.4835Z" fill="#222233"/>
<path d="M239.143 37.907L237.904 42.4934C237.726 42.8637 237.335 43.0925 236.911 43.0925L230.215 46.3607L230.215 53.9864L252.535 42.0031L252.535 33.288L246.531 36.5562L243.484 42.4934C243.306 42.8637 242.915 43.0925 242.491 43.0925C242.067 43.0925 241.676 42.8637 241.498 42.4934L239.143 37.907Z" fill="#222233"/>
<path fill-rule="evenodd" clip-rule="evenodd" d="M302.895 246.461C302.895 246.347 303.015 246.275 303.115 246.327L305.056 245.329C305.106 245.354 305.137 245.406 305.137 245.463L305.137 281.286C305.137 281.4 305.018 281.473 304.917 281.421L302.977 282.624C302.926 282.598 302.895 282.546 302.895 282.49L302.895 246.461Z" fill="#181A3D" stroke="#181A3D" stroke-width="0.461263"/>
<path fill-rule="evenodd" clip-rule="evenodd" d="M302.895 254.532C302.895 254.419 303.015 254.346 303.115 254.398L305.056 253.4C305.106 253.426 305.137 253.478 305.137 253.535L305.137 296.533C305.137 296.646 305.018 296.719 304.917 296.667L302.977 297.87C302.926 297.844 302.895 297.792 302.895 297.736L302.895 254.532Z" fill="#181A3D" stroke="#181A3D" stroke-width="0.461263"/>
<path fill-rule="evenodd" clip-rule="evenodd" d="M300.205 250.861C300.205 250.747 300.324 250.675 300.424 250.727L302.412 251.963C302.462 251.988 302.494 252.041 302.494 252.097L302.494 297.991C302.494 298.104 302.374 298.177 302.273 298.125L300.286 296.889C300.236 296.863 300.205 296.811 300.205 296.755L300.205 250.861Z" fill="#56C175" stroke="#181A3D" stroke-width="0.461263"/>
<path fill-rule="evenodd" clip-rule="evenodd" d="M325.316 251.842C325.316 251.728 325.436 251.656 325.536 251.708L327.477 250.71C327.527 250.735 327.558 250.787 327.558 250.844L327.558 293.842C327.558 293.955 327.439 294.029 327.338 293.977L325.398 295.18C325.347 295.153 325.316 295.102 325.316 295.045L325.316 251.842Z" fill="#181A3D" stroke="#181A3D" stroke-width="0.461263"/>
<path fill-rule="evenodd" clip-rule="evenodd" d="M325.316 267.088C325.316 266.975 325.436 266.902 325.536 266.954L327.477 265.956C327.527 265.982 327.558 266.034 327.558 266.09L327.558 309.088C327.558 309.202 327.439 309.275 327.338 309.223L325.398 310.426C325.347 310.4 325.316 310.348 325.316 310.291L325.316 267.088Z" fill="#181A3D" stroke="#181A3D" stroke-width="0.461263"/>
<path fill-rule="evenodd" clip-rule="evenodd" d="M322.626 263.416C322.626 263.303 322.745 263.23 322.846 263.282L324.833 264.518C324.883 264.544 324.915 264.596 324.915 264.653L324.915 310.546C324.915 310.66 324.795 310.733 324.694 310.681L322.707 309.445C322.657 309.418 322.626 309.367 322.626 309.31L322.626 263.416Z" fill="#AAE1BA" stroke="#181A3D" stroke-width="0.461263"/>
<path fill-rule="evenodd" clip-rule="evenodd" d="M304.689 262.604C304.689 262.49 304.808 262.418 304.909 262.47L306.849 261.472C306.899 261.497 306.931 261.55 306.931 261.606L306.931 304.604C306.931 304.717 306.812 304.791 306.71 304.739L304.77 305.942C304.72 305.915 304.689 305.864 304.689 305.807L304.689 262.604Z" fill="#181A3D" stroke="#181A3D" stroke-width="0.461263"/>
<path fill-rule="evenodd" clip-rule="evenodd" d="M304.689 277.85C304.689 277.737 304.808 277.664 304.909 277.716L306.849 276.718C306.899 276.744 306.931 276.796 306.931 276.852L306.931 319.85C306.931 319.964 306.812 320.037 306.71 319.985L304.77 321.188C304.72 321.162 304.689 321.11 304.689 321.054L304.689 277.85Z" fill="#181A3D" stroke="#181A3D" stroke-width="0.461263"/>
<path fill-rule="evenodd" clip-rule="evenodd" d="M301.998 268.797C301.998 268.684 302.118 268.611 302.218 268.664L304.206 269.9C304.256 269.925 304.287 269.977 304.287 270.034L304.287 321.308C304.287 321.422 304.168 321.495 304.067 321.443L302.08 320.207C302.029 320.181 301.998 320.129 301.998 320.072L301.998 268.797Z" fill="#56C175" stroke="#181A3D" stroke-width="0.461263"/>
<path fill-rule="evenodd" clip-rule="evenodd" d="M284.062 265.294C284.062 265.181 284.181 265.108 284.281 265.16L286.222 264.162C286.272 264.188 286.304 264.24 286.304 264.297L286.304 309.088C286.304 309.202 286.184 309.275 286.083 309.223L284.143 310.426C284.093 310.399 284.062 310.348 284.062 310.291L284.062 265.294Z" fill="#181A3D" stroke="#181A3D" stroke-width="0.461263"/>
<path fill-rule="evenodd" clip-rule="evenodd" d="M281.371 263.416C281.371 263.303 281.49 263.23 281.591 263.282L283.579 264.518C283.628 264.544 283.66 264.596 283.66 264.653L283.66 310.546C283.66 310.66 283.541 310.733 283.44 310.681L281.453 309.445C281.402 309.418 281.371 309.367 281.371 309.31L281.371 263.416Z" fill="#56C175" stroke="#181A3D" stroke-width="0.461263"/>
<path fill-rule="evenodd" clip-rule="evenodd" d="M311.024 249.409C311.048 249.409 311.072 249.415 311.094 249.427L325.824 257.037C325.875 257.064 325.906 257.115 325.906 257.172L325.906 264.657C325.906 264.714 325.875 264.766 325.824 264.792L311.094 272.403C311.072 272.414 311.048 272.42 311.024 272.42L296.253 272.42C296.229 272.42 296.204 272.414 296.183 272.403L281.453 264.792C281.402 264.766 281.371 264.714 281.371 264.657L281.371 257.172C281.371 257.115 281.402 257.064 281.453 257.037L296.183 249.427C296.204 249.415 296.229 249.409 296.253 249.409L311.024 249.409Z" fill="#56C175" stroke="#181A3D" stroke-width="0.461263"/>
<path d="M310.906 264.744L296.363 264.744C296.279 264.744 296.212 264.812 296.212 264.895L296.212 272.263C296.212 272.346 296.279 272.414 296.363 272.414L310.906 272.414C310.989 272.414 311.057 272.346 311.057 272.263L311.057 264.895C311.057 264.812 310.989 264.744 310.906 264.744Z" fill="#AAE1BA" stroke="#181A3D" stroke-width="0.461263"/>
<path fill-rule="evenodd" clip-rule="evenodd" d="M281.371 257.325C281.371 257.212 281.49 257.139 281.591 257.191L296.134 264.705C296.184 264.731 296.216 264.783 296.216 264.84L296.216 272.169C296.216 272.282 296.096 272.356 295.995 272.303L281.453 264.79C281.402 264.763 281.371 264.712 281.371 264.655L281.371 257.325Z" fill="#56C175" stroke="#181A3D" stroke-width="0.461263"/>
<path fill-rule="evenodd" clip-rule="evenodd" d="M310.967 201.535C310.967 201.421 311.086 201.349 311.187 201.401L325.73 208.915C325.78 208.94 325.811 208.992 325.811 209.049L325.811 252.252C325.811 252.365 325.692 252.439 325.591 252.386L311.048 244.873C310.998 244.846 310.967 244.795 310.967 244.738L310.967 201.535Z" fill="#AAE1BA" stroke="#181A3D" stroke-width="0.461263"/>
<path fill-rule="evenodd" clip-rule="evenodd" d="M325.316 208.709C325.316 208.596 325.436 208.523 325.536 208.576L327.477 207.577C327.527 207.603 327.558 207.655 327.558 207.712L327.558 250.71C327.558 250.823 327.439 250.896 327.338 250.844L325.398 252.047C325.347 252.021 325.316 251.97 325.316 251.913L325.316 208.709Z" fill="#181A3D" stroke="#181A3D" stroke-width="0.461263"/>
<path fill-rule="evenodd" clip-rule="evenodd" d="M325.157 208.466C325.257 208.519 325.377 208.448 325.379 208.335L327.637 207.349C327.638 207.292 327.607 207.24 327.557 207.213L313.209 200.038C313.109 199.985 312.988 200.055 312.986 200.169L311.009 201.311C311.009 201.368 311.04 201.42 311.09 201.447L325.157 208.466Z" fill="#D0FFDA" stroke="#181A3D" stroke-width="0.461263"/>
<path fill-rule="evenodd" clip-rule="evenodd" d="M311.024 244.432C311.048 244.432 311.072 244.438 311.094 244.449L325.824 252.06C325.875 252.086 325.906 252.137 325.906 252.194L325.906 259.68C325.906 259.737 325.875 259.789 325.824 259.815L311.094 267.426C311.072 267.436 311.048 267.442 311.024 267.442L296.253 267.442C296.229 267.442 296.204 267.436 296.183 267.426L281.453 259.815C281.402 259.789 281.371 259.737 281.371 259.68L281.371 252.194C281.371 252.137 281.402 252.086 281.453 252.06L296.183 244.449C296.204 244.438 296.229 244.432 296.253 244.432L311.024 244.432Z" fill="white" stroke="#181A3D" stroke-width="0.461263"/>
<path d="M258.016 232.14L292.542 237.877C292.684 237.79 292.859 237.905 292.858 238.086L292.642 273.211C292.642 273.393 292.465 273.506 292.323 273.416L258.012 254.131C257.946 254.089 257.905 254.01 257.905 253.925L257.905 232.348C257.905 232.261 257.947 232.181 258.016 232.14Z" fill="#84A1D6" stroke="#181A3D" stroke-width="0.461263"/>
<path d="M314.986 239.766L292.541 252.249C292.397 252.197 292.222 252.268 292.222 252.378L292.222 273.301C292.222 273.413 292.401 273.483 292.546 273.428L314.99 260.401C315.059 260.375 315.101 260.327 315.101 260.274L315.101 239.895C315.101 239.841 315.056 239.791 314.986 239.766Z" fill="#385C9C" stroke="#181A3D" stroke-width="0.461263"/>
<path d="M258.015 232.701C257.947 232.659 257.905 232.581 257.905 232.496L257.905 231.907C257.905 231.821 257.948 231.742 258.016 231.7L279.923 220.095C279.989 220.054 280.071 220.055 280.137 220.096L314.991 239.022C315.058 239.065 315.101 239.143 315.101 239.228L315.101 239.816C315.101 239.902 315.057 239.982 314.988 240.024L292.152 252.446C292.086 252.486 292.006 252.485 291.94 252.444L258.015 232.701Z" fill="#181A3D"/>
<path d="M258.015 232.701L258.081 232.576M258.015 232.701C257.947 232.659 257.905 232.581 257.905 232.496L257.905 231.907C257.905 231.821 257.948 231.742 258.016 231.7L279.923 220.095C279.989 220.054 280.071 220.055 280.137 220.096L314.991 239.022C315.058 239.065 315.101 239.143 315.101 239.228L315.101 239.816C315.101 239.902 315.057 239.982 314.988 240.024L292.152 252.446C292.086 252.486 292.006 252.485 291.94 252.444L258.015 232.701Z" stroke="#181A3D" stroke-width="0.461263"/>
<path fill-rule="evenodd" clip-rule="evenodd" d="M291.488 226.11C291.505 226.11 291.522 226.115 291.537 226.123L301.906 231.48C301.941 231.498 301.963 231.535 301.963 231.574L301.963 236.844C301.963 236.884 301.941 236.92 301.906 236.938L291.537 242.296C291.522 242.303 291.505 242.308 291.488 242.308L281.09 242.308C281.073 242.308 281.056 242.303 281.041 242.296L270.673 236.938C270.637 236.92 270.615 236.884 270.615 236.844L270.615 231.574C270.615 231.535 270.637 231.498 270.673 231.48L281.041 226.123C281.056 226.115 281.073 226.11 281.09 226.11L291.488 226.11Z" fill="white" stroke="#181A3D" stroke-width="0.461263"/>
<path d="M291.405 236.904L281.168 236.904C281.109 236.904 281.061 236.952 281.061 237.011L281.061 242.197C281.061 242.256 281.109 242.303 281.168 242.303L291.405 242.303C291.463 242.303 291.511 242.256 291.511 242.197L291.511 237.011C291.511 236.952 291.463 236.904 291.405 236.904Z" fill="#6F8BBE" stroke="#181A3D" stroke-width="0.461263"/>
<path fill-rule="evenodd" clip-rule="evenodd" d="M270.615 231.682C270.615 231.603 270.699 231.552 270.77 231.588L281.007 236.877C281.042 236.895 281.064 236.932 281.064 236.972L281.064 242.131C281.064 242.211 280.98 242.262 280.909 242.226L270.673 236.937C270.637 236.918 270.615 236.882 270.615 236.842L270.615 231.682Z" fill="#405B8B" stroke="#181A3D" stroke-width="0.461263"/>
<path fill-rule="evenodd" clip-rule="evenodd" d="M291.488 222.607C291.505 222.607 291.522 222.611 291.537 222.619L301.906 227.976C301.941 227.995 301.963 228.031 301.963 228.071L301.963 233.34C301.963 233.38 301.941 233.417 301.906 233.435L291.537 238.792C291.522 238.8 291.505 238.804 291.488 238.804L281.09 238.804C281.073 238.804 281.056 238.8 281.041 238.792L270.673 233.435C270.637 233.417 270.615 233.38 270.615 233.34L270.615 228.071C270.615 228.031 270.637 227.995 270.673 227.976L281.041 222.619C281.056 222.611 281.073 222.607 281.09 222.607L291.488 222.607Z" fill="white" stroke="#181A3D" stroke-width="0.461263"/>
<path d="M283.289 253.867L262.396 242.313C262.373 242.3 262.354 242.311 262.354 242.336L262.354 251.555C262.354 251.578 262.37 251.605 262.39 251.617L283.283 263.909C283.306 263.922 283.325 263.912 283.325 263.886L283.325 253.93C283.325 253.907 283.309 253.879 283.289 253.867Z" fill="white" stroke="#181A3D" stroke-width="0.595178"/>
<path d="M285.192 253.116L283.363 254.087C283.342 254.098 283.325 254.126 283.325 254.15L283.325 263.886C283.325 263.911 283.344 263.922 283.365 263.91L285.194 262.916C285.215 262.905 285.232 262.877 285.232 262.853L285.232 253.139C285.232 253.115 285.214 253.104 285.192 253.116Z" fill="#181A3D"/>
<path d="M264.221 241.045L262.37 241.98C262.349 241.99 262.348 242.007 262.367 242.018L283.277 254.372C283.298 254.385 283.337 254.386 283.36 254.373L285.216 253.387C285.236 253.376 285.237 253.36 285.218 253.349L264.303 241.046C264.282 241.034 264.244 241.033 264.221 241.045Z" fill="white" stroke="#181A3D" stroke-width="0.595178"/>
<path d="M255.49 191.243L295.163 197.856C295.327 197.756 295.528 197.889 295.527 198.098L295.279 247.373C295.278 247.583 295.075 247.713 294.912 247.609L255.486 225.381C255.41 225.332 255.363 225.242 255.363 225.144L255.363 191.483C255.363 191.383 255.412 191.291 255.49 191.243Z" fill="#84A1D6" stroke="#181A3D" stroke-width="0.461263"/>
<path d="M321.324 200.873L294.875 214.498C294.71 214.438 294.51 214.519 294.51 214.646L294.51 247.477C294.51 247.606 294.715 247.687 294.88 247.624L321.329 232.643C321.407 232.613 321.455 232.557 321.455 232.496L321.455 201.021C321.455 200.959 321.405 200.902 321.324 200.873Z" fill="#385C9C" stroke="#181A3D" stroke-width="0.461263"/>
<path d="M255.489 192.154C255.411 192.105 255.363 192.014 255.363 191.915L255.363 191.232C255.363 191.133 255.412 191.041 255.491 190.992L280.805 177.521C280.882 177.474 280.976 177.474 281.053 177.522L321.328 199.491C321.407 199.541 321.455 199.632 321.455 199.73L321.455 200.413C321.455 200.513 321.405 200.606 321.325 200.654L294.937 215.074C294.861 215.12 294.768 215.119 294.692 215.072L255.489 192.154Z" fill="#6384BF"/>
<path d="M255.489 192.154L255.565 192.009M255.489 192.154C255.411 192.105 255.363 192.014 255.363 191.915L255.363 191.232C255.363 191.133 255.412 191.041 255.491 190.992L280.805 177.521C280.882 177.474 280.976 177.474 281.053 177.522L321.328 199.491C321.407 199.541 321.455 199.632 321.455 199.73L321.455 200.413C321.455 200.513 321.405 200.606 321.325 200.654L294.937 215.074C294.861 215.12 294.768 215.119 294.692 215.072L255.489 192.154Z" stroke="#181A3D" stroke-width="0.461263"/>
<path d="M260.67 222.351L260.67 201.011L286.661 216.506L286.661 237.346L260.67 222.351Z" fill="#B4CDFC" stroke="#181A3D" stroke-width="0.446384"/>
<path d="M261.749 221.579L260.67 222.119L260.67 201.035L261.749 201.755L261.749 221.579Z" fill="#181A3D" stroke="#181A3D" stroke-width="0.446384"/>
<path d="M286.407 235.828L286.407 237.093L260.919 222.493L261.966 221.97L286.407 235.828Z" fill="#EBF4FB" stroke="#181A3D" stroke-width="0.446384"/>
<path d="M264.26 216.125L264.26 211.041L268.581 213.328L268.581 218.921" stroke="#181A3D" stroke-width="1.48795"/>
<path d="M277.733 223.751L277.733 218.667L282.054 220.955L282.054 226.547" stroke="#181A3D" stroke-width="1.48795"/>
<path d="M270.615 220.7L271.632 222.988L273.92 221.971" stroke="#181A3D" stroke-width="0.743973"/>
<path fill-rule="evenodd" clip-rule="evenodd" d="M291.492 187.934C291.506 187.934 291.52 187.937 291.532 187.943L299.882 192.258C299.911 192.273 299.928 192.302 299.928 192.334L299.928 196.578C299.928 196.61 299.911 196.639 299.882 196.654L291.532 200.969C291.52 200.975 291.506 200.978 291.492 200.978L283.119 200.978C283.105 200.978 283.091 200.975 283.079 200.969L274.729 196.654C274.7 196.639 274.682 196.61 274.682 196.578L274.682 192.334C274.682 192.302 274.7 192.273 274.729 192.258L283.079 187.943C283.091 187.937 283.105 187.934 283.119 187.934L291.492 187.934Z" fill="white" stroke="#181A3D" stroke-width="0.461263"/>
<path d="M291.425 196.626L283.181 196.626C283.133 196.626 283.095 196.665 283.095 196.712L283.095 200.889C283.095 200.936 283.133 200.975 283.181 200.975L291.425 200.975C291.472 200.975 291.511 200.936 291.511 200.889L291.511 196.712C291.511 196.665 291.472 196.626 291.425 196.626Z" fill="#AAE1BA" stroke="#181A3D" stroke-width="0.461263"/>
<path fill-rule="evenodd" clip-rule="evenodd" d="M274.682 192.421C274.682 192.357 274.75 192.316 274.807 192.345L283.051 196.605C283.08 196.619 283.098 196.649 283.098 196.681L283.098 200.836C283.098 200.9 283.03 200.942 282.973 200.912L274.729 196.653C274.7 196.638 274.682 196.609 274.682 196.576L274.682 192.421Z" fill="#56C175" stroke="#181A3D" stroke-width="0.461263"/>
<path fill-rule="evenodd" clip-rule="evenodd" d="M291.492 185.112C291.506 185.112 291.52 185.115 291.532 185.122L299.882 189.436C299.911 189.451 299.928 189.48 299.928 189.512L299.928 193.756C299.928 193.788 299.911 193.818 299.882 193.832L291.532 198.147C291.52 198.153 291.506 198.156 291.492 198.156L283.118 198.156C283.105 198.156 283.091 198.153 283.079 198.147L274.728 193.832C274.7 193.818 274.682 193.788 274.682 193.756L274.682 189.512C274.682 189.48 274.7 189.451 274.728 189.436L283.079 185.122C283.091 185.115 283.105 185.112 283.118 185.112L291.492 185.112Z" fill="white" stroke="#181A3D" stroke-width="0.461263"/>
<path fill-rule="evenodd" clip-rule="evenodd" d="M291.492 187.934C291.506 187.934 291.52 187.937 291.532 187.943L299.882 192.258C299.911 192.273 299.928 192.302 299.928 192.334L299.928 196.578C299.928 196.61 299.911 196.639 299.882 196.654L291.532 200.969C291.52 200.975 291.506 200.978 291.492 200.978L283.119 200.978C283.105 200.978 283.091 200.975 283.079 200.969L274.729 196.654C274.7 196.639 274.682 196.61 274.682 196.578L274.682 192.334C274.682 192.302 274.7 192.273 274.729 192.258L283.079 187.943C283.091 187.937 283.105 187.934 283.119 187.934L291.492 187.934Z" fill="#6F8BBE" stroke="#181A3D" stroke-width="0.461263"/>
<path d="M291.425 196.626L283.181 196.626C283.133 196.626 283.095 196.665 283.095 196.712L283.095 200.889C283.095 200.936 283.133 200.975 283.181 200.975L291.425 200.975C291.472 200.975 291.511 200.936 291.511 200.889L291.511 196.712C291.511 196.665 291.472 196.626 291.425 196.626Z" fill="#B4CDFC" stroke="#181A3D" stroke-width="0.461263"/>
<path fill-rule="evenodd" clip-rule="evenodd" d="M274.682 192.421C274.682 192.357 274.75 192.316 274.807 192.345L283.051 196.605C283.08 196.619 283.098 196.649 283.098 196.681L283.098 200.836C283.098 200.9 283.03 200.942 282.973 200.912L274.729 196.653C274.7 196.638 274.682 196.609 274.682 196.576L274.682 192.421Z" fill="white" stroke="#181A3D" stroke-width="0.461263"/>
<path fill-rule="evenodd" clip-rule="evenodd" d="M291.492 185.112C291.506 185.112 291.52 185.115 291.532 185.122L299.882 189.436C299.911 189.451 299.928 189.48 299.928 189.512L299.928 193.756C299.928 193.788 299.911 193.818 299.882 193.832L291.532 198.147C291.52 198.153 291.506 198.156 291.492 198.156L283.118 198.156C283.105 198.156 283.091 198.153 283.079 198.147L274.728 193.832C274.7 193.818 274.682 193.788 274.682 193.756L274.682 189.512C274.682 189.48 274.7 189.451 274.728 189.436L283.079 185.122C283.091 185.115 283.105 185.112 283.118 185.112L291.492 185.112Z" fill="#CCDEFF" stroke="#181A3D" stroke-width="0.461263"/>
<path d="M305.596 219.204L305.718 229.482C305.719 229.529 305.681 229.568 305.634 229.568L301.457 227.088C301.41 227.089 301.371 227.051 301.37 227.004L301.249 221.811C301.248 221.764 301.285 221.725 301.333 221.724L305.509 219.12C305.556 219.119 305.595 219.157 305.596 219.204Z" fill="#B4CDFC"/>
<path d="M305.596 219.204L305.718 229.482C305.719 229.529 305.681 229.568 305.634 229.568L301.457 227.088C301.41 227.089 301.371 227.051 301.37 227.004L301.249 221.811C301.248 221.764 301.285 221.725 301.333 221.724L305.509 219.12C305.556 219.119 305.595 219.157 305.596 219.204Z" fill="#B4CDFC"/>
<path d="M305.596 219.204L305.718 229.482C305.719 229.529 305.681 229.568 305.634 229.568L301.457 227.088C301.41 227.089 301.371 227.051 301.37 227.004L301.249 221.811C301.248 221.764 301.285 221.725 301.333 221.724L305.509 219.12C305.556 219.119 305.595 219.157 305.596 219.204Z" stroke="#181A3D" stroke-width="0.461263"/>
<path d="M305.596 219.204L305.718 229.482C305.719 229.529 305.681 229.568 305.634 229.568L301.457 227.088C301.41 227.089 301.371 227.051 301.37 227.004L301.249 221.811C301.248 221.764 301.285 221.725 301.333 221.724L305.509 219.12C305.556 219.119 305.595 219.157 305.596 219.204Z" stroke="#181A3D" stroke-width="0.461263"/>
<path d="M308.71 211.58L304.024 220.219C304.002 220.261 303.951 220.278 303.909 220.256L301.372 221.707C301.329 221.685 301.313 221.634 301.334 221.592L306.191 212.366C306.212 212.324 306.264 212.307 306.306 212.328L308.673 211.465C308.715 211.486 308.732 211.538 308.71 211.58Z" fill="#EBF4FB"/>
<path d="M308.71 211.58L304.024 220.219C304.002 220.261 303.951 220.278 303.909 220.256L301.372 221.707C301.329 221.685 301.313 221.634 301.334 221.592L306.191 212.366C306.212 212.324 306.264 212.307 306.306 212.328L308.673 211.465C308.715 211.486 308.732 211.538 308.71 211.58Z" fill="#EBF4FB"/>
<path d="M308.71 211.58L304.024 220.219C304.002 220.261 303.951 220.278 303.909 220.256L301.372 221.707C301.329 221.685 301.313 221.634 301.334 221.592L306.191 212.366C306.212 212.324 306.264 212.307 306.306 212.328L308.673 211.465C308.715 211.486 308.732 211.538 308.71 211.58Z" stroke="#181A3D" stroke-width="0.461263"/>
<path d="M308.71 211.58L304.024 220.219C304.002 220.261 303.951 220.278 303.909 220.256L301.372 221.707C301.329 221.685 301.313 221.634 301.334 221.592L306.191 212.366C306.212 212.324 306.264 212.307 306.306 212.328L308.673 211.465C308.715 211.486 308.732 211.538 308.71 211.58Z" stroke="#181A3D" stroke-width="0.461263"/>
<path fill-rule="evenodd" clip-rule="evenodd" d="M308.638 236.917C308.702 236.916 308.742 236.847 308.712 236.791L305.741 229.611C305.726 229.583 305.697 229.565 305.664 229.566L301.51 227.085C301.446 227.086 301.405 227.154 301.436 227.211L305.308 234.883C305.323 234.912 305.353 234.929 305.385 234.928L308.638 236.917Z" fill="#6F8BBE" stroke="#181A3D" stroke-width="0.461263"/>
<path fill-rule="evenodd" clip-rule="evenodd" d="M317.108 217.951C317.108 217.937 317.104 217.923 317.098 217.911L312.661 209.626C312.645 209.597 312.616 209.58 312.584 209.58L308.34 211.677C308.308 211.677 308.279 211.695 308.265 211.724L304.074 220.137C304.068 220.15 304.065 220.163 304.065 220.177L304.189 228.55C304.189 228.564 304.193 228.577 304.199 228.589L308.636 236.875C308.651 236.903 308.681 236.921 308.713 236.92L312.957 234.824C312.989 234.823 313.018 234.805 313.032 234.776L317.223 226.363C317.229 226.351 317.232 226.337 317.232 226.324L317.108 217.951Z" fill="white" stroke="#181A3D" stroke-width="0.461263"/>
<path fill-rule="evenodd" clip-rule="evenodd" d="M315.242 219.176C315.242 219.166 315.24 219.157 315.235 219.148L312.025 213.154C312.014 213.133 311.993 213.121 311.969 213.121L308.9 214.638C308.877 214.638 308.855 214.651 308.845 214.672L305.814 220.758C305.809 220.767 305.807 220.777 305.807 220.787L305.897 226.844C305.897 226.854 305.899 226.864 305.904 226.872L309.114 232.866C309.125 232.887 309.146 232.899 309.17 232.899L312.239 231.382C312.262 231.382 312.283 231.369 312.294 231.348L315.325 225.262C315.33 225.253 315.332 225.243 315.332 225.233L315.242 219.176Z" fill="#181A3D" stroke="#181A3D" stroke-width="0.461263"/>
<path fill-rule="evenodd" clip-rule="evenodd" d="M309.399 219.367C309.399 219.365 309.398 219.362 309.397 219.359L308.494 217.672C308.491 217.667 308.485 217.663 308.478 217.663L307.614 218.09C307.608 218.09 307.602 218.094 307.599 218.1L306.745 219.813C306.744 219.815 306.744 219.818 306.744 219.821L306.769 221.525C306.769 221.528 306.77 221.531 306.771 221.533L307.674 223.221C307.677 223.226 307.683 223.23 307.69 223.23L308.554 222.803C308.56 222.803 308.566 222.799 308.569 222.793L309.423 221.08C309.424 221.078 309.424 221.075 309.424 221.072L309.399 219.367Z" fill="#EBF4FB" stroke="#181A3D" stroke-width="0.461263"/>
<path d="M302.95 253.308L303.016 258.909C303.017 258.935 302.996 258.956 302.97 258.957L300.694 257.605C300.668 257.605 300.647 257.585 300.647 257.559L300.58 254.728C300.58 254.703 300.601 254.681 300.626 254.681L302.903 253.262C302.928 253.262 302.95 253.282 302.95 253.308Z" fill="#B4CDFC"/>
<path d="M302.95 253.308L303.016 258.909C303.017 258.935 302.996 258.956 302.97 258.957L300.694 257.605C300.668 257.605 300.647 257.585 300.647 257.559L300.58 254.728C300.58 254.703 300.601 254.681 300.626 254.681L302.903 253.262C302.928 253.262 302.95 253.282 302.95 253.308Z" fill="#B4CDFC"/>
<path d="M302.95 253.308L303.016 258.909C303.017 258.935 302.996 258.956 302.97 258.957L300.694 257.605C300.668 257.605 300.647 257.585 300.647 257.559L300.58 254.728C300.58 254.703 300.601 254.681 300.626 254.681L302.903 253.262C302.928 253.262 302.95 253.282 302.95 253.308Z" stroke="#181A3D" stroke-width="0.461263"/>
<path d="M302.95 253.308L303.016 258.909C303.017 258.935 302.996 258.956 302.97 258.957L300.694 257.605C300.668 257.605 300.647 257.585 300.647 257.559L300.58 254.728C300.58 254.703 300.601 254.681 300.626 254.681L302.903 253.262C302.928 253.262 302.95 253.282 302.95 253.308Z" stroke="#181A3D" stroke-width="0.461263"/>
<path d="M304.648 249.152L302.093 253.861C302.081 253.884 302.053 253.893 302.03 253.881L300.648 254.672C300.625 254.66 300.616 254.632 300.627 254.609L303.274 249.581C303.286 249.558 303.314 249.548 303.337 249.56L304.627 249.09C304.65 249.101 304.659 249.13 304.648 249.152Z" fill="#EBF4FB"/>
<path d="M304.648 249.152L302.093 253.861C302.081 253.884 302.053 253.893 302.03 253.881L300.648 254.672C300.625 254.66 300.616 254.632 300.627 254.609L303.274 249.581C303.286 249.558 303.314 249.548 303.337 249.56L304.627 249.09C304.65 249.101 304.659 249.13 304.648 249.152Z" fill="#EBF4FB"/>
<path d="M304.648 249.152L302.093 253.861C302.081 253.884 302.053 253.893 302.03 253.881L300.648 254.672C300.625 254.66 300.616 254.632 300.627 254.609L303.274 249.581C303.286 249.558 303.314 249.548 303.337 249.56L304.627 249.09C304.65 249.101 304.659 249.13 304.648 249.152Z" stroke="#181A3D" stroke-width="0.461263"/>
<path d="M304.648 249.152L302.093 253.861C302.081 253.884 302.053 253.893 302.03 253.881L300.648 254.672C300.625 254.66 300.616 254.632 300.627 254.609L303.274 249.581C303.286 249.558 303.314 249.548 303.337 249.56L304.627 249.09C304.65 249.101 304.659 249.13 304.648 249.152Z" stroke="#181A3D" stroke-width="0.461263"/>
<path fill-rule="evenodd" clip-rule="evenodd" d="M304.608 262.962C304.643 262.961 304.665 262.924 304.648 262.893L303.029 258.98C303.021 258.965 303.005 258.955 302.987 258.955L300.723 257.603C300.688 257.604 300.666 257.641 300.682 257.672L302.793 261.853C302.801 261.869 302.817 261.878 302.835 261.878L304.608 262.962Z" fill="#6F8BBE" stroke="#181A3D" stroke-width="0.461263"/>
<path fill-rule="evenodd" clip-rule="evenodd" d="M309.225 252.625C309.224 252.617 309.222 252.61 309.219 252.603L306.8 248.087C306.792 248.072 306.776 248.062 306.759 248.063L304.446 249.205C304.428 249.205 304.412 249.215 304.405 249.231L302.121 253.816C302.117 253.823 302.116 253.831 302.116 253.838L302.183 258.401C302.183 258.409 302.185 258.416 302.189 258.423L304.607 262.939C304.615 262.954 304.632 262.964 304.649 262.963L306.962 261.821C306.979 261.821 306.995 261.811 307.003 261.795L309.287 257.21C309.29 257.203 309.292 257.195 309.292 257.188L309.225 252.625Z" fill="white" stroke="#181A3D" stroke-width="0.461263"/>
<path fill-rule="evenodd" clip-rule="evenodd" d="M308.208 253.293C308.208 253.287 308.206 253.282 308.204 253.277L306.454 250.01C306.448 249.999 306.436 249.992 306.424 249.992L304.751 250.819C304.738 250.819 304.727 250.826 304.721 250.838L303.069 254.155C303.066 254.16 303.065 254.165 303.065 254.17L303.114 257.472C303.114 257.477 303.115 257.482 303.118 257.487L304.868 260.754C304.873 260.765 304.885 260.772 304.898 260.772L306.571 259.945C306.584 259.945 306.595 259.938 306.601 259.927L308.253 256.609C308.255 256.605 308.257 256.599 308.256 256.594L308.208 253.293Z" fill="#263E6B" stroke="#181A3D" stroke-width="0.461263"/>
<path fill-rule="evenodd" clip-rule="evenodd" d="M305.023 253.397C305.023 253.395 305.022 253.394 305.022 253.392L304.529 252.473C304.528 252.47 304.524 252.468 304.521 252.468L304.05 252.701C304.046 252.701 304.043 252.703 304.041 252.706L303.576 253.639C303.576 253.641 303.575 253.642 303.575 253.644L303.589 254.573C303.589 254.574 303.59 254.576 303.59 254.577L304.083 255.497C304.084 255.5 304.088 255.502 304.091 255.502L304.562 255.269C304.566 255.269 304.569 255.267 304.571 255.264L305.036 254.33C305.036 254.329 305.037 254.327 305.037 254.326L305.023 253.397Z" fill="#EBF4FB" stroke="#181A3D" stroke-width="0.461263"/>
<path fill-rule="evenodd" clip-rule="evenodd" d="M290.031 187.429C290.04 187.429 290.049 187.431 290.056 187.435L295.408 190.2C295.426 190.21 295.437 190.228 295.437 190.249L295.437 192.968C295.437 192.989 295.426 193.008 295.408 193.017L290.056 195.782C290.049 195.786 290.04 195.789 290.031 195.789L284.664 195.789C284.656 195.789 284.647 195.786 284.639 195.782L279.288 193.017C279.269 193.008 279.258 192.989 279.258 192.968L279.258 190.249C279.258 190.228 279.269 190.21 279.288 190.2L284.639 187.435C284.647 187.431 284.656 187.429 284.664 187.429L290.031 187.429Z" fill="#6F8BBE" stroke="#181A3D" stroke-width="0.461263"/>
<path d="M289.988 193L284.704 193C284.674 193 284.649 193.024 284.649 193.055L284.649 195.731C284.649 195.762 284.674 195.786 284.704 195.786L289.988 195.786C290.018 195.786 290.043 195.762 290.043 195.731L290.043 193.055C290.043 193.024 290.018 193 289.988 193Z" fill="#B4CDFC" stroke="#181A3D" stroke-width="0.461263"/>
<path fill-rule="evenodd" clip-rule="evenodd" d="M279.258 190.305C279.258 190.263 279.301 190.237 279.338 190.256L284.621 192.986C284.64 192.995 284.651 193.014 284.651 193.035L284.651 195.697C284.651 195.739 284.608 195.765 284.571 195.746L279.288 193.017C279.269 193.007 279.258 192.988 279.258 192.968L279.258 190.305Z" fill="white" stroke="#181A3D" stroke-width="0.461263"/>
<path fill-rule="evenodd" clip-rule="evenodd" d="M290.031 185.62C290.04 185.62 290.049 185.623 290.056 185.627L295.408 188.392C295.426 188.401 295.438 188.42 295.438 188.44L295.438 191.16C295.438 191.181 295.426 191.2 295.408 191.209L290.056 193.974C290.049 193.978 290.04 193.98 290.031 193.98L284.665 193.98C284.656 193.98 284.647 193.978 284.639 193.974L279.288 191.209C279.269 191.2 279.258 191.181 279.258 191.16L279.258 188.44C279.258 188.42 279.269 188.401 279.288 188.392L284.639 185.627C284.647 185.623 284.656 185.62 284.665 185.62L290.031 185.62Z" fill="#CCDEFF" stroke="#181A3D" stroke-width="0.461263"/>
<path d="M265.754 228.705L265.754 227.183L275.222 232.524L275.222 234.045L265.754 228.705Z" fill="#405B8B" stroke="#181A3D" stroke-width="0.446384"/>
<path d="M290.412 217.012L290.412 215.493L291.745 216.254L291.745 217.774L290.412 217.012Z" fill="#405B8B" stroke="#181A3D" stroke-width="0.446384"/>
<path d="M257.62 198.201L257.62 196.682L258.953 197.443L258.953 198.963L257.62 198.201Z" fill="#405B8B" stroke="#181A3D" stroke-width="0.446384"/>
<path d="M257.62 224.13L257.62 222.61L258.953 223.372L258.953 224.891L257.62 224.13Z" fill="#405B8B" stroke="#181A3D" stroke-width="0.446384"/>
<path d="M290.158 241.415L290.158 239.896L291.491 240.658L291.491 242.177L290.158 241.415Z" fill="#405B8B" stroke="#181A3D" stroke-width="0.446384"/>
<path d="M263.848 249.804L263.848 245.234L267.85 247.521L267.85 252.091L263.848 249.804Z" fill="#405B8B" stroke="#181A3D" stroke-width="0.446384"/>
<path d="M269.567 253.192L269.567 251.584L271.028 252.395L271.028 254.003L269.567 253.192Z" fill="#405B8B" stroke="#181A3D" stroke-width="0.446384"/>
<path d="M272.745 255.11L272.745 253.528L274.205 254.502L274.205 256.084L272.745 255.11Z" fill="#405B8B" stroke="#181A3D" stroke-width="0.446384"/>
<path d="M275.922 257.017L275.922 255.435L277.382 256.408L277.382 257.99L275.922 257.017Z" fill="#405B8B" stroke="#181A3D" stroke-width="0.446384"/>
<path d="M269.567 250.442L269.567 248.417L279.925 254.51L279.925 256.534L269.567 250.442Z" fill="#405B8B" stroke="#181A3D" stroke-width="0.446384"/>
<path d="M289.629 182.57L288.257 183.485L289.782 191.721L292.985 190.349L289.629 182.57Z" fill="#F2F1EE"/>
<path d="M285.664 182.57L287.037 183.485L285.359 191.721L282.308 190.349L285.664 182.57Z" fill="#F2F1EE"/>
<path d="M287.037 183.485L288.257 183.485L289.782 191.721L285.359 191.721L287.037 183.485Z" fill="#F2F1EE"/>
<path d="M288.257 183.485L289.629 182.57L292.985 190.349L289.782 191.721M288.257 183.485L289.782 191.721M288.257 183.485L287.037 183.485M289.782 191.721L285.359 191.721M287.037 183.485L285.664 182.57L282.308 190.349L285.359 191.721M287.037 183.485L285.359 191.721" stroke="#181A3D" stroke-width="0.461263"/>
<mask id="path-180-inside-1_577_5027" fill="white">
<path d="M286.83 181.553L288.464 181.553L289.771 182.062L289.935 182.57L288.3 183.587L287.647 183.587L286.993 183.587L285.359 182.57L285.522 182.062L286.83 181.553Z"/>
</mask>
<path d="M286.83 181.553L288.464 181.553L289.771 182.062L289.935 182.57L288.3 183.587L287.647 183.587L286.993 183.587L285.359 182.57L285.522 182.062L286.83 181.553Z" fill="#181A3D"/>
<path d="M286.83 181.553L286.83 181.107L286.746 181.107L286.668 181.137L286.83 181.553ZM288.464 181.553L288.626 181.137L288.548 181.107L288.464 181.107L288.464 181.553ZM289.771 182.062L290.196 181.925L290.131 181.723L289.933 181.646L289.771 182.062ZM288.3 183.587L288.3 184.033L288.428 184.033L288.536 183.966L288.3 183.587ZM286.993 183.587L286.757 183.966L286.865 184.033L286.993 184.033L286.993 183.587ZM285.359 182.57L284.934 182.433L284.827 182.765L285.123 182.949L285.359 182.57ZM285.522 182.062L285.36 181.646L285.162 181.723L285.097 181.925L285.522 182.062ZM289.935 182.57L290.17 182.949L290.466 182.765L290.359 182.433L289.935 182.57ZM286.83 182L288.464 182L288.464 181.107L286.83 181.107L286.83 182ZM288.302 181.969L289.609 182.478L289.933 181.646L288.626 181.137L288.302 181.969ZM288.3 183.14L287.647 183.14L287.647 184.033L288.3 184.033L288.3 183.14ZM287.647 183.14L286.993 183.14L286.993 184.033L287.647 184.033L287.647 183.14ZM287.229 183.208L285.595 182.191L285.123 182.949L286.757 183.966L287.229 183.208ZM285.784 182.707L285.947 182.198L285.097 181.925L284.934 182.433L285.784 182.707ZM285.684 182.478L286.991 181.969L286.668 181.137L285.36 181.646L285.684 182.478ZM289.346 182.198L289.51 182.707L290.359 182.433L290.196 181.925L289.346 182.198ZM289.699 182.191L288.065 183.208L288.536 183.966L290.17 182.949L289.699 182.191Z" fill="#181A3D" mask="url(#path-180-inside-1_577_5027)"/>
<path fill-rule="evenodd" clip-rule="evenodd" d="M248.189 316.704C248.189 316.548 248.469 316.447 248.705 316.519L253.378 320.019C253.495 320.054 253.57 320.126 253.57 320.205L253.57 382.652C253.57 382.809 253.289 382.91 253.051 382.838L248.38 380.235C248.261 380.199 248.189 380.128 248.189 380.049L248.189 316.704Z" fill="#917DC1" stroke="#181A3D" stroke-width="0.461263"/>
<path d="M310.673 281.519L254.572 311.183C254.193 310.976 253.729 311.25 253.733 311.679L253.569 383.2C253.573 383.629 254.042 383.897 254.418 383.683L310.681 351.064C310.858 350.963 310.967 350.777 310.967 350.576L310.967 282.011C310.967 281.806 310.855 281.617 310.673 281.519Z" fill="#181A3D" stroke="#181A3D" stroke-width="0.461263"/>
<path d="M203.95 222.328L150.539 251.992C150.16 251.785 149.696 252.059 149.699 252.488L149.536 324.009C149.54 324.438 150.009 324.706 150.385 324.492L206.648 291.872C206.825 291.772 206.934 291.586 206.934 291.385L204.243 222.82C204.243 222.615 204.131 222.426 203.95 222.328Z" fill="#181A3D" stroke="#181A3D" stroke-width="0.461263"/>
<path d="M198.793 218.74L310.965 281.212C311.341 281.012 254.486 311.61 254.486 311.61L254.486 322.209C254.486 322.641 254.022 322.911 253.646 322.7L193.676 288.953C193.499 288.853 144.155 261.095 144.155 260.892L144.155 249.605C145.468 248.951 198.61 218.838 198.793 218.74Z" fill="#7F58DB" stroke="#181A3D" stroke-width="0.461263"/>
<path fill-rule="evenodd" clip-rule="evenodd" d="M144.155 261.553C144.155 261.397 144.436 261.297 144.672 261.368L149.345 263.971C149.462 264.007 149.536 264.079 149.536 264.157L149.536 324.359C149.536 324.516 149.256 324.617 149.018 324.545L144.347 321.942C144.228 321.906 144.155 321.835 144.155 321.756L144.155 261.553Z" fill="#917DC1" stroke="#181A3D" stroke-width="0.461263"/>
<path fill-rule="evenodd" clip-rule="evenodd" d="M254.085 322.831C254.226 322.899 254.438 322.69 254.476 322.446L254.476 311.897C254.495 311.776 254.463 311.678 254.393 311.643L144.368 249.537C144.227 249.468 144.014 249.677 143.975 249.922L143.996 260.696C143.977 260.819 144.01 260.916 144.08 260.95L254.085 322.831Z" fill="#917DC1" stroke="#181A3D" stroke-width="0.461263"/>
<path d="M149.642 248.336L177.787 264.031C177.923 263.998 178.09 264.041 178.088 264.109L178.72 265.658C178.195 265.736 178.223 266.305 178.088 266.273L149.641 250.207C149.577 250.192 149.536 250.162 149.536 250.13L149.536 248.414C149.536 248.381 149.577 248.352 149.642 248.336Z" fill="#BBAEDB" stroke="#181A3D" stroke-width="0.461263"/>
<path d="M195.158 254.614L178.55 264.489C178.406 264.458 178.235 264.501 178.235 264.567L178.235 266.184C178.235 266.252 178.413 266.295 178.557 266.261L195.158 256.727C195.226 256.711 195.268 256.682 195.268 256.65L195.275 254.693C195.275 254.66 195.23 254.629 195.158 254.614Z" fill="#181A3D" stroke="#181A3D" stroke-width="0.461263"/>
<path d="M195.164 254.523C195.232 254.54 195.275 254.572 195.275 254.607L195.275 254.846C195.275 254.88 195.232 254.912 195.164 254.929L178.012 264.467C177.946 264.483 177.864 264.483 177.797 264.467L149.648 248.427C149.579 248.41 149.536 248.378 149.536 248.344L149.536 248.105C149.536 248.07 149.579 248.038 149.648 248.021L167.035 238.483C167.102 238.467 167.184 238.467 167.25 238.483L195.164 254.523Z" fill="white" stroke="#181A3D" stroke-width="0.461263"/>
<path d="M163.886 256.408L180.926 246.542" stroke="#181A3D" stroke-width="0.446384"/>
<path d="M201.361 252.406C201.265 252.347 201.206 252.236 201.206 252.116L201.206 251.285C201.206 251.164 201.267 251.053 201.363 250.993L232.278 234.616C232.372 234.559 232.487 234.559 232.581 234.617L281.766 261.326C281.862 261.386 281.922 261.497 281.922 261.617L281.922 262.446C281.922 262.568 281.86 262.681 281.762 262.739L249.536 280.27C249.443 280.327 249.329 280.325 249.237 280.268L201.361 252.406Z" fill="white"/>
<path d="M201.361 252.406L201.454 252.229M201.361 252.406C201.265 252.347 201.206 252.236 201.206 252.116L201.206 251.285C201.206 251.164 201.267 251.053 201.363 250.993L232.278 234.616C232.372 234.559 232.487 234.559 232.581 234.617L281.766 261.326C281.862 261.386 281.922 261.497 281.922 261.617L281.922 262.446C281.922 262.568 281.86 262.681 281.762 262.739L249.536 280.27C249.443 280.327 249.329 280.325 249.237 280.268L201.361 252.406Z" stroke="#181A3D" stroke-width="0.461263"/>
<path d="M250.1 279.927L248.721 278.99L281.698 261.402L281.698 262.691L250.1 279.927Z" fill="#45659D" stroke="#181A3D" stroke-width="0.446384"/>
<path d="M201.363 201.39L250.086 229.218C250.288 229.095 250.534 229.258 250.532 229.513L250.228 279.978C250.227 280.235 249.978 280.395 249.777 280.267L201.358 253.052C201.264 252.993 201.206 252.882 201.206 252.762L201.206 201.684C201.206 201.562 201.266 201.449 201.363 201.39Z" fill="#A0B8E2" stroke="#181A3D" stroke-width="0.461263"/>
<path fill-rule="evenodd" clip-rule="evenodd" d="M223.626 231.883L220.039 230.089L220.039 235.684L216.004 233.228L216.005 236.922L220.039 239.378L220.039 245.335L223.626 247.129L223.626 241.562L228.047 244.254L228.047 240.56L223.626 237.869L223.626 231.883Z" fill="#181A3D"/>
<path d="M250.311 279.916L250.754 229.331L252.103 228.657L252.103 278.84L250.311 279.916Z" fill="#45659D" stroke="#181A3D" stroke-width="0.446384"/>
<path d="M250.537 228.94L201.422 201.506L203.408 201.175L251.848 228.284L250.537 228.94Z" fill="#45659D" stroke="#181A3D" stroke-width="0.446384"/>
<path fill-rule="evenodd" clip-rule="evenodd" d="M265.219 287.797C265.225 287.797 265.231 287.798 265.236 287.801L268.796 289.581C268.808 289.587 268.815 289.599 268.815 289.612L268.815 291.363C268.815 291.376 268.808 291.388 268.796 291.394L265.236 293.174C265.231 293.176 265.225 293.178 265.219 293.178L261.65 293.178C261.644 293.178 261.638 293.176 261.633 293.174L258.073 291.394C258.061 291.388 258.053 291.376 258.053 291.363L258.053 289.612C258.053 289.599 258.061 289.587 258.073 289.581L261.633 287.801C261.638 287.798 261.644 287.797 261.65 287.797L265.219 287.797Z" fill="white" stroke="#181A3D" stroke-width="0.461263"/>
<path d="M265.192 272.551L261.677 272.551C261.657 272.551 261.641 272.575 261.641 272.604L261.641 293.125C261.641 293.154 261.657 293.178 261.677 293.178L265.192 293.178C265.212 293.178 265.228 293.154 265.228 293.125L265.228 272.604C265.228 272.575 265.212 272.551 265.192 272.551Z" fill="#AAE1BA" stroke="#181A3D" stroke-width="0.461263"/>
<path fill-rule="evenodd" clip-rule="evenodd" d="M258.053 270.793C258.053 270.766 258.082 270.749 258.106 270.761L261.621 272.541C261.633 272.547 261.641 272.559 261.641 272.572L261.641 293.142C261.641 293.169 261.612 293.186 261.587 293.174L258.073 291.394C258.061 291.388 258.053 291.376 258.053 291.362L258.053 270.793Z" fill="#DAFFE2" stroke="#181A3D" stroke-width="0.461263"/>
<path fill-rule="evenodd" clip-rule="evenodd" d="M268.815 270.793C268.815 270.766 268.787 270.749 268.762 270.761L265.248 272.541C265.236 272.547 265.228 272.559 265.228 272.572L265.228 293.142C265.228 293.169 265.257 293.186 265.281 293.174L268.796 291.394C268.808 291.388 268.815 291.376 268.815 291.362L268.815 270.793Z" fill="#56C175" stroke="#181A3D" stroke-width="0.461263"/>
<path fill-rule="evenodd" clip-rule="evenodd" d="M265.219 267.17C265.225 267.17 265.231 267.171 265.236 267.174L268.796 268.953C268.808 268.96 268.815 268.972 268.815 268.985L268.815 270.735C268.815 270.749 268.808 270.761 268.796 270.767L265.236 272.547C265.231 272.549 265.225 272.551 265.219 272.551L261.65 272.551C261.644 272.551 261.638 272.549 261.633 272.547L258.073 270.767C258.061 270.761 258.053 270.749 258.053 270.735L258.053 268.985C258.053 268.972 258.061 268.96 258.073 268.953L261.633 267.174C261.638 267.171 261.644 267.17 261.65 267.17L265.219 267.17Z" fill="white" stroke="#181A3D" stroke-width="0.461263"/>
<path fill-rule="evenodd" clip-rule="evenodd" d="M264.624 268.963C264.628 268.963 264.632 268.964 264.635 268.966L267.009 270.152C267.017 270.157 267.022 270.165 267.022 270.173L267.022 271.34C267.022 271.349 267.017 271.357 267.009 271.361L264.635 272.548C264.632 272.55 264.628 272.551 264.624 272.551L262.245 272.551C262.241 272.551 262.237 272.55 262.233 272.548L259.86 271.361C259.852 271.357 259.847 271.349 259.847 271.34L259.847 270.173C259.847 270.165 259.852 270.157 259.86 270.152L262.233 268.966C262.237 268.964 262.241 268.963 262.245 268.963L264.624 268.963Z" fill="#181A3D" stroke="#181A3D" stroke-width="0.461263"/>
<path d="M271.714 258.105L266.065 261.712L265.961 261.778L265.961 261.9L265.961 263.632L259.355 259.058L259.355 257.148L264.578 254.213L271.714 258.105Z" fill="#3F62A1" stroke="#181A3D" stroke-width="0.446384"/>
<path d="M266.008 261.812L271.96 258.092L271.96 259.952L266.008 264.044L266.008 261.812Z" fill="#181A3D"/>
<mask id="path-207-inside-2_577_5027" fill="white">
<path d="M305.198 251.428L307.828 253.269L307.533 256.736L287.645 272.491L284.226 272.359L284.081 268.534L305.198 251.428Z"/>
</mask>
<path d="M305.198 251.428L307.828 253.269L307.533 256.736L287.645 272.491L284.226 272.359L284.081 268.534L305.198 251.428Z" fill="#B4CDFC"/>
<path d="M307.688 253.095L284.085 272.186L284.366 272.533L307.968 253.442L307.688 253.095ZM305.198 251.428L305.454 251.062L305.178 250.869L304.917 251.081L305.198 251.428ZM307.533 256.736L307.81 257.086L307.961 256.966L307.977 256.774L307.533 256.736ZM287.645 272.491L287.627 272.937L287.792 272.944L287.922 272.841L287.645 272.491ZM284.081 268.534L283.8 268.187L283.626 268.327L283.635 268.551L284.081 268.534ZM307.828 253.269L308.273 253.306L308.295 253.05L308.084 252.903L307.828 253.269ZM284.226 272.359L283.78 272.376L283.795 272.789L284.208 272.805L284.226 272.359ZM307.255 256.386L287.368 272.141L287.922 272.841L307.81 257.086L307.255 256.386ZM284.362 268.881L305.479 251.775L304.917 251.081L283.8 268.187L284.362 268.881ZM304.942 251.793L307.572 253.634L308.084 252.903L305.454 251.062L304.942 251.793ZM307.383 253.231L307.088 256.698L307.977 256.774L308.273 253.306L307.383 253.231ZM287.662 272.045L284.243 271.913L284.208 272.805L287.627 272.937L287.662 272.045ZM284.672 272.342L284.527 268.517L283.635 268.551L283.78 272.376L284.672 272.342Z" fill="#181A3D" mask="url(#path-207-inside-2_577_5027)"/>
<mask id="path-209-inside-3_577_5027" fill="white">
<path d="M288.097 269.412L287.405 272.581L284.456 273.766L267.015 263.288L266.379 260.308L269.53 258.598L288.097 269.412Z"/>
</mask>
<path d="M288.097 269.412L287.405 272.581L284.456 273.766L267.015 263.288L266.379 260.308L269.53 258.598L288.097 269.412Z" fill="#B4CDFC"/>
<path d="M287.518 272.388L266.492 260.116L266.267 260.501L287.293 272.774L287.518 272.388ZM288.097 269.412L288.534 269.507L288.603 269.189L288.322 269.026L288.097 269.412ZM284.456 273.766L284.227 274.149L284.417 274.263L284.623 274.18L284.456 273.766ZM267.015 263.288L266.578 263.381L266.619 263.57L266.785 263.67L267.015 263.288ZM269.53 258.598L269.755 258.212L269.538 258.086L269.317 258.206L269.53 258.598ZM287.405 272.581L287.572 272.995L287.791 272.907L287.841 272.676L287.405 272.581ZM266.379 260.308L266.166 259.916L265.873 260.075L265.943 260.402L266.379 260.308ZM284.686 273.384L267.245 262.905L266.785 263.67L284.227 274.149L284.686 273.384ZM269.306 258.984L287.873 269.797L288.322 269.026L269.755 258.212L269.306 258.984ZM287.661 269.316L286.969 272.486L287.841 272.676L288.534 269.507L287.661 269.316ZM287.239 272.167L284.29 273.352L284.623 274.18L287.572 272.995L287.239 272.167ZM267.451 263.195L266.816 260.215L265.943 260.402L266.578 263.381L267.451 263.195ZM266.592 260.701L269.743 258.99L269.317 258.206L266.166 259.916L266.592 260.701Z" fill="#181A3D" mask="url(#path-209-inside-3_577_5027)"/>
<path d="M510.305 281.307C510.36 281.275 510.395 281.216 510.396 281.151L510.693 256.532C510.695 256.39 510.542 256.301 510.419 256.372L257.834 402.197C257.777 402.23 257.742 402.29 257.742 402.355L257.742 427.278C257.742 427.419 257.895 427.506 258.016 427.436L510.305 281.307Z" fill="#372564" stroke="#181A3D" stroke-width="0.461263"/>
<path fill-rule="evenodd" clip-rule="evenodd" d="M262.111 270.105C262.11 270.105 262.108 270.106 262.107 270.107L261.344 271.081C261.342 271.084 261.341 271.09 261.342 271.097L261.458 271.934C261.459 271.94 261.462 271.946 261.465 271.948L262.465 272.676C262.467 272.677 262.468 272.678 262.47 272.678L263.354 272.555C263.355 272.554 263.356 272.554 263.357 272.552L264.12 271.578C264.123 271.575 264.124 271.569 264.123 271.563L264.006 270.726C264.006 270.719 264.003 270.714 263.999 270.711L263 269.983C262.998 269.982 262.997 269.982 262.995 269.982L262.111 270.105Z" fill="white" stroke="#181A3D" stroke-width="0.461263"/>
<path d="M261.103 262.814L261.973 262.693C261.978 262.692 261.983 262.703 261.985 262.717L263.352 272.529C263.354 272.543 263.352 272.555 263.347 272.556L262.476 272.677C262.471 272.677 262.466 272.667 262.464 272.653L261.097 262.841C261.095 262.827 261.098 262.815 261.103 262.814Z" fill="#AAE1BA" stroke="#181A3D" stroke-width="0.461263"/>
<path fill-rule="evenodd" clip-rule="evenodd" d="M262.753 261.727C262.751 261.714 262.743 261.707 262.738 261.714L261.986 262.686C261.983 262.689 261.982 262.696 261.983 262.702L263.353 272.537C263.355 272.55 263.363 272.557 263.369 272.551L264.12 271.578C264.123 271.575 264.124 271.569 264.123 271.563L262.753 261.727Z" fill="#56C175" stroke="#181A3D" stroke-width="0.461263"/>
<path fill-rule="evenodd" clip-rule="evenodd" d="M260.088 262.099C260.087 262.086 260.092 262.076 260.099 262.082L261.088 262.811C261.091 262.814 261.094 262.819 261.095 262.826L262.465 272.661C262.467 272.674 262.461 272.683 262.454 272.678L261.465 271.948C261.462 271.946 261.459 271.94 261.458 271.934L260.088 262.099Z" fill="#DAFFE2" stroke="#181A3D" stroke-width="0.461263"/>
<path fill-rule="evenodd" clip-rule="evenodd" d="M260.737 260.242C260.736 260.242 260.735 260.243 260.733 260.245L259.971 261.218C259.968 261.222 259.967 261.228 259.968 261.234L260.084 262.071C260.085 262.077 260.088 262.083 260.091 262.085L261.091 262.814C261.093 262.815 261.094 262.815 261.096 262.815L261.98 262.692C261.981 262.692 261.982 262.691 261.983 262.689L262.746 261.716C262.749 261.712 262.75 261.706 262.749 261.7L262.633 260.863C262.632 260.856 262.629 260.851 262.626 260.848L261.626 260.12C261.624 260.119 261.623 260.119 261.621 260.119L260.737 260.242Z" fill="white" stroke="#181A3D" stroke-width="0.461263"/>
<defs>
<linearGradient id="paint0_linear_577_5027" x1="256.254" y1="111.988" x2="256.254" y2="404.426" gradientUnits="userSpaceOnUse">
<stop stop-color="#D3E7FF"/>
<stop offset="0.338542" stop-color="#EBF4FF" stop-opacity="0.46868"/>
<stop offset="1" stop-color="white" stop-opacity="0"/>
</linearGradient>
</defs>
</svg>
