<svg width="111" height="30" viewBox="0 0 111 30" fill="none" xmlns="http://www.w3.org/2000/svg">
<path d="M12.9794 4.1631C13.279 3.37995 13.7784 2.74364 14.4276 2.20523L13.3289 0.883667C12.2303 1.71576 11.4812 2.89048 11.1815 4.21204L12.0305 5.33782L12.9794 4.1631Z" fill="#AD7136"/>
<path d="M14.4277 3.96729C13.5787 3.96729 12.7796 4.16307 12.0305 4.5057C11.2315 4.16307 10.4325 3.96729 9.58349 3.96729C5.23872 3.96729 1.69299 8.66617 1.69299 14.4419C1.69299 20.2176 5.23872 24.9165 9.58349 24.9165C10.4325 24.9165 11.2315 24.7207 12.0305 24.3781C12.7796 24.7207 13.5787 24.9165 14.4277 24.9165C18.7724 24.9165 22.3182 20.2176 22.3182 14.4419C22.3182 8.66617 18.7724 3.96729 14.4277 3.96729Z" fill="#966DF7"/>
<path d="M10.4325 24.8186L9.58349 24.9165C5.23872 24.9165 1.69299 20.2176 1.69299 14.4419C1.69299 8.66617 5.23872 3.96729 9.58349 3.96729L10.4325 4.01623C8.48481 4.60359 6.93668 9.0088 6.93668 14.4419C6.93668 19.875 8.48481 24.2802 10.4325 24.8186Z" fill="#6646AF"/>
<path d="M9.23388 11.652C8.09651 12.7597 6.67167 13.5413 5.11361 13.9123C3.55555 14.2833 1.92363 14.2295 0.394525 13.7567C-0.0807436 12.2549 -0.127545 10.6542 0.259195 9.12809C0.645934 7.60202 1.45146 6.20881 2.58847 5.09946C3.72548 3.9901 5.1506 3.20692 6.70936 2.8348C8.26813 2.46267 9.90108 2.5158 11.4312 2.98843L11.4812 3.23316C12.3302 6.12102 11.5811 9.3515 9.23388 11.652Z" fill="#40BC26"/>
<path d="M11.4812 3.23316C7.00223 5.5831 3.54292 9.44308 1.7429 14.0993L0.394525 13.7567C-0.0807436 12.2549 -0.127545 10.6541 0.259195 9.12809C0.645934 7.60202 1.45146 6.20881 2.58847 5.09946C3.72548 3.9901 5.15059 3.20692 6.70936 2.8348C8.26813 2.46267 9.90108 2.5158 11.4312 2.98843L11.4812 3.23316Z" fill="#33961E"/>
<path d="M30.4865 7.34969C30.7733 7.83519 31.0927 8.42929 31.4447 9.13199C31.7966 9.83469 32.1551 10.5757 32.5201 11.3551C32.8851 12.1217 33.2436 12.9074 33.5955 13.7123C33.9605 14.5044 34.2929 15.2391 34.5928 15.9162C34.8926 15.2391 35.2185 14.5044 35.5704 13.7123C35.9224 12.9074 36.2809 12.1217 36.6459 11.3551C37.0109 10.5757 37.3693 9.83469 37.7213 9.13199C38.0733 8.42929 38.3926 7.83519 38.6794 7.34969H40.9085C41.0258 8.32069 41.1366 9.35558 41.2409 10.4543C41.3452 11.5403 41.4364 12.6583 41.5147 13.8081C41.6059 14.9452 41.6841 16.0951 41.7493 17.2577C41.8275 18.4076 41.8927 19.5319 41.9448 20.6307H39.5202C39.4681 19.0848 39.4029 17.4941 39.3247 15.8587C39.2595 14.2234 39.1552 12.6391 39.0118 11.1059C38.8684 11.3998 38.699 11.7511 38.5034 12.16C38.3079 12.5688 38.0993 13.016 37.8777 13.5015C37.6561 13.9742 37.428 14.4661 37.1934 14.9772C36.9718 15.4882 36.7501 15.9865 36.5285 16.472C36.32 16.9447 36.1244 17.3919 35.9419 17.8135C35.7594 18.2224 35.603 18.5737 35.4727 18.8676H33.6346C33.5043 18.5737 33.3479 18.216 33.1654 17.7944C32.9829 17.3727 32.7808 16.9256 32.5592 16.4528C32.3506 15.9673 32.129 15.4691 31.8944 14.958C31.6728 14.447 31.4512 13.9551 31.2296 13.4823C31.008 13.0096 30.7994 12.5688 30.6039 12.16C30.4083 11.7384 30.2389 11.387 30.0955 11.1059C29.9521 12.6391 29.8413 14.2234 29.7631 15.8587C29.6979 17.4941 29.6392 19.0848 29.5871 20.6307H27.1625C27.2146 19.5319 27.2733 18.3948 27.3385 17.2194C27.4167 16.044 27.4949 14.8813 27.5731 13.7315C27.6643 12.5688 27.7621 11.4445 27.8664 10.3585C27.9707 9.27253 28.0815 8.26959 28.1988 7.34969H30.4865Z" fill="white"/>
<path d="M44.1307 15.6671C44.1307 14.7855 44.261 14.0126 44.5217 13.3482C44.7955 12.6838 45.154 12.1344 45.5972 11.7C46.0404 11.2529 46.5488 10.9207 47.1223 10.7035C47.6959 10.4735 48.2825 10.3585 48.8822 10.3585C50.29 10.3585 51.385 10.7865 52.1671 11.6425C52.9623 12.4986 53.3599 13.7762 53.3599 15.4754C53.3599 15.6032 53.3534 15.7501 53.3403 15.9162C53.3403 16.0695 53.3338 16.2101 53.3208 16.3379H46.5749C46.64 17.1428 46.9268 17.7688 47.4352 18.216C47.9566 18.6504 48.7062 18.8676 49.6838 18.8676C50.2574 18.8676 50.7788 18.8165 51.2481 18.7143C51.7304 18.612 52.1085 18.5034 52.3822 18.3885L52.6951 20.2857C52.5647 20.3496 52.3822 20.4199 52.1476 20.4966C51.926 20.5604 51.6652 20.6179 51.3654 20.669C51.0786 20.7329 50.7658 20.784 50.4269 20.8224C50.0879 20.8607 49.7425 20.8798 49.3905 20.8798C48.4911 20.8798 47.7089 20.7521 47.0441 20.4966C46.3793 20.2283 45.8318 19.8641 45.4016 19.4042C44.9715 18.9315 44.6521 18.3821 44.4435 17.756C44.235 17.1172 44.1307 16.4209 44.1307 15.6671ZM50.9939 14.6322C50.9939 14.3128 50.9483 14.0126 50.857 13.7315C50.7658 13.4376 50.6289 13.1885 50.4464 12.9841C50.277 12.7669 50.0619 12.6008 49.8012 12.4858C49.5535 12.358 49.2537 12.2941 48.9017 12.2941C48.5367 12.2941 48.2173 12.3644 47.9436 12.5049C47.6698 12.6327 47.4352 12.8052 47.2397 13.0224C47.0572 13.2396 46.9138 13.4887 46.8095 13.7698C46.7052 14.0509 46.6335 14.3384 46.5944 14.6322H50.9939Z" fill="white"/>
<path d="M57.7259 15.5904C57.7259 16.6125 57.9736 17.4175 58.469 18.0052C58.9643 18.5801 59.6487 18.8676 60.5221 18.8676C60.9001 18.8676 61.2195 18.8548 61.4802 18.8292C61.7539 18.7909 61.9755 18.7526 62.145 18.7143V12.9649C61.9364 12.8244 61.6562 12.6966 61.3042 12.5816C60.9653 12.4538 60.6003 12.39 60.2092 12.39C59.3489 12.39 58.7166 12.6774 58.3125 13.2524C57.9215 13.8273 57.7259 14.6067 57.7259 15.5904ZM64.5109 20.3241C64.0417 20.4646 63.4485 20.5924 62.7316 20.7074C62.0277 20.8224 61.2846 20.8798 60.5025 20.8798C59.6943 20.8798 58.9708 20.7585 58.3321 20.5157C57.6933 20.273 57.1458 19.928 56.6896 19.4808C56.2464 19.0209 55.9009 18.4715 55.6533 17.8327C55.4186 17.1811 55.3013 16.4528 55.3013 15.6479C55.3013 14.8558 55.3991 14.1403 55.5946 13.5015C55.8032 12.8499 56.103 12.2941 56.4941 11.8342C56.8851 11.3742 57.3609 11.0229 57.9215 10.7801C58.482 10.5246 59.1273 10.3968 59.8572 10.3968C60.3526 10.3968 60.7893 10.4543 61.1673 10.5693C61.5454 10.6843 61.8712 10.8121 62.145 10.9526V6.14232L64.5109 5.75903V20.3241Z" fill="white"/>
<path d="M74.3014 15.6671C74.3014 14.6322 74.0602 13.8273 73.5779 13.2524C73.1086 12.6774 72.346 12.39 71.2902 12.39C71.0686 12.39 70.8339 12.4027 70.5862 12.4283C70.3516 12.4411 70.117 12.4794 69.8823 12.5433V18.2735C70.0909 18.414 70.3646 18.5482 70.7036 18.6759C71.0555 18.7909 71.427 18.8484 71.8181 18.8484C72.6785 18.8484 73.3042 18.5609 73.6952 17.986C74.0993 17.4111 74.3014 16.6381 74.3014 15.6671ZM76.726 15.6288C76.726 16.3953 76.6217 17.098 76.4131 17.7369C76.2176 18.3757 75.9308 18.9251 75.5528 19.385C75.1748 19.845 74.699 20.2027 74.1254 20.4582C73.5649 20.7138 72.9261 20.8415 72.2092 20.8415C71.7269 20.8415 71.2836 20.784 70.8795 20.669C70.4754 20.554 70.143 20.4263 69.8823 20.2857V24.1761H67.5164V10.9335C67.9987 10.8057 68.5918 10.6843 69.2957 10.5693C69.9996 10.4543 70.7427 10.3968 71.5248 10.3968C72.333 10.3968 73.0565 10.5182 73.6952 10.761C74.334 11.0037 74.875 11.3551 75.3182 11.815C75.7744 12.2622 76.1199 12.8116 76.3545 13.4632C76.6022 14.102 76.726 14.8239 76.726 15.6288Z" fill="white"/>
<path d="M82.7231 20.8224C82.0192 20.8096 81.4326 20.7329 80.9633 20.5924C80.507 20.4518 80.142 20.2538 79.8683 19.9983C79.5945 19.73 79.399 19.4042 79.2817 19.0209C79.1774 18.6248 79.1253 18.1776 79.1253 17.6794V6.14232L81.4912 5.75903V17.2386C81.4912 17.5197 81.5108 17.756 81.5499 17.9477C81.602 18.1393 81.6867 18.3054 81.8041 18.4459C81.9214 18.5737 82.0778 18.6759 82.2734 18.7526C82.4819 18.8165 82.7426 18.8676 83.0555 18.9059L82.7231 20.8224Z" fill="white"/>
<path d="M93.3577 20.3241C92.9014 20.4391 92.3083 20.554 91.5783 20.669C90.8483 20.7968 90.0466 20.8607 89.1732 20.8607C88.352 20.8607 87.6611 20.7457 87.1006 20.5157C86.5531 20.2857 86.1099 19.9663 85.771 19.5575C85.4451 19.1486 85.2104 18.6631 85.067 18.101C84.9236 17.5261 84.852 16.9 84.852 16.2229V10.6077H87.2179V15.8587C87.2179 16.932 87.3743 17.6985 87.6872 18.1585C88.0131 18.6184 88.5736 18.8484 89.3688 18.8484C89.6556 18.8484 89.9554 18.8356 90.2682 18.8101C90.5941 18.7845 90.8353 18.7526 90.9917 18.7143V10.6077H93.3577V20.3241Z" fill="white"/>
<path d="M102.196 15.3605C102.196 14.3128 102.059 13.559 101.785 13.099C101.525 12.6263 101.029 12.39 100.299 12.39C100.039 12.39 99.7518 12.4091 99.4389 12.4475C99.1261 12.4858 98.8914 12.5177 98.735 12.5433V20.6307H96.369V10.9335C96.8253 10.8057 97.4184 10.6843 98.1484 10.5693C98.8914 10.4543 99.6736 10.3968 100.495 10.3968C101.199 10.3968 101.772 10.4863 102.216 10.6652C102.672 10.844 103.05 11.0804 103.35 11.3742C103.493 11.272 103.675 11.1634 103.897 11.0484C104.119 10.9335 104.366 10.8312 104.64 10.7418C104.914 10.6396 105.201 10.5566 105.5 10.4927C105.813 10.4288 106.126 10.3968 106.439 10.3968C107.234 10.3968 107.886 10.5118 108.394 10.7418C108.916 10.959 109.32 11.272 109.607 11.6809C109.906 12.0769 110.109 12.5624 110.213 13.1374C110.33 13.6995 110.389 14.3192 110.389 14.9963V20.6307H108.023V15.3605C108.023 14.3128 107.893 13.559 107.632 13.099C107.371 12.6263 106.869 12.39 106.126 12.39C105.748 12.39 105.39 12.4538 105.051 12.5816C104.712 12.6966 104.458 12.8116 104.288 12.9266C104.392 13.246 104.464 13.5845 104.503 13.9423C104.542 14.3 104.562 14.6833 104.562 15.0922V20.6307H102.196V15.3605Z" fill="white"/>
</svg>
