<svg width="71" height="16" viewBox="0 0 71 16" fill="none" xmlns="http://www.w3.org/2000/svg">
<path d="M2.82386 1.35341C3.06749 1.76649 3.3388 2.27198 3.6378 2.86987C3.9368 3.46776 4.24133 4.09827 4.5514 4.76138C4.86147 5.41363 5.16601 6.08218 5.465 6.76703C5.77508 7.44102 6.05746 8.06608 6.31216 8.64223C6.56686 8.06608 6.84371 7.44102 7.14271 6.76703C7.44171 6.08218 7.74624 5.41363 8.05631 4.76138C8.36638 4.09827 8.67092 3.46776 8.96992 2.86987C9.26891 2.27198 9.54023 1.76649 9.78385 1.35341H11.6775C11.7772 2.17958 11.8713 3.06011 11.9599 3.99499C12.0485 4.91901 12.126 5.8702 12.1924 6.84856C12.27 7.81606 12.3364 8.79442 12.3918 9.78366C12.4582 10.762 12.5136 11.7187 12.5579 12.6535H10.4981C10.4538 11.3382 10.3985 9.98477 10.332 8.59331C10.2766 7.20186 10.1881 5.85389 10.0662 4.5494C9.94442 4.79943 9.80046 5.09837 9.63435 5.44624C9.46824 5.7941 9.29106 6.17458 9.1028 6.58766C8.91455 6.98988 8.72075 7.4084 8.52142 7.84323C8.33316 8.27806 8.1449 8.70202 7.95665 9.11511C7.77946 9.51733 7.61335 9.8978 7.45832 10.2565C7.30328 10.6044 7.17039 10.9033 7.05966 11.1534H5.49823C5.38749 10.9033 5.2546 10.599 5.09956 10.2402C4.94453 9.8815 4.77288 9.50102 4.58462 9.0988C4.40744 8.68572 4.21918 8.26176 4.01985 7.82693C3.83159 7.3921 3.64334 6.97358 3.45508 6.57136C3.26682 6.16914 3.08964 5.7941 2.92353 5.44624C2.75742 5.0875 2.61346 4.78856 2.49164 4.5494C2.36983 5.85389 2.2757 7.20186 2.20926 8.59331C2.15389 9.98477 2.10405 11.3382 2.05976 12.6535H0C0.0442959 11.7187 0.0941288 10.7512 0.149499 9.75105C0.215942 8.75094 0.282386 7.7617 0.34883 6.78334C0.426348 5.7941 0.509403 4.83748 0.597994 3.91346C0.686586 2.98945 0.780715 2.1361 0.880381 1.35341H2.82386Z" fill="black"/>
<path d="M14.4148 8.43025C14.4148 7.68017 14.5255 7.02249 14.747 6.45721C14.9796 5.89194 15.2841 5.4245 15.6606 5.05489C16.0371 4.67441 16.469 4.39178 16.9563 4.20697C17.4435 4.0113 17.9419 3.91346 18.4513 3.91346C19.6473 3.91346 20.5775 4.27763 21.2419 5.00597C21.9174 5.73431 22.2552 6.82138 22.2552 8.26719C22.2552 8.3759 22.2496 8.50091 22.2386 8.64223C22.2386 8.77268 22.233 8.89226 22.222 9.00097H16.4912C16.5465 9.68582 16.7902 10.2185 17.2221 10.599C17.665 10.9686 18.3018 11.1534 19.1323 11.1534C19.6196 11.1534 20.0625 11.1099 20.4612 11.0229C20.8709 10.936 21.1921 10.8436 21.4246 10.7457L21.6904 12.36C21.5797 12.4144 21.4246 12.4742 21.2253 12.5394C21.037 12.5937 20.8156 12.6427 20.5609 12.6861C20.3172 12.7405 20.0515 12.784 19.7635 12.8166C19.4756 12.8492 19.1821 12.8655 18.8832 12.8655C18.119 12.8655 17.4546 12.7568 16.8898 12.5394C16.3251 12.3111 15.86 12.0013 15.4945 11.6099C15.1291 11.2077 14.8578 10.7403 14.6806 10.2076C14.5034 9.66408 14.4148 9.07163 14.4148 8.43025ZM20.2452 7.54972C20.2452 7.27796 20.2065 7.02249 20.129 6.78334C20.0515 6.53331 19.9352 6.32133 19.7801 6.1474C19.6362 5.9626 19.4535 5.82128 19.232 5.72344C19.0216 5.61473 18.7669 5.56038 18.4679 5.56038C18.1578 5.56038 17.8865 5.62017 17.6539 5.73975C17.4214 5.84845 17.2221 5.99521 17.0559 6.18001C16.9009 6.36481 16.7791 6.57679 16.6905 6.81595C16.6019 7.05511 16.541 7.2997 16.5078 7.54972H20.2452Z" fill="black"/>
<path d="M25.9642 8.36503C25.9642 9.23469 26.1746 9.91954 26.5954 10.4196C27.0162 10.9088 27.5976 11.1534 28.3396 11.1534C28.6607 11.1534 28.932 11.1425 29.1535 11.1208C29.3861 11.0881 29.5743 11.0555 29.7183 11.0229V6.13109C29.5411 6.01152 29.303 5.90281 29.004 5.80497C28.7161 5.69626 28.406 5.64191 28.0738 5.64191C27.3429 5.64191 26.8058 5.8865 26.4625 6.37568C26.1303 6.86487 25.9642 7.52798 25.9642 8.36503ZM31.7282 12.3926C31.3296 12.5122 30.8257 12.6209 30.2166 12.7188C29.6186 12.8166 28.9874 12.8655 28.323 12.8655C27.6364 12.8655 27.0218 12.7622 26.4792 12.5557C25.9365 12.3492 25.4714 12.0556 25.0838 11.6752C24.7073 11.2838 24.4139 10.8164 24.2035 10.2728C24.0041 9.71843 23.9045 9.0988 23.9045 8.41395C23.9045 7.73996 23.9875 7.1312 24.1536 6.58766C24.3308 6.03326 24.5855 5.56038 24.9177 5.16903C25.25 4.77769 25.6541 4.47874 26.1303 4.2722C26.6065 4.05478 27.1547 3.94608 27.7748 3.94608C28.1956 3.94608 28.5666 3.99499 28.8877 4.09283C29.2089 4.19067 29.4857 4.29937 29.7183 4.41895V0.326122L31.7282 0V12.3926Z" fill="black"/>
<path d="M40.0454 8.43025C40.0454 7.54972 39.8405 6.86487 39.4308 6.37568C39.0321 5.8865 38.3843 5.64191 37.4873 5.64191C37.299 5.64191 37.0997 5.65278 36.8893 5.67452C36.69 5.68539 36.4906 5.71801 36.2913 5.77236V10.6479C36.4685 10.7675 36.701 10.8816 36.989 10.9903C37.288 11.0881 37.6036 11.1371 37.9358 11.1371C38.6667 11.1371 39.1982 10.8925 39.5304 10.4033C39.8737 9.91411 40.0454 9.25643 40.0454 8.43025ZM42.1051 8.39764C42.1051 9.04989 42.0165 9.64778 41.8394 10.1913C41.6733 10.7348 41.4296 11.2023 41.1085 11.5936C40.7873 11.985 40.3831 12.2894 39.8959 12.5068C39.4197 12.7242 38.8771 12.8329 38.268 12.8329C37.8583 12.8329 37.4818 12.784 37.1385 12.6861C36.7952 12.5883 36.5128 12.4796 36.2913 12.36V15.6702H34.2814V4.40265C34.6911 4.29394 35.195 4.19067 35.793 4.09283C36.391 3.99499 37.0222 3.94608 37.6866 3.94608C38.3732 3.94608 38.9878 4.04935 39.5304 4.25589C40.0731 4.46244 40.5326 4.76138 40.9091 5.15273C41.2967 5.5332 41.5902 6.00065 41.7895 6.55505C41.9999 7.09859 42.1051 7.71279 42.1051 8.39764Z" fill="black"/>
<path d="M47.1998 12.8166C46.6018 12.8057 46.1034 12.7405 45.7048 12.6209C45.3172 12.5013 45.0071 12.3328 44.7746 12.1154C44.542 11.8871 44.3759 11.6099 44.2762 11.2838C44.1876 10.9468 44.1433 10.5664 44.1433 10.1424V0.326122L46.1533 0V9.76735C46.1533 10.0065 46.1699 10.2076 46.2031 10.3707C46.2474 10.5337 46.3194 10.6751 46.419 10.7946C46.5187 10.9033 46.6516 10.9903 46.8177 11.0555C46.9949 11.1099 47.2164 11.1534 47.4822 11.186L47.1998 12.8166Z" fill="black"/>
<path d="M56.234 12.3926C55.8465 12.4905 55.3426 12.5883 54.7224 12.6861C54.1023 12.7949 53.4213 12.8492 52.6793 12.8492C51.9816 12.8492 51.3947 12.7514 50.9185 12.5557C50.4534 12.36 50.0769 12.0883 49.789 11.7404C49.5121 11.3925 49.3128 10.9794 49.191 10.5011C49.0692 10.0119 49.0083 9.47928 49.0083 8.90313V4.12544H51.0182V8.59331C51.0182 9.50646 51.1511 10.1587 51.4169 10.55C51.6937 10.9414 52.1699 11.1371 52.8454 11.1371C53.089 11.1371 53.3437 11.1262 53.6095 11.1045C53.8864 11.0827 54.0912 11.0555 54.2241 11.0229V4.12544H56.234V12.3926Z" fill="black"/>
<path d="M63.7423 8.16936C63.7423 7.27796 63.6261 6.63658 63.3935 6.24524C63.172 5.84302 62.7512 5.64191 62.1311 5.64191C61.9096 5.64191 61.666 5.65822 61.4002 5.69083C61.1344 5.72344 60.9351 5.75062 60.8022 5.77236V12.6535H58.7923V4.40265C59.1799 4.29394 59.6837 4.19067 60.3039 4.09283C60.9351 3.99499 61.5995 3.94608 62.2972 3.94608C62.8952 3.94608 63.3824 4.02217 63.7589 4.17436C64.1465 4.32655 64.4677 4.52766 64.7224 4.77769C64.8442 4.69072 64.9992 4.59832 65.1875 4.50048C65.3757 4.40265 65.5861 4.31568 65.8187 4.23959C66.0513 4.15262 66.2949 4.08196 66.5496 4.02761C66.8154 3.97325 67.0811 3.94608 67.3469 3.94608C68.0224 3.94608 68.5761 4.04391 69.008 4.23959C69.451 4.42439 69.7943 4.69072 70.0379 5.03858C70.2926 5.37558 70.4642 5.78866 70.5528 6.27785C70.6525 6.75616 70.7023 7.28339 70.7023 7.85954V12.6535H68.6924V8.16936C68.6924 7.27796 68.5817 6.63658 68.3602 6.24524C68.1387 5.84302 67.7123 5.64191 67.0811 5.64191C66.76 5.64191 66.4555 5.69626 66.1675 5.80497C65.8796 5.90281 65.6637 6.00064 65.5197 6.09848C65.6083 6.37025 65.6692 6.65832 65.7024 6.9627C65.7356 7.26708 65.7523 7.59321 65.7523 7.94107V12.6535H63.7423V8.16936Z" fill="black"/>
</svg>
