<svg width="65" height="52" viewBox="0 0 65 52" fill="none" xmlns="http://www.w3.org/2000/svg">
<path d="M61.46 0V10.08H55.7C50.58 10.08 48.02 12.64 48.02 17.76V25.44H51.14C54.98 25.44 58.18 26.72 60.74 29.28C63.46 31.68 64.82 34.8 64.82 38.64C64.82 42.48 63.46 45.68 60.74 48.24C58.18 50.64 54.98 51.84 51.14 51.84C47.3 51.84 44.02 50.56 41.3 48C38.74 45.28 37.46 42 37.46 38.16V18.24C37.46 6.08 43.46 0 55.46 0H61.46ZM24.5 0V10.08H18.74C13.62 10.08 11.06 12.64 11.06 17.76V25.44H14.18C18.02 25.44 21.22 26.72 23.78 29.28C26.5 31.68 27.86 34.8 27.86 38.64C27.86 42.48 26.5 45.68 23.78 48.24C21.22 50.64 18.02 51.84 14.18 51.84C10.34 51.84 7.06 50.56 4.34 48C1.78 45.28 0.5 42 0.5 38.16V18.24C0.5 6.08 6.5 0 18.5 0H24.5Z" fill="black"/>
</svg>
