<svg width="24" height="24" viewBox="0 0 24 24" fill="none" xmlns="http://www.w3.org/2000/svg">
<path d="M12 0L12.6413 6.0272C12.887 8.3363 13.0098 9.49085 13.7595 10.2405C14.5092 10.9902 15.6637 11.113 17.9728 11.3587L24 12L17.9728 12.6413C15.6637 12.887 14.5092 13.0098 13.7595 13.7595C13.0098 14.5092 12.887 15.6637 12.6413 17.9728L12 24L11.3587 17.9728C11.113 15.6637 10.9902 14.5092 10.2405 13.7595C9.49085 13.0098 8.3363 12.887 6.0272 12.6413L0 12L6.0272 11.3587C8.3363 11.113 9.49085 10.9902 10.2405 10.2405C10.9902 9.49085 11.113 8.3363 11.3587 6.0272L12 0Z" fill="white"/>
</svg>
