<svg xmlns="http://www.w3.org/2000/svg" fill="#0d9488" viewBox="0 0 512 512">
    <path class="cls-1" d="M128.13,171.46c-.06-1.66-.13-3.39-.13-5.06v-7.62l14.21-9.47,63.49-42.37c26.18,14.46,83,42,136.77,42a130.85,130.85,0,0,0,41.54-6.4V166.4c0,1.66-.06,3.39-.13,5.06,0,1.09-.06,2.11-.13,3.2,0,.19-.06.38-.06.58-.19,2.69-.45,5.38-.83,8a2.18,2.18,0,0,1-.06.64,28.8,28.8,0,0,1-.51,3.26c-.19,1.34-.38,2.69-.7,4-.32,1.6-.64,3.14-1,4.67A21.6,21.6,0,0,1,380,198c-1,3.65-2,7.17-3.26,10.69a111.19,111.19,0,0,1-4.48,11.07c-.83,1.79-1.73,3.58-2.62,5.38-1.79,3.39-3.71,6.66-5.7,9.86l-.38.58c-1,1.6-2.11,3.14-3.2,4.67-2.3,3.2-4.74,6.34-7.3,9.28-1.28,1.54-2.62,3-4,4.42-1.54,1.66-3.2,3.33-4.86,4.93-.83.83-1.73,1.66-2.62,2.43a26.85,26.85,0,0,1-2.88,2.5,40.93,40.93,0,0,1-3.2,2.62,50.44,50.44,0,0,1-4.29,3.26,12.55,12.55,0,0,1-1.6,1.15c-1.86,1.34-3.78,2.62-5.7,3.77a2,2,0,0,1-.45.32c-1.15.77-2.3,1.47-3.52,2.18V303l-64,38.4L192,303V277.12c-1.22-.7-2.37-1.41-3.52-2.18a2,2,0,0,1-.45-.32c-1.92-1.15-3.84-2.43-5.7-3.77a12.55,12.55,0,0,1-1.6-1.15,50.44,50.44,0,0,1-4.29-3.26,40.93,40.93,0,0,1-3.2-2.62,26.85,26.85,0,0,1-2.88-2.5c-.9-.77-1.79-1.6-2.62-2.43-1.66-1.6-3.33-3.26-4.86-4.93-1.34-1.41-2.69-2.88-4-4.42-2.56-2.94-5-6.08-7.3-9.28-1.09-1.54-2.18-3.07-3.2-4.67L148,235c-2-3.2-3.9-6.46-5.7-9.86-.9-1.79-1.79-3.58-2.62-5.38a111.19,111.19,0,0,1-4.48-11.07c-1.22-3.52-2.3-7-3.26-10.69a21.6,21.6,0,0,1-.51-2.18c-.38-1.54-.7-3.07-1-4.67-.32-1.34-.51-2.69-.7-4a28.8,28.8,0,0,1-.51-3.26,2.18,2.18,0,0,1-.06-.64c-.38-2.62-.64-5.31-.83-8,0-.19-.06-.38-.06-.58C128.19,173.57,128.13,172.54,128.13,171.46Zm214.34-48.13c14.34,0,28.22-2.3,40.9-7.87-.38-3.65-.9-7.3-1.54-10.82a63.56,63.56,0,0,0-1.54-7.1,109.63,109.63,0,0,0-5.38-16.83c-1.41-3.58-3.07-7.17-4.8-10.62-.77-1.54-1.6-3.07-2.43-4.61a3.94,3.94,0,0,0-.7-1.09A44.45,44.45,0,0,0,364.35,60c-1-1.66-2-3.26-3.2-4.86s-2.24-3.14-3.39-4.67A122.53,122.53,0,0,0,333.31,26c-1.47-1.22-3.07-2.3-4.67-3.39A77.65,77.65,0,0,0,322,18.37c-1.66-1-3.33-2-5.06-2.88s-3.2-1.73-4.86-2.56c-1.47-.7-2.94-1.41-4.54-2S304.58,9.54,303,9,299.65,7.62,297.92,7a4.83,4.83,0,0,0-1-.32c-1.47-.51-2.88-1-4.35-1.41-.64-.19-1.22-.38-1.86-.51-1.28-.38-2.56-.77-3.84-1-1.66-.45-3.39-.83-5.12-1.15-2-.45-4.16-.83-6.27-1.15-1.54-.26-3.07-.45-4.67-.58-.83-.13-1.66-.26-2.5-.32Q262.24,0,256,0A128,128,0,0,0,128,128l76.8-51.2S277.7,123.33,342.46,123.33Zm16.77,199.3c-.51-.26-1-.45-1.47-.64-1.86-.83-3.71-1.66-5.63-2.37s-4.1-1.6-6.21-2.37L256,371.2l-89.92-54c-2.11.77-4.16,1.54-6.21,2.37s-3.78,1.54-5.63,2.37c-.45.19-1,.38-1.47.64-1.66.77-3.33,1.54-5,2.37a158.91,158.91,0,0,0-15.14,8.47l123.36,74,123.36-74A158.92,158.92,0,0,0,364.22,325C362.56,324.16,360.9,323.39,359.23,322.62Zm101.38,149.5c-.13-3.39-.38-6.72-.77-10-.13-1.41-.26-2.75-.45-4.16-.13-1.15-.32-2.3-.45-3.46-.19-1.34-.45-2.62-.64-3.9-.19-1-.32-1.92-.58-2.88-.26-1.47-.51-2.88-.83-4.29A167.33,167.33,0,0,0,450,420c-.83-2.37-1.73-4.67-2.75-7-1.22-2.94-2.56-5.82-4-8.64-.7-1.6-1.54-3.2-2.37-4.74-1.15-2.18-2.3-4.35-3.58-6.46s-2.3-3.9-3.58-5.82a2.65,2.65,0,0,0-.45-.7c-1-1.54-2-3.07-3-4.54-3.07-4.48-6.4-8.83-9.86-13-1.6-1.86-3.2-3.71-4.86-5.5-1.86-2-3.78-4-5.76-6-1.28-1.28-2.56-2.56-3.9-3.78s-2.85-2.6-4.33-3.84L256,437.32,110.38,350c-1.48,1.24-2.91,2.54-4.33,3.84s-2.62,2.5-3.9,3.78c-2,2-3.9,4-5.76,6-1.66,1.79-3.26,3.65-4.86,5.5-3.46,4.16-6.78,8.51-9.86,13-1,1.47-2,3-3,4.54a2.65,2.65,0,0,0-.45.7c-1.28,1.92-2.43,3.84-3.58,5.82s-2.43,4.29-3.58,6.46c-.83,1.54-1.66,3.14-2.37,4.74-1.41,2.82-2.75,5.7-4,8.64-1,2.3-1.92,4.61-2.75,7a167.33,167.33,0,0,0-6.85,23.42c-.32,1.41-.58,2.82-.83,4.29-.26,1-.38,1.92-.58,2.88-.19,1.28-.45,2.56-.64,3.9-.13,1.15-.32,2.3-.45,3.46-.19,1.41-.32,2.75-.45,4.16-.38,3.33-.64,6.66-.77,10q-.19,3.94-.19,7.87a32,32,0,0,0,32,32H428.8a32,32,0,0,0,32-32Q460.8,476.06,460.61,472.13Z"/>
</svg>