<?xml version="1.0" encoding="iso-8859-1"?>
<!-- Generator: Adobe Illustrator 18.0.0, SVG Export Plug-In . SVG Version: 6.00 Build 0)  -->
<!DOCTYPE svg PUBLIC "-//W3C//DTD SVG 1.1//EN" "http://www.w3.org/Graphics/SVG/1.1/DTD/svg11.dtd">
<svg version="1.1" id="Capa_1" xmlns="http://www.w3.org/2000/svg" x="0px" y="0px"
	 viewBox="0 0 54.759 54.759" style="enable-background:new 0 0 54.759 54.759;" xml:space="preserve">
<g>
	<path fill="#0d9488" d="M50.491,21.652L38.085,3.484c-1.2-1.758-3.021-2.945-5.126-3.342c-2.105-0.398-4.233,0.046-5.991,1.247
		s-2.945,3.021-3.342,5.126c-0.397,2.105,0.046,4.233,1.247,5.991l12.406,18.168c1.2,1.758,3.021,2.945,5.126,3.342
		c0.503,0.095,1.008,0.142,1.508,0.142c1.593,0,3.145-0.475,4.483-1.389C52.038,30.283,52.978,25.295,50.491,21.652z M25.591,6.886
		c0.298-1.58,1.187-2.946,2.504-3.845c1.001-0.684,2.165-1.039,3.359-1.039c0.376,0,0.756,0.035,1.134,0.106
		c1.58,0.298,2.946,1.187,3.845,2.504l5.075,7.432l-9.91,6.767l-5.075-7.433C25.624,10.062,25.293,8.466,25.591,6.886z
		 M47.268,31.119c-1.318,0.899-2.915,1.229-4.493,0.933c-1.58-0.298-2.946-1.187-3.845-2.504l-6.203-9.084l9.91-6.767l6.203,9.084
		C50.705,25.512,50,29.253,47.268,31.119z"/>
	<path fill="#0d9488" d="M41.823,38.814l-13.629-1.623l3.043-3.565c2.864-3.355,2.464-8.415-0.891-11.279c-1.619-1.382-3.687-2.048-5.823-1.882
		c-2.136,0.169-4.073,1.154-5.456,2.773L4.784,39.971c-1.382,1.62-2.05,3.688-1.882,5.823c0.169,2.136,1.154,4.073,2.773,5.456
		c1.455,1.242,3.272,1.908,5.175,1.908c0.215,0,0.431-0.009,0.648-0.026c1.593-0.126,3.075-0.706,4.299-1.665
		c0.729,0.325,1.495,0.54,2.288,0.634l21.846,2.601c0.32,0.038,0.637,0.057,0.951,0.057c3.992,0,7.455-2.995,7.938-7.055
		C49.343,43.323,46.203,39.335,41.823,38.814z M20.589,24.537c1.035-1.213,2.488-1.951,4.092-2.078
		c0.163-0.013,0.326-0.02,0.487-0.02c1.428,0,2.79,0.499,3.879,1.429c2.517,2.148,2.816,5.943,0.668,8.459l-5.843,6.845
		l-9.127-7.791L20.589,24.537z M6.974,49.728c-2.517-2.148-2.816-5.942-0.668-8.458l7.141-8.366l9.127,7.791l-7.141,8.366
		c0,0-0.001,0.001-0.001,0.001c-0.148,0.173-0.305,0.333-0.467,0.485l-0.008,0.008C12.757,51.605,9.314,51.725,6.974,49.728z
		 M17.336,49.911l9.297-10.892l4.03,0.48l-1.418,11.916l-10.923-1.301C17.987,50.075,17.658,50.007,17.336,49.911z M46.835,47.467
		c-0.391,3.285-3.377,5.644-6.667,5.249l-8.936-1.064l1.418-11.916l8.937,1.064c1.584,0.188,3.004,0.988,3.999,2.251
		S47.024,45.883,46.835,47.467z"/>
</g>
<g>
</g>
<g>
</g>
<g>
</g>
<g>
</g>
<g>
</g>
<g>
</g>
<g>
</g>
<g>
</g>
<g>
</g>
<g>
</g>
<g>
</g>
<g>
</g>
<g>
</g>
<g>
</g>
<g>
</g>
</svg>
