<svg xmlns="http://www.w3.org/2000/svg"
  xmlns:xlink="http://www.w3.org/1999/xlink" viewBox="0 0 610 610">
  <defs>
    <path id="reuse-0" stroke="#000" stroke-miterlimit="10" d="m161.12 581 7-3.5-1.75 3.5 1.75 3.5z" pointer-events="none"/>
    <path id="reuse-1" stroke="#000" stroke-miterlimit="10" d="m145 564.88-3.5-7 3.5 1.75 3.5-1.75z" pointer-events="none"/>
  </defs>
  <g transform="translate(.5 .5)">
    <path fill="none" stroke="#000" stroke-miterlimit="10" d="M451 186h20-9 13.63" pointer-events="none"/>
    <path stroke="#000" stroke-miterlimit="10" d="m480.88 186-7 3.5 1.75-3.5-1.75-3.5z" pointer-events="none"/>
    <path fill="#fff" stroke="#000" d="M1 96h450v180H1z" pointer-events="none"/>
    <path fill="none" stroke="#000" stroke-miterlimit="10" d="M33 31h51.63" pointer-events="none"/>
    <path stroke="#000" stroke-miterlimit="10" d="m89.88 31-7 3.5 1.75-3.5-1.75-3.5z" pointer-events="none"/>
    <circle cx="18" cy="31" r="15" pointer-events="none"/>
    <path fill="none" stroke="#000" stroke-miterlimit="10" d="M211 331h101.63" pointer-events="none"/>
    <path stroke="#000" stroke-miterlimit="10" d="m317.88 331-7 3.5 1.75-3.5-1.75-3.5z" pointer-events="none"/>
    <path fill="none" stroke="#000" stroke-miterlimit="10" d="M121 376v30H71v23.63" pointer-events="none"/>
    <path stroke="#000" stroke-miterlimit="10" d="m71 434.88-3.5-7 3.5 1.75 3.5-1.75z" pointer-events="none"/>
    <path fill="none" stroke="#000" stroke-miterlimit="10" d="M181 376v30h40v23.63" pointer-events="none"/>
    <path stroke="#000" stroke-miterlimit="10" d="m221 434.88-3.5-7 3.5 1.75 3.5-1.75z" pointer-events="none"/>
    <rect width="120" height="60" x="91" y="316.2" fill="#dae8fc" stroke="#6c8ebf" pointer-events="none" rx="9" ry="9"/>
    <text x="30" y="12" font-family="Helvetica" font-size="12" text-anchor="middle" transform="translate(120.5 339.5)">in-progress</text>
    <path fill="none" stroke="#000" stroke-miterlimit="10" d="M542 216v365H166.37" pointer-events="none"/>
    <use xlink:href="#reuse-0" stroke-miterlimit="10" pointer-events="none"/>
    <rect width="120" height="60" x="482" y="156" fill="#f8cecc" stroke="#b85450" pointer-events="none" rx="9" ry="9"/>
    <text x="25" y="12" font-family="Helvetica" font-size="12" text-anchor="middle" transform="translate(516.5 179.5)">cancelled</text>
    <path fill="none" stroke="#000" stroke-miterlimit="10" d="M71 219v74h50v16.63" pointer-events="none"/>
    <path stroke="#000" stroke-miterlimit="10" d="m121 314.88-3.5-7 3.5 1.75 3.5-1.75z" pointer-events="none"/>
    <rect width="120" height="60" x="11" y="159" fill="#dae8fc" stroke="#6c8ebf" pointer-events="none" rx="9" ry="9"/>
    <text x="15" y="12" font-family="Helvetica" font-size="12" text-anchor="middle" transform="translate(55.5 182.5)">ready</text>
    <path fill="none" stroke="#000" stroke-miterlimit="10" d="M439 240h52v341H166.37" pointer-events="none"/>
    <use xlink:href="#reuse-0" stroke-miterlimit="10" pointer-events="none"/>
    <rect width="120" height="60" x="319" y="210" fill="#f8cecc" stroke="#b85450" pointer-events="none" rx="9" ry="9"/>
    <text x="21" y="12" font-family="Helvetica" font-size="12" text-anchor="middle" transform="translate(357.5 233.5)">rejected</text>
    <path fill="none" stroke="#000" stroke-miterlimit="10" d="M221 270v23h-40v16.63" pointer-events="none"/>
    <path stroke="#000" stroke-miterlimit="10" d="m181 314.88-3.5-7 3.5 1.75 3.5-1.75z" pointer-events="none"/>
    <rect width="120" height="60" x="161" y="210" fill="#dae8fc" stroke="#6c8ebf" pointer-events="none" rx="9" ry="9"/>
    <text x="24" y="12" font-family="Helvetica" font-size="12" text-anchor="middle" transform="translate(196.5 233.5)">accepted</text>
    <path fill="none" stroke="#000" stroke-miterlimit="10" d="m349 170-92.1 37.59" pointer-events="none"/>
    <path stroke="#000" stroke-miterlimit="10" d="m252.04 209.58 5.15-5.89-.29 3.9 2.94 2.58z" pointer-events="none"/>
    <path fill="none" stroke="#000" stroke-miterlimit="10" d="M379 170v33.63" pointer-events="none"/>
    <path stroke="#000" stroke-miterlimit="10" d="m379 208.88-3.5-7 3.5 1.75 3.5-1.75z" pointer-events="none"/>
    <rect width="120" height="60" x="319" y="110" fill="#dae8fc" stroke="#6c8ebf" pointer-events="none" rx="9" ry="9"/>
    <text x="23" y="12" font-family="Helvetica" font-size="12" text-anchor="middle" transform="translate(355.5 133.5)">received</text>
    <path fill="none" stroke="#000" stroke-miterlimit="10" d="M281 140h20-2 13.63" pointer-events="none"/>
    <path stroke="#000" stroke-miterlimit="10" d="m317.88 140-7 3.5 1.75-3.5-1.75-3.5z" pointer-events="none"/>
    <path fill="none" stroke="#000" stroke-miterlimit="10" d="M221 170v33.63" pointer-events="none"/>
    <path stroke="#000" stroke-miterlimit="10" d="m221 208.88-3.5-7 3.5 1.75 3.5-1.75z" pointer-events="none"/>
    <path fill="none" stroke="#000" stroke-miterlimit="10" d="m251 170 92.1 37.59" pointer-events="none"/>
    <path stroke="#000" stroke-miterlimit="10" d="m347.96 209.58-7.8.59 2.94-2.58-.29-3.9z" pointer-events="none"/>
    <rect width="120" height="60" x="161" y="110" fill="#dae8fc" stroke="#6c8ebf" pointer-events="none" rx="9" ry="9"/>
    <text x="27" y="12" font-family="Helvetica" font-size="12" text-anchor="middle" transform="translate(193.5 133.5)">requested</text>
    <path fill="none" stroke="#000" stroke-miterlimit="10" d="M121 61v25H71v66.63" pointer-events="none"/>
    <path stroke="#000" stroke-miterlimit="10" d="m71 157.88-3.5-7 3.5 1.75 3.5-1.75z" pointer-events="none"/>
    <path fill="none" stroke="#000" stroke-miterlimit="10" d="M181 61v25h40v17.63" pointer-events="none"/>
    <path stroke="#000" stroke-miterlimit="10" d="m221 108.88-3.5-7 3.5 1.75 3.5-1.75z" pointer-events="none"/>
    <path fill="none" stroke="#000" stroke-miterlimit="10" d="M211 31h331v118.63" pointer-events="none"/>
    <path stroke="#000" stroke-miterlimit="10" d="m542 154.88-3.5-7 3.5 1.75 3.5-1.75z" pointer-events="none"/>
    <rect width="120" height="60" x="91" y="1" fill="#f5f5f5" stroke="#666" pointer-events="none" rx="9" ry="9"/>
    <text x="12" y="12" font-family="Helvetica" font-size="12" text-anchor="middle" transform="translate(138.5 24.5)">draft</text>
    <path fill="none" stroke="#000" stroke-miterlimit="10" d="M71 496.4V531h74v28.63" pointer-events="none"/>
    <use xlink:href="#reuse-1" stroke-miterlimit="10" pointer-events="none"/>
    <rect width="120" height="60" x="11" y="436.4" fill="#d5e8d4" stroke="#82b366" pointer-events="none" rx="9" ry="9"/>
    <text x="28" y="12" font-family="Helvetica" font-size="12" text-anchor="middle" transform="translate(42.5 459.5)">completed</text>
    <path fill="none" stroke="#000" stroke-miterlimit="10" d="M221 496v35h-76v28.63" pointer-events="none"/>
    <use xlink:href="#reuse-1" stroke-miterlimit="10" pointer-events="none"/>
    <rect width="120" height="60" x="161" y="436.4" fill="#f8cecc" stroke="#b85450" pointer-events="none" rx="9" ry="9"/>
    <text x="14" y="12" font-family="Helvetica" font-size="12" text-anchor="middle" transform="translate(206.5 459.5)">failed</text>
    <path fill="none" stroke="#000" stroke-miterlimit="10" d="M319 361H217.37" pointer-events="none"/>
    <path stroke="#000" stroke-miterlimit="10" d="m212.12 361 7-3.5-1.75 3.5 1.75 3.5z" pointer-events="none"/>
    <rect width="120" height="60" x="319" y="316" fill="#fff2cc" stroke="#d6b656" pointer-events="none" rx="9" ry="9"/>
    <text x="20" y="12" font-family="Helvetica" font-size="12" text-anchor="middle" transform="translate(358.5 339.5)">on-hold</text>
    <circle cx="145" cy="581" r="15" fill="#fff" stroke="#000" pointer-events="none"/>
    <circle cx="145" cy="581" r="6.4948" fill="#fff" stroke="#000" stroke-width="12.99" pointer-events="none"/>
  </g>
</svg>