<?xml version="1.0" encoding="iso-8859-1"?>
<!-- Generator: Adobe Illustrator 19.0.0, SVG Export Plug-In . SVG Version: 6.00 Build 0)  -->
<svg version="1.1" id="Layer_1" xmlns="http://www.w3.org/2000/svg" x="0px" y="0px"
	 viewBox="0 0 511.998 511.998" style="enable-background:new 0 0 511.998 511.998;" xml:space="preserve">
<circle style="fill:#F4E3C3;" cx="255.998" cy="255.999" r="255.998"/>
<path style="fill:#FED8B2;" d="M511.998,255.999c0-3.337-0.085-6.656-0.21-9.964l-88.994-88.994l-71.404-19.987l-70.106,26.432
	l-102.491,9.002l-49.858,1.845l-48.772,63.281l24.981,107.736l166.18,166.18C405.572,503.602,511.998,392.238,511.998,255.999z"/>
<path style="fill:#2B9ED8;" d="M92.582,317.287c-34.943-58.964-16.246-98.974-1.991-117.575
	c26.467-34.535,79.247-50.241,125.499-37.343c34.006,9.481,52.875-1.491,74.726-14.193c23.514-13.667,50.162-29.158,96.293-14.145
	c22.419,7.296,37.943,20.83,46.138,40.227c19.825,46.916-11.292,111.274-12.624,113.991l-15.477-7.594
	c0.291-0.596,28.987-60.083,12.207-99.72c-6.254-14.774-17.892-24.753-35.581-30.509c-38.8-12.628-59.926-0.346-82.292,12.657
	c-22.038,12.81-47.014,27.331-88.02,15.894c-39.75-11.085-84.826,2.05-107.187,31.223c-20.042,26.153-18.927,61.064,3.139,98.302
	L92.582,317.287z"/>
<path style="fill:#1A84AD;" d="M433.246,174.257c-8.195-19.396-23.719-32.932-46.138-40.227
	c-46.133-15.013-72.781,0.478-96.293,14.145c-11.895,6.915-22.912,13.308-35.964,16.177v17.473
	c17.67-3.086,31.659-11.209,44.628-18.747c22.368-13.002,43.492-25.284,82.292-12.657c17.689,5.756,29.327,15.736,35.581,30.509
	c16.78,39.639-11.916,99.124-12.207,99.72l15.477,7.594C421.954,285.531,453.07,221.173,433.246,174.257z"/>
<path style="fill:#324A5E;" d="M256,309.445c43.804,0,25.357,43.959,86.565,56.888s113.67-63.498,64.924-113.779
	S295.725,198.221,256,195.666l0,0c-39.725,2.555-102.741,6.609-151.489,56.889s3.715,126.706,64.924,113.777
	S212.196,309.445,256,309.445z"/>
<path style="fill:#2B3B4E;" d="M407.487,252.555c-48.747-50.281-111.763-54.334-151.489-56.888c-0.376,0.024-0.769,0.05-1.15,0.074
	v113.722c0.381-0.007,0.757-0.017,1.148-0.017c43.804,0,25.357,43.959,86.565,56.888
	C403.772,379.263,456.234,302.836,407.487,252.555z"/>
<g>
</g>
<g>
</g>
<g>
</g>
<g>
</g>
<g>
</g>
<g>
</g>
<g>
</g>
<g>
</g>
<g>
</g>
<g>
</g>
<g>
</g>
<g>
</g>
<g>
</g>
<g>
</g>
<g>
</g>
</svg>
