<?xml version="1.0" encoding="iso-8859-1"?>
<!-- Generator: Adobe Illustrator 19.0.0, SVG Export Plug-In . SVG Version: 6.00 Build 0)  -->
<svg version="1.1" id="Layer_1" xmlns="http://www.w3.org/2000/svg" x="0px" y="0px"
	 viewBox="0 0 512 512" style="enable-background:new 0 0 512 512;" xml:space="preserve">
<circle style="fill:#0F7986;" cx="256" cy="256" r="256"/>
<path style="fill:#B3B3B3;" d="M220.316,249.432c23.787,0,47.569,0,71.356,0l0.388,4.877l-34.872,52.862l-37.458-53.389l0.582-4.35
	H220.316z"/>
<path style="fill:#F0BA7D;" d="M220.777,236.167l-0.619,29.819l-50.589,27.666v101.405h85.166h85.152V293.652l-47.019-29.223
	l-2.582-29.814l-69.508,1.557V236.167z"/>
<path style="fill:#FED298;" d="M197.401,149.214c0,0-2.9-6.374-10.688-3.215c-7.787,3.155,0.351,34.65,3.326,39.047
	c2.974,4.392,7.764,1.603,9.51,1.427c2.48,18.775,2.702,31.717,10.217,39.634c7.117,7.496,23.417,22.776,32.003,28.1
	c5.815,1.229,10.152,1.949,14.235,2.166c4.078-0.217,8.42-0.937,14.235-2.166c8.586-5.326,24.886-20.605,32.003-28.1
	c7.514-7.917,7.737-20.853,10.217-39.634c1.746,0.176,6.531,2.965,9.51-1.427c2.974-4.392,11.117-35.888,3.326-39.047
	c-7.787-3.159-10.688,3.215-10.688,3.215s7.7-24.734-5.986-49.079c-9.376-16.687-30.766-25.339-52.612-25.976
	c-21.846,0.633-43.237,9.288-52.612,25.976c-13.685,24.345-5.986,49.079-5.986,49.079L197.401,149.214L197.401,149.214z"/>
<path style="fill:#21D0C3;" d="M195.35,274.761c5.445,44.982,121.031,43.708,121.298,0.005l38.013,64.612l-30.105,163.324
	C302.733,508.753,279.75,512,256,512c-19.371,0-38.229-2.166-56.368-6.24l-53.956-161.223l49.68-69.776L195.35,274.761
	L195.35,274.761z"/>
<path style="fill:#FFFFFF;" d="M206.385,271.279c-134.374,43.699-95.863,22.387-126.24,170.746
	c18.267,17.274,39.08,31.879,61.813,43.209l13.487-44.008c0.157-0.503,0.638-0.817,1.16-0.758s0.919,0.48,0.951,1.007l1.949,51.689
	c29.782,12.133,62.353,18.83,96.5,18.83V405.006l-49.615-133.732L206.385,271.279z"/>
<path style="fill:#EEF3F7;" d="M305.587,271.584c134.484,43.277,95.891,22.096,126.268,170.442
	c-18.267,17.274-39.084,31.879-61.817,43.214l-13.487-44.008c-0.153-0.503-0.638-0.822-1.164-0.758
	c-0.522,0.065-0.919,0.485-0.947,1.007l-1.94,51.689C322.718,505.303,290.142,512,256.005,512V405.011l49.587-133.427H305.587z"/>
<path style="fill:#FEFEFE;" d="M346.394,409.066c-9.991-1.723-16.692-11.224-14.965-21.21c1.723-9.99,11.224-16.692,21.21-14.97
	c9.991,1.723,16.692,11.224,14.965,21.214c-1.723,9.99-11.224,16.692-21.214,14.965h0.004V409.066z"/>
<path style="fill:#21D0C3;" d="M346.574,408.013c-9.409-1.626-15.717-10.567-14.096-19.976c1.626-9.409,10.567-15.722,19.976-14.096
	s15.717,10.572,14.096,19.981C364.924,403.329,355.983,409.639,346.574,408.013z"/>
<path style="fill:#EBECEC;" d="M347.891,400.406c-5.201-0.896-8.697-5.852-7.797-11.052c0.896-5.206,5.848-8.697,11.052-7.797
	c5.205,0.9,8.697,5.848,7.797,11.052C358.047,397.815,353.095,401.306,347.891,400.406z"/>
<path style="fill:#FEFEFE;" d="M349.012,382.578l4.203,0.726l2.259-13.089l-4.203-0.726L349.012,382.578z"/>
<path style="fill:#21D0C3;" d="M208.237,412.701l7.875-1.561c3.348-0.665,6.12-2.637,7.885-5.28
	c1.765-2.643,2.531-5.958,1.866-9.302l-9.261-46.668c-3.496-17.612-17.274-26.59-33.015-28.581
	c-6.032-0.763-12.355-0.485-18.484,0.73c-6.129,1.21-12.073,3.371-17.357,6.379c-13.755,7.834-23.025,21.375-19.524,39.015
	l9.261,46.668c0.665,3.348,2.637,6.115,5.28,7.885l0.005-0.005c2.642,1.769,5.953,2.531,9.298,1.87l7.871-1.561l-0.642-3.247
	l-7.875,1.561c-2.452,0.485-4.886-0.074-6.822-1.367l0,0c-1.94-1.297-3.385-3.331-3.875-5.783l-9.261-46.668
	c-3.178-16.004,5.317-28.341,17.902-35.505c4.974-2.835,10.581-4.868,16.374-6.018c5.788-1.146,11.75-1.404,17.436-0.689
	c14.406,1.819,27.01,9.982,30.179,25.957l9.265,46.668c0.485,2.452-0.079,4.882-1.371,6.822c-1.297,1.935-3.331,3.385-5.783,3.87
	l-7.875,1.561l0.642,3.247h0.006V412.701z"/>
<path style="fill:#4D4D4D;" d="M219.101,356.8l-1.418-7.131c-3.603-18.157-17.777-27.412-33.962-29.458
	c-6.148-0.776-12.59-0.499-18.831,0.739c-6.245,1.234-12.3,3.436-17.68,6.498c-14.147,8.055-23.671,22.004-20.064,40.188
	l1.418,7.131l5.404-1.076l-1.418-7.127c-3.067-15.459,5.168-27.393,17.362-34.336c4.872-2.776,10.369-4.767,16.046-5.893
	c5.677-1.127,11.52-1.381,17.09-0.675c13.963,1.765,26.165,9.653,29.232,25.08l1.413,7.131L219.101,356.8z"/>
<g>
	<path style="fill:#076673;" d="M153.704,424.234l4.213-0.836c1.058,1.187,2.693,1.796,4.364,1.464
		c2.508-0.499,4.138-2.933,3.64-5.441c-0.494-2.503-2.933-4.134-5.441-3.635c-1.672,0.332-2.951,1.52-3.473,3.021l-4.213,0.836
		L153.704,424.234z"/>
	<path style="fill:#076673;" d="M211.586,412.747l-4.208,0.836c-0.522,1.496-1.801,2.688-3.473,3.021
		c-2.508,0.494-4.942-1.132-5.441-3.64c-0.494-2.503,1.132-4.942,3.635-5.436c1.668-0.332,3.308,0.281,4.36,1.464l4.213-0.836
		l0.91,4.591L211.586,412.747L211.586,412.747z"/>
</g>
<path style="fill:#666666;" d="M167.458,320.534l-1.607-8.097l-3.196,0.638l-3.192,0.633l1.626,8.175
	c1.215-0.355,2.448-0.656,3.695-0.9c0.887-0.176,1.779-0.323,2.674-0.443V320.534z"/>
<g>
	<path style="fill:#0F7986;" d="M160.562,419.731c0.758-0.153,1.252-0.891,1.099-1.644c-0.148-0.758-0.887-1.252-1.644-1.104
		c-0.758,0.153-1.252,0.887-1.099,1.644c0.153,0.758,0.887,1.252,1.645,1.099L160.562,419.731L160.562,419.731z"/>
	<path style="fill:#0F7986;" d="M202.219,411.449c0.758-0.148,1.247-0.887,1.099-1.644c-0.153-0.763-0.887-1.252-1.644-1.104
		c-0.758,0.153-1.252,0.887-1.099,1.649c0.148,0.758,0.887,1.247,1.649,1.099L202.219,411.449L202.219,411.449z"/>
</g>
<path style="fill:#FEFEFE;" d="M347.378,400.318c-4.923-0.85-8.226-5.528-7.377-10.453c0.85-4.919,5.528-8.221,10.453-7.372
	c4.923,0.85,8.226,5.528,7.377,10.453c-0.85,4.923-5.533,8.226-10.453,7.377V400.318z"/>
<g>
	<path style="fill:#4D4D4D;" d="M206.432,268.715c-0.143,0-49.86,0.416-41.463,43.91l-4.623,0.882
		c-9.469-49.037,45.873-49.49,46.031-49.49L206.432,268.715z"/>
	<path style="fill:#4D4D4D;" d="M305.643,264.245c8.11,0.217,23.792,2.429,35.86,17.113c11.81,14.364,20.092,40.751,13.898,89.129
		l-4.66-0.591c5.99-46.821-1.751-72.029-12.868-85.554c-10.859-13.21-25.02-15.2-32.345-15.399l0.111-4.697h0.004V264.245z"/>
</g>
<path style="fill:#FEFEFE;" d="M256,256.369c0,0-9.847-0.522-14.281-1.833c-4.434-1.311-32.003-28.1-32.003-28.1l0.863-39.477
	l38.498-1.756c0,0,4.582-2.73,6.923-2.153c2.346-0.577,6.923,2.153,6.923,2.153l38.498,1.756l0.863,39.477
	c0,0-27.569,26.789-32.004,28.1C265.847,255.847,256,256.369,256,256.369z"/>
<path style="fill:#EEF3F7;" d="M256,183.051l3.118,10.887l-1.658,7.602l3.413,18.327l-3.589,17.524l-1.288,18.979
	c0,0,9.847-0.522,14.281-1.833c4.434-1.311,32.004-28.1,32.004-28.1l-0.863-39.477l-38.498-1.756c0,0-4.582-2.73-6.923-2.153H256z"
	/>
<g>
	<path style="fill:#21D0C3;" d="M194.751,141.427l18.679,46.525l-2.194,0.836l-18.679-46.525L194.751,141.427z"/>
	<path style="fill:#21D0C3;" d="M318.723,142.928l-17.579,46.543l-2.268-0.638l17.579-46.543L318.723,142.928z"/>
	<path style="fill:#21D0C3;" d="M255.829,63.263c0,0-57.697,8.655-62.376,20.756s-8.577,9.353-7.409,23.653
		c1.169,14.3,0.665,38.331,0.665,38.331c49.485-18.041,89.207-18.696,138.235,0c0,0-0.503-24.031,0.665-38.331
		c1.169-14.3-2.73-11.551-7.409-23.653c-4.679-12.101-62.376-20.756-62.376-20.756S255.829,63.263,255.829,63.263z"/>
</g>
<path style="fill:#15BDB2;" d="M255.829,63.263l-0.281,0.042c0,0,56.964,14.485,57.55,18.881c0.587,4.397-2.171,8.554,4.485,10.817
	c6.656,2.264,4.872,12.651,4.872,12.651l-1.035,39.518l0.323,0.378l3.206,0.443c0,0-0.503-24.031,0.665-38.331
	s-2.73-11.551-7.409-23.653c-4.679-12.101-62.376-20.756-62.376-20.756L255.829,63.263L255.829,63.263z"/>
<g>
</g>
<g>
</g>
<g>
</g>
<g>
</g>
<g>
</g>
<g>
</g>
<g>
</g>
<g>
</g>
<g>
</g>
<g>
</g>
<g>
</g>
<g>
</g>
<g>
</g>
<g>
</g>
<g>
</g>
</svg>
