<?xml version="1.0" encoding="iso-8859-1"?>
<!-- Generator: Adobe Illustrator 19.0.0, SVG Export Plug-In . SVG Version: 6.00 Build 0)  -->
<svg version="1.1" id="Layer_1" xmlns="http://www.w3.org/2000/svg" x="0px" y="0px"
	 viewBox="0 0 384.895 384.895" style="enable-background:new 0 0 384.895 384.895;" xml:space="preserve">
<g>
	<rect x="14.085" y="26.113" style="fill:#6EBEFF;" width="356.725" height="344.107"/>
	<rect x="24.949" y="142.276" style="fill:#FFFFFF;" width="139.502" height="227.943"/>
	<g>
		<rect x="31.951" y="149.279" style="fill:#2D4151;" width="59.441" height="220.94"/>
		<rect x="98.393" y="149.279" style="fill:#2D4151;" width="59.441" height="220.94"/>
	</g>
	<rect x="171.951" y="142.276" style="fill:#FFFFFF;" width="189" height="139.608"/>
	<g>
		<rect x="177.951" y="149.279" style="fill:#2D4151;" width="85" height="126.062"/>
	</g>
	<g>
		<rect x="269.951" y="149.279" style="fill:#2D4151;" width="85" height="126.062"/>
	</g>
	<path style="opacity:0.2;fill:#FCFAFA;enable-background:new    ;" d="M153.72,273.167v93.296h-53.371
		C100.349,366.463,147.182,351.48,153.72,273.167z"/>
	<path style="opacity:0.2;fill:#FCFAFA;enable-background:new    ;" d="M87.72,273.167v93.296H34.349
		C34.349,366.463,81.182,351.48,87.72,273.167z"/>
	<g>
		<rect x="78.392" y="261.779" style="fill:#FFFFFF;" width="5" height="18"/>
		<rect x="106.392" y="261.779" style="fill:#FFFFFF;" width="5" height="18"/>
	</g>
	<rect x="29.757" y="42.92" style="fill:#5DB0E8;" width="336.002" height="75.895"/>
	<rect x="24.949" y="38.112" style="fill:#FFFFFF;" width="336.002" height="75.895"/>
	<path style="fill:#39B54A;" d="M63.867,45.06c-17.259,0-31.25,13.879-31.25,31s13.991,31,31.25,31s31.25-13.879,31.25-31
		S81.126,45.06,63.867,45.06z M71.269,83.402v17.403H56.466V83.402H38.922V68.718h17.544V51.314h14.803v17.404h17.544v14.684
		C88.813,83.402,71.269,83.402,71.269,83.402z"/>
	<path style="fill:#51697A;" d="M221.756,164.882c-13.918,0-25.202,11.193-25.202,25s11.283,25,25.202,25
		c13.918,0,25.202-11.193,25.202-25S235.675,164.882,221.756,164.882z M227.725,195.803v14.035h-11.938v-14.035h-14.148v-11.842
		h14.148v-14.035h11.938v14.035h14.148v11.842H227.725z"/>
	<path style="fill:#FFFFFF;" d="M219.98,234.613L219.98,234.613c-11.966,0-21.667,9.7-21.667,21.667v25.605h43.333v-25.605
		C241.647,244.313,231.946,234.613,219.98,234.613z"/>
	<path style="fill:#2D4151;" d="M204.314,275.341v-19.062c0-8.639,7.028-15.667,15.667-15.667s15.666,7.028,15.666,15.667v19.062
		H204.314z"/>
	<circle style="fill:#FFFFFF;" cx="210.98" cy="262.674" r="3"/>
	<g>
		<path style="fill:#E6E6E6;" d="M146.441,77.442c-1.779,1.169-4.065,2.032-7.267,2.032h-7.927v14.329h-4.726V57.371h12.602
			c3.404,0,5.641,0.711,7.521,1.982c2.845,1.931,4.572,5.132,4.572,8.943C151.217,72.158,149.388,75.562,146.441,77.442z
			 M144.205,73.682c1.372-1.27,2.185-3.252,2.185-5.284c0-2.287-0.965-4.319-2.591-5.589c-1.118-0.864-2.541-1.372-4.624-1.372
			h-7.927v13.972h7.927C141.41,75.409,143.036,74.749,144.205,73.682z"/>
		<path style="fill:#E6E6E6;" d="M171.796,93.803V80.948c0-2.083-0.203-3.303-0.711-4.37c-0.763-1.575-2.235-2.592-4.421-2.592
			c-2.185,0-3.861,1.016-4.776,2.388c-0.66,1.016-1.066,2.134-1.066,4.37v13.059h-4.472V57.371h4.472v15.955l0.051,0.051
			c1.575-1.88,4.268-2.947,6.859-2.947c2.947,0,5.843,1.321,7.367,4.065c0.763,1.474,1.169,3.15,1.169,6.047v13.262h-4.472V93.803z"
			/>
		<path style="fill:#E6E6E6;" d="M196.543,81.659v-1.626c0-2.337-0.509-3.557-1.423-4.522c-0.966-1.016-2.338-1.524-4.015-1.524
			c-1.829,0-4.166,0.711-6.352,2.287l-1.778-3.049c2.592-1.88,5.793-2.795,8.689-2.795c2.692,0,5.183,0.762,6.91,2.541
			c1.778,1.931,2.337,3.811,2.337,7.012v13.821h-4.115l-0.152-2.185c-1.626,1.931-4.624,2.744-6.962,2.744
			c-5.335,0-8.485-3.455-8.485-7.571c0-3.811,2.896-7.469,8.689-7.469C192.173,79.322,194.866,80.186,196.543,81.659z
			 M190.75,82.472c-3.15,0-5.183,1.728-5.183,4.268c0,2.49,1.931,4.319,5.132,4.319s5.844-1.626,5.844-4.319
			C196.543,83.997,193.393,82.472,190.75,82.472z"/>
		<path style="fill:#E6E6E6;" d="M216.31,74.393c-2.693,0-4.929,1.982-4.929,7.063v12.347h-4.472V70.938h4.217l0.153,2.947
			c1.523-2.083,3.455-3.455,5.995-3.455c1.169,0,2.135,0.254,3.303,0.915l-0.965,3.912C218.596,74.749,217.325,74.393,216.31,74.393
			z"/>
		<path style="fill:#E6E6E6;" d="M242.071,73.682c1.829-2.032,4.37-3.252,7.673-3.252c2.845,0,5.995,1.271,7.418,4.065
			c0.712,1.474,1.067,3.15,1.067,6.047v13.262h-4.472V80.948c0-2.083-0.203-3.303-0.66-4.37c-0.712-1.575-2.135-2.592-4.167-2.592
			c-2.083,0-3.607,0.915-4.472,2.287c-0.609,1.016-1.016,2.236-1.016,4.471v13.059h-4.472V80.948c0-2.083-0.203-3.303-0.66-4.37
			c-0.712-1.575-2.135-2.592-4.167-2.592c-2.083,0-3.607,0.915-4.472,2.287c-0.609,1.016-1.016,2.236-1.016,4.471v13.059h-4.472
			V70.938h4.166l0.204,2.795c0.965-1.423,3.455-3.303,6.859-3.303C237.955,70.43,240.496,71.497,242.071,73.682z"/>
		<path style="fill:#E6E6E6;" d="M278.506,81.659v-1.626c0-2.337-0.509-3.557-1.423-4.522c-0.966-1.016-2.338-1.524-4.015-1.524
			c-1.829,0-4.166,0.711-6.352,2.287l-1.778-3.049c2.592-1.88,5.793-2.795,8.689-2.795c2.692,0,5.183,0.762,6.91,2.541
			c1.778,1.931,2.337,3.811,2.337,7.012v13.821h-4.115l-0.152-2.185c-1.626,1.931-4.624,2.744-6.962,2.744
			c-5.335,0-8.485-3.455-8.485-7.571c0-3.811,2.896-7.469,8.689-7.469C274.136,79.322,276.829,80.186,278.506,81.659z
			 M272.713,82.472c-3.15,0-5.183,1.728-5.183,4.268c0,2.49,1.931,4.319,5.132,4.319s5.844-1.626,5.844-4.319
			C278.506,83.997,275.355,82.472,272.713,82.472z"/>
		<path style="fill:#E6E6E6;" d="M299.593,90.805c2.998,0,4.878-1.372,6.657-3.811l3.149,2.185
			c-2.083,3.252-5.538,5.183-9.705,5.183c-7.063,0-11.94-5.437-11.94-11.941c0-6.555,5.132-11.992,11.94-11.992
			c3.913,0,7.368,1.626,9.502,4.573l-3.049,2.49c-1.422-1.88-3.557-3.455-6.555-3.455c-4.064,0-7.367,3.608-7.367,8.384
			C292.226,87.35,295.528,90.805,299.593,90.805z"/>
		<path style="fill:#E6E6E6;" d="M311.382,70.938h4.878l6.91,17.276h0.103l6.605-17.276h4.318l-13.617,33.485h-4.421l4.624-10.975
			L311.382,70.938z"/>
	</g>
	<g>
		<path style="fill:#2D4151;" d="M143.441,74.442c-1.779,1.169-4.065,2.032-7.267,2.032h-7.927v14.329h-4.726V54.371h12.602
			c3.404,0,5.641,0.711,7.521,1.982c2.845,1.931,4.572,5.132,4.572,8.943C148.217,69.158,146.388,72.562,143.441,74.442z
			 M141.205,70.682c1.372-1.27,2.185-3.252,2.185-5.284c0-2.287-0.965-4.319-2.591-5.589c-1.118-0.864-2.541-1.372-4.624-1.372
			h-7.927v13.972h7.927C138.41,72.409,140.036,71.749,141.205,70.682z"/>
		<path style="fill:#2D4151;" d="M168.796,90.803V77.948c0-2.083-0.203-3.303-0.711-4.37c-0.763-1.575-2.235-2.592-4.421-2.592
			c-2.185,0-3.861,1.016-4.776,2.388c-0.66,1.016-1.066,2.134-1.066,4.37v13.059h-4.472V54.371h4.472v15.955l0.051,0.051
			c1.575-1.88,4.268-2.947,6.859-2.947c2.947,0,5.843,1.321,7.367,4.065c0.763,1.474,1.169,3.15,1.169,6.047v13.262h-4.472V90.803z"
			/>
		<path style="fill:#2D4151;" d="M193.543,78.659v-1.626c0-2.337-0.509-3.557-1.423-4.522c-0.966-1.016-2.338-1.524-4.015-1.524
			c-1.829,0-4.166,0.711-6.352,2.287l-1.778-3.049c2.592-1.88,5.793-2.795,8.689-2.795c2.692,0,5.183,0.762,6.91,2.541
			c1.778,1.931,2.337,3.811,2.337,7.012v13.821h-4.115l-0.152-2.185c-1.626,1.931-4.624,2.744-6.962,2.744
			c-5.335,0-8.485-3.455-8.485-7.571c0-3.811,2.896-7.469,8.689-7.469C189.173,76.322,191.866,77.186,193.543,78.659z
			 M187.75,79.472c-3.15,0-5.183,1.728-5.183,4.268c0,2.49,1.931,4.319,5.132,4.319s5.844-1.626,5.844-4.319
			C193.543,80.997,190.393,79.472,187.75,79.472z"/>
		<path style="fill:#2D4151;" d="M213.31,71.393c-2.693,0-4.929,1.982-4.929,7.063v12.347h-4.472V67.938h4.217l0.153,2.947
			c1.523-2.083,3.455-3.455,5.995-3.455c1.169,0,2.135,0.254,3.303,0.915l-0.965,3.912C215.596,71.749,214.325,71.393,213.31,71.393
			z"/>
		<path style="fill:#2D4151;" d="M239.071,70.682c1.829-2.032,4.37-3.252,7.673-3.252c2.845,0,5.995,1.271,7.418,4.065
			c0.712,1.474,1.067,3.15,1.067,6.047v13.262h-4.472V77.948c0-2.083-0.203-3.303-0.66-4.37c-0.712-1.575-2.135-2.592-4.167-2.592
			c-2.083,0-3.607,0.915-4.472,2.287c-0.609,1.016-1.016,2.236-1.016,4.471v13.059h-4.472V77.948c0-2.083-0.203-3.303-0.66-4.37
			c-0.712-1.575-2.135-2.592-4.167-2.592c-2.083,0-3.607,0.915-4.472,2.287c-0.609,1.016-1.016,2.236-1.016,4.471v13.059h-4.472
			V67.938h4.166l0.204,2.795c0.965-1.423,3.455-3.303,6.859-3.303C234.955,67.43,237.496,68.497,239.071,70.682z"/>
		<path style="fill:#2D4151;" d="M275.506,78.659v-1.626c0-2.337-0.509-3.557-1.423-4.522c-0.966-1.016-2.338-1.524-4.015-1.524
			c-1.829,0-4.166,0.711-6.352,2.287l-1.778-3.049c2.592-1.88,5.793-2.795,8.689-2.795c2.692,0,5.183,0.762,6.91,2.541
			c1.778,1.931,2.337,3.811,2.337,7.012v13.821h-4.115l-0.152-2.185c-1.626,1.931-4.624,2.744-6.962,2.744
			c-5.335,0-8.485-3.455-8.485-7.571c0-3.811,2.896-7.469,8.689-7.469C271.136,76.322,273.829,77.186,275.506,78.659z
			 M269.713,79.472c-3.15,0-5.183,1.728-5.183,4.268c0,2.49,1.931,4.319,5.132,4.319s5.844-1.626,5.844-4.319
			C275.506,80.997,272.355,79.472,269.713,79.472z"/>
		<path style="fill:#2D4151;" d="M296.593,87.805c2.998,0,4.878-1.372,6.657-3.811l3.149,2.185
			c-2.083,3.252-5.538,5.183-9.705,5.183c-7.063,0-11.94-5.437-11.94-11.941c0-6.555,5.132-11.992,11.94-11.992
			c3.913,0,7.368,1.626,9.502,4.573l-3.049,2.49c-1.422-1.88-3.557-3.455-6.555-3.455c-4.064,0-7.367,3.608-7.367,8.384
			C289.226,84.35,292.528,87.805,296.593,87.805z"/>
		<path style="fill:#2D4151;" d="M308.382,67.938h4.878l6.91,17.276h0.103l6.605-17.276h4.318l-13.617,33.485h-4.421l4.624-10.975
			L308.382,67.938z"/>
	</g>
	<rect x="275.951" y="253.674" style="fill:#6EBEFF;" width="73" height="6.667"/>
	<rect x="275.951" y="205.007" style="fill:#6EBEFF;" width="73" height="6.667"/>
	<path style="fill:#FFFFFF;" d="M337.026,232.341h-10.091c-1.632,0-2.954,1.323-2.954,2.954v18.379h16v-18.379
		C339.98,233.663,338.657,232.341,337.026,232.341z"/>
	<rect x="326.935" y="227.341" style="fill:#ED4C58;" width="10.046" height="5"/>
	<path style="fill:#FFFFFF;" d="M320.359,183.674h-10.091c-1.632,0-2.954,1.323-2.954,2.954v18.379h16v-18.379
		C323.314,184.997,321.991,183.674,320.359,183.674z"/>
	<rect x="310.268" y="178.674" style="fill:#39B54A;" width="10.046" height="5"/>
	<path style="fill:#39B54A;" d="M306.98,230.007h-15.667c-0.828,0-1.5-0.672-1.5-1.5V217.84c0-0.828,0.672-1.5,1.5-1.5h15.667
		c0.828,0,1.5,0.672,1.5,1.5v10.667C308.48,229.337,307.809,230.007,306.98,230.007z M292.814,227.007h12.667v-7.667h-12.667
		V227.007z"/>
	<path style="fill:#39B54A;" d="M311.07,223.341h-23.846c-1.791,0-3.243,1.452-3.243,3.243v23.846c0,1.791,1.452,3.243,3.243,3.243
		h23.846c1.791,0,3.243-1.452,3.243-3.243v-23.846C314.314,224.794,312.861,223.341,311.07,223.341z"/>
	<path style="fill:#FFFFFF;" d="M299.147,227.803c-5.96,0-10.791,4.792-10.791,10.704c0,5.912,4.831,10.704,10.791,10.704
		s10.791-4.792,10.791-10.704C309.937,232.596,305.106,227.803,299.147,227.803z M301.703,241.044v6.009h-5.111v-6.009h-6.058v-5.07
		h6.058v-6.009h5.111v6.009h6.058v5.07H301.703z"/>
	<rect x="287.313" y="198.341" style="fill:#ED4C58;" width="12.667" height="6.667"/>
	<polygon style="fill:#FFFFFF;" points="302.281,177.674 285.679,177.674 287.314,198.341 299.98,198.341 	"/>
	<rect x="329.314" y="180.007" style="fill:#FFFFFF;" width="15" height="25"/>
	<path style="fill:#ED4C58;" d="M340.927,197.841H332.7c-0.766,0-1.386-0.621-1.386-1.386v-7.894c0-0.766,0.621-1.386,1.386-1.386
		h8.227c0.766,0,1.386,0.621,1.386,1.386v7.894C342.314,197.22,341.693,197.841,340.927,197.841z"/>
	<rect x="190.98" y="281.884" style="fill:#5DB0E8;" width="65.333" height="15.333"/>
	<rect x="186.314" y="275.34" style="fill:#FFFFFF;" width="65.333" height="15.333"/>
	<rect y="14.674" style="fill:#5DB0E8;" width="384.895" height="11.438"/>
	<path style="fill:#5DB0E8;" d="M328.451,311.007h-124c-8.56,0-15.5,6.94-15.5,15.5l0,0c0,8.56,6.94,15.5,15.5,15.5h124
		c8.56,0,15.5-6.94,15.5-15.5l0,0C343.951,317.947,337.011,311.007,328.451,311.007z"/>
</g>
<g>
</g>
<g>
</g>
<g>
</g>
<g>
</g>
<g>
</g>
<g>
</g>
<g>
</g>
<g>
</g>
<g>
</g>
<g>
</g>
<g>
</g>
<g>
</g>
<g>
</g>
<g>
</g>
<g>
</g>
</svg>
