<?xml version="1.0" encoding="iso-8859-1"?>
<!-- Generator: Adobe Illustrator 19.0.0, SVG Export Plug-In . SVG Version: 6.00 Build 0)  -->
<svg version="1.1" id="Layer_1" xmlns="http://www.w3.org/2000/svg" x="0px" y="0px"
	 viewBox="0 0 297 297" style="enable-background:new 0 0 297 297;" xml:space="preserve">
<g>
	<g>
		<g>
			<circle style="fill:#345F41;" cx="148.5" cy="148.5" r="148.5"/>
		</g>
	</g>
	<path style="fill:#1F4429;" d="M203.735,62.932L65.332,201.294l95.18,95.221c73.929-5.918,132.589-65.976,136.3-140.506
		L203.735,62.932z"/>
	<path style="fill:#D0D5D9;" d="M173.25,214.5L173.25,214.5c-22.782,0-41.25-18.468-41.25-41.25v-82.5
		c0-22.782,18.468-41.25,41.25-41.25l0,0c22.782,0,41.25,18.468,41.25,41.25v82.5C214.5,196.032,196.032,214.5,173.25,214.5z"/>
	<path style="fill:#BEC3C6;" d="M173.25,49.5L173.25,49.5c-0.812,0-1.616,0.03-2.416,0.076v164.848
		c0.8,0.046,1.605,0.076,2.416,0.076l0,0c22.782,0,41.25-18.468,41.25-41.25v-82.5C214.5,67.968,196.032,49.5,173.25,49.5z"/>
	<path style="fill:#1ABC9C;" d="M132,130.5v42.75c0,22.782,18.468,41.25,41.25,41.25l0,0c22.782,0,41.25-18.468,41.25-41.25V130.5
		H132z"/>
	<path style="fill:#19A58A;" d="M170.834,130.5v83.924c0.8,0.046,1.605,0.076,2.416,0.076l0,0c22.782,0,41.25-18.468,41.25-41.25
		V130.5H170.834z"/>
	<circle style="fill:#FFFFFF;" cx="99" cy="165" r="49.5"/>
	<path style="fill:#D0D5D9;" d="M127.675,205.342c2.217-1.579,4.338-3.352,6.327-5.34c1.989-1.989,3.761-4.11,5.34-6.327
		l-69.017-69.017c-2.217,1.58-4.338,3.352-6.327,5.34s-3.761,4.11-5.34,6.327L127.675,205.342z"/>
</g>
<g>
</g>
<g>
</g>
<g>
</g>
<g>
</g>
<g>
</g>
<g>
</g>
<g>
</g>
<g>
</g>
<g>
</g>
<g>
</g>
<g>
</g>
<g>
</g>
<g>
</g>
<g>
</g>
<g>
</g>
</svg>
