<svg width="17" height="16" viewBox="0 0 17 16" fill="none" xmlns="http://www.w3.org/2000/svg">
<path fill-rule="evenodd" clip-rule="evenodd" d="M14.7222 16H2.27778C1.29594 16 0.5 15.2041 0.5 14.2222V1.77778C0.5 0.795938 1.29594 0 2.27778 0H14.7222C15.7041 0 16.5 0.795938 16.5 1.77778V14.2222C16.5 15.2041 15.7041 16 14.7222 16ZM11.9034 13.7777H14.2777V8.90022C14.2777 6.8365 13.1079 5.83866 11.4738 5.83866C9.83907 5.83866 9.15107 7.11171 9.15107 7.11171V6.07402H6.86291V13.7777H9.15107V9.73375C9.15107 8.65019 9.64986 8.0054 10.6045 8.0054C11.4821 8.0054 11.9034 8.625 11.9034 9.73375V13.7777ZM2.72217 3.64373C2.72217 4.42876 3.35374 5.06528 4.13313 5.06528C4.91253 5.06528 5.54373 4.42876 5.54373 3.64373C5.54373 2.85869 4.91253 2.22217 4.13313 2.22217C3.35374 2.22217 2.72217 2.85869 2.72217 3.64373ZM5.33759 13.7777H2.95162V6.07402H5.33759V13.7777Z" fill="#946AF9"/>
</svg>
