<?xml version="1.0" encoding="utf-8"?>
<!-- Generator: Adobe Illustrator 26.5.0, SVG Export Plug-In . SVG Version: 6.00 Build 0)  -->
<svg version="1.1" id="Шар_1" xmlns="http://www.w3.org/2000/svg" xmlns:xlink="http://www.w3.org/1999/xlink" x="0px" y="0px"
	 viewBox="0 0 595.3 841.9" style="enable-background:new 0 0 595.3 841.9;" xml:space="preserve">
<style type="text/css">
	.st0{fill:url(#SVGID_1_);}
	.st1{fill:url(#SVGID_00000102542021881788691690000006600624392895593620_);}
	.st2{fill:url(#SVGID_00000008869923128240872300000003967118531149999293_);}
	.st3{fill:url(#SVGID_00000069369594765922495410000011950356802810183298_);}
	.st4{fill:url(#SVGID_00000173128219110356819040000007767036327781057451_);}
	.st5{fill:url(#SVGID_00000114053379536529620500000005815333895138884019_);}
	.st6{fill:url(#SVGID_00000145762747909472207070000009599420085127859107_);}
	.st7{fill:#FFFFFF;}
	.st8{font-family:'Poppins-Medium';}
	.st9{font-size:12.2871px;}
	.st10{fill:#7C5CC8;}
	.st11{font-size:15.7087px;}
	.st12{font-family:'Poppins-Bold';}
	.st13{fill:none;stroke:#946AF9;stroke-width:2.1668;stroke-linecap:round;stroke-miterlimit:10;}
	.st14{fill:none;stroke:#946AF9;stroke-width:2.1668;stroke-linecap:round;stroke-miterlimit:10;stroke-dasharray:2.9876,6.1509;}
	.st15{fill:none;stroke:#946AF9;stroke-width:1.7008;stroke-linecap:round;stroke-linejoin:round;stroke-miterlimit:10;}
	.st16{fill:none;stroke:#946AF9;stroke-width:2.1668;stroke-linecap:round;stroke-miterlimit:10;stroke-dasharray:2.9841,6.1438;}
	.st17{fill:#946AF9;}
	.st18{font-size:11.3386px;}
</style>
<linearGradient id="SVGID_1_" gradientUnits="userSpaceOnUse" x1="54.5171" y1="133.6588" x2="309.7984" y2="133.6588">
	<stop  offset="0" style="stop-color:#946AF9"/>
	<stop  offset="1" style="stop-color:#EAE2FD"/>
</linearGradient>
<path class="st0" d="M252.3,146.8l-62.8,47.3c-5.8,4.4-13.9,4.4-19.8,0l-62.8-47.3c-8.7-6.6-8.7-19.7,0-26.2l62.8-47.3
	c5.8-4.4,13.9-4.4,19.8,0l62.8,47.3C261,127.1,261,140.2,252.3,146.8z"/>
<linearGradient id="SVGID_00000023269052497064996340000000242844241986582939_" gradientUnits="userSpaceOnUse" x1="54.5171" y1="342.5204" x2="309.7984" y2="342.5204">
	<stop  offset="0" style="stop-color:#946AF9"/>
	<stop  offset="1" style="stop-color:#EAE2FD"/>
</linearGradient>
<path style="fill:url(#SVGID_00000023269052497064996340000000242844241986582939_);" d="M252.3,355.6l-62.8,47.3
	c-5.8,4.4-13.9,4.4-19.8,0l-62.8-47.3c-8.7-6.6-8.7-19.7,0-26.2l62.8-47.3c5.8-4.4,13.9-4.4,19.8,0l62.8,47.3
	C261,336,261,349.1,252.3,355.6z"/>
<linearGradient id="SVGID_00000070831959267154411920000005162830873541250204_" gradientUnits="userSpaceOnUse" x1="54.5171" y1="552.382" x2="309.7984" y2="552.382">
	<stop  offset="0" style="stop-color:#946AF9"/>
	<stop  offset="1" style="stop-color:#EAE2FD"/>
</linearGradient>
<path style="fill:url(#SVGID_00000070831959267154411920000005162830873541250204_);" d="M252.3,565.5l-62.8,47.3
	c-5.8,4.4-13.9,4.4-19.8,0l-62.8-47.3c-8.7-6.6-8.7-19.7,0-26.2l62.8-47.3c5.8-4.4,13.9-4.4,19.8,0l62.8,47.3
	C261,545.8,261,558.9,252.3,565.5z"/>
<linearGradient id="SVGID_00000022549055937768116500000005038239030412982451_" gradientUnits="userSpaceOnUse" x1="-137.5787" y1="134.8659" x2="577.104" y2="133.3644">
	<stop  offset="0" style="stop-color:#946AF9"/>
	<stop  offset="1" style="stop-color:#EAE2FD"/>
</linearGradient>
<path style="fill:url(#SVGID_00000022549055937768116500000005038239030412982451_);" d="M503.4,172.8H370.5c-7.2,0-13-5.8-13-13
	v-52.2c0-7.2,5.8-13,13-13h132.9c7.2,0,13,5.8,13,13v52.2C516.4,167,510.6,172.8,503.4,172.8z"/>
<linearGradient id="SVGID_00000061472290378764118950000008411334375912050078_" gradientUnits="userSpaceOnUse" x1="-137.121" y1="343.7264" x2="577.5617" y2="342.225">
	<stop  offset="0" style="stop-color:#946AF9"/>
	<stop  offset="1" style="stop-color:#EAE2FD"/>
</linearGradient>
<path style="fill:url(#SVGID_00000061472290378764118950000008411334375912050078_);" d="M503.4,381.7H370.5c-7.2,0-13-5.8-13-13
	v-52.2c0-7.2,5.8-13,13-13h132.9c7.2,0,13,5.8,13,13v52.2C516.4,375.8,510.6,381.7,503.4,381.7z"/>
<linearGradient id="SVGID_00000139975978009687260310000018307044173624865960_" gradientUnits="userSpaceOnUse" x1="-136.6633" y1="553.5872" x2="578.0193" y2="552.0857">
	<stop  offset="0" style="stop-color:#946AF9"/>
	<stop  offset="1" style="stop-color:#EAE2FD"/>
</linearGradient>
<path style="fill:url(#SVGID_00000139975978009687260310000018307044173624865960_);" d="M503.4,591.5H370.5c-7.2,0-13-5.8-13-13
	v-52.2c0-7.2,5.8-13,13-13h132.9c7.2,0,13,5.8,13,13v52.2C516.4,585.7,510.6,591.5,503.4,591.5z"/>
<linearGradient id="SVGID_00000141430750116404338320000016090833779725753012_" gradientUnits="userSpaceOnUse" x1="-398.8537" y1="737.1812" x2="315.829" y2="735.6797">
	<stop  offset="0" style="stop-color:#946AF9"/>
	<stop  offset="1" style="stop-color:#EAE2FD"/>
</linearGradient>
<path style="fill:url(#SVGID_00000141430750116404338320000016090833779725753012_);" d="M246,775.1H113.2c-7.2,0-13-5.8-13-13
	v-52.2c0-7.2,5.8-13,13-13H246c7.2,0,13,5.8,13,13v52.2C259.1,769.3,253.2,775.1,246,775.1z"/>
<text transform="matrix(1 0 0 1 127.3843 125.7051)"><tspan x="0" y="0" class="st7 st8 st9">Family members </tspan><tspan x="-12.8" y="14.7" class="st7 st8 st9">participate in clinical </tspan><tspan x="22.7" y="29.5" class="st7 st8 st9">activities?</tspan></text>
<text transform="matrix(1 0 0 1 412.5352 131.0962)"><tspan x="0" y="0" class="st10 st8 st11">Single</tspan><tspan x="-4.9" y="18.9" class="st10 st12 st11">Patient</tspan></text>
<text transform="matrix(1 0 0 1 378.1825 338.8442)"><tspan x="0" y="0" class="st10 st12 st11">RelatedPerson</tspan><tspan x="29.7" y="18.9" class="st10 st12 st11">Patient</tspan></text>
<text transform="matrix(1 0 0 1 368.656 557.6882)"><tspan x="0" y="0" class="st10 st12 st11">RelatedPerson</tspan><tspan x="0" y="18.9" class="st10 st12 st11">Patient</tspan></text>
<text transform="matrix(1 0 0 1 135.5184 338.2875)"><tspan x="0" y="0" class="st7 st8 st9">Patients share</tspan><tspan x="-10.2" y="14.7" class="st7 st8 st9">family members?</tspan></text>
<text transform="matrix(1 0 0 1 120.8049 557.0697)" class="st7 st8 st9">Focus of treatment</text>
<g>
	<text transform="matrix(1 0 0 1 144.7275 732.6336)"><tspan x="0" y="0" class="st10 st12 st11">Group </tspan><tspan x="53.3" y="0" class="st10 st8 st11">of </tspan><tspan x="2.9" y="18.9" class="st10 st12 st11">Patients</tspan></text>
</g>
<g>
	<g>
		<g>
			<line class="st13" x1="262.4" y1="133.7" x2="263.9" y2="133.7"/>
			<line class="st14" x1="270.1" y1="133.7" x2="340.1" y2="133.7"/>
			<line class="st13" x1="343.2" y1="133.7" x2="344.7" y2="133.7"/>
		</g>
	</g>
	<polyline class="st15" points="343.1,126 349.9,134 342.5,141.3 	"/>
</g>
<g>
	<g>
		<g>
			<line class="st13" x1="179.6" y1="203.2" x2="179.6" y2="204.7"/>
			<line class="st16" x1="179.6" y1="210.9" x2="179.6" y2="262.6"/>
			<line class="st13" x1="179.6" y1="265.7" x2="179.6" y2="267.2"/>
		</g>
	</g>
	<polyline class="st15" points="187.2,265.5 179.2,272.3 172,265 	"/>
</g>
<g>
	<g>
		<g>
			<line class="st13" x1="179.6" y1="413.8" x2="179.6" y2="415.3"/>
			<line class="st16" x1="179.6" y1="421.4" x2="179.6" y2="473.1"/>
			<line class="st13" x1="179.6" y1="476.2" x2="179.6" y2="477.7"/>
		</g>
	</g>
	<polyline class="st15" points="187.2,476 179.2,482.9 172,475.5 	"/>
</g>
<g>
	<g>
		<g>
			<line class="st13" x1="179.6" y1="621.9" x2="179.6" y2="623.4"/>
			<line class="st16" x1="179.6" y1="629.6" x2="179.6" y2="681.3"/>
			<line class="st13" x1="179.6" y1="684.3" x2="179.6" y2="685.9"/>
		</g>
	</g>
	<polyline class="st15" points="187.2,684.2 179.2,691 172,683.7 	"/>
</g>
<rect x="295.4" y="124.1" class="st7" width="26.3" height="21.3"/>
<text transform="matrix(1 0 0 1 300.1878 137.8735)" class="st17 st8 st9">No</text>
<g>
	<g>
		<g>
			<line class="st13" x1="262.4" y1="341.5" x2="263.9" y2="341.5"/>
			<line class="st14" x1="270.1" y1="341.5" x2="340.1" y2="341.5"/>
			<line class="st13" x1="343.2" y1="341.5" x2="344.7" y2="341.5"/>
		</g>
	</g>
	<polyline class="st15" points="343.1,333.9 349.9,341.8 342.5,349.1 	"/>
</g>
<rect x="284.9" y="331.9" class="st7" width="46.5" height="21.3"/>
<text transform="matrix(1 0 0 1 289.5428 345.6775)" class="st17 st8 st9">Rarely</text>
<g>
	<g>
		<g>
			<line class="st13" x1="262.4" y1="554.3" x2="263.9" y2="554.3"/>
			<line class="st14" x1="270.1" y1="554.3" x2="340.1" y2="554.3"/>
			<line class="st13" x1="343.2" y1="554.3" x2="344.7" y2="554.3"/>
		</g>
	</g>
	<polyline class="st15" points="343.1,546.7 349.9,554.7 342.5,562 	"/>
</g>
<rect x="276.1" y="544.8" class="st7" width="55" height="21.3"/>
<text transform="matrix(1 0 0 1 275.4376 550.5581)"><tspan x="0" y="0" class="st17 st8 st18">Individual</tspan><tspan x="8" y="13.6" class="st17 st8 st18">Patient</tspan></text>
<rect x="164.3" y="224.9" class="st7" width="31.5" height="18.2"/>
<text transform="matrix(1 0 0 1 169.0187 237.9897)" class="st17 st8 st9">Yes</text>
<rect x="164.3" y="436.5" class="st7" width="31.5" height="18.2"/>
<text transform="matrix(1 0 0 1 146.4846 449.5733)" class="st17 st8 st9">Frequently</text>
<rect x="164.3" y="644.4" class="st7" width="31.5" height="18.2"/>
<text transform="matrix(1 0 0 1 144.9485 657.4636)" class="st17 st8 st9">Family Unit</text>
<g>
	<path class="st10" d="M392.2,355.5h-12.4c-0.2,0-0.4-0.2-0.4-0.4v-4.9c0-0.2,0.2-0.4,0.4-0.4h12.4V355.5z"/>
	<path class="st10" d="M396.4,352.8l-4.8,5.5c-0.1,0.2-0.4,0.1-0.4-0.2v-11c0-0.2,0.3-0.3,0.4-0.2l4.8,5.5
		C396.5,352.6,396.5,352.7,396.4,352.8z"/>
</g>
<g>
	<path class="st10" d="M444.2,537.8h-12.4c-0.2,0-0.4-0.2-0.4-0.4v-4.9c0-0.2,0.2-0.4,0.4-0.4h12.4V537.8z"/>
	<path class="st10" d="M448.5,535.1l-4.8,5.5c-0.1,0.2-0.4,0.1-0.4-0.2v-11c0-0.2,0.3-0.3,0.4-0.2l4.8,5.5
		C448.6,534.9,448.6,535,448.5,535.1z"/>
</g>
<g>
	<path class="st10" d="M502.8,556.2h-12.5c-0.2,0-0.4-0.2-0.4-0.4v-5c0-0.2,0.2-0.4,0.4-0.4h12.5V556.2z"/>
	<path class="st10" d="M507,553.5l-4.8,5.5c-0.1,0.2-0.4,0.1-0.4-0.2v-11c0-0.2,0.3-0.3,0.4-0.2l4.8,5.5
		C507.1,553.3,507.1,553.5,507,553.5z"/>
</g>
<text transform="matrix(1 0 0 1 368.6559 539.6861)" class="st10 st12 st11">Patient </text>
</svg>
