<?xml version="1.0" encoding="UTF-8" standalone="no"?>
<svg
   width="2in"
   height="2in"
   viewBox="0 0 50.799995 50.800005"
   version="1.1"
   id="svg8"
   xmlns="http://www.w3.org/2000/svg"
   xmlns:svg="http://www.w3.org/2000/svg"
   xmlns:rdf="http://www.w3.org/1999/02/22-rdf-syntax-ns#"
   xmlns:cc="http://creativecommons.org/ns#"
   xmlns:dc="http://purl.org/dc/elements/1.1/">
  <title
     id="title925">Medplum Logo</title>
  <defs
     id="defs2">
    <rect
       x="10.690781"
       y="10.690781"
       width="171.05251"
       height="36.883194"
       id="rect835" />
  </defs>
  <metadata
     id="metadata5">
    <rdf:RDF>
      <cc:Work
         rdf:about="">
        <dc:format>image/svg+xml</dc:format>
        <dc:type
           rdf:resource="http://purl.org/dc/dcmitype/StillImage" />
        <dc:title>Medplum Logo</dc:title>
        <cc:license
           rdf:resource="http://creativecommons.org/publicdomain/zero/1.0/" />
        <dc:creator>
          <cc:Agent>
            <dc:title>Medplum &lt;hello@medplum.com&gt;</dc:title>
          </cc:Agent>
        </dc:creator>
      </cc:Work>
      <cc:License
         rdf:about="http://creativecommons.org/publicdomain/zero/1.0/">
        <cc:permits
           rdf:resource="http://creativecommons.org/ns#Reproduction" />
        <cc:permits
           rdf:resource="http://creativecommons.org/ns#Distribution" />
        <cc:permits
           rdf:resource="http://creativecommons.org/ns#DerivativeWorks" />
      </cc:License>
    </rdf:RDF>
  </metadata>
  <g
     id="layer1">
    <g
       id="g923"
       transform="matrix(0.10348183,0,0,0.10348183,-0.38634147,0.03102769)">
      <path
         fill="#ad7136"
         d="m 282,67 c 6,-16 16,-29 29,-40 L 289,0 c -22,17 -37,41 -43,68 l 17,23 z"
         id="path900" />
      <path
         fill="#7e4f9b"
         d="m 311,63 c -17,0 -33,4 -48,11 -16,-7 -32,-11 -49,-11 -87,0 -158,96 -158,214 0,118 71,214 158,214 17,0 33,-4 49,-11 15,7 31,11 48,11 87,0 158,-96 158,-214 C 469,159 398,63 311,63 Z"
         id="path902" />
      <path
         fill="#5a2878"
         d="m 231,489 -17,2 C 127,491 56,395 56,277 56,159 127,63 214,63 l 17,1 c -39,12 -70,102 -70,213 0,111 31,201 70,212 z"
         id="path904" />
      <path
         fill="#70d65b"
         d="M 207,220 A 176,176 0 0 1 30,263 176,176 0 0 1 251,43 l 1,5 c 17,59 2,125 -45,172 z"
         id="path906" />
      <path
         fill="#58b741"
         d="M 252,48 A 421,421 0 0 0 57,270 L 30,263 A 176,176 0 0 1 251,43 Z"
         id="path908" />
    </g>
  </g>
</svg>
