<svg xmlns="http://www.w3.org/2000/svg" width="94.89" height="113.6">
  <path fill="#0073b5" d="M0 113.6h94.9V0H0zm0 0"/>
  <path fill="#fff" d="M66.1 46.36h7.62l-1.56-5.45h-4.34l3.86-11.33 8 24.1h6.83L74.65 22.03h-6.28L56.48 53.66h7.1zm-50.03-5.74h8.9v-5.67h-8.9V27.7H42.8c1.33.06 2.5.26 3.44.68 1.08.47 1.96 1.13 2.63 2 .68.84 1.18 1.9 1.5 3.15.3 1.26.45 2.65.45 4.2 0 1.56-.18 2.96-.53 4.22-.36 1.25-.92 2.34-1.67 3.25-.75.92-1.74 1.62-2.95 2.1-1.2.5-2.67.74-4.38.74h-4.25V35h-6.6v18.66h10.72c2.57 0 4.87-.34 6.9-1.02 2.05-.68 3.77-1.7 5.2-3.05 1.4-1.37 2.5-3.04 3.25-5.02.75-1.97 1.12-4.28 1.12-6.9 0-5.17-1.35-9.07-4.05-11.7-2.48-2.4-5.87-3.74-10.14-3.94h-34v31.62h6.6zm0 0"/>
</svg>