<svg width="108" height="270" viewBox="0 0 108 270" fill="none" xmlns="http://www.w3.org/2000/svg">
<path d="M67.1777 226.893C73.2381 229.963 78.8342 234.197 81.1797 242.233C82.2028 228.932 74.7414 223.155 67.3351 219.259C67.343 219.275 67.1777 226.901 67.1777 226.893Z" fill="#91A7FF"/>
<path d="M107.483 91.8322C107.483 79.7349 98.7073 66.3233 77.2203 61.5852C75.6305 61.2389 73.1984 60.9949 70.6641 60.8296C70.6168 62.6477 70.5224 66.827 70.5224 66.827C70.4909 68.1336 70.3886 72.9819 70.365 74.0208C72.3405 74.194 73.8123 74.438 74.4892 74.6033C86.98 77.5862 91.4505 84.7486 91.4505 91.8322C91.4505 103.307 81.6279 107.636 69.5701 110.903C68.2635 111.257 66.9255 111.595 65.5796 111.942C61.9198 112.855 58.1418 113.736 54.4348 114.736C53.0967 115.09 51.7745 115.476 50.4679 115.869C37.0957 119.938 25.6045 126.384 25.6045 142.905C25.6045 159.268 38.717 165.383 51.5147 169.327C51.4282 164.628 51.3337 159.882 51.2471 155.144C45.5881 152.499 41.6056 149.005 41.6056 143.133C41.6056 137.395 45.2339 133.94 50.7828 131.429C52.0106 130.871 53.3329 130.367 54.7338 129.887C57.9215 128.801 61.5026 127.888 65.2569 126.975C66.5713 126.66 67.9093 126.337 69.2552 126.007C87.2791 121.646 107.483 116.003 107.483 91.8322Z" fill="#91A7FF"/>
<path d="M42.717 207.24C42.7484 213.851 47.6046 217.456 52.4766 220.171C52.4608 219.062 52.2641 208.83 52.2641 208.657C52.3664 206.618 54.3498 205.39 55.9397 204.643C58.2851 203.533 60.6621 202.73 63.6844 201.683C65.1247 201.179 66.3683 200.691 67.7457 200.274C77.5289 197.331 88.8312 193.576 88.8312 181.676C88.8312 169.76 79.1345 164.888 68.5327 161.228C68.454 165.022 68.3439 170.555 68.273 174.388C72.7514 176.143 75.7108 178.284 75.7108 181.676C75.7108 185.934 71.1616 188.39 67.9346 189.633C66.5966 190.161 64.5502 190.837 63.9835 191.018C61.3783 191.821 58.5842 192.758 55.979 193.718C54.5938 194.23 53.2636 194.796 52.0122 195.434C47.4315 197.787 42.6855 201.219 42.717 207.24Z" fill="#91A7FF"/>
<path d="M49.3403 62.7153C42.8313 64.5728 39.0061 67.0285 37.5579 67.5164C33.3392 68.9174 27.3969 69.1535 21.2578 75.8357C20.1637 77.0321 17.5034 80.3771 15.6145 83.1161C13.7649 85.7843 13.6862 90.0738 12.3245 92.372C10.3569 95.7092 10.8212 97.6218 10.8212 97.6218L10.8842 97.7162C10.8134 98.1333 10.4198 99.9043 8.62533 101.904C6.57109 104.178 3.87145 105.445 0.652344 104.934C3.44643 106.327 7.3188 104.375 7.3188 104.375C7.3188 104.375 6.57896 106.484 5.83911 109.939C8.97951 102.824 11.8523 100.235 12.7574 99.5107C14.1112 99.8177 16.8974 99.6917 22.0842 96.7166C27.9478 93.3559 36.7708 87.8543 39.2658 84.3833C41.9576 80.6369 45.6568 78.1576 49.6551 76.552C49.5449 71.3101 49.4348 66.6428 49.3403 62.7153ZM24.5949 84.887L21.5647 85.5482L25.1852 79.6215L29.4275 79.7553L24.5949 84.887Z" fill="#91A7FF"/>
<path d="M61.4475 206.422C60.8887 206.618 59.4169 207.248 58.4881 207.571C57.5043 207.925 56.2607 208.421 56.2607 208.775C56.2607 208.862 57.1974 260.029 57.1974 261.154C57.1974 271.693 62.573 271.756 62.573 261.154C62.573 260.399 63.6513 205.698 63.6513 205.698C63.6513 205.698 62.3605 206.091 61.4475 206.422Z" fill="#91A7FF"/>
<path d="M55.8946 189.538C57.5711 188.955 59.2239 188.444 60.7823 187.963C61.9472 187.609 63.0255 187.271 64.025 186.94C64.0959 183.721 65.0089 139.189 65.1741 131.098C61.1758 132.09 57.6891 133.026 54.8242 134.081C54.9423 140.157 55.8002 184.674 55.8946 189.538Z" fill="#91A7FF"/>
<path d="M60.3647 19C45.2924 19 51.6912 41.3527 52.8876 48.6409C52.9427 48.9793 54.1075 99.1391 54.3436 110.654C56.634 110.048 58.9086 109.489 61.1124 108.946C62.6944 108.56 64.2056 108.182 65.6617 107.812C65.8978 96.7307 67.0075 48.8613 67.039 48.5465C67.9363 40.7545 75.8384 19 60.3647 19Z" fill="#91A7FF"/>
</svg>
