<svg width="121" height="33" viewBox="0 0 121 33" fill="none" xmlns="http://www.w3.org/2000/svg">
<g clip-path="url(#clip0_3337_2195)">
<path d="M2.01828 32.1683C1.49544 32.1683 1.16679 32.1456 0.696239 32.1456C0.195807 32.1456 -0.00585938 32.0776 -0.00585938 31.8962C-0.00585938 31.7527 0.128585 31.5411 0.337721 31.2313C0.95019 30.3548 1.39087 29.3574 1.50291 28.0351C1.60747 26.7052 1.62988 25.5642 1.64482 24.1588C1.65229 23.0934 1.71204 21.9676 1.71204 20.9248C1.71204 19.134 1.62241 17.4566 1.65976 15.4013C1.6747 14.7364 1.6747 14.1848 1.6747 13.7088C1.6747 12.4998 1.64482 11.7366 1.64482 10.641C1.64482 8.92576 1.62241 7.11985 1.58507 5.42729C1.55519 3.97652 0.86056 2.50309 0.106178 1.49813C-0.00585938 1.34701 0.00160975 1.20344 0.218215 1.14299C0.34519 1.10521 0.51698 1.09766 0.651425 1.09766C1.37593 1.09766 2.15272 1.11277 2.92951 1.12788C3.17599 1.12788 3.42247 1.12788 3.66896 1.12788C4.45321 1.12788 5.24494 1.09766 6.0292 1.09766C6.55204 1.09766 6.88068 1.12032 7.34377 1.12032C7.8442 1.12032 8.04587 1.18833 8.04587 1.36968C8.04587 1.51324 7.91142 1.72481 7.70229 2.03461C7.08982 2.91112 6.64914 3.90852 6.5371 5.23083C6.43254 6.5607 6.41013 7.70167 6.39519 9.11466C6.39519 9.63603 6.39519 10.1498 6.39519 10.6561C6.39519 11.3059 6.39519 11.9482 6.39519 12.5905C6.39519 12.802 6.52217 12.9834 6.69396 12.9834C7.32883 12.9834 7.81433 12.9834 8.65834 12.9758C9.29321 12.9758 9.92062 12.9758 10.5555 12.9758C10.9738 12.9758 11.3995 12.9758 11.8178 12.9758C11.9821 12.9758 12.1091 12.7945 12.1091 12.5905C12.1016 11.9331 12.0867 11.3588 12.0867 10.6334C12.0867 8.92576 12.0643 7.11985 12.0269 5.42729C11.997 3.96897 11.3024 2.50309 10.548 1.49813C10.436 1.34701 10.4435 1.20344 10.6601 1.14299C10.787 1.10521 10.9588 1.09766 11.0933 1.09766C12.012 1.09766 12.9307 1.12032 13.8494 1.12032C14.7681 1.12032 15.6046 1.09766 16.4785 1.09766C17.0014 1.09766 17.33 1.12032 17.8006 1.12032C18.301 1.12032 18.5027 1.18833 18.5027 1.36968C18.5027 1.51324 18.3682 1.73237 18.1591 2.03461C17.5466 2.91112 17.1059 3.90852 16.9939 5.23083C16.8893 6.5607 16.8669 7.70167 16.852 9.11466C16.837 10.3614 16.7773 11.4419 16.7773 12.6433C16.7773 14.2528 16.8669 16.0134 16.8296 17.8722C16.8146 18.5371 16.8146 19.0887 16.8146 19.5647C16.8146 20.7737 16.8445 21.5444 16.8445 22.6325C16.8445 24.3477 16.8669 26.1536 16.9043 27.8462C16.9341 29.297 17.6288 30.7704 18.3757 31.7753C18.4877 31.9189 18.4803 32.07 18.2636 32.1305C18.1367 32.1683 17.9724 32.1758 17.8304 32.1758C17.1059 32.1758 16.3291 32.1607 15.5524 32.1456C15.3059 32.1456 15.0594 32.1456 14.8129 32.1456C14.0286 32.1456 13.2369 32.1758 12.4452 32.1758C11.9223 32.1758 11.5937 32.1532 11.1232 32.1532C10.6227 32.1532 10.4211 32.0851 10.4211 31.9038C10.4211 31.7602 10.548 31.5487 10.7646 31.2389C11.3771 30.3624 11.8178 29.365 11.9298 28.0426C12.0344 26.7128 12.0568 25.5718 12.0717 24.1588C12.0717 23.6374 12.0717 23.1236 12.0717 22.6174C12.0717 20.9701 12.0493 19.3758 12.0568 17.6379C12.0568 17.4263 11.9298 17.2374 11.758 17.2374C11.168 17.245 10.5854 17.2677 10.0028 17.2677C8.90482 17.2677 7.79939 17.2223 6.69396 17.2374C6.5147 17.2374 6.36531 17.4037 6.36531 17.6228C6.36531 17.6984 6.36531 17.7739 6.36531 17.857C6.35038 18.522 6.35038 19.0736 6.35038 19.5496C6.35038 20.7586 6.38025 21.5293 6.38025 22.6249C6.38025 24.3326 6.40266 26.1385 6.44 27.8311C6.46988 29.2818 7.16451 30.7553 7.91142 31.7602C8.02346 31.9114 8.01599 32.0549 7.79939 32.1154C7.67241 32.1532 7.50809 32.1607 7.36618 32.1607C6.44747 32.1607 5.52877 32.138 4.61007 32.138C3.69136 32.138 2.85482 32.1607 1.98093 32.1607L2.01828 32.1683Z" fill="#E31C45"/>
<path d="M22.6916 32.1683C22.1688 32.1683 21.8401 32.1456 21.3696 32.1456C20.8691 32.1456 20.6675 32.0776 20.6675 31.8963C20.6675 31.7527 20.8019 31.5411 21.0111 31.2313C21.6235 30.3548 22.0642 29.3574 22.1762 28.0351C22.2808 26.7052 22.3032 25.5643 22.3182 24.1588C22.3182 23.6375 22.3256 23.1312 22.3256 22.6249C22.3256 21.1893 22.3107 19.7839 22.3107 18.2953C22.3107 17.3735 22.3107 16.4214 22.3406 15.4089C22.3555 14.7439 22.3555 14.1924 22.3555 13.7163C22.3555 12.5073 22.3256 11.7442 22.3256 10.6486C22.3256 8.93333 22.3032 7.12742 22.2659 5.43486C22.236 3.98409 21.5414 2.51066 20.7945 1.5057C20.6824 1.35458 20.6899 1.21101 20.9065 1.15056C21.0335 1.11278 21.1978 1.10522 21.3397 1.10522C22.0642 1.10522 22.841 1.12034 23.6178 1.13545C23.8643 1.13545 24.1108 1.13545 24.3572 1.13545C25.1415 1.13545 25.9332 1.10522 26.7175 1.10522C27.2403 1.10522 27.569 1.12789 28.032 1.12789C28.5325 1.12789 28.7341 1.1959 28.7341 1.37724C28.7341 1.52081 28.5997 1.73238 28.3906 2.04218C27.7781 2.91868 27.3374 3.91609 27.2254 5.2384C27.1208 6.56827 27.0984 7.70924 27.0835 9.12223C27.0685 10.4143 27.0387 11.6837 27.0387 12.9456C27.0387 14.5248 27.1059 16.0663 27.0685 17.8722C27.0536 18.5371 27.0536 19.0887 27.0536 19.5647C27.0536 20.7737 27.0835 21.5444 27.0835 22.6401C27.0835 24.3477 27.1059 26.1536 27.1432 27.8462C27.1731 29.297 27.8677 30.7704 28.6146 31.7754C28.7267 31.9265 28.7192 32.07 28.5026 32.1305C28.3756 32.1683 28.2113 32.1758 28.0694 32.1758C27.1507 32.1758 26.232 32.1532 25.3133 32.1532C24.3946 32.1532 23.558 32.1758 22.6841 32.1758L22.6916 32.1683Z" fill="#E31C45"/>
<path d="M35.7249 32.1531C35.2021 32.1531 34.8735 32.1304 34.4029 32.1304C33.9025 32.1304 33.7008 32.0624 33.7008 31.8811C33.7008 31.7375 33.8353 31.526 34.0444 31.2162C34.6569 30.3397 35.0975 29.3423 35.2096 28.0199C35.3141 26.6901 35.3365 25.5491 35.3515 24.1437C35.3664 22.6551 35.3814 21.2648 35.3814 19.8216C35.3814 18.4464 35.3365 16.9805 35.3664 15.3937C35.3814 14.7288 35.3888 14.1772 35.3888 13.7012C35.3888 12.4922 35.359 11.7215 35.359 10.6258C35.359 9.68888 35.3664 8.61592 35.3664 7.55807C35.3664 6.95358 35.3664 6.36421 35.359 5.7975C35.359 5.57838 35.217 5.41214 35.0378 5.41214C34.4701 5.41214 33.9099 5.42725 33.3498 5.44237C32.192 5.48015 30.997 6.39443 30.1903 7.33894C30.0708 7.48251 29.9588 7.4674 29.9065 7.19538C29.8766 7.0367 29.8691 6.82513 29.8691 6.65134C29.8691 5.73705 29.8766 4.76232 29.8915 3.78003C29.8915 3.4929 29.8915 3.21332 29.8915 2.92619C29.8915 2.57106 29.8915 1.98168 29.8915 1.62655C29.8915 1.19585 30.0932 1.08251 30.4368 1.08251H32.8269C34.0743 1.10518 35.3291 1.12784 36.5764 1.12784C37.8238 1.12784 39.0114 1.09762 40.2363 1.09762C40.8189 1.09762 41.6853 1.12029 42.2082 1.11273L45.0539 1.07495C45.4199 1.07495 45.5767 1.18074 45.5767 1.70211C45.5767 2.73729 45.5991 4.09738 45.5991 4.93611C45.5991 5.59349 45.5842 6.00907 45.5842 6.59845C45.5842 7.2256 45.5319 7.48251 45.3825 7.48251C45.2705 7.48251 45.0987 7.31627 44.8522 7.04426C44.1576 6.27354 43.3584 5.63127 42.3127 5.50281C41.6704 5.4197 41.0803 5.41214 40.4604 5.41214C40.2961 5.41214 40.1541 5.57838 40.1541 5.78239C40.1467 6.98381 40.1317 8.23812 40.1168 9.0844C40.1168 9.60577 40.1093 10.112 40.1093 10.6183C40.1093 12.0539 40.1243 13.4518 40.1243 14.9479C40.1243 15.8698 40.1243 16.8218 40.0944 17.8419C40.0794 18.5068 40.0794 19.0584 40.0794 19.5345C40.0794 20.751 40.1093 21.5142 40.1093 22.6098C40.1093 24.3175 40.1317 26.1234 40.1691 27.8159C40.199 29.2667 40.8936 30.7401 41.6405 31.7451C41.7525 31.8962 41.7451 32.0398 41.5285 32.1002C41.4015 32.138 41.2372 32.1456 41.0953 32.1456C40.1765 32.1456 39.2578 32.1229 38.3391 32.1229C37.4204 32.1229 36.5839 32.1456 35.71 32.1456L35.7249 32.1531Z" fill="#232964"/>
<path d="M53.4645 15.5147C53.5691 15.5147 53.6811 15.5147 53.7932 15.5147C54.2114 15.5147 54.8687 15.5223 55.0853 15.5147C56.8032 15.4165 57.2439 15.288 58.0207 14.1319C58.4091 13.5501 58.5137 12.7341 58.551 12.0162C58.5809 11.442 58.6108 10.8602 58.6108 10.2783C58.6108 9.4774 58.5585 8.67645 58.4166 7.88307C58.3045 7.29369 58.0506 6.6892 57.692 6.26606C56.9227 5.35933 55.6455 5.32911 54.7343 5.32911C54.3758 5.32911 54.0023 5.34422 53.6512 5.37445C53.4944 5.38956 53.3674 5.41978 53.2554 5.53312C53.1807 5.61624 53.1732 5.79003 53.1732 5.9336C53.1732 6.23584 53.1732 6.53053 53.1732 6.69676C53.1732 7.19546 53.1732 7.68661 53.1732 8.1702C53.1732 8.75201 53.1732 9.32628 53.1658 9.92321C53.1583 10.4748 53.1508 11.3513 53.1508 12.2883C53.1508 13.2857 53.1508 14.3435 53.1658 15.1293C53.1658 15.3409 53.2927 15.5298 53.4645 15.5223V15.5147ZM59.5892 32.1532C58.9543 32.1532 58.312 32.1532 57.6771 32.1381C57.6398 32.1381 57.5427 32.1381 57.4306 32.1381C57.2887 32.1381 57.1169 32.1305 56.99 32.0927C56.7733 32.0323 56.7584 31.8887 56.8779 31.7376C57.3335 31.1256 57.8713 30.5286 58.1327 29.705C58.2 29.5086 58.2224 29.3121 58.2224 29.1157C58.2224 28.5641 58.0132 28.0049 57.8489 27.4004C57.5725 26.3879 57.3634 25.519 57.1319 24.7558C56.7435 23.4713 56.3401 22.3983 55.7949 20.7511C55.765 20.6604 55.6978 20.3959 55.5783 20.0484C55.4961 19.8217 55.3318 19.7537 55.1376 19.7537C54.809 19.7537 54.5102 19.7612 54.2712 19.7612C54.1965 19.7612 53.5915 19.7839 53.5243 19.7839C53.345 19.7839 53.2031 19.9199 53.2031 20.139C53.1956 21.2573 53.1807 21.8467 53.1807 22.0356C53.1807 23.1312 53.1807 23.902 53.1956 25.3149C53.2106 27.9293 53.1658 28.2391 53.4197 29.1685C53.6811 30.1357 54.1741 31.05 54.6895 31.7376C54.8015 31.8812 54.794 32.0247 54.5774 32.0927C54.4504 32.1305 54.2861 32.1381 54.1442 32.1381C52.9641 32.1381 51.7914 32.1003 50.6113 32.1003C49.6403 32.1003 48.632 32.1456 47.7058 32.1305C47.6685 32.1305 47.5714 32.1305 47.4593 32.1305C47.3174 32.1305 47.1531 32.123 47.0261 32.0852C46.8095 32.0247 46.802 31.8812 46.9141 31.7301C47.661 30.7251 48.3556 29.2517 48.3855 27.8009C48.4154 26.2292 48.4453 24.5593 48.4453 22.9574C48.4453 21.7031 48.4751 20.9173 48.4751 19.6554C48.4751 19.1492 48.4751 18.5598 48.4527 17.8269C48.4154 16.0814 48.4751 14.6231 48.4751 13.0816C48.4751 11.7593 48.4527 10.4144 48.4378 9.06937C48.4228 7.65638 48.4004 6.51541 48.2959 5.1931C48.1913 3.87079 47.7506 2.87338 47.1307 1.99688C46.9141 1.69464 46.7871 1.46795 46.7871 1.30927C46.7871 1.1506 46.9216 1.07504 47.2427 1.07504C47.8253 1.07504 48.1614 1.05237 48.7141 1.05237C49.4611 1.05237 50.193 1.08259 50.9325 1.08259C52.8296 1.08259 51.1864 1.05237 55.5111 1.05237C56.131 1.05237 56.7808 1.13549 57.3933 1.22616C59.044 1.46795 60.7917 2.35957 61.9121 3.96902C62.9055 5.39711 63.3014 7.18791 63.3462 8.9787C63.3985 11.4949 63.264 13.1497 62.7188 15.0613C62.3752 16.2628 61.6731 17.1922 60.8291 17.842C60.6797 17.9553 60.5303 18.0611 60.3735 18.1593C60.1643 18.2953 60.1643 18.5598 60.239 18.8016C60.5901 19.8821 60.9337 21.0382 61.2996 22.1263C61.6731 23.2521 61.9719 24.0153 62.4648 25.4887C63.5777 28.9343 63.7271 29.6597 64.7429 30.9064C64.9595 31.1785 65.079 31.3598 65.2956 31.6394C65.4077 31.7829 65.46 32.0323 65.2807 32.0701C65.0865 32.1079 64.7952 32.1079 64.6608 32.1079C62.9727 32.1079 61.2922 32.123 59.6191 32.123L59.5892 32.1532Z" fill="#232964"/>
<path d="M73.8483 32.5762C72.6756 32.5762 71.4432 32.3798 70.42 31.6317C69.2772 30.793 68.2614 29.652 67.5966 27.9293C66.536 25.1713 66.4538 22.0657 66.4389 19.0584C66.4389 17.8948 66.4016 16.6631 66.424 15.3408C66.4389 14.6759 66.4464 14.1319 66.4464 13.6483C66.4464 12.4469 66.4165 11.6837 66.4165 10.5956C66.4165 8.88794 66.3941 7.08203 66.3567 5.39703C66.3269 3.94626 65.6322 2.48794 64.8853 1.48298C64.7733 1.33941 64.7808 1.19585 64.9974 1.12784C65.1243 1.09006 65.2887 1.08251 65.4306 1.08251C66.3194 1.08251 67.2904 1.11273 68.2464 1.11273C69.1278 1.11273 70.0092 1.08251 70.8905 1.08251C71.4134 1.08251 71.742 1.10518 72.2126 1.10518C72.713 1.10518 72.9147 1.17318 72.9147 1.35453C72.9147 1.49809 72.7802 1.70966 72.5711 2.01191C71.9586 2.88085 71.5179 3.87826 71.4059 5.19301C71.3013 6.51533 71.2789 7.6563 71.264 9.05417C71.2565 9.85512 71.249 10.3614 71.249 10.7543C71.249 11.4721 71.2565 11.7744 71.2565 12.7038C71.2565 13.142 71.2565 13.7087 71.2565 14.5323C71.2565 15.5977 71.2714 19.066 71.2789 19.6554C71.2789 21.1666 71.2864 22.7156 71.3984 23.7432C71.6076 25.7304 72.1453 26.8487 73.4076 27.6043C73.8035 27.8386 74.2516 27.9595 74.7147 27.9595C75.7305 27.9595 76.7762 27.3928 77.3364 26.282C77.6426 25.67 77.7696 25.0428 77.9115 24.3779C78.1729 23.116 78.1953 21.2875 78.1953 19.7158C78.1953 18.3255 78.1804 17.1845 78.1804 16.9805C78.1804 16.5649 78.1655 16.0587 78.1655 15.6128C78.1655 13.2025 78.158 12.2731 78.158 10.8525C78.158 9.07684 78.1356 7.17271 78.0982 5.38947C78.0684 3.93871 77.3812 2.48038 76.6418 1.47542C76.5297 1.33186 76.5372 1.18829 76.7538 1.12029C76.8733 1.08251 77.0451 1.07495 77.1795 1.07495C78.2999 1.07495 79.4053 1.10518 80.5182 1.10518C81.0411 1.10518 81.5714 1.10518 82.0942 1.09006H82.1241C82.4378 1.09006 82.5722 1.16562 82.5722 1.3243C82.5722 1.48298 82.4453 1.70211 82.2287 2.00435C81.6237 2.8733 81.183 3.8707 81.0859 5.18546C80.9813 6.50777 80.9589 7.64874 80.944 9.04662C80.929 10.3236 80.9216 11.525 80.9216 12.7491C80.9216 14.3056 80.9365 15.9 80.9664 17.7134C80.9664 18.2046 80.9813 18.6882 80.9813 19.1793C80.9813 19.7082 80.9813 20.2372 80.9813 20.7661C80.9813 23.2672 80.8992 25.7833 79.9356 28.035C79.3082 29.5009 78.3447 30.8081 77.2617 31.5788C76.1114 32.3949 75.0658 32.5536 73.8558 32.5536L73.8483 32.5762Z" fill="#232964"/>
<path d="M91.2952 32.5763C89.9209 32.5763 88.5914 32.1834 87.583 31.3749C87.0154 30.9215 86.5672 30.5966 86.1191 30.5966C85.6336 30.5966 85.1481 30.9593 84.5057 31.9189C84.3265 32.1834 84.1323 32.3723 83.9829 32.3723C83.8335 32.3723 83.7215 32.1758 83.7215 31.662C83.7215 30.6495 83.7514 29.3347 83.7514 27.9897C83.7514 26.8941 83.7364 25.806 83.7514 24.9749C83.7514 24.393 83.7514 23.8037 83.7514 23.2218C83.7514 23.1689 83.7514 23.1085 83.7514 23.0481C83.7514 22.7458 83.7663 22.3529 83.9456 22.2622C84.1099 22.1791 84.3489 22.164 84.5804 22.164C85.0659 22.164 85.3722 22.1489 85.5888 22.1489C85.8054 22.1489 85.9323 22.164 86.0519 22.2169C86.2236 22.2924 86.2461 22.5796 86.5 23.4183C86.6344 23.8717 86.7689 24.325 86.9332 24.7633C87.2469 25.602 87.6428 26.403 88.1806 27.0679C88.8752 27.9293 90.003 28.4355 91.0861 28.4355C92.662 28.4355 94.1783 27.3248 94.1783 25.2166C94.1783 22.6929 92.3409 21.1817 90.6603 20.3505C89.4503 19.7536 88.3374 19.0887 87.3664 18.3179C86.3954 17.5472 85.5738 16.6254 84.9315 15.5751C83.9904 14.0488 83.5049 12.2806 83.5049 10.3538C83.5049 8.5706 83.7514 6.72692 84.4012 5.12503C84.9688 3.72715 85.8427 2.53329 87.0303 1.71724C88.0835 0.991854 89.3906 0.561157 90.9292 0.561157C92.2662 0.561157 93.5583 0.946517 94.5368 1.76257C95.0895 2.21594 95.5227 2.54085 95.9634 2.54085C96.434 2.54085 96.9045 2.17816 97.5319 1.21854C97.7037 0.954073 97.8904 0.765171 98.0398 0.765171C98.1892 0.765171 98.2938 0.96163 98.2938 1.47544C98.2938 2.48796 98.2639 3.81783 98.2639 5.15525C98.2639 6.24333 98.2788 7.33896 98.2639 8.16257C98.2639 8.74439 98.2639 9.32621 98.2639 9.91558C98.2639 9.96848 98.2639 10.0214 98.2639 10.0818C98.2639 10.3841 98.249 10.7845 98.0772 10.8677C97.9128 10.9508 97.6813 10.9659 97.4572 10.9659C96.9867 10.9659 96.6879 10.981 96.4788 10.981C96.2696 10.981 96.1427 10.9659 96.0232 10.913C95.8588 10.8374 95.829 10.5503 95.5899 9.71157C95.4555 9.25821 95.3285 8.80484 95.1642 8.36659C94.858 7.52786 94.4696 6.72692 93.9542 6.06198C93.2745 5.19303 92.1616 4.69433 91.101 4.69433C90.3914 4.69433 89.6669 4.91346 89.1515 5.32904C88.3524 5.98642 87.949 7.04427 87.949 8.12479C87.949 8.83506 88.1208 9.55289 88.4719 10.1725C89.2711 11.6006 90.7873 12.326 92.0496 12.9305C93.9542 13.8372 95.5899 14.691 96.8298 16.1116C98.2788 17.7739 98.9361 20.1692 98.9361 22.6098C98.9361 23.9321 98.7643 25.262 98.4581 26.4936C97.9577 28.5187 96.9792 30.2943 95.3061 31.4126C94.2156 32.138 92.8786 32.5687 91.2952 32.5687V32.5763Z" fill="#232964"/>
<path d="M106.1 32.1531C105.577 32.1531 105.249 32.1304 104.778 32.1304C104.278 32.1304 104.076 32.0624 104.076 31.8811C104.076 31.7375 104.211 31.526 104.42 31.2162C105.032 30.3397 105.473 29.3423 105.585 28.0199C105.689 26.6901 105.712 25.5491 105.727 24.1437C105.742 22.6551 105.757 21.2648 105.757 19.8216C105.757 18.4464 105.712 16.9805 105.742 15.3937C105.757 14.7288 105.757 14.1772 105.757 13.7012C105.757 12.4922 105.727 11.7215 105.727 10.6258C105.727 9.68888 105.727 8.61592 105.727 7.55807C105.727 6.95358 105.727 6.36421 105.719 5.7975C105.719 5.57838 105.577 5.41214 105.398 5.41214C104.83 5.41214 104.27 5.42725 103.71 5.44237C102.552 5.48015 101.35 6.39443 100.551 7.33894C100.431 7.48251 100.319 7.4674 100.267 7.19538C100.237 7.0367 100.229 6.82513 100.229 6.65134C100.229 5.73705 100.237 4.76232 100.252 3.78003C100.252 3.4929 100.252 3.21332 100.252 2.92619C100.252 2.57106 100.252 1.98168 100.252 1.62655C100.252 1.19585 100.461 1.08251 100.797 1.08251H103.187C104.435 1.10518 105.689 1.12784 106.937 1.12784C108.184 1.12784 109.372 1.09762 110.604 1.09762C111.187 1.09762 112.053 1.12029 112.576 1.11273L115.422 1.07495C115.788 1.07495 115.945 1.18074 115.945 1.70211C115.945 2.73729 115.967 4.09738 115.967 4.93611C115.967 5.59349 115.952 6.00907 115.952 6.59845C115.952 7.2256 115.892 7.48251 115.75 7.48251C115.638 7.48251 115.467 7.31627 115.22 7.04426C114.525 6.27354 113.726 5.63127 112.681 5.50281C112.038 5.4197 111.448 5.41214 110.828 5.41214C110.664 5.41214 110.522 5.57838 110.522 5.78239C110.514 6.98381 110.5 8.23812 110.485 9.0844C110.485 9.60577 110.477 10.112 110.477 10.6183C110.477 12.0539 110.492 13.4518 110.492 14.9479C110.492 15.8698 110.492 16.8218 110.462 17.8419C110.447 18.5068 110.447 19.0584 110.447 19.5345C110.447 20.751 110.477 21.5142 110.477 22.6098C110.477 24.3175 110.5 26.1234 110.537 27.8159C110.567 29.2667 111.261 30.7401 112.008 31.7451C112.12 31.8962 112.113 32.0398 111.896 32.1002C111.769 32.138 111.605 32.1456 111.463 32.1456C110.544 32.1456 109.626 32.1229 108.707 32.1229C107.788 32.1229 106.952 32.1456 106.078 32.1456L106.1 32.1531Z" fill="#232964"/>
<path d="M118.916 2.7676H119.111C119.335 2.7676 119.521 2.69204 119.521 2.50314C119.521 2.3369 119.402 2.23112 119.14 2.23112C119.028 2.23112 118.954 2.23867 118.916 2.25379V2.7676ZM118.909 3.78767H118.498V1.99688C118.662 1.96665 118.886 1.94399 119.178 1.94399C119.514 1.94399 119.663 1.99688 119.79 2.07244C119.887 2.148 119.962 2.29157 119.962 2.46536C119.962 2.66181 119.813 2.81293 119.596 2.88094V2.90361C119.768 2.97161 119.865 3.10007 119.917 3.34186C119.97 3.61388 119.999 3.71966 120.044 3.78767H119.604C119.551 3.71966 119.514 3.56099 119.462 3.34942C119.432 3.15296 119.32 3.06229 119.096 3.06229H118.901V3.78011L118.909 3.78767ZM117.818 2.84316C117.818 3.63655 118.401 4.27126 119.2 4.27126C119.999 4.27126 120.545 3.63655 120.545 2.85072C120.545 2.06488 119.977 1.41506 119.185 1.41506C118.394 1.41506 117.818 2.05733 117.818 2.84316ZM121 2.84316C121 3.85567 120.216 4.65662 119.185 4.65662C118.155 4.65662 117.363 3.86323 117.363 2.84316C117.363 1.82309 118.169 1.05237 119.185 1.05237C120.201 1.05237 121 1.84576 121 2.84316Z" fill="#232964"/>
</g>
<defs>
<clipPath id="clip0_3337_2195">
<rect width="121" height="32" fill="white" transform="translate(0 0.576294)"/>
</clipPath>
</defs>
</svg>
