<svg width="481" height="398" viewBox="0 0 481 398" fill="none" xmlns="http://www.w3.org/2000/svg">
<path d="M111.231 153.157V110.54H0V153.157H25.519V244.317H0V286.934H111.231V244.317H85.712V153.157H111.231Z" fill="#00539F"/>
<path d="M233.981 178.223C227.106 176.223 191.731 166.098 185.606 164.098C179.481 162.098 174.481 159.223 174.481 155.598C174.481 151.973 180.106 148.098 191.481 148.098C227.356 148.098 244.59 170.223 244.59 170.223C244.59 170.223 246.532 172.81 247.183 173.738H281.795V113.375H244.638V124.357C241.8 122.397 220.848 108.723 188.356 108.723C145.481 108.723 121.606 130.973 121.606 164.223C121.606 197.473 151.731 211.223 160.106 214.723C168.481 218.223 201.231 227.473 215.231 231.848C229.231 236.223 234.356 239.348 234.356 241.598C234.356 243.848 228.231 249.723 210.731 249.723C180.248 249.723 164.55 231.747 161.795 228.266V228.239C160.919 227.065 159.891 225.676 159.542 225.153C159.138 224.548 158.201 223.205 157.551 222.277H122.939V286.738H161.795V273.277C166.316 276.286 189.459 290.723 217.231 290.723C248.231 290.723 287.731 277.223 287.731 235.098C287.731 192.973 240.856 180.223 233.981 178.223Z" fill="#00539F"/>
<path d="M386.391 108.13C334.713 108.13 292.329 133.968 292.329 199.925C292.329 265.882 338.34 290.587 386.617 290.587C434.894 290.587 480.452 266.108 480.452 200.606C480.452 135.104 434.896 108.13 386.391 108.13ZM386.845 246.616C369.165 246.616 357.832 242.536 357.832 199.699C357.832 156.861 366.219 152.328 387.524 152.328C400.443 152.328 416.083 153.234 416.083 198.339C416.083 243.444 404.525 246.616 386.845 246.616Z" fill="#00539F"/>
<path d="M74.1165 91.087C85.7335 73.933 100.019 58.727 116.396 46.099C123.018 50.995 130.057 55.436 137.457 59.394C125.059 73.214 113.951 88.525 112.111 91.087H119.55C124.015 85.069 133.251 72.963 142.99 62.23C153.635 67.463 164.948 71.743 176.752 75.003C173.61 81.669 171.235 87.498 169.841 91.087H176.304C177.789 87.391 179.965 82.236 182.68 76.54C197.738 80.219 213.516 82.281 229.657 82.595V91.088H235.657V82.624C251.68 82.507 267.371 80.681 282.376 77.25C284.934 82.661 286.993 87.546 288.416 91.087H294.879C293.539 87.64 291.297 82.13 288.336 75.791C300.351 72.665 311.88 68.497 322.738 63.346C332.104 73.794 340.86 85.278 345.171 91.087H352.609C350.826 88.604 340.293 74.081 328.324 60.582C336.553 56.329 344.355 51.49 351.648 46.099C368.025 58.727 382.312 73.933 393.928 91.087H401.145C365.657 36.316 304.003 0 234.021 0C164.039 0 102.385 36.316 66.8975 91.087H74.1165ZM179.429 69.516C168.201 66.483 157.428 62.507 147.272 57.643C148.652 56.209 150.031 54.82 151.394 53.505C165.301 40.094 188.175 25.368 193.189 22.198C197.258 24.433 201.698 26.323 206.421 27.823C202.753 32.633 195.551 42.397 187.708 54.782C184.655 59.602 181.874 64.668 179.429 69.516ZM229.657 76.593C214.461 76.289 199.603 74.397 185.401 71.029C187.622 66.687 190.1 62.219 192.777 57.993C201.813 43.726 209.965 33.014 212.681 29.529C218.1 30.802 223.795 31.607 229.657 31.87V76.593ZM235.657 76.623V31.938C241.44 31.84 247.098 31.228 252.513 30.139C255.617 34.154 263.385 44.478 271.944 57.993C274.76 62.44 277.357 67.154 279.666 71.709C265.514 74.839 250.742 76.511 235.657 76.623ZM285.681 70.288C283.144 65.208 280.227 59.858 277.012 54.782C269.574 43.036 262.71 33.646 258.893 28.604C263.916 27.193 268.658 25.359 273.012 23.14C280.051 27.652 300.495 41.132 313.326 53.505C315.029 55.148 316.755 56.903 318.479 58.723C308.111 63.51 297.121 67.385 285.681 70.288ZM346.624 42.348C339.585 47.429 332.064 51.981 324.145 55.983C321.932 53.609 319.7 51.316 317.491 49.186C305.49 37.613 287.621 25.472 278.866 19.771C281.84 17.843 284.56 15.711 286.985 13.39C308.656 19.582 328.775 29.483 346.624 42.348ZM234.023 6C249.867 6 265.266 7.933 280.011 11.551C268.821 20.64 252.054 25.972 234.023 25.972C215.91 25.972 199.189 20.657 188.014 11.556C202.764 7.935 218.17 6 234.023 6ZM181.058 13.39C183.032 15.282 185.193 17.052 187.534 18.684C179.602 23.788 160.065 36.809 147.23 49.185C145.382 50.967 143.519 52.865 141.663 54.827C134.564 51.11 127.794 46.947 121.423 42.348C139.269 29.483 159.387 19.583 181.058 13.39Z" fill="#00539F"/>
<path d="M393.938 306.92C382.568 323.713 368.638 338.637 352.695 351.105C345.102 345.395 336.952 340.291 328.333 335.833C338.716 324.121 348.019 311.639 351.463 306.921H343.991C339.385 313.071 331.322 323.504 322.746 333.071C311.888 327.918 300.36 323.747 288.343 320.622C290.884 315.181 292.891 310.359 294.257 306.921H287.775C286.401 310.273 284.574 314.526 282.379 319.169C267.383 315.743 251.694 313.918 235.658 313.802V306.921H229.658V313.829C213.504 314.142 197.727 316.202 182.678 319.876C180.334 314.959 178.391 310.442 176.948 306.921H170.465C171.896 310.525 174.032 315.649 176.748 321.411C164.941 324.672 153.624 328.946 142.98 334.182C134.036 324.323 125.519 313.31 120.732 306.92H113.26C116.818 311.795 126.645 324.977 137.457 337.027C129.67 341.197 122.276 345.896 115.351 351.104C99.4073 338.636 85.4773 323.712 74.1083 306.919H66.9023C102.391 361.69 164.043 398.006 234.024 398.006C304.004 398.006 365.657 361.691 401.146 306.919L393.938 306.92ZM285.684 326.128C297.128 329.03 308.118 332.904 318.487 337.693C316.76 339.515 315.033 341.273 313.327 342.919C300.536 355.252 280.157 368.701 273.065 373.249C268.711 371.021 263.963 369.187 258.924 367.776C262.748 362.725 269.594 353.353 277.012 341.64C280.229 336.563 283.146 331.21 285.684 326.128ZM235.657 319.801C250.754 319.913 265.526 321.58 279.669 324.706C277.359 329.264 274.762 333.979 271.943 338.43C263.396 351.926 255.64 362.239 252.527 366.266C247.127 365.19 241.469 364.583 235.656 364.487V319.801H235.657ZM229.657 319.831V364.549C223.773 364.81 218.072 365.605 212.66 366.869C209.925 363.358 201.799 352.676 192.777 338.43C190.098 334.201 187.618 329.73 185.396 325.384C199.59 322.02 214.448 320.134 229.657 319.831ZM179.426 326.902C181.872 331.753 184.655 336.819 187.708 341.641C195.545 354.016 202.742 363.774 206.413 368.588C201.683 370.087 197.248 371.979 193.181 374.22C188.148 371.036 165.294 356.321 151.395 342.919C150.03 341.603 148.651 340.212 147.269 338.777C157.423 333.911 168.195 329.934 179.426 326.902ZM120.336 354.866C127.023 349.95 134.153 345.518 141.654 341.589C143.512 343.553 145.379 345.454 147.229 347.238C160.061 359.611 179.592 372.629 187.527 377.735C184.7 379.714 182.123 381.89 179.833 384.252C158.191 377.91 138.116 367.87 120.336 354.866ZM234.023 392.007C217.66 392.007 201.768 389.952 186.586 386.101C197.672 376.359 215.276 370.452 234.023 370.452C252.747 370.452 270.368 376.363 281.455 386.102C266.274 389.953 250.384 392.007 234.023 392.007ZM288.209 384.252C285.487 381.447 282.376 378.889 278.905 376.626C287.675 370.915 305.508 358.793 317.491 347.237C319.701 345.106 321.933 342.812 324.148 340.436C332.471 344.646 340.359 349.462 347.709 354.865C329.928 367.871 309.852 377.911 288.209 384.252Z" fill="#00539F"/>
</svg>
