<?xml version="1.0" encoding="UTF-8" standalone="no"?>
<svg
   width="967.89697"
   height="178.7515"
   viewBox="0 0 967.89697 178.7515"
   fill="none"
   version="1.1"
   id="svg372"
   xmlns="http://www.w3.org/2000/svg"
   xmlns:svg="http://www.w3.org/2000/svg">
  <g
     filter="url(#filter2_d_10_81)"
     id="g142"
     transform="translate(-68,-64.9005)">
    <rect
       x="747"
       y="131.772"
       width="281.23401"
       height="101.152"
       rx="11.9445"
       fill="url(#paint2_linear_10_81)"
       id="rect140"
       style="fill:url(#paint2_linear_10_81)" />
  </g>
  <g
     filter="url(#filter3_d_10_81)"
     id="g146"
     transform="translate(-68,-64.9005)">
    <rect
       x="740"
       y="126.772"
       width="281.23401"
       height="101.152"
       rx="11.9445"
       fill="url(#paint3_linear_10_81)"
       id="rect144"
       style="fill:url(#paint3_linear_10_81)" />
  </g>
  <rect
     x="0"
     y="55.871502"
     width="252.88"
     height="101.152"
     rx="11.4946"
     fill="url(#paint4_linear_10_81)"
     id="rect148"
     style="fill:url(#paint4_linear_10_81)" />
  <path
     d="m 68.146,100.7105 v 4.292 h 5.763 v 2.722 h -5.763 v 4.536 h 6.498 v 2.796 h -9.931 v -17.141 h 9.931 v 2.795 z m 17.146,0.564 c 1.619,0 2.927,0.515 3.924,1.545 0.997,1.014 1.496,2.436 1.496,4.267 v 7.97 h -3.433 v -7.504 c 0,-1.079 -0.27,-1.905 -0.81,-2.477 -0.539,-0.588 -1.275,-0.883 -2.207,-0.883 -0.948,0 -1.7,0.295 -2.256,0.883 -0.539,0.572 -0.809,1.398 -0.809,2.477 v 7.504 h -3.433 v -13.586 h 3.433 v 1.692 c 0.458,-0.588 1.038,-1.046 1.741,-1.373 0.72,-0.343 1.504,-0.515 2.354,-0.515 z m 7.802,6.989 c 0,-1.406 0.286,-2.632 0.858,-3.678 0.572,-1.063 1.365,-1.88 2.378,-2.452 1.014,-0.589 2.175,-0.883 3.482,-0.883 1.684,0 3.074,0.425 4.169,1.275 1.112,0.834 1.856,2.011 2.232,3.531 h -3.703 c -0.196,-0.588 -0.531,-1.046 -1.006,-1.373 -0.457,-0.343 -1.029,-0.515 -1.716,-0.515 -0.981,0 -1.757,0.36 -2.33,1.079 -0.572,0.703 -0.858,1.708 -0.858,3.016 0,1.291 0.286,2.297 0.858,3.016 0.573,0.703 1.349,1.055 2.33,1.055 1.39,0 2.297,-0.622 2.722,-1.864 h 3.703 c -0.376,1.471 -1.12,2.64 -2.232,3.507 -1.111,0.866 -2.501,1.299 -4.169,1.299 -1.307,0 -2.468,-0.286 -3.482,-0.858 -1.013,-0.589 -1.806,-1.406 -2.378,-2.452 -0.572,-1.063 -0.858,-2.297 -0.858,-3.703 z m 21.666,7.013 c -1.308,0 -2.485,-0.286 -3.531,-0.858 -1.046,-0.589 -1.872,-1.414 -2.477,-2.477 -0.588,-1.062 -0.883,-2.288 -0.883,-3.678 0,-1.39 0.303,-2.616 0.908,-3.678 0.621,-1.063 1.463,-1.88 2.525,-2.452 1.063,-0.589 2.248,-0.883 3.556,-0.883 1.308,0 2.493,0.294 3.556,0.883 1.062,0.572 1.896,1.389 2.501,2.452 0.621,1.062 0.932,2.288 0.932,3.678 0,1.39 -0.319,2.616 -0.957,3.678 -0.621,1.063 -1.471,1.888 -2.55,2.477 -1.062,0.572 -2.256,0.858 -3.58,0.858 z m 0,-2.991 c 0.621,0 1.202,-0.148 1.741,-0.442 0.556,-0.31 0.997,-0.768 1.324,-1.373 0.327,-0.605 0.491,-1.341 0.491,-2.207 0,-1.291 -0.344,-2.281 -1.03,-2.967 -0.671,-0.703 -1.496,-1.055 -2.477,-1.055 -0.981,0 -1.806,0.352 -2.477,1.055 -0.654,0.686 -0.981,1.676 -0.981,2.967 0,1.291 0.319,2.289 0.957,2.992 0.654,0.686 1.471,1.03 2.452,1.03 z m 22.43,-10.815 v 13.586 h -3.458 v -1.717 c -0.441,0.589 -1.021,1.054 -1.741,1.398 -0.703,0.327 -1.471,0.49 -2.305,0.49 -1.062,0 -2.002,-0.221 -2.82,-0.662 -0.817,-0.458 -1.463,-1.12 -1.937,-1.986 -0.458,-0.883 -0.687,-1.929 -0.687,-3.139 v -7.97 h 3.434 v 7.48 c 0,1.079 0.269,1.912 0.809,2.501 0.539,0.572 1.275,0.858 2.207,0.858 0.948,0 1.692,-0.286 2.231,-0.858 0.54,-0.589 0.809,-1.422 0.809,-2.501 v -7.48 z m 10.915,-0.196 c 1.619,0 2.927,0.515 3.924,1.545 0.997,1.014 1.496,2.436 1.496,4.267 v 7.97 h -3.433 v -7.504 c 0,-1.079 -0.27,-1.905 -0.81,-2.477 -0.539,-0.588 -1.275,-0.883 -2.207,-0.883 -0.948,0 -1.7,0.295 -2.256,0.883 -0.539,0.572 -0.809,1.398 -0.809,2.477 v 7.504 h -3.433 v -13.586 h 3.433 v 1.692 c 0.458,-0.588 1.038,-1.046 1.741,-1.373 0.72,-0.343 1.504,-0.515 2.354,-0.515 z m 12.681,3.016 v 6.572 c 0,0.458 0.107,0.793 0.319,1.006 0.229,0.196 0.605,0.294 1.128,0.294 h 1.594 v 2.894 h -2.158 c -2.893,0 -4.34,-1.406 -4.34,-4.218 v -6.548 h -1.619 v -2.82 h 1.619 v -3.359 h 3.457 v 3.359 h 3.041 v 2.82 z m 18.139,3.679 c 0,0.49 -0.033,0.932 -0.098,1.324 h -9.931 c 0.081,0.981 0.425,1.749 1.029,2.305 0.605,0.556 1.349,0.834 2.232,0.834 1.275,0 2.182,-0.548 2.722,-1.643 h 3.703 c -0.393,1.308 -1.145,2.387 -2.256,3.237 -1.112,0.833 -2.477,1.25 -4.095,1.25 -1.308,0 -2.485,-0.286 -3.532,-0.858 -1.03,-0.589 -1.839,-1.414 -2.427,-2.477 -0.572,-1.062 -0.859,-2.288 -0.859,-3.678 0,-1.406 0.287,-2.64 0.859,-3.703 0.572,-1.062 1.373,-1.88 2.403,-2.452 1.03,-0.572 2.215,-0.858 3.556,-0.858 1.291,0 2.444,0.278 3.457,0.834 1.03,0.555 1.823,1.348 2.379,2.378 0.572,1.014 0.858,2.183 0.858,3.507 z m -3.556,-0.981 c -0.016,-0.883 -0.335,-1.586 -0.956,-2.109 -0.621,-0.539 -1.381,-0.809 -2.281,-0.809 -0.85,0 -1.569,0.261 -2.157,0.784 -0.573,0.507 -0.924,1.218 -1.055,2.134 z m 9.495,-3.409 c 0.441,-0.719 1.013,-1.283 1.716,-1.692 0.72,-0.408 1.537,-0.613 2.453,-0.613 v 3.605 h -0.908 c -1.079,0 -1.896,0.253 -2.452,0.76 -0.539,0.507 -0.809,1.39 -0.809,2.649 v 6.768 h -3.433 v -13.586 h 3.433 z"
     fill="#ffffff"
     id="path156" />
  <g
     filter="url(#filter4_d_10_81)"
     id="g166"
     transform="translate(-68,-64.9005)">
    <rect
       x="733"
       y="120.772"
       width="281.23401"
       height="101.152"
       rx="11.9445"
       fill="url(#paint8_linear_10_81)"
       id="rect164"
       style="fill:url(#paint8_linear_10_81)" />
  </g>
  <path
     d="m 267.098,110.2255 c -0.499,0.499 -0.499,1.307 0,1.805 l 8.121,8.121 c 0.498,0.498 1.306,0.498 1.804,0 0.499,-0.498 0.499,-1.306 0,-1.805 l -7.218,-7.218 7.218,-7.219 c 0.499,-0.498 0.499,-1.306 0,-1.805 -0.498,-0.498 -1.306,-0.498 -1.804,0 z m 67.921,-0.373 c -0.705,0 -1.276,0.571 -1.276,1.276 0,0.704 0.571,1.276 1.276,1.276 z m -6.538,2.552 c 0.705,0 1.276,-0.572 1.276,-1.276 0,-0.705 -0.571,-1.276 -1.276,-1.276 z m -1.962,-2.552 c -0.705,0 -1.276,0.571 -1.276,1.276 0,0.704 0.571,1.276 1.276,1.276 z m -6.538,2.552 c 0.705,0 1.276,-0.572 1.276,-1.276 0,-0.705 -0.571,-1.276 -1.276,-1.276 z m -1.962,-2.552 c -0.705,0 -1.276,0.571 -1.276,1.276 0,0.704 0.571,1.276 1.276,1.276 z m -6.538,2.552 c 0.705,0 1.276,-0.572 1.276,-1.276 0,-0.705 -0.571,-1.276 -1.276,-1.276 z m -1.962,-2.552 c -0.705,0 -1.276,0.571 -1.276,1.276 0,0.704 0.571,1.276 1.276,1.276 z m -6.538,2.552 c 0.705,0 1.276,-0.572 1.276,-1.276 0,-0.705 -0.571,-1.276 -1.276,-1.276 z m -1.962,-2.552 c -0.705,0 -1.276,0.571 -1.276,1.276 0,0.704 0.571,1.276 1.276,1.276 z m -6.538,2.552 c 0.705,0 1.276,-0.572 1.276,-1.276 0,-0.705 -0.571,-1.276 -1.276,-1.276 z m -1.962,-2.552 c -0.705,0 -1.276,0.571 -1.276,1.276 0,0.704 0.571,1.276 1.276,1.276 z m -6.538,2.552 c 0.705,0 1.276,-0.572 1.276,-1.276 0,-0.705 -0.571,-1.276 -1.276,-1.276 z m -1.962,-2.552 c -0.705,0 -1.276,0.571 -1.276,1.276 0,0.704 0.571,1.276 1.276,1.276 z m -6.538,2.552 c 0.705,0 1.276,-0.572 1.276,-1.276 0,-0.705 -0.571,-1.276 -1.276,-1.276 z m -1.962,-2.552 c -0.705,0 -1.276,0.571 -1.276,1.276 0,0.704 0.571,1.276 1.276,1.276 z m -6.538,2.552 c 0.705,0 1.276,-0.572 1.276,-1.276 0,-0.705 -0.571,-1.276 -1.276,-1.276 z M 336,109.8525 h -0.981 v 2.552 H 336 Z m -7.519,0 h -1.962 v 2.552 h 1.962 z m -8.5,0 h -1.962 v 2.552 h 1.962 z m -8.5,0 h -1.962 v 2.552 h 1.962 z m -8.5,0 h -1.962 v 2.552 h 1.962 z m -8.5,0 h -1.962 v 2.552 h 1.962 z m -8.5,0 h -1.962 v 2.552 h 1.962 z m -8.5,0 h -1.962 v 2.552 h 1.962 z m -8.5,0 H 268 v 2.552 h 0.981 z"
     fill="#946af9"
     id="path172" />
  <path
     d="M 647,111.1285 H 579"
     stroke="#946af9"
     stroke-width="2.55217"
     stroke-dasharray="1.91, 6.38"
     id="path176" />
  <path
     d="m 704.348,106.4735 c 0,-1.684 0.376,-3.188 1.128,-4.512 0.768,-1.341 1.806,-2.379 3.114,-3.114 1.324,-0.752 2.804,-1.128 4.439,-1.128 1.912,0 3.588,0.49 5.027,1.471 1.438,0.981 2.444,2.338 3.016,4.071 h -3.948 c -0.393,-0.818 -0.948,-1.431 -1.668,-1.84 -0.703,-0.408 -1.52,-0.613 -2.452,-0.613 -0.997,0 -1.888,0.237 -2.673,0.712 -0.768,0.457 -1.373,1.111 -1.814,1.961 -0.425,0.85 -0.638,1.848 -0.638,2.992 0,1.128 0.213,2.125 0.638,2.992 0.441,0.85 1.046,1.512 1.814,1.986 0.785,0.458 1.676,0.686 2.673,0.686 0.932,0 1.749,-0.204 2.452,-0.613 0.72,-0.425 1.275,-1.046 1.668,-1.863 h 3.948 c -0.572,1.749 -1.578,3.114 -3.016,4.095 -1.423,0.964 -3.098,1.447 -5.027,1.447 -1.635,0 -3.115,-0.368 -4.439,-1.104 -1.308,-0.752 -2.346,-1.79 -3.114,-3.114 -0.752,-1.324 -1.128,-2.828 -1.128,-4.512 z m 25.688,8.803 c -1.307,0 -2.484,-0.286 -3.531,-0.858 -1.046,-0.589 -1.872,-1.414 -2.476,-2.477 -0.589,-1.062 -0.883,-2.288 -0.883,-3.678 0,-1.39 0.302,-2.616 0.907,-3.678 0.621,-1.063 1.463,-1.88 2.526,-2.452 1.062,-0.589 2.248,-0.883 3.555,-0.883 1.308,0 2.494,0.294 3.556,0.883 1.063,0.572 1.896,1.389 2.501,2.452 0.622,1.062 0.932,2.288 0.932,3.678 0,1.39 -0.319,2.616 -0.956,3.678 -0.621,1.063 -1.471,1.888 -2.55,2.477 -1.063,0.572 -2.256,0.858 -3.581,0.858 z m 0,-2.991 c 0.622,0 1.202,-0.148 1.741,-0.442 0.556,-0.31 0.998,-0.768 1.325,-1.373 0.327,-0.605 0.49,-1.341 0.49,-2.207 0,-1.291 -0.343,-2.281 -1.03,-2.967 -0.67,-0.703 -1.496,-1.055 -2.477,-1.055 -0.98,0 -1.806,0.352 -2.476,1.055 -0.654,0.686 -0.981,1.676 -0.981,2.967 0,1.291 0.319,2.289 0.956,2.992 0.654,0.686 1.472,1.03 2.452,1.03 z m 26.476,-11.011 c 1.668,0 3.008,0.515 4.022,1.545 1.03,1.014 1.545,2.436 1.545,4.267 v 7.97 h -3.433 v -7.504 c 0,-1.063 -0.27,-1.872 -0.809,-2.428 -0.54,-0.572 -1.276,-0.858 -2.207,-0.858 -0.932,0 -1.676,0.286 -2.232,0.858 -0.539,0.556 -0.809,1.365 -0.809,2.428 v 7.504 h -3.433 v -7.504 c 0,-1.063 -0.27,-1.872 -0.809,-2.428 -0.54,-0.572 -1.275,-0.858 -2.207,-0.858 -0.948,0 -1.7,0.286 -2.256,0.858 -0.54,0.556 -0.81,1.365 -0.81,2.428 v 7.504 h -3.433 v -13.586 h 3.433 v 1.643 c 0.442,-0.572 1.006,-1.021 1.692,-1.348 0.703,-0.327 1.472,-0.491 2.306,-0.491 1.062,0 2.01,0.229 2.844,0.687 0.834,0.441 1.48,1.079 1.937,1.913 0.442,-0.785 1.079,-1.414 1.913,-1.889 0.85,-0.474 1.766,-0.711 2.746,-0.711 z m 25.696,0 c 1.667,0 3.008,0.515 4.021,1.545 1.03,1.014 1.545,2.436 1.545,4.267 v 7.97 h -3.433 v -7.504 c 0,-1.063 -0.27,-1.872 -0.809,-2.428 -0.54,-0.572 -1.275,-0.858 -2.207,-0.858 -0.932,0 -1.676,0.286 -2.232,0.858 -0.539,0.556 -0.809,1.365 -0.809,2.428 v 7.504 h -3.433 v -7.504 c 0,-1.063 -0.27,-1.872 -0.809,-2.428 -0.54,-0.572 -1.275,-0.858 -2.207,-0.858 -0.948,0 -1.7,0.286 -2.256,0.858 -0.54,0.556 -0.809,1.365 -0.809,2.428 v 7.504 h -3.433 v -13.586 h 3.433 v 1.643 c 0.441,-0.572 1.005,-1.021 1.692,-1.348 0.703,-0.327 1.471,-0.491 2.305,-0.491 1.062,0 2.01,0.229 2.844,0.687 0.834,0.441 1.48,1.079 1.937,1.913 0.442,-0.785 1.079,-1.414 1.913,-1.889 0.85,-0.474 1.766,-0.711 2.747,-0.711 z m 21.649,0.196 v 13.586 h -3.458 v -1.717 c -0.441,0.589 -1.022,1.054 -1.741,1.398 -0.703,0.327 -1.471,0.49 -2.305,0.49 -1.063,0 -2.003,-0.221 -2.82,-0.662 -0.817,-0.458 -1.463,-1.12 -1.937,-1.986 -0.458,-0.883 -0.687,-1.929 -0.687,-3.139 v -7.97 h 3.433 v 7.48 c 0,1.079 0.27,1.912 0.809,2.501 0.54,0.572 1.275,0.858 2.207,0.858 0.948,0 1.692,-0.286 2.232,-0.858 0.539,-0.589 0.809,-1.422 0.809,-2.501 v -7.48 z m 10.915,-0.196 c 1.618,0 2.926,0.515 3.923,1.545 0.998,1.014 1.496,2.436 1.496,4.267 v 7.97 h -3.433 v -7.504 c 0,-1.079 -0.269,-1.905 -0.809,-2.477 -0.539,-0.588 -1.275,-0.883 -2.207,-0.883 -0.948,0 -1.7,0.295 -2.256,0.883 -0.539,0.572 -0.809,1.398 -0.809,2.477 v 7.504 h -3.433 v -13.586 h 3.433 v 1.692 c 0.458,-0.588 1.038,-1.046 1.741,-1.373 0.719,-0.343 1.504,-0.515 2.354,-0.515 z m 10.425,-1.422 c -0.605,0 -1.112,-0.188 -1.52,-0.564 -0.393,-0.392 -0.589,-0.875 -0.589,-1.447 0,-0.572 0.196,-1.046 0.589,-1.422 0.408,-0.392 0.915,-0.589 1.52,-0.589 0.605,0 1.103,0.197 1.496,0.589 0.409,0.376 0.613,0.85 0.613,1.422 0,0.572 -0.204,1.055 -0.613,1.447 -0.393,0.376 -0.891,0.564 -1.496,0.564 z m 1.692,1.618 v 13.586 h -3.433 v -13.586 z m 2.509,6.793 c 0,-1.406 0.286,-2.632 0.858,-3.678 0.573,-1.063 1.365,-1.88 2.379,-2.452 1.014,-0.589 2.174,-0.883 3.482,-0.883 1.684,0 3.073,0.425 4.169,1.275 1.111,0.834 1.855,2.011 2.231,3.531 h -3.703 c -0.196,-0.588 -0.531,-1.046 -1.005,-1.373 -0.458,-0.343 -1.03,-0.515 -1.716,-0.515 -0.981,0 -1.758,0.36 -2.33,1.079 -0.572,0.703 -0.858,1.708 -0.858,3.016 0,1.291 0.286,2.297 0.858,3.016 0.572,0.703 1.349,1.055 2.33,1.055 1.389,0 2.296,-0.622 2.721,-1.864 h 3.703 c -0.376,1.471 -1.12,2.64 -2.231,3.507 -1.112,0.866 -2.501,1.299 -4.169,1.299 -1.308,0 -2.468,-0.286 -3.482,-0.858 -1.014,-0.589 -1.806,-1.406 -2.379,-2.452 -0.572,-1.063 -0.858,-2.297 -0.858,-3.703 z m 14.751,-0.049 c 0,-1.373 0.27,-2.591 0.81,-3.654 0.555,-1.062 1.299,-1.88 2.231,-2.452 0.948,-0.572 2.003,-0.858 3.163,-0.858 1.014,0 1.897,0.204 2.649,0.613 0.768,0.409 1.381,0.923 1.839,1.545 v -1.938 h 3.457 v 13.586 h -3.457 v -1.987 c -0.441,0.638 -1.055,1.169 -1.839,1.594 -0.769,0.409 -1.66,0.613 -2.673,0.613 -1.144,0 -2.191,-0.294 -3.139,-0.883 -0.932,-0.588 -1.676,-1.414 -2.231,-2.476 -0.54,-1.079 -0.81,-2.313 -0.81,-3.703 z m 10.692,0.049 c 0,-0.834 -0.164,-1.545 -0.491,-2.133 -0.326,-0.605 -0.768,-1.063 -1.324,-1.374 -0.556,-0.327 -1.152,-0.49 -1.79,-0.49 -0.637,0 -1.226,0.155 -1.765,0.466 -0.54,0.31 -0.981,0.768 -1.325,1.373 -0.326,0.589 -0.49,1.292 -0.49,2.109 0,0.817 0.164,1.537 0.49,2.158 0.344,0.605 0.785,1.071 1.325,1.398 0.555,0.327 1.144,0.49 1.765,0.49 0.638,0 1.234,-0.155 1.79,-0.466 0.556,-0.327 0.998,-0.785 1.324,-1.373 0.327,-0.605 0.491,-1.324 0.491,-2.158 z m 10.807,-3.973 v 6.572 c 0,0.458 0.107,0.793 0.319,1.006 0.229,0.196 0.605,0.294 1.128,0.294 h 1.594 v 2.894 h -2.158 c -2.893,0 -4.34,-1.406 -4.34,-4.218 v -6.548 h -1.619 v -2.82 h 1.619 v -3.359 h 3.457 v 3.359 h 3.041 v 2.82 z m 7.251,-4.438 c -0.604,0 -1.111,-0.188 -1.52,-0.564 -0.392,-0.392 -0.588,-0.875 -0.588,-1.447 0,-0.572 0.196,-1.046 0.588,-1.422 0.409,-0.392 0.916,-0.589 1.52,-0.589 0.605,0 1.104,0.197 1.496,0.589 0.409,0.376 0.613,0.85 0.613,1.422 0,0.572 -0.204,1.055 -0.613,1.447 -0.392,0.376 -0.891,0.564 -1.496,0.564 z m 1.692,1.618 v 13.586 h -3.433 v -13.586 z m 9.425,13.806 c -1.308,0 -2.485,-0.286 -3.531,-0.858 -1.047,-0.589 -1.872,-1.414 -2.477,-2.477 -0.589,-1.062 -0.883,-2.288 -0.883,-3.678 0,-1.39 0.302,-2.616 0.907,-3.678 0.622,-1.063 1.463,-1.88 2.526,-2.452 1.063,-0.589 2.248,-0.883 3.556,-0.883 1.308,0 2.493,0.294 3.555,0.883 1.063,0.572 1.897,1.389 2.502,2.452 0.621,1.062 0.931,2.288 0.931,3.678 0,1.39 -0.318,2.616 -0.956,3.678 -0.621,1.063 -1.471,1.888 -2.55,2.477 -1.063,0.572 -2.256,0.858 -3.58,0.858 z m 0,-2.991 c 0.621,0 1.201,-0.148 1.741,-0.442 0.556,-0.31 0.997,-0.768 1.324,-1.373 0.327,-0.605 0.49,-1.341 0.49,-2.207 0,-1.291 -0.343,-2.281 -1.03,-2.967 -0.67,-0.703 -1.495,-1.055 -2.476,-1.055 -0.981,0 -1.807,0.352 -2.477,1.055 -0.654,0.686 -0.981,1.676 -0.981,2.967 0,1.291 0.319,2.289 0.956,2.992 0.654,0.686 1.472,1.03 2.453,1.03 z m 17.133,-11.011 c 1.618,0 2.926,0.515 3.923,1.545 0.998,1.014 1.496,2.436 1.496,4.267 v 7.97 h -3.433 v -7.504 c 0,-1.079 -0.27,-1.905 -0.809,-2.477 -0.54,-0.588 -1.275,-0.883 -2.207,-0.883 -0.948,0 -1.7,0.295 -2.256,0.883 -0.54,0.572 -0.809,1.398 -0.809,2.477 v 7.504 h -3.433 v -13.586 h 3.433 v 1.692 c 0.457,-0.588 1.038,-1.046 1.741,-1.373 0.719,-0.343 1.504,-0.515 2.354,-0.515 z"
     fill="#7958c6"
     id="path180" />
  <path
     d="m 713.003,23.2712 c -1.128,0 -2.142,-0.1962 -3.041,-0.5886 -0.883,-0.4087 -1.578,-0.9645 -2.084,-1.6674 -0.507,-0.7194 -0.769,-1.5449 -0.785,-2.4767 h 2.379 c 0.081,0.801 0.408,1.4794 0.98,2.0353 0.589,0.5394 1.439,0.8092 2.551,0.8092 1.062,0 1.896,-0.2616 2.501,-0.7847 0.621,-0.5395 0.932,-1.2261 0.932,-2.0598 0,-0.654 -0.18,-1.1853 -0.54,-1.594 -0.359,-0.4087 -0.809,-0.7193 -1.348,-0.9318 -0.54,-0.2125 -1.267,-0.4414 -2.183,-0.6866 -1.128,-0.2943 -2.035,-0.5885 -2.722,-0.8828 -0.67,-0.2942 -1.25,-0.752 -1.741,-1.3732 -0.474,-0.6376 -0.711,-1.4876 -0.711,-2.5503 0,-0.9318 0.237,-1.7573 0.711,-2.4766 0.474,-0.7194 1.136,-1.2752 1.986,-1.6675 0.867,-0.3924 1.856,-0.5885 2.968,-0.5885 1.602,0 2.909,0.4005 3.923,1.2015 1.03,0.8011 1.61,1.8637 1.741,3.1878 h -2.452 c -0.082,-0.6539 -0.425,-1.226 -1.03,-1.7165 -0.605,-0.5068 -1.406,-0.7602 -2.403,-0.7602 -0.932,0 -1.692,0.2453 -2.281,0.7357 -0.588,0.4741 -0.882,1.1443 -0.882,2.0108 0,0.6212 0.171,1.128 0.515,1.5203 0.359,0.3924 0.792,0.6948 1.299,0.9073 0.523,0.1962 1.251,0.4251 2.183,0.6866 1.128,0.3107 2.035,0.6213 2.722,0.9319 0.686,0.2942 1.275,0.7601 1.765,1.3977 0.491,0.6212 0.736,1.4713 0.736,2.5503 0,0.8337 -0.221,1.6184 -0.662,2.3541 -0.442,0.7356 -1.096,1.3323 -1.962,1.79 -0.867,0.4578 -1.888,0.6867 -3.065,0.6867 z M 739.312,6.1305 v 16.969 h -2.231 V 10.4463 l -5.64,12.6532 h -1.569 l -5.665,-12.6777 v 12.6777 h -2.231 V 6.1305 h 2.403 l 6.277,14.0264 6.278,-14.0264 z m 9.204,17.1407 c -1.128,0 -2.141,-0.1962 -3.041,-0.5886 -0.882,-0.4087 -1.577,-0.9645 -2.084,-1.6674 -0.507,-0.7194 -0.768,-1.5449 -0.785,-2.4767 h 2.379 c 0.082,0.801 0.409,1.4794 0.981,2.0353 0.588,0.5394 1.438,0.8092 2.55,0.8092 1.063,0 1.896,-0.2616 2.501,-0.7847 0.622,-0.5395 0.932,-1.2261 0.932,-2.0598 0,-0.654 -0.18,-1.1853 -0.539,-1.594 -0.36,-0.4087 -0.81,-0.7193 -1.349,-0.9318 -0.539,-0.2125 -1.267,-0.4414 -2.182,-0.6866 -1.128,-0.2943 -2.036,-0.5885 -2.722,-0.8828 -0.671,-0.2942 -1.251,-0.752 -1.741,-1.3732 -0.474,-0.6376 -0.712,-1.4876 -0.712,-2.5503 0,-0.9318 0.238,-1.7573 0.712,-2.4766 0.474,-0.7194 1.136,-1.2752 1.986,-1.6675 0.866,-0.3924 1.855,-0.5885 2.967,-0.5885 1.602,0 2.91,0.4005 3.923,1.2015 1.03,0.8011 1.611,1.8637 1.742,3.1878 h -2.453 c -0.081,-0.6539 -0.425,-1.226 -1.03,-1.7165 -0.604,-0.5068 -1.405,-0.7602 -2.403,-0.7602 -0.932,0 -1.692,0.2453 -2.28,0.7357 -0.589,0.4741 -0.883,1.1443 -0.883,2.0108 0,0.6212 0.172,1.128 0.515,1.5203 0.36,0.3924 0.793,0.6948 1.3,0.9073 0.523,0.1962 1.25,0.4251 2.182,0.6866 1.128,0.3107 2.035,0.6213 2.722,0.9319 0.687,0.2942 1.275,0.7601 1.766,1.3977 0.49,0.6212 0.735,1.4713 0.735,2.5503 0,0.8337 -0.221,1.6184 -0.662,2.3541 -0.441,0.7356 -1.095,1.3323 -1.962,1.79 -0.866,0.4578 -1.888,0.6867 -3.065,0.6867 z M 765.826,0 759.107,27.2682 H 756.9 L 763.595,0 Z m 5.557,7.8225 v 5.7135 h 6.228 v 1.8392 h -6.228 v 5.8852 h 6.964 v 1.8391 h -9.196 V 5.9833 h 9.196 v 1.8392 z m 26.5,1.5939 c 1.046,0 1.978,0.2207 2.796,0.6621 0.817,0.425 1.463,1.0707 1.937,1.9372 0.474,0.8664 0.711,1.9208 0.711,3.1633 v 7.9205 h -2.207 v -7.6017 c 0,-1.3406 -0.335,-2.3623 -1.005,-3.0653 -0.654,-0.7193 -1.545,-1.0789 -2.673,-1.0789 -1.161,0 -2.085,0.376 -2.771,1.128 -0.687,0.7356 -1.03,1.8064 -1.03,3.2123 v 7.4056 h -2.207 v -7.6017 c 0,-1.3406 -0.335,-2.3623 -1.005,-3.0653 -0.654,-0.7193 -1.545,-1.0789 -2.673,-1.0789 -1.161,0 -2.085,0.376 -2.771,1.128 -0.687,0.7356 -1.03,1.8064 -1.03,3.2123 v 7.4056 h -2.232 V 9.6616 h 2.232 v 1.9372 c 0.441,-0.703 1.03,-1.2424 1.765,-1.6184 0.752,-0.376 1.578,-0.564 2.477,-0.564 1.128,0 2.125,0.2534 2.992,0.7601 0.866,0.5068 1.512,1.2507 1.937,2.2315 0.376,-0.9482 0.997,-1.6838 1.864,-2.2069 0.866,-0.5232 1.831,-0.7847 2.893,-0.7847 z m 8.271,6.9151 c 0,-1.3732 0.278,-2.5748 0.833,-3.6047 0.556,-1.0463 1.316,-1.8555 2.281,-2.4276 0.981,-0.5722 2.068,-0.8583 3.261,-0.8583 1.177,0 2.199,0.2534 3.066,0.7602 0.866,0.5067 1.512,1.1443 1.937,1.9127 V 9.6616 h 2.256 v 13.4379 h -2.256 v -2.5012 c -0.442,0.7847 -1.104,1.4386 -1.986,1.9617 -0.867,0.5068 -1.88,0.7602 -3.041,0.7602 -1.194,0 -2.273,-0.2943 -3.237,-0.8828 -0.965,-0.5885 -1.725,-1.4141 -2.281,-2.4767 -0.555,-1.0626 -0.833,-2.2723 -0.833,-3.6292 z m 11.378,0.0245 c 0,-1.0135 -0.205,-1.8963 -0.613,-2.6483 -0.409,-0.752 -0.965,-1.3242 -1.668,-1.7165 -0.686,-0.4087 -1.447,-0.6131 -2.28,-0.6131 -0.834,0 -1.594,0.1962 -2.281,0.5885 -0.686,0.3924 -1.234,0.9646 -1.643,1.7166 -0.408,0.752 -0.613,1.6347 -0.613,2.6483 0,1.0299 0.205,1.929 0.613,2.6974 0.409,0.752 0.957,1.3323 1.643,1.741 0.687,0.3924 1.447,0.5886 2.281,0.5886 0.833,0 1.594,-0.1962 2.28,-0.5886 0.703,-0.4087 1.259,-0.989 1.668,-1.741 0.408,-0.7684 0.613,-1.6593 0.613,-2.6729 z m 7.179,-8.8768 c -0.425,0 -0.784,-0.1472 -1.079,-0.4414 -0.294,-0.2943 -0.441,-0.654 -0.441,-1.079 0,-0.425 0.147,-0.7847 0.441,-1.079 0.295,-0.2942 0.654,-0.4413 1.079,-0.4413 0.409,0 0.752,0.1471 1.03,0.4413 0.294,0.2943 0.442,0.654 0.442,1.079 0,0.425 -0.148,0.7847 -0.442,1.079 -0.278,0.2942 -0.621,0.4414 -1.03,0.4414 z m 1.079,2.1824 v 13.4379 h -2.231 V 9.6616 Z m 6.035,-4.7082 v 18.1461 h -2.232 V 4.9534 Z M 843.965,0 837.247,27.2682 H 835.04 L 841.734,0 Z m 2.492,14.5414 c 0,-1.6675 0.376,-3.1633 1.128,-4.4875 0.752,-1.3405 1.773,-2.3867 3.065,-3.1387 1.308,-0.752 2.754,-1.128 4.34,-1.128 1.864,0 3.49,0.4495 4.88,1.3486 1.389,0.8992 2.403,2.1743 3.041,3.8254 h -2.673 c -0.474,-1.0299 -1.161,-1.8227 -2.06,-2.3786 -0.883,-0.5558 -1.945,-0.8337 -3.188,-0.8337 -1.193,0 -2.264,0.2779 -3.212,0.8337 -0.948,0.5559 -1.692,1.3487 -2.232,2.3786 -0.539,1.0136 -0.809,2.207 -0.809,3.5802 0,1.3569 0.27,2.5503 0.809,3.5802 0.54,1.0136 1.284,1.7982 2.232,2.3541 0.948,0.5558 2.019,0.8337 3.212,0.8337 1.243,0 2.305,-0.2697 3.188,-0.8092 0.899,-0.5558 1.586,-1.3487 2.06,-2.3786 h 2.673 c -0.638,1.6348 -1.652,2.9017 -3.041,3.8009 -1.39,0.8827 -3.016,1.3241 -4.88,1.3241 -1.586,0 -3.032,-0.3678 -4.34,-1.1034 -1.292,-0.752 -2.313,-1.7901 -3.065,-3.1143 -0.752,-1.3242 -1.128,-2.82 -1.128,-4.4875 z m 26.445,-5.125 c 1.014,0 1.929,0.2207 2.747,0.6621 0.817,0.425 1.455,1.0707 1.912,1.9372 0.474,0.8664 0.712,1.9208 0.712,3.1633 v 7.9205 h -2.207 v -7.6017 c 0,-1.3406 -0.336,-2.3623 -1.006,-3.0653 -0.67,-0.7193 -1.586,-1.0789 -2.746,-1.0789 -1.177,0 -2.117,0.3678 -2.82,1.1035 -0.687,0.7356 -1.03,1.8064 -1.03,3.2123 v 7.4301 h -2.232 V 4.9534 h 2.232 v 6.6209 c 0.441,-0.6866 1.046,-1.2179 1.814,-1.5939 0.785,-0.376 1.66,-0.564 2.624,-0.564 z m 8.182,6.9151 c 0,-1.3732 0.278,-2.5748 0.834,-3.6047 0.555,-1.0463 1.316,-1.8555 2.28,-2.4276 0.981,-0.5722 2.068,-0.8583 3.262,-0.8583 1.177,0 2.198,0.2534 3.065,0.7602 0.866,0.5067 1.512,1.1443 1.937,1.9127 V 9.6616 h 2.256 v 13.4379 h -2.256 v -2.5012 c -0.441,0.7847 -1.103,1.4386 -1.986,1.9617 -0.867,0.5068 -1.88,0.7602 -3.041,0.7602 -1.193,0 -2.272,-0.2943 -3.237,-0.8828 -0.964,-0.5885 -1.725,-1.4141 -2.28,-2.4767 -0.556,-1.0626 -0.834,-2.2723 -0.834,-3.6292 z m 11.378,0.0245 c 0,-1.0135 -0.204,-1.8963 -0.613,-2.6483 -0.409,-0.752 -0.965,-1.3242 -1.668,-1.7165 -0.686,-0.4087 -1.446,-0.6131 -2.28,-0.6131 -0.834,0 -1.594,0.1962 -2.281,0.5885 -0.686,0.3924 -1.234,0.9646 -1.643,1.7166 -0.408,0.752 -0.613,1.6347 -0.613,2.6483 0,1.0299 0.205,1.929 0.613,2.6974 0.409,0.752 0.957,1.3323 1.643,1.741 0.687,0.3924 1.447,0.5886 2.281,0.5886 0.834,0 1.594,-0.1962 2.28,-0.5886 0.703,-0.4087 1.259,-0.989 1.668,-1.741 0.409,-0.7684 0.613,-1.6593 0.613,-2.6729 z m 8.749,-4.8553 v 7.9205 c 0,0.654 0.139,1.1199 0.417,1.3978 0.278,0.2615 0.76,0.3923 1.447,0.3923 h 1.642 v 1.8882 h -2.01 c -1.243,0 -2.175,-0.2861 -2.796,-0.8583 -0.621,-0.5721 -0.932,-1.5121 -0.932,-2.82 v -7.9205 h -1.741 V 9.6616 h 1.741 v -3.384 h 2.232 v 3.384 h 3.506 v 1.8391 z"
     fill="#7958c6"
     id="path184" />
  <path
     d="m 356.798,97.5415 c 0,-1.668 0.376,-3.163 1.128,-4.488 0.752,-1.34 1.774,-2.386 3.065,-3.138 1.308,-0.752 2.755,-1.128 4.34,-1.128 1.864,0 3.491,0.449 4.88,1.348 1.39,0.899 2.403,2.175 3.041,3.826 h -2.673 c -0.474,-1.03 -1.161,-1.823 -2.06,-2.379 -0.883,-0.556 -1.945,-0.834 -3.188,-0.834 -1.193,0 -2.264,0.278 -3.212,0.834 -0.948,0.556 -1.692,1.349 -2.231,2.379 -0.54,1.013 -0.81,2.207 -0.81,3.58 0,1.357 0.27,2.55 0.81,3.58 0.539,1.014 1.283,1.798 2.231,2.354 0.948,0.556 2.019,0.834 3.212,0.834 1.243,0 2.305,-0.27 3.188,-0.809 0.899,-0.556 1.586,-1.349 2.06,-2.379 h 2.673 c -0.638,1.635 -1.651,2.902 -3.041,3.801 -1.389,0.883 -3.016,1.324 -4.88,1.324 -1.585,0 -3.032,-0.368 -4.34,-1.103 -1.291,-0.752 -2.313,-1.79 -3.065,-3.115 -0.752,-1.324 -1.128,-2.82 -1.128,-4.487 z m 25.636,8.779 c -1.258,0 -2.403,-0.286 -3.433,-0.859 -1.013,-0.572 -1.814,-1.381 -2.403,-2.427 -0.572,-1.063 -0.858,-2.289 -0.858,-3.678 0,-1.374 0.294,-2.583 0.883,-3.63 0.605,-1.062 1.422,-1.872 2.452,-2.427 1.03,-0.573 2.182,-0.859 3.457,-0.859 1.276,0 2.428,0.286 3.458,0.859 1.03,0.555 1.839,1.357 2.428,2.403 0.605,1.046 0.907,2.264 0.907,3.654 0,1.389 -0.311,2.615 -0.932,3.678 -0.605,1.046 -1.43,1.855 -2.477,2.427 -1.046,0.573 -2.207,0.859 -3.482,0.859 z m 0,-1.962 c 0.801,0 1.553,-0.188 2.256,-0.564 0.703,-0.376 1.267,-0.94 1.692,-1.692 0.442,-0.752 0.662,-1.668 0.662,-2.746 0,-1.079 -0.212,-1.995 -0.637,-2.747 -0.425,-0.752 -0.981,-1.308 -1.668,-1.667 -0.686,-0.376 -1.43,-0.564 -2.231,-0.564 -0.817,0 -1.569,0.188 -2.256,0.564 -0.67,0.359 -1.21,0.915 -1.619,1.667 -0.408,0.752 -0.613,1.668 -0.613,2.747 0,1.095 0.197,2.018 0.589,2.77 0.409,0.752 0.948,1.316 1.618,1.692 0.671,0.36 1.406,0.54 2.207,0.54 z m 25.985,-11.942 c 1.046,0 1.978,0.221 2.795,0.662 0.818,0.425 1.463,1.071 1.937,1.937 0.475,0.867 0.712,1.921 0.712,3.163 v 7.921 h -2.207 v -7.602 c 0,-1.34 -0.336,-2.362 -1.006,-3.065 -0.654,-0.719 -1.545,-1.079 -2.673,-1.079 -1.16,0 -2.084,0.376 -2.771,1.128 -0.686,0.736 -1.03,1.807 -1.03,3.212 v 7.406 h -2.206 v -7.602 c 0,-1.34 -0.336,-2.362 -1.006,-3.065 -0.654,-0.719 -1.545,-1.079 -2.673,-1.079 -1.16,0 -2.084,0.376 -2.771,1.128 -0.686,0.736 -1.03,1.807 -1.03,3.212 v 7.406 h -2.231 v -13.438 h 2.231 v 1.937 c 0.442,-0.703 1.03,-1.242 1.766,-1.618 0.752,-0.376 1.578,-0.564 2.477,-0.564 1.128,0 2.125,0.253 2.991,0.76 0.867,0.507 1.512,1.251 1.938,2.232 0.376,-0.949 0.997,-1.684 1.863,-2.207 0.867,-0.524 1.831,-0.785 2.894,-0.785 z m 25.264,0 c 1.046,0 1.978,0.221 2.795,0.662 0.818,0.425 1.463,1.071 1.938,1.937 0.474,0.867 0.711,1.921 0.711,3.163 v 7.921 h -2.207 v -7.602 c 0,-1.34 -0.335,-2.362 -1.006,-3.065 -0.654,-0.719 -1.545,-1.079 -2.673,-1.079 -1.16,0 -2.084,0.376 -2.77,1.128 -0.687,0.736 -1.03,1.807 -1.03,3.212 v 7.406 h -2.207 v -7.602 c 0,-1.34 -0.335,-2.362 -1.006,-3.065 -0.654,-0.719 -1.545,-1.079 -2.673,-1.079 -1.16,0 -2.084,0.376 -2.771,1.128 -0.686,0.736 -1.029,1.807 -1.029,3.212 v 7.406 h -2.232 v -13.438 h 2.232 v 1.937 c 0.441,-0.703 1.029,-1.242 1.765,-1.618 0.752,-0.376 1.578,-0.564 2.477,-0.564 1.128,0 2.125,0.253 2.991,0.76 0.867,0.507 1.513,1.251 1.938,2.232 0.376,-0.949 0.997,-1.684 1.863,-2.207 0.867,-0.524 1.831,-0.785 2.894,-0.785 z m 21.022,0.245 v 13.438 h -2.232 v -1.986 c -0.425,0.686 -1.022,1.226 -1.79,1.618 -0.752,0.376 -1.586,0.564 -2.501,0.564 -1.046,0 -1.986,-0.212 -2.82,-0.637 -0.834,-0.442 -1.496,-1.096 -1.986,-1.962 -0.474,-0.867 -0.711,-1.921 -0.711,-3.163 v -7.872 h 2.206 v 7.577 c 0,1.324 0.336,2.346 1.006,3.066 0.67,0.702 1.586,1.054 2.746,1.054 1.194,0 2.134,-0.368 2.82,-1.104 0.687,-0.735 1.03,-1.806 1.03,-3.212 v -7.381 z m 10.315,-0.245 c 1.634,0 2.959,0.498 3.972,1.496 1.014,0.981 1.521,2.403 1.521,4.266 v 7.921 h -2.207 v -7.602 c 0,-1.34 -0.336,-2.362 -1.006,-3.065 -0.67,-0.719 -1.586,-1.079 -2.746,-1.079 -1.177,0 -2.117,0.368 -2.82,1.104 -0.687,0.735 -1.03,1.806 -1.03,3.212 v 7.43 h -2.232 v -13.438 h 2.232 v 1.913 c 0.441,-0.687 1.038,-1.218 1.79,-1.594 0.768,-0.376 1.61,-0.564 2.526,-0.564 z m 10.29,-1.937 c -0.425,0 -0.784,-0.147 -1.079,-0.442 -0.294,-0.294 -0.441,-0.654 -0.441,-1.079 0,-0.425 0.147,-0.784 0.441,-1.079 0.295,-0.294 0.654,-0.441 1.079,-0.441 0.409,0 0.752,0.147 1.03,0.441 0.294,0.295 0.442,0.654 0.442,1.079 0,0.425 -0.148,0.785 -0.442,1.079 -0.278,0.295 -0.621,0.442 -1.03,0.442 z m 1.079,2.182 v 13.438 h -2.231 v -13.438 z m 2.97,6.695 c 0,-1.39 0.278,-2.6 0.833,-3.63 0.556,-1.046 1.325,-1.855 2.305,-2.427 0.998,-0.573 2.134,-0.859 3.409,-0.859 1.651,0 3.008,0.401 4.071,1.202 1.078,0.801 1.79,1.913 2.133,3.335 h -2.403 c -0.229,-0.817 -0.679,-1.463 -1.349,-1.937 -0.654,-0.474 -1.471,-0.711 -2.452,-0.711 -1.275,0 -2.305,0.441 -3.09,1.324 -0.785,0.866 -1.177,2.1 -1.177,3.703 0,1.618 0.392,2.869 1.177,3.751 0.785,0.883 1.815,1.325 3.09,1.325 0.981,0 1.798,-0.229 2.452,-0.687 0.654,-0.458 1.104,-1.112 1.349,-1.962 h 2.403 c -0.36,1.373 -1.079,2.477 -2.158,3.311 -1.079,0.817 -2.428,1.226 -4.046,1.226 -1.275,0 -2.411,-0.286 -3.409,-0.859 -0.98,-0.572 -1.749,-1.381 -2.305,-2.427 -0.555,-1.046 -0.833,-2.273 -0.833,-3.678 z m 14.895,-0.025 c 0,-1.373 0.278,-2.575 0.833,-3.605 0.556,-1.046 1.316,-1.855 2.281,-2.427 0.981,-0.573 2.068,-0.859 3.261,-0.859 1.177,0 2.199,0.254 3.066,0.761 0.866,0.506 1.512,1.144 1.937,1.912 v -2.452 h 2.256 v 13.438 h -2.256 v -2.501 c -0.442,0.784 -1.104,1.438 -1.987,1.962 -0.866,0.506 -1.88,0.76 -3.04,0.76 -1.194,0 -2.273,-0.295 -3.237,-0.883 -0.965,-0.589 -1.725,-1.414 -2.281,-2.477 -0.555,-1.062 -0.833,-2.272 -0.833,-3.629 z m 11.378,0.025 c 0,-1.014 -0.205,-1.897 -0.613,-2.649 -0.409,-0.752 -0.965,-1.324 -1.668,-1.716 -0.686,-0.409 -1.447,-0.613 -2.28,-0.613 -0.834,0 -1.594,0.196 -2.281,0.588 -0.686,0.392 -1.234,0.965 -1.643,1.717 -0.408,0.752 -0.613,1.634 -0.613,2.648 0,1.03 0.205,1.929 0.613,2.697 0.409,0.752 0.957,1.333 1.643,1.741 0.687,0.393 1.447,0.589 2.281,0.589 0.833,0 1.594,-0.196 2.28,-0.589 0.703,-0.408 1.259,-0.989 1.668,-1.741 0.408,-0.768 0.613,-1.659 0.613,-2.672 z m 8.749,-4.856 v 7.921 c 0,0.654 0.139,1.12 0.416,1.397 0.278,0.262 0.761,0.393 1.447,0.393 h 1.643 v 1.888 h -2.011 c -1.242,0 -2.174,-0.286 -2.795,-0.858 -0.621,-0.572 -0.932,-1.512 -0.932,-2.82 v -7.921 h -1.741 v -1.839 h 1.741 v -3.384 h 2.232 v 3.384 h 3.506 v 1.839 z m 7.362,-4.021 c -0.425,0 -0.784,-0.147 -1.078,-0.442 -0.295,-0.294 -0.442,-0.654 -0.442,-1.079 0,-0.425 0.147,-0.784 0.442,-1.079 0.294,-0.294 0.653,-0.441 1.078,-0.441 0.409,0 0.752,0.147 1.03,0.441 0.295,0.295 0.442,0.654 0.442,1.079 0,0.425 -0.147,0.785 -0.442,1.079 -0.278,0.295 -0.621,0.442 -1.03,0.442 z m 1.079,2.182 v 13.438 h -2.231 v -13.438 z m 9.664,13.659 c -1.258,0 -2.403,-0.286 -3.433,-0.859 -1.013,-0.572 -1.814,-1.381 -2.403,-2.427 -0.572,-1.063 -0.858,-2.289 -0.858,-3.678 0,-1.374 0.294,-2.583 0.883,-3.63 0.605,-1.062 1.422,-1.872 2.452,-2.427 1.03,-0.573 2.182,-0.859 3.457,-0.859 1.276,0 2.428,0.286 3.458,0.859 1.03,0.555 1.839,1.357 2.428,2.403 0.604,1.046 0.907,2.264 0.907,3.654 0,1.389 -0.311,2.615 -0.932,3.678 -0.605,1.046 -1.43,1.855 -2.477,2.427 -1.046,0.573 -2.207,0.859 -3.482,0.859 z m 0,-1.962 c 0.801,0 1.553,-0.188 2.256,-0.564 0.703,-0.376 1.267,-0.94 1.692,-1.692 0.442,-0.752 0.662,-1.668 0.662,-2.746 0,-1.079 -0.212,-1.995 -0.637,-2.747 -0.425,-0.752 -0.981,-1.308 -1.668,-1.667 -0.686,-0.376 -1.43,-0.564 -2.231,-0.564 -0.818,0 -1.57,0.188 -2.256,0.564 -0.67,0.359 -1.21,0.915 -1.619,1.667 -0.408,0.752 -0.613,1.668 -0.613,2.747 0,1.095 0.197,2.018 0.589,2.77 0.409,0.752 0.948,1.316 1.618,1.692 0.671,0.36 1.406,0.54 2.207,0.54 z m 16.372,-11.942 c 1.635,0 2.959,0.498 3.973,1.496 1.013,0.981 1.52,2.403 1.52,4.266 v 7.921 h -2.207 v -7.602 c 0,-1.34 -0.335,-2.362 -1.005,-3.065 -0.671,-0.719 -1.586,-1.079 -2.747,-1.079 -1.177,0 -2.117,0.368 -2.82,1.104 -0.686,0.735 -1.03,1.806 -1.03,3.212 v 7.43 h -2.231 v -13.438 h 2.231 v 1.913 c 0.442,-0.687 1.038,-1.218 1.79,-1.594 0.769,-0.376 1.611,-0.564 2.526,-0.564 z m 9.849,13.83 c -0.425,0 -0.784,-0.147 -1.079,-0.441 -0.294,-0.295 -0.441,-0.654 -0.441,-1.079 0,-0.425 0.147,-0.785 0.441,-1.079 0.295,-0.294 0.654,-0.442 1.079,-0.442 0.409,0 0.752,0.148 1.03,0.442 0.294,0.294 0.442,0.654 0.442,1.079 0,0.425 -0.148,0.784 -0.442,1.079 -0.278,0.294 -0.621,0.441 -1.03,0.441 z m -149.122,20.619 c 0,0.425 -0.025,0.875 -0.074,1.349 h -10.74 c 0.081,1.324 0.531,2.362 1.348,3.114 0.834,0.736 1.839,1.104 3.016,1.104 0.965,0 1.766,-0.221 2.404,-0.663 0.653,-0.457 1.111,-1.062 1.373,-1.814 h 2.403 c -0.36,1.291 -1.079,2.346 -2.158,3.163 -1.079,0.801 -2.42,1.202 -4.022,1.202 -1.275,0 -2.419,-0.286 -3.433,-0.859 -0.997,-0.572 -1.782,-1.381 -2.354,-2.427 -0.572,-1.063 -0.858,-2.289 -0.858,-3.678 0,-1.39 0.278,-2.608 0.834,-3.654 0.556,-1.046 1.332,-1.848 2.329,-2.403 1.014,-0.573 2.175,-0.859 3.482,-0.859 1.276,0 2.404,0.278 3.384,0.834 0.981,0.556 1.733,1.324 2.256,2.305 0.54,0.965 0.81,2.06 0.81,3.286 z m -2.305,-0.466 c 0,-0.85 -0.188,-1.577 -0.564,-2.182 -0.376,-0.621 -0.891,-1.087 -1.545,-1.398 -0.638,-0.327 -1.349,-0.49 -2.134,-0.49 -1.128,0 -2.092,0.359 -2.893,1.079 -0.785,0.719 -1.235,1.716 -1.349,2.991 z m 11.797,-5.983 c 1.635,0 2.959,0.498 3.973,1.496 1.013,0.981 1.52,2.403 1.52,4.266 v 7.921 h -2.207 v -7.602 c 0,-1.34 -0.335,-2.362 -1.005,-3.065 -0.67,-0.719 -1.586,-1.079 -2.747,-1.079 -1.177,0 -2.117,0.368 -2.82,1.104 -0.686,0.735 -1.029,1.806 -1.029,3.212 v 7.43 h -2.232 v -13.438 h 2.232 v 1.913 c 0.441,-0.687 1.038,-1.218 1.79,-1.594 0.768,-0.376 1.61,-0.564 2.525,-0.564 z m 8.305,6.94 c 0,-1.39 0.278,-2.6 0.833,-3.63 0.556,-1.046 1.325,-1.855 2.305,-2.427 0.998,-0.573 2.134,-0.859 3.409,-0.859 1.651,0 3.008,0.401 4.071,1.202 1.078,0.801 1.79,1.913 2.133,3.335 h -2.403 c -0.229,-0.817 -0.679,-1.463 -1.349,-1.937 -0.654,-0.474 -1.471,-0.711 -2.452,-0.711 -1.275,0 -2.305,0.441 -3.09,1.324 -0.785,0.866 -1.177,2.1 -1.177,3.703 0,1.618 0.392,2.869 1.177,3.751 0.785,0.883 1.815,1.325 3.09,1.325 0.981,0 1.798,-0.229 2.452,-0.687 0.654,-0.458 1.104,-1.112 1.349,-1.962 h 2.403 c -0.36,1.373 -1.079,2.477 -2.158,3.311 -1.079,0.817 -2.428,1.226 -4.046,1.226 -1.275,0 -2.411,-0.286 -3.409,-0.859 -0.98,-0.572 -1.749,-1.381 -2.305,-2.427 -0.555,-1.046 -0.833,-2.273 -0.833,-3.678 z m 21.589,6.964 c -1.259,0 -2.403,-0.286 -3.433,-0.859 -1.014,-0.572 -1.815,-1.381 -2.403,-2.427 -0.572,-1.063 -0.858,-2.289 -0.858,-3.678 0,-1.374 0.294,-2.583 0.882,-3.63 0.605,-1.062 1.423,-1.872 2.453,-2.427 1.03,-0.573 2.182,-0.859 3.457,-0.859 1.275,0 2.428,0.286 3.458,0.859 1.03,0.555 1.839,1.357 2.427,2.403 0.605,1.046 0.908,2.264 0.908,3.654 0,1.389 -0.311,2.615 -0.932,3.678 -0.605,1.046 -1.431,1.855 -2.477,2.427 -1.046,0.573 -2.207,0.859 -3.482,0.859 z m 0,-1.962 c 0.801,0 1.553,-0.188 2.256,-0.564 0.703,-0.376 1.267,-0.94 1.692,-1.692 0.441,-0.752 0.662,-1.668 0.662,-2.746 0,-1.079 -0.212,-1.995 -0.637,-2.747 -0.425,-0.752 -0.981,-1.308 -1.668,-1.667 -0.686,-0.376 -1.43,-0.564 -2.231,-0.564 -0.818,0 -1.57,0.188 -2.256,0.564 -0.671,0.359 -1.21,0.915 -1.619,1.667 -0.408,0.752 -0.613,1.668 -0.613,2.747 0,1.095 0.196,2.018 0.589,2.77 0.408,0.752 0.948,1.316 1.618,1.692 0.67,0.36 1.406,0.54 2.207,0.54 z m 21.742,-11.697 v 13.438 h -2.231 v -1.986 c -0.425,0.686 -1.022,1.226 -1.79,1.618 -0.752,0.376 -1.586,0.564 -2.502,0.564 -1.046,0 -1.986,-0.212 -2.82,-0.637 -0.833,-0.442 -1.495,-1.096 -1.986,-1.962 -0.474,-0.867 -0.711,-1.921 -0.711,-3.163 v -7.872 h 2.207 v 7.577 c 0,1.324 0.335,2.346 1.005,3.066 0.671,0.702 1.586,1.054 2.747,1.054 1.193,0 2.133,-0.368 2.82,-1.104 0.686,-0.735 1.03,-1.806 1.03,-3.212 v -7.381 z m 10.315,-0.245 c 1.635,0 2.959,0.498 3.973,1.496 1.013,0.981 1.52,2.403 1.52,4.266 v 7.921 h -2.207 v -7.602 c 0,-1.34 -0.335,-2.362 -1.005,-3.065 -0.67,-0.719 -1.586,-1.079 -2.747,-1.079 -1.177,0 -2.117,0.368 -2.82,1.104 -0.686,0.735 -1.03,1.806 -1.03,3.212 v 7.43 h -2.231 v -13.438 h 2.231 v 1.913 c 0.442,-0.687 1.039,-1.218 1.791,-1.594 0.768,-0.376 1.61,-0.564 2.525,-0.564 z m 11.86,2.084 v 7.921 c 0,0.654 0.139,1.12 0.417,1.397 0.278,0.262 0.76,0.393 1.447,0.393 h 1.643 v 1.888 h -2.011 c -1.242,0 -2.174,-0.286 -2.795,-0.858 -0.622,-0.572 -0.932,-1.512 -0.932,-2.82 v -7.921 h -1.741 v -1.839 h 1.741 v -3.384 h 2.231 v 3.384 h 3.507 v 1.839 z m 18.471,4.365 c 0,0.425 -0.024,0.875 -0.073,1.349 h -10.741 c 0.082,1.324 0.532,2.362 1.349,3.114 0.834,0.736 1.839,1.104 3.016,1.104 0.965,0 1.766,-0.221 2.403,-0.663 0.654,-0.457 1.112,-1.062 1.374,-1.814 h 2.403 c -0.36,1.291 -1.079,2.346 -2.158,3.163 -1.079,0.801 -2.42,1.202 -4.022,1.202 -1.275,0 -2.419,-0.286 -3.433,-0.859 -0.997,-0.572 -1.782,-1.381 -2.354,-2.427 -0.572,-1.063 -0.858,-2.289 -0.858,-3.678 0,-1.39 0.278,-2.608 0.834,-3.654 0.555,-1.046 1.332,-1.848 2.329,-2.403 1.014,-0.573 2.174,-0.859 3.482,-0.859 1.275,0 2.403,0.278 3.384,0.834 0.981,0.556 1.733,1.324 2.256,2.305 0.54,0.965 0.809,2.06 0.809,3.286 z m -2.305,-0.466 c 0,-0.85 -0.188,-1.577 -0.564,-2.182 -0.376,-0.621 -0.891,-1.087 -1.545,-1.398 -0.637,-0.327 -1.348,-0.49 -2.133,-0.49 -1.128,0 -2.092,0.359 -2.893,1.079 -0.785,0.719 -1.235,1.716 -1.349,2.991 z m 7.482,-3.555 c 0.393,-0.769 0.949,-1.366 1.668,-1.791 0.735,-0.425 1.626,-0.637 2.673,-0.637 v 2.305 h -0.589 c -2.501,0 -3.752,1.357 -3.752,4.071 v 7.307 h -2.231 v -13.438 h 2.231 z"
     fill="#7958c6"
     id="path192" />
  <path
     d="m 87.956,23.2712 c -1.128,0 -2.142,-0.1962 -3.041,-0.5886 -0.883,-0.4087 -1.577,-0.9645 -2.084,-1.6674 -0.507,-0.7194 -0.768,-1.5449 -0.785,-2.4767 h 2.379 c 0.082,0.801 0.408,1.4794 0.981,2.0353 0.588,0.5394 1.438,0.8092 2.55,0.8092 1.063,0 1.896,-0.2616 2.501,-0.7847 0.621,-0.5395 0.932,-1.2261 0.932,-2.0598 0,-0.654 -0.18,-1.1853 -0.54,-1.594 -0.359,-0.4087 -0.809,-0.7193 -1.348,-0.9318 -0.54,-0.2125 -1.267,-0.4414 -2.183,-0.6866 -1.128,-0.2943 -2.035,-0.5885 -2.722,-0.8828 -0.67,-0.2942 -1.25,-0.752 -1.741,-1.3732 -0.474,-0.6376 -0.711,-1.4876 -0.711,-2.5503 0,-0.9318 0.237,-1.7573 0.711,-2.4766 0.474,-0.7194 1.137,-1.2752 1.987,-1.6675 0.866,-0.3924 1.855,-0.5885 2.967,-0.5885 1.602,0 2.91,0.4005 3.923,1.2015 1.03,0.8011 1.611,1.8637 1.741,3.1878 H 91.021 C 90.939,9.5226 90.596,8.9505 89.991,8.46 89.386,7.9532 88.585,7.6998 87.588,7.6998 c -0.932,0 -1.692,0.2453 -2.28,0.7357 -0.589,0.4741 -0.883,1.1443 -0.883,2.0108 0,0.6212 0.171,1.128 0.515,1.5203 0.359,0.3924 0.793,0.6948 1.299,0.9073 0.524,0.1962 1.251,0.4251 2.183,0.6866 1.128,0.3107 2.035,0.6213 2.722,0.9319 0.686,0.2942 1.275,0.7601 1.765,1.3977 0.491,0.6212 0.736,1.4713 0.736,2.5503 0,0.8337 -0.221,1.6184 -0.662,2.3541 -0.442,0.7356 -1.095,1.3323 -1.962,1.79 -0.866,0.4578 -1.888,0.6867 -3.065,0.6867 z m 21.234,-7.4056 c 0,0.425 -0.025,0.8746 -0.074,1.3487 h -10.74 c 0.081,1.3242 0.531,2.3622 1.348,3.1142 0.834,0.7357 1.839,1.1035 3.016,1.1035 0.965,0 1.766,-0.2207 2.404,-0.6621 0.653,-0.4577 1.111,-1.0626 1.373,-1.8146 h 2.403 c -0.36,1.2915 -1.079,2.3459 -2.158,3.1633 -1.079,0.8011 -2.419,1.2016 -4.022,1.2016 -1.275,0 -2.419,-0.2861 -3.433,-0.8583 -0.997,-0.5721 -1.782,-1.3814 -2.354,-2.4276 -0.572,-1.0626 -0.858,-2.2887 -0.858,-3.6783 0,-1.3895 0.278,-2.6075 0.834,-3.6537 0.556,-1.0463 1.332,-1.8473 2.329,-2.4031 1.014,-0.5722 2.175,-0.8583 3.482,-0.8583 1.276,0 2.404,0.2779 3.384,0.8337 0.981,0.5559 1.733,1.3242 2.256,2.3051 0.54,0.9645 0.81,2.0598 0.81,3.2859 z m -2.305,-0.4659 c 0,-0.8501 -0.188,-1.5776 -0.564,-2.1825 -0.376,-0.6212 -0.891,-1.0871 -1.545,-1.3977 -0.638,-0.327 -1.349,-0.4904 -2.134,-0.4904 -1.128,0 -2.092,0.3596 -2.893,1.0789 -0.785,0.7193 -1.234,1.7165 -1.349,2.9917 z m 10.007,7.9205 c -1.03,0 -1.953,-0.1717 -2.771,-0.515 -0.817,-0.3596 -1.463,-0.85 -1.937,-1.4713 -0.474,-0.6375 -0.735,-1.365 -0.785,-2.1824 h 2.306 c 0.065,0.6703 0.376,1.2179 0.931,1.643 0.573,0.425 1.316,0.6375 2.232,0.6375 0.85,0 1.52,-0.188 2.011,-0.564 0.49,-0.376 0.735,-0.8501 0.735,-1.4222 0,-0.5886 -0.261,-1.0218 -0.784,-1.2997 -0.524,-0.2943 -1.333,-0.5803 -2.428,-0.8583 -0.997,-0.2615 -1.815,-0.5231 -2.452,-0.7846 -0.621,-0.278 -1.161,-0.6785 -1.619,-1.2016 -0.441,-0.5395 -0.662,-1.2424 -0.662,-2.1089 0,-0.6866 0.205,-1.316 0.613,-1.8882 0.409,-0.5721 0.989,-1.0217 1.741,-1.3487 0.752,-0.3433 1.611,-0.5149 2.575,-0.5149 1.488,0 2.689,0.376 3.605,1.128 0.915,0.752 1.406,1.7819 1.471,3.0897 h -2.231 c -0.049,-0.7029 -0.336,-1.2669 -0.859,-1.692 -0.506,-0.425 -1.193,-0.6375 -2.059,-0.6375 -0.802,0 -1.439,0.1716 -1.913,0.5149 -0.474,0.3433 -0.711,0.7929 -0.711,1.3487 0,0.4414 0.139,0.8092 0.417,1.1035 0.294,0.2779 0.653,0.5068 1.079,0.6866 0.441,0.1635 1.046,0.3515 1.814,0.564 0.965,0.2616 1.749,0.5231 2.354,0.7847 0.605,0.2452 1.12,0.6212 1.545,1.128 0.441,0.5068 0.67,1.1689 0.687,1.9863 0,0.7356 -0.205,1.3977 -0.613,1.9862 -0.409,0.5885 -0.989,1.0545 -1.741,1.3978 -0.736,0.3269 -1.586,0.4904 -2.551,0.4904 z m 12.812,0 c -1.03,0 -1.954,-0.1717 -2.771,-0.515 -0.817,-0.3596 -1.463,-0.85 -1.937,-1.4713 -0.474,-0.6375 -0.736,-1.365 -0.785,-2.1824 h 2.305 c 0.066,0.6703 0.376,1.2179 0.932,1.643 0.572,0.425 1.316,0.6375 2.231,0.6375 0.851,0 1.521,-0.188 2.011,-0.564 0.491,-0.376 0.736,-0.8501 0.736,-1.4222 0,-0.5886 -0.262,-1.0218 -0.785,-1.2997 -0.523,-0.2943 -1.332,-0.5803 -2.427,-0.8583 -0.998,-0.2615 -1.815,-0.5231 -2.453,-0.7846 -0.621,-0.278 -1.16,-0.6785 -1.618,-1.2016 -0.441,-0.5395 -0.662,-1.2424 -0.662,-2.1089 0,-0.6866 0.204,-1.316 0.613,-1.8882 0.409,-0.5721 0.989,-1.0217 1.741,-1.3487 0.752,-0.3433 1.61,-0.5149 2.575,-0.5149 1.487,0 2.689,0.376 3.604,1.128 0.916,0.752 1.406,1.7819 1.472,3.0897 h -2.232 c -0.049,-0.7029 -0.335,-1.2669 -0.858,-1.692 -0.507,-0.425 -1.193,-0.6375 -2.06,-0.6375 -0.801,0 -1.438,0.1716 -1.913,0.5149 -0.474,0.3433 -0.711,0.7929 -0.711,1.3487 0,0.4414 0.139,0.8092 0.417,1.1035 0.294,0.2779 0.654,0.5068 1.079,0.6866 0.442,0.1635 1.046,0.3515 1.815,0.564 0.964,0.2616 1.749,0.5231 2.354,0.7847 0.605,0.2452 1.12,0.6212 1.545,1.128 0.441,0.5068 0.67,1.1689 0.686,1.9863 0,0.7356 -0.204,1.3977 -0.613,1.9862 -0.408,0.5885 -0.989,1.0545 -1.741,1.3978 -0.735,0.3269 -1.585,0.4904 -2.55,0.4904 z m 9.207,-15.841 c -0.425,0 -0.785,-0.1472 -1.079,-0.4414 -0.294,-0.2943 -0.441,-0.654 -0.441,-1.079 0,-0.425 0.147,-0.7847 0.441,-1.079 0.294,-0.2942 0.654,-0.4413 1.079,-0.4413 0.409,0 0.752,0.1471 1.03,0.4413 0.294,0.2943 0.441,0.654 0.441,1.079 0,0.425 -0.147,0.7847 -0.441,1.079 -0.278,0.2942 -0.621,0.4414 -1.03,0.4414 z m 1.079,2.1824 v 13.4379 h -2.232 V 9.6616 Z m 9.664,13.6586 c -1.259,0 -2.403,-0.2861 -3.433,-0.8583 -1.014,-0.5721 -1.815,-1.3814 -2.403,-2.4276 -0.573,-1.0626 -0.859,-2.2887 -0.859,-3.6783 0,-1.3732 0.295,-2.5829 0.883,-3.6292 0.605,-1.0626 1.422,-1.8718 2.452,-2.4276 1.03,-0.5722 2.183,-0.8583 3.458,-0.8583 1.275,0 2.428,0.2861 3.457,0.8583 1.03,0.5558 1.84,1.3568 2.428,2.4031 0.605,1.0462 0.907,2.2642 0.907,3.6537 0,1.3896 -0.31,2.6157 -0.931,3.6783 -0.605,1.0462 -1.431,1.8555 -2.477,2.4276 -1.046,0.5722 -2.207,0.8583 -3.482,0.8583 z m 0,-1.9617 c 0.801,0 1.553,-0.188 2.256,-0.564 0.703,-0.376 1.267,-0.94 1.692,-1.692 0.441,-0.752 0.662,-1.6675 0.662,-2.7465 0,-1.0789 -0.213,-1.9944 -0.638,-2.7464 -0.425,-0.752 -0.981,-1.3078 -1.667,-1.6675 -0.687,-0.376 -1.431,-0.564 -2.232,-0.564 -0.817,0 -1.569,0.188 -2.256,0.564 -0.67,0.3597 -1.209,0.9155 -1.618,1.6675 -0.409,0.752 -0.613,1.6675 -0.613,2.7464 0,1.0953 0.196,2.019 0.588,2.771 0.409,0.752 0.949,1.316 1.619,1.692 0.67,0.3596 1.406,0.5395 2.207,0.5395 z M 166.026,9.4164 c 1.634,0 2.959,0.4986 3.972,1.4958 1.014,0.9809 1.521,2.4031 1.521,4.2668 v 7.9205 h -2.207 v -7.6017 c 0,-1.3406 -0.336,-2.3623 -1.006,-3.0653 -0.67,-0.7193 -1.586,-1.0789 -2.746,-1.0789 -1.177,0 -2.117,0.3678 -2.82,1.1035 -0.687,0.7356 -1.03,1.8064 -1.03,3.2123 v 7.4301 h -2.232 V 9.6616 h 2.232 v 1.9127 c 0.441,-0.6866 1.038,-1.2179 1.79,-1.5939 0.768,-0.376 1.61,-0.564 2.526,-0.564 z"
     fill="#7958c6"
     id="path196" />
  <defs
     id="defs370">
    <filter
       id="filter2_d_10_81"
       x="739.33698"
       y="127.174"
       width="296.56"
       height="116.478"
       filterUnits="userSpaceOnUse"
       color-interpolation-filters="sRGB">
      <feFlood
         flood-opacity="0"
         result="BackgroundImageFix"
         id="feFlood244" />
      <feColorMatrix
         in="SourceAlpha"
         type="matrix"
         values="0 0 0 0 0 0 0 0 0 0 0 0 0 0 0 0 0 0 127 0"
         result="hardAlpha"
         id="feColorMatrix246" />
      <feOffset
         dy="3.06522"
         id="feOffset248" />
      <feGaussianBlur
         stdDeviation="3.83152"
         id="feGaussianBlur250" />
      <feComposite
         in2="hardAlpha"
         operator="out"
         id="feComposite252" />
      <feColorMatrix
         type="matrix"
         values="0 0 0 0 0.580392 0 0 0 0 0.415686 0 0 0 0 0.976471 0 0 0 0.35 0"
         id="feColorMatrix254" />
      <feBlend
         mode="normal"
         in2="BackgroundImageFix"
         result="effect1_dropShadow_10_81"
         id="feBlend256" />
      <feBlend
         mode="normal"
         in="SourceGraphic"
         in2="effect1_dropShadow_10_81"
         result="shape"
         id="feBlend258" />
    </filter>
    <filter
       id="filter3_d_10_81"
       x="732.33698"
       y="122.174"
       width="296.56"
       height="116.478"
       filterUnits="userSpaceOnUse"
       color-interpolation-filters="sRGB">
      <feFlood
         flood-opacity="0"
         result="BackgroundImageFix"
         id="feFlood261" />
      <feColorMatrix
         in="SourceAlpha"
         type="matrix"
         values="0 0 0 0 0 0 0 0 0 0 0 0 0 0 0 0 0 0 127 0"
         result="hardAlpha"
         id="feColorMatrix263" />
      <feOffset
         dy="3.06522"
         id="feOffset265" />
      <feGaussianBlur
         stdDeviation="3.83152"
         id="feGaussianBlur267" />
      <feComposite
         in2="hardAlpha"
         operator="out"
         id="feComposite269" />
      <feColorMatrix
         type="matrix"
         values="0 0 0 0 0.580392 0 0 0 0 0.415686 0 0 0 0 0.976471 0 0 0 0.35 0"
         id="feColorMatrix271" />
      <feBlend
         mode="normal"
         in2="BackgroundImageFix"
         result="effect1_dropShadow_10_81"
         id="feBlend273" />
      <feBlend
         mode="normal"
         in="SourceGraphic"
         in2="effect1_dropShadow_10_81"
         result="shape"
         id="feBlend275" />
    </filter>
    <filter
       id="filter4_d_10_81"
       x="725.33698"
       y="116.174"
       width="296.56"
       height="116.478"
       filterUnits="userSpaceOnUse"
       color-interpolation-filters="sRGB">
      <feFlood
         flood-opacity="0"
         result="BackgroundImageFix"
         id="feFlood278" />
      <feColorMatrix
         in="SourceAlpha"
         type="matrix"
         values="0 0 0 0 0 0 0 0 0 0 0 0 0 0 0 0 0 0 127 0"
         result="hardAlpha"
         id="feColorMatrix280" />
      <feOffset
         dy="3.06522"
         id="feOffset282" />
      <feGaussianBlur
         stdDeviation="3.83152"
         id="feGaussianBlur284" />
      <feComposite
         in2="hardAlpha"
         operator="out"
         id="feComposite286" />
      <feColorMatrix
         type="matrix"
         values="0 0 0 0 0.580392 0 0 0 0 0.415686 0 0 0 0 0.976471 0 0 0 0.35 0"
         id="feColorMatrix288" />
      <feBlend
         mode="normal"
         in2="BackgroundImageFix"
         result="effect1_dropShadow_10_81"
         id="feBlend290" />
      <feBlend
         mode="normal"
         in="SourceGraphic"
         in2="effect1_dropShadow_10_81"
         result="shape"
         id="feBlend292" />
    </filter>
    <linearGradient
       id="paint2_linear_10_81"
       x1="753.14398"
       y1="232.924"
       x2="975.63"
       y2="66.504097"
       gradientUnits="userSpaceOnUse">
      <stop
         offset="0.232292"
         stop-color="#B091FD"
         id="stop322" />
      <stop
         offset="0.815625"
         stop-color="#E2D7FF"
         id="stop324" />
    </linearGradient>
    <linearGradient
       id="paint3_linear_10_81"
       x1="746.14398"
       y1="227.924"
       x2="968.63"
       y2="61.504101"
       gradientUnits="userSpaceOnUse">
      <stop
         offset="0.341667"
         stop-color="#B091FD"
         id="stop327" />
      <stop
         offset="0.76875"
         stop-color="#E2D7FF"
         id="stop329" />
    </linearGradient>
    <linearGradient
       id="paint4_linear_10_81"
       x1="320.88"
       y1="132.618"
       x2="236.52299"
       y2="281.17801"
       gradientUnits="userSpaceOnUse"
       gradientTransform="translate(-68,-64.9005)">
      <stop
         stop-color="#AF8FFB"
         id="stop332" />
      <stop
         offset="0.589833"
         stop-color="#825ED8"
         id="stop334" />
      <stop
         offset="1"
         stop-color="#7857C5"
         id="stop336" />
    </linearGradient>
    <linearGradient
       id="paint8_linear_10_81"
       x1="739.14398"
       y1="221.924"
       x2="961.63"
       y2="55.504101"
       gradientUnits="userSpaceOnUse">
      <stop
         stop-color="#B091FD"
         id="stop360" />
      <stop
         offset="1"
         stop-color="#E2D7FF"
         id="stop362" />
    </linearGradient>
  </defs>
</svg>
