<?xml version="1.0" encoding="UTF-8" standalone="no"?>
<svg
   width="1158.8999"
   height="502.32001"
   viewBox="0 0 1158.8999 502.32002"
   fill="none"
   version="1.1"
   id="svg372"
   xmlns="http://www.w3.org/2000/svg"
   xmlns:svg="http://www.w3.org/2000/svg">
  <g
     filter="url(#filter0_d_10_81)"
     id="g134"
     transform="translate(-164,-332.901)">
    <rect
       x="1034"
       y="399"
       width="281.23401"
       height="101.152"
       rx="11.9445"
       fill="url(#paint0_linear_10_81)"
       id="rect132"
       style="fill:url(#paint0_linear_10_81)" />
  </g>
  <g
     filter="url(#filter1_d_10_81)"
     id="g138"
     transform="translate(-164,-332.901)">
    <rect
       x="1027"
       y="394"
       width="281.23401"
       height="101.152"
       rx="11.9445"
       fill="url(#paint1_linear_10_81)"
       id="rect136"
       style="fill:url(#paint1_linear_10_81)" />
  </g>
  <rect
     x="190"
     y="55.870991"
     width="252.88"
     height="101.152"
     rx="11.4946"
     fill="url(#paint5_linear_10_81)"
     id="rect150"
     style="fill:url(#paint5_linear_10_81)" />
  <rect
     x="366"
     y="351.099"
     width="252.88"
     height="101.152"
     rx="11.4946"
     fill="url(#paint6_linear_10_81)"
     id="rect152"
     style="fill:url(#paint6_linear_10_81)" />
  <rect
     x="0"
     y="351.099"
     width="252.88"
     height="101.152"
     rx="11.4946"
     fill="url(#paint7_linear_10_81)"
     id="rect154"
     style="fill:url(#paint7_linear_10_81)" />
  <path
     d="m 258.146,100.71 v 4.292 h 5.763 v 2.722 h -5.763 v 4.536 h 6.498 v 2.796 h -9.931 V 97.915 h 9.931 v 2.795 z m 17.146,0.564 c 1.619,0 2.927,0.515 3.924,1.545 0.997,1.014 1.496,2.436 1.496,4.267 v 7.97 h -3.433 v -7.504 c 0,-1.079 -0.27,-1.905 -0.81,-2.477 -0.539,-0.588 -1.275,-0.883 -2.207,-0.883 -0.948,0 -1.7,0.295 -2.256,0.883 -0.539,0.572 -0.809,1.398 -0.809,2.477 v 7.504 h -3.433 V 101.47 h 3.433 v 1.692 c 0.458,-0.588 1.038,-1.046 1.741,-1.373 0.72,-0.343 1.504,-0.515 2.354,-0.515 z m 7.802,6.989 c 0,-1.406 0.286,-2.632 0.858,-3.678 0.572,-1.063 1.365,-1.88 2.378,-2.452 1.014,-0.589 2.175,-0.883 3.483,-0.883 1.683,0 3.073,0.425 4.168,1.275 1.112,0.834 1.856,2.011 2.232,3.531 h -3.703 c -0.196,-0.588 -0.531,-1.046 -1.005,-1.373 -0.458,-0.343 -1.03,-0.515 -1.717,-0.515 -0.981,0 -1.757,0.36 -2.33,1.079 -0.572,0.703 -0.858,1.708 -0.858,3.016 0,1.291 0.286,2.297 0.858,3.016 0.573,0.703 1.349,1.055 2.33,1.055 1.39,0 2.297,-0.622 2.722,-1.864 h 3.703 c -0.376,1.471 -1.12,2.64 -2.232,3.507 -1.111,0.866 -2.501,1.299 -4.168,1.299 -1.308,0 -2.469,-0.286 -3.483,-0.858 -1.013,-0.589 -1.806,-1.406 -2.378,-2.452 -0.572,-1.063 -0.858,-2.297 -0.858,-3.703 z m 21.666,7.013 c -1.308,0 -2.485,-0.286 -3.531,-0.858 -1.046,-0.589 -1.872,-1.414 -2.477,-2.477 -0.588,-1.062 -0.883,-2.288 -0.883,-3.678 0,-1.39 0.303,-2.616 0.908,-3.678 0.621,-1.063 1.463,-1.88 2.525,-2.452 1.063,-0.589 2.248,-0.883 3.556,-0.883 1.308,0 2.493,0.294 3.556,0.883 1.062,0.572 1.896,1.389 2.501,2.452 0.621,1.062 0.932,2.288 0.932,3.678 0,1.39 -0.319,2.616 -0.957,3.678 -0.621,1.063 -1.471,1.888 -2.55,2.477 -1.062,0.572 -2.256,0.858 -3.58,0.858 z m 0,-2.991 c 0.621,0 1.202,-0.148 1.741,-0.442 0.556,-0.31 0.997,-0.768 1.324,-1.373 0.327,-0.605 0.491,-1.341 0.491,-2.207 0,-1.291 -0.344,-2.281 -1.03,-2.967 -0.67,-0.703 -1.496,-1.055 -2.477,-1.055 -0.981,0 -1.806,0.352 -2.477,1.055 -0.654,0.686 -0.98,1.676 -0.98,2.967 0,1.291 0.318,2.289 0.956,2.992 0.654,0.686 1.471,1.03 2.452,1.03 z m 22.43,-10.815 v 13.586 h -3.458 v -1.717 c -0.441,0.589 -1.021,1.054 -1.741,1.398 -0.703,0.327 -1.471,0.49 -2.305,0.49 -1.062,0 -2.002,-0.221 -2.82,-0.662 -0.817,-0.458 -1.463,-1.12 -1.937,-1.986 -0.458,-0.883 -0.687,-1.929 -0.687,-3.139 v -7.97 h 3.434 v 7.48 c 0,1.079 0.269,1.912 0.809,2.501 0.539,0.572 1.275,0.858 2.207,0.858 0.948,0 1.692,-0.286 2.231,-0.858 0.54,-0.589 0.809,-1.422 0.809,-2.501 v -7.48 z m 10.915,-0.196 c 1.619,0 2.927,0.515 3.924,1.545 0.997,1.014 1.496,2.436 1.496,4.267 v 7.97 h -3.433 v -7.504 c 0,-1.079 -0.27,-1.905 -0.81,-2.477 -0.539,-0.588 -1.275,-0.883 -2.207,-0.883 -0.948,0 -1.7,0.295 -2.256,0.883 -0.539,0.572 -0.809,1.398 -0.809,2.477 v 7.504 h -3.433 V 101.47 h 3.433 v 1.692 c 0.458,-0.588 1.038,-1.046 1.741,-1.373 0.72,-0.343 1.504,-0.515 2.354,-0.515 z m 12.681,3.016 v 6.572 c 0,0.458 0.107,0.793 0.319,1.006 0.229,0.196 0.605,0.294 1.128,0.294 h 1.594 v 2.894 h -2.158 c -2.893,0 -4.34,-1.406 -4.34,-4.218 v -6.548 h -1.619 v -2.82 h 1.619 v -3.359 h 3.457 v 3.359 h 3.041 v 2.82 z m 18.139,3.679 c 0,0.49 -0.033,0.932 -0.098,1.324 h -9.931 c 0.081,0.981 0.425,1.749 1.03,2.305 0.604,0.556 1.348,0.834 2.231,0.834 1.275,0 2.182,-0.548 2.722,-1.643 h 3.703 c -0.393,1.308 -1.145,2.387 -2.256,3.237 -1.112,0.833 -2.477,1.25 -4.095,1.25 -1.308,0 -2.485,-0.286 -3.532,-0.858 -1.029,-0.589 -1.839,-1.414 -2.427,-2.477 -0.572,-1.062 -0.858,-2.288 -0.858,-3.678 0,-1.406 0.286,-2.64 0.858,-3.703 0.572,-1.062 1.373,-1.88 2.403,-2.452 1.03,-0.572 2.215,-0.858 3.556,-0.858 1.291,0 2.444,0.278 3.457,0.834 1.03,0.555 1.823,1.348 2.379,2.378 0.572,1.014 0.858,2.183 0.858,3.507 z m -3.556,-0.981 c -0.016,-0.883 -0.335,-1.586 -0.956,-2.109 -0.621,-0.539 -1.381,-0.809 -2.281,-0.809 -0.85,0 -1.569,0.261 -2.157,0.784 -0.573,0.507 -0.924,1.218 -1.055,2.134 z m 9.495,-3.409 c 0.441,-0.719 1.013,-1.283 1.716,-1.692 0.72,-0.408 1.537,-0.613 2.453,-0.613 v 3.605 h -0.908 c -1.079,0 -1.896,0.253 -2.452,0.76 -0.539,0.507 -0.809,1.39 -0.809,2.649 v 6.768 h -3.433 V 101.47 h 3.433 z"
     fill="#ffffff"
     id="path158" />
  <path
     d="m 434.146,395.939 v 4.291 h 5.763 v 2.722 h -5.763 v 4.536 h 6.498 v 2.796 h -9.931 v -17.141 h 9.931 v 2.796 z m 17.146,0.564 c 1.619,0 2.927,0.515 3.924,1.544 0.997,1.014 1.496,2.436 1.496,4.267 v 7.97 h -3.433 v -7.504 c 0,-1.079 -0.27,-1.904 -0.81,-2.477 -0.539,-0.588 -1.275,-0.882 -2.207,-0.882 -0.948,0 -1.7,0.294 -2.256,0.882 -0.539,0.573 -0.809,1.398 -0.809,2.477 v 7.504 h -3.433 v -13.585 h 3.433 v 1.692 c 0.458,-0.589 1.038,-1.046 1.741,-1.373 0.72,-0.344 1.504,-0.515 2.354,-0.515 z m 7.802,6.988 c 0,-1.406 0.286,-2.632 0.858,-3.678 0.572,-1.063 1.365,-1.88 2.378,-2.452 1.014,-0.589 2.175,-0.883 3.483,-0.883 1.683,0 3.073,0.425 4.168,1.275 1.112,0.834 1.856,2.011 2.232,3.531 h -3.703 c -0.196,-0.588 -0.531,-1.046 -1.005,-1.373 -0.458,-0.343 -1.03,-0.515 -1.717,-0.515 -0.981,0 -1.757,0.36 -2.33,1.079 -0.572,0.703 -0.858,1.708 -0.858,3.016 0,1.292 0.286,2.297 0.858,3.016 0.573,0.703 1.349,1.055 2.33,1.055 1.39,0 2.297,-0.621 2.722,-1.864 h 3.703 c -0.376,1.472 -1.12,2.64 -2.232,3.507 -1.111,0.866 -2.501,1.3 -4.168,1.3 -1.308,0 -2.469,-0.287 -3.483,-0.859 -1.013,-0.588 -1.806,-1.406 -2.378,-2.452 -0.572,-1.063 -0.858,-2.297 -0.858,-3.703 z m 21.666,7.014 c -1.308,0 -2.485,-0.287 -3.531,-0.859 -1.046,-0.588 -1.872,-1.414 -2.477,-2.476 -0.588,-1.063 -0.883,-2.289 -0.883,-3.679 0,-1.389 0.303,-2.615 0.908,-3.678 0.621,-1.063 1.463,-1.88 2.525,-2.452 1.063,-0.589 2.248,-0.883 3.556,-0.883 1.308,0 2.493,0.294 3.556,0.883 1.062,0.572 1.896,1.389 2.501,2.452 0.621,1.063 0.932,2.289 0.932,3.678 0,1.39 -0.319,2.616 -0.957,3.679 -0.621,1.062 -1.471,1.888 -2.55,2.476 -1.062,0.572 -2.256,0.859 -3.58,0.859 z m 0,-2.992 c 0.621,0 1.202,-0.147 1.741,-0.442 0.556,-0.31 0.997,-0.768 1.324,-1.373 0.327,-0.605 0.491,-1.34 0.491,-2.207 0,-1.291 -0.344,-2.28 -1.03,-2.967 -0.67,-0.703 -1.496,-1.054 -2.477,-1.054 -0.981,0 -1.806,0.351 -2.477,1.054 -0.654,0.687 -0.98,1.676 -0.98,2.967 0,1.292 0.318,2.289 0.956,2.992 0.654,0.687 1.471,1.03 2.452,1.03 z m 22.43,-10.814 v 13.585 h -3.458 v -1.717 c -0.441,0.589 -1.021,1.055 -1.741,1.398 -0.703,0.327 -1.471,0.49 -2.305,0.49 -1.062,0 -2.002,-0.22 -2.82,-0.662 -0.817,-0.457 -1.463,-1.119 -1.937,-1.986 -0.458,-0.883 -0.687,-1.929 -0.687,-3.139 v -7.969 h 3.434 v 7.479 c 0,1.079 0.269,1.913 0.809,2.501 0.539,0.572 1.275,0.858 2.207,0.858 0.948,0 1.692,-0.286 2.231,-0.858 0.54,-0.588 0.809,-1.422 0.809,-2.501 v -7.479 z m 10.915,-0.196 c 1.619,0 2.927,0.515 3.924,1.544 0.997,1.014 1.496,2.436 1.496,4.267 v 7.97 h -3.433 v -7.504 c 0,-1.079 -0.27,-1.904 -0.81,-2.477 -0.539,-0.588 -1.275,-0.882 -2.207,-0.882 -0.948,0 -1.7,0.294 -2.256,0.882 -0.539,0.573 -0.809,1.398 -0.809,2.477 v 7.504 h -3.433 v -13.585 h 3.433 v 1.692 c 0.458,-0.589 1.038,-1.046 1.741,-1.373 0.72,-0.344 1.504,-0.515 2.354,-0.515 z m 12.681,3.016 v 6.572 c 0,0.457 0.107,0.792 0.319,1.005 0.229,0.196 0.605,0.294 1.128,0.294 h 1.594 v 2.894 h -2.158 c -2.893,0 -4.34,-1.406 -4.34,-4.218 v -6.547 h -1.619 v -2.82 h 1.619 v -3.36 h 3.457 v 3.36 h 3.041 v 2.82 z m 18.139,3.678 c 0,0.49 -0.033,0.932 -0.098,1.324 h -9.931 c 0.081,0.981 0.425,1.749 1.03,2.305 0.604,0.556 1.348,0.834 2.231,0.834 1.275,0 2.182,-0.548 2.722,-1.643 h 3.703 c -0.393,1.308 -1.145,2.387 -2.256,3.237 -1.112,0.834 -2.477,1.251 -4.095,1.251 -1.308,0 -2.485,-0.287 -3.532,-0.859 -1.029,-0.588 -1.839,-1.414 -2.427,-2.476 -0.572,-1.063 -0.858,-2.289 -0.858,-3.679 0,-1.406 0.286,-2.64 0.858,-3.702 0.572,-1.063 1.373,-1.88 2.403,-2.453 1.03,-0.572 2.215,-0.858 3.556,-0.858 1.291,0 2.444,0.278 3.457,0.834 1.03,0.556 1.823,1.349 2.379,2.378 0.572,1.014 0.858,2.183 0.858,3.507 z m -3.556,-0.981 c -0.016,-0.883 -0.335,-1.586 -0.956,-2.109 -0.621,-0.539 -1.381,-0.809 -2.281,-0.809 -0.85,0 -1.569,0.262 -2.157,0.785 -0.573,0.507 -0.924,1.218 -1.055,2.133 z m 9.495,-3.408 c 0.441,-0.72 1.013,-1.284 1.716,-1.692 0.72,-0.409 1.537,-0.613 2.453,-0.613 v 3.604 h -0.908 c -1.079,0 -1.896,0.254 -2.452,0.76 -0.539,0.507 -0.809,1.39 -0.809,2.649 v 6.768 h -3.433 v -13.585 h 3.433 z"
     fill="#ffffff"
     id="path160" />
  <path
     d="m 68.146,395.939 v 4.291 h 5.763 v 2.722 h -5.763 v 4.536 h 6.498 v 2.796 h -9.931 v -17.141 h 9.931 v 2.796 z m 17.146,0.564 c 1.619,0 2.927,0.515 3.924,1.544 0.997,1.014 1.496,2.436 1.496,4.267 v 7.97 h -3.433 v -7.504 c 0,-1.079 -0.27,-1.904 -0.81,-2.477 -0.539,-0.588 -1.275,-0.882 -2.207,-0.882 -0.948,0 -1.7,0.294 -2.256,0.882 -0.539,0.573 -0.809,1.398 -0.809,2.477 v 7.504 h -3.433 v -13.585 h 3.433 v 1.692 c 0.458,-0.589 1.038,-1.046 1.741,-1.373 0.72,-0.344 1.504,-0.515 2.354,-0.515 z m 7.802,6.988 c 0,-1.406 0.286,-2.632 0.858,-3.678 0.572,-1.063 1.365,-1.88 2.378,-2.452 1.014,-0.589 2.175,-0.883 3.483,-0.883 1.683,0 3.073,0.425 4.168,1.275 1.112,0.834 1.856,2.011 2.232,3.531 h -3.703 c -0.196,-0.588 -0.531,-1.046 -1.005,-1.373 -0.458,-0.343 -1.03,-0.515 -1.717,-0.515 -0.981,0 -1.757,0.36 -2.33,1.079 -0.572,0.703 -0.858,1.708 -0.858,3.016 0,1.292 0.286,2.297 0.858,3.016 0.573,0.703 1.349,1.055 2.33,1.055 1.39,0 2.297,-0.621 2.722,-1.864 h 3.703 c -0.376,1.472 -1.12,2.64 -2.232,3.507 -1.111,0.866 -2.501,1.3 -4.168,1.3 -1.308,0 -2.469,-0.287 -3.483,-0.859 -1.013,-0.588 -1.806,-1.406 -2.378,-2.452 -0.572,-1.063 -0.858,-2.297 -0.858,-3.703 z m 21.666,7.014 c -1.308,0 -2.485,-0.287 -3.531,-0.859 -1.046,-0.588 -1.872,-1.414 -2.477,-2.476 -0.588,-1.063 -0.883,-2.289 -0.883,-3.679 0,-1.389 0.303,-2.615 0.908,-3.678 0.621,-1.063 1.463,-1.88 2.525,-2.452 1.063,-0.589 2.248,-0.883 3.556,-0.883 1.308,0 2.493,0.294 3.556,0.883 1.062,0.572 1.896,1.389 2.501,2.452 0.621,1.063 0.932,2.289 0.932,3.678 0,1.39 -0.319,2.616 -0.957,3.679 -0.621,1.062 -1.471,1.888 -2.55,2.476 -1.062,0.572 -2.256,0.859 -3.58,0.859 z m 0,-2.992 c 0.621,0 1.202,-0.147 1.741,-0.442 0.556,-0.31 0.997,-0.768 1.324,-1.373 0.327,-0.605 0.491,-1.34 0.491,-2.207 0,-1.291 -0.344,-2.28 -1.03,-2.967 -0.67,-0.703 -1.496,-1.054 -2.477,-1.054 -0.981,0 -1.806,0.351 -2.477,1.054 -0.654,0.687 -0.98,1.676 -0.98,2.967 0,1.292 0.318,2.289 0.956,2.992 0.654,0.687 1.471,1.03 2.452,1.03 z m 22.43,-10.814 v 13.585 h -3.458 v -1.717 c -0.441,0.589 -1.021,1.055 -1.741,1.398 -0.703,0.327 -1.471,0.49 -2.305,0.49 -1.062,0 -2.002,-0.22 -2.82,-0.662 -0.817,-0.457 -1.463,-1.119 -1.937,-1.986 -0.458,-0.883 -0.687,-1.929 -0.687,-3.139 v -7.969 h 3.434 v 7.479 c 0,1.079 0.269,1.913 0.809,2.501 0.539,0.572 1.275,0.858 2.207,0.858 0.948,0 1.692,-0.286 2.231,-0.858 0.54,-0.588 0.809,-1.422 0.809,-2.501 v -7.479 z m 10.915,-0.196 c 1.619,0 2.927,0.515 3.924,1.544 0.997,1.014 1.496,2.436 1.496,4.267 v 7.97 h -3.433 v -7.504 c 0,-1.079 -0.27,-1.904 -0.81,-2.477 -0.539,-0.588 -1.275,-0.882 -2.207,-0.882 -0.948,0 -1.7,0.294 -2.256,0.882 -0.539,0.573 -0.809,1.398 -0.809,2.477 v 7.504 h -3.433 v -13.585 h 3.433 v 1.692 c 0.458,-0.589 1.038,-1.046 1.741,-1.373 0.72,-0.344 1.504,-0.515 2.354,-0.515 z m 12.681,3.016 v 6.572 c 0,0.457 0.107,0.792 0.319,1.005 0.229,0.196 0.605,0.294 1.128,0.294 h 1.594 v 2.894 h -2.158 c -2.893,0 -4.34,-1.406 -4.34,-4.218 v -6.547 h -1.619 v -2.82 h 1.619 v -3.36 h 3.457 v 3.36 h 3.041 v 2.82 z m 18.139,3.678 c 0,0.49 -0.033,0.932 -0.098,1.324 h -9.931 c 0.081,0.981 0.425,1.749 1.03,2.305 0.604,0.556 1.348,0.834 2.231,0.834 1.275,0 2.182,-0.548 2.722,-1.643 h 3.703 c -0.393,1.308 -1.145,2.387 -2.256,3.237 -1.112,0.834 -2.477,1.251 -4.095,1.251 -1.308,0 -2.485,-0.287 -3.532,-0.859 -1.029,-0.588 -1.839,-1.414 -2.427,-2.476 -0.572,-1.063 -0.858,-2.289 -0.858,-3.679 0,-1.406 0.286,-2.64 0.858,-3.702 0.572,-1.063 1.373,-1.88 2.403,-2.453 1.03,-0.572 2.215,-0.858 3.556,-0.858 1.291,0 2.444,0.278 3.457,0.834 1.03,0.556 1.823,1.349 2.379,2.378 0.572,1.014 0.858,2.183 0.858,3.507 z m -3.556,-0.981 c -0.016,-0.883 -0.335,-1.586 -0.956,-2.109 -0.621,-0.539 -1.381,-0.809 -2.281,-0.809 -0.85,0 -1.569,0.262 -2.157,0.785 -0.573,0.507 -0.924,1.218 -1.055,2.133 z m 9.495,-3.408 c 0.441,-0.72 1.013,-1.284 1.716,-1.692 0.72,-0.409 1.537,-0.613 2.453,-0.613 v 3.604 h -0.908 c -1.079,0 -1.896,0.254 -2.452,0.76 -0.539,0.507 -0.809,1.39 -0.809,2.649 v 6.768 h -3.433 v -13.585 h 3.433 z"
     fill="#ffffff"
     id="path162" />
  <g
     filter="url(#filter5_d_10_81)"
     id="g170"
     transform="translate(-164,-332.901)">
    <rect
       x="1019"
       y="388.772"
       width="281.23401"
       height="101.152"
       rx="11.9445"
       fill="url(#paint9_linear_10_81)"
       id="rect168"
       style="fill:url(#paint9_linear_10_81)" />
  </g>
  <path
     d="m 457.098,110.225 c -0.499,0.499 -0.499,1.307 0,1.805 l 8.121,8.121 c 0.498,0.498 1.306,0.498 1.804,0 0.499,-0.498 0.499,-1.306 0,-1.805 l -7.218,-7.218 7.218,-7.219 c 0.499,-0.498 0.499,-1.306 0,-1.805 -0.498,-0.498 -1.306,-0.498 -1.804,0 z m 67.921,-0.373 c -0.705,0 -1.276,0.571 -1.276,1.276 0,0.704 0.571,1.276 1.276,1.276 z m -6.538,2.552 c 0.705,0 1.276,-0.572 1.276,-1.276 0,-0.705 -0.571,-1.276 -1.276,-1.276 z m -1.962,-2.552 c -0.705,0 -1.276,0.571 -1.276,1.276 0,0.704 0.571,1.276 1.276,1.276 z m -6.538,2.552 c 0.705,0 1.276,-0.572 1.276,-1.276 0,-0.705 -0.571,-1.276 -1.276,-1.276 z m -1.962,-2.552 c -0.705,0 -1.276,0.571 -1.276,1.276 0,0.704 0.571,1.276 1.276,1.276 z m -6.538,2.552 c 0.705,0 1.276,-0.572 1.276,-1.276 0,-0.705 -0.571,-1.276 -1.276,-1.276 z m -1.962,-2.552 c -0.705,0 -1.276,0.571 -1.276,1.276 0,0.704 0.571,1.276 1.276,1.276 z m -6.538,2.552 c 0.705,0 1.276,-0.572 1.276,-1.276 0,-0.705 -0.571,-1.276 -1.276,-1.276 z m -1.962,-2.552 c -0.705,0 -1.276,0.571 -1.276,1.276 0,0.704 0.571,1.276 1.276,1.276 z m -6.538,2.552 c 0.705,0 1.276,-0.572 1.276,-1.276 0,-0.705 -0.571,-1.276 -1.276,-1.276 z m -1.962,-2.552 c -0.705,0 -1.276,0.571 -1.276,1.276 0,0.704 0.571,1.276 1.276,1.276 z m -6.538,2.552 c 0.705,0 1.276,-0.572 1.276,-1.276 0,-0.705 -0.571,-1.276 -1.276,-1.276 z m -1.962,-2.552 c -0.705,0 -1.276,0.571 -1.276,1.276 0,0.704 0.571,1.276 1.276,1.276 z m -6.538,2.552 c 0.705,0 1.276,-0.572 1.276,-1.276 0,-0.705 -0.571,-1.276 -1.276,-1.276 z m -1.962,-2.552 c -0.705,0 -1.276,0.571 -1.276,1.276 0,0.704 0.571,1.276 1.276,1.276 z m -6.538,2.552 c 0.705,0 1.276,-0.572 1.276,-1.276 0,-0.705 -0.571,-1.276 -1.276,-1.276 z M 526,109.852 h -0.981 v 2.552 H 526 Z m -7.519,0 h -1.962 v 2.552 h 1.962 z m -8.5,0 h -1.962 v 2.552 h 1.962 z m -8.5,0 h -1.962 v 2.552 h 1.962 z m -8.5,0 h -1.962 v 2.552 h 1.962 z m -8.5,0 h -1.962 v 2.552 h 1.962 z m -8.5,0 h -1.962 v 2.552 h 1.962 z m -8.5,0 h -1.962 v 2.552 h 1.962 z m -8.5,0 H 458 v 2.552 h 0.981 z"
     fill="#946af9"
     id="path174" />
  <path
     d="M 837,111.128 H 769"
     stroke="#946af9"
     stroke-width="2.55217"
     stroke-dasharray="1.91, 6.38"
     id="path178" />
  <path
     d="m 894.35,106.473 c 0,-1.684 0.37,-3.188 1.13,-4.512 0.76,-1.341 1.8,-2.379 3.11,-3.114 1.32,-0.752 2.8,-1.128 4.44,-1.128 1.91,0 3.59,0.49 5.03,1.471 1.43,0.981 2.44,2.338 3.01,4.071 h -3.95 c -0.39,-0.818 -0.94,-1.431 -1.66,-1.84 -0.71,-0.408 -1.52,-0.613 -2.46,-0.613 -0.99,0 -1.88,0.237 -2.67,0.712 -0.77,0.457 -1.37,1.111 -1.81,1.961 -0.43,0.85 -0.64,1.848 -0.64,2.992 0,1.128 0.21,2.125 0.64,2.992 0.44,0.85 1.04,1.512 1.81,1.986 0.79,0.458 1.68,0.686 2.67,0.686 0.94,0 1.75,-0.204 2.46,-0.613 0.72,-0.425 1.27,-1.046 1.66,-1.863 h 3.95 c -0.57,1.749 -1.58,3.114 -3.01,4.095 -1.43,0.964 -3.1,1.447 -5.03,1.447 -1.64,0 -3.12,-0.368 -4.44,-1.104 -1.31,-0.752 -2.35,-1.79 -3.11,-3.114 -0.76,-1.324 -1.13,-2.828 -1.13,-4.512 z m 25.69,8.803 c -1.31,0 -2.49,-0.286 -3.53,-0.858 -1.05,-0.589 -1.88,-1.414 -2.48,-2.477 -0.59,-1.062 -0.88,-2.288 -0.88,-3.678 0,-1.39 0.3,-2.616 0.9,-3.678 0.62,-1.063 1.47,-1.88 2.53,-2.452 1.06,-0.589 2.25,-0.883 3.55,-0.883 1.31,0 2.5,0.294 3.56,0.883 1.06,0.572 1.9,1.389 2.5,2.452 0.62,1.062 0.93,2.288 0.93,3.678 0,1.39 -0.32,2.616 -0.95,3.678 -0.62,1.063 -1.47,1.888 -2.55,2.477 -1.07,0.572 -2.26,0.858 -3.58,0.858 z m 0,-2.991 c 0.62,0 1.2,-0.148 1.74,-0.442 0.55,-0.31 0.99,-0.768 1.32,-1.373 0.33,-0.605 0.49,-1.341 0.49,-2.207 0,-1.291 -0.34,-2.281 -1.03,-2.967 -0.67,-0.703 -1.49,-1.055 -2.47,-1.055 -0.99,0 -1.81,0.352 -2.48,1.055 -0.66,0.686 -0.98,1.676 -0.98,2.967 0,1.291 0.32,2.289 0.95,2.992 0.66,0.686 1.48,1.03 2.46,1.03 z m 26.47,-11.011 c 1.67,0 3.01,0.515 4.02,1.545 1.03,1.014 1.55,2.436 1.55,4.267 v 7.97 h -3.43 v -7.504 c 0,-1.063 -0.27,-1.872 -0.81,-2.428 -0.54,-0.572 -1.28,-0.858 -2.21,-0.858 -0.93,0 -1.68,0.286 -2.23,0.858 -0.54,0.556 -0.81,1.365 -0.81,2.428 v 7.504 h -3.43 v -7.504 c 0,-1.063 -0.27,-1.872 -0.81,-2.428 -0.54,-0.572 -1.28,-0.858 -2.21,-0.858 -0.95,0 -1.7,0.286 -2.26,0.858 -0.54,0.556 -0.81,1.365 -0.81,2.428 v 7.504 h -3.43 V 101.47 h 3.43 v 1.643 c 0.45,-0.572 1.01,-1.021 1.7,-1.348 0.7,-0.327 1.47,-0.491 2.3,-0.491 1.06,0 2.01,0.229 2.85,0.687 0.83,0.441 1.48,1.079 1.93,1.913 0.44,-0.785 1.08,-1.414 1.92,-1.889 0.85,-0.474 1.76,-0.711 2.74,-0.711 z m 25.7,0 c 1.66,0 3.01,0.515 4.02,1.545 1.03,1.014 1.54,2.436 1.54,4.267 v 7.97 h -3.43 v -7.504 c 0,-1.063 -0.27,-1.872 -0.81,-2.428 -0.54,-0.572 -1.27,-0.858 -2.21,-0.858 -0.93,0 -1.67,0.286 -2.23,0.858 -0.54,0.556 -0.81,1.365 -0.81,2.428 v 7.504 h -3.43 v -7.504 c 0,-1.063 -0.27,-1.872 -0.81,-2.428 -0.54,-0.572 -1.27,-0.858 -2.21,-0.858 -0.94,0 -1.7,0.286 -2.25,0.858 -0.54,0.556 -0.81,1.365 -0.81,2.428 v 7.504 h -3.43 V 101.47 h 3.43 v 1.643 c 0.44,-0.572 1,-1.021 1.69,-1.348 0.7,-0.327 1.47,-0.491 2.31,-0.491 1.06,0 2.01,0.229 2.84,0.687 0.83,0.441 1.48,1.079 1.94,1.913 0.44,-0.785 1.08,-1.414 1.91,-1.889 0.85,-0.474 1.77,-0.711 2.75,-0.711 z m 21.65,0.196 v 13.586 h -3.46 v -1.717 c -0.44,0.589 -1.02,1.054 -1.74,1.398 -0.71,0.327 -1.47,0.49 -2.31,0.49 -1.06,0 -2,-0.221 -2.82,-0.662 -0.81,-0.458 -1.46,-1.12 -1.93,-1.986 -0.46,-0.883 -0.69,-1.929 -0.69,-3.139 v -7.97 h 3.43 v 7.48 c 0,1.079 0.27,1.912 0.81,2.501 0.54,0.572 1.28,0.858 2.21,0.858 0.95,0 1.69,-0.286 2.23,-0.858 0.54,-0.589 0.81,-1.422 0.81,-2.501 v -7.48 z m 10.91,-0.196 c 1.62,0 2.93,0.515 3.93,1.545 0.99,1.014 1.49,2.436 1.49,4.267 v 7.97 h -3.43 v -7.504 c 0,-1.079 -0.27,-1.905 -0.81,-2.477 -0.54,-0.588 -1.28,-0.883 -2.21,-0.883 -0.95,0 -1.7,0.295 -2.25,0.883 -0.54,0.572 -0.81,1.398 -0.81,2.477 v 7.504 h -3.44 V 101.47 h 3.44 v 1.692 c 0.45,-0.588 1.03,-1.046 1.74,-1.373 0.72,-0.343 1.5,-0.515 2.35,-0.515 z m 10.43,-1.422 c -0.61,0 -1.11,-0.188 -1.52,-0.564 -0.4,-0.392 -0.59,-0.875 -0.59,-1.447 0,-0.572 0.19,-1.046 0.59,-1.422 0.41,-0.392 0.91,-0.589 1.52,-0.589 0.6,0 1.1,0.197 1.49,0.589 0.41,0.376 0.62,0.85 0.62,1.422 0,0.572 -0.21,1.055 -0.62,1.447 -0.39,0.376 -0.89,0.564 -1.49,0.564 z m 1.69,1.618 v 13.586 h -3.43 V 101.47 Z m 2.51,6.793 c 0,-1.406 0.28,-2.632 0.86,-3.678 0.57,-1.063 1.36,-1.88 2.37,-2.452 1.02,-0.589 2.18,-0.883 3.49,-0.883 1.68,0 3.07,0.425 4.17,1.275 1.11,0.834 1.85,2.011 2.23,3.531 h -3.71 c -0.19,-0.588 -0.53,-1.046 -1,-1.373 -0.46,-0.343 -1.03,-0.515 -1.72,-0.515 -0.98,0 -1.75,0.36 -2.33,1.079 -0.57,0.703 -0.86,1.708 -0.86,3.016 0,1.291 0.29,2.297 0.86,3.016 0.58,0.703 1.35,1.055 2.33,1.055 1.39,0 2.3,-0.622 2.72,-1.864 h 3.71 c -0.38,1.471 -1.12,2.64 -2.23,3.507 -1.12,0.866 -2.51,1.299 -4.17,1.299 -1.31,0 -2.47,-0.286 -3.49,-0.858 -1.01,-0.589 -1.8,-1.406 -2.37,-2.452 -0.58,-1.063 -0.86,-2.297 -0.86,-3.703 z m 14.75,-0.049 c 0,-1.373 0.27,-2.591 0.81,-3.654 0.55,-1.062 1.3,-1.88 2.23,-2.452 0.95,-0.572 2,-0.858 3.16,-0.858 1.02,0 1.9,0.204 2.65,0.613 0.77,0.409 1.38,0.923 1.84,1.545 v -1.938 h 3.46 v 13.586 h -3.46 v -1.987 c -0.44,0.638 -1.05,1.169 -1.84,1.594 -0.77,0.409 -1.66,0.613 -2.67,0.613 -1.15,0 -2.19,-0.294 -3.14,-0.883 -0.93,-0.588 -1.68,-1.414 -2.23,-2.476 -0.54,-1.079 -0.81,-2.313 -0.81,-3.703 z m 10.69,0.049 c 0,-0.834 -0.16,-1.545 -0.49,-2.133 -0.33,-0.605 -0.77,-1.063 -1.32,-1.374 -0.56,-0.327 -1.16,-0.49 -1.79,-0.49 -0.64,0 -1.23,0.155 -1.77,0.466 -0.54,0.31 -0.98,0.768 -1.32,1.373 -0.33,0.589 -0.49,1.292 -0.49,2.109 0,0.817 0.16,1.537 0.49,2.158 0.34,0.605 0.78,1.071 1.32,1.398 0.56,0.327 1.14,0.49 1.77,0.49 0.63,0 1.23,-0.155 1.79,-0.466 0.55,-0.327 0.99,-0.785 1.32,-1.373 0.33,-0.605 0.49,-1.324 0.49,-2.158 z m 10.81,-3.973 v 6.572 c 0,0.458 0.1,0.793 0.32,1.006 0.23,0.196 0.6,0.294 1.13,0.294 h 1.59 v 2.894 h -2.16 c -2.89,0 -4.34,-1.406 -4.34,-4.218 v -6.548 h -1.62 v -2.82 h 1.62 v -3.359 h 3.46 v 3.359 h 3.04 v 2.82 z m 7.25,-4.438 c -0.61,0 -1.11,-0.188 -1.52,-0.564 -0.39,-0.392 -0.59,-0.875 -0.59,-1.447 0,-0.572 0.2,-1.046 0.59,-1.422 0.41,-0.392 0.91,-0.589 1.52,-0.589 0.6,0 1.1,0.197 1.5,0.589 0.4,0.376 0.61,0.85 0.61,1.422 0,0.572 -0.21,1.055 -0.61,1.447 -0.4,0.376 -0.9,0.564 -1.5,0.564 z m 1.69,1.618 v 13.586 h -3.43 V 101.47 Z m 9.43,13.806 c -1.31,0 -2.49,-0.286 -3.54,-0.858 -1.04,-0.589 -1.87,-1.414 -2.47,-2.477 -0.59,-1.062 -0.89,-2.288 -0.89,-3.678 0,-1.39 0.31,-2.616 0.91,-3.678 0.62,-1.063 1.47,-1.88 2.53,-2.452 1.06,-0.589 2.25,-0.883 3.55,-0.883 1.31,0 2.5,0.294 3.56,0.883 1.06,0.572 1.9,1.389 2.5,2.452 0.62,1.062 0.93,2.288 0.93,3.678 0,1.39 -0.32,2.616 -0.95,3.678 -0.63,1.063 -1.48,1.888 -2.55,2.477 -1.07,0.572 -2.26,0.858 -3.58,0.858 z m 0,-2.991 c 0.62,0 1.2,-0.148 1.74,-0.442 0.55,-0.31 0.99,-0.768 1.32,-1.373 0.33,-0.605 0.49,-1.341 0.49,-2.207 0,-1.291 -0.34,-2.281 -1.03,-2.967 -0.67,-0.703 -1.49,-1.055 -2.48,-1.055 -0.98,0 -1.8,0.352 -2.47,1.055 -0.66,0.686 -0.98,1.676 -0.98,2.967 0,1.291 0.32,2.289 0.95,2.992 0.66,0.686 1.47,1.03 2.46,1.03 z m 17.13,-11.011 c 1.62,0 2.93,0.515 3.92,1.545 1,1.014 1.5,2.436 1.5,4.267 v 7.97 h -3.43 v -7.504 c 0,-1.079 -0.27,-1.905 -0.81,-2.477 -0.54,-0.588 -1.28,-0.883 -2.21,-0.883 -0.95,0 -1.7,0.295 -2.26,0.883 -0.54,0.572 -0.81,1.398 -0.81,2.477 v 7.504 h -3.43 V 101.47 h 3.43 v 1.692 c 0.46,-0.588 1.04,-1.046 1.74,-1.373 0.72,-0.343 1.51,-0.515 2.36,-0.515 z"
     fill="#7958c6"
     id="path182" />
  <path
     d="m 27.406,485.13 v 16.969 h -2.232 v -12.653 l -5.64,12.653 H 17.965 L 12.3,489.421 v 12.678 H 10.069 V 485.13 h 2.403 l 6.278,14.026 6.277,-14.026 z m 16.045,9.735 c 0,0.425 -0.025,0.875 -0.074,1.349 h -10.74 c 0.082,1.324 0.531,2.362 1.349,3.114 0.833,0.736 1.839,1.104 3.016,1.104 0.964,0 1.765,-0.221 2.403,-0.663 0.654,-0.457 1.112,-1.062 1.373,-1.814 h 2.403 c -0.359,1.291 -1.079,2.346 -2.158,3.163 -1.079,0.801 -2.419,1.202 -4.021,1.202 -1.275,0 -2.42,-0.286 -3.433,-0.859 -0.997,-0.572 -1.782,-1.381 -2.354,-2.427 -0.573,-1.063 -0.859,-2.289 -0.859,-3.678 0,-1.39 0.278,-2.608 0.834,-3.654 0.556,-1.046 1.332,-1.848 2.33,-2.403 1.013,-0.573 2.174,-0.859 3.482,-0.859 1.275,0 2.403,0.278 3.384,0.834 0.981,0.556 1.733,1.324 2.256,2.305 0.539,0.965 0.809,2.06 0.809,3.286 z m -2.305,-0.466 c 0,-0.85 -0.188,-1.577 -0.564,-2.182 -0.376,-0.621 -0.891,-1.087 -1.545,-1.398 -0.637,-0.327 -1.349,-0.49 -2.133,-0.49 -1.128,0 -2.093,0.359 -2.894,1.079 -0.785,0.719 -1.234,1.716 -1.349,2.991 z m 4.417,0.932 c 0,-1.373 0.278,-2.575 0.833,-3.605 0.556,-1.046 1.316,-1.855 2.281,-2.427 0.981,-0.573 2.076,-0.859 3.286,-0.859 1.046,0 2.019,0.246 2.918,0.736 0.899,0.474 1.586,1.104 2.06,1.888 v -7.111 h 2.256 v 18.146 h -2.256 v -2.526 c -0.442,0.801 -1.095,1.463 -1.962,1.987 -0.866,0.506 -1.88,0.76 -3.041,0.76 -1.193,0 -2.28,-0.295 -3.261,-0.883 -0.965,-0.589 -1.725,-1.414 -2.281,-2.477 -0.555,-1.062 -0.833,-2.272 -0.833,-3.629 z m 11.378,0.025 c 0,-1.014 -0.205,-1.897 -0.613,-2.649 -0.409,-0.752 -0.965,-1.324 -1.668,-1.716 -0.686,-0.409 -1.446,-0.613 -2.28,-0.613 -0.834,0 -1.594,0.196 -2.281,0.588 -0.686,0.392 -1.234,0.965 -1.643,1.717 -0.408,0.752 -0.613,1.634 -0.613,2.648 0,1.03 0.205,1.929 0.613,2.697 0.409,0.752 0.957,1.333 1.643,1.741 0.687,0.393 1.447,0.589 2.281,0.589 0.834,0 1.594,-0.196 2.28,-0.589 0.703,-0.408 1.259,-0.989 1.668,-1.741 0.408,-0.768 0.613,-1.659 0.613,-2.672 z m 7.179,-8.877 c -0.425,0 -0.784,-0.147 -1.079,-0.442 -0.294,-0.294 -0.441,-0.654 -0.441,-1.079 0,-0.425 0.147,-0.784 0.441,-1.079 0.295,-0.294 0.654,-0.441 1.079,-0.441 0.409,0 0.752,0.147 1.03,0.441 0.295,0.295 0.442,0.654 0.442,1.079 0,0.425 -0.147,0.785 -0.442,1.079 -0.278,0.295 -0.621,0.442 -1.03,0.442 z m 1.079,2.182 v 13.438 h -2.231 v -13.438 z m 2.97,6.695 c 0,-1.39 0.278,-2.6 0.833,-3.63 0.556,-1.046 1.325,-1.855 2.306,-2.427 0.997,-0.573 2.133,-0.859 3.408,-0.859 1.651,0 3.008,0.401 4.071,1.202 1.079,0.801 1.79,1.913 2.133,3.335 h -2.403 c -0.229,-0.817 -0.679,-1.463 -1.349,-1.937 -0.654,-0.474 -1.471,-0.711 -2.452,-0.711 -1.275,0 -2.305,0.441 -3.09,1.324 -0.784,0.866 -1.177,2.1 -1.177,3.703 0,1.618 0.393,2.869 1.177,3.751 0.785,0.883 1.815,1.325 3.09,1.325 0.981,0 1.798,-0.229 2.452,-0.687 0.654,-0.458 1.104,-1.112 1.349,-1.962 h 2.403 c -0.36,1.373 -1.079,2.477 -2.158,3.311 -1.079,0.817 -2.428,1.226 -4.046,1.226 -1.275,0 -2.411,-0.286 -3.408,-0.859 -0.981,-0.572 -1.75,-1.381 -2.306,-2.427 -0.555,-1.046 -0.833,-2.273 -0.833,-3.678 z m 14.895,-0.025 c 0,-1.373 0.278,-2.575 0.834,-3.605 0.555,-1.046 1.316,-1.855 2.28,-2.427 0.981,-0.573 2.068,-0.859 3.261,-0.859 1.177,0 2.199,0.254 3.066,0.761 0.866,0.506 1.512,1.144 1.937,1.912 v -2.452 h 2.256 v 13.438 h -2.256 v -2.501 c -0.442,0.784 -1.104,1.438 -1.986,1.962 -0.867,0.506 -1.88,0.76 -3.041,0.76 -1.193,0 -2.272,-0.295 -3.237,-0.883 -0.964,-0.589 -1.725,-1.414 -2.28,-2.477 -0.556,-1.062 -0.834,-2.272 -0.834,-3.629 z m 11.378,0.025 c 0,-1.014 -0.204,-1.897 -0.613,-2.649 -0.409,-0.752 -0.965,-1.324 -1.668,-1.716 -0.686,-0.409 -1.446,-0.613 -2.28,-0.613 -0.834,0 -1.594,0.196 -2.281,0.588 -0.686,0.392 -1.234,0.965 -1.643,1.717 -0.408,0.752 -0.613,1.634 -0.613,2.648 0,1.03 0.205,1.929 0.613,2.697 0.409,0.752 0.957,1.333 1.643,1.741 0.687,0.393 1.447,0.589 2.281,0.589 0.834,0 1.594,-0.196 2.28,-0.589 0.703,-0.408 1.259,-0.989 1.668,-1.741 0.409,-0.768 0.613,-1.659 0.613,-2.672 z m 8.258,-11.403 v 18.146 h -2.231 v -18.146 z m 29.139,10.912 c 0,0.425 -0.024,0.875 -0.073,1.349 h -10.741 c 0.082,1.324 0.532,2.362 1.349,3.114 0.834,0.736 1.839,1.104 3.016,1.104 0.965,0 1.766,-0.221 2.403,-0.663 0.654,-0.457 1.112,-1.062 1.374,-1.814 h 2.403 c -0.36,1.291 -1.079,2.346 -2.158,3.163 -1.079,0.801 -2.42,1.202 -4.022,1.202 -1.275,0 -2.419,-0.286 -3.433,-0.859 -0.997,-0.572 -1.782,-1.381 -2.354,-2.427 -0.572,-1.063 -0.858,-2.289 -0.858,-3.678 0,-1.39 0.278,-2.608 0.834,-3.654 0.555,-1.046 1.332,-1.848 2.329,-2.403 1.014,-0.573 2.174,-0.859 3.482,-0.859 1.275,0 2.403,0.278 3.384,0.834 0.981,0.556 1.733,1.324 2.256,2.305 0.54,0.965 0.809,2.06 0.809,3.286 z m -2.305,-0.466 c 0,-0.85 -0.188,-1.577 -0.564,-2.182 -0.376,-0.621 -0.891,-1.087 -1.544,-1.398 -0.638,-0.327 -1.349,-0.49 -2.134,-0.49 -1.128,0 -2.092,0.359 -2.893,1.079 -0.785,0.719 -1.235,1.716 -1.349,2.991 z m 11.798,-5.983 c 1.635,0 2.959,0.498 3.973,1.496 1.013,0.981 1.52,2.403 1.52,4.266 v 7.921 h -2.207 v -7.602 c 0,-1.34 -0.335,-2.362 -1.005,-3.065 -0.671,-0.719 -1.586,-1.079 -2.747,-1.079 -1.177,0 -2.117,0.368 -2.82,1.104 -0.686,0.735 -1.03,1.806 -1.03,3.212 v 7.43 h -2.231 v -13.438 h 2.231 v 1.913 c 0.442,-0.687 1.038,-1.218 1.79,-1.594 0.769,-0.376 1.611,-0.564 2.526,-0.564 z m 8.304,6.94 c 0,-1.39 0.278,-2.6 0.834,-3.63 0.556,-1.046 1.324,-1.855 2.305,-2.427 0.997,-0.573 2.134,-0.859 3.409,-0.859 1.651,0 3.008,0.401 4.07,1.202 1.079,0.801 1.79,1.913 2.134,3.335 h -2.403 c -0.229,-0.817 -0.679,-1.463 -1.349,-1.937 -0.654,-0.474 -1.471,-0.711 -2.452,-0.711 -1.275,0 -2.305,0.441 -3.09,1.324 -0.785,0.866 -1.177,2.1 -1.177,3.703 0,1.618 0.392,2.869 1.177,3.751 0.785,0.883 1.815,1.325 3.09,1.325 0.981,0 1.798,-0.229 2.452,-0.687 0.654,-0.458 1.103,-1.112 1.349,-1.962 h 2.403 c -0.36,1.373 -1.079,2.477 -2.158,3.311 -1.079,0.817 -2.428,1.226 -4.046,1.226 -1.275,0 -2.412,-0.286 -3.409,-0.859 -0.981,-0.572 -1.749,-1.381 -2.305,-2.427 -0.556,-1.046 -0.834,-2.273 -0.834,-3.678 z m 21.59,6.964 c -1.259,0 -2.403,-0.286 -3.433,-0.859 -1.014,-0.572 -1.815,-1.381 -2.403,-2.427 -0.572,-1.063 -0.858,-2.289 -0.858,-3.678 0,-1.374 0.294,-2.583 0.882,-3.63 0.605,-1.062 1.423,-1.872 2.452,-2.427 1.03,-0.573 2.183,-0.859 3.458,-0.859 1.275,0 2.428,0.286 3.458,0.859 1.03,0.555 1.839,1.357 2.427,2.403 0.605,1.046 0.908,2.264 0.908,3.654 0,1.389 -0.311,2.615 -0.932,3.678 -0.605,1.046 -1.431,1.855 -2.477,2.427 -1.046,0.573 -2.207,0.859 -3.482,0.859 z m 0,-1.962 c 0.801,0 1.553,-0.188 2.256,-0.564 0.703,-0.376 1.267,-0.94 1.692,-1.692 0.441,-0.752 0.662,-1.668 0.662,-2.746 0,-1.079 -0.212,-1.995 -0.638,-2.747 -0.425,-0.752 -0.98,-1.308 -1.667,-1.667 -0.687,-0.376 -1.43,-0.564 -2.231,-0.564 -0.818,0 -1.57,0.188 -2.256,0.564 -0.671,0.359 -1.21,0.915 -1.619,1.667 -0.409,0.752 -0.613,1.668 -0.613,2.747 0,1.095 0.196,2.018 0.589,2.77 0.408,0.752 0.948,1.316 1.618,1.692 0.67,0.36 1.406,0.54 2.207,0.54 z m 21.742,-11.697 v 13.438 h -2.231 v -1.986 c -0.425,0.686 -1.022,1.226 -1.79,1.618 -0.752,0.376 -1.586,0.564 -2.502,0.564 -1.046,0 -1.986,-0.212 -2.82,-0.637 -0.833,-0.442 -1.496,-1.096 -1.986,-1.962 -0.474,-0.867 -0.711,-1.921 -0.711,-3.163 v -7.872 h 2.207 v 7.577 c 0,1.324 0.335,2.346 1.005,3.066 0.671,0.702 1.586,1.054 2.747,1.054 1.193,0 2.133,-0.368 2.82,-1.104 0.686,-0.735 1.03,-1.806 1.03,-3.212 v -7.381 z m 10.315,-0.245 c 1.635,0 2.959,0.498 3.973,1.496 1.013,0.981 1.52,2.403 1.52,4.266 v 7.921 h -2.207 v -7.602 c 0,-1.34 -0.335,-2.362 -1.005,-3.065 -0.671,-0.719 -1.586,-1.079 -2.747,-1.079 -1.177,0 -2.117,0.368 -2.82,1.104 -0.686,0.735 -1.03,1.806 -1.03,3.212 v 7.43 h -2.231 v -13.438 h 2.231 v 1.913 c 0.442,-0.687 1.038,-1.218 1.79,-1.594 0.769,-0.376 1.611,-0.564 2.526,-0.564 z m 11.86,2.084 v 7.921 c 0,0.654 0.139,1.12 0.417,1.397 0.278,0.262 0.76,0.393 1.447,0.393 h 1.643 v 1.888 h -2.011 c -1.243,0 -2.174,-0.286 -2.796,-0.858 -0.621,-0.572 -0.931,-1.512 -0.931,-2.82 V 490.5 h -1.741 v -1.839 h 1.741 v -3.384 h 2.231 v 3.384 h 3.507 v 1.839 z m 18.471,4.365 c 0,0.425 -0.024,0.875 -0.073,1.349 H 222.8 c 0.082,1.324 0.531,2.362 1.349,3.114 0.834,0.736 1.839,1.104 3.016,1.104 0.965,0 1.766,-0.221 2.403,-0.663 0.654,-0.457 1.112,-1.062 1.373,-1.814 h 2.403 c -0.359,1.291 -1.078,2.346 -2.157,3.163 -1.079,0.801 -2.42,1.202 -4.022,1.202 -1.275,0 -2.419,-0.286 -3.433,-0.859 -0.997,-0.572 -1.782,-1.381 -2.354,-2.427 -0.572,-1.063 -0.858,-2.289 -0.858,-3.678 0,-1.39 0.278,-2.608 0.833,-3.654 0.556,-1.046 1.333,-1.848 2.33,-2.403 1.013,-0.573 2.174,-0.859 3.482,-0.859 1.275,0 2.403,0.278 3.384,0.834 0.981,0.556 1.733,1.324 2.256,2.305 0.539,0.965 0.809,2.06 0.809,3.286 z m -2.305,-0.466 c 0,-0.85 -0.188,-1.577 -0.564,-2.182 -0.376,-0.621 -0.891,-1.087 -1.545,-1.398 -0.637,-0.327 -1.348,-0.49 -2.133,-0.49 -1.128,0 -2.093,0.359 -2.894,1.079 -0.784,0.719 -1.234,1.716 -1.348,2.991 z m 7.482,-3.555 c 0.393,-0.769 0.948,-1.366 1.668,-1.791 0.735,-0.425 1.626,-0.637 2.673,-0.637 v 2.305 h -0.589 c -2.501,0 -3.752,1.357 -3.752,4.071 v 7.307 h -2.231 v -13.438 h 2.231 z"
     fill="#7958c6"
     id="path186" />
  <path
     d="m 393.406,485.13 v 16.969 h -2.232 v -12.653 l -5.64,12.653 h -1.569 L 378.3,489.421 v 12.678 h -2.231 V 485.13 h 2.403 l 6.278,14.026 6.277,-14.026 z m 16.045,9.735 c 0,0.425 -0.025,0.875 -0.074,1.349 h -10.74 c 0.082,1.324 0.531,2.362 1.349,3.114 0.833,0.736 1.839,1.104 3.016,1.104 0.964,0 1.765,-0.221 2.403,-0.663 0.654,-0.457 1.112,-1.062 1.373,-1.814 h 2.403 c -0.359,1.291 -1.079,2.346 -2.158,3.163 -1.079,0.801 -2.419,1.202 -4.021,1.202 -1.275,0 -2.42,-0.286 -3.433,-0.859 -0.997,-0.572 -1.782,-1.381 -2.354,-2.427 -0.573,-1.063 -0.859,-2.289 -0.859,-3.678 0,-1.39 0.278,-2.608 0.834,-3.654 0.556,-1.046 1.332,-1.848 2.33,-2.403 1.013,-0.573 2.174,-0.859 3.482,-0.859 1.275,0 2.403,0.278 3.384,0.834 0.981,0.556 1.733,1.324 2.256,2.305 0.539,0.965 0.809,2.06 0.809,3.286 z m -2.305,-0.466 c 0,-0.85 -0.188,-1.577 -0.564,-2.182 -0.376,-0.621 -0.891,-1.087 -1.545,-1.398 -0.637,-0.327 -1.349,-0.49 -2.133,-0.49 -1.128,0 -2.093,0.359 -2.894,1.079 -0.785,0.719 -1.234,1.716 -1.349,2.991 z m 4.417,0.932 c 0,-1.373 0.278,-2.575 0.833,-3.605 0.556,-1.046 1.316,-1.855 2.281,-2.427 0.981,-0.573 2.076,-0.859 3.286,-0.859 1.046,0 2.019,0.246 2.918,0.736 0.899,0.474 1.586,1.104 2.06,1.888 v -7.111 h 2.256 v 18.146 h -2.256 v -2.526 c -0.442,0.801 -1.095,1.463 -1.962,1.987 -0.866,0.506 -1.88,0.76 -3.041,0.76 -1.193,0 -2.28,-0.295 -3.261,-0.883 -0.965,-0.589 -1.725,-1.414 -2.281,-2.477 -0.555,-1.062 -0.833,-2.272 -0.833,-3.629 z m 11.378,0.025 c 0,-1.014 -0.205,-1.897 -0.613,-2.649 -0.409,-0.752 -0.965,-1.324 -1.668,-1.716 -0.686,-0.409 -1.446,-0.613 -2.28,-0.613 -0.834,0 -1.594,0.196 -2.281,0.588 -0.686,0.392 -1.234,0.965 -1.643,1.717 -0.408,0.752 -0.613,1.634 -0.613,2.648 0,1.03 0.205,1.929 0.613,2.697 0.409,0.752 0.957,1.333 1.643,1.741 0.687,0.393 1.447,0.589 2.281,0.589 0.834,0 1.594,-0.196 2.28,-0.589 0.703,-0.408 1.259,-0.989 1.668,-1.741 0.408,-0.768 0.613,-1.659 0.613,-2.672 z m 7.179,-8.877 c -0.425,0 -0.784,-0.147 -1.079,-0.442 -0.294,-0.294 -0.441,-0.654 -0.441,-1.079 0,-0.425 0.147,-0.784 0.441,-1.079 0.295,-0.294 0.654,-0.441 1.079,-0.441 0.409,0 0.752,0.147 1.03,0.441 0.295,0.295 0.442,0.654 0.442,1.079 0,0.425 -0.147,0.785 -0.442,1.079 -0.278,0.295 -0.621,0.442 -1.03,0.442 z m 1.079,2.182 v 13.438 h -2.231 v -13.438 z m 2.97,6.695 c 0,-1.39 0.278,-2.6 0.833,-3.63 0.556,-1.046 1.325,-1.855 2.306,-2.427 0.997,-0.573 2.133,-0.859 3.408,-0.859 1.651,0 3.008,0.401 4.071,1.202 1.079,0.801 1.79,1.913 2.133,3.335 h -2.403 c -0.229,-0.817 -0.679,-1.463 -1.349,-1.937 -0.654,-0.474 -1.471,-0.711 -2.452,-0.711 -1.275,0 -2.305,0.441 -3.09,1.324 -0.784,0.866 -1.177,2.1 -1.177,3.703 0,1.618 0.393,2.869 1.177,3.751 0.785,0.883 1.815,1.325 3.09,1.325 0.981,0 1.798,-0.229 2.452,-0.687 0.654,-0.458 1.104,-1.112 1.349,-1.962 h 2.403 c -0.36,1.373 -1.079,2.477 -2.158,3.311 -1.079,0.817 -2.428,1.226 -4.046,1.226 -1.275,0 -2.411,-0.286 -3.408,-0.859 -0.981,-0.572 -1.75,-1.381 -2.306,-2.427 -0.555,-1.046 -0.833,-2.273 -0.833,-3.678 z m 14.895,-0.025 c 0,-1.373 0.278,-2.575 0.834,-3.605 0.555,-1.046 1.316,-1.855 2.28,-2.427 0.981,-0.573 2.068,-0.859 3.261,-0.859 1.177,0 2.199,0.254 3.066,0.761 0.866,0.506 1.512,1.144 1.937,1.912 v -2.452 h 2.256 v 13.438 h -2.256 v -2.501 c -0.442,0.784 -1.104,1.438 -1.986,1.962 -0.867,0.506 -1.88,0.76 -3.041,0.76 -1.193,0 -2.272,-0.295 -3.237,-0.883 -0.964,-0.589 -1.725,-1.414 -2.28,-2.477 -0.556,-1.062 -0.834,-2.272 -0.834,-3.629 z m 11.378,0.025 c 0,-1.014 -0.204,-1.897 -0.613,-2.649 -0.409,-0.752 -0.965,-1.324 -1.668,-1.716 -0.686,-0.409 -1.446,-0.613 -2.28,-0.613 -0.834,0 -1.594,0.196 -2.281,0.588 -0.686,0.392 -1.234,0.965 -1.643,1.717 -0.408,0.752 -0.613,1.634 -0.613,2.648 0,1.03 0.205,1.929 0.613,2.697 0.409,0.752 0.957,1.333 1.643,1.741 0.687,0.393 1.447,0.589 2.281,0.589 0.834,0 1.594,-0.196 2.28,-0.589 0.703,-0.408 1.259,-0.989 1.668,-1.741 0.409,-0.768 0.613,-1.659 0.613,-2.672 z m 8.258,-11.403 v 18.146 h -2.231 v -18.146 z m 29.139,10.912 c 0,0.425 -0.024,0.875 -0.073,1.349 h -10.741 c 0.082,1.324 0.532,2.362 1.349,3.114 0.834,0.736 1.839,1.104 3.016,1.104 0.965,0 1.766,-0.221 2.403,-0.663 0.654,-0.457 1.112,-1.062 1.374,-1.814 h 2.403 c -0.36,1.291 -1.079,2.346 -2.158,3.163 -1.079,0.801 -2.42,1.202 -4.022,1.202 -1.275,0 -2.419,-0.286 -3.433,-0.859 -0.997,-0.572 -1.782,-1.381 -2.354,-2.427 -0.572,-1.063 -0.858,-2.289 -0.858,-3.678 0,-1.39 0.278,-2.608 0.834,-3.654 0.555,-1.046 1.332,-1.848 2.329,-2.403 1.014,-0.573 2.174,-0.859 3.482,-0.859 1.275,0 2.403,0.278 3.384,0.834 0.981,0.556 1.733,1.324 2.256,2.305 0.54,0.965 0.809,2.06 0.809,3.286 z m -2.305,-0.466 c 0,-0.85 -0.188,-1.577 -0.564,-2.182 -0.376,-0.621 -0.891,-1.087 -1.544,-1.398 -0.638,-0.327 -1.349,-0.49 -2.134,-0.49 -1.128,0 -2.092,0.359 -2.893,1.079 -0.785,0.719 -1.235,1.716 -1.349,2.991 z m 11.798,-5.983 c 1.635,0 2.959,0.498 3.973,1.496 1.013,0.981 1.52,2.403 1.52,4.266 v 7.921 h -2.207 v -7.602 c 0,-1.34 -0.335,-2.362 -1.005,-3.065 -0.671,-0.719 -1.586,-1.079 -2.747,-1.079 -1.177,0 -2.117,0.368 -2.82,1.104 -0.686,0.735 -1.03,1.806 -1.03,3.212 v 7.43 h -2.231 v -13.438 h 2.231 v 1.913 c 0.442,-0.687 1.038,-1.218 1.79,-1.594 0.769,-0.376 1.611,-0.564 2.526,-0.564 z m 8.304,6.94 c 0,-1.39 0.278,-2.6 0.834,-3.63 0.556,-1.046 1.324,-1.855 2.305,-2.427 0.997,-0.573 2.134,-0.859 3.409,-0.859 1.651,0 3.008,0.401 4.07,1.202 1.079,0.801 1.79,1.913 2.134,3.335 h -2.403 c -0.229,-0.817 -0.679,-1.463 -1.349,-1.937 -0.654,-0.474 -1.471,-0.711 -2.452,-0.711 -1.275,0 -2.305,0.441 -3.09,1.324 -0.785,0.866 -1.177,2.1 -1.177,3.703 0,1.618 0.392,2.869 1.177,3.751 0.785,0.883 1.815,1.325 3.09,1.325 0.981,0 1.798,-0.229 2.452,-0.687 0.654,-0.458 1.103,-1.112 1.349,-1.962 h 2.403 c -0.36,1.373 -1.079,2.477 -2.158,3.311 -1.079,0.817 -2.428,1.226 -4.046,1.226 -1.275,0 -2.412,-0.286 -3.409,-0.859 -0.981,-0.572 -1.749,-1.381 -2.305,-2.427 -0.556,-1.046 -0.834,-2.273 -0.834,-3.678 z m 21.59,6.964 c -1.259,0 -2.403,-0.286 -3.433,-0.859 -1.014,-0.572 -1.815,-1.381 -2.403,-2.427 -0.572,-1.063 -0.858,-2.289 -0.858,-3.678 0,-1.374 0.294,-2.583 0.882,-3.63 0.605,-1.062 1.423,-1.872 2.452,-2.427 1.03,-0.573 2.183,-0.859 3.458,-0.859 1.275,0 2.428,0.286 3.458,0.859 1.03,0.555 1.839,1.357 2.427,2.403 0.605,1.046 0.908,2.264 0.908,3.654 0,1.389 -0.311,2.615 -0.932,3.678 -0.605,1.046 -1.431,1.855 -2.477,2.427 -1.046,0.573 -2.207,0.859 -3.482,0.859 z m 0,-1.962 c 0.801,0 1.553,-0.188 2.256,-0.564 0.703,-0.376 1.267,-0.94 1.692,-1.692 0.441,-0.752 0.662,-1.668 0.662,-2.746 0,-1.079 -0.212,-1.995 -0.638,-2.747 -0.425,-0.752 -0.98,-1.308 -1.667,-1.667 -0.687,-0.376 -1.43,-0.564 -2.231,-0.564 -0.818,0 -1.57,0.188 -2.256,0.564 -0.671,0.359 -1.21,0.915 -1.619,1.667 -0.409,0.752 -0.613,1.668 -0.613,2.747 0,1.095 0.196,2.018 0.589,2.77 0.408,0.752 0.948,1.316 1.618,1.692 0.67,0.36 1.406,0.54 2.207,0.54 z m 21.742,-11.697 v 13.438 h -2.231 v -1.986 c -0.425,0.686 -1.022,1.226 -1.79,1.618 -0.752,0.376 -1.586,0.564 -2.502,0.564 -1.046,0 -1.986,-0.212 -2.82,-0.637 -0.833,-0.442 -1.496,-1.096 -1.986,-1.962 -0.474,-0.867 -0.711,-1.921 -0.711,-3.163 v -7.872 h 2.207 v 7.577 c 0,1.324 0.335,2.346 1.005,3.066 0.671,0.702 1.586,1.054 2.747,1.054 1.193,0 2.133,-0.368 2.82,-1.104 0.686,-0.735 1.03,-1.806 1.03,-3.212 v -7.381 z m 10.315,-0.245 c 1.635,0 2.959,0.498 3.973,1.496 1.013,0.981 1.52,2.403 1.52,4.266 v 7.921 h -2.207 v -7.602 c 0,-1.34 -0.335,-2.362 -1.005,-3.065 -0.671,-0.719 -1.586,-1.079 -2.747,-1.079 -1.177,0 -2.117,0.368 -2.82,1.104 -0.686,0.735 -1.03,1.806 -1.03,3.212 v 7.43 h -2.231 v -13.438 h 2.231 v 1.913 c 0.442,-0.687 1.038,-1.218 1.79,-1.594 0.769,-0.376 1.611,-0.564 2.526,-0.564 z m 11.86,2.084 v 7.921 c 0,0.654 0.139,1.12 0.417,1.397 0.278,0.262 0.76,0.393 1.447,0.393 h 1.643 v 1.888 h -2.011 c -1.243,0 -2.174,-0.286 -2.796,-0.858 -0.621,-0.572 -0.931,-1.512 -0.931,-2.82 V 490.5 h -1.741 v -1.839 h 1.741 v -3.384 h 2.231 v 3.384 h 3.507 v 1.839 z m 18.471,4.365 c 0,0.425 -0.024,0.875 -0.073,1.349 H 588.8 c 0.082,1.324 0.531,2.362 1.349,3.114 0.834,0.736 1.839,1.104 3.016,1.104 0.965,0 1.766,-0.221 2.403,-0.663 0.654,-0.457 1.112,-1.062 1.373,-1.814 h 2.403 c -0.359,1.291 -1.078,2.346 -2.157,3.163 -1.079,0.801 -2.42,1.202 -4.022,1.202 -1.275,0 -2.419,-0.286 -3.433,-0.859 -0.997,-0.572 -1.782,-1.381 -2.354,-2.427 -0.572,-1.063 -0.858,-2.289 -0.858,-3.678 0,-1.39 0.278,-2.608 0.833,-3.654 0.556,-1.046 1.333,-1.848 2.33,-2.403 1.013,-0.573 2.174,-0.859 3.482,-0.859 1.275,0 2.403,0.278 3.384,0.834 0.981,0.556 1.733,1.324 2.256,2.305 0.539,0.965 0.809,2.06 0.809,3.286 z m -2.305,-0.466 c 0,-0.85 -0.188,-1.577 -0.564,-2.182 -0.376,-0.621 -0.891,-1.087 -1.545,-1.398 -0.637,-0.327 -1.348,-0.49 -2.133,-0.49 -1.128,0 -2.093,0.359 -2.894,1.079 -0.784,0.719 -1.234,1.716 -1.348,2.991 z m 7.482,-3.555 c 0.393,-0.769 0.948,-1.366 1.668,-1.791 0.735,-0.425 1.626,-0.637 2.673,-0.637 v 2.305 h -0.589 c -2.501,0 -3.752,1.357 -3.752,4.071 v 7.307 h -2.231 v -13.438 h 2.231 z"
     fill="#7958c6"
     id="path188" />
  <path
     d="m 903,23.271 c -1.13,0 -2.14,-0.197 -3.04,-0.589 -0.88,-0.409 -1.58,-0.964 -2.08,-1.667 -0.51,-0.72 -0.77,-1.545 -0.79,-2.477 h 2.38 c 0.08,0.801 0.41,1.479 0.98,2.035 0.59,0.54 1.44,0.809 2.55,0.809 1.07,0 1.9,-0.261 2.5,-0.784 0.63,-0.54 0.94,-1.226 0.94,-2.06 0,-0.654 -0.18,-1.185 -0.54,-1.594 -0.36,-0.409 -0.81,-0.719 -1.35,-0.932 -0.54,-0.212 -1.27,-0.441 -2.18,-0.686 -1.13,-0.295 -2.04,-0.589 -2.73,-0.883 -0.67,-0.294 -1.25,-0.752 -1.74,-1.373 -0.47,-0.638 -0.71,-1.488 -0.71,-2.551 0,-0.931 0.24,-1.757 0.71,-2.476 0.48,-0.72 1.14,-1.275 1.99,-1.668 0.86,-0.392 1.85,-0.588 2.97,-0.588 1.6,0 2.91,0.4 3.92,1.201 1.03,0.801 1.61,1.864 1.74,3.188 h -2.45 c -0.08,-0.654 -0.43,-1.226 -1.03,-1.716 -0.61,-0.507 -1.41,-0.761 -2.41,-0.761 -0.93,0 -1.69,0.246 -2.28,0.736 -0.58,0.474 -0.88,1.144 -0.88,2.011 0,0.621 0.17,1.128 0.52,1.52 0.36,0.392 0.79,0.695 1.3,0.907 0.52,0.197 1.25,0.425 2.18,0.687 1.13,0.311 2.03,0.621 2.72,0.932 0.69,0.294 1.28,0.76 1.77,1.398 0.49,0.621 0.73,1.471 0.73,2.55 0,0.834 -0.22,1.618 -0.66,2.354 -0.44,0.736 -1.1,1.332 -1.96,1.79 -0.87,0.458 -1.89,0.687 -3.07,0.687 z M 929.31,6.13 v 16.969 h -2.23 V 10.446 l -5.64,12.653 h -1.57 l -5.66,-12.678 v 12.678 h -2.23 V 6.13 h 2.4 l 6.28,14.026 6.27,-14.026 z m 9.21,17.141 c -1.13,0 -2.15,-0.197 -3.04,-0.589 -0.89,-0.409 -1.58,-0.964 -2.09,-1.667 -0.51,-0.72 -0.77,-1.545 -0.78,-2.477 h 2.38 c 0.08,0.801 0.4,1.479 0.98,2.035 0.58,0.54 1.43,0.809 2.55,0.809 1.06,0 1.89,-0.261 2.5,-0.784 0.62,-0.54 0.93,-1.226 0.93,-2.06 0,-0.654 -0.18,-1.185 -0.54,-1.594 -0.36,-0.409 -0.81,-0.719 -1.35,-0.932 -0.54,-0.212 -1.27,-0.441 -2.18,-0.686 -1.13,-0.295 -2.04,-0.589 -2.72,-0.883 -0.67,-0.294 -1.25,-0.752 -1.74,-1.373 -0.48,-0.638 -0.72,-1.488 -0.72,-2.551 0,-0.931 0.24,-1.757 0.72,-2.476 0.47,-0.72 1.13,-1.275 1.98,-1.668 0.87,-0.392 1.86,-0.588 2.97,-0.588 1.6,0 2.91,0.4 3.92,1.201 1.03,0.801 1.61,1.864 1.74,3.188 h -2.45 C 941.5,9.522 941.16,8.95 940.55,8.46 c -0.6,-0.507 -1.4,-0.761 -2.4,-0.761 -0.93,0 -1.69,0.246 -2.28,0.736 -0.59,0.474 -0.88,1.144 -0.88,2.011 0,0.621 0.17,1.128 0.51,1.52 0.36,0.392 0.79,0.695 1.3,0.907 0.52,0.197 1.25,0.425 2.18,0.687 1.13,0.311 2.04,0.621 2.72,0.932 0.69,0.294 1.28,0.76 1.77,1.398 0.49,0.621 0.74,1.471 0.74,2.55 0,0.834 -0.23,1.618 -0.67,2.354 -0.44,0.736 -1.09,1.332 -1.96,1.79 -0.87,0.458 -1.89,0.687 -3.06,0.687 z M 955.83,0 949.11,27.268 H 946.9 L 953.59,0 Z m 5.55,7.822 v 5.714 h 6.23 v 1.839 h -6.23 v 5.885 h 6.97 v 1.839 h -9.2 V 5.983 h 9.2 v 1.839 z m 26.5,1.594 c 1.05,0 1.98,0.221 2.8,0.662 0.82,0.425 1.46,1.071 1.94,1.937 0.47,0.867 0.71,1.921 0.71,3.163 v 7.921 h -2.21 v -7.602 c 0,-1.34 -0.34,-2.362 -1.01,-3.065 -0.65,-0.719 -1.54,-1.079 -2.67,-1.079 -1.16,0 -2.08,0.376 -2.77,1.128 -0.69,0.736 -1.03,1.807 -1.03,3.212 v 7.406 h -2.21 v -7.602 c 0,-1.34 -0.33,-2.362 -1,-3.065 -0.66,-0.719 -1.55,-1.079 -2.67,-1.079 -1.16,0 -2.09,0.376 -2.78,1.128 -0.68,0.736 -1.03,1.807 -1.03,3.212 v 7.406 h -2.23 V 9.661 h 2.23 v 1.937 c 0.45,-0.703 1.03,-1.242 1.77,-1.618 0.75,-0.376 1.58,-0.564 2.48,-0.564 1.13,0 2.12,0.253 2.99,0.76 0.87,0.507 1.51,1.251 1.94,2.232 0.37,-0.949 0.99,-1.684 1.86,-2.207 0.87,-0.524 1.83,-0.785 2.89,-0.785 z m 8.27,6.915 c 0,-1.373 0.28,-2.575 0.84,-3.605 0.55,-1.046 1.31,-1.855 2.28,-2.427 0.98,-0.573 2.07,-0.859 3.26,-0.859 1.18,0 2.2,0.254 3.06,0.761 0.87,0.506 1.52,1.144 1.94,1.912 V 9.661 h 2.26 v 13.438 h -2.26 v -2.501 c -0.44,0.784 -1.1,1.438 -1.98,1.962 -0.87,0.506 -1.88,0.76 -3.05,0.76 -1.19,0 -2.27,-0.295 -3.23,-0.883 -0.97,-0.589 -1.73,-1.414 -2.28,-2.477 -0.56,-1.062 -0.84,-2.272 -0.84,-3.629 z m 11.38,0.025 c 0,-1.014 -0.2,-1.897 -0.61,-2.649 -0.41,-0.752 -0.97,-1.324 -1.67,-1.716 -0.69,-0.409 -1.45,-0.613 -2.28,-0.613 -0.83,0 -1.59,0.196 -2.28,0.588 -0.69,0.392 -1.23,0.965 -1.64,1.717 -0.41,0.752 -0.62,1.634 -0.62,2.648 0,1.03 0.21,1.929 0.62,2.697 0.41,0.752 0.95,1.333 1.64,1.741 0.69,0.393 1.45,0.589 2.28,0.589 0.83,0 1.59,-0.196 2.28,-0.589 0.7,-0.408 1.26,-0.989 1.67,-1.741 0.41,-0.768 0.61,-1.659 0.61,-2.672 z m 7.18,-8.877 c -0.42,0 -0.78,-0.147 -1.08,-0.442 -0.29,-0.294 -0.44,-0.654 -0.44,-1.079 0,-0.425 0.15,-0.784 0.44,-1.079 0.3,-0.294 0.66,-0.441 1.08,-0.441 0.41,0 0.75,0.147 1.03,0.441 0.3,0.295 0.44,0.654 0.44,1.079 0,0.425 -0.14,0.785 -0.44,1.079 -0.28,0.295 -0.62,0.442 -1.03,0.442 z m 1.08,2.182 v 13.438 h -2.23 V 9.661 Z m 6.03,-4.708 v 18.146 h -2.23 V 4.953 Z M 1033.97,0 l -6.72,27.268 h -2.21 L 1031.73,0 Z m 2.49,14.541 c 0,-1.668 0.37,-3.163 1.12,-4.488 0.76,-1.34 1.78,-2.386 3.07,-3.138 1.31,-0.752 2.75,-1.128 4.34,-1.128 1.86,0 3.49,0.449 4.88,1.348 1.39,0.899 2.4,2.175 3.04,3.826 h -2.67 c -0.48,-1.03 -1.16,-1.823 -2.06,-2.379 -0.88,-0.556 -1.95,-0.834 -3.19,-0.834 -1.19,0 -2.26,0.278 -3.21,0.834 -0.95,0.556 -1.69,1.349 -2.23,2.379 -0.54,1.013 -0.81,2.207 -0.81,3.58 0,1.357 0.27,2.55 0.81,3.58 0.54,1.014 1.28,1.798 2.23,2.354 0.95,0.556 2.02,0.834 3.21,0.834 1.24,0 2.31,-0.27 3.19,-0.809 0.9,-0.556 1.58,-1.349 2.06,-2.379 h 2.67 c -0.64,1.635 -1.65,2.902 -3.04,3.801 -1.39,0.883 -3.02,1.324 -4.88,1.324 -1.59,0 -3.03,-0.368 -4.34,-1.103 -1.29,-0.752 -2.31,-1.79 -3.07,-3.115 -0.75,-1.324 -1.12,-2.82 -1.12,-4.487 z m 26.44,-5.125 c 1.02,0 1.93,0.221 2.75,0.662 0.82,0.425 1.45,1.071 1.91,1.937 0.48,0.867 0.71,1.921 0.71,3.163 v 7.921 h -2.2 v -7.602 c 0,-1.34 -0.34,-2.362 -1.01,-3.065 -0.67,-0.719 -1.59,-1.079 -2.75,-1.079 -1.17,0 -2.11,0.368 -2.82,1.104 -0.68,0.735 -1.03,1.806 -1.03,3.212 v 7.43 h -2.23 V 4.953 h 2.23 v 6.621 c 0.45,-0.687 1.05,-1.218 1.82,-1.594 0.78,-0.376 1.66,-0.564 2.62,-0.564 z m 8.18,6.915 c 0,-1.373 0.28,-2.575 0.84,-3.605 0.55,-1.046 1.31,-1.855 2.28,-2.427 0.98,-0.573 2.07,-0.859 3.26,-0.859 1.18,0 2.2,0.254 3.06,0.761 0.87,0.506 1.52,1.144 1.94,1.912 V 9.661 h 2.26 v 13.438 h -2.26 v -2.501 c -0.44,0.784 -1.1,1.438 -1.98,1.962 -0.87,0.506 -1.88,0.76 -3.04,0.76 -1.2,0 -2.28,-0.295 -3.24,-0.883 -0.97,-0.589 -1.73,-1.414 -2.28,-2.477 -0.56,-1.062 -0.84,-2.272 -0.84,-3.629 z m 11.38,0.025 c 0,-1.014 -0.2,-1.897 -0.61,-2.649 -0.41,-0.752 -0.97,-1.324 -1.67,-1.716 -0.69,-0.409 -1.45,-0.613 -2.28,-0.613 -0.83,0 -1.59,0.196 -2.28,0.588 -0.69,0.392 -1.23,0.965 -1.64,1.717 -0.41,0.752 -0.62,1.634 -0.62,2.648 0,1.03 0.21,1.929 0.62,2.697 0.41,0.752 0.95,1.333 1.64,1.741 0.69,0.393 1.45,0.589 2.28,0.589 0.83,0 1.59,-0.196 2.28,-0.589 0.7,-0.408 1.26,-0.989 1.67,-1.741 0.41,-0.768 0.61,-1.659 0.61,-2.672 z m 8.75,-4.856 v 7.921 c 0,0.654 0.14,1.12 0.42,1.397 0.28,0.262 0.76,0.393 1.44,0.393 h 1.65 v 1.888 h -2.01 c -1.25,0 -2.18,-0.286 -2.8,-0.858 -0.62,-0.572 -0.93,-1.512 -0.93,-2.82 V 11.5 h -1.74 V 9.661 h 1.74 V 6.277 h 2.23 v 3.384 h 3.51 V 11.5 Z"
     fill="#7958c6"
     id="path190" />
  <path
     d="m 546.798,97.541 c 0,-1.668 0.376,-3.163 1.128,-4.488 0.752,-1.34 1.774,-2.386 3.065,-3.138 1.308,-0.752 2.755,-1.128 4.34,-1.128 1.864,0 3.491,0.449 4.88,1.348 1.39,0.899 2.403,2.175 3.041,3.826 h -2.673 c -0.474,-1.03 -1.161,-1.823 -2.06,-2.379 -0.883,-0.556 -1.945,-0.834 -3.188,-0.834 -1.193,0 -2.264,0.278 -3.212,0.834 -0.948,0.556 -1.692,1.349 -2.231,2.379 -0.54,1.013 -0.81,2.207 -0.81,3.58 0,1.357 0.27,2.55 0.81,3.58 0.539,1.014 1.283,1.798 2.231,2.354 0.948,0.556 2.019,0.834 3.212,0.834 1.243,0 2.305,-0.27 3.188,-0.809 0.899,-0.556 1.586,-1.349 2.06,-2.379 h 2.673 c -0.638,1.635 -1.651,2.902 -3.041,3.801 -1.389,0.883 -3.016,1.324 -4.88,1.324 -1.585,0 -3.032,-0.368 -4.34,-1.103 -1.291,-0.752 -2.313,-1.79 -3.065,-3.115 -0.752,-1.324 -1.128,-2.82 -1.128,-4.487 z m 25.636,8.779 c -1.258,0 -2.403,-0.286 -3.433,-0.859 -1.013,-0.572 -1.814,-1.381 -2.403,-2.427 -0.572,-1.063 -0.858,-2.289 -0.858,-3.678 0,-1.374 0.294,-2.583 0.883,-3.63 0.605,-1.062 1.422,-1.872 2.452,-2.427 1.03,-0.573 2.182,-0.859 3.457,-0.859 1.276,0 2.428,0.286 3.458,0.859 1.03,0.555 1.839,1.357 2.428,2.403 0.605,1.046 0.907,2.264 0.907,3.654 0,1.389 -0.311,2.615 -0.932,3.678 -0.605,1.046 -1.43,1.855 -2.477,2.427 -1.046,0.573 -2.207,0.859 -3.482,0.859 z m 0,-1.962 c 0.801,0 1.553,-0.188 2.256,-0.564 0.703,-0.376 1.267,-0.94 1.692,-1.692 0.442,-0.752 0.662,-1.668 0.662,-2.746 0,-1.079 -0.212,-1.995 -0.637,-2.747 -0.425,-0.752 -0.981,-1.308 -1.668,-1.667 -0.686,-0.376 -1.43,-0.564 -2.231,-0.564 -0.817,0 -1.569,0.188 -2.256,0.564 -0.67,0.359 -1.21,0.915 -1.619,1.667 -0.408,0.752 -0.613,1.668 -0.613,2.747 0,1.095 0.197,2.018 0.589,2.77 0.409,0.752 0.948,1.316 1.618,1.692 0.671,0.36 1.406,0.54 2.207,0.54 z m 25.985,-11.942 c 1.046,0 1.978,0.221 2.795,0.662 0.818,0.425 1.463,1.071 1.937,1.937 0.475,0.867 0.712,1.921 0.712,3.163 v 7.921 h -2.207 v -7.602 c 0,-1.34 -0.336,-2.362 -1.006,-3.065 -0.654,-0.719 -1.545,-1.079 -2.673,-1.079 -1.16,0 -2.084,0.376 -2.771,1.128 -0.686,0.736 -1.03,1.807 -1.03,3.212 v 7.406 h -2.206 v -7.602 c 0,-1.34 -0.336,-2.362 -1.006,-3.065 -0.654,-0.719 -1.545,-1.079 -2.673,-1.079 -1.16,0 -2.084,0.376 -2.771,1.128 -0.686,0.736 -1.03,1.807 -1.03,3.212 v 7.406 h -2.231 V 92.661 h 2.231 v 1.937 c 0.442,-0.703 1.03,-1.242 1.766,-1.618 0.752,-0.376 1.578,-0.564 2.477,-0.564 1.128,0 2.125,0.253 2.991,0.76 0.867,0.507 1.512,1.251 1.938,2.232 0.376,-0.949 0.997,-1.684 1.863,-2.207 0.867,-0.524 1.831,-0.785 2.894,-0.785 z m 25.264,0 c 1.046,0 1.978,0.221 2.795,0.662 0.818,0.425 1.463,1.071 1.938,1.937 0.474,0.867 0.711,1.921 0.711,3.163 v 7.921 h -2.207 v -7.602 c 0,-1.34 -0.335,-2.362 -1.006,-3.065 -0.654,-0.719 -1.545,-1.079 -2.673,-1.079 -1.16,0 -2.084,0.376 -2.77,1.128 -0.687,0.736 -1.03,1.807 -1.03,3.212 v 7.406 h -2.207 v -7.602 c 0,-1.34 -0.335,-2.362 -1.006,-3.065 -0.654,-0.719 -1.545,-1.079 -2.673,-1.079 -1.16,0 -2.084,0.376 -2.771,1.128 -0.686,0.736 -1.029,1.807 -1.029,3.212 v 7.406 h -2.232 V 92.661 h 2.232 v 1.937 c 0.441,-0.703 1.029,-1.242 1.765,-1.618 0.752,-0.376 1.578,-0.564 2.477,-0.564 1.128,0 2.125,0.253 2.991,0.76 0.867,0.507 1.513,1.251 1.938,2.232 0.376,-0.949 0.997,-1.684 1.863,-2.207 0.867,-0.524 1.831,-0.785 2.894,-0.785 z m 21.022,0.245 v 13.438 h -2.232 v -1.986 c -0.425,0.686 -1.022,1.226 -1.79,1.618 -0.752,0.376 -1.586,0.564 -2.501,0.564 -1.046,0 -1.986,-0.212 -2.82,-0.637 -0.834,-0.442 -1.496,-1.096 -1.986,-1.962 -0.474,-0.867 -0.711,-1.921 -0.711,-3.163 v -7.872 h 2.206 v 7.577 c 0,1.324 0.336,2.346 1.006,3.066 0.67,0.702 1.586,1.054 2.746,1.054 1.194,0 2.134,-0.368 2.82,-1.104 0.687,-0.735 1.03,-1.806 1.03,-3.212 v -7.381 z m 10.315,-0.245 c 1.634,0 2.959,0.498 3.972,1.496 1.014,0.981 1.521,2.403 1.521,4.266 v 7.921 h -2.207 v -7.602 c 0,-1.34 -0.336,-2.362 -1.006,-3.065 -0.67,-0.719 -1.586,-1.079 -2.746,-1.079 -1.177,0 -2.117,0.368 -2.82,1.104 -0.687,0.735 -1.03,1.806 -1.03,3.212 v 7.43 h -2.232 V 92.661 h 2.232 v 1.913 c 0.441,-0.687 1.038,-1.218 1.79,-1.594 0.768,-0.376 1.61,-0.564 2.526,-0.564 z m 10.29,-1.937 c -0.425,0 -0.784,-0.147 -1.079,-0.442 -0.294,-0.294 -0.441,-0.654 -0.441,-1.079 0,-0.425 0.147,-0.784 0.441,-1.079 0.295,-0.294 0.654,-0.441 1.079,-0.441 0.409,0 0.752,0.147 1.03,0.441 0.294,0.295 0.442,0.654 0.442,1.079 0,0.425 -0.148,0.785 -0.442,1.079 -0.278,0.295 -0.621,0.442 -1.03,0.442 z m 1.079,2.182 v 13.438 h -2.231 V 92.661 Z m 2.97,6.695 c 0,-1.39 0.278,-2.6 0.833,-3.63 0.556,-1.046 1.325,-1.855 2.305,-2.427 0.998,-0.573 2.134,-0.859 3.409,-0.859 1.651,0 3.008,0.401 4.071,1.202 1.078,0.801 1.79,1.913 2.133,3.335 h -2.403 c -0.229,-0.817 -0.679,-1.463 -1.349,-1.937 -0.654,-0.474 -1.471,-0.711 -2.452,-0.711 -1.275,0 -2.305,0.441 -3.09,1.324 -0.785,0.866 -1.177,2.1 -1.177,3.703 0,1.618 0.392,2.869 1.177,3.751 0.785,0.883 1.815,1.325 3.09,1.325 0.981,0 1.798,-0.229 2.452,-0.687 0.654,-0.458 1.104,-1.112 1.349,-1.962 h 2.403 c -0.36,1.373 -1.079,2.477 -2.158,3.311 -1.079,0.817 -2.428,1.226 -4.046,1.226 -1.275,0 -2.411,-0.286 -3.409,-0.859 -0.98,-0.572 -1.749,-1.381 -2.305,-2.427 -0.555,-1.046 -0.833,-2.273 -0.833,-3.678 z m 14.895,-0.025 c 0,-1.373 0.278,-2.575 0.833,-3.605 0.556,-1.046 1.316,-1.855 2.281,-2.427 0.981,-0.573 2.068,-0.859 3.261,-0.859 1.177,0 2.199,0.254 3.066,0.761 0.866,0.506 1.512,1.144 1.937,1.912 v -2.452 h 2.256 v 13.438 h -2.256 v -2.501 c -0.442,0.784 -1.104,1.438 -1.987,1.962 -0.866,0.506 -1.88,0.76 -3.04,0.76 -1.194,0 -2.273,-0.295 -3.237,-0.883 -0.965,-0.589 -1.725,-1.414 -2.281,-2.477 -0.555,-1.062 -0.833,-2.272 -0.833,-3.629 z m 11.378,0.025 c 0,-1.014 -0.205,-1.897 -0.613,-2.649 -0.409,-0.752 -0.965,-1.324 -1.668,-1.716 -0.686,-0.409 -1.447,-0.613 -2.28,-0.613 -0.834,0 -1.594,0.196 -2.281,0.588 -0.686,0.392 -1.234,0.965 -1.643,1.717 -0.408,0.752 -0.613,1.634 -0.613,2.648 0,1.03 0.205,1.929 0.613,2.697 0.409,0.752 0.957,1.333 1.643,1.741 0.687,0.393 1.447,0.589 2.281,0.589 0.833,0 1.594,-0.196 2.28,-0.589 0.703,-0.408 1.259,-0.989 1.668,-1.741 0.408,-0.768 0.613,-1.659 0.613,-2.672 z m 8.749,-4.856 v 7.921 c 0,0.654 0.139,1.12 0.416,1.397 0.278,0.262 0.761,0.393 1.447,0.393 h 1.643 v 1.888 h -2.011 c -1.242,0 -2.174,-0.286 -2.795,-0.858 -0.621,-0.572 -0.932,-1.512 -0.932,-2.82 V 94.5 h -1.741 v -1.839 h 1.741 v -3.384 h 2.232 v 3.384 h 3.506 V 94.5 Z m 7.362,-4.021 c -0.425,0 -0.784,-0.147 -1.078,-0.442 -0.295,-0.294 -0.442,-0.654 -0.442,-1.079 0,-0.425 0.147,-0.784 0.442,-1.079 0.294,-0.294 0.653,-0.441 1.078,-0.441 0.409,0 0.752,0.147 1.03,0.441 0.295,0.295 0.442,0.654 0.442,1.079 0,0.425 -0.147,0.785 -0.442,1.079 -0.278,0.295 -0.621,0.442 -1.03,0.442 z m 1.079,2.182 v 13.438 h -2.231 V 92.661 Z m 9.664,13.659 c -1.258,0 -2.403,-0.286 -3.433,-0.859 -1.013,-0.572 -1.814,-1.381 -2.403,-2.427 -0.572,-1.063 -0.858,-2.289 -0.858,-3.678 0,-1.374 0.294,-2.583 0.883,-3.63 0.605,-1.062 1.422,-1.872 2.452,-2.427 1.03,-0.573 2.182,-0.859 3.457,-0.859 1.276,0 2.428,0.286 3.458,0.859 1.03,0.555 1.839,1.357 2.428,2.403 0.604,1.046 0.907,2.264 0.907,3.654 0,1.389 -0.311,2.615 -0.932,3.678 -0.605,1.046 -1.43,1.855 -2.477,2.427 -1.046,0.573 -2.207,0.859 -3.482,0.859 z m 0,-1.962 c 0.801,0 1.553,-0.188 2.256,-0.564 0.703,-0.376 1.267,-0.94 1.692,-1.692 0.442,-0.752 0.662,-1.668 0.662,-2.746 0,-1.079 -0.212,-1.995 -0.637,-2.747 -0.425,-0.752 -0.981,-1.308 -1.668,-1.667 -0.686,-0.376 -1.43,-0.564 -2.231,-0.564 -0.818,0 -1.57,0.188 -2.256,0.564 -0.67,0.359 -1.21,0.915 -1.619,1.667 -0.408,0.752 -0.613,1.668 -0.613,2.747 0,1.095 0.197,2.018 0.589,2.77 0.409,0.752 0.948,1.316 1.618,1.692 0.671,0.36 1.406,0.54 2.207,0.54 z m 16.372,-11.942 c 1.635,0 2.959,0.498 3.973,1.496 1.013,0.981 1.52,2.403 1.52,4.266 v 7.921 h -2.207 v -7.602 c 0,-1.34 -0.335,-2.362 -1.005,-3.065 -0.671,-0.719 -1.586,-1.079 -2.747,-1.079 -1.177,0 -2.117,0.368 -2.82,1.104 -0.686,0.735 -1.03,1.806 -1.03,3.212 v 7.43 h -2.231 V 92.661 h 2.231 v 1.913 c 0.442,-0.687 1.038,-1.218 1.79,-1.594 0.769,-0.376 1.611,-0.564 2.526,-0.564 z m 9.849,13.83 c -0.425,0 -0.784,-0.147 -1.079,-0.441 -0.294,-0.295 -0.441,-0.654 -0.441,-1.079 0,-0.425 0.147,-0.785 0.441,-1.079 0.295,-0.294 0.654,-0.442 1.079,-0.442 0.409,0 0.752,0.148 1.03,0.442 0.294,0.294 0.442,0.654 0.442,1.079 0,0.425 -0.148,0.784 -0.442,1.079 -0.278,0.294 -0.621,0.441 -1.03,0.441 z m -149.122,20.619 c 0,0.425 -0.025,0.875 -0.074,1.349 h -10.74 c 0.081,1.324 0.531,2.362 1.348,3.114 0.834,0.736 1.839,1.104 3.016,1.104 0.965,0 1.766,-0.221 2.404,-0.663 0.653,-0.457 1.111,-1.062 1.373,-1.814 h 2.403 c -0.36,1.291 -1.079,2.346 -2.158,3.163 -1.079,0.801 -2.42,1.202 -4.022,1.202 -1.275,0 -2.419,-0.286 -3.433,-0.859 -0.997,-0.572 -1.782,-1.381 -2.354,-2.427 -0.572,-1.063 -0.858,-2.289 -0.858,-3.678 0,-1.39 0.278,-2.608 0.834,-3.654 0.556,-1.046 1.332,-1.848 2.329,-2.403 1.014,-0.573 2.175,-0.859 3.482,-0.859 1.276,0 2.404,0.278 3.384,0.834 0.981,0.556 1.733,1.324 2.256,2.305 0.54,0.965 0.81,2.06 0.81,3.286 z m -2.305,-0.466 c 0,-0.85 -0.188,-1.577 -0.564,-2.182 -0.376,-0.621 -0.891,-1.087 -1.545,-1.398 -0.638,-0.327 -1.349,-0.49 -2.134,-0.49 -1.128,0 -2.092,0.359 -2.893,1.079 -0.785,0.719 -1.235,1.716 -1.349,2.991 z m 11.797,-5.983 c 1.635,0 2.959,0.498 3.973,1.496 1.013,0.981 1.52,2.403 1.52,4.266 v 7.921 h -2.207 v -7.602 c 0,-1.34 -0.335,-2.362 -1.005,-3.065 -0.67,-0.719 -1.586,-1.079 -2.747,-1.079 -1.177,0 -2.117,0.368 -2.82,1.104 -0.686,0.735 -1.029,1.806 -1.029,3.212 v 7.43 h -2.232 v -13.438 h 2.232 v 1.913 c 0.441,-0.687 1.038,-1.218 1.79,-1.594 0.768,-0.376 1.61,-0.564 2.525,-0.564 z m 8.305,6.94 c 0,-1.39 0.278,-2.6 0.833,-3.63 0.556,-1.046 1.325,-1.855 2.305,-2.427 0.998,-0.573 2.134,-0.859 3.409,-0.859 1.651,0 3.008,0.401 4.071,1.202 1.078,0.801 1.79,1.913 2.133,3.335 h -2.403 c -0.229,-0.817 -0.679,-1.463 -1.349,-1.937 -0.654,-0.474 -1.471,-0.711 -2.452,-0.711 -1.275,0 -2.305,0.441 -3.09,1.324 -0.785,0.866 -1.177,2.1 -1.177,3.703 0,1.618 0.392,2.869 1.177,3.751 0.785,0.883 1.815,1.325 3.09,1.325 0.981,0 1.798,-0.229 2.452,-0.687 0.654,-0.458 1.104,-1.112 1.349,-1.962 h 2.403 c -0.36,1.373 -1.079,2.477 -2.158,3.311 -1.079,0.817 -2.428,1.226 -4.046,1.226 -1.275,0 -2.411,-0.286 -3.409,-0.859 -0.98,-0.572 -1.749,-1.381 -2.305,-2.427 -0.555,-1.046 -0.833,-2.273 -0.833,-3.678 z m 21.589,6.964 c -1.259,0 -2.403,-0.286 -3.433,-0.859 -1.014,-0.572 -1.815,-1.381 -2.403,-2.427 -0.572,-1.063 -0.858,-2.289 -0.858,-3.678 0,-1.374 0.294,-2.583 0.882,-3.63 0.605,-1.062 1.423,-1.872 2.453,-2.427 1.03,-0.573 2.182,-0.859 3.457,-0.859 1.275,0 2.428,0.286 3.458,0.859 1.03,0.555 1.839,1.357 2.427,2.403 0.605,1.046 0.908,2.264 0.908,3.654 0,1.389 -0.311,2.615 -0.932,3.678 -0.605,1.046 -1.431,1.855 -2.477,2.427 -1.046,0.573 -2.207,0.859 -3.482,0.859 z m 0,-1.962 c 0.801,0 1.553,-0.188 2.256,-0.564 0.703,-0.376 1.267,-0.94 1.692,-1.692 0.441,-0.752 0.662,-1.668 0.662,-2.746 0,-1.079 -0.212,-1.995 -0.637,-2.747 -0.425,-0.752 -0.981,-1.308 -1.668,-1.667 -0.686,-0.376 -1.43,-0.564 -2.231,-0.564 -0.818,0 -1.57,0.188 -2.256,0.564 -0.671,0.359 -1.21,0.915 -1.619,1.667 -0.408,0.752 -0.613,1.668 -0.613,2.747 0,1.095 0.196,2.018 0.589,2.77 0.408,0.752 0.948,1.316 1.618,1.692 0.67,0.36 1.406,0.54 2.207,0.54 z m 21.742,-11.697 v 13.438 h -2.231 v -1.986 c -0.425,0.686 -1.022,1.226 -1.79,1.618 -0.752,0.376 -1.586,0.564 -2.502,0.564 -1.046,0 -1.986,-0.212 -2.82,-0.637 -0.833,-0.442 -1.495,-1.096 -1.986,-1.962 -0.474,-0.867 -0.711,-1.921 -0.711,-3.163 v -7.872 h 2.207 v 7.577 c 0,1.324 0.335,2.346 1.005,3.066 0.671,0.702 1.586,1.054 2.747,1.054 1.193,0 2.133,-0.368 2.82,-1.104 0.686,-0.735 1.03,-1.806 1.03,-3.212 v -7.381 z m 10.315,-0.245 c 1.635,0 2.959,0.498 3.973,1.496 1.013,0.981 1.52,2.403 1.52,4.266 v 7.921 h -2.207 v -7.602 c 0,-1.34 -0.335,-2.362 -1.005,-3.065 -0.67,-0.719 -1.586,-1.079 -2.747,-1.079 -1.177,0 -2.117,0.368 -2.82,1.104 -0.686,0.735 -1.03,1.806 -1.03,3.212 v 7.43 h -2.231 v -13.438 h 2.231 v 1.913 c 0.442,-0.687 1.039,-1.218 1.791,-1.594 0.768,-0.376 1.61,-0.564 2.525,-0.564 z m 11.86,2.084 v 7.921 c 0,0.654 0.139,1.12 0.417,1.397 0.278,0.262 0.76,0.393 1.447,0.393 h 1.643 v 1.888 h -2.011 c -1.242,0 -2.174,-0.286 -2.795,-0.858 -0.622,-0.572 -0.932,-1.512 -0.932,-2.82 V 122.5 h -1.741 v -1.839 h 1.741 v -3.384 h 2.231 v 3.384 h 3.507 v 1.839 z m 18.471,4.365 c 0,0.425 -0.024,0.875 -0.073,1.349 h -10.741 c 0.082,1.324 0.532,2.362 1.349,3.114 0.834,0.736 1.839,1.104 3.016,1.104 0.965,0 1.766,-0.221 2.403,-0.663 0.654,-0.457 1.112,-1.062 1.374,-1.814 h 2.403 c -0.36,1.291 -1.079,2.346 -2.158,3.163 -1.079,0.801 -2.42,1.202 -4.022,1.202 -1.275,0 -2.419,-0.286 -3.433,-0.859 -0.997,-0.572 -1.782,-1.381 -2.354,-2.427 -0.572,-1.063 -0.858,-2.289 -0.858,-3.678 0,-1.39 0.278,-2.608 0.834,-3.654 0.555,-1.046 1.332,-1.848 2.329,-2.403 1.014,-0.573 2.174,-0.859 3.482,-0.859 1.275,0 2.403,0.278 3.384,0.834 0.981,0.556 1.733,1.324 2.256,2.305 0.54,0.965 0.809,2.06 0.809,3.286 z m -2.305,-0.466 c 0,-0.85 -0.188,-1.577 -0.564,-2.182 -0.376,-0.621 -0.891,-1.087 -1.545,-1.398 -0.637,-0.327 -1.348,-0.49 -2.133,-0.49 -1.128,0 -2.092,0.359 -2.893,1.079 -0.785,0.719 -1.235,1.716 -1.349,2.991 z m 7.482,-3.555 c 0.393,-0.769 0.949,-1.366 1.668,-1.791 0.735,-0.425 1.626,-0.637 2.673,-0.637 v 2.305 h -0.589 c -2.501,0 -3.752,1.357 -3.752,4.071 v 7.307 h -2.231 v -13.438 h 2.231 z"
     fill="#7958c6"
     id="path194" />
  <path
     d="m 277.956,23.271 c -1.128,0 -2.142,-0.197 -3.041,-0.589 -0.883,-0.409 -1.577,-0.964 -2.084,-1.667 -0.507,-0.72 -0.768,-1.545 -0.785,-2.477 h 2.379 c 0.082,0.801 0.409,1.479 0.981,2.035 0.588,0.54 1.438,0.809 2.55,0.809 1.063,0 1.896,-0.261 2.501,-0.784 0.621,-0.54 0.932,-1.226 0.932,-2.06 0,-0.654 -0.18,-1.185 -0.54,-1.594 -0.359,-0.409 -0.809,-0.719 -1.348,-0.932 -0.54,-0.212 -1.267,-0.441 -2.183,-0.686 -1.128,-0.295 -2.035,-0.589 -2.722,-0.883 -0.67,-0.294 -1.25,-0.752 -1.741,-1.373 -0.474,-0.638 -0.711,-1.488 -0.711,-2.551 0,-0.931 0.237,-1.757 0.711,-2.476 0.475,-0.72 1.137,-1.275 1.987,-1.668 0.866,-0.392 1.855,-0.588 2.967,-0.588 1.602,0 2.91,0.4 3.923,1.201 1.03,0.801 1.611,1.864 1.741,3.188 h -2.452 c -0.082,-0.654 -0.425,-1.226 -1.03,-1.716 -0.605,-0.507 -1.406,-0.761 -2.403,-0.761 -0.932,0 -1.692,0.246 -2.28,0.736 -0.589,0.474 -0.883,1.144 -0.883,2.011 0,0.621 0.171,1.128 0.515,1.52 0.359,0.392 0.793,0.695 1.299,0.907 0.524,0.197 1.251,0.425 2.183,0.687 1.128,0.311 2.035,0.621 2.722,0.932 0.686,0.294 1.275,0.76 1.765,1.398 0.491,0.621 0.736,1.471 0.736,2.55 0,0.834 -0.221,1.618 -0.662,2.354 -0.442,0.736 -1.095,1.332 -1.962,1.79 -0.866,0.458 -1.888,0.687 -3.065,0.687 z m 21.234,-7.406 c 0,0.425 -0.025,0.875 -0.074,1.349 h -10.74 c 0.081,1.324 0.531,2.362 1.348,3.114 0.834,0.736 1.839,1.104 3.016,1.104 0.965,0 1.766,-0.221 2.404,-0.663 0.653,-0.457 1.111,-1.062 1.373,-1.814 h 2.403 c -0.36,1.291 -1.079,2.346 -2.158,3.163 -1.079,0.801 -2.419,1.202 -4.022,1.202 -1.275,0 -2.419,-0.286 -3.433,-0.859 -0.997,-0.572 -1.782,-1.381 -2.354,-2.427 -0.572,-1.063 -0.858,-2.289 -0.858,-3.678 0,-1.39 0.278,-2.608 0.834,-3.654 0.556,-1.046 1.332,-1.848 2.329,-2.403 1.014,-0.573 2.175,-0.859 3.482,-0.859 1.276,0 2.404,0.278 3.384,0.834 0.981,0.556 1.733,1.324 2.256,2.305 0.54,0.965 0.81,2.06 0.81,3.286 z m -2.305,-0.466 c 0,-0.85 -0.188,-1.577 -0.564,-2.182 -0.376,-0.621 -0.891,-1.087 -1.545,-1.398 -0.638,-0.327 -1.349,-0.49 -2.134,-0.49 -1.128,0 -2.092,0.359 -2.893,1.079 -0.785,0.719 -1.234,1.716 -1.349,2.991 z m 10.007,7.921 c -1.03,0 -1.953,-0.172 -2.771,-0.515 -0.817,-0.36 -1.463,-0.85 -1.937,-1.472 -0.474,-0.637 -0.735,-1.365 -0.785,-2.182 h 2.306 c 0.065,0.67 0.376,1.218 0.931,1.643 0.573,0.425 1.316,0.638 2.232,0.638 0.85,0 1.52,-0.188 2.011,-0.564 0.49,-0.376 0.735,-0.851 0.735,-1.423 0,-0.588 -0.261,-1.021 -0.784,-1.299 -0.524,-0.295 -1.333,-0.581 -2.428,-0.859 -0.997,-0.261 -1.815,-0.523 -2.452,-0.784 -0.621,-0.278 -1.161,-0.679 -1.619,-1.202 -0.441,-0.539 -0.662,-1.242 -0.662,-2.109 0,-0.686 0.205,-1.316 0.613,-1.888 0.409,-0.572 0.989,-1.022 1.741,-1.349 0.752,-0.343 1.611,-0.515 2.575,-0.515 1.488,0 2.689,0.376 3.605,1.128 0.915,0.752 1.406,1.782 1.471,3.09 h -2.231 c -0.049,-0.703 -0.336,-1.267 -0.859,-1.692 -0.506,-0.425 -1.193,-0.637 -2.059,-0.637 -0.802,0 -1.439,0.171 -1.913,0.515 -0.474,0.343 -0.711,0.792 -0.711,1.348 0,0.442 0.139,0.809 0.417,1.104 0.294,0.278 0.653,0.506 1.079,0.686 0.441,0.164 1.046,0.352 1.814,0.564 0.965,0.262 1.749,0.523 2.354,0.785 0.605,0.245 1.12,0.621 1.545,1.128 0.441,0.507 0.67,1.169 0.687,1.986 0,0.736 -0.205,1.398 -0.613,1.987 -0.409,0.588 -0.989,1.054 -1.741,1.397 -0.736,0.327 -1.586,0.491 -2.551,0.491 z m 12.812,0 c -1.03,0 -1.954,-0.172 -2.771,-0.515 -0.817,-0.36 -1.463,-0.85 -1.937,-1.472 -0.474,-0.637 -0.736,-1.365 -0.785,-2.182 h 2.305 c 0.066,0.67 0.376,1.218 0.932,1.643 0.572,0.425 1.316,0.638 2.231,0.638 0.851,0 1.521,-0.188 2.011,-0.564 0.491,-0.376 0.736,-0.851 0.736,-1.423 0,-0.588 -0.262,-1.021 -0.785,-1.299 -0.523,-0.295 -1.332,-0.581 -2.427,-0.859 -0.998,-0.261 -1.815,-0.523 -2.453,-0.784 -0.621,-0.278 -1.16,-0.679 -1.618,-1.202 -0.441,-0.539 -0.662,-1.242 -0.662,-2.109 0,-0.686 0.204,-1.316 0.613,-1.888 0.409,-0.572 0.989,-1.022 1.741,-1.349 0.752,-0.343 1.61,-0.515 2.575,-0.515 1.487,0 2.689,0.376 3.604,1.128 0.916,0.752 1.406,1.782 1.472,3.09 h -2.232 c -0.049,-0.703 -0.335,-1.267 -0.858,-1.692 -0.507,-0.425 -1.193,-0.637 -2.06,-0.637 -0.801,0 -1.438,0.171 -1.913,0.515 -0.474,0.343 -0.711,0.792 -0.711,1.348 0,0.442 0.139,0.809 0.417,1.104 0.294,0.278 0.654,0.506 1.079,0.686 0.442,0.164 1.046,0.352 1.815,0.564 0.964,0.262 1.749,0.523 2.354,0.785 0.605,0.245 1.12,0.621 1.545,1.128 0.441,0.507 0.67,1.169 0.686,1.986 0,0.736 -0.204,1.398 -0.613,1.987 -0.408,0.588 -0.989,1.054 -1.741,1.397 -0.735,0.327 -1.585,0.491 -2.55,0.491 z m 9.207,-15.841 c -0.425,0 -0.785,-0.147 -1.079,-0.442 -0.294,-0.294 -0.441,-0.654 -0.441,-1.079 0,-0.425 0.147,-0.784 0.441,-1.079 0.294,-0.294 0.654,-0.441 1.079,-0.441 0.409,0 0.752,0.147 1.03,0.441 0.294,0.295 0.441,0.654 0.441,1.079 0,0.425 -0.147,0.785 -0.441,1.079 -0.278,0.295 -0.621,0.442 -1.03,0.442 z m 1.079,2.182 v 13.438 h -2.232 V 9.661 Z m 9.664,13.659 c -1.259,0 -2.403,-0.286 -3.433,-0.859 -1.014,-0.572 -1.815,-1.381 -2.403,-2.427 -0.573,-1.063 -0.859,-2.289 -0.859,-3.678 0,-1.374 0.295,-2.583 0.883,-3.63 0.605,-1.062 1.422,-1.872 2.452,-2.427 1.03,-0.573 2.183,-0.859 3.458,-0.859 1.275,0 2.428,0.286 3.457,0.859 1.03,0.555 1.84,1.357 2.428,2.403 0.605,1.046 0.907,2.264 0.907,3.654 0,1.389 -0.31,2.615 -0.931,3.678 -0.605,1.046 -1.431,1.855 -2.477,2.427 -1.046,0.573 -2.207,0.859 -3.482,0.859 z m 0,-1.962 c 0.801,0 1.553,-0.188 2.256,-0.564 0.703,-0.376 1.267,-0.94 1.692,-1.692 0.441,-0.752 0.662,-1.668 0.662,-2.746 0,-1.079 -0.213,-1.995 -0.638,-2.747 -0.425,-0.752 -0.981,-1.308 -1.667,-1.667 -0.687,-0.376 -1.431,-0.564 -2.232,-0.564 -0.817,0 -1.569,0.188 -2.256,0.564 -0.67,0.359 -1.209,0.915 -1.618,1.667 -0.409,0.752 -0.613,1.668 -0.613,2.747 0,1.095 0.196,2.018 0.588,2.77 0.409,0.752 0.949,1.316 1.619,1.692 0.67,0.36 1.406,0.54 2.207,0.54 z M 356.026,9.416 c 1.634,0 2.959,0.498 3.972,1.496 1.014,0.981 1.521,2.403 1.521,4.266 v 7.921 h -2.207 v -7.602 c 0,-1.34 -0.336,-2.362 -1.006,-3.065 -0.67,-0.719 -1.586,-1.079 -2.746,-1.079 -1.177,0 -2.117,0.368 -2.82,1.104 -0.687,0.735 -1.03,1.806 -1.03,3.212 v 7.43 h -2.232 V 9.661 h 2.232 v 1.913 c 0.441,-0.687 1.038,-1.218 1.79,-1.594 0.768,-0.376 1.61,-0.564 2.526,-0.564 z"
     fill="#7958c6"
     id="path198" />
  <path
     d="m 306.608,180.152 c 0,-1.192 -0.966,-2.159 -2.159,-2.159 h -19.43 c -1.192,0 -2.159,0.967 -2.159,2.159 0,1.193 0.967,2.159 2.159,2.159 h 17.271 v 17.272 c 0,1.192 0.967,2.159 2.159,2.159 1.193,0 2.159,-0.967 2.159,-2.159 z m -5.447,0.235 c -0.843,0.843 -0.843,2.21 0,3.053 0.843,0.843 2.21,0.843 3.053,0 z m -4.496,10.602 c 0.843,-0.843 0.843,-2.21 0,-3.053 -0.843,-0.843 -2.21,-0.843 -3.053,0 z m -6.576,0.47 c -0.843,0.843 -0.843,2.21 0,3.053 0.843,0.843 2.21,0.843 3.053,0 z m -4.496,10.602 c 0.843,-0.843 0.843,-2.21 0,-3.053 -0.843,-0.843 -2.21,-0.843 -3.053,0 z m -6.576,0.47 c -0.843,0.843 -0.843,2.21 0,3.053 0.843,0.843 2.21,0.843 3.053,0 z m -4.496,10.602 c 0.843,-0.843 0.843,-2.21 0,-3.053 -0.843,-0.843 -2.21,-0.843 -3.053,0 z m -6.576,0.47 c -0.843,0.843 -0.843,2.21 0,3.053 0.843,0.843 2.21,0.843 3.053,0 z m -4.496,10.602 c 0.843,-0.843 0.843,-2.21 0,-3.053 -0.843,-0.843 -2.21,-0.843 -3.053,0 z m -6.576,0.47 c -0.843,0.843 -0.843,2.21 0,3.053 0.843,0.843 2.21,0.843 3.053,0 z m -4.496,10.602 c 0.843,-0.843 0.843,-2.21 0,-3.053 -0.843,-0.843 -2.21,-0.843 -3.053,0 z m 50.546,-56.651 -1.762,1.761 3.053,3.053 1.762,-1.761 z m -9.311,9.31 -3.523,3.523 3.053,3.053 3.523,-3.523 z m -11.072,11.072 -3.523,3.523 3.053,3.053 3.523,-3.523 z m -11.072,11.072 -3.523,3.523 3.053,3.053 3.523,-3.523 z m -11.072,11.072 -3.523,3.523 3.053,3.053 3.523,-3.523 z m -11.072,11.072 -1.761,1.762 3.053,3.053 1.761,-1.762 z"
     fill="#946af9"
     id="path200" />
  <path
     d="m 194.356,294.135 -32.888,32.888"
     stroke="#946af9"
     stroke-width="4.31786"
     stroke-linecap="round"
     stroke-dasharray="4.86, 10.41"
     id="path202" />
  <path
     d="m 336.171,180.152 c 0,-1.192 0.967,-2.159 2.159,-2.159 h 19.431 c 1.192,0 2.159,0.967 2.159,2.159 0,1.193 -0.967,2.159 -2.159,2.159 h -17.272 v 17.272 c 0,1.192 -0.966,2.159 -2.159,2.159 -1.192,0 -2.159,-0.967 -2.159,-2.159 z m 59.046,53.834 c 0.843,0.843 0.843,2.21 0,3.053 -0.843,0.843 -2.21,0.843 -3.053,0 z m -53.599,-53.599 c 0.843,0.843 0.843,2.21 0,3.053 -0.843,0.843 -2.21,0.843 -3.053,0 z m 4.496,10.602 c -0.843,-0.843 -0.843,-2.21 0,-3.053 0.843,-0.843 2.21,-0.843 3.053,0 z m 6.576,0.47 c 0.843,0.843 0.843,2.21 0,3.053 -0.843,0.843 -2.21,0.843 -3.053,0 z m 4.496,10.602 c -0.843,-0.843 -0.843,-2.21 0,-3.053 0.843,-0.843 2.21,-0.843 3.053,0 z m 6.576,0.47 c 0.843,0.843 0.843,2.21 0,3.053 -0.843,0.843 -2.21,0.843 -3.053,0 z m 4.496,10.602 c -0.843,-0.843 -0.843,-2.21 0,-3.053 0.843,-0.843 2.21,-0.843 3.053,0 z m 6.576,0.47 c 0.843,0.843 0.843,2.21 0,3.053 -0.843,0.843 -2.21,0.843 -3.053,0 z m 4.496,10.602 c -0.843,-0.843 -0.843,-2.21 0,-3.053 0.843,-0.843 2.21,-0.843 3.053,0 z m 6.576,0.47 c 0.843,0.843 0.843,2.21 0,3.053 -0.843,0.843 -2.21,0.843 -3.053,0 z m 4.496,10.602 c -0.843,-0.843 -0.843,-2.21 0,-3.053 0.843,-0.843 2.21,-0.843 3.053,0 z m -50.545,-56.651 1.761,1.761 -3.053,3.053 -1.761,-1.761 z m 9.31,9.31 3.523,3.523 -3.053,3.053 -3.523,-3.523 z m 11.072,11.072 3.523,3.523 -3.053,3.053 -3.523,-3.523 z m 11.072,11.072 3.523,3.523 -3.053,3.053 -3.523,-3.523 z m 11.072,11.072 3.523,3.523 -3.053,3.053 -3.523,-3.523 z m 11.072,11.072 1.762,1.762 -3.053,3.053 -1.762,-1.762 z"
     fill="#946af9"
     id="path204" />
  <path
     d="m 446.897,295.661 c -0.843,-0.843 -0.843,-2.21 0,-3.053 0.843,-0.843 2.21,-0.843 3.053,0 z m 4.797,-1.309 c 0.843,0.843 0.843,2.21 0,3.053 -0.843,0.843 -2.21,0.843 -3.053,0 z m 4.422,10.528 c -0.843,-0.843 -0.843,-2.21 0,-3.053 0.843,-0.844 2.21,-0.844 3.053,0 z m 6.541,0.435 c 0.843,0.843 0.843,2.21 0,3.053 -0.843,0.843 -2.21,0.843 -3.053,0 z m 4.421,10.527 c -0.843,-0.843 -0.843,-2.21 0,-3.053 0.844,-0.843 2.21,-0.843 3.054,0 z m 6.542,0.435 c 0.843,0.843 0.843,2.21 0,3.054 -0.843,0.843 -2.21,0.843 -3.053,0 z m 4.421,10.528 c -0.843,-0.843 -0.843,-2.21 0,-3.053 0.843,-0.843 2.21,-0.843 3.053,0 z m -28.091,-34.197 1.744,1.744 -3.053,3.053 -1.744,-1.744 z m 9.219,9.219 3.488,3.488 -3.053,3.053 -3.488,-3.488 z m 10.963,10.962 3.488,3.488 -3.053,3.054 -3.489,-3.489 z m 10.962,10.963 1.744,1.744 -3.053,3.053 -1.744,-1.744 z"
     fill="#946af9"
     id="path206" />
  <path
     d="m 206.76,258.161 v 6.216 h 6.776 v 2.001 h -6.776 v 6.403 h 7.577 v 2.001 H 204.332 V 256.16 h 10.005 v 2.001 z m 18.374,1.734 c 1.778,0 3.219,0.543 4.322,1.628 1.102,1.067 1.654,2.614 1.654,4.642 v 8.617 h -2.401 v -8.27 c 0,-1.459 -0.365,-2.57 -1.094,-3.335 -0.729,-0.783 -1.725,-1.174 -2.988,-1.174 -1.281,0 -2.304,0.4 -3.068,1.201 -0.747,0.8 -1.121,1.965 -1.121,3.495 v 8.083 h -2.428 v -14.62 h 2.428 v 2.081 c 0.48,-0.747 1.13,-1.325 1.948,-1.734 0.836,-0.409 1.752,-0.614 2.748,-0.614 z m 9.035,7.551 c 0,-1.512 0.302,-2.828 0.907,-3.949 0.604,-1.138 1.44,-2.019 2.508,-2.641 1.084,-0.623 2.321,-0.934 3.708,-0.934 1.796,0 3.273,0.436 4.429,1.307 1.174,0.872 1.947,2.081 2.321,3.629 h -2.615 c -0.249,-0.89 -0.738,-1.592 -1.467,-2.108 -0.712,-0.516 -1.601,-0.774 -2.668,-0.774 -1.387,0 -2.508,0.481 -3.362,1.441 -0.853,0.943 -1.28,2.286 -1.28,4.029 0,1.76 0.427,3.121 1.28,4.081 0.854,0.961 1.975,1.441 3.362,1.441 1.067,0 1.956,-0.249 2.668,-0.747 0.711,-0.498 1.2,-1.209 1.467,-2.134 h 2.615 c -0.392,1.494 -1.174,2.694 -2.348,3.602 -1.174,0.889 -2.641,1.333 -4.402,1.333 -1.387,0 -2.624,-0.311 -3.708,-0.933 -1.068,-0.623 -1.904,-1.503 -2.508,-2.642 -0.605,-1.138 -0.907,-2.472 -0.907,-4.001 z m 23.489,7.576 c -1.37,0 -2.615,-0.311 -3.736,-0.933 -1.102,-0.623 -1.974,-1.503 -2.614,-2.642 -0.623,-1.156 -0.934,-2.49 -0.934,-4.001 0,-1.494 0.32,-2.811 0.961,-3.949 0.658,-1.156 1.547,-2.036 2.667,-2.641 1.121,-0.623 2.375,-0.934 3.762,-0.934 1.388,0 2.641,0.311 3.762,0.934 1.121,0.605 2.001,1.476 2.641,2.614 0.658,1.139 0.987,2.464 0.987,3.976 0,1.511 -0.338,2.845 -1.013,4.001 -0.659,1.139 -1.557,2.019 -2.695,2.642 -1.138,0.622 -2.401,0.933 -3.788,0.933 z m 0,-2.134 c 0.871,0 1.689,-0.204 2.454,-0.613 0.765,-0.41 1.378,-1.023 1.841,-1.841 0.48,-0.819 0.72,-1.815 0.72,-2.988 0,-1.174 -0.231,-2.17 -0.693,-2.989 -0.463,-0.818 -1.068,-1.422 -1.815,-1.814 -0.747,-0.409 -1.556,-0.613 -2.427,-0.613 -0.89,0 -1.708,0.204 -2.455,0.613 -0.729,0.392 -1.316,0.996 -1.761,1.814 -0.444,0.819 -0.667,1.815 -0.667,2.989 0,1.191 0.214,2.196 0.641,3.014 0.444,0.818 1.031,1.432 1.76,1.841 0.73,0.391 1.53,0.587 2.402,0.587 z m 23.655,-12.726 v 14.62 h -2.428 v -2.161 c -0.463,0.747 -1.112,1.334 -1.948,1.761 -0.818,0.409 -1.725,0.614 -2.721,0.614 -1.138,0 -2.161,-0.231 -3.068,-0.694 -0.907,-0.48 -1.628,-1.192 -2.161,-2.134 -0.516,-0.943 -0.774,-2.09 -0.774,-3.442 v -8.564 h 2.401 v 8.244 c 0,1.441 0.365,2.552 1.094,3.335 0.729,0.765 1.725,1.147 2.988,1.147 1.299,0 2.321,-0.4 3.068,-1.2 0.747,-0.801 1.121,-1.966 1.121,-3.495 v -8.031 z m 11.222,-0.267 c 1.779,0 3.219,0.543 4.322,1.628 1.103,1.067 1.654,2.614 1.654,4.642 v 8.617 h -2.401 v -8.27 c 0,-1.459 -0.364,-2.57 -1.094,-3.335 -0.729,-0.783 -1.725,-1.174 -2.988,-1.174 -1.28,0 -2.303,0.4 -3.068,1.201 -0.747,0.8 -1.12,1.965 -1.12,3.495 v 8.083 h -2.428 v -14.62 h 2.428 v 2.081 c 0.48,-0.747 1.129,-1.325 1.947,-1.734 0.836,-0.409 1.752,-0.614 2.748,-0.614 z m 12.904,2.268 v 8.617 c 0,0.712 0.151,1.219 0.453,1.521 0.302,0.285 0.827,0.427 1.574,0.427 h 1.788 v 2.054 h -2.188 c -1.352,0 -2.366,-0.311 -3.041,-0.933 -0.676,-0.623 -1.014,-1.646 -1.014,-3.069 v -8.617 h -1.895 v -2.001 h 1.895 v -3.682 h 2.428 v 3.682 h 3.815 v 2.001 z m 20.096,4.749 c 0,0.462 -0.027,0.952 -0.08,1.467 h -11.686 c 0.089,1.441 0.578,2.57 1.468,3.389 0.907,0.8 2.001,1.2 3.281,1.2 1.05,0 1.921,-0.24 2.615,-0.72 0.711,-0.498 1.209,-1.156 1.494,-1.974 h 2.614 c -0.391,1.405 -1.174,2.552 -2.347,3.441 -1.174,0.872 -2.633,1.307 -4.376,1.307 -1.387,0 -2.632,-0.311 -3.735,-0.933 -1.085,-0.623 -1.939,-1.503 -2.561,-2.642 -0.623,-1.156 -0.934,-2.49 -0.934,-4.001 0,-1.512 0.303,-2.837 0.907,-3.976 0.605,-1.138 1.45,-2.009 2.535,-2.614 1.103,-0.623 2.365,-0.934 3.788,-0.934 1.388,0 2.615,0.302 3.682,0.907 1.067,0.605 1.885,1.441 2.454,2.508 0.587,1.049 0.881,2.241 0.881,3.575 z m -2.508,-0.507 c 0,-0.925 -0.205,-1.716 -0.614,-2.374 -0.409,-0.676 -0.969,-1.183 -1.68,-1.521 -0.694,-0.356 -1.468,-0.534 -2.322,-0.534 -1.227,0 -2.276,0.392 -3.148,1.174 -0.853,0.783 -1.343,1.868 -1.467,3.255 z m 8.14,-3.868 c 0.427,-0.836 1.032,-1.486 1.814,-1.948 0.801,-0.462 1.77,-0.694 2.909,-0.694 v 2.508 h -0.641 c -2.721,0 -4.082,1.476 -4.082,4.429 v 7.95 h -2.428 v -14.62 h 2.428 z m 8.299,12.405 c -0.463,0 -0.854,-0.16 -1.174,-0.48 -0.32,-0.32 -0.48,-0.711 -0.48,-1.174 0,-0.462 0.16,-0.853 0.48,-1.174 0.32,-0.32 0.711,-0.48 1.174,-0.48 0.444,0 0.818,0.16 1.12,0.48 0.32,0.321 0.481,0.712 0.481,1.174 0,0.463 -0.161,0.854 -0.481,1.174 -0.302,0.32 -0.676,0.48 -1.12,0.48 z m 7.255,-12.085 c 0.481,-0.836 1.192,-1.53 2.135,-2.081 0.96,-0.569 2.072,-0.854 3.335,-0.854 1.298,0 2.472,0.311 3.521,0.934 1.068,0.622 1.903,1.503 2.508,2.641 0.605,1.121 0.907,2.428 0.907,3.922 0,1.476 -0.302,2.792 -0.907,3.948 -0.605,1.157 -1.44,2.055 -2.508,2.695 -1.049,0.64 -2.223,0.96 -3.521,0.96 -1.245,0 -2.348,-0.275 -3.309,-0.827 -0.942,-0.569 -1.663,-1.271 -2.161,-2.107 v 9.631 h -2.427 v -21.557 h 2.427 z m 9.925,4.562 c 0,-1.103 -0.222,-2.063 -0.667,-2.881 -0.444,-0.819 -1.049,-1.441 -1.814,-1.868 -0.747,-0.427 -1.574,-0.64 -2.481,-0.64 -0.89,0 -1.717,0.222 -2.481,0.667 -0.747,0.427 -1.352,1.058 -1.815,1.894 -0.444,0.818 -0.667,1.77 -0.667,2.855 0,1.102 0.223,2.072 0.667,2.908 0.463,0.818 1.068,1.449 1.815,1.894 0.764,0.427 1.591,0.64 2.481,0.64 0.907,0 1.734,-0.213 2.481,-0.64 0.765,-0.445 1.37,-1.076 1.814,-1.894 0.445,-0.836 0.667,-1.815 0.667,-2.935 z m 4.77,0 c 0,-1.494 0.302,-2.801 0.907,-3.922 0.605,-1.138 1.432,-2.019 2.481,-2.641 1.067,-0.623 2.25,-0.934 3.548,-0.934 1.281,0 2.393,0.276 3.335,0.827 0.943,0.551 1.646,1.245 2.108,2.081 v -2.668 h 2.455 v 14.62 h -2.455 v -2.721 c -0.48,0.854 -1.201,1.565 -2.161,2.134 -0.943,0.552 -2.045,0.827 -3.308,0.827 -1.299,0 -2.472,-0.32 -3.522,-0.96 -1.049,-0.64 -1.876,-1.538 -2.481,-2.695 -0.605,-1.156 -0.907,-2.472 -0.907,-3.948 z m 12.379,0.027 c 0,-1.103 -0.222,-2.064 -0.667,-2.882 -0.445,-0.818 -1.049,-1.44 -1.814,-1.867 -0.747,-0.445 -1.574,-0.667 -2.481,-0.667 -0.907,0 -1.734,0.213 -2.481,0.64 -0.747,0.427 -1.343,1.049 -1.788,1.868 -0.445,0.818 -0.667,1.778 -0.667,2.881 0,1.12 0.222,2.099 0.667,2.935 0.445,0.818 1.041,1.449 1.788,1.894 0.747,0.427 1.574,0.64 2.481,0.64 0.907,0 1.734,-0.213 2.481,-0.64 0.765,-0.445 1.369,-1.076 1.814,-1.894 0.445,-0.836 0.667,-1.806 0.667,-2.908 z m 8.985,-4.909 c 0.427,-0.836 1.032,-1.486 1.814,-1.948 0.801,-0.462 1.77,-0.694 2.908,-0.694 v 2.508 h -0.64 c -2.721,0 -4.082,1.476 -4.082,4.429 v 7.95 h -2.428 v -14.62 h 2.428 z m 10.486,-0.374 v 8.617 c 0,0.712 0.151,1.219 0.454,1.521 0.302,0.285 0.827,0.427 1.574,0.427 h 1.787 v 2.054 h -2.187 c -1.352,0 -2.366,-0.311 -3.042,-0.933 -0.676,-0.623 -1.014,-1.646 -1.014,-3.069 v -8.617 h -1.894 v -2.001 h 1.894 v -3.682 h 2.428 v 3.682 h 3.815 v 2.001 z m 15.188,12.806 c -1.726,0 -3.3,-0.4 -4.723,-1.2 -1.423,-0.819 -2.552,-1.948 -3.388,-3.389 -0.818,-1.458 -1.227,-3.095 -1.227,-4.909 0,-1.814 0.409,-3.441 1.227,-4.882 0.836,-1.458 1.965,-2.588 3.388,-3.388 1.423,-0.818 2.997,-1.227 4.723,-1.227 1.743,0 3.326,0.409 4.749,1.227 1.422,0.8 2.543,1.921 3.361,3.361 0.818,1.441 1.227,3.077 1.227,4.909 0,1.832 -0.409,3.469 -1.227,4.909 -0.818,1.441 -1.939,2.57 -3.361,3.389 -1.423,0.8 -3.006,1.2 -4.749,1.2 z m 0,-2.108 c 1.298,0 2.463,-0.302 3.495,-0.907 1.049,-0.604 1.867,-1.467 2.454,-2.588 0.605,-1.12 0.907,-2.418 0.907,-3.895 0,-1.494 -0.302,-2.792 -0.907,-3.895 -0.587,-1.12 -1.396,-1.983 -2.428,-2.588 -1.031,-0.604 -2.205,-0.907 -3.521,-0.907 -1.317,0 -2.49,0.303 -3.522,0.907 -1.032,0.605 -1.85,1.468 -2.455,2.588 -0.586,1.103 -0.88,2.401 -0.88,3.895 0,1.477 0.294,2.775 0.88,3.895 0.605,1.121 1.423,1.984 2.455,2.588 1.049,0.605 2.223,0.907 3.522,0.907 z m 18.492,-10.698 h -3.068 v 12.619 h -2.428 v -12.619 h -1.894 v -2.001 h 1.894 v -1.04 c 0,-1.637 0.418,-2.828 1.254,-3.575 0.854,-0.765 2.214,-1.148 4.082,-1.148 v 2.028 c -1.067,0 -1.823,0.213 -2.268,0.64 -0.427,0.409 -0.64,1.094 -0.64,2.055 v 1.04 h 3.068 z"
     fill="#7958c6"
     id="path208" />
  <defs
     id="defs370">
    <filter
       id="filter0_d_10_81"
       x="1026.34"
       y="394.40201"
       width="296.56"
       height="116.478"
       filterUnits="userSpaceOnUse"
       color-interpolation-filters="sRGB">
      <feFlood
         flood-opacity="0"
         result="BackgroundImageFix"
         id="feFlood210" />
      <feColorMatrix
         in="SourceAlpha"
         type="matrix"
         values="0 0 0 0 0 0 0 0 0 0 0 0 0 0 0 0 0 0 127 0"
         result="hardAlpha"
         id="feColorMatrix212" />
      <feOffset
         dy="3.06522"
         id="feOffset214" />
      <feGaussianBlur
         stdDeviation="3.83152"
         id="feGaussianBlur216" />
      <feComposite
         in2="hardAlpha"
         operator="out"
         id="feComposite218" />
      <feColorMatrix
         type="matrix"
         values="0 0 0 0 0.580392 0 0 0 0 0.415686 0 0 0 0 0.976471 0 0 0 0.35 0"
         id="feColorMatrix220" />
      <feBlend
         mode="normal"
         in2="BackgroundImageFix"
         result="effect1_dropShadow_10_81"
         id="feBlend222" />
      <feBlend
         mode="normal"
         in="SourceGraphic"
         in2="effect1_dropShadow_10_81"
         result="shape"
         id="feBlend224" />
    </filter>
    <filter
       id="filter1_d_10_81"
       x="1019.34"
       y="389.40201"
       width="296.56"
       height="116.478"
       filterUnits="userSpaceOnUse"
       color-interpolation-filters="sRGB">
      <feFlood
         flood-opacity="0"
         result="BackgroundImageFix"
         id="feFlood227" />
      <feColorMatrix
         in="SourceAlpha"
         type="matrix"
         values="0 0 0 0 0 0 0 0 0 0 0 0 0 0 0 0 0 0 127 0"
         result="hardAlpha"
         id="feColorMatrix229" />
      <feOffset
         dy="3.06522"
         id="feOffset231" />
      <feGaussianBlur
         stdDeviation="3.83152"
         id="feGaussianBlur233" />
      <feComposite
         in2="hardAlpha"
         operator="out"
         id="feComposite235" />
      <feColorMatrix
         type="matrix"
         values="0 0 0 0 0.580392 0 0 0 0 0.415686 0 0 0 0 0.976471 0 0 0 0.35 0"
         id="feColorMatrix237" />
      <feBlend
         mode="normal"
         in2="BackgroundImageFix"
         result="effect1_dropShadow_10_81"
         id="feBlend239" />
      <feBlend
         mode="normal"
         in="SourceGraphic"
         in2="effect1_dropShadow_10_81"
         result="shape"
         id="feBlend241" />
    </filter>
    <filter
       id="filter5_d_10_81"
       x="1011.34"
       y="384.17401"
       width="296.56"
       height="116.478"
       filterUnits="userSpaceOnUse"
       color-interpolation-filters="sRGB">
      <feFlood
         flood-opacity="0"
         result="BackgroundImageFix"
         id="feFlood295" />
      <feColorMatrix
         in="SourceAlpha"
         type="matrix"
         values="0 0 0 0 0 0 0 0 0 0 0 0 0 0 0 0 0 0 127 0"
         result="hardAlpha"
         id="feColorMatrix297" />
      <feOffset
         dy="3.06522"
         id="feOffset299" />
      <feGaussianBlur
         stdDeviation="3.83152"
         id="feGaussianBlur301" />
      <feComposite
         in2="hardAlpha"
         operator="out"
         id="feComposite303" />
      <feColorMatrix
         type="matrix"
         values="0 0 0 0 0.580392 0 0 0 0 0.415686 0 0 0 0 0.976471 0 0 0 0.35 0"
         id="feColorMatrix305" />
      <feBlend
         mode="normal"
         in2="BackgroundImageFix"
         result="effect1_dropShadow_10_81"
         id="feBlend307" />
      <feBlend
         mode="normal"
         in="SourceGraphic"
         in2="effect1_dropShadow_10_81"
         result="shape"
         id="feBlend309" />
    </filter>
    <linearGradient
       id="paint0_linear_10_81"
       x1="1040.14"
       y1="500.15201"
       x2="1262.63"
       y2="333.73199"
       gradientUnits="userSpaceOnUse">
      <stop
         stop-color="#B091FD"
         id="stop312" />
      <stop
         offset="1"
         stop-color="#E2D7FF"
         id="stop314" />
    </linearGradient>
    <linearGradient
       id="paint1_linear_10_81"
       x1="1033.14"
       y1="495.15201"
       x2="1255.63"
       y2="328.73199"
       gradientUnits="userSpaceOnUse">
      <stop
         stop-color="#B091FD"
         id="stop317" />
      <stop
         offset="1"
         stop-color="#E2D7FF"
         id="stop319" />
    </linearGradient>
    <linearGradient
       id="paint5_linear_10_81"
       x1="606.88"
       y1="400.61801"
       x2="522.52301"
       y2="549.17798"
       gradientUnits="userSpaceOnUse"
       gradientTransform="translate(-164,-332.901)">
      <stop
         stop-color="#AF8FFB"
         id="stop339" />
      <stop
         offset="0.589833"
         stop-color="#825ED8"
         id="stop341" />
      <stop
         offset="1"
         stop-color="#7857C5"
         id="stop343" />
    </linearGradient>
    <linearGradient
       id="paint6_linear_10_81"
       x1="782.88"
       y1="695.84698"
       x2="698.52301"
       y2="844.40698"
       gradientUnits="userSpaceOnUse"
       gradientTransform="translate(-164,-332.901)">
      <stop
         stop-color="#AF8FFB"
         id="stop346" />
      <stop
         offset="0.589833"
         stop-color="#825ED8"
         id="stop348" />
      <stop
         offset="1"
         stop-color="#7857C5"
         id="stop350" />
    </linearGradient>
    <linearGradient
       id="paint7_linear_10_81"
       x1="416.88"
       y1="695.84698"
       x2="332.52301"
       y2="844.40698"
       gradientUnits="userSpaceOnUse"
       gradientTransform="translate(-164,-332.901)">
      <stop
         stop-color="#AF8FFB"
         id="stop353" />
      <stop
         offset="0.589833"
         stop-color="#825ED8"
         id="stop355" />
      <stop
         offset="1"
         stop-color="#7857C5"
         id="stop357" />
    </linearGradient>
    <linearGradient
       id="paint9_linear_10_81"
       x1="1025.14"
       y1="489.92401"
       x2="1247.63"
       y2="323.504"
       gradientUnits="userSpaceOnUse">
      <stop
         stop-color="#B091FD"
         id="stop365" />
      <stop
         offset="1"
         stop-color="#E2D7FF"
         id="stop367" />
    </linearGradient>
  </defs>
</svg>
