<?xml version="1.0" encoding="UTF-8" standalone="no"?>
<svg
   viewBox="0 0 1188 358"
   version="1.1"
   id="svg8"
   sodipodi:docname="medplum-logo-clearspace.svg"
   width="1188"
   height="358"
   inkscape:version="1.4.2 (ebf0e940, 2025-05-08)"
   xmlns:inkscape="http://www.inkscape.org/namespaces/inkscape"
   xmlns:sodipodi="http://sodipodi.sourceforge.net/DTD/sodipodi-0.dtd"
   xmlns="http://www.w3.org/2000/svg"
   xmlns:svg="http://www.w3.org/2000/svg">
  <defs
     id="defs8" />
  <sodipodi:namedview
     id="namedview8"
     pagecolor="#ffffff"
     bordercolor="#000000"
     borderopacity="0.25"
     inkscape:showpageshadow="2"
     inkscape:pageopacity="0.0"
     inkscape:pagecheckerboard="0"
     inkscape:deskcolor="#d1d1d1"
     inkscape:zoom="0.66"
     inkscape:cx="518.93939"
     inkscape:cy="40.151515"
     inkscape:window-width="1712"
     inkscape:window-height="984"
     inkscape:window-x="0"
     inkscape:window-y="43"
     inkscape:window-maximized="0"
     inkscape:current-layer="svg8" />
  <rect
     style="fill:#ffffff;fill-opacity:1;stroke-width:6.53957"
     id="rect9"
     width="1188"
     height="358"
     x="0"
     y="0" />
  <rect
     style="fill:#f3f4ff;stroke-width:0.944134;fill-opacity:1"
     id="rect8"
     width="1060"
     height="230"
     x="64"
     y="64" />
  <rect
     style="fill:#d9ddff;fill-opacity:1;stroke-width:0.747052"
     id="rect8-0"
     width="1060"
     height="144"
     x="64"
     y="98" />
  <path
     fill="#800080"
     d="M 148,120 C 145,105 133,96 125,92 l 5,-10 c 8,2 14,8 20,14 0,-12 1,-16 5,-21 8,-9 13,-9 41,-9 0,7 1,18 -3,24 -7,9 -16,7 -41,8 5,8 7,14 8,22 36,-24 74,-7 74,39 0,42 -40,83 -80,83 -40,0 -80,-41 -80,-83 0,-46 38,-63 74,-39 z m -3,43 h -16 c -4,0 -7,3 -7,7 v 4 c 0,4 3,7 7,7 h 16 v 16 c 0,4 3,7 7,7 h 4 c 4,0 7,-3 7,-7 v -16 h 16 c 4,0 7,-3 7,-7 v -4 c 0,-4 -3,-7 -7,-7 h -16 v -16 c 0,-4 -3,-7 -7,-7 h -4 c -4,0 -7,3 -7,7 z"
     id="path1"
     style="fill:#000000;fill-opacity:1" />
  <path
     fill="#800080"
     d="M 300.4,242 V 98 h 21.7 l 49.7,102 49.8,-102 h 21.7 V 242 H 421 V 149.8 L 376.8,242 h -9.6 L 323,149.8 V 242 Z"
     aria-label="M"
     id="path2"
     style="fill:#000000;fill-opacity:1" />
  <path
     fill="#800080"
     d="M 510.7,244.9 A 57,57 0 0 1 481.9,237.8 50.5,50.5 0 0 1 462.5,218 c -4.6,-8.3 -7,-18 -7,-28.9 a 64,64 0 0 1 7,-30.6 49.2,49.2 0 0 1 18.7,-20.5 c 8,-4.8 17.4,-7.2 28,-7.2 a 46.4,46.4 0 0 1 46,30 75.8,75.8 0 0 1 4.3,33.8 h -23.9 v -9 c 0,-11.6 -2,-20.2 -6.2,-25.6 -4,-5.4 -10.5,-8 -19.2,-8 -9.9,0 -17.2,3 -21.9,9.1 -4.8,6 -7.2,15 -7.2,26.7 0,11 2.4,19.4 7.2,25.4 4.8,6 11.8,9 21,9 5.8,0 11,-1.3 15.2,-4 a 26,26 0 0 0 10,-11.4 l 23.7,7.2 a 47.7,47.7 0 0 1 -19.1,22.7 c -8.5,5.4 -18,8 -28.4,8 z m -37.2,-50.3 v -18.2 h 74.2 v 18.3 z"
     aria-label="e"
     id="path3"
     style="fill:#000000;fill-opacity:1" />
  <path
     fill="#800080"
     d="m 620.8,244.9 c -9.9,0 -18.5,-2.5 -26,-7.5 a 49.6,49.6 0 0 1 -17.2,-20.5 66,66 0 0 1 -6.2,-29 c 0,-11 2,-20.7 6.2,-29.1 a 46.9,46.9 0 0 1 44.2,-27.8 42.6,42.6 0 0 1 41.6,27.8 75.5,75.5 0 0 1 5.3,29.2 c 0,10.7 -1.8,20.3 -5.3,29 -3.6,8.6 -9,15.4 -16.1,20.4 -7.2,5 -16,7.5 -26.5,7.5 z m 3.7,-21.6 c 6.5,0 11.7,-1.5 15.6,-4.4 4,-3 6.8,-7.2 8.7,-12.5 a 55.8,55.8 0 0 0 2.7,-18.4 c 0,-7.2 -0.9,-13.3 -2.7,-18.6 A 26.6,26.6 0 0 0 640.3,157 c -4,-3 -9,-4.5 -15,-4.5 a 25.6,25.6 0 0 0 -25.3,17.7 50,50 0 0 0 -3,17.8 52,52 0 0 0 3,18 c 2,5.2 5,9.5 9,12.6 4,3.1 9.2,4.7 15.5,4.7 z m 27,18.6 v -75.7 h -3 V 98 h 24.3 v 144 z"
     aria-label="d"
     id="path4"
     style="fill:#000000;fill-opacity:1" />
  <path
     fill="#800080"
     d="m 739.5,245 a 44.8,44.8 0 0 1 -26.4,-7.5 45.5,45.5 0 0 1 -16,-20.5 75,75 0 0 1 -5.4,-29 c 0,-10.9 1.8,-20.6 5.4,-29.2 A 47,47 0 0 1 713,138.4 c 7,-5 15.7,-7.5 26,-7.5 a 46.2,46.2 0 0 1 43.8,27.9 66.1,66.1 0 0 1 6.2,29.1 c 0,10.8 -2,20.5 -6,29.1 a 50,50 0 0 1 -17.2,20.5 45,45 0 0 1 -26,7.5 z m -52,45 V 134 h 21.3 v 75.6 h 3 v 80.2 z m 48.4,-66.6 a 24,24 0 0 0 15.4,-4.8 c 4.1,-3.1 7.1,-7.4 9,-12.7 a 52,52 0 0 0 3,-18 c 0,-6.5 -1,-12.4 -3,-17.7 -2,-5.5 -5,-9.7 -9.2,-12.8 a 25.5,25.5 0 0 0 -16,-4.9 24,24 0 0 0 -15,4.6 25,25 0 0 0 -8.6,12.3 58,58 0 0 0 -2.7,18.5 c 0,7 1,13.2 2.7,18.5 a 26,26 0 0 0 8.7,12.5 c 4,3 9.2,4.5 15.8,4.5 z"
     aria-label="p"
     id="path5"
     style="fill:#000000;fill-opacity:1" />
  <path
     fill="#800080"
     d="M 801.3,242 V 98 h 24 v 144 z"
     aria-label="l"
     id="path6"
     style="fill:#000000;fill-opacity:1" />
  <path
     fill="#800080"
     d="m 882.3,244.2 c -8,0 -14.5,-1.3 -19.7,-4 a 34.5,34.5 0 0 1 -12.4,-10.2 49.5,49.5 0 0 1 -7,-13.2 74.1,74.1 0 0 1 -3.4,-23.4 v -60.2 h 24.5 v 51.9 c 0,3.3 0.2,7 0.7,11.2 0.4,4.2 1.5,8.2 3.1,12 1.8,3.9 4.3,7 7.6,9.4 a 23,23 0 0 0 13.8,3.8 c 3,0 6,-0.5 9,-1.5 3,-1 5.7,-2.8 8,-5.1 2.6,-2.5 4.6,-5.9 6,-10 1.5,-4.4 2.2,-9.8 2.2,-16.4 l 14.3,6.2 c 0,9.2 -1.8,17.5 -5.3,25 a 42,42 0 0 1 -15.8,17.8 46,46 0 0 1 -25.6,6.7 z m 35.3,-3.2 v -33.5 h -3 V 133.2 H 939 v 108 z"
     aria-label="u"
     id="path7"
     style="fill:#000000;fill-opacity:1" />
  <path
     fill="#800080"
     d="m 1084.5,241.3 v -65.7 q 0,-11 -5.4,-17.2 -5.5,-6.4 -14.9,-6.4 -6,0 -10.5,2.8 -4.5,2.6 -7.2,7.8 -2.7,5 -2.7,12.1 l -10.7,-6.3 q 0,-11.1 5,-19.7 5.2,-8.5 14,-13.3 8.8,-4.9 19.6,-4.9 17.9,0 27.3,10.9 9.7,10.6 9.7,28.2 v 71.6 z m -129.8,0 v -108 H 976 v 33.4 h 3 v 74.4 z m 65.1,0 V 176 q 0,-11.2 -5.5,-17.5 -5.5,-6.4 -15,-6.4 -9.2,0 -14.8,6.4 -5.5,6.3 -5.5,16.3 l -10.9,-7.2 q 0,-10.4 5.4,-18.8 5,-8.4 14,-13.2 8.8,-5 19.8,-5 12.1,0 20.2,5.3 8.2,5.1 12.1,14 4.2,8.9 4.2,20 v 71.4 z"
     aria-label="m"
     id="path8"
     style="fill:#000000;fill-opacity:1" />
  <path
     id="rect2"
     style="fill:#9eabfd;fill-opacity:1"
     d="m 265.09091,136.12122 c -4,0 -7,3 -7,7 v 16 h -16 c -4,0 -7,3 -7,7 v 4 c 0,4 3,7 7,7 h 16 v 16 c 0,4 3,7 7,7 h 4 c 4,0 7,-3 7,-7 v -16 h 16 c 4,0 7,-3 7,-7 v -4 c 0,-4 -3,-7 -7,-7 h -16 v -16 c 0,-4 -3,-7 -7,-7 z" />
  <path
     id="rect2-8"
     style="fill:#9eabfd;fill-opacity:1"
     d="M 30,0 C 26,0 23,2.9999998 23,6.9999998 V 23 H 6.9999998 C 2.9999998,23 0,26 0,30 v 4 c 0,4 2.9999998,7 6.9999998,7 H 23 v 16 c 0,4 3,7 7,7 h 4 c 4,0 7,-3 7,-7 V 41 h 16 c 4,0 7,-3 7,-7 v -4 c 0,-4 -3,-7 -7,-7 H 41 V 6.9999998 C 41,2.9999998 38,0 34,0 Z" />
  <path
     id="rect2-8-0"
     style="fill:#9eabfd;fill-opacity:1"
     d="m 30,294 c -4,0 -7,3 -7,7 v 16 H 7 c -4,0 -7,3 -7,7 v 4 c 0,4 3,7 7,7 h 16 v 16 c 0,4 3,7 7,7 h 4 c 4,0 7,-3 7,-7 v -16 h 16 c 4,0 7,-3 7,-7 v -4 c 0,-4 -3,-7 -7,-7 H 41 v -16 c 0,-4 -3,-7 -7,-7 z" />
  <path
     id="rect2-8-0-0"
     style="fill:#9eabfd;fill-opacity:1"
     d="m 1154,294 c -4,0 -7,3 -7,7 v 16 h -16 c -4,0 -7,3 -7,7 v 4 c 0,4 3,7 7,7 h 16 v 16 c 0,4 3,7 7,7 h 4 c 4,0 7,-3 7,-7 v -16 h 16 c 4,0 7,-3 7,-7 v -4 c 0,-4 -3,-7 -7,-7 h -16 v -16 c 0,-4 -3,-7 -7,-7 z" />
  <path
     id="rect2-8-3"
     style="fill:#9eabfd;fill-opacity:1"
     d="m 1154,1 c -4,0 -7,2.9999998 -7,6.9999998 V 24 h -16 c -4,0 -7,3 -7,7 v 4 c 0,4 3,7 7,7 h 16 v 16 c 0,4 3,7 7,7 h 4 c 4,0 7,-3 7,-7 V 42 h 16 c 4,0 7,-3 7,-7 v -4 c 0,-4 -3,-7 -7,-7 h -16 V 7.9999998 C 1165,3.9999998 1162,1 1158,1 Z" />
</svg>
