<svg xmlns="http://www.w3.org/2000/svg" viewBox="0 0 1060 230">
<path fill="currentColor" d="M84 56c-3-15-15-24-23-28l5-10c8 2 14 8 20 14 0-12 1-16 5-21 8-9 13-9 41-9 0 7 1 18-3 24-7 9-16 7-41 8 5 8 7 14 8 22 36-24 74-7 74 39 0 42-40 83-80 83s-80-41-80-83c0-46 38-63 74-39Zm-3 43H65c-4 0-7 3-7 7v4c0 4 3 7 7 7h16v16c0 4 3 7 7 7h4c4 0 7-3 7-7v-16h16c4 0 7-3 7-7v-4c0-4-3-7-7-7H99V83c0-4-3-7-7-7h-4c-4 0-7 3-7 7z"/>
<path fill="currentColor" d="M236.4 178V34h21.7l49.7 102 49.8-102h21.7v144H357V85.8L312.8 178h-9.6L259 85.8V178z" aria-label="M"/>
<path fill="currentColor" d="M446.7 180.9a57 57 0 0 1-28.8-7.1 50.5 50.5 0 0 1-19.4-19.8c-4.6-8.3-7-18-7-28.9a64 64 0 0 1 7-30.6A49.2 49.2 0 0 1 417.2 74c8-4.8 17.4-7.2 28-7.2a46.4 46.4 0 0 1 46 30 75.8 75.8 0 0 1 4.3 33.8h-23.9v-9c0-11.6-2-20.2-6.2-25.6-4-5.4-10.5-8-19.2-8-9.9 0-17.2 3-21.9 9.1-4.8 6-7.2 15-7.2 26.7 0 11 2.4 19.4 7.2 25.4 4.8 6 11.8 9 21 9 5.8 0 11-1.3 15.2-4a26 26 0 0 0 10-11.4l23.7 7.2a47.7 47.7 0 0 1-19.1 22.7c-8.5 5.4-18 8-28.4 8zm-37.2-50.3v-18.2h74.2v18.3z" aria-label="e"/>
<path fill="currentColor" d="M556.8 180.9c-9.9 0-18.5-2.5-26-7.5a49.6 49.6 0 0 1-17.2-20.5 66 66 0 0 1-6.2-29c0-11 2-20.7 6.2-29.1A46.9 46.9 0 0 1 557.8 67a42.6 42.6 0 0 1 41.6 27.8 75.5 75.5 0 0 1 5.3 29.2c0 10.7-1.8 20.3-5.3 29-3.6 8.6-9 15.4-16.1 20.4-7.2 5-16 7.5-26.5 7.5zm3.7-21.6c6.5 0 11.7-1.5 15.6-4.4 4-3 6.8-7.2 8.7-12.5a55.8 55.8 0 0 0 2.7-18.4c0-7.2-.9-13.3-2.7-18.6a26.6 26.6 0 0 0-8.5-12.4c-4-3-9-4.5-15-4.5a25.6 25.6 0 0 0-25.3 17.7 50 50 0 0 0-3 17.8 52 52 0 0 0 3 18c2 5.2 5 9.5 9 12.6 4 3.1 9.2 4.7 15.5 4.7zm27 18.6v-75.7h-3V34h24.3v144Z" aria-label="d"/>
<path fill="currentColor" d="M675.5 181a44.8 44.8 0 0 1-26.4-7.5 45.5 45.5 0 0 1-16-20.5 75 75 0 0 1-5.4-29c0-10.9 1.8-20.6 5.4-29.2A47 47 0 0 1 649 74.4c7-5 15.7-7.5 26-7.5a46.2 46.2 0 0 1 43.8 27.9 66.1 66.1 0 0 1 6.2 29.1c0 10.8-2 20.5-6 29.1a50 50 0 0 1-17.2 20.5 45 45 0 0 1-26 7.5zm-52 45V70h21.3v75.6h3v80.2zm48.4-66.6a24 24 0 0 0 15.4-4.8c4.1-3.1 7.1-7.4 9-12.7a52 52 0 0 0 3-18c0-6.5-1-12.4-3-17.7-2-5.5-5-9.7-9.2-12.8a25.5 25.5 0 0 0-16-4.9 24 24 0 0 0-15 4.6 25 25 0 0 0-8.6 12.3 58 58 0 0 0-2.7 18.5c0 7 1 13.2 2.7 18.5a26 26 0 0 0 8.7 12.5c4 3 9.2 4.5 15.8 4.5z" aria-label="p"/>
<path fill="currentColor" d="M737.3 178V34h24v144z" aria-label="l"/>
<path fill="currentColor" d="M818.3 180.2c-8 0-14.5-1.3-19.7-4a34.5 34.5 0 0 1-12.4-10.2 49.5 49.5 0 0 1-7-13.2 74.1 74.1 0 0 1-3.4-23.4V69.2h24.5v51.9c0 3.3.2 7 .7 11.2.4 4.2 1.5 8.2 3.1 12 1.8 3.9 4.3 7 7.6 9.4a23 23 0 0 0 13.8 3.8c3 0 6-.5 9-1.5s5.7-2.8 8-5.1c2.6-2.5 4.6-5.9 6-10 1.5-4.4 2.2-9.8 2.2-16.4l14.3 6.2c0 9.2-1.8 17.5-5.3 25a42 42 0 0 1-15.8 17.8 46 46 0 0 1-25.6 6.7zm35.3-3.2v-33.5h-3V69.2H875v108Z" aria-label="u"/>
<path fill="currentColor" d="M1020.5 177.3v-65.7q0-11-5.4-17.2-5.5-6.4-14.9-6.4-6 0-10.5 2.8-4.5 2.6-7.2 7.8-2.7 5-2.7 12.1l-10.7-6.3q0-11.1 5-19.7 5.2-8.5 14-13.3 8.8-4.9 19.6-4.9 17.9 0 27.3 10.9 9.7 10.6 9.7 28.2v71.6zm-129.8 0v-108H912v33.4h3v74.4zm65.1 0V112q0-11.2-5.5-17.5-5.5-6.4-15-6.4-9.2 0-14.8 6.4-5.5 6.3-5.5 16.3l-10.9-7.2q0-10.4 5.4-18.8 5-8.4 14-13.2 8.8-5 19.8-5 12.1 0 20.2 5.3 8.2 5.1 12.1 14 4.2 8.9 4.2 20v71.4z" aria-label="m"/>
</svg>