<svg width="850" height="850" fill="none" xmlns="http://www.w3.org/2000/svg"><rect width="850" height="850" rx="35" fill="#d9ddff" style="stroke-width:.939586" ry="35"/><rect x="69.5" y="186.5" width="697" height="497" rx="38.5" fill="#9ea9fd"/><rect x="69.5" y="186.5" width="697" height="497" rx="38.5" stroke="#afb8ff" stroke-width="3"/><rect x="98" y="215" width="640" height="440" rx="12" fill="#fffae8"/><path fill="#ffe999" d="M98 215h640v30H98z"/><rect x="118" y="226" width="40" height="8" rx="4" fill="#ffbe67"/><rect x="178" y="226" width="50" height="8" rx="4" fill="#fff"/><rect x="248" y="226" width="36" height="8" rx="4" fill="#ffbe67"/><rect x="304" y="226" width="44" height="8" rx="4" fill="#ffbe67"/><rect x="368" y="226" width="54" height="8" rx="4" fill="#ffbe67"/><rect x="442" y="226" width="36" height="8" rx="4" fill="#ffbe67"/><rect x="650" y="226" width="36" height="8" rx="4" fill="#fffae8"/><rect x="698" y="220" width="20" height="20" rx="10" fill="#fffae8"/><g clip-path="url(#a)" transform="translate(-194 96)" fill="#721f6f"><path d="M902.005 129.834a2.085 2.085 0 0 1 2.044 2.49 2.081 2.081 0 0 1-.571 1.066 2.081 2.081 0 0 1-3.556-1.473l.002-.09a2.084 2.084 0 0 1 2.081-1.993zm.823 5a2.08 2.08 0 0 1 2.083 2.083v.417a.83.83 0 0 1-.833.833h-4.167a.83.83 0 0 1-.833-.833v-.417a2.083 2.083 0 0 1 2.083-2.083z"/></g><rect x="525" y="265" width="193" height="175" rx="10" fill="#fff"/><rect x="118" y="265" width="387" height="370" rx="10" fill="#fff"/><rect x="525" y="459" width="193" height="175" rx="10" fill="#fff"/><path d="m569.74 476.05-2.61 6.95h-1.32l-2.62-6.95h1.22l2.06 5.78 2.07-5.78zm1.333.71a.707.707 0 0 1-.52-.21.706.706 0 0 1-.21-.52c0-.207.07-.38.21-.52.14-.14.314-.21.52-.21.2 0 .37.07.51.21.14.14.21.313.21.52 0 .207-.07.38-.21.52-.14.14-.31.21-.51.21zm.56.73V483h-1.14v-5.51zm3.297 5.6a2.87 2.87 0 0 1-1.17-.23 2.11 2.11 0 0 1-.81-.64 1.617 1.617 0 0 1-.32-.91h1.18c.02.233.13.43.33.59.207.153.463.23.77.23.32 0 .567-.06.74-.18.18-.127.27-.287.27-.48 0-.207-.1-.36-.3-.46-.193-.1-.503-.21-.93-.33a8.91 8.91 0 0 1-1.01-.33 1.814 1.814 0 0 1-.68-.49c-.187-.22-.28-.51-.28-.87 0-.293.087-.56.26-.8.173-.247.42-.44.74-.58.327-.14.7-.21 1.12-.21.627 0 1.13.16 1.51.48.387.313.593.743.62 1.29h-1.14a.812.812 0 0 0-.3-.59c-.18-.147-.423-.22-.73-.22-.3 0-.53.057-.69.17a.526.526 0 0 0-.24.45c0 .147.053.27.16.37.107.1.237.18.39.24.153.053.38.123.68.21.4.107.727.217.98.33.26.107.483.267.67.48.187.213.283.497.29.85 0 .313-.087.593-.26.84-.173.247-.42.44-.74.58-.313.14-.683.21-1.11.21zm3.722-6.33a.706.706 0 0 1-.52-.21.706.706 0 0 1-.21-.52c0-.207.07-.38.21-.52.14-.14.313-.21.52-.21.2 0 .37.07.51.21.14.14.21.313.21.52 0 .207-.07.38-.21.52-.14.14-.31.21-.51.21zm.56.73V483h-1.14v-5.51zm2.627.93v3.05c0 .207.046.357.14.45.1.087.266.13.5.13h.7v.95h-.9c-.514 0-.907-.12-1.18-.36-.274-.24-.41-.63-.41-1.17v-3.05h-.65v-.93h.65v-1.37h1.15v1.37h1.34v.93zm4.19 4.67a2.87 2.87 0 0 1-1.17-.23 2.11 2.11 0 0 1-.81-.64 1.624 1.624 0 0 1-.32-.91h1.18c.02.233.13.43.33.59.207.153.464.23.77.23.32 0 .567-.06.74-.18.18-.127.27-.287.27-.48 0-.207-.1-.36-.3-.46-.193-.1-.503-.21-.93-.33a8.91 8.91 0 0 1-1.01-.33 1.822 1.822 0 0 1-.68-.49c-.186-.22-.28-.51-.28-.87 0-.293.087-.56.26-.8.174-.247.42-.44.74-.58.327-.14.7-.21 1.12-.21.627 0 1.13.16 1.51.48.387.313.594.743.62 1.29h-1.14a.812.812 0 0 0-.3-.59c-.18-.147-.423-.22-.73-.22-.3 0-.53.057-.69.17a.526.526 0 0 0-.24.45c0 .147.054.27.16.37.107.1.237.18.39.24.154.053.38.123.68.21.4.107.727.217.98.33.26.107.484.267.67.48.187.213.284.497.29.85 0 .313-.086.593-.26.84-.173.247-.42.44-.74.58-.313.14-.683.21-1.11.21zm6.68-4.8c.166-.28.386-.497.66-.65.28-.16.61-.24.99-.24v1.18h-.29c-.447 0-.787.113-1.02.34-.227.227-.34.62-.34 1.18v2.9h-1.14v-5.51h1.14zm7.548 1.82c0 .207-.014.393-.04.56h-4.21c.033.44.196.793.49 1.06.293.267.653.4 1.08.4.613 0 1.046-.257 1.3-.77h1.23a2.5 2.5 0 0 1-.91 1.25c-.434.32-.974.48-1.62.48-.527 0-1-.117-1.42-.35a2.609 2.609 0 0 1-.98-1c-.234-.433-.35-.933-.35-1.5s.113-1.063.34-1.49c.233-.433.556-.767.97-1 .42-.233.9-.35 1.44-.35.52 0 .983.113 1.39.34.406.227.723.547.95.96.226.407.34.877.34 1.41zm-1.19-.36c-.007-.42-.157-.757-.45-1.01-.294-.253-.657-.38-1.09-.38-.394 0-.73.127-1.01.38-.28.247-.447.583-.5 1.01zm3.252-1.45c.193-.253.456-.467.79-.64.333-.173.71-.26 1.13-.26.48 0 .916.12 1.31.36.4.233.713.563.94.99.226.427.34.917.34 1.47 0 .553-.114 1.05-.34 1.49a2.58 2.58 0 0 1-.94 1.02c-.394.24-.83.36-1.31.36-.42 0-.794-.083-1.12-.25a2.557 2.557 0 0 1-.8-.64v3.42h-1.14v-8.13h1.14zm3.35 1.92c0-.38-.08-.707-.24-.98a1.53 1.53 0 0 0-.62-.63 1.64 1.64 0 0 0-1.64 0c-.254.147-.46.36-.62.64-.154.28-.23.61-.23.99s.076.713.23 1c.16.28.366.493.62.64a1.64 1.64 0 0 0 1.64 0c.26-.153.466-.373.62-.66.16-.287.24-.62.24-1zm1.707 0c0-.553.113-1.043.34-1.47a2.535 2.535 0 0 1 2.26-1.35c.433 0 .81.087 1.13.26.327.167.587.377.78.63v-.8h1.15V483h-1.15v-.82a2.26 2.26 0 0 1-.79.65c-.333.173-.713.26-1.14.26-.473 0-.907-.12-1.3-.36a2.677 2.677 0 0 1-.94-1.02 3.203 3.203 0 0 1-.34-1.49zm4.51.02c0-.38-.08-.71-.24-.99a1.606 1.606 0 0 0-1.43-.86c-.293 0-.567.073-.82.22-.253.14-.46.35-.62.63-.153.273-.23.6-.23.98s.077.713.23 1c.16.287.367.507.62.66a1.64 1.64 0 0 0 1.64 0c.253-.147.457-.36.61-.64.16-.287.24-.62.24-1zm3.587-1.95c.167-.28.387-.497.66-.65.28-.16.61-.24.99-.24v1.18h-.29c-.446 0-.786.113-1.02.34-.226.227-.34.62-.34 1.18v2.9h-1.14v-5.51h1.14zm3.828.13v3.05c0 .207.047.357.14.45.1.087.267.13.5.13h.7v.95h-.9c-.513 0-.907-.12-1.18-.36-.273-.24-.41-.63-.41-1.17v-3.05h-.65v-.93h.65v-1.37h1.15v1.37h1.34v.93zm2.771-1.66a.706.706 0 0 1-.52-.21.706.706 0 0 1-.21-.52c0-.207.07-.38.21-.52.14-.14.313-.21.52-.21.2 0 .37.07.51.21.14.14.21.313.21.52 0 .207-.07.38-.21.52-.14.14-.31.21-.51.21zm.56.73V483h-1.14v-5.51zm2.627.93v3.05c0 .207.046.357.14.45.1.087.266.13.5.13h.7v.95h-.9c-.514 0-.907-.12-1.18-.36-.274-.24-.41-.63-.41-1.17v-3.05h-.65v-.93h.65v-1.37h1.15v1.37h1.34v.93zm2.77-1.66a.707.707 0 0 1-.52-.21.706.706 0 0 1-.21-.52c0-.207.07-.38.21-.52.14-.14.314-.21.52-.21.2 0 .37.07.51.21.14.14.21.313.21.52 0 .207-.07.38-.21.52-.14.14-.31.21-.51.21zm.56.73V483h-1.14v-5.51zm3.687 5.6c-.52 0-.99-.117-1.41-.35-.42-.24-.75-.573-.99-1-.24-.433-.36-.933-.36-1.5 0-.56.123-1.057.37-1.49a2.556 2.556 0 0 1 1.01-1c.427-.233.903-.35 1.43-.35.527 0 1.003.117 1.43.35.427.233.763.567 1.01 1 .247.433.37.93.37 1.49 0 .56-.127 1.057-.38 1.49-.253.433-.6.77-1.04 1.01a2.99 2.99 0 0 1-1.44.35zm0-.99c.293 0 .567-.07.82-.21.26-.14.47-.35.63-.63.16-.28.24-.62.24-1.02s-.077-.737-.23-1.01a1.545 1.545 0 0 0-.61-.63 1.668 1.668 0 0 0-.82-.21c-.293 0-.567.07-.82.21-.247.14-.443.35-.59.63-.147.273-.22.61-.22 1.01 0 .593.15 1.053.45 1.38.307.32.69.48 1.15.48zm6.567-4.7c.433 0 .82.09 1.16.27.347.18.617.447.81.8.193.353.29.78.29 1.28V483h-1.13v-3.08c0-.493-.123-.87-.37-1.13-.247-.267-.583-.4-1.01-.4-.427 0-.767.133-1.02.4-.247.26-.37.637-.37 1.13V483h-1.14v-5.51h1.14v.63c.187-.227.423-.403.71-.53.293-.127.603-.19.93-.19z" fill="#000"/><path fill="#560153" d="M545 621h10v-6h-10z"/><path d="M566 621h-.728l-2.928-4.44V621h-.728v-5.584h.728l2.928 4.432v-4.432H566Zm5.241-2.36c0 .139-.008.285-.024.44h-3.504c.027.432.173.771.44 1.016.272.24.6.36.984.36.315 0 .576-.072.784-.216.213-.149.363-.347.448-.592h.784a1.905 1.905 0 0 1-.704 1.032c-.352.261-.789.392-1.312.392-.416 0-.789-.093-1.12-.28a2.005 2.005 0 0 1-.768-.792 2.49 2.49 0 0 1-.28-1.2c0-.453.091-.851.272-1.192a1.89 1.89 0 0 1 .76-.784c.331-.187.709-.28 1.136-.28.416 0 .784.091 1.104.272.32.181.565.432.736.752.176.315.264.672.264 1.072zm-.752-.152a1.32 1.32 0 0 0-.184-.712 1.158 1.158 0 0 0-.504-.456 1.499 1.499 0 0 0-.696-.16c-.368 0-.683.117-.944.352-.256.235-.403.56-.44.976zm7.553-1.872L576.674 621h-.752l-1.056-3.48-1.056 3.48h-.752l-1.376-4.384h.744l1.008 3.68 1.088-3.68h.744l1.064 3.688.992-3.688z" fill="#000"/><path fill="#ffbe67" d="M586 621h10v-6h-10z"/><path d="m605.552 621-1.328-2.28h-.88V621h-.728v-5.576h1.8c.421 0 .776.072 1.064.216.293.144.512.339.656.584.144.245.216.525.216.84 0 .384-.112.723-.336 1.016-.219.293-.549.488-.992.584l1.4 2.336zm-2.208-2.864h1.072c.395 0 .691-.096.888-.288.197-.197.296-.459.296-.784 0-.331-.099-.587-.296-.768-.192-.181-.488-.272-.888-.272h-1.072zm8.139.504c0 .139-.008.285-.024.44h-3.504c.027.432.174.771.44 1.016.272.24.6.36.984.36.315 0 .576-.072.784-.216.214-.149.363-.347.448-.592h.784a1.905 1.905 0 0 1-.704 1.032c-.352.261-.789.392-1.312.392-.416 0-.789-.093-1.12-.28a2.005 2.005 0 0 1-.768-.792 2.501 2.501 0 0 1-.28-1.2c0-.453.091-.851.272-1.192.182-.341.435-.603.76-.784a2.27 2.27 0 0 1 1.136-.28c.416 0 .784.091 1.104.272.32.181.566.432.736.752.176.315.264.672.264 1.072zm-.752-.152a1.32 1.32 0 0 0-.184-.712 1.147 1.147 0 0 0-.504-.456 1.499 1.499 0 0 0-.696-.16c-.368 0-.682.117-.944.352-.256.235-.402.56-.44.976zm2.601-1.272v2.584c0 .213.045.365.136.456.091.085.248.128.472.128h.536V621h-.656c-.405 0-.709-.093-.912-.28-.203-.187-.304-.493-.304-.92v-2.584h-.568v-.6h.568v-1.104h.728v1.104h1.144v.6zm5.914-.6V621h-.728v-.648c-.138.224-.333.4-.584.528a1.793 1.793 0 0 1-.816.184c-.341 0-.648-.069-.92-.208a1.59 1.59 0 0 1-.648-.64c-.154-.283-.232-.627-.232-1.032v-2.568h.72v2.472c0 .432.11.765.328 1 .219.229.518.344.896.344.39 0 .696-.12.92-.36.224-.24.336-.589.336-1.048v-2.408zm1.957.712c.128-.251.31-.445.544-.584.24-.139.531-.208.872-.208v.752h-.192c-.816 0-1.224.443-1.224 1.328V621h-.728v-4.384h.728zm4.393-.792c.533 0 .965.163 1.296.488.33.32.496.784.496 1.392V621h-.72v-2.48c0-.437-.11-.771-.328-1-.219-.235-.518-.352-.896-.352-.384 0-.691.12-.92.36-.224.24-.336.589-.336 1.048V621h-.728v-4.384h.728v.624a1.45 1.45 0 0 1 .584-.52c.25-.123.525-.184.824-.184zm3.357-.632a.478.478 0 0 1-.352-.144.478.478 0 0 1-.144-.352c0-.139.048-.256.144-.352a.478.478 0 0 1 .352-.144c.133 0 .245.048.336.144a.478.478 0 0 1 .144.352.478.478 0 0 1-.144.352.445.445 0 0 1-.336.144zm.352.712V621h-.728v-4.384zm3.377-.08c.533 0 .965.163 1.296.488.33.32.496.784.496 1.392V621h-.72v-2.48c0-.437-.11-.771-.328-1-.219-.235-.518-.352-.896-.352-.384 0-.691.12-.92.36-.224.24-.336.589-.336 1.048V621h-.728v-4.384h.728v.624a1.45 1.45 0 0 1 .584-.52c.25-.123.525-.184.824-.184zm4.789.008c.379 0 .709.083.992.248.288.165.501.373.64.624v-.8h.736v4.48c0 .4-.085.755-.256 1.064-.171.315-.416.56-.736.736a2.226 2.226 0 0 1-1.104.264c-.576 0-1.056-.136-1.44-.408a1.594 1.594 0 0 1-.68-1.112h.72c.08.267.245.48.496.64.251.165.552.248.904.248.4 0 .725-.125.976-.376.256-.251.384-.603.384-1.056v-.92a1.752 1.752 0 0 1-.64.64 1.879 1.879 0 0 1-.992.256 2.03 2.03 0 0 1-1.064-.288 2.013 2.013 0 0 1-.744-.808 2.52 2.52 0 0 1-.272-1.184c0-.448.091-.84.272-1.176.181-.341.429-.605.744-.792a2.07 2.07 0 0 1 1.064-.28zm1.632 2.256c0-.331-.067-.619-.2-.864a1.379 1.379 0 0 0-.544-.56 1.43 1.43 0 0 0-.744-.2c-.272 0-.52.064-.744.192a1.393 1.393 0 0 0-.536.56c-.133.245-.2.533-.2.864 0 .336.067.629.2.88.133.245.312.435.536.568.224.128.472.192.744.192s.52-.064.744-.192c.229-.133.411-.323.544-.568.133-.251.2-.541.2-.872z" fill="#000"/><path d="M545 516h153m-153 40h153" stroke="#e2e7e7" stroke-dasharray="3, 6"/><path d="M545 596h153" stroke="#e2e7e7"/><path d="m545 579.5 31.5-5L608 556l31-20 30.5-14.5 31-26.5" stroke="#721f6f" stroke-width="2"/><path d="m545.5 561.5 31 25 31-25 31 6 31.5-30 30.5 2" stroke="#ffbe67" stroke-width="2"/><rect x="533" y="467" width="24" height="24" rx="12" fill="#eddeff"/><g clip-path="url(#b)" transform="translate(-194 96)"><rect x="759" y="52" width="252" height="252" rx="21.6" fill="#fff"/><circle cx="885.5" cy="152.5" r="54.5" stroke="#9ea9fd" stroke-width="24.177"/><path d="M885.189 98C915.46 98 940 122.4 940 152.5S915.46 207 885.189 207c-24.412 0-45.096-15.869-52.189-37.798" stroke="#c67dff" stroke-width="24.177"/><path d="M885 98c30.376 0 55 24.375 55 54.442 0 17.812-8.641 33.625-22 43.558" stroke="#721f6f" stroke-width="24.177"/><path fill="#c67dff" d="M780 265.922h14.87V257H780z"/><path d="M807.338 265.544a3.658 3.658 0 0 1-1.475-.285 2.506 2.506 0 0 1-1.011-.809 2.1 2.1 0 0 1-.381-1.202h1.154c.039.389.198.718.476.988.285.262.698.392 1.237.392.515 0 .92-.126 1.213-.38.302-.262.452-.595.452-1 0-.317-.087-.575-.261-.773a1.678 1.678 0 0 0-.655-.452 10.19 10.19 0 0 0-1.058-.333 9.594 9.594 0 0 1-1.321-.428 2.2 2.2 0 0 1-.845-.666c-.23-.31-.345-.722-.345-1.238 0-.452.115-.852.345-1.201.23-.349.552-.619.964-.809.42-.19.9-.286 1.439-.286.778 0 1.412.195 1.904.583.5.389.781.904.845 1.547h-1.19c-.04-.317-.206-.595-.5-.833-.293-.246-.682-.369-1.166-.369-.452 0-.82.119-1.106.357-.285.23-.428.555-.428.976 0 .301.083.547.25.737.174.191.384.337.63.44.254.096.607.207 1.059.333.547.151.987.302 1.32.453.333.142.619.368.857.678.238.301.357.713.357 1.237 0 .404-.107.785-.321 1.142-.215.357-.532.646-.952.868-.42.222-.916.333-1.487.333zm5.673-5.71v3.843c0 .317.068.543.203.678.134.127.368.19.702.19h.797v.916h-.976c-.603 0-1.055-.139-1.356-.416-.301-.278-.452-.734-.452-1.368v-3.843h-.845v-.892h.845V257.3h1.082v1.642h1.702v.892zm2.609 2.344c0-.666.135-1.249.404-1.749.27-.508.639-.9 1.107-1.178a3.085 3.085 0 0 1 1.582-.416c.571 0 1.067.123 1.487.369.42.246.733.555.94.928v-1.19h1.094v6.519h-1.094v-1.213c-.214.38-.536.698-.964.951-.42.246-.912.369-1.475.369a2.958 2.958 0 0 1-1.57-.428 3.008 3.008 0 0 1-1.107-1.202c-.269-.515-.404-1.102-.404-1.76zm5.52.012c0-.492-.099-.92-.298-1.285a2.044 2.044 0 0 0-.809-.833 2.124 2.124 0 0 0-1.106-.297 2.19 2.19 0 0 0-1.106.285 2.067 2.067 0 0 0-.797.833c-.199.365-.298.793-.298 1.285 0 .499.099.936.298 1.308.198.365.463.647.797.845.333.19.701.286 1.106.286.404 0 .773-.096 1.106-.286.341-.198.611-.48.809-.845.199-.372.298-.805.298-1.296zm5.576-2.356h-1.368v5.627h-1.082v-5.627h-.845v-.892h.845v-.464c0-.73.186-1.261.559-1.594.381-.341.987-.512 1.82-.512v.904c-.476 0-.813.096-1.011.286-.19.182-.286.488-.286.916v.464h1.368zm3.916 0h-1.368v5.627h-1.083v-5.627h-.845v-.892h.845v-.464c0-.73.186-1.261.559-1.594.381-.341.987-.512 1.82-.512v.904c-.476 0-.813.096-1.011.286-.19.182-.285.488-.285.916v.464h1.368z" fill="#000"/><path fill="#9ea9fd" d="M839.793 265.922h14.87V257h-14.87z"/><path d="M870.045 259.596c0 .69-.238 1.265-.714 1.725-.468.452-1.185.678-2.153.678h-1.594v3.462h-1.083v-8.292h2.677c.936 0 1.646.226 2.13.679.491.452.737 1.034.737 1.748zm-2.867 1.511c.603 0 1.047-.131 1.333-.392.285-.262.428-.635.428-1.119 0-1.023-.587-1.534-1.761-1.534h-1.594v3.045zm3.808 1.071c0-.666.135-1.249.405-1.749.269-.508.638-.9 1.106-1.178a3.087 3.087 0 0 1 1.582-.416c.571 0 1.067.123 1.487.369.421.246.734.555.94.928v-1.19h1.095v6.519h-1.095v-1.213c-.214.38-.535.698-.963.951-.421.246-.913.369-1.476.369a2.958 2.958 0 0 1-1.57-.428 3 3 0 0 1-1.106-1.202c-.27-.515-.405-1.102-.405-1.76zm5.52.012c0-.492-.099-.92-.297-1.285a2.05 2.05 0 0 0-.809-.833 2.125 2.125 0 0 0-1.107-.297c-.404 0-.773.095-1.106.285a2.074 2.074 0 0 0-.797.833c-.198.365-.297.793-.297 1.285 0 .499.099.936.297 1.308.198.365.464.647.797.845.333.19.702.286 1.106.286.405 0 .774-.096 1.107-.286.341-.198.61-.48.809-.845.198-.372.297-.805.297-1.296zm4.245-2.356v3.843c0 .317.067.543.202.678.135.127.369.19.702.19h.797v.916h-.976c-.603 0-1.055-.139-1.356-.416-.301-.278-.452-.734-.452-1.368v-3.843h-.845v-.892h.845V257.3h1.083v1.642h1.701v.892zm3.571-1.951a.71.71 0 0 1-.523-.214.71.71 0 0 1-.214-.523c0-.207.071-.381.214-.524a.71.71 0 0 1 .523-.214c.199 0 .365.071.5.214a.711.711 0 0 1 .214.524.71.71 0 0 1-.214.523.659.659 0 0 1-.5.214zm.524 1.059v6.519h-1.083v-6.519zm7.793 3.01c0 .206-.012.424-.036.654h-5.21c.04.642.258 1.146.654 1.511.405.357.892.535 1.463.535.468 0 .857-.107 1.166-.321a1.74 1.74 0 0 0 .666-.88h1.166a2.824 2.824 0 0 1-1.047 1.534c-.523.389-1.173.583-1.951.583a3.335 3.335 0 0 1-1.665-.416 2.964 2.964 0 0 1-1.142-1.178c-.278-.515-.416-1.11-.416-1.784 0-.674.134-1.265.404-1.773.27-.507.646-.896 1.13-1.166.492-.277 1.055-.416 1.689-.416.619 0 1.166.135 1.642.404.476.27.841.643 1.095 1.119.261.468.392.999.392 1.594zm-1.118-.226c0-.413-.091-.766-.274-1.059a1.724 1.724 0 0 0-.749-.678 2.228 2.228 0 0 0-1.035-.238 2.03 2.03 0 0 0-1.404.523c-.381.349-.599.833-.654 1.452zm5.723-2.903c.794 0 1.436.242 1.928.726.491.476.737 1.166.737 2.07v3.842h-1.07v-3.688c0-.65-.163-1.146-.488-1.487-.325-.349-.769-.523-1.333-.523-.571 0-1.027.178-1.368.535-.333.357-.499.877-.499 1.559v3.604h-1.083v-6.519h1.083v.928c.214-.333.503-.591.868-.773a2.742 2.742 0 0 1 1.225-.274zm5.754 1.011v3.843c0 .317.068.543.202.678.135.127.369.19.702.19h.797v.916h-.975c-.603 0-1.055-.139-1.356-.416-.302-.278-.452-.734-.452-1.368v-3.843h-.845v-.892h.845V257.3h1.082v1.642h1.701v.892z" fill="#000"/><path fill="#721f6f" d="M913.585 265.922h14.87V257h-14.87z"/><path d="m942.66 265.461-1.975-3.39h-1.308v3.39h-1.083v-8.292h2.677c.626 0 1.154.107 1.582.322.436.214.761.503.976.868.214.365.321.781.321 1.249 0 .571-.167 1.075-.5 1.511-.325.436-.817.726-1.475.868l2.082 3.474zm-3.283-4.259h1.594c.587 0 1.027-.142 1.32-.428.294-.293.441-.682.441-1.166 0-.492-.147-.872-.441-1.142-.285-.27-.725-.404-1.32-.404h-1.594zm12.103.75c0 .206-.012.424-.036.654h-5.21c.039.642.258 1.146.654 1.511.405.357.892.535 1.463.535.468 0 .857-.107 1.166-.321.317-.222.54-.515.666-.88h1.166a2.824 2.824 0 0 1-1.047 1.534c-.523.389-1.173.583-1.951.583a3.335 3.335 0 0 1-1.665-.416 2.964 2.964 0 0 1-1.142-1.178c-.278-.515-.417-1.11-.417-1.784 0-.674.135-1.265.405-1.773.27-.507.646-.896 1.13-1.166.492-.277 1.055-.416 1.689-.416.619 0 1.166.135 1.642.404.476.27.841.643 1.095 1.119.261.468.392.999.392 1.594zm-1.118-.226c0-.413-.091-.766-.274-1.059a1.724 1.724 0 0 0-.749-.678 2.234 2.234 0 0 0-1.035-.238 2.03 2.03 0 0 0-1.404.523c-.381.349-.599.833-.654 1.452zm5.2-1.892h-1.368v5.627h-1.083v-5.627h-.844v-.892h.844v-.464c0-.73.187-1.261.559-1.594.381-.341.988-.512 1.821-.512v.904c-.476 0-.813.096-1.012.286-.19.182-.285.488-.285.916v.464h1.368zm1.607 5.699a.712.712 0 0 1-.523-.215.71.71 0 0 1-.214-.523.71.71 0 0 1 .214-.523.712.712 0 0 1 .523-.215c.198 0 .365.072.5.215a.71.71 0 0 1 .214.523.71.71 0 0 1-.214.523.661.661 0 0 1-.5.215zm10.868-5.937c0 .69-.238 1.265-.714 1.725-.467.452-1.185.678-2.153.678h-1.594v3.462h-1.082v-8.292h2.676c.936 0 1.646.226 2.13.679.491.452.737 1.034.737 1.748zm-2.867 1.511c.603 0 1.047-.131 1.333-.392.285-.262.428-.635.428-1.119 0-1.023-.587-1.534-1.761-1.534h-1.594v3.045zm7.449-2.284c.491 0 .935.107 1.332.321.397.206.706.52.928.94.23.42.345.932.345 1.535v3.842h-1.071v-3.688c0-.65-.162-1.146-.488-1.487-.325-.349-.769-.523-1.332-.523-.571 0-1.027.178-1.368.535-.333.357-.5.877-.5 1.559v3.604h-1.082v-8.803h1.082v3.212c.214-.333.508-.591.881-.773.38-.183.805-.274 1.273-.274zm9.988.119-3.925 9.588h-1.119l1.285-3.14-2.629-6.448h1.202l2.046 5.282 2.022-5.282zm3.396 6.626c-.499 0-.947-.083-1.344-.25a2.338 2.338 0 0 1-.94-.713 1.927 1.927 0 0 1-.38-1.059h1.118c.032.325.182.591.452.797.278.206.638.309 1.083.309.412 0 .737-.091.975-.273.238-.183.357-.413.357-.69a.668.668 0 0 0-.381-.631c-.253-.143-.646-.281-1.177-.416a9.665 9.665 0 0 1-1.19-.381 2.261 2.261 0 0 1-.785-.583c-.214-.262-.321-.603-.321-1.023 0-.333.099-.638.297-.916.198-.278.48-.496.845-.654.364-.167.781-.25 1.249-.25.721 0 1.304.182 1.748.547.445.365.683.865.714 1.499h-1.082a1.112 1.112 0 0 0-.417-.821c-.246-.206-.579-.309-.999-.309-.389 0-.698.083-.928.25a.77.77 0 0 0-.345.654.75.75 0 0 0 .202.535c.143.135.318.246.524.333.214.08.507.171.88.274a8.64 8.64 0 0 1 1.142.381c.294.119.543.301.75.547.214.246.325.567.333.964 0 .357-.099.678-.298.963a2.006 2.006 0 0 1-.844.678c-.357.159-.77.238-1.238.238z" fill="#000"/></g><rect x="566.404" y="149.404" width="249.192" height="249.192" rx="20.196" stroke="#afb8ff" stroke-width="2.808"/><rect x="36.404" y="316.404" width="417.192" height="387.192" rx="20.196" fill="#fff"/><rect x="36.404" y="316.404" width="417.192" height="387.192" rx="20.196" stroke="#c67dff" stroke-width="2.808"/><path d="M68.768 411.424v.592h-2.424v1.88h1.968v.592h-1.968V417h-.728v-5.576zm4.687 1.192V417h-.728v-.648c-.138.224-.333.4-.584.528a1.793 1.793 0 0 1-.816.184c-.341 0-.648-.069-.92-.208a1.59 1.59 0 0 1-.648-.64c-.154-.283-.232-.627-.232-1.032v-2.568h.72v2.472c0 .432.11.765.328 1 .219.229.518.344.896.344.39 0 .696-.12.92-.36.224-.24.336-.589.336-1.048v-2.408zm1.877-1.536V417h-.728v-5.92zm1.889 0V417h-.728v-5.92zm7.598 5.92h-.728l-2.928-4.44V417h-.728v-5.584h.728l2.928 4.432v-4.432h.728zm.889-2.208c0-.448.09-.84.272-1.176.181-.341.429-.605.744-.792.32-.187.674-.28 1.064-.28.384 0 .717.083 1 .248.282.165.493.373.632.624v-.8h.736V417h-.736v-.816c-.144.256-.36.469-.648.64a1.935 1.935 0 0 1-.992.248 1.984 1.984 0 0 1-1.8-1.096 2.508 2.508 0 0 1-.272-1.184zm3.712.008c0-.331-.067-.619-.2-.864a1.385 1.385 0 0 0-.544-.56 1.43 1.43 0 0 0-.744-.2c-.272 0-.52.064-.744.192a1.393 1.393 0 0 0-.536.56c-.134.245-.2.533-.2.864 0 .336.066.629.2.88.133.245.312.435.536.568.224.128.472.192.744.192s.52-.064.744-.192c.229-.133.41-.323.544-.568.133-.251.2-.541.2-.872zm7.158-2.264c.341 0 .645.072.912.216.267.139.477.349.632.632.155.283.232.627.232 1.032V417h-.72v-2.48c0-.437-.109-.771-.328-1-.213-.235-.504-.352-.872-.352-.379 0-.68.123-.904.368-.224.24-.336.589-.336 1.048V417h-.72v-2.48c0-.437-.109-.771-.328-1-.213-.235-.504-.352-.872-.352-.379 0-.68.123-.904.368-.224.24-.336.589-.336 1.048V417h-.728v-4.384h.728v.632a1.45 1.45 0 0 1 .576-.528c.245-.123.515-.184.808-.184.368 0 .693.083.976.248.283.165.493.408.632.728a1.44 1.44 0 0 1 .608-.72c.283-.171.597-.256.944-.256zm6.89 2.104c0 .139-.008.285-.024.44H99.94c.027.432.174.771.44 1.016.272.24.6.36.984.36.315 0 .576-.072.784-.216.214-.149.363-.347.448-.592h.784a1.905 1.905 0 0 1-.704 1.032c-.352.261-.789.392-1.312.392-.416 0-.789-.093-1.12-.28a2.005 2.005 0 0 1-.768-.792 2.501 2.501 0 0 1-.28-1.2c0-.453.091-.851.272-1.192.182-.341.435-.603.76-.784a2.27 2.27 0 0 1 1.136-.28c.416 0 .784.091 1.104.272.32.181.566.432.736.752.176.315.264.672.264 1.072zm-.752-.152a1.32 1.32 0 0 0-.184-.712 1.147 1.147 0 0 0-.504-.456 1.499 1.499 0 0 0-.696-.16c-.368 0-.682.117-.944.352-.256.235-.402.56-.44.976zm114.636-3.064c.608 0 1.133.115 1.576.344a2.34 2.34 0 0 1 1.024.968c.24.421.36.917.36 1.488s-.12 1.067-.36 1.488a2.351 2.351 0 0 1-1.024.96c-.443.219-.968.328-1.576.328h-1.736v-5.576zm0 4.976c.72 0 1.269-.189 1.648-.568.379-.384.568-.92.568-1.608 0-.693-.192-1.235-.576-1.624-.379-.389-.925-.584-1.64-.584h-1.008v4.384zm7.84-1.76c0 .139-.008.285-.024.44h-3.504c.027.432.174.771.44 1.016.272.24.6.36.984.36.315 0 .576-.072.784-.216.214-.149.363-.347.448-.592h.784a1.905 1.905 0 0 1-.704 1.032c-.352.261-.789.392-1.312.392-.416 0-.789-.093-1.12-.28a2.005 2.005 0 0 1-.768-.792 2.501 2.501 0 0 1-.28-1.2c0-.453.091-.851.272-1.192.182-.341.435-.603.76-.784a2.27 2.27 0 0 1 1.136-.28c.416 0 .784.091 1.104.272.32.181.566.432.736.752.176.315.264.672.264 1.072zm-.752-.152a1.32 1.32 0 0 0-.184-.712 1.147 1.147 0 0 0-.504-.456 1.499 1.499 0 0 0-.696-.16c-.368 0-.682.117-.944.352-.256.235-.402.56-.44.976zm3.185 2.584c-.336 0-.637-.056-.904-.168a1.572 1.572 0 0 1-.632-.48 1.302 1.302 0 0 1-.256-.712h.752a.745.745 0 0 0 .304.536c.187.139.43.208.728.208.278 0 .496-.061.656-.184a.562.562 0 0 0 .24-.464.449.449 0 0 0-.256-.424c-.17-.096-.434-.189-.792-.28a6.537 6.537 0 0 1-.8-.256 1.531 1.531 0 0 1-.528-.392c-.144-.176-.216-.405-.216-.688 0-.224.067-.429.2-.616.134-.187.323-.333.568-.44.246-.112.526-.168.84-.168.486 0 .878.123 1.176.368.299.245.459.581.48 1.008h-.728a.747.747 0 0 0-.28-.552c-.165-.139-.389-.208-.672-.208-.261 0-.469.056-.624.168a.521.521 0 0 0-.232.44c0 .144.046.264.136.36.096.091.214.165.352.224.144.053.342.115.592.184.315.085.571.171.768.256.198.08.366.203.504.368.144.165.219.381.224.648 0 .24-.066.456-.2.648a1.351 1.351 0 0 1-.568.456c-.24.107-.517.16-.832.16zm2.276-2.272c0-.453.091-.848.272-1.184a1.96 1.96 0 0 1 .752-.792 2.19 2.19 0 0 1 1.112-.28c.539 0 .981.131 1.328.392.352.261.584.624.696 1.088h-.784a1.12 1.12 0 0 0-.44-.632c-.213-.155-.48-.232-.8-.232-.416 0-.752.144-1.008.432-.256.283-.384.685-.384 1.208 0 .528.128.936.384 1.224.256.288.592.432 1.008.432.32 0 .587-.075.8-.224.213-.149.36-.363.44-.64h.784a1.946 1.946 0 0 1-.704 1.08c-.352.267-.792.4-1.32.4a2.19 2.19 0 0 1-1.112-.28 1.96 1.96 0 0 1-.752-.792c-.181-.341-.272-.741-.272-1.2zm5.779-1.472c.128-.251.31-.445.544-.584.24-.139.531-.208.872-.208v.752h-.192c-.816 0-1.224.443-1.224 1.328V417h-.728v-4.384h.728zm2.553-1.424a.478.478 0 0 1-.352-.144.478.478 0 0 1-.144-.352c0-.139.048-.256.144-.352a.478.478 0 0 1 .352-.144c.133 0 .245.048.336.144a.478.478 0 0 1 .144.352.478.478 0 0 1-.144.352.445.445 0 0 1-.336.144zm.352.712V417h-.728v-4.384zm1.888.808c.144-.251.358-.459.64-.624a1.923 1.923 0 0 1 1-.256c.39 0 .742.093 1.056.28.32.187.571.451.752.792.182.336.272.728.272 1.176 0 .443-.09.837-.272 1.184a1.997 1.997 0 0 1-.752.808 1.984 1.984 0 0 1-1.056.288 1.96 1.96 0 0 1-.992-.248 1.854 1.854 0 0 1-.648-.632v2.888h-.728v-6.464h.728zm2.976 1.368c0-.331-.066-.619-.2-.864a1.373 1.373 0 0 0-.544-.56 1.473 1.473 0 0 0-.744-.192c-.266 0-.514.067-.744.2a1.434 1.434 0 0 0-.544.568c-.133.245-.2.531-.2.856 0 .331.067.621.2.872.139.245.32.435.544.568.23.128.478.192.744.192.272 0 .52-.064.744-.192.23-.133.411-.323.544-.568.134-.251.2-.544.2-.88zm2.511-1.576v2.584c0 .213.045.365.136.456.09.085.248.128.472.128h.536V417h-.656c-.406 0-.71-.093-.912-.28-.203-.187-.304-.493-.304-.92v-2.584h-.568v-.6h.568v-1.104h.728v1.104h1.144v.6zm2.322-1.312a.478.478 0 0 1-.352-.144.478.478 0 0 1-.144-.352c0-.139.048-.256.144-.352a.478.478 0 0 1 .352-.144c.133 0 .245.048.336.144a.478.478 0 0 1 .144.352.478.478 0 0 1-.144.352.445.445 0 0 1-.336.144zm.352.712V417h-.728v-4.384zm3.072 4.456c-.41 0-.784-.093-1.12-.28a2.044 2.044 0 0 1-.784-.792 2.501 2.501 0 0 1-.28-1.2c0-.448.096-.843.288-1.184.198-.347.464-.611.8-.792a2.28 2.28 0 0 1 1.128-.28c.416 0 .792.093 1.128.28.336.181.6.443.792.784.198.341.296.739.296 1.192 0 .453-.101.853-.304 1.2a2.057 2.057 0 0 1-.808.792c-.341.187-.72.28-1.136.28zm0-.64c.262 0 .507-.061.736-.184a1.37 1.37 0 0 0 .552-.552c.144-.245.216-.544.216-.896s-.069-.651-.208-.896a1.331 1.331 0 0 0-.544-.544 1.486 1.486 0 0 0-.728-.184c-.266 0-.512.061-.736.184a1.309 1.309 0 0 0-.528.544c-.133.245-.2.544-.2.896 0 .357.064.659.192.904.134.245.31.429.528.552.219.117.459.176.72.176zm5.262-3.896c.533 0 .965.163 1.296.488.33.32.496.784.496 1.392V417h-.72v-2.48c0-.437-.11-.771-.328-1-.219-.235-.518-.352-.896-.352-.384 0-.691.12-.92.36-.224.24-.336.589-.336 1.048V417h-.728v-4.384h.728v.624a1.45 1.45 0 0 1 .584-.52c.25-.123.525-.184.824-.184zm103.787-1.072V417h-.728v-4.128l-1.84 4.128h-.512l-1.848-4.136V417h-.728v-5.536h.784l2.048 4.576 2.048-4.576zm5.155 3.176c0 .139-.008.285-.024.44h-3.504c.026.432.173.771.44 1.016.272.24.6.36.984.36.314 0 .576-.072.784-.216.213-.149.362-.347.448-.592h.784a1.91 1.91 0 0 1-.704 1.032c-.352.261-.79.392-1.312.392-.416 0-.79-.093-1.12-.28a1.992 1.992 0 0 1-.768-.792 2.49 2.49 0 0 1-.28-1.2c0-.453.09-.851.272-1.192.181-.341.434-.603.76-.784.33-.187.709-.28 1.136-.28.416 0 .784.091 1.104.272.32.181.565.432.736.752.176.315.264.672.264 1.072zm-.752-.152c0-.277-.062-.515-.184-.712a1.158 1.158 0 0 0-.504-.456 1.499 1.499 0 0 0-.696-.16c-.368 0-.683.117-.944.352-.256.235-.403.56-.44.976zm1.361.304c0-.448.09-.84.272-1.176.181-.341.429-.605.744-.792.32-.187.677-.28 1.072-.28.341 0 .658.08.952.24.293.155.517.36.672.616v-2.32h.736V417h-.736v-.824a1.742 1.742 0 0 1-.64.648 1.935 1.935 0 0 1-.992.248c-.39 0-.744-.096-1.064-.288a2.013 2.013 0 0 1-.744-.808 2.508 2.508 0 0 1-.272-1.184zm3.712.008c0-.331-.067-.619-.2-.864a1.385 1.385 0 0 0-.544-.56 1.43 1.43 0 0 0-.744-.2c-.272 0-.52.064-.744.192a1.393 1.393 0 0 0-.536.56c-.134.245-.2.533-.2.864 0 .336.066.629.2.88.133.245.312.435.536.568.224.128.472.192.744.192s.52-.064.744-.192c.229-.133.41-.323.544-.568.133-.251.2-.541.2-.872zm2.262-2.896a.478.478 0 0 1-.352-.144.478.478 0 0 1-.144-.352c0-.139.048-.256.144-.352a.478.478 0 0 1 .352-.144c.133 0 .245.048.336.144a.478.478 0 0 1 .144.352.478.478 0 0 1-.144.352.445.445 0 0 1-.336.144zm.352.712V417h-.728v-4.384zm.889 2.184c0-.453.09-.848.272-1.184a1.96 1.96 0 0 1 .752-.792 2.19 2.19 0 0 1 1.112-.28c.538 0 .981.131 1.328.392.352.261.584.624.696 1.088h-.784a1.124 1.124 0 0 0-.44-.632c-.214-.155-.48-.232-.8-.232-.416 0-.752.144-1.008.432-.256.283-.384.685-.384 1.208 0 .528.128.936.384 1.224.256.288.592.432 1.008.432.32 0 .586-.075.8-.224.213-.149.36-.363.44-.64h.784a1.95 1.95 0 0 1-.704 1.08c-.352.267-.792.4-1.32.4a2.19 2.19 0 0 1-1.112-.28 1.96 1.96 0 0 1-.752-.792c-.182-.341-.272-.741-.272-1.2zm4.779-.008c0-.448.091-.84.272-1.176.181-.341.429-.605.744-.792a2.07 2.07 0 0 1 1.064-.28c.384 0 .717.083 1 .248.283.165.493.373.632.624v-.8h.736V417h-.736v-.816c-.144.256-.36.469-.648.64a1.932 1.932 0 0 1-.992.248c-.389 0-.741-.096-1.056-.288a2.013 2.013 0 0 1-.744-.808 2.52 2.52 0 0 1-.272-1.184zm3.712.008c0-.331-.067-.619-.2-.864a1.379 1.379 0 0 0-.544-.56 1.43 1.43 0 0 0-.744-.2c-.272 0-.52.064-.744.192a1.393 1.393 0 0 0-.536.56c-.133.245-.2.533-.2.864 0 .336.067.629.2.88.133.245.312.435.536.568.224.128.472.192.744.192s.52-.064.744-.192c.229-.133.411-.323.544-.568.133-.251.2-.541.2-.872zm2.774-1.584v2.584c0 .213.046.365.136.456.091.085.248.128.472.128h.536V417h-.656c-.405 0-.709-.093-.912-.28-.202-.187-.304-.493-.304-.92v-2.584h-.568v-.6h.568v-1.104h.728v1.104h1.144v.6zm2.322-1.312a.48.48 0 0 1-.352-.144.478.478 0 0 1-.144-.352c0-.139.048-.256.144-.352a.48.48 0 0 1 .352-.144c.134 0 .246.048.336.144a.478.478 0 0 1 .144.352.478.478 0 0 1-.144.352.442.442 0 0 1-.336.144zm.352.712V417h-.728v-4.384zm3.073 4.456c-.411 0-.784-.093-1.12-.28a2.037 2.037 0 0 1-.784-.792 2.49 2.49 0 0 1-.28-1.2c0-.448.096-.843.288-1.184.197-.347.464-.611.8-.792a2.28 2.28 0 0 1 1.128-.28c.416 0 .792.093 1.128.28.336.181.6.443.792.784.197.341.296.739.296 1.192 0 .453-.101.853-.304 1.2a2.064 2.064 0 0 1-.808.792c-.341.187-.72.28-1.136.28zm0-.64c.261 0 .507-.061.736-.184.229-.123.413-.307.552-.552.144-.245.216-.544.216-.896s-.069-.651-.208-.896a1.337 1.337 0 0 0-.544-.544 1.489 1.489 0 0 0-.728-.184c-.267 0-.512.061-.736.184a1.297 1.297 0 0 0-.528.544c-.133.245-.2.544-.2.896 0 .357.064.659.192.904.133.245.309.429.528.552.219.117.459.176.72.176zm5.261-3.896c.534 0 .966.163 1.296.488.331.32.496.784.496 1.392V417h-.72v-2.48c0-.437-.109-.771-.328-1-.218-.235-.517-.352-.896-.352-.384 0-.69.12-.92.36-.224.24-.336.589-.336 1.048V417h-.728v-4.384h.728v.624c.144-.224.339-.397.584-.52.251-.123.526-.184.824-.184zm4.454 4.536c-.336 0-.638-.056-.904-.168a1.558 1.558 0 0 1-.632-.48 1.294 1.294 0 0 1-.256-.712h.752a.739.739 0 0 0 .304.536c.186.139.429.208.728.208.277 0 .496-.061.656-.184a.562.562 0 0 0 .24-.464.45.45 0 0 0-.256-.424c-.171-.096-.435-.189-.792-.28a6.48 6.48 0 0 1-.8-.256 1.513 1.513 0 0 1-.528-.392c-.144-.176-.216-.405-.216-.688 0-.224.066-.429.2-.616.133-.187.322-.333.568-.44a2 2 0 0 1 .84-.168c.485 0 .877.123 1.176.368.298.245.458.581.48 1.008h-.728a.75.75 0 0 0-.28-.552c-.166-.139-.39-.208-.672-.208-.262 0-.47.056-.624.168a.519.519 0 0 0-.232.44c0 .144.045.264.136.36.096.091.213.165.352.224.144.053.341.115.592.184a5.9 5.9 0 0 1 .768.256c.197.08.365.203.504.368.144.165.218.381.224.648 0 .24-.067.456-.2.648a1.364 1.364 0 0 1-.568.456c-.24.107-.518.16-.832.16zm-240.117-.664h1.952V417h-2.68v-5.576h.728zm2.373-1.616c0-.448.091-.84.272-1.176.181-.341.429-.605.744-.792a2.07 2.07 0 0 1 1.064-.28c.384 0 .717.083 1 .248.283.165.493.373.632.624v-.8h.736V417h-.736v-.816c-.144.256-.36.469-.648.64a1.932 1.932 0 0 1-.992.248c-.389 0-.741-.096-1.056-.288a2.013 2.013 0 0 1-.744-.808 2.52 2.52 0 0 1-.272-1.184zm3.712.008c0-.331-.067-.619-.2-.864a1.379 1.379 0 0 0-.544-.56 1.43 1.43 0 0 0-.744-.2c-.272 0-.52.064-.744.192a1.393 1.393 0 0 0-.536.56c-.133.245-.2.533-.2.864 0 .336.067.629.2.88.133.245.312.435.536.568.224.128.472.192.744.192s.52-.064.744-.192c.229-.133.411-.323.544-.568.133-.251.2-.541.2-.872zm3.438 2.272c-.336 0-.637-.056-.904-.168a1.572 1.572 0 0 1-.632-.48 1.302 1.302 0 0 1-.256-.712h.752a.745.745 0 0 0 .304.536c.187.139.43.208.728.208.278 0 .496-.061.656-.184a.562.562 0 0 0 .24-.464.449.449 0 0 0-.256-.424c-.17-.096-.434-.189-.792-.28a6.537 6.537 0 0 1-.8-.256 1.531 1.531 0 0 1-.528-.392c-.144-.176-.216-.405-.216-.688 0-.224.067-.429.2-.616.134-.187.323-.333.568-.44.246-.112.526-.168.84-.168.486 0 .878.123 1.176.368.299.245.459.581.48 1.008h-.728a.747.747 0 0 0-.28-.552c-.165-.139-.389-.208-.672-.208-.261 0-.469.056-.624.168a.521.521 0 0 0-.232.44c0 .144.046.264.136.36.096.091.214.165.352.224.144.053.342.115.592.184.315.085.571.171.768.256.198.08.366.203.504.368.144.165.219.381.224.648 0 .24-.066.456-.2.648a1.351 1.351 0 0 1-.568.456c-.24.107-.517.16-.832.16zm3.436-3.856v2.584c0 .213.045.365.136.456.091.085.248.128.472.128h.536V417h-.656c-.405 0-.709-.093-.912-.28-.203-.187-.304-.493-.304-.92v-2.584h-.568v-.6h.568v-1.104h.728v1.104h1.144v.6zm5.631 3.112 1.36-3.712h.776L179.35 417h-.848l-1.72-4.384h.784zm3.148-4.424a.48.48 0 0 1-.352-.144.478.478 0 0 1-.144-.352c0-.139.048-.256.144-.352a.48.48 0 0 1 .352-.144c.134 0 .246.048.336.144a.478.478 0 0 1 .144.352.478.478 0 0 1-.144.352.442.442 0 0 1-.336.144zm.352.712V417h-.728v-4.384zm2.713 4.456c-.336 0-.637-.056-.904-.168a1.565 1.565 0 0 1-.632-.48 1.294 1.294 0 0 1-.256-.712h.752a.742.742 0 0 0 .304.536c.187.139.429.208.728.208.277 0 .496-.061.656-.184a.562.562 0 0 0 .24-.464.449.449 0 0 0-.256-.424c-.171-.096-.435-.189-.792-.28a6.537 6.537 0 0 1-.8-.256 1.513 1.513 0 0 1-.528-.392c-.144-.176-.216-.405-.216-.688 0-.224.067-.429.2-.616s.323-.333.568-.44a2 2 0 0 1 .84-.168c.485 0 .877.123 1.176.368.299.245.459.581.48 1.008h-.728a.747.747 0 0 0-.28-.552c-.165-.139-.389-.208-.672-.208-.261 0-.469.056-.624.168a.519.519 0 0 0-.232.44c0 .144.045.264.136.36.096.091.213.165.352.224.144.053.341.115.592.184.315.085.571.171.768.256.197.08.365.203.504.368.144.165.219.381.224.648 0 .24-.067.456-.2.648a1.358 1.358 0 0 1-.568.456c-.24.107-.517.16-.832.16zm2.924-5.168a.478.478 0 0 1-.352-.144.478.478 0 0 1-.144-.352c0-.139.048-.256.144-.352a.478.478 0 0 1 .352-.144c.133 0 .245.048.336.144a.478.478 0 0 1 .144.352.478.478 0 0 1-.144.352.445.445 0 0 1-.336.144zm.352.712V417h-.728v-4.384zm2.049.6v2.584c0 .213.045.365.136.456.09.085.248.128.472.128h.536V417h-.656c-.406 0-.71-.093-.912-.28-.203-.187-.304-.493-.304-.92v-2.584h-.568v-.6h.568v-1.104h.728v1.104h1.144v.6z" fill="#363636"/><path stroke="#f2f2f2" d="M65 430.5h360"/><rect x="159" y="445" width="24.548" height="7.364" rx="3.682" fill="#f2f2f2"/><rect x="89" y="446" width="50" height="7" rx="3.5" fill="#f2f2f2"/><rect x="215" y="445" width="112.92" height="7.364" rx="3.682" fill="#f2f2f2"/><rect x="354.483" y="445" width="24.548" height="7.364" rx="3.682" fill="#f2f2f2"/><rect x="383.94" y="445" width="24.548" height="7.364" rx="3.682" fill="#f2f2f2"/><circle cx="75" cy="449" r="10" fill="#eddeff"/><g clip-path="url(#c)" transform="translate(-194 96)" fill="#fff"><path d="M269 348.833a2.08 2.08 0 0 1 1.925 1.286 2.085 2.085 0 0 1-2.722 2.722 2.082 2.082 0 0 1-1.286-1.924l.002-.091a2.08 2.08 0 0 1 2.081-1.993zm.833 5a2.084 2.084 0 0 1 2.084 2.084v.416a.837.837 0 0 1-.244.59.837.837 0 0 1-.59.244h-4.166a.837.837 0 0 1-.59-.244.837.837 0 0 1-.244-.59v-.416a2.085 2.085 0 0 1 2.084-2.084z"/></g><path stroke="#f2f2f2" d="M65 466.5h360.483"/><rect x="159" y="481" width="24.548" height="7.364" rx="3.682" fill="#f2f2f2"/><rect x="89" y="482" width="50" height="7" rx="3.5" fill="#f2f2f2"/><rect x="215" y="481" width="93" height="7" rx="3.5" fill="#f2f2f2"/><rect x="354.483" y="481" width="71" height="7" rx="3.5" fill="#f2f2f2"/><circle cx="75" cy="485" r="10" fill="#ffe999"/><g clip-path="url(#d)" transform="translate(-194 96)" fill="#fff"><path d="M269 384.833a2.08 2.08 0 0 1 1.925 1.286 2.085 2.085 0 0 1-2.722 2.722 2.082 2.082 0 0 1-1.286-1.924l.002-.091a2.08 2.08 0 0 1 2.081-1.993zm.833 5a2.084 2.084 0 0 1 2.084 2.084v.416a.837.837 0 0 1-.244.59.837.837 0 0 1-.59.244h-4.166a.837.837 0 0 1-.59-.244.837.837 0 0 1-.244-.59v-.416a2.085 2.085 0 0 1 2.084-2.084z"/></g><path stroke="#f2f2f2" d="M65 502.5h360.483"/><rect x="159" y="517" width="24.548" height="7.364" rx="3.682" fill="#f2f2f2"/><rect x="89" y="518" width="40" height="7" rx="3.5" fill="#f2f2f2"/><rect x="215" y="517" width="105" height="7" rx="3.5" fill="#f2f2f2"/><rect x="354.483" y="517" width="50" height="7" rx="3.5" fill="#f2f2f2"/><circle cx="75" cy="521" r="10" fill="#9ea9fd"/><g clip-path="url(#e)" transform="translate(-194 96)" fill="#fff"><path d="M269 420.833a2.08 2.08 0 0 1 1.925 1.286 2.085 2.085 0 0 1-2.722 2.722 2.082 2.082 0 0 1-1.286-1.924l.002-.091a2.08 2.08 0 0 1 2.081-1.993zm.833 5a2.084 2.084 0 0 1 2.084 2.084v.416a.837.837 0 0 1-.244.59.837.837 0 0 1-.59.244h-4.166a.837.837 0 0 1-.59-.244.837.837 0 0 1-.244-.59v-.416a2.085 2.085 0 0 1 2.084-2.084z"/></g><path stroke="#f2f2f2" d="M65 538.5h360.483"/><rect x="159" y="553" width="24.548" height="7.364" rx="3.682" fill="#f2f2f2"/><rect x="89" y="554" width="40" height="7" rx="3.5" fill="#f2f2f2"/><rect x="215" y="553" width="112.92" height="7.364" rx="3.682" fill="#f2f2f2"/><rect x="354.483" y="553" width="36.822" height="7.364" rx="3.682" fill="#f2f2f2"/><circle cx="75" cy="557" r="10" fill="#eddeff"/><g clip-path="url(#f)" transform="translate(-194 96)" fill="#fff"><path d="M269 456.833a2.08 2.08 0 0 1 1.925 1.286 2.085 2.085 0 0 1-2.722 2.722 2.082 2.082 0 0 1-1.286-1.924l.002-.091a2.08 2.08 0 0 1 2.081-1.993zm.833 5a2.084 2.084 0 0 1 2.084 2.084v.416a.837.837 0 0 1-.244.59.837.837 0 0 1-.59.244h-4.166a.837.837 0 0 1-.59-.244.837.837 0 0 1-.244-.59v-.416a2.085 2.085 0 0 1 2.084-2.084z"/></g><path stroke="#f2f2f2" d="M65 574.5h360.483"/><rect x="159" y="589" width="24.548" height="7.364" rx="3.682" fill="#f2f2f2"/><rect x="89" y="590" width="50" height="7" rx="3.5" fill="#f2f2f2"/><rect x="215" y="589" width="105" height="7" rx="3.5" fill="#f2f2f2"/><rect x="354.483" y="589" width="24.548" height="7.364" rx="3.682" fill="#f2f2f2"/><rect x="383.94" y="589" width="24.548" height="7.364" rx="3.682" fill="#f2f2f2"/><circle cx="75" cy="593" r="10" fill="#9f9f9f"/><g clip-path="url(#g)" transform="translate(-194 96)" fill="#fff"><path d="M269 492.833a2.08 2.08 0 0 1 1.925 1.286 2.085 2.085 0 0 1-2.722 2.722 2.082 2.082 0 0 1-1.286-1.924l.002-.091a2.08 2.08 0 0 1 2.081-1.993zm.833 5a2.084 2.084 0 0 1 2.084 2.084v.416a.837.837 0 0 1-.244.59.837.837 0 0 1-.59.244h-4.166a.837.837 0 0 1-.59-.244.837.837 0 0 1-.244-.59v-.416a2.085 2.085 0 0 1 2.084-2.084z"/></g><path stroke="#f2f2f2" d="M65 610.5h360.483"/><rect x="159" y="625" width="24.548" height="7.364" rx="3.682" fill="#f2f2f2"/><rect x="89" y="626" width="40" height="7" rx="3.5" fill="#f2f2f2"/><rect x="215" y="625" width="87" height="7" rx="3.5" fill="#f2f2f2"/><rect x="354.483" y="625" width="71" height="7" rx="3.5" fill="#f2f2f2"/><circle cx="75" cy="629" r="10" fill="#c67dff"/><g clip-path="url(#h)" transform="translate(-194 96)" fill="#fff"><path d="M269 528.833a2.08 2.08 0 0 1 1.925 1.286 2.085 2.085 0 0 1-2.722 2.722 2.082 2.082 0 0 1-1.286-1.924l.002-.091a2.08 2.08 0 0 1 2.081-1.993zm.833 5a2.084 2.084 0 0 1 2.084 2.084v.416a.837.837 0 0 1-.244.59.837.837 0 0 1-.59.244h-4.166a.837.837 0 0 1-.59-.244.837.837 0 0 1-.244-.59v-.416a2.085 2.085 0 0 1 2.084-2.084z"/></g><path stroke="#f2f2f2" d="M65 646.5h360.483"/><rect x="159" y="661" width="24.548" height="7.364" rx="3.682" fill="#f2f2f2"/><rect x="89" y="662" width="40" height="7" rx="3.5" fill="#f2f2f2"/><rect x="215" y="661" width="87" height="7" rx="3.5" fill="#f2f2f2"/><rect x="354.483" y="661" width="71" height="7" rx="3.5" fill="#f2f2f2"/><circle cx="75" cy="665" r="10" fill="#ffbe67"/><g clip-path="url(#i)" transform="translate(-194 96)" fill="#fff"><path d="M269 564.833a2.08 2.08 0 0 1 1.925 1.286 2.085 2.085 0 0 1-2.722 2.722 2.082 2.082 0 0 1-1.286-1.924l.002-.091a2.08 2.08 0 0 1 2.081-1.993zm.833 5a2.084 2.084 0 0 1 2.084 2.084v.416a.837.837 0 0 1-.244.59.837.837 0 0 1-.59.244h-4.166a.837.837 0 0 1-.59-.244.837.837 0 0 1-.244-.59v-.416a2.085 2.085 0 0 1 2.084-2.084z"/></g><path d="M136.854 359.168c0 .495-.117.961-.35 1.4-.233.439-.607.798-1.12 1.078-.513.271-1.171.406-1.974.406h-1.764V366h-1.596v-9.73h3.36c.747 0 1.377.131 1.89.392.523.252.91.597 1.162 1.036.261.439.392.929.392 1.47zm-3.444 1.582c.607 0 1.059-.135 1.358-.406.299-.28.448-.672.448-1.176 0-1.064-.602-1.596-1.806-1.596h-1.764v3.178zm4.154 1.358c0-.775.159-1.461.476-2.058a3.567 3.567 0 0 1 1.316-1.386 3.525 3.525 0 0 1 1.848-.504c.607 0 1.134.121 1.582.364.458.233.822.527 1.092.882v-1.12h1.61V366h-1.61v-1.148c-.27.364-.639.667-1.106.91-.466.243-.998.364-1.596.364a3.43 3.43 0 0 1-1.82-.504 3.744 3.744 0 0 1-1.316-1.428c-.317-.616-.476-1.311-.476-2.086zm6.314.028c0-.532-.112-.994-.336-1.386a2.252 2.252 0 0 0-2.002-1.204c-.41 0-.793.103-1.148.308a2.26 2.26 0 0 0-.868.882c-.214.383-.322.84-.322 1.372 0 .532.108.999.322 1.4.224.401.514.709.868.924.364.205.747.308 1.148.308a2.252 2.252 0 0 0 2.002-1.204c.224-.401.336-.868.336-1.4zm5.288-2.548v4.27c0 .289.066.499.196.63.14.121.374.182.7.182h.98V366h-1.26c-.718 0-1.269-.168-1.652-.504-.382-.336-.574-.882-.574-1.638v-4.27h-.91v-1.302h.91v-1.918h1.61v1.918h1.876v1.302zm3.879-2.324a.99.99 0 0 1-.728-.294.99.99 0 0 1-.294-.728.99.99 0 0 1 .294-.728.99.99 0 0 1 .728-.294c.28 0 .518.098.714.294a.99.99 0 0 1 .294.728.99.99 0 0 1-.294.728.972.972 0 0 1-.714.294zm.784 1.022V366h-1.596v-7.714zm8.886 3.668c0 .289-.019.551-.056.784h-5.894c.047.616.275 1.111.686 1.484.411.373.915.56 1.512.56.859 0 1.465-.359 1.82-1.078h1.722a3.496 3.496 0 0 1-1.274 1.75c-.607.448-1.363.672-2.268.672-.737 0-1.4-.163-1.988-.49a3.662 3.662 0 0 1-1.372-1.4c-.327-.607-.49-1.307-.49-2.1 0-.793.159-1.489.476-2.086a3.444 3.444 0 0 1 1.358-1.4c.588-.327 1.26-.49 2.016-.49.728 0 1.377.159 1.946.476a3.347 3.347 0 0 1 1.33 1.344c.317.569.476 1.227.476 1.974zm-1.666-.504c-.009-.588-.219-1.059-.63-1.414-.411-.355-.919-.532-1.526-.532-.551 0-1.022.177-1.414.532-.392.345-.625.817-.7 1.414zm6.848-3.29c.607 0 1.148.126 1.624.378.486.252.864.625 1.134 1.12.271.495.406 1.092.406 1.792V366h-1.582v-4.312c0-.691-.172-1.218-.518-1.582-.345-.373-.816-.56-1.414-.56-.597 0-1.073.187-1.428.56-.345.364-.518.891-.518 1.582V366h-1.596v-7.714h1.596v.882c.262-.317.593-.565.994-.742a3.257 3.257 0 0 1 1.302-.266zm6.782 1.428v4.27c0 .289.066.499.196.63.14.121.374.182.7.182h.98V366h-1.26c-.718 0-1.269-.168-1.652-.504-.382-.336-.574-.882-.574-1.638v-4.27h-.91v-1.302h.91v-1.918h1.61v1.918h1.876v1.302zm8.02 5.124h3.29V366h-4.886v-9.73h1.596zm5.157-7.448a.988.988 0 0 1-.728-.294.99.99 0 0 1-.294-.728.99.99 0 0 1 .294-.728.988.988 0 0 1 .728-.294c.28 0 .518.098.714.294a.99.99 0 0 1 .294.728.99.99 0 0 1-.294.728.972.972 0 0 1-.714.294zm.784 1.022V366h-1.596v-7.714zm4.615 7.84c-.607 0-1.153-.107-1.638-.322a2.962 2.962 0 0 1-1.134-.896 2.27 2.27 0 0 1-.448-1.274h1.652c.028.327.182.602.462.826.289.215.649.322 1.078.322.448 0 .793-.084 1.036-.252.252-.177.378-.401.378-.672 0-.289-.14-.504-.42-.644-.271-.14-.705-.294-1.302-.462a12.75 12.75 0 0 1-1.414-.462 2.537 2.537 0 0 1-.952-.686c-.261-.308-.392-.714-.392-1.218 0-.411.121-.784.364-1.12.243-.345.588-.616 1.036-.812.457-.196.98-.294 1.568-.294.877 0 1.582.224 2.114.672.541.439.831 1.041.868 1.806h-1.596a1.137 1.137 0 0 0-.42-.826c-.252-.205-.593-.308-1.022-.308-.42 0-.742.079-.966.238a.738.738 0 0 0-.336.63c0 .205.075.378.224.518.149.14.331.252.546.336.215.075.532.173.952.294a9.25 9.25 0 0 1 1.372.462c.364.149.677.373.938.672.261.299.397.695.406 1.19 0 .439-.121.831-.364 1.176s-.588.616-1.036.812c-.439.196-.957.294-1.554.294zm6.261-6.538v4.27c0 .289.065.499.196.63.14.121.373.182.7.182h.98V366h-1.26c-.719 0-1.27-.168-1.652-.504-.383-.336-.574-.882-.574-1.638v-4.27h-.91v-1.302h.91v-1.918h1.61v1.918h1.876v1.302z" fill="#181818"/><rect x="65" y="335" width="52" height="52" rx="26" fill="#eddeff"/><g clip-path="url(#j)" transform="translate(-194 96)" stroke-width="1.5" stroke-linecap="round" stroke-linejoin="round"><path d="M286 258h8m-8 4h5m-5 6h8m-8 4h5" stroke="#000"/><path d="M276 258a.997.997 0 0 1 1-1h4a.997.997 0 0 1 1 1v4a.997.997 0 0 1-1 1h-4a.997.997 0 0 1-1-1Zm0 10a.997.997 0 0 1 1-1h4a.997.997 0 0 1 1 1v4a.997.997 0 0 1-1 1h-4a.997.997 0 0 1-1-1Z" fill="#c67dff" stroke="#c67dff"/></g><rect x="339" y="349" width="86" height="25" rx="12.5" fill="#721f6f"/><path d="M357.94 363.58h-2.91l-.5 1.42h-1.19l2.49-6.96h1.32l2.49 6.96h-1.2zm-.32-.93-1.13-3.23-1.14 3.23zm2.623-.43c0-.553.113-1.043.34-1.47a2.535 2.535 0 0 1 2.27-1.35c.36 0 .713.08 1.06.24.353.153.633.36.84.62v-2.66h1.15v7.4h-1.15v-.83a2.124 2.124 0 0 1-.78.66c-.327.173-.704.26-1.13.26-.48 0-.92-.12-1.32-.36a2.669 2.669 0 0 1-.94-1.02 3.203 3.203 0 0 1-.34-1.49zm4.51.02c0-.38-.08-.71-.24-.99a1.624 1.624 0 0 0-.61-.64 1.608 1.608 0 0 0-.82-.22c-.294 0-.567.073-.82.22-.254.14-.46.35-.62.63-.154.273-.23.6-.23.98s.076.713.23 1c.16.287.366.507.62.66a1.64 1.64 0 0 0 1.64 0c.253-.147.456-.36.61-.64.16-.287.24-.62.24-1zm2.167-.02c0-.553.113-1.043.34-1.47a2.535 2.535 0 0 1 2.27-1.35c.36 0 .713.08 1.06.24.353.153.633.36.84.62v-2.66h1.15v7.4h-1.15v-.83a2.124 2.124 0 0 1-.78.66c-.327.173-.703.26-1.13.26-.48 0-.92-.12-1.32-.36a2.677 2.677 0 0 1-.94-1.02 3.203 3.203 0 0 1-.34-1.49zm4.51.02c0-.38-.08-.71-.24-.99a1.606 1.606 0 0 0-1.43-.86c-.293 0-.567.073-.82.22-.253.14-.46.35-.62.63-.153.273-.23.6-.23.98s.077.713.23 1c.16.287.367.507.62.66a1.64 1.64 0 0 0 1.64 0c.253-.147.457-.36.61-.64.16-.287.24-.62.24-1zm9.905-2.12c0 .353-.083.687-.25 1-.167.313-.433.57-.8.77-.367.193-.837.29-1.41.29h-1.26V365h-1.14v-6.95h2.4c.533 0 .983.093 1.35.28.373.18.65.427.83.74.187.313.28.663.28 1.05zm-2.46 1.13c.433 0 .757-.097.97-.29.213-.2.32-.48.32-.84 0-.76-.43-1.14-1.29-1.14h-1.26v2.27zm3.067.97c0-.553.114-1.043.34-1.47a2.542 2.542 0 0 1 2.26-1.35c.434 0 .81.087 1.13.26.327.167.587.377.78.63v-.8h1.15V365h-1.15v-.82c-.193.26-.456.477-.79.65-.333.173-.713.26-1.14.26a2.45 2.45 0 0 1-1.3-.36 2.684 2.684 0 0 1-.94-1.02 3.215 3.215 0 0 1-.34-1.49zm4.51.02c0-.38-.08-.71-.24-.99a1.61 1.61 0 0 0-1.43-.86c-.293 0-.566.073-.82.22-.253.14-.46.35-.62.63-.153.273-.23.6-.23.98s.077.713.23 1c.16.287.367.507.62.66a1.643 1.643 0 0 0 1.64 0 1.61 1.61 0 0 0 .61-.64c.16-.287.24-.62.24-1zm3.878-1.82v3.05c0 .207.046.357.14.45.1.087.266.13.5.13h.7v.95h-.9c-.514 0-.907-.12-1.18-.36-.274-.24-.41-.63-.41-1.17v-3.05h-.65v-.93h.65v-1.37h1.15v1.37h1.34v.93zm2.87-1.66a.707.707 0 0 1-.52-.21.706.706 0 0 1-.21-.52c0-.207.07-.38.21-.52.14-.14.314-.21.52-.21.2 0 .37.07.51.21.14.14.21.313.21.52 0 .207-.07.38-.21.52-.14.14-.31.21-.51.21zm.56.73V365h-1.14v-5.51zm6.447 2.62c0 .207-.013.393-.04.56h-4.21c.033.44.197.793.49 1.06s.653.4 1.08.4c.613 0 1.047-.257 1.3-.77h1.23a2.5 2.5 0 0 1-.91 1.25c-.433.32-.973.48-1.62.48-.527 0-1-.117-1.42-.35a2.616 2.616 0 0 1-.98-1c-.233-.433-.35-.933-.35-1.5s.113-1.063.34-1.49a2.46 2.46 0 0 1 .97-1c.42-.233.9-.35 1.44-.35.52 0 .983.113 1.39.34.407.227.723.547.95.96.227.407.34.877.34 1.41zm-1.19-.36c-.007-.42-.157-.757-.45-1.01-.293-.253-.657-.38-1.09-.38-.393 0-.73.127-1.01.38-.28.247-.447.583-.5 1.01zm4.992-2.35c.433 0 .82.09 1.16.27.347.18.617.447.81.8.193.353.29.78.29 1.28V365h-1.13v-3.08c0-.493-.123-.87-.37-1.13-.247-.267-.583-.4-1.01-.4-.427 0-.767.133-1.02.4-.247.26-.37.637-.37 1.13V365h-1.14v-5.51h1.14v.63c.187-.227.423-.403.71-.53.293-.127.603-.19.93-.19zm4.944 1.02v3.05c0 .207.047.357.14.45.1.087.267.13.5.13h.7v.95h-.9c-.513 0-.907-.12-1.18-.36-.273-.24-.41-.63-.41-1.17v-3.05h-.65v-.93h.65v-1.37h1.15v1.37h1.34v.93z" fill="#fff"/><defs><clipPath id="a"><path fill="#fff" transform="translate(897 129)" d="M0 0h10v10H0z"/></clipPath><clipPath id="b"><rect x="759" y="52" width="252" height="252" rx="21.6" fill="#fff"/></clipPath><clipPath id="c"><path fill="#fff" transform="translate(264 348)" d="M0 0h10v10H0z"/></clipPath><clipPath id="d"><path fill="#fff" transform="translate(264 384)" d="M0 0h10v10H0z"/></clipPath><clipPath id="e"><path fill="#fff" transform="translate(264 420)" d="M0 0h10v10H0z"/></clipPath><clipPath id="f"><path fill="#fff" transform="translate(264 456)" d="M0 0h10v10H0z"/></clipPath><clipPath id="g"><path fill="#fff" transform="translate(264 492)" d="M0 0h10v10H0z"/></clipPath><clipPath id="h"><path fill="#fff" transform="translate(264 528)" d="M0 0h10v10H0z"/></clipPath><clipPath id="i"><path fill="#fff" transform="translate(264 564)" d="M0 0h10v10H0z"/></clipPath><clipPath id="j"><path fill="#fff" transform="translate(273 253)" d="M0 0h24v24H0z"/></clipPath></defs></svg>