<svg width="768" height="768" fill="none" xmlns="http://www.w3.org/2000/svg"><rect style="fill:#f1f3f5;fill-opacity:1;stroke-width:1.05397" width="768" height="768" rx="64" ry="64"/><rect x="178" y="178" width="138" height="138" rx="11" stroke="#9ea9fd" stroke-width="2"/><rect x="157" y="443" width="138" height="138" rx="11" stroke="#9ea9fd" stroke-width="2"/><rect x="528" y="507" width="138" height="138" rx="11" stroke="#9ea9fd" stroke-width="2"/><rect x="529" y="123" width="138" height="138" rx="11" stroke="#9ea9fd" stroke-width="2"/><rect x="276" y="282" width="200" height="200" rx="12" fill="#fff"/><path d="M408.203 350.941c-3.705-1.102-16.234-2.347-27.754 6.263-1.161-5.883-3.538-11.147-7.052-15.618h19.589c7.052 0 12.776-5.795 12.776-12.922V319h-16.624c-9.055 0-16.401 7.436-16.401 16.593v5.169c-3.792-4.551-8.801-8.245-14.922-10.877l-3.459 7.975c11.003 4.741 15.781 12.502 17.451 20.366-11.305-9.759-24.916-8.609-29.344-7.356-15.67 4.439-24.463 19.058-24.463 34.58 0 25.686 19.255 47.591 41.659 56.509 10.049 3.996 21.418 4.083 31.475.088 22.666-8.991 41.945-31.608 41.866-56.264-.056-16.505-7.839-29.8-24.789-34.842zm-9.286 45.791a4.896 4.896 0 0 1-4.905 4.891h-12.037v12.003a4.896 4.896 0 0 1-4.905 4.891h-3.267a4.896 4.896 0 0 1-4.906-4.891v-12.003h-12.036a4.896 4.896 0 0 1-4.906-4.891v-3.259a4.896 4.896 0 0 1 4.906-4.891h12.036v-12.003a4.896 4.896 0 0 1 4.906-4.891h3.267a4.896 4.896 0 0 1 4.905 4.891v12.003h12.037a4.896 4.896 0 0 1 4.905 4.891z" fill="#560153" style="fill:#9c36b5;fill-opacity:1"/><g clip-path="url(#a)" transform="translate(-408 66)"><rect x="900" y="415" width="140" height="140" rx="12" fill="#fff"/><rect x="912" y="427" width="116" height="116" rx="6" fill="#d9ddff"/><g clip-path="url(#b)"><path d="M972.087 466.25a2.083 2.083 0 0 1 2.083 2.083v9.448l8.184-4.723a2.082 2.082 0 0 1 2.845.763l2.084 3.608a2.085 2.085 0 0 1-.763 2.846L978.339 485l8.181 4.727a2.08 2.08 0 0 1 .763 2.846l-2.084 3.608a2.08 2.08 0 0 1-2.845.763l-8.184-4.727v9.45a2.083 2.083 0 0 1-2.083 2.083h-4.167a2.083 2.083 0 0 1-2.083-2.083v-9.45l-8.183 4.725a2.086 2.086 0 0 1-2.846-.763l-2.084-3.608a2.085 2.085 0 0 1 .763-2.846l8.181-4.725-8.181-4.725a2.08 2.08 0 0 1-.763-2.846l2.084-3.608a2.08 2.08 0 0 1 2.846-.763l8.183 4.723v-9.448a2.083 2.083 0 0 1 2.083-2.083z" fill="#9ea9fd" stroke="#000" stroke-width="3" stroke-linecap="round" stroke-linejoin="round"/></g></g><rect x="492.78" y="481.78" width="138.44" height="138.44" rx="11.22" stroke="#9ea9fd" stroke-width="1.56"/><g clip-path="url(#c)" transform="translate(-244 52)"><rect x="706" y="32" width="140" height="140" rx="12" fill="#fff"/><rect x="718" y="44" width="116" height="116" rx="6" fill="#f3d9fa"/><g clip-path="url(#d)"><path d="M759.333 91.583h6.25a2.081 2.081 0 0 0 2.084-2.083v-2.083a4.168 4.168 0 0 1 7.113-2.947 4.168 4.168 0 0 1 1.22 2.947V89.5a2.082 2.082 0 0 0 2.083 2.083h6.25a2.081 2.081 0 0 1 2.084 2.084v6.25A2.083 2.083 0 0 0 788.5 102h2.083a4.17 4.17 0 0 1 2.947 1.22 4.17 4.17 0 0 1 0 5.893 4.17 4.17 0 0 1-2.947 1.22H788.5a2.082 2.082 0 0 0-2.083 2.084v6.25a2.084 2.084 0 0 1-2.084 2.083h-6.25a2.083 2.083 0 0 1-2.083-2.083v-2.084a4.167 4.167 0 1 0-8.333 0v2.084a2.084 2.084 0 0 1-2.084 2.083h-6.25a2.083 2.083 0 0 1-2.083-2.083v-6.25a2.084 2.084 0 0 1 2.083-2.084h2.084a4.167 4.167 0 1 0 0-8.333h-2.084a2.083 2.083 0 0 1-2.083-2.083v-6.25a2.082 2.082 0 0 1 2.083-2.084z" fill="#da77f2" stroke="#000" stroke-width="3" stroke-linecap="round" stroke-linejoin="round"/></g></g><rect x="462.78" y="84.78" width="138.44" height="138.44" rx="11.22" stroke="#da77f2" stroke-width="1.56"/><g clip-path="url(#e)" transform="translate(-22 82)"><rect x="277" y="463" width="140" height="140" rx="12" fill="#fff"/><rect x="289" y="475" width="116" height="116" rx="6" fill="#f3d9fa"/><g clip-path="url(#f)"><path fill="#da77f2" d="M339 520h16v27h-16z"/><path d="M334.5 518.417a4.17 4.17 0 0 1 1.22-2.947 4.17 4.17 0 0 1 2.947-1.22h16.666a4.17 4.17 0 0 1 2.947 1.22 4.17 4.17 0 0 1 1.22 2.947v29.166a4.17 4.17 0 0 1-1.22 2.947 4.17 4.17 0 0 1-2.947 1.22h-16.666a4.17 4.17 0 0 1-2.947-1.22 4.17 4.17 0 0 1-1.22-2.947zm10.414-2.083h4.167" stroke="#000" stroke-width="3" stroke-linecap="round" stroke-linejoin="round"/><path d="M347 543.416v.022" stroke="#000" stroke-width="4.167" stroke-linecap="round" stroke-linejoin="round"/></g></g><rect x="255.78" y="545.78" width="138.44" height="138.44" rx="11.22" stroke="#da77f2" stroke-width="1.56"/><g clip-path="url(#g)" transform="translate(-22 82)"><rect x="77" y="260" width="140" height="140" rx="12" fill="#fff"/><rect x="89" y="272" width="116" height="116" rx="6" fill="#fff9db"/><g clip-path="url(#h)" stroke="#000" stroke-width="3" stroke-linecap="round" stroke-linejoin="round"><path d="M128.25 315.417a4.17 4.17 0 0 1 1.22-2.947 4.17 4.17 0 0 1 2.947-1.22h29.166a4.17 4.17 0 0 1 2.947 1.22 4.17 4.17 0 0 1 1.22 2.947v29.166a4.17 4.17 0 0 1-1.22 2.947 4.17 4.17 0 0 1-2.947 1.22h-29.166a4.17 4.17 0 0 1-2.947-1.22 4.17 4.17 0 0 1-1.22-2.947z" fill="#ffd43b"/><path d="M142.836 338.333v-16.667m8.328 16.667v-16.667M142.836 330h8.333"/></g></g><rect x="55.78" y="342.78" width="138.44" height="138.44" rx="11.22" stroke="#ffd43b" stroke-width="1.56"/><g clip-path="url(#i)" transform="translate(-162 52)"><rect x="273" y="57" width="140" height="140" rx="12" fill="#fff"/><rect x="285" y="69" width="116" height="116" rx="6" fill="#dbe4ff"/><g clip-path="url(#j)"><path fill="#91a7ff" d="M326 132h33v11h-33z"/><path d="M326.336 114.501a4.17 4.17 0 0 1 1.22-2.947 4.17 4.17 0 0 1 2.947-1.22h25a4.168 4.168 0 0 1 4.166 4.167v25a4.167 4.167 0 0 1-4.166 4.166h-25a4.167 4.167 0 0 1-4.167-4.166z" stroke="#000" stroke-width="3" stroke-linecap="round" stroke-linejoin="round"/><path d="M326.336 120.751h12.5l2.083-4.167 4.167 8.333 2.083-4.166h12.5m-33.333 10.415h33.333" stroke="#000" stroke-width="3" stroke-linecap="round" stroke-linejoin="round"/><path d="M347.164 137.416v.021m6.25-.021v.021" stroke="#000" stroke-width="4.167" stroke-linecap="round" stroke-linejoin="round"/></g></g><rect x="111.78" y="109.78" width="138.44" height="138.44" rx="11.22" stroke="#91a7ff" stroke-width="1.56"/><g clip-path="url(#k)" transform="translate(-398 112)"><rect x="995" y="165" width="140" height="140" rx="12" fill="#fff"/><rect x="1007" y="177" width="116" height="116" rx="6" fill="#fff9db"/><g clip-path="url(#l)" stroke="#000" stroke-width="3" stroke-linecap="round" stroke-linejoin="round"><path d="M1050.41 253.75h29.17m-27.08-6.25h4.17m-2.08 0v6.25"/><path d="m1058.75 232.916 6.25 6.25 12.5-12.5-6.25-6.25z" fill="#ffd43b"/><path d="m1061.87 236.041-3.12 3.125m16.66-22.916 6.25 6.25M1065 253.75c2.6.001 5.13-.809 7.25-2.315a12.508 12.508 0 0 0 4.75-13.696 12.505 12.505 0 0 0-4.26-6.305"/></g></g><rect x="597.78" y="277.78" width="138.44" height="138.44" rx="11.22" stroke="#ffd43b" stroke-width="1.56"/><path d="M478.864 442.362h51.969c1.877 0 3.403-3.565 3.42-7.988l.307-79.748c.017-4.423 1.543-7.988 3.42-7.988h55.453M482.777 549.036H408.63c-1.22 0-2.21-4.619-2.21-10.316v-51.163M386.25 276.82V158.372c0-4.398 3.197-7.963 7.14-7.963h67.818" stroke="#748ffc" stroke-width="3" stroke-linecap="round" stroke-dasharray="0.25, 6"/><defs><clipPath id="a"><rect x="900" y="415" width="140" height="140" rx="12" fill="#fff"/></clipPath><clipPath id="b"><path fill="#fff" transform="translate(945 460)" d="M0 0h50v50H0z"/></clipPath><clipPath id="c"><rect x="706" y="32" width="140" height="140" rx="12" fill="#fff"/></clipPath><clipPath id="d"><path fill="#fff" transform="translate(751 77)" d="M0 0h50v50H0z"/></clipPath><clipPath id="e"><rect x="277" y="463" width="140" height="140" rx="12" fill="#fff"/></clipPath><clipPath id="f"><path fill="#fff" transform="translate(322 508)" d="M0 0h50v50H0z"/></clipPath><clipPath id="g"><rect x="77" y="260" width="140" height="140" rx="12" fill="#fff"/></clipPath><clipPath id="h"><path fill="#fff" transform="translate(122 305)" d="M0 0h50v50H0z"/></clipPath><clipPath id="i"><rect x="273" y="57" width="140" height="140" rx="12" fill="#fff"/></clipPath><clipPath id="j"><path fill="#fff" transform="translate(318 102)" d="M0 0h50v50H0z"/></clipPath><clipPath id="k"><rect x="995" y="165" width="140" height="140" rx="12" fill="#fff"/></clipPath><clipPath id="l"><path fill="#fff" transform="translate(1040 210)" d="M0 0h50v50H0z"/></clipPath></defs></svg>