<?xml version="1.0" encoding="UTF-8" standalone="no"?>
<svg
   width="768"
   height="768"
   viewBox="0 0 768 768"
   fill="none"
   version="1.1"
   id="svg56"
   sodipodi:docname="hero/hero-interop-and-data-plataform-square.svg"
   inkscape:version="1.4 (86a8ad7, 2024-10-11)"
   xmlns:inkscape="http://www.inkscape.org/namespaces/inkscape"
   xmlns:sodipodi="http://sodipodi.sourceforge.net/DTD/sodipodi-0.dtd"
   xmlns="http://www.w3.org/2000/svg"
   xmlns:svg="http://www.w3.org/2000/svg">
  <sodipodi:namedview
     id="namedview56"
     pagecolor="#ffffff"
     bordercolor="#000000"
     borderopacity="0.25"
     inkscape:showpageshadow="2"
     inkscape:pageopacity="0.0"
     inkscape:pagecheckerboard="0"
     inkscape:deskcolor="#d1d1d1"
     inkscape:zoom="0.97227183"
     inkscape:cx="715.33493"
     inkscape:cy="354.32478"
     inkscape:window-width="3840"
     inkscape:window-height="2054"
     inkscape:window-x="-11"
     inkscape:window-y="-11"
     inkscape:window-maximized="1"
     inkscape:current-layer="svg56" />
  <rect
     style="fill:#f1f3f5;fill-opacity:1;stroke-width:1.05397"
     id="rect57"
     width="768"
     height="768"
     x="0"
     y="0"
     rx="64"
     ry="64" />
  <rect
     width="1240"
     height="660"
     rx="20"
     fill="#f2f2f2"
     id="rect1"
     x="0"
     y="0"
     style="display:none" />
  <rect
     x="178"
     y="178"
     width="138"
     height="138"
     rx="11"
     stroke="#9ea9fd"
     stroke-width="2"
     id="rect2" />
  <rect
     x="157"
     y="443"
     width="138"
     height="138"
     rx="11"
     stroke="#9ea9fd"
     stroke-width="2"
     id="rect3" />
  <rect
     x="528"
     y="507"
     width="138"
     height="138"
     rx="11"
     stroke="#9ea9fd"
     stroke-width="2"
     id="rect4" />
  <rect
     x="529"
     y="123"
     width="138"
     height="138"
     rx="11"
     stroke="#9ea9fd"
     stroke-width="2"
     id="rect5" />
  <rect
     x="276"
     y="282"
     width="200"
     height="200"
     rx="12"
     fill="#ffffff"
     id="rect6" />
  <path
     d="m 408.203,350.941 c -3.705,-1.102 -16.234,-2.347 -27.754,6.263 -1.161,-5.883 -3.538,-11.147 -7.052,-15.618 h 19.589 c 7.052,0 12.776,-5.795 12.776,-12.922 V 319 h -16.624 c -9.055,0 -16.401,7.436 -16.401,16.593 v 5.169 c -3.792,-4.551 -8.801,-8.245 -14.922,-10.877 l -3.459,7.975 c 11.003,4.741 15.781,12.502 17.451,20.366 -11.305,-9.759 -24.916,-8.609 -29.344,-7.356 -15.67,4.439 -24.463,19.058 -24.463,34.58 0,25.686 19.255,47.591 41.659,56.509 10.049,3.996 21.418,4.083 31.475,0.088 22.666,-8.991 41.945,-31.608 41.866,-56.264 -0.056,-16.505 -7.839,-29.8 -24.789,-34.842 z m -9.286,45.791 c 0,2.703 -2.194,4.891 -4.905,4.891 h -12.037 v 12.003 c 0,2.703 -2.194,4.891 -4.905,4.891 h -3.267 c -2.712,0 -4.906,-2.188 -4.906,-4.891 v -12.003 h -12.036 c -2.711,0 -4.906,-2.188 -4.906,-4.891 v -3.259 c 0,-2.703 2.195,-4.891 4.906,-4.891 h 12.036 v -12.003 c 0,-2.703 2.194,-4.891 4.906,-4.891 h 3.267 c 2.711,0 4.905,2.188 4.905,4.891 v 12.003 h 12.037 c 2.711,0 4.905,2.188 4.905,4.891 z"
     fill="#560153"
     id="path6"
     style="fill:#9c36b5;fill-opacity:1" />
  <g
     clip-path="url(#clip0_670_8903)"
     id="g9"
     transform="translate(-408,66)">
    <rect
       x="900"
       y="415"
       width="140"
       height="140"
       rx="12"
       fill="#ffffff"
       id="rect7" />
    <rect
       x="912"
       y="427"
       width="116"
       height="116"
       rx="6"
       fill="#d9ddff"
       id="rect8" />
    <g
       clip-path="url(#clip1_670_8903)"
       id="g8">
      <path
         d="m 972.087,466.25 c 0.552,0 1.082,0.219 1.473,0.61 0.391,0.391 0.61,0.921 0.61,1.473 v 9.448 l 8.184,-4.723 c 0.478,-0.276 1.047,-0.351 1.58,-0.208 0.534,0.143 0.989,0.492 1.265,0.971 l 2.084,3.608 c 0.276,0.479 0.351,1.047 0.208,1.581 -0.143,0.534 -0.492,0.989 -0.971,1.265 l -8.181,4.725 8.181,4.727 c 0.479,0.276 0.828,0.731 0.971,1.265 0.143,0.534 0.068,1.102 -0.208,1.581 l -2.084,3.608 c -0.276,0.479 -0.731,0.828 -1.265,0.971 -0.533,0.143 -1.102,0.068 -1.58,-0.208 l -8.184,-4.727 v 9.45 c 0,0.552 -0.219,1.082 -0.61,1.473 -0.391,0.391 -0.921,0.61 -1.473,0.61 h -4.167 c -0.552,0 -1.082,-0.219 -1.473,-0.61 -0.391,-0.391 -0.61,-0.921 -0.61,-1.473 v -9.45 l -8.183,4.725 c -0.479,0.276 -1.048,0.351 -1.581,0.208 -0.534,-0.143 -0.989,-0.492 -1.265,-0.971 l -2.084,-3.608 c -0.276,-0.479 -0.351,-1.047 -0.208,-1.581 0.143,-0.534 0.492,-0.989 0.971,-1.265 l 8.181,-4.725 -8.181,-4.725 c -0.479,-0.276 -0.828,-0.731 -0.971,-1.265 -0.143,-0.534 -0.068,-1.102 0.208,-1.581 l 2.084,-3.608 c 0.276,-0.479 0.731,-0.828 1.265,-0.971 0.533,-0.143 1.102,-0.068 1.581,0.208 l 8.183,4.723 v -9.448 c 0,-0.552 0.219,-1.082 0.61,-1.473 0.391,-0.391 0.921,-0.61 1.473,-0.61 z"
         fill="#9ea9fd"
         stroke="#000000"
         stroke-width="3"
         stroke-linecap="round"
         stroke-linejoin="round"
         id="path8" />
    </g>
  </g>
  <rect
     x="492.78003"
     y="481.78"
     width="138.44"
     height="138.44"
     rx="11.2199"
     stroke="#9ea9fd"
     stroke-width="1.56016"
     id="rect9" />
  <g
     clip-path="url(#clip2_670_8903)"
     id="g12"
     transform="translate(-244,52)">
    <rect
       x="706"
       y="32"
       width="140"
       height="140"
       rx="12"
       fill="#ffffff"
       id="rect10" />
    <rect
       x="718"
       y="44"
       width="116"
       height="116"
       rx="6"
       fill="#f3d9fa"
       id="rect11" />
    <g
       clip-path="url(#clip3_670_8903)"
       id="g11">
      <path
         d="m 759.333,91.5833 h 6.25 c 0.553,0 1.083,-0.2195 1.473,-0.6102 0.391,-0.3907 0.611,-0.9206 0.611,-1.4731 v -2.0833 c 0,-1.1051 0.439,-2.1649 1.22,-2.9463 0.781,-0.7814 1.841,-1.2204 2.946,-1.2204 1.105,0 2.165,0.439 2.947,1.2204 0.781,0.7814 1.22,1.8412 1.22,2.9463 V 89.5 c 0,0.5525 0.219,1.0824 0.61,1.4731 0.391,0.3907 0.921,0.6102 1.473,0.6102 h 6.25 c 0.553,0 1.083,0.2195 1.473,0.6102 0.391,0.3907 0.611,0.9206 0.611,1.4732 v 6.25 c 0,0.5523 0.219,1.0823 0.61,1.4733 0.391,0.391 0.92,0.61 1.473,0.61 h 2.083 c 1.105,0 2.165,0.439 2.947,1.22 0.781,0.782 1.22,1.842 1.22,2.947 0,1.105 -0.439,2.165 -1.22,2.946 -0.782,0.781 -1.842,1.22 -2.947,1.22 H 788.5 c -0.553,0 -1.082,0.22 -1.473,0.611 -0.391,0.39 -0.61,0.92 -0.61,1.473 v 6.25 c 0,0.552 -0.22,1.082 -0.611,1.473 -0.39,0.391 -0.92,0.61 -1.473,0.61 h -6.25 c -0.552,0 -1.082,-0.219 -1.473,-0.61 -0.391,-0.391 -0.61,-0.921 -0.61,-1.473 v -2.084 c 0,-1.105 -0.439,-2.165 -1.22,-2.946 -0.782,-0.781 -1.842,-1.22 -2.947,-1.22 -1.105,0 -2.165,0.439 -2.946,1.22 -0.781,0.781 -1.22,1.841 -1.22,2.946 v 2.084 c 0,0.552 -0.22,1.082 -0.611,1.473 -0.39,0.391 -0.92,0.61 -1.473,0.61 h -6.25 c -0.552,0 -1.082,-0.219 -1.473,-0.61 -0.391,-0.391 -0.61,-0.921 -0.61,-1.473 v -6.25 c 0,-0.553 0.219,-1.083 0.61,-1.473 0.391,-0.391 0.921,-0.611 1.473,-0.611 h 2.084 c 1.105,0 2.165,-0.439 2.946,-1.22 0.781,-0.781 1.22,-1.841 1.22,-2.946 0,-1.105 -0.439,-2.165 -1.22,-2.947 -0.781,-0.781 -1.841,-1.22 -2.946,-1.22 h -2.084 c -0.552,0 -1.082,-0.219 -1.473,-0.61 -0.391,-0.391 -0.61,-0.921 -0.61,-1.4733 v -6.25 c 0,-0.5526 0.219,-1.0825 0.61,-1.4732 0.391,-0.3907 0.921,-0.6102 1.473,-0.6102 z"
         fill="#da77f2"
         stroke="#000000"
         stroke-width="3"
         stroke-linecap="round"
         stroke-linejoin="round"
         id="path11" />
    </g>
  </g>
  <rect
     x="462.78003"
     y="84.780106"
     width="138.44"
     height="138.44"
     rx="11.2199"
     stroke="#da77f2"
     stroke-width="1.56016"
     id="rect12" />
  <g
     clip-path="url(#clip4_670_8903)"
     id="g18"
     transform="translate(-22,82)">
    <rect
       x="277"
       y="463"
       width="140"
       height="140"
       rx="12"
       fill="#ffffff"
       id="rect13" />
    <rect
       x="289"
       y="475"
       width="116"
       height="116"
       rx="6"
       fill="#f3d9fa"
       id="rect14" />
    <g
       clip-path="url(#clip5_670_8903)"
       id="g17">
      <rect
         x="339"
         y="520"
         width="16"
         height="27"
         fill="#da77f2"
         id="rect15" />
      <path
         d="m 334.5,518.417 c 0,-1.105 0.439,-2.165 1.22,-2.947 0.782,-0.781 1.842,-1.22 2.947,-1.22 h 16.666 c 1.105,0 2.165,0.439 2.947,1.22 0.781,0.782 1.22,1.842 1.22,2.947 v 29.166 c 0,1.105 -0.439,2.165 -1.22,2.947 -0.782,0.781 -1.842,1.22 -2.947,1.22 h -16.666 c -1.105,0 -2.165,-0.439 -2.947,-1.22 -0.781,-0.782 -1.22,-1.842 -1.22,-2.947 z"
         stroke="#000000"
         stroke-width="3"
         stroke-linecap="round"
         stroke-linejoin="round"
         id="path15" />
      <path
         d="m 344.914,516.334 h 4.167"
         stroke="#000000"
         stroke-width="3"
         stroke-linecap="round"
         stroke-linejoin="round"
         id="path16" />
      <path
         d="m 347,543.416 v 0.022"
         stroke="#000000"
         stroke-width="4.16667"
         stroke-linecap="round"
         stroke-linejoin="round"
         id="path17" />
    </g>
  </g>
  <rect
     x="255.78"
     y="545.78003"
     width="138.44"
     height="138.44"
     rx="11.2199"
     stroke="#da77f2"
     stroke-width="1.56016"
     id="rect18" />
  <g
     clip-path="url(#clip6_670_8903)"
     id="g24"
     transform="translate(-22,82)">
    <rect
       x="77"
       y="260"
       width="140"
       height="140"
       rx="12"
       fill="#ffffff"
       id="rect19" />
    <rect
       x="89"
       y="272"
       width="116"
       height="116"
       rx="6"
       fill="#fff9db"
       id="rect20" />
    <g
       clip-path="url(#clip7_670_8903)"
       id="g23">
      <path
         d="m 128.25,315.417 c 0,-1.105 0.439,-2.165 1.22,-2.947 0.782,-0.781 1.842,-1.22 2.947,-1.22 h 29.166 c 1.105,0 2.165,0.439 2.947,1.22 0.781,0.782 1.22,1.842 1.22,2.947 v 29.166 c 0,1.105 -0.439,2.165 -1.22,2.947 -0.782,0.781 -1.842,1.22 -2.947,1.22 h -29.166 c -1.105,0 -2.165,-0.439 -2.947,-1.22 -0.781,-0.782 -1.22,-1.842 -1.22,-2.947 z"
         fill="#ffd43b"
         stroke="#000000"
         stroke-width="3"
         stroke-linecap="round"
         stroke-linejoin="round"
         id="path20" />
      <path
         d="M 142.836,338.333 V 321.666"
         stroke="#000000"
         stroke-width="3"
         stroke-linecap="round"
         stroke-linejoin="round"
         id="path21" />
      <path
         d="M 151.164,338.333 V 321.666"
         stroke="#000000"
         stroke-width="3"
         stroke-linecap="round"
         stroke-linejoin="round"
         id="path22" />
      <path
         d="m 142.836,330 h 8.333"
         stroke="#000000"
         stroke-width="3"
         stroke-linecap="round"
         stroke-linejoin="round"
         id="path23" />
    </g>
  </g>
  <rect
     x="55.78009"
     y="342.78"
     width="138.44"
     height="138.44"
     rx="11.2199"
     stroke="#ffd43b"
     stroke-width="1.56016"
     id="rect24" />
  <g
     clip-path="url(#clip8_670_8903)"
     id="g32"
     transform="translate(-162,52)">
    <rect
       x="273"
       y="57"
       width="140"
       height="140"
       rx="12"
       fill="#ffffff"
       id="rect25" />
    <rect
       x="285"
       y="69"
       width="116"
       height="116"
       rx="6"
       fill="#dbe4ff"
       id="rect26" />
    <g
       clip-path="url(#clip9_670_8903)"
       id="g31">
      <rect
         x="326"
         y="132"
         width="33"
         height="11"
         fill="#91a7ff"
         id="rect27" />
      <path
         d="m 326.336,114.501 c 0,-1.105 0.439,-2.165 1.22,-2.947 0.782,-0.781 1.842,-1.22 2.947,-1.22 h 25 c 1.105,0 2.164,0.439 2.946,1.22 0.781,0.782 1.22,1.842 1.22,2.947 v 25 c 0,1.105 -0.439,2.165 -1.22,2.946 -0.782,0.781 -1.841,1.22 -2.946,1.22 h -25 c -1.105,0 -2.165,-0.439 -2.947,-1.22 -0.781,-0.781 -1.22,-1.841 -1.22,-2.946 z"
         stroke="#000000"
         stroke-width="3"
         stroke-linecap="round"
         stroke-linejoin="round"
         id="path27" />
      <path
         d="m 326.336,120.751 h 12.5 l 2.083,-4.167 4.167,8.333 2.083,-4.166 h 12.5"
         stroke="#000000"
         stroke-width="3"
         stroke-linecap="round"
         stroke-linejoin="round"
         id="path28" />
      <path
         d="m 326.336,131.166 h 33.333"
         stroke="#000000"
         stroke-width="3"
         stroke-linecap="round"
         stroke-linejoin="round"
         id="path29" />
      <path
         d="m 347.164,137.416 v 0.021"
         stroke="#000000"
         stroke-width="4.16667"
         stroke-linecap="round"
         stroke-linejoin="round"
         id="path30" />
      <path
         d="m 353.414,137.416 v 0.021"
         stroke="#000000"
         stroke-width="4.16667"
         stroke-linecap="round"
         stroke-linejoin="round"
         id="path31" />
    </g>
  </g>
  <rect
     x="111.78"
     y="109.78011"
     width="138.44"
     height="138.44"
     rx="11.2199"
     stroke="#91a7ff"
     stroke-width="1.56016"
     id="rect32" />
  <g
     clip-path="url(#clip10_670_8903)"
     id="g41"
     transform="translate(-398,112)">
    <rect
       x="995"
       y="165"
       width="140"
       height="140"
       rx="12"
       fill="#ffffff"
       id="rect33" />
    <rect
       x="1007"
       y="177"
       width="116"
       height="116"
       rx="6"
       fill="#fff9db"
       id="rect34" />
    <g
       clip-path="url(#clip11_670_8903)"
       id="g40">
      <path
         d="m 1050.41,253.75 h 29.17"
         stroke="#000000"
         stroke-width="3"
         stroke-linecap="round"
         stroke-linejoin="round"
         id="path34" />
      <path
         d="m 1052.5,247.5 h 4.17"
         stroke="#000000"
         stroke-width="3"
         stroke-linecap="round"
         stroke-linejoin="round"
         id="path35" />
      <path
         d="m 1054.59,247.5 v 6.25"
         stroke="#000000"
         stroke-width="3"
         stroke-linecap="round"
         stroke-linejoin="round"
         id="path36" />
      <path
         d="m 1058.75,232.916 6.25,6.25 12.5,-12.5 -6.25,-6.25 z"
         fill="#ffd43b"
         stroke="#000000"
         stroke-width="3"
         stroke-linecap="round"
         stroke-linejoin="round"
         id="path37" />
      <path
         d="m 1061.87,236.041 -3.12,3.125"
         stroke="#000000"
         stroke-width="3"
         stroke-linecap="round"
         stroke-linejoin="round"
         id="path38" />
      <path
         d="m 1075.41,216.25 6.25,6.25"
         stroke="#000000"
         stroke-width="3"
         stroke-linecap="round"
         stroke-linejoin="round"
         id="path39" />
      <path
         d="m 1065,253.75 c 2.6,0.001 5.13,-0.809 7.25,-2.315 2.11,-1.506 3.71,-3.634 4.56,-6.089 0.85,-2.455 0.92,-5.113 0.19,-7.607 -0.73,-2.493 -2.22,-4.697 -4.26,-6.305"
         stroke="#000000"
         stroke-width="3"
         stroke-linecap="round"
         stroke-linejoin="round"
         id="path40" />
    </g>
  </g>
  <rect
     x="597.78003"
     y="277.78"
     width="138.44"
     height="138.44"
     rx="11.2199"
     stroke="#ffd43b"
     stroke-width="1.56016"
     id="rect41" />
  <path
     d="M 478.86429,442.36154 H 530.833 c 1.8767,0 3.40285,-3.56493 3.41995,-7.98734 l 0.30694,-79.7484 c 0.0172,-4.42241 1.54326,-7.98734 3.41995,-7.98734 h 55.45278"
     stroke="#748ffc"
     stroke-width="3"
     stroke-linecap="round"
     stroke-dasharray="0.25, 6"
     id="path42" />
  <path
     d="m 482.77749,549.03567 -74.14841,10e-4 c -1.22007,0 -2.20926,-4.61922 -2.20926,-10.3165 v -51.16341"
     stroke="#748ffc"
     stroke-width="3"
     stroke-linecap="round"
     stroke-dasharray="0.25, 6"
     id="path43" />
  <path
     d="M 386.25067,276.81998 V 158.37155 c 0,-4.39752 3.1964,-7.96292 7.1388,-7.96292 h 67.81856"
     stroke="#748ffc"
     stroke-width="3"
     stroke-linecap="round"
     stroke-dasharray="0.25, 6"
     id="path44" />
  <defs
     id="defs56">
    <clipPath
       id="clip0_670_8903">
      <rect
         x="900"
         y="415"
         width="140"
         height="140"
         rx="12"
         fill="#ffffff"
         id="rect45" />
    </clipPath>
    <clipPath
       id="clip1_670_8903">
      <rect
         width="50"
         height="50"
         fill="#ffffff"
         transform="translate(945,460)"
         id="rect46"
         x="0"
         y="0" />
    </clipPath>
    <clipPath
       id="clip2_670_8903">
      <rect
         x="706"
         y="32"
         width="140"
         height="140"
         rx="12"
         fill="#ffffff"
         id="rect47" />
    </clipPath>
    <clipPath
       id="clip3_670_8903">
      <rect
         width="50"
         height="50"
         fill="#ffffff"
         transform="translate(751,77)"
         id="rect48"
         x="0"
         y="0" />
    </clipPath>
    <clipPath
       id="clip4_670_8903">
      <rect
         x="277"
         y="463"
         width="140"
         height="140"
         rx="12"
         fill="#ffffff"
         id="rect49" />
    </clipPath>
    <clipPath
       id="clip5_670_8903">
      <rect
         width="50"
         height="50"
         fill="#ffffff"
         transform="translate(322,508)"
         id="rect50"
         x="0"
         y="0" />
    </clipPath>
    <clipPath
       id="clip6_670_8903">
      <rect
         x="77"
         y="260"
         width="140"
         height="140"
         rx="12"
         fill="#ffffff"
         id="rect51" />
    </clipPath>
    <clipPath
       id="clip7_670_8903">
      <rect
         width="50"
         height="50"
         fill="#ffffff"
         transform="translate(122,305)"
         id="rect52"
         x="0"
         y="0" />
    </clipPath>
    <clipPath
       id="clip8_670_8903">
      <rect
         x="273"
         y="57"
         width="140"
         height="140"
         rx="12"
         fill="#ffffff"
         id="rect53" />
    </clipPath>
    <clipPath
       id="clip9_670_8903">
      <rect
         width="50"
         height="50"
         fill="#ffffff"
         transform="translate(318,102)"
         id="rect54"
         x="0"
         y="0" />
    </clipPath>
    <clipPath
       id="clip10_670_8903">
      <rect
         x="995"
         y="165"
         width="140"
         height="140"
         rx="12"
         fill="#ffffff"
         id="rect55" />
    </clipPath>
    <clipPath
       id="clip11_670_8903">
      <rect
         width="50"
         height="50"
         fill="#ffffff"
         transform="translate(1040,210)"
         id="rect56"
         x="0"
         y="0" />
    </clipPath>
  </defs>
</svg>
