<?xml version="1.0" encoding="UTF-8" standalone="no"?>
<svg
   width="604"
   height="604"
   viewBox="0 0 604 604"
   fill="none"
   version="1.1"
   id="svg57"
   sodipodi:docname="hero-patient-allergies.svg"
   inkscape:version="1.4 (86a8ad7, 2024-10-11)"
   xmlns:inkscape="http://www.inkscape.org/namespaces/inkscape"
   xmlns:sodipodi="http://sodipodi.sourceforge.net/DTD/sodipodi-0.dtd"
   xmlns="http://www.w3.org/2000/svg"
   xmlns:svg="http://www.w3.org/2000/svg">
  <sodipodi:namedview
     id="namedview57"
     pagecolor="#ffffff"
     bordercolor="#000000"
     borderopacity="0.25"
     inkscape:showpageshadow="2"
     inkscape:pageopacity="0.0"
     inkscape:pagecheckerboard="0"
     inkscape:deskcolor="#d1d1d1"
     inkscape:zoom="1.2805556"
     inkscape:cx="802.38612"
     inkscape:cy="403.34056"
     inkscape:window-width="3840"
     inkscape:window-height="2054"
     inkscape:window-x="-11"
     inkscape:window-y="-11"
     inkscape:window-maximized="1"
     inkscape:current-layer="svg57" />
  <g
     id="g57"
     transform="translate(-736)">
    <rect
       x="736"
       width="604"
       height="604"
       rx="20"
       fill="#ffbe67"
       id="rect10"
       y="0" />
    <rect
       x="827"
       y="59"
       width="282"
       height="487"
       rx="21"
       fill="#ffffff"
       id="rect11" />
    <rect
       x="827"
       y="59"
       width="282"
       height="487"
       rx="21"
       stroke="#c67dff"
       stroke-width="2"
       id="rect12" />
    <rect
       x="930"
       y="90"
       width="76"
       height="76"
       rx="38"
       fill="#721f6f"
       id="rect13" />
    <path
       d="m 953.589,120.484 v 6.364 h 6.937 v 2.049 h -6.937 v 6.555 h 7.756 v 2.048 h -10.242 v -19.064 h 10.242 v 2.048 z m 30.554,-1.884 v 18.9 h -2.486 v -14.093 l -6.281,14.093 h -1.748 l -6.31,-14.121 V 137.5 h -2.485 v -18.9 h 2.677 l 6.992,15.622 6.992,-15.622 z"
       fill="#eddeff"
       id="path13" />
    <path
       d="m 911.402,186.146 v 3.672 h 4.32 v 1.674 h -4.32 v 3.834 h 4.86 V 197 h -6.912 v -12.528 h 6.912 v 1.674 z m 19.033,0.774 c 0.78,0 1.476,0.162 2.088,0.486 0.624,0.324 1.11,0.804 1.458,1.44 0.36,0.636 0.54,1.404 0.54,2.304 V 197 h -2.034 v -5.544 c 0,-0.888 -0.222,-1.566 -0.666,-2.034 -0.444,-0.48 -1.05,-0.72 -1.818,-0.72 -0.768,0 -1.38,0.24 -1.836,0.72 -0.444,0.468 -0.666,1.146 -0.666,2.034 V 197 h -2.034 v -5.544 c 0,-0.888 -0.222,-1.566 -0.666,-2.034 -0.444,-0.48 -1.05,-0.72 -1.818,-0.72 -0.768,0 -1.38,0.24 -1.836,0.72 -0.444,0.468 -0.666,1.146 -0.666,2.034 V 197 h -2.052 v -9.918 h 2.052 v 1.134 c 0.336,-0.408 0.762,-0.726 1.278,-0.954 0.516,-0.228 1.068,-0.342 1.656,-0.342 0.792,0 1.5,0.168 2.124,0.504 0.624,0.336 1.104,0.822 1.44,1.458 0.3,-0.6 0.768,-1.074 1.404,-1.422 0.636,-0.36 1.32,-0.54 2.052,-0.54 z m 7.382,-1.152 c -0.372,0 -0.684,-0.126 -0.936,-0.378 -0.252,-0.252 -0.378,-0.564 -0.378,-0.936 0,-0.372 0.126,-0.684 0.378,-0.936 0.252,-0.252 0.564,-0.378 0.936,-0.378 0.36,0 0.666,0.126 0.918,0.378 0.252,0.252 0.378,0.564 0.378,0.936 0,0.372 -0.126,0.684 -0.378,0.936 -0.252,0.252 -0.558,0.378 -0.918,0.378 z m 1.008,1.314 V 197 h -2.052 v -9.918 z m 4.386,-3.402 V 197 h -2.052 v -13.32 z m 11.262,3.402 -6.084,14.58 h -2.124 l 2.016,-4.824 -3.906,-9.756 h 2.286 l 2.79,7.56 2.898,-7.56 z m 12.326,-2.592 v 9.018 c 0,1.116 -0.342,1.998 -1.026,2.646 -0.672,0.648 -1.56,0.972 -2.664,0.972 -1.104,0 -1.998,-0.324 -2.682,-0.972 -0.672,-0.648 -1.008,-1.53 -1.008,-2.646 h 2.07 c 0.012,0.552 0.15,0.99 0.414,1.314 0.276,0.324 0.678,0.486 1.206,0.486 0.528,0 0.93,-0.162 1.206,-0.486 0.276,-0.336 0.414,-0.774 0.414,-1.314 v -9.018 z m 7.28,12.672 c -0.936,0 -1.782,-0.21 -2.538,-0.63 -0.756,-0.432 -1.35,-1.032 -1.782,-1.8 -0.432,-0.78 -0.648,-1.68 -0.648,-2.7 0,-1.008 0.222,-1.902 0.666,-2.682 0.444,-0.78 1.05,-1.38 1.818,-1.8 0.768,-0.42 1.626,-0.63 2.574,-0.63 0.948,0 1.806,0.21 2.574,0.63 0.768,0.42 1.374,1.02 1.818,1.8 0.444,0.78 0.666,1.674 0.666,2.682 0,1.008 -0.228,1.902 -0.684,2.682 -0.456,0.78 -1.08,1.386 -1.872,1.818 -0.78,0.42 -1.644,0.63 -2.592,0.63 z m 0,-1.782 c 0.528,0 1.02,-0.126 1.476,-0.378 0.468,-0.252 0.846,-0.63 1.134,-1.134 0.288,-0.504 0.432,-1.116 0.432,-1.836 0,-0.72 -0.138,-1.326 -0.414,-1.818 -0.276,-0.504 -0.642,-0.882 -1.098,-1.134 -0.456,-0.252 -0.948,-0.378 -1.476,-0.378 -0.528,0 -1.02,0.126 -1.476,0.378 -0.444,0.252 -0.798,0.63 -1.062,1.134 -0.264,0.492 -0.396,1.098 -0.396,1.818 0,1.068 0.27,1.896 0.81,2.484 0.552,0.576 1.242,0.864 2.07,0.864 z m 11.947,-8.46 c 0.756,0 1.428,0.162 2.016,0.486 0.6,0.324 1.068,0.804 1.404,1.44 0.348,0.636 0.522,1.404 0.522,2.304 V 197 h -2.034 v -5.544 c 0,-0.888 -0.222,-1.566 -0.666,-2.034 -0.444,-0.48 -1.05,-0.72 -1.818,-0.72 -0.768,0 -1.38,0.24 -1.836,0.72 -0.444,0.468 -0.666,1.146 -0.666,2.034 V 197 h -2.052 v -13.32 h 2.052 v 4.554 c 0.348,-0.42 0.786,-0.744 1.314,-0.972 0.54,-0.228 1.128,-0.342 1.764,-0.342 z m 11.203,0 c 0.78,0 1.476,0.162 2.088,0.486 0.624,0.324 1.113,0.804 1.463,1.44 0.34,0.636 0.52,1.404 0.52,2.304 V 197 h -2.037 v -5.544 c 0,-0.888 -0.222,-1.566 -0.666,-2.034 -0.444,-0.48 -1.05,-0.72 -1.818,-0.72 -0.768,0 -1.38,0.24 -1.836,0.72 -0.444,0.468 -0.666,1.146 -0.666,2.034 V 197 h -2.052 v -9.918 h 2.052 v 1.134 c 0.336,-0.408 0.762,-0.726 1.278,-0.954 0.528,-0.228 1.086,-0.342 1.674,-0.342 z m 9.921,10.242 c -0.78,0 -1.48,-0.138 -2.1,-0.414 -0.61,-0.288 -1.1,-0.672 -1.46,-1.152 -0.36,-0.492 -0.55,-1.038 -0.58,-1.638 h 2.13 c 0.03,0.42 0.23,0.774 0.59,1.062 0.37,0.276 0.84,0.414 1.39,0.414 0.57,0 1.02,-0.108 1.33,-0.324 0.32,-0.228 0.49,-0.516 0.49,-0.864 0,-0.372 -0.18,-0.648 -0.54,-0.828 -0.35,-0.18 -0.91,-0.378 -1.68,-0.594 -0.74,-0.204 -1.35,-0.402 -1.82,-0.594 -0.46,-0.192 -0.87,-0.486 -1.22,-0.882 -0.34,-0.396 -0.5,-0.918 -0.5,-1.566 0,-0.528 0.15,-1.008 0.46,-1.44 0.32,-0.444 0.76,-0.792 1.34,-1.044 0.58,-0.252 1.26,-0.378 2.01,-0.378 1.13,0 2.04,0.288 2.72,0.864 0.7,0.564 1.07,1.338 1.12,2.322 h -2.06 c -0.03,-0.444 -0.21,-0.798 -0.54,-1.062 -0.32,-0.264 -0.76,-0.396 -1.31,-0.396 -0.54,0 -0.95,0.102 -1.24,0.306 -0.29,0.204 -0.43,0.474 -0.43,0.81 0,0.264 0.09,0.486 0.28,0.666 0.2,0.18 0.43,0.324 0.71,0.432 0.27,0.096 0.68,0.222 1.22,0.378 0.72,0.192 1.31,0.39 1.76,0.594 0.47,0.192 0.87,0.48 1.21,0.864 0.34,0.384 0.51,0.894 0.52,1.53 0,0.564 -0.15,1.068 -0.47,1.512 -0.31,0.444 -0.75,0.792 -1.33,1.044 -0.56,0.252 -1.23,0.378 -2,0.378 z m 9.96,0 c -0.93,0 -1.78,-0.21 -2.54,-0.63 -0.75,-0.432 -1.35,-1.032 -1.78,-1.8 -0.43,-0.78 -0.65,-1.68 -0.65,-2.7 0,-1.008 0.23,-1.902 0.67,-2.682 0.44,-0.78 1.05,-1.38 1.82,-1.8 0.77,-0.42 1.62,-0.63 2.57,-0.63 0.95,0 1.81,0.21 2.58,0.63 0.76,0.42 1.37,1.02 1.81,1.8 0.45,0.78 0.67,1.674 0.67,2.682 0,1.008 -0.23,1.902 -0.68,2.682 -0.46,0.78 -1.08,1.386 -1.88,1.818 -0.78,0.42 -1.64,0.63 -2.59,0.63 z m 0,-1.782 c 0.53,0 1.02,-0.126 1.48,-0.378 0.47,-0.252 0.84,-0.63 1.13,-1.134 0.29,-0.504 0.43,-1.116 0.43,-1.836 0,-0.72 -0.13,-1.326 -0.41,-1.818 -0.28,-0.504 -0.64,-0.882 -1.1,-1.134 -0.45,-0.252 -0.95,-0.378 -1.47,-0.378 -0.53,0 -1.02,0.126 -1.48,0.378 -0.44,0.252 -0.8,0.63 -1.06,1.134 -0.27,0.492 -0.4,1.098 -0.4,1.818 0,1.068 0.27,1.896 0.81,2.484 0.55,0.576 1.24,0.864 2.07,0.864 z m 11.82,-8.46 c 0.78,0 1.48,0.162 2.09,0.486 0.62,0.324 1.11,0.804 1.46,1.44 0.35,0.636 0.52,1.404 0.52,2.304 V 197 h -2.03 v -5.544 c 0,-0.888 -0.23,-1.566 -0.67,-2.034 -0.44,-0.48 -1.05,-0.72 -1.82,-0.72 -0.77,0 -1.38,0.24 -1.83,0.72 -0.45,0.468 -0.67,1.146 -0.67,2.034 V 197 h -2.05 v -9.918 h 2.05 v 1.134 c 0.34,-0.408 0.76,-0.726 1.28,-0.954 0.53,-0.228 1.08,-0.342 1.67,-0.342 z"
       fill="#000000"
       id="path14" />
    <rect
       x="849"
       y="238"
       width="238"
       height="71"
       rx="9"
       stroke="#eddeff"
       stroke-width="2"
       id="rect14" />
    <path
       d="m 944.556,294 -2.87,-3.18 V 294 h -0.91 v -6.97 h 0.91 v 3.23 l 2.88,-3.23 h 1.15 l -3.16,3.49 3.19,3.48 z m 7.106,-2.95 c 0,0.173 -0.01,0.357 -0.03,0.55 h -4.38 c 0.034,0.54 0.217,0.963 0.55,1.27 0.34,0.3 0.75,0.45 1.23,0.45 0.394,0 0.72,-0.09 0.98,-0.27 0.267,-0.187 0.454,-0.433 0.56,-0.74 h 0.98 c -0.146,0.527 -0.44,0.957 -0.88,1.29 -0.44,0.327 -0.986,0.49 -1.64,0.49 -0.52,0 -0.986,-0.117 -1.4,-0.35 -0.406,-0.233 -0.726,-0.563 -0.96,-0.99 -0.233,-0.433 -0.35,-0.933 -0.35,-1.5 0,-0.567 0.114,-1.063 0.34,-1.49 0.227,-0.427 0.544,-0.753 0.95,-0.98 0.414,-0.233 0.887,-0.35 1.42,-0.35 0.52,0 0.98,0.113 1.38,0.34 0.4,0.227 0.707,0.54 0.92,0.94 0.22,0.393 0.33,0.84 0.33,1.34 z m -0.94,-0.19 c 0,-0.347 -0.076,-0.643 -0.23,-0.89 -0.153,-0.253 -0.363,-0.443 -0.63,-0.57 -0.26,-0.133 -0.55,-0.2 -0.87,-0.2 -0.46,0 -0.853,0.147 -1.18,0.44 -0.32,0.293 -0.503,0.7 -0.55,1.22 z m 4.081,2.3 1.7,-4.64 h 0.97 l -2.15,5.48 h -1.06 l -2.15,-5.48 h 0.98 z m 3.936,-5.53 c -0.174,0 -0.32,-0.06 -0.44,-0.18 -0.12,-0.12 -0.18,-0.267 -0.18,-0.44 0,-0.173 0.06,-0.32 0.18,-0.44 0.12,-0.12 0.266,-0.18 0.44,-0.18 0.166,0 0.306,0.06 0.42,0.18 0.12,0.12 0.18,0.267 0.18,0.44 0,0.173 -0.06,0.32 -0.18,0.44 -0.114,0.12 -0.254,0.18 -0.42,0.18 z m 0.44,0.89 V 294 h -0.91 v -5.48 z m 4.121,-0.1 c 0.666,0 1.206,0.203 1.62,0.61 0.413,0.4 0.62,0.98 0.62,1.74 V 294 h -0.9 v -3.1 c 0,-0.547 -0.137,-0.963 -0.41,-1.25 -0.274,-0.293 -0.647,-0.44 -1.12,-0.44 -0.48,0 -0.864,0.15 -1.15,0.45 -0.28,0.3 -0.42,0.737 -0.42,1.31 V 294 h -0.91 v -5.48 h 0.91 v 0.78 c 0.18,-0.28 0.423,-0.497 0.73,-0.65 0.313,-0.153 0.656,-0.23 1.03,-0.23 z m 8.402,5.65 c -0.46,0 -0.873,-0.08 -1.24,-0.24 -0.36,-0.167 -0.643,-0.393 -0.85,-0.68 -0.206,-0.293 -0.313,-0.63 -0.32,-1.01 h 0.97 c 0.034,0.327 0.167,0.603 0.4,0.83 0.24,0.22 0.587,0.33 1.04,0.33 0.434,0 0.774,-0.107 1.02,-0.32 0.254,-0.22 0.38,-0.5 0.38,-0.84 0,-0.267 -0.073,-0.483 -0.22,-0.65 -0.146,-0.167 -0.33,-0.293 -0.55,-0.38 -0.22,-0.087 -0.516,-0.18 -0.89,-0.28 -0.46,-0.12 -0.83,-0.24 -1.11,-0.36 -0.273,-0.12 -0.51,-0.307 -0.71,-0.56 -0.193,-0.26 -0.29,-0.607 -0.29,-1.04 0,-0.38 0.097,-0.717 0.29,-1.01 0.194,-0.293 0.464,-0.52 0.81,-0.68 0.354,-0.16 0.757,-0.24 1.21,-0.24 0.654,0 1.187,0.163 1.6,0.49 0.42,0.327 0.657,0.76 0.71,1.3 h -1 c -0.033,-0.267 -0.173,-0.5 -0.42,-0.7 -0.246,-0.207 -0.573,-0.31 -0.98,-0.31 -0.38,0 -0.69,0.1 -0.93,0.3 -0.24,0.193 -0.36,0.467 -0.36,0.82 0,0.253 0.07,0.46 0.21,0.62 0.147,0.16 0.324,0.283 0.53,0.37 0.214,0.08 0.51,0.173 0.89,0.28 0.46,0.127 0.83,0.253 1.11,0.38 0.28,0.12 0.52,0.31 0.72,0.57 0.2,0.253 0.3,0.6 0.3,1.04 0,0.34 -0.09,0.66 -0.27,0.96 -0.18,0.3 -0.446,0.543 -0.8,0.73 -0.353,0.187 -0.77,0.28 -1.25,0.28 z m 10.149,-5.65 c 0.427,0 0.807,0.09 1.14,0.27 0.334,0.173 0.597,0.437 0.79,0.79 0.194,0.353 0.29,0.783 0.29,1.29 V 294 h -0.9 v -3.1 c 0,-0.547 -0.136,-0.963 -0.41,-1.25 -0.266,-0.293 -0.63,-0.44 -1.09,-0.44 -0.473,0 -0.85,0.153 -1.13,0.46 -0.28,0.3 -0.42,0.737 -0.42,1.31 V 294 h -0.9 v -3.1 c 0,-0.547 -0.136,-0.963 -0.41,-1.25 -0.266,-0.293 -0.63,-0.44 -1.09,-0.44 -0.473,0 -0.85,0.153 -1.13,0.46 -0.28,0.3 -0.42,0.737 -0.42,1.31 V 294 h -0.91 v -5.48 h 0.91 v 0.79 c 0.18,-0.287 0.42,-0.507 0.72,-0.66 0.307,-0.153 0.644,-0.23 1.01,-0.23 0.46,0 0.867,0.103 1.22,0.31 0.354,0.207 0.617,0.51 0.79,0.91 0.154,-0.387 0.407,-0.687 0.76,-0.9 0.354,-0.213 0.747,-0.32 1.18,-0.32 z m 4.083,-0.79 c -0.173,0 -0.32,-0.06 -0.44,-0.18 -0.12,-0.12 -0.18,-0.267 -0.18,-0.44 0,-0.173 0.06,-0.32 0.18,-0.44 0.12,-0.12 0.267,-0.18 0.44,-0.18 0.167,0 0.307,0.06 0.42,0.18 0.12,0.12 0.18,0.267 0.18,0.44 0,0.173 -0.06,0.32 -0.18,0.44 -0.113,0.12 -0.253,0.18 -0.42,0.18 z m 0.44,0.89 V 294 h -0.91 v -5.48 z m 2.561,0.75 v 3.23 c 0,0.267 0.057,0.457 0.17,0.57 0.113,0.107 0.31,0.16 0.59,0.16 h 0.67 V 294 h -0.82 c -0.507,0 -0.887,-0.117 -1.14,-0.35 -0.253,-0.233 -0.38,-0.617 -0.38,-1.15 v -3.23 h -0.71 v -0.75 h 0.71 v -1.38 h 0.91 v 1.38 h 1.43 v 0.75 z m 5.153,-0.85 c 0.413,0 0.786,0.09 1.12,0.27 0.333,0.173 0.593,0.437 0.78,0.79 0.193,0.353 0.29,0.783 0.29,1.29 V 294 h -0.9 v -3.1 c 0,-0.547 -0.137,-0.963 -0.41,-1.25 -0.274,-0.293 -0.647,-0.44 -1.12,-0.44 -0.48,0 -0.864,0.15 -1.15,0.45 -0.28,0.3 -0.42,0.737 -0.42,1.31 V 294 h -0.91 v -7.4 h 0.91 v 2.7 c 0.18,-0.28 0.426,-0.497 0.74,-0.65 0.32,-0.153 0.676,-0.23 1.07,-0.23 z"
       fill="#363636"
       id="path15" />
    <path
       d="m 882.219,294.07 c -0.46,0 -0.873,-0.08 -1.24,-0.24 -0.36,-0.167 -0.643,-0.393 -0.85,-0.68 -0.207,-0.293 -0.313,-0.63 -0.32,-1.01 h 0.97 c 0.033,0.327 0.167,0.603 0.4,0.83 0.24,0.22 0.587,0.33 1.04,0.33 0.433,0 0.773,-0.107 1.02,-0.32 0.253,-0.22 0.38,-0.5 0.38,-0.84 0,-0.267 -0.073,-0.483 -0.22,-0.65 -0.147,-0.167 -0.33,-0.293 -0.55,-0.38 -0.22,-0.087 -0.517,-0.18 -0.89,-0.28 -0.46,-0.12 -0.83,-0.24 -1.11,-0.36 -0.273,-0.12 -0.51,-0.307 -0.71,-0.56 -0.193,-0.26 -0.29,-0.607 -0.29,-1.04 0,-0.38 0.097,-0.717 0.29,-1.01 0.193,-0.293 0.463,-0.52 0.81,-0.68 0.353,-0.16 0.757,-0.24 1.21,-0.24 0.653,0 1.187,0.163 1.6,0.49 0.42,0.327 0.657,0.76 0.71,1.3 h -1 c -0.033,-0.267 -0.173,-0.5 -0.42,-0.7 -0.247,-0.207 -0.573,-0.31 -0.98,-0.31 -0.38,0 -0.69,0.1 -0.93,0.3 -0.24,0.193 -0.36,0.467 -0.36,0.82 0,0.253 0.07,0.46 0.21,0.62 0.147,0.16 0.323,0.283 0.53,0.37 0.213,0.08 0.51,0.173 0.89,0.28 0.46,0.127 0.83,0.253 1.11,0.38 0.28,0.12 0.52,0.31 0.72,0.57 0.2,0.253 0.3,0.6 0.3,1.04 0,0.34 -0.09,0.66 -0.27,0.96 -0.18,0.3 -0.447,0.543 -0.8,0.73 -0.353,0.187 -0.77,0.28 -1.25,0.28 z m 8.559,-3.02 c 0,0.173 -0.01,0.357 -0.03,0.55 h -4.38 c 0.033,0.54 0.217,0.963 0.55,1.27 0.34,0.3 0.75,0.45 1.23,0.45 0.393,0 0.72,-0.09 0.98,-0.27 0.267,-0.187 0.453,-0.433 0.56,-0.74 h 0.98 c -0.147,0.527 -0.44,0.957 -0.88,1.29 -0.44,0.327 -0.987,0.49 -1.64,0.49 -0.52,0 -0.987,-0.117 -1.4,-0.35 -0.407,-0.233 -0.727,-0.563 -0.96,-0.99 -0.233,-0.433 -0.35,-0.933 -0.35,-1.5 0,-0.567 0.113,-1.063 0.34,-1.49 0.227,-0.427 0.543,-0.753 0.95,-0.98 0.413,-0.233 0.887,-0.35 1.42,-0.35 0.52,0 0.98,0.113 1.38,0.34 0.4,0.227 0.707,0.54 0.92,0.94 0.22,0.393 0.33,0.84 0.33,1.34 z m -0.94,-0.19 c 0,-0.347 -0.077,-0.643 -0.23,-0.89 -0.153,-0.253 -0.363,-0.443 -0.63,-0.57 -0.26,-0.133 -0.55,-0.2 -0.87,-0.2 -0.46,0 -0.853,0.147 -1.18,0.44 -0.32,0.293 -0.503,0.7 -0.55,1.22 z m 2.951,-4.26 v 7.4 h -0.91 v -7.4 z m 3.681,2.67 h -1.15 V 294 h -0.91 v -4.73 h -0.71 v -0.75 h 0.71 v -0.39 c 0,-0.613 0.157,-1.06 0.47,-1.34 0.32,-0.287 0.83,-0.43 1.53,-0.43 v 0.76 c -0.4,0 -0.683,0.08 -0.85,0.24 -0.16,0.153 -0.24,0.41 -0.24,0.77 v 0.39 h 1.15 z"
       fill="#363636"
       id="path16" />
    <path
       d="m 1034.98,287.03 v 0.74 h -3.03 v 2.35 h 2.46 v 0.74 h -2.46 V 294 h -0.91 v -6.97 z m 6,4.02 c 0,0.173 -0.01,0.357 -0.03,0.55 h -4.38 c 0.03,0.54 0.21,0.963 0.55,1.27 0.34,0.3 0.75,0.45 1.23,0.45 0.39,0 0.72,-0.09 0.98,-0.27 0.26,-0.187 0.45,-0.433 0.56,-0.74 h 0.98 c -0.15,0.527 -0.44,0.957 -0.88,1.29 -0.44,0.327 -0.99,0.49 -1.64,0.49 -0.52,0 -0.99,-0.117 -1.4,-0.35 -0.41,-0.233 -0.73,-0.563 -0.96,-0.99 -0.24,-0.433 -0.35,-0.933 -0.35,-1.5 0,-0.567 0.11,-1.063 0.34,-1.49 0.22,-0.427 0.54,-0.753 0.95,-0.98 0.41,-0.233 0.88,-0.35 1.42,-0.35 0.52,0 0.98,0.113 1.38,0.34 0.4,0.227 0.7,0.54 0.92,0.94 0.22,0.393 0.33,0.84 0.33,1.34 z m -0.94,-0.19 c 0,-0.347 -0.08,-0.643 -0.23,-0.89 -0.16,-0.253 -0.37,-0.443 -0.63,-0.57 -0.26,-0.133 -0.55,-0.2 -0.87,-0.2 -0.46,0 -0.86,0.147 -1.18,0.44 -0.32,0.293 -0.51,0.7 -0.55,1.22 z m 8.63,-2.44 c 0.43,0 0.81,0.09 1.14,0.27 0.33,0.173 0.6,0.437 0.79,0.79 0.19,0.353 0.29,0.783 0.29,1.29 V 294 h -0.9 v -3.1 c 0,-0.547 -0.14,-0.963 -0.41,-1.25 -0.27,-0.293 -0.63,-0.44 -1.09,-0.44 -0.47,0 -0.85,0.153 -1.13,0.46 -0.28,0.3 -0.42,0.737 -0.42,1.31 V 294 h -0.9 v -3.1 c 0,-0.547 -0.14,-0.963 -0.41,-1.25 -0.27,-0.293 -0.63,-0.44 -1.09,-0.44 -0.47,0 -0.85,0.153 -1.13,0.46 -0.28,0.3 -0.42,0.737 -0.42,1.31 V 294 h -0.91 v -5.48 h 0.91 v 0.79 c 0.18,-0.287 0.42,-0.507 0.72,-0.66 0.31,-0.153 0.64,-0.23 1.01,-0.23 0.46,0 0.87,0.103 1.22,0.31 0.35,0.207 0.62,0.51 0.79,0.91 0.15,-0.387 0.41,-0.687 0.76,-0.9 0.35,-0.213 0.75,-0.32 1.18,-0.32 z m 3.27,2.82 c 0,-0.56 0.11,-1.05 0.34,-1.47 0.23,-0.427 0.54,-0.757 0.93,-0.99 0.4,-0.233 0.84,-0.35 1.33,-0.35 0.48,0 0.9,0.103 1.25,0.31 0.35,0.207 0.62,0.467 0.79,0.78 v -1 h 0.92 V 294 h -0.92 v -1.02 c -0.18,0.32 -0.45,0.587 -0.81,0.8 -0.35,0.207 -0.77,0.31 -1.24,0.31 -0.49,0 -0.93,-0.12 -1.32,-0.36 -0.39,-0.24 -0.7,-0.577 -0.93,-1.01 -0.23,-0.433 -0.34,-0.927 -0.34,-1.48 z m 4.64,0.01 c 0,-0.413 -0.08,-0.773 -0.25,-1.08 -0.17,-0.307 -0.39,-0.54 -0.68,-0.7 -0.28,-0.167 -0.59,-0.25 -0.93,-0.25 -0.34,0 -0.65,0.08 -0.93,0.24 -0.28,0.16 -0.5,0.393 -0.67,0.7 -0.17,0.307 -0.25,0.667 -0.25,1.08 0,0.42 0.08,0.787 0.25,1.1 0.17,0.307 0.39,0.543 0.67,0.71 0.28,0.16 0.59,0.24 0.93,0.24 0.34,0 0.65,-0.08 0.93,-0.24 0.29,-0.167 0.51,-0.403 0.68,-0.71 0.17,-0.313 0.25,-0.677 0.25,-1.09 z m 3.27,-4.65 v 7.4 h -0.91 v -7.4 z m 6.45,4.45 c 0,0.173 -0.01,0.357 -0.03,0.55 h -4.38 c 0.03,0.54 0.22,0.963 0.55,1.27 0.34,0.3 0.75,0.45 1.23,0.45 0.39,0 0.72,-0.09 0.98,-0.27 0.27,-0.187 0.45,-0.433 0.56,-0.74 h 0.98 c -0.15,0.527 -0.44,0.957 -0.88,1.29 -0.44,0.327 -0.99,0.49 -1.64,0.49 -0.52,0 -0.99,-0.117 -1.4,-0.35 -0.41,-0.233 -0.73,-0.563 -0.96,-0.99 -0.23,-0.433 -0.35,-0.933 -0.35,-1.5 0,-0.567 0.11,-1.063 0.34,-1.49 0.23,-0.427 0.54,-0.753 0.95,-0.98 0.41,-0.233 0.89,-0.35 1.42,-0.35 0.52,0 0.98,0.113 1.38,0.34 0.4,0.227 0.71,0.54 0.92,0.94 0.22,0.393 0.33,0.84 0.33,1.34 z m -0.94,-0.19 c 0,-0.347 -0.08,-0.643 -0.23,-0.89 -0.15,-0.253 -0.36,-0.443 -0.63,-0.57 -0.26,-0.133 -0.55,-0.2 -0.87,-0.2 -0.46,0 -0.85,0.147 -1.18,0.44 -0.32,0.293 -0.5,0.7 -0.55,1.22 z"
       fill="#363636"
       id="path17" />
    <g
       clip-path="url(#clip1_670_9220)"
       id="g20">
      <path
         d="m 885,263 c 0,0.796 0.316,1.559 0.879,2.121 0.562,0.563 1.325,0.879 2.121,0.879 0.796,0 1.559,-0.316 2.121,-0.879 0.563,-0.562 0.879,-1.325 0.879,-2.121 0,-0.796 -0.316,-1.559 -0.879,-2.121 C 889.559,260.316 888.796,260 888,260 c -0.796,0 -1.559,0.316 -2.121,0.879 C 885.316,261.441 885,262.204 885,263 Z"
         stroke="#721f6f"
         stroke-width="1.5"
         stroke-linecap="round"
         stroke-linejoin="round"
         id="path18" />
      <path
         d="m 882,274 v -1 c 0,-1.061 0.421,-2.078 1.172,-2.828 0.75,-0.751 1.767,-1.172 2.828,-1.172 h 4 c 1.061,0 2.078,0.421 2.828,1.172 0.751,0.75 1.172,1.767 1.172,2.828 v 1"
         stroke="#721f6f"
         stroke-width="1.5"
         stroke-linecap="round"
         stroke-linejoin="round"
         id="path19" />
      <path
         d="m 879,258 c 0,-0.53 0.211,-1.039 0.586,-1.414 C 879.961,256.211 880.47,256 881,256 h 14 c 0.53,0 1.039,0.211 1.414,0.586 0.375,0.375 0.586,0.884 0.586,1.414 v 14 c 0,0.53 -0.211,1.039 -0.586,1.414 C 896.039,273.789 895.53,274 895,274 h -14 c -0.53,0 -1.039,-0.211 -1.414,-0.586 C 879.211,273.039 879,272.53 879,272 Z"
         stroke="#721f6f"
         stroke-width="1.5"
         stroke-linecap="round"
         stroke-linejoin="round"
         id="path20" />
    </g>
    <g
       clip-path="url(#clip2_670_9220)"
       id="g25">
      <path
         d="m 962,257 h -1 c -0.53,0 -1.039,0.211 -1.414,0.586 C 959.211,257.961 959,258.47 959,259 v 3.5 c 0,1.459 0.579,2.858 1.611,3.889 1.031,1.032 2.43,1.611 3.889,1.611 1.459,0 2.858,-0.579 3.889,-1.611 1.032,-1.031 1.611,-2.43 1.611,-3.889 V 259 c 0,-0.53 -0.211,-1.039 -0.586,-1.414 C 969.039,257.211 968.53,257 968,257 h -1"
         stroke="#721f6f"
         stroke-width="1.5"
         stroke-linecap="round"
         stroke-linejoin="round"
         id="path21" />
      <path
         d="m 964,268 c 0,0.788 0.155,1.568 0.457,2.296 0.301,0.728 0.743,1.389 1.3,1.947 0.558,0.557 1.219,0.999 1.947,1.3 0.728,0.302 1.508,0.457 2.296,0.457 0.788,0 1.568,-0.155 2.296,-0.457 0.728,-0.301 1.389,-0.743 1.947,-1.3 0.557,-0.558 0.999,-1.219 1.3,-1.947 C 975.845,269.568 976,268.788 976,268 v -3"
         stroke="#721f6f"
         stroke-width="1.5"
         stroke-linecap="round"
         stroke-linejoin="round"
         id="path22" />
      <path
         d="m 967,256 v 2"
         stroke="#721f6f"
         stroke-width="1.5"
         stroke-linecap="round"
         stroke-linejoin="round"
         id="path23" />
      <path
         d="m 962,256 v 2"
         stroke="#721f6f"
         stroke-width="1.5"
         stroke-linecap="round"
         stroke-linejoin="round"
         id="path24" />
      <path
         d="m 974,263 c 0,0.53 0.211,1.039 0.586,1.414 0.375,0.375 0.884,0.586 1.414,0.586 0.53,0 1.039,-0.211 1.414,-0.586 0.375,-0.375 0.586,-0.884 0.586,-1.414 0,-0.53 -0.211,-1.039 -0.586,-1.414 C 977.039,261.211 976.53,261 976,261 c -0.53,0 -1.039,0.211 -1.414,0.586 C 974.211,261.961 974,262.47 974,263 Z"
         stroke="#721f6f"
         stroke-width="1.5"
         stroke-linecap="round"
         stroke-linejoin="round"
         id="path25" />
    </g>
    <g
       clip-path="url(#clip3_670_9220)"
       id="g28">
      <path
         d="m 1043,262 c 0,1.326 0.53,2.598 1.46,3.536 0.94,0.937 2.21,1.464 3.54,1.464 1.33,0 2.6,-0.527 3.54,-1.464 0.93,-0.938 1.46,-2.21 1.46,-3.536 0,-1.326 -0.53,-2.598 -1.46,-3.536 -0.94,-0.937 -2.21,-1.464 -3.54,-1.464 -1.33,0 -2.6,0.527 -3.54,1.464 -0.93,0.938 -1.46,2.21 -1.46,3.536 z"
         stroke="#721f6f"
         stroke-width="1.5"
         stroke-linecap="round"
         stroke-linejoin="round"
         id="path26" />
      <path
         d="m 1048,267 v 7"
         stroke="#721f6f"
         stroke-width="1.5"
         stroke-linecap="round"
         stroke-linejoin="round"
         id="path27" />
      <path
         d="m 1045,271 h 6"
         stroke="#721f6f"
         stroke-width="1.5"
         stroke-linecap="round"
         stroke-linejoin="round"
         id="path28" />
    </g>
    <path
       d="M 856.82,425.27 V 435 h -1.596 v -4.256 h -4.578 V 435 h -1.596 v -9.73 h 1.596 v 4.172 h 4.578 v -4.172 z m 2.773,0.994 c -0.289,0 -0.532,-0.098 -0.728,-0.294 -0.196,-0.196 -0.294,-0.439 -0.294,-0.728 0,-0.289 0.098,-0.532 0.294,-0.728 0.196,-0.196 0.439,-0.294 0.728,-0.294 0.28,0 0.518,0.098 0.714,0.294 0.196,0.196 0.294,0.439 0.294,0.728 0,0.289 -0.098,0.532 -0.294,0.728 -0.196,0.196 -0.434,0.294 -0.714,0.294 z m 0.784,1.022 V 435 h -1.596 v -7.714 z m 4.756,7.84 c -0.607,0 -1.153,-0.107 -1.638,-0.322 -0.476,-0.224 -0.854,-0.523 -1.134,-0.896 -0.28,-0.383 -0.43,-0.807 -0.448,-1.274 h 1.652 c 0.028,0.327 0.182,0.602 0.462,0.826 0.289,0.215 0.648,0.322 1.078,0.322 0.448,0 0.793,-0.084 1.036,-0.252 0.252,-0.177 0.378,-0.401 0.378,-0.672 0,-0.289 -0.14,-0.504 -0.42,-0.644 -0.271,-0.14 -0.705,-0.294 -1.302,-0.462 -0.579,-0.159 -1.05,-0.313 -1.414,-0.462 -0.364,-0.149 -0.682,-0.378 -0.952,-0.686 -0.262,-0.308 -0.392,-0.714 -0.392,-1.218 0,-0.411 0.121,-0.784 0.364,-1.12 0.242,-0.345 0.588,-0.616 1.036,-0.812 0.457,-0.196 0.98,-0.294 1.568,-0.294 0.877,0 1.582,0.224 2.114,0.672 0.541,0.439 0.83,1.041 0.868,1.806 h -1.596 c -0.028,-0.345 -0.168,-0.621 -0.42,-0.826 -0.252,-0.205 -0.593,-0.308 -1.022,-0.308 -0.42,0 -0.742,0.079 -0.966,0.238 -0.224,0.159 -0.336,0.369 -0.336,0.63 0,0.205 0.074,0.378 0.224,0.518 0.149,0.14 0.331,0.252 0.546,0.336 0.214,0.075 0.532,0.173 0.952,0.294 0.56,0.149 1.017,0.303 1.372,0.462 0.364,0.149 0.676,0.373 0.938,0.672 0.261,0.299 0.396,0.695 0.406,1.19 0,0.439 -0.122,0.831 -0.364,1.176 -0.243,0.345 -0.588,0.616 -1.036,0.812 -0.439,0.196 -0.957,0.294 -1.554,0.294 z m 6.4,-6.538 v 4.27 c 0,0.289 0.065,0.499 0.196,0.63 0.14,0.121 0.373,0.182 0.7,0.182 h 0.98 V 435 h -1.26 c -0.719,0 -1.269,-0.168 -1.652,-0.504 -0.383,-0.336 -0.574,-0.882 -0.574,-1.638 v -4.27 h -0.91 v -1.302 h 0.91 v -1.918 h 1.61 v 1.918 h 1.876 v 1.302 z m 6.553,6.538 c -0.728,0 -1.386,-0.163 -1.974,-0.49 -0.588,-0.336 -1.05,-0.803 -1.386,-1.4 -0.336,-0.607 -0.504,-1.307 -0.504,-2.1 0,-0.784 0.173,-1.479 0.518,-2.086 0.345,-0.607 0.817,-1.073 1.414,-1.4 0.597,-0.327 1.265,-0.49 2.002,-0.49 0.737,0 1.405,0.163 2.002,0.49 0.597,0.327 1.069,0.793 1.414,1.4 0.345,0.607 0.518,1.302 0.518,2.086 0,0.784 -0.177,1.479 -0.532,2.086 -0.355,0.607 -0.84,1.078 -1.456,1.414 -0.607,0.327 -1.279,0.49 -2.016,0.49 z m 0,-1.386 c 0.411,0 0.793,-0.098 1.148,-0.294 0.364,-0.196 0.658,-0.49 0.882,-0.882 0.224,-0.392 0.336,-0.868 0.336,-1.428 0,-0.56 -0.107,-1.031 -0.322,-1.414 -0.215,-0.392 -0.499,-0.686 -0.854,-0.882 -0.355,-0.196 -0.737,-0.294 -1.148,-0.294 -0.411,0 -0.793,0.098 -1.148,0.294 -0.345,0.196 -0.621,0.49 -0.826,0.882 -0.205,0.383 -0.308,0.854 -0.308,1.414 0,0.831 0.21,1.475 0.63,1.932 0.429,0.448 0.966,0.672 1.61,0.672 z m 7.038,-5.334 c 0.233,-0.392 0.541,-0.695 0.924,-0.91 0.392,-0.224 0.854,-0.336 1.386,-0.336 v 1.652 h -0.406 c -0.626,0 -1.102,0.159 -1.428,0.476 -0.318,0.317 -0.476,0.868 -0.476,1.652 V 435 h -1.596 v -7.714 h 1.596 z m 10.581,-1.12 -4.732,11.34 h -1.652 l 1.568,-3.752 -3.038,-7.588 h 1.778 l 2.17,5.88 2.254,-5.88 z"
       fill="#560153"
       id="path29" />
    <rect
       x="848"
       y="451"
       width="83"
       height="28"
       rx="7"
       fill="#d9ddff"
       id="rect29" />
    <path
       d="m 871.868,467.14 h -3.648 l -0.672,1.86 h -1.152 l 3.024,-8.316 h 1.26 l 3.012,8.316 h -1.152 z m -0.312,-0.888 -1.512,-4.224 -1.512,4.224 z m 5.662,2.856 c -0.504,0 -0.956,-0.084 -1.356,-0.252 -0.4,-0.176 -0.716,-0.416 -0.948,-0.72 -0.232,-0.312 -0.36,-0.668 -0.384,-1.068 h 1.128 c 0.032,0.328 0.184,0.596 0.456,0.804 0.28,0.208 0.644,0.312 1.092,0.312 0.416,0 0.744,-0.092 0.984,-0.276 0.24,-0.184 0.36,-0.416 0.36,-0.696 0,-0.288 -0.128,-0.5 -0.384,-0.636 -0.256,-0.144 -0.652,-0.284 -1.188,-0.42 -0.488,-0.128 -0.888,-0.256 -1.2,-0.384 -0.304,-0.136 -0.568,-0.332 -0.792,-0.588 -0.216,-0.264 -0.324,-0.608 -0.324,-1.032 0,-0.336 0.1,-0.644 0.3,-0.924 0.2,-0.28 0.484,-0.5 0.852,-0.66 0.368,-0.168 0.788,-0.252 1.26,-0.252 0.728,0 1.316,0.184 1.764,0.552 0.448,0.368 0.688,0.872 0.72,1.512 h -1.092 c -0.024,-0.344 -0.164,-0.62 -0.42,-0.828 -0.248,-0.208 -0.584,-0.312 -1.008,-0.312 -0.392,0 -0.704,0.084 -0.936,0.252 -0.232,0.168 -0.348,0.388 -0.348,0.66 0,0.216 0.068,0.396 0.204,0.54 0.144,0.136 0.32,0.248 0.528,0.336 0.216,0.08 0.512,0.172 0.888,0.276 0.472,0.128 0.856,0.256 1.152,0.384 0.296,0.12 0.548,0.304 0.756,0.552 0.216,0.248 0.328,0.572 0.336,0.972 0,0.36 -0.1,0.684 -0.3,0.972 -0.2,0.288 -0.484,0.516 -0.852,0.684 -0.36,0.16 -0.776,0.24 -1.248,0.24 z m 5.153,-5.784 v 3.876 c 0,0.32 0.068,0.548 0.204,0.684 0.136,0.128 0.372,0.192 0.708,0.192 h 0.804 V 469 h -0.984 c -0.608,0 -1.064,-0.14 -1.368,-0.42 -0.304,-0.28 -0.456,-0.74 -0.456,-1.38 v -3.876 h -0.852 v -0.9 h 0.852 v -1.656 h 1.092 v 1.656 h 1.716 v 0.9 z m 6.184,-1.02 c 0.496,0 0.944,0.108 1.344,0.324 0.4,0.208 0.712,0.524 0.936,0.948 0.232,0.424 0.348,0.94 0.348,1.548 V 469 h -1.08 v -3.72 c 0,-0.656 -0.164,-1.156 -0.492,-1.5 -0.328,-0.352 -0.776,-0.528 -1.344,-0.528 -0.576,0 -1.036,0.18 -1.38,0.54 -0.336,0.36 -0.504,0.884 -0.504,1.572 V 469 h -1.092 v -8.88 h 1.092 v 3.24 c 0.216,-0.336 0.512,-0.596 0.888,-0.78 0.384,-0.184 0.812,-0.276 1.284,-0.276 z m 12.199,0 c 0.512,0 0.968,0.108 1.368,0.324 0.4,0.208 0.716,0.524 0.948,0.948 0.232,0.424 0.348,0.94 0.348,1.548 V 469 h -1.08 v -3.72 c 0,-0.656 -0.164,-1.156 -0.492,-1.5 -0.32,-0.352 -0.756,-0.528 -1.308,-0.528 -0.568,0 -1.02,0.184 -1.356,0.552 -0.336,0.36 -0.504,0.884 -0.504,1.572 V 469 h -1.08 v -3.72 c 0,-0.656 -0.164,-1.156 -0.492,-1.5 -0.32,-0.352 -0.756,-0.528 -1.308,-0.528 -0.568,0 -1.02,0.184 -1.356,0.552 -0.336,0.36 -0.504,0.884 -0.504,1.572 V 469 h -1.092 v -6.576 h 1.092 v 0.948 c 0.216,-0.344 0.504,-0.608 0.864,-0.792 0.368,-0.184 0.772,-0.276 1.212,-0.276 0.552,0 1.04,0.124 1.464,0.372 0.424,0.248 0.74,0.612 0.948,1.092 0.184,-0.464 0.488,-0.824 0.912,-1.08 0.424,-0.256 0.896,-0.384 1.416,-0.384 z m 3.928,3.384 c 0,-0.672 0.136,-1.26 0.408,-1.764 0.272,-0.512 0.644,-0.908 1.116,-1.188 0.48,-0.28 1.012,-0.42 1.596,-0.42 0.576,0 1.076,0.124 1.5,0.372 0.424,0.248 0.74,0.56 0.948,0.936 v -1.2 h 1.104 V 469 h -1.104 v -1.224 c -0.216,0.384 -0.54,0.704 -0.972,0.96 -0.424,0.248 -0.92,0.372 -1.488,0.372 -0.584,0 -1.112,-0.144 -1.584,-0.432 -0.472,-0.288 -0.844,-0.692 -1.116,-1.212 -0.272,-0.52 -0.408,-1.112 -0.408,-1.776 z m 5.568,0.012 c 0,-0.496 -0.1,-0.928 -0.3,-1.296 -0.2,-0.368 -0.472,-0.648 -0.816,-0.84 -0.336,-0.2 -0.708,-0.3 -1.116,-0.3 -0.408,0 -0.78,0.096 -1.116,0.288 -0.336,0.192 -0.604,0.472 -0.804,0.84 -0.2,0.368 -0.3,0.8 -0.3,1.296 0,0.504 0.1,0.944 0.3,1.32 0.2,0.368 0.468,0.652 0.804,0.852 0.336,0.192 0.708,0.288 1.116,0.288 0.408,0 0.78,-0.096 1.116,-0.288 0.344,-0.2 0.616,-0.484 0.816,-0.852 0.2,-0.376 0.3,-0.812 0.3,-1.308 z"
       fill="#560153"
       id="path30" />
    <rect
       x="848"
       y="487"
       width="145"
       height="28"
       rx="7"
       fill="#d9ddff"
       id="rect30" />
    <path
       d="m 866.516,500.812 c 0,-0.816 0.184,-1.548 0.552,-2.196 0.368,-0.656 0.868,-1.168 1.5,-1.536 0.64,-0.368 1.348,-0.552 2.124,-0.552 0.912,0 1.708,0.22 2.388,0.66 0.68,0.44 1.176,1.064 1.488,1.872 h -1.308 c -0.232,-0.504 -0.568,-0.892 -1.008,-1.164 -0.432,-0.272 -0.952,-0.408 -1.56,-0.408 -0.584,0 -1.108,0.136 -1.572,0.408 -0.464,0.272 -0.828,0.66 -1.092,1.164 -0.264,0.496 -0.396,1.08 -0.396,1.752 0,0.664 0.132,1.248 0.396,1.752 0.264,0.496 0.628,0.88 1.092,1.152 0.464,0.272 0.988,0.408 1.572,0.408 0.608,0 1.128,-0.132 1.56,-0.396 0.44,-0.272 0.776,-0.66 1.008,-1.164 h 1.308 c -0.312,0.8 -0.808,1.42 -1.488,1.86 -0.68,0.432 -1.476,0.648 -2.388,0.648 -0.776,0 -1.484,-0.18 -2.124,-0.54 -0.632,-0.368 -1.132,-0.876 -1.5,-1.524 -0.368,-0.648 -0.552,-1.38 -0.552,-2.196 z m 12.822,-2.508 c 0.496,0 0.944,0.108 1.344,0.324 0.4,0.208 0.712,0.524 0.936,0.948 0.232,0.424 0.348,0.94 0.348,1.548 V 505 h -1.08 v -3.72 c 0,-0.656 -0.164,-1.156 -0.492,-1.5 -0.328,-0.352 -0.776,-0.528 -1.344,-0.528 -0.576,0 -1.036,0.18 -1.38,0.54 -0.336,0.36 -0.504,0.884 -0.504,1.572 V 505 h -1.092 v -8.88 h 1.092 v 3.24 c 0.216,-0.336 0.512,-0.596 0.888,-0.78 0.384,-0.184 0.812,-0.276 1.284,-0.276 z m 5.383,1.188 c 0.192,-0.376 0.464,-0.668 0.816,-0.876 0.36,-0.208 0.796,-0.312 1.308,-0.312 v 1.128 h -0.288 c -1.224,0 -1.836,0.664 -1.836,1.992 V 505 h -1.092 v -6.576 h 1.092 z m 6.133,5.616 c -0.616,0 -1.176,-0.14 -1.68,-0.42 -0.496,-0.28 -0.888,-0.676 -1.176,-1.188 -0.28,-0.52 -0.42,-1.12 -0.42,-1.8 0,-0.672 0.144,-1.264 0.432,-1.776 0.296,-0.52 0.696,-0.916 1.2,-1.188 0.504,-0.28 1.068,-0.42 1.692,-0.42 0.624,0 1.188,0.14 1.692,0.42 0.504,0.272 0.9,0.664 1.188,1.176 0.296,0.512 0.444,1.108 0.444,1.788 0,0.68 -0.152,1.28 -0.456,1.8 -0.296,0.512 -0.7,0.908 -1.212,1.188 -0.512,0.28 -1.08,0.42 -1.704,0.42 z m 0,-0.96 c 0.392,0 0.76,-0.092 1.104,-0.276 0.344,-0.184 0.62,-0.46 0.828,-0.828 0.216,-0.368 0.324,-0.816 0.324,-1.344 0,-0.528 -0.104,-0.976 -0.312,-1.344 -0.208,-0.368 -0.48,-0.64 -0.816,-0.816 -0.336,-0.184 -0.7,-0.276 -1.092,-0.276 -0.4,0 -0.768,0.092 -1.104,0.276 -0.328,0.176 -0.592,0.448 -0.792,0.816 -0.2,0.368 -0.3,0.816 -0.3,1.344 0,0.536 0.096,0.988 0.288,1.356 0.2,0.368 0.464,0.644 0.792,0.828 0.328,0.176 0.688,0.264 1.08,0.264 z m 7.892,-5.844 c 0.8,0 1.448,0.244 1.944,0.732 0.496,0.48 0.744,1.176 0.744,2.088 V 505 h -1.08 v -3.72 c 0,-0.656 -0.164,-1.156 -0.492,-1.5 -0.328,-0.352 -0.776,-0.528 -1.344,-0.528 -0.576,0 -1.036,0.18 -1.38,0.54 -0.336,0.36 -0.504,0.884 -0.504,1.572 V 505 h -1.092 v -6.576 h 1.092 v 0.936 c 0.216,-0.336 0.508,-0.596 0.876,-0.78 0.376,-0.184 0.788,-0.276 1.236,-0.276 z m 4.915,-0.948 c -0.208,0 -0.384,-0.072 -0.528,-0.216 -0.144,-0.144 -0.216,-0.32 -0.216,-0.528 0,-0.208 0.072,-0.384 0.216,-0.528 0.144,-0.144 0.32,-0.216 0.528,-0.216 0.2,0 0.368,0.072 0.504,0.216 0.144,0.144 0.216,0.32 0.216,0.528 0,0.208 -0.072,0.384 -0.216,0.528 -0.136,0.144 -0.304,0.216 -0.504,0.216 z m 0.528,1.068 V 505 h -1.092 v -6.576 z m 1.334,3.276 c 0,-0.68 0.136,-1.272 0.408,-1.776 0.272,-0.512 0.648,-0.908 1.128,-1.188 0.488,-0.28 1.044,-0.42 1.668,-0.42 0.808,0 1.472,0.196 1.992,0.588 0.528,0.392 0.876,0.936 1.044,1.632 h -1.176 c -0.112,-0.4 -0.332,-0.716 -0.66,-0.948 -0.32,-0.232 -0.72,-0.348 -1.2,-0.348 -0.624,0 -1.128,0.216 -1.512,0.648 -0.384,0.424 -0.576,1.028 -0.576,1.812 0,0.792 0.192,1.404 0.576,1.836 0.384,0.432 0.888,0.648 1.512,0.648 0.48,0 0.88,-0.112 1.2,-0.336 0.32,-0.224 0.54,-0.544 0.66,-0.96 h 1.176 c -0.176,0.672 -0.528,1.212 -1.056,1.62 -0.528,0.4 -1.188,0.6 -1.98,0.6 -0.624,0 -1.18,-0.14 -1.668,-0.42 -0.48,-0.28 -0.856,-0.676 -1.128,-1.188 -0.272,-0.512 -0.408,-1.112 -0.408,-1.8 z m 18.564,-3.396 c 0.512,0 0.968,0.108 1.368,0.324 0.4,0.208 0.716,0.524 0.948,0.948 0.232,0.424 0.348,0.94 0.348,1.548 V 505 h -1.08 v -3.72 c 0,-0.656 -0.164,-1.156 -0.492,-1.5 -0.32,-0.352 -0.756,-0.528 -1.308,-0.528 -0.568,0 -1.02,0.184 -1.356,0.552 -0.336,0.36 -0.504,0.884 -0.504,1.572 V 505 h -1.08 v -3.72 c 0,-0.656 -0.164,-1.156 -0.492,-1.5 -0.32,-0.352 -0.756,-0.528 -1.308,-0.528 -0.568,0 -1.02,0.184 -1.356,0.552 -0.336,0.36 -0.504,0.884 -0.504,1.572 V 505 h -1.092 v -6.576 h 1.092 v 0.948 c 0.216,-0.344 0.504,-0.608 0.864,-0.792 0.368,-0.184 0.772,-0.276 1.212,-0.276 0.552,0 1.04,0.124 1.464,0.372 0.424,0.248 0.74,0.612 0.948,1.092 0.184,-0.464 0.488,-0.824 0.912,-1.08 0.424,-0.256 0.896,-0.384 1.416,-0.384 z m 4.899,-0.948 c -0.208,0 -0.384,-0.072 -0.528,-0.216 -0.144,-0.144 -0.216,-0.32 -0.216,-0.528 0,-0.208 0.072,-0.384 0.216,-0.528 0.144,-0.144 0.32,-0.216 0.528,-0.216 0.2,0 0.368,0.072 0.504,0.216 0.144,0.144 0.216,0.32 0.216,0.528 0,0.208 -0.072,0.384 -0.216,0.528 -0.136,0.144 -0.304,0.216 -0.504,0.216 z m 0.528,1.068 V 505 h -1.092 v -6.576 z m 4.453,-0.108 c 0.568,0 1.064,0.124 1.488,0.372 0.432,0.248 0.752,0.56 0.96,0.936 v -1.2 h 1.104 v 6.72 c 0,0.6 -0.128,1.132 -0.384,1.596 -0.256,0.472 -0.624,0.84 -1.104,1.104 -0.472,0.264 -1.024,0.396 -1.656,0.396 -0.864,0 -1.584,-0.204 -2.16,-0.612 -0.576,-0.408 -0.916,-0.964 -1.02,-1.668 h 1.08 c 0.12,0.4 0.368,0.72 0.744,0.96 0.376,0.248 0.828,0.372 1.356,0.372 0.6,0 1.088,-0.188 1.464,-0.564 0.384,-0.376 0.576,-0.904 0.576,-1.584 v -1.38 c -0.216,0.384 -0.536,0.704 -0.96,0.96 -0.424,0.256 -0.92,0.384 -1.488,0.384 -0.584,0 -1.116,-0.144 -1.596,-0.432 -0.472,-0.288 -0.844,-0.692 -1.116,-1.212 -0.272,-0.52 -0.408,-1.112 -0.408,-1.776 0,-0.672 0.136,-1.26 0.408,-1.764 0.272,-0.512 0.644,-0.908 1.116,-1.188 0.48,-0.28 1.012,-0.42 1.596,-0.42 z m 2.448,3.384 c 0,-0.496 -0.1,-0.928 -0.3,-1.296 -0.2,-0.368 -0.472,-0.648 -0.816,-0.84 -0.336,-0.2 -0.708,-0.3 -1.116,-0.3 -0.408,0 -0.78,0.096 -1.116,0.288 -0.336,0.192 -0.604,0.472 -0.804,0.84 -0.2,0.368 -0.3,0.8 -0.3,1.296 0,0.504 0.1,0.944 0.3,1.32 0.2,0.368 0.468,0.652 0.804,0.852 0.336,0.192 0.708,0.288 1.116,0.288 0.408,0 0.78,-0.096 1.116,-0.288 0.344,-0.2 0.616,-0.484 0.816,-0.852 0.2,-0.376 0.3,-0.812 0.3,-1.308 z m 3.922,-2.208 c 0.192,-0.376 0.464,-0.668 0.816,-0.876 0.36,-0.208 0.796,-0.312 1.308,-0.312 v 1.128 h -0.288 c -1.224,0 -1.836,0.664 -1.836,1.992 V 505 h -1.092 v -6.576 h 1.092 z m 2.856,2.196 c 0,-0.672 0.136,-1.26 0.408,-1.764 0.272,-0.512 0.644,-0.908 1.116,-1.188 0.48,-0.28 1.012,-0.42 1.596,-0.42 0.576,0 1.076,0.124 1.5,0.372 0.424,0.248 0.74,0.56 0.948,0.936 v -1.2 h 1.104 V 505 h -1.104 v -1.224 c -0.216,0.384 -0.54,0.704 -0.972,0.96 -0.424,0.248 -0.92,0.372 -1.488,0.372 -0.584,0 -1.112,-0.144 -1.584,-0.432 -0.472,-0.288 -0.844,-0.692 -1.116,-1.212 -0.272,-0.52 -0.408,-1.112 -0.408,-1.776 z m 5.568,0.012 c 0,-0.496 -0.1,-0.928 -0.3,-1.296 -0.2,-0.368 -0.472,-0.648 -0.816,-0.84 -0.336,-0.2 -0.708,-0.3 -1.116,-0.3 -0.408,0 -0.78,0.096 -1.116,0.288 -0.336,0.192 -0.604,0.472 -0.804,0.84 -0.2,0.368 -0.3,0.8 -0.3,1.296 0,0.504 0.1,0.944 0.3,1.32 0.2,0.368 0.468,0.652 0.804,0.852 0.336,0.192 0.708,0.288 1.116,0.288 0.408,0 0.78,-0.096 1.116,-0.288 0.344,-0.2 0.616,-0.484 0.816,-0.852 0.2,-0.376 0.3,-0.812 0.3,-1.308 z m 3.394,-4.344 c -0.208,0 -0.384,-0.072 -0.528,-0.216 -0.144,-0.144 -0.216,-0.32 -0.216,-0.528 0,-0.208 0.072,-0.384 0.216,-0.528 0.144,-0.144 0.32,-0.216 0.528,-0.216 0.2,0 0.368,0.072 0.504,0.216 0.144,0.144 0.216,0.32 0.216,0.528 0,0.208 -0.072,0.384 -0.216,0.528 -0.136,0.144 -0.304,0.216 -0.504,0.216 z m 0.528,1.068 V 505 h -1.092 v -6.576 z m 4.945,-0.12 c 0.8,0 1.448,0.244 1.944,0.732 0.496,0.48 0.744,1.176 0.744,2.088 V 505 h -1.08 v -3.72 c 0,-0.656 -0.164,-1.156 -0.492,-1.5 -0.328,-0.352 -0.776,-0.528 -1.344,-0.528 -0.576,0 -1.036,0.18 -1.38,0.54 -0.336,0.36 -0.504,0.884 -0.504,1.572 V 505 h -1.092 v -6.576 h 1.092 v 0.936 c 0.216,-0.336 0.508,-0.596 0.876,-0.78 0.376,-0.184 0.788,-0.276 1.236,-0.276 z m 10.351,3.156 c 0,0.208 -0.012,0.428 -0.036,0.66 h -5.256 c 0.04,0.648 0.26,1.156 0.66,1.524 0.408,0.36 0.9,0.54 1.476,0.54 0.472,0 0.864,-0.108 1.176,-0.324 0.32,-0.224 0.544,-0.52 0.672,-0.888 h 1.176 c -0.176,0.632 -0.528,1.148 -1.056,1.548 -0.528,0.392 -1.184,0.588 -1.968,0.588 -0.624,0 -1.184,-0.14 -1.68,-0.42 -0.488,-0.28 -0.872,-0.676 -1.152,-1.188 -0.28,-0.52 -0.42,-1.12 -0.42,-1.8 0,-0.68 0.136,-1.276 0.408,-1.788 0.272,-0.512 0.652,-0.904 1.14,-1.176 0.496,-0.28 1.064,-0.42 1.704,-0.42 0.624,0 1.176,0.136 1.656,0.408 0.48,0.272 0.848,0.648 1.104,1.128 0.264,0.472 0.396,1.008 0.396,1.608 z m -1.128,-0.228 c 0,-0.416 -0.092,-0.772 -0.276,-1.068 -0.184,-0.304 -0.436,-0.532 -0.756,-0.684 -0.312,-0.16 -0.66,-0.24 -1.044,-0.24 -0.552,0 -1.024,0.176 -1.416,0.528 -0.384,0.352 -0.604,0.84 -0.66,1.464 z m 4.778,3.876 c -0.504,0 -0.956,-0.084 -1.356,-0.252 -0.4,-0.176 -0.716,-0.416 -0.948,-0.72 -0.232,-0.312 -0.36,-0.668 -0.384,-1.068 h 1.128 c 0.032,0.328 0.184,0.596 0.456,0.804 0.28,0.208 0.644,0.312 1.092,0.312 0.416,0 0.744,-0.092 0.984,-0.276 0.24,-0.184 0.36,-0.416 0.36,-0.696 0,-0.288 -0.128,-0.5 -0.384,-0.636 -0.256,-0.144 -0.652,-0.284 -1.188,-0.42 -0.488,-0.128 -0.888,-0.256 -1.2,-0.384 -0.304,-0.136 -0.568,-0.332 -0.792,-0.588 -0.216,-0.264 -0.324,-0.608 -0.324,-1.032 0,-0.336 0.1,-0.644 0.3,-0.924 0.2,-0.28 0.484,-0.5 0.852,-0.66 0.368,-0.168 0.788,-0.252 1.26,-0.252 0.728,0 1.316,0.184 1.764,0.552 0.448,0.368 0.688,0.872 0.72,1.512 h -1.092 c -0.024,-0.344 -0.164,-0.62 -0.42,-0.828 -0.248,-0.208 -0.584,-0.312 -1.008,-0.312 -0.392,0 -0.704,0.084 -0.936,0.252 -0.232,0.168 -0.348,0.388 -0.348,0.66 0,0.216 0.068,0.396 0.204,0.54 0.144,0.136 0.32,0.248 0.528,0.336 0.216,0.08 0.512,0.172 0.888,0.276 0.472,0.128 0.856,0.256 1.152,0.384 0.296,0.12 0.548,0.304 0.756,0.552 0.216,0.248 0.328,0.572 0.336,0.972 0,0.36 -0.1,0.684 -0.3,0.972 -0.2,0.288 -0.484,0.516 -0.852,0.684 -0.36,0.16 -0.776,0.24 -1.248,0.24 z"
       fill="#560153"
       id="path31" />
    <rect
       x="939"
       y="451"
       width="86"
       height="28"
       rx="7"
       fill="#d9ddff"
       id="rect31" />
    <path
       d="m 962.868,467.14 h -3.648 l -0.672,1.86 h -1.152 l 3.024,-8.316 h 1.26 l 3.012,8.316 h -1.152 z m -0.312,-0.888 -1.512,-4.224 -1.512,4.224 z m 4.426,-6.132 V 469 h -1.092 v -8.88 z m 2.833,0 V 469 h -1.092 v -8.88 z m 7.741,5.34 c 0,0.208 -0.012,0.428 -0.036,0.66 h -5.256 c 0.04,0.648 0.26,1.156 0.66,1.524 0.408,0.36 0.9,0.54 1.476,0.54 0.472,0 0.864,-0.108 1.176,-0.324 0.32,-0.224 0.544,-0.52 0.672,-0.888 h 1.176 c -0.176,0.632 -0.528,1.148 -1.056,1.548 -0.528,0.392 -1.184,0.588 -1.968,0.588 -0.624,0 -1.184,-0.14 -1.68,-0.42 -0.488,-0.28 -0.872,-0.676 -1.152,-1.188 -0.28,-0.52 -0.42,-1.12 -0.42,-1.8 0,-0.68 0.136,-1.276 0.408,-1.788 0.272,-0.512 0.652,-0.904 1.14,-1.176 0.496,-0.28 1.064,-0.42 1.704,-0.42 0.624,0 1.176,0.136 1.656,0.408 0.48,0.272 0.848,0.648 1.104,1.128 0.264,0.472 0.396,1.008 0.396,1.608 z m -1.128,-0.228 c 0,-0.416 -0.092,-0.772 -0.276,-1.068 -0.184,-0.304 -0.436,-0.532 -0.756,-0.684 -0.312,-0.16 -0.66,-0.24 -1.044,-0.24 -0.552,0 -1.024,0.176 -1.416,0.528 -0.384,0.352 -0.604,0.84 -0.66,1.464 z m 3.542,-1.74 c 0.192,-0.376 0.464,-0.668 0.816,-0.876 0.36,-0.208 0.796,-0.312 1.308,-0.312 v 1.128 h -0.288 c -1.224,0 -1.836,0.664 -1.836,1.992 V 469 h -1.092 v -6.576 h 1.092 z m 5.976,-1.176 c 0.568,0 1.064,0.124 1.488,0.372 0.432,0.248 0.752,0.56 0.96,0.936 v -1.2 h 1.104 v 6.72 c 0,0.6 -0.128,1.132 -0.384,1.596 -0.256,0.472 -0.624,0.84 -1.104,1.104 -0.472,0.264 -1.024,0.396 -1.656,0.396 -0.864,0 -1.584,-0.204 -2.16,-0.612 -0.576,-0.408 -0.916,-0.964 -1.02,-1.668 h 1.08 c 0.12,0.4 0.368,0.72 0.744,0.96 0.376,0.248 0.828,0.372 1.356,0.372 0.6,0 1.088,-0.188 1.464,-0.564 0.384,-0.376 0.576,-0.904 0.576,-1.584 v -1.38 c -0.216,0.384 -0.536,0.704 -0.96,0.96 -0.424,0.256 -0.92,0.384 -1.488,0.384 -0.584,0 -1.116,-0.144 -1.596,-0.432 -0.472,-0.288 -0.844,-0.692 -1.116,-1.212 -0.272,-0.52 -0.408,-1.112 -0.408,-1.776 0,-0.672 0.136,-1.26 0.408,-1.764 0.272,-0.512 0.644,-0.908 1.116,-1.188 0.48,-0.28 1.012,-0.42 1.596,-0.42 z m 2.448,3.384 c 0,-0.496 -0.1,-0.928 -0.3,-1.296 -0.2,-0.368 -0.472,-0.648 -0.816,-0.84 -0.336,-0.2 -0.708,-0.3 -1.116,-0.3 -0.408,0 -0.78,0.096 -1.116,0.288 -0.336,0.192 -0.604,0.472 -0.804,0.84 -0.2,0.368 -0.3,0.8 -0.3,1.296 0,0.504 0.1,0.944 0.3,1.32 0.2,0.368 0.468,0.652 0.804,0.852 0.336,0.192 0.708,0.288 1.116,0.288 0.408,0 0.78,-0.096 1.116,-0.288 0.344,-0.2 0.616,-0.484 0.816,-0.852 0.2,-0.376 0.3,-0.812 0.3,-1.308 z m 3.394,-4.344 c -0.208,0 -0.384,-0.072 -0.528,-0.216 -0.144,-0.144 -0.216,-0.32 -0.216,-0.528 0,-0.208 0.072,-0.384 0.216,-0.528 0.144,-0.144 0.32,-0.216 0.528,-0.216 0.2,0 0.368,0.072 0.504,0.216 0.144,0.144 0.216,0.32 0.216,0.528 0,0.208 -0.072,0.384 -0.216,0.528 -0.136,0.144 -0.304,0.216 -0.504,0.216 z m 0.528,1.068 V 469 h -1.092 v -6.576 z m 7.744,3.036 c 0,0.208 -0.02,0.428 -0.04,0.66 h -5.255 c 0.04,0.648 0.26,1.156 0.66,1.524 0.408,0.36 0.9,0.54 1.476,0.54 0.472,0 0.864,-0.108 1.176,-0.324 0.32,-0.224 0.544,-0.52 0.672,-0.888 h 1.176 c -0.176,0.632 -0.528,1.148 -1.056,1.548 -0.528,0.392 -1.184,0.588 -1.968,0.588 -0.624,0 -1.184,-0.14 -1.68,-0.42 -0.488,-0.28 -0.872,-0.676 -1.152,-1.188 -0.28,-0.52 -0.42,-1.12 -0.42,-1.8 0,-0.68 0.136,-1.276 0.408,-1.788 0.272,-0.512 0.652,-0.904 1.14,-1.176 0.496,-0.28 1.064,-0.42 1.704,-0.42 0.624,0 1.176,0.136 1.656,0.408 0.48,0.272 0.848,0.648 1.104,1.128 0.264,0.472 0.399,1.008 0.399,1.608 z m -1.131,-0.228 c 0,-0.416 -0.092,-0.772 -0.276,-1.068 -0.184,-0.304 -0.436,-0.532 -0.756,-0.684 -0.312,-0.16 -0.66,-0.24 -1.044,-0.24 -0.552,0 -1.024,0.176 -1.416,0.528 -0.384,0.352 -0.604,0.84 -0.66,1.464 z m 4.781,3.876 c -0.51,0 -0.96,-0.084 -1.36,-0.252 -0.4,-0.176 -0.72,-0.416 -0.95,-0.72 -0.23,-0.312 -0.36,-0.668 -0.38,-1.068 h 1.13 c 0.03,0.328 0.18,0.596 0.45,0.804 0.28,0.208 0.65,0.312 1.09,0.312 0.42,0 0.75,-0.092 0.99,-0.276 0.24,-0.184 0.36,-0.416 0.36,-0.696 0,-0.288 -0.13,-0.5 -0.39,-0.636 -0.25,-0.144 -0.65,-0.284 -1.18,-0.42 -0.49,-0.128 -0.89,-0.256 -1.2,-0.384 -0.31,-0.136 -0.57,-0.332 -0.8,-0.588 -0.21,-0.264 -0.32,-0.608 -0.32,-1.032 0,-0.336 0.1,-0.644 0.3,-0.924 0.2,-0.28 0.48,-0.5 0.85,-0.66 0.37,-0.168 0.79,-0.252 1.26,-0.252 0.73,0 1.32,0.184 1.77,0.552 0.44,0.368 0.68,0.872 0.72,1.512 h -1.1 c -0.02,-0.344 -0.16,-0.62 -0.42,-0.828 -0.24,-0.208 -0.58,-0.312 -1,-0.312 -0.4,0 -0.71,0.084 -0.94,0.252 -0.23,0.168 -0.35,0.388 -0.35,0.66 0,0.216 0.07,0.396 0.21,0.54 0.14,0.136 0.32,0.248 0.52,0.336 0.22,0.08 0.52,0.172 0.89,0.276 0.47,0.128 0.86,0.256 1.15,0.384 0.3,0.12 0.55,0.304 0.76,0.552 0.22,0.248 0.33,0.572 0.34,0.972 0,0.36 -0.1,0.684 -0.3,0.972 -0.2,0.288 -0.49,0.516 -0.86,0.684 -0.36,0.16 -0.77,0.24 -1.24,0.24 z"
       fill="#560153"
       id="path32" />
    <rect
       x="1001"
       y="487"
       width="87"
       height="28"
       rx="7"
       fill="#d9ddff"
       id="rect32" />
    <path
       d="m 1022.58,505.084 c -0.56,0 -1.05,-0.096 -1.49,-0.288 -0.43,-0.2 -0.77,-0.472 -1.02,-0.816 -0.25,-0.352 -0.38,-0.756 -0.39,-1.212 h 1.17 c 0.04,0.392 0.2,0.724 0.48,0.996 0.29,0.264 0.7,0.396 1.25,0.396 0.52,0 0.92,-0.128 1.22,-0.384 0.3,-0.264 0.46,-0.6 0.46,-1.008 0,-0.32 -0.09,-0.58 -0.27,-0.78 -0.17,-0.2 -0.39,-0.352 -0.66,-0.456 -0.26,-0.104 -0.62,-0.216 -1.07,-0.336 -0.55,-0.144 -0.99,-0.288 -1.33,-0.432 -0.33,-0.144 -0.61,-0.368 -0.85,-0.672 -0.23,-0.312 -0.35,-0.728 -0.35,-1.248 0,-0.456 0.12,-0.86 0.35,-1.212 0.23,-0.352 0.56,-0.624 0.97,-0.816 0.43,-0.192 0.91,-0.288 1.45,-0.288 0.79,0 1.43,0.196 1.92,0.588 0.51,0.392 0.79,0.912 0.86,1.56 h -1.2 c -0.04,-0.32 -0.21,-0.6 -0.51,-0.84 -0.29,-0.248 -0.69,-0.372 -1.17,-0.372 -0.46,0 -0.83,0.12 -1.12,0.36 -0.29,0.232 -0.43,0.56 -0.43,0.984 0,0.304 0.08,0.552 0.25,0.744 0.18,0.192 0.39,0.34 0.64,0.444 0.25,0.096 0.61,0.208 1.06,0.336 0.56,0.152 1,0.304 1.34,0.456 0.33,0.144 0.62,0.372 0.86,0.684 0.24,0.304 0.36,0.72 0.36,1.248 0,0.408 -0.11,0.792 -0.32,1.152 -0.22,0.36 -0.54,0.652 -0.96,0.876 -0.43,0.224 -0.93,0.336 -1.5,0.336 z m 3.86,-3.384 c 0,-0.68 0.13,-1.272 0.41,-1.776 0.27,-0.512 0.64,-0.908 1.12,-1.188 0.49,-0.28 1.05,-0.42 1.67,-0.42 0.81,0 1.47,0.196 1.99,0.588 0.53,0.392 0.88,0.936 1.05,1.632 h -1.18 c -0.11,-0.4 -0.33,-0.716 -0.66,-0.948 -0.32,-0.232 -0.72,-0.348 -1.2,-0.348 -0.62,0 -1.13,0.216 -1.51,0.648 -0.38,0.424 -0.58,1.028 -0.58,1.812 0,0.792 0.2,1.404 0.58,1.836 0.38,0.432 0.89,0.648 1.51,0.648 0.48,0 0.88,-0.112 1.2,-0.336 0.32,-0.224 0.54,-0.544 0.66,-0.96 h 1.18 c -0.18,0.672 -0.53,1.212 -1.06,1.62 -0.53,0.4 -1.19,0.6 -1.98,0.6 -0.62,0 -1.18,-0.14 -1.67,-0.42 -0.48,-0.28 -0.85,-0.676 -1.12,-1.188 -0.28,-0.512 -0.41,-1.112 -0.41,-1.8 z m 10.44,3.408 c -0.61,0 -1.17,-0.14 -1.68,-0.42 -0.49,-0.28 -0.88,-0.676 -1.17,-1.188 -0.28,-0.52 -0.42,-1.12 -0.42,-1.8 0,-0.672 0.14,-1.264 0.43,-1.776 0.3,-0.52 0.7,-0.916 1.2,-1.188 0.5,-0.28 1.07,-0.42 1.69,-0.42 0.63,0 1.19,0.14 1.69,0.42 0.51,0.272 0.9,0.664 1.19,1.176 0.3,0.512 0.45,1.108 0.45,1.788 0,0.68 -0.16,1.28 -0.46,1.8 -0.3,0.512 -0.7,0.908 -1.21,1.188 -0.51,0.28 -1.08,0.42 -1.71,0.42 z m 0,-0.96 c 0.4,0 0.76,-0.092 1.11,-0.276 0.34,-0.184 0.62,-0.46 0.83,-0.828 0.21,-0.368 0.32,-0.816 0.32,-1.344 0,-0.528 -0.1,-0.976 -0.31,-1.344 -0.21,-0.368 -0.48,-0.64 -0.82,-0.816 -0.33,-0.184 -0.7,-0.276 -1.09,-0.276 -0.4,0 -0.77,0.092 -1.1,0.276 -0.33,0.176 -0.6,0.448 -0.8,0.816 -0.2,0.368 -0.3,0.816 -0.3,1.344 0,0.536 0.1,0.988 0.29,1.356 0.2,0.368 0.47,0.644 0.79,0.828 0.33,0.176 0.69,0.264 1.08,0.264 z m 5.78,-8.028 V 505 h -1.09 v -8.88 z m 2.31,1.236 c -0.21,0 -0.39,-0.072 -0.53,-0.216 -0.14,-0.144 -0.22,-0.32 -0.22,-0.528 0,-0.208 0.08,-0.384 0.22,-0.528 0.14,-0.144 0.32,-0.216 0.53,-0.216 0.2,0 0.37,0.072 0.5,0.216 0.15,0.144 0.22,0.32 0.22,0.528 0,0.208 -0.07,0.384 -0.22,0.528 -0.13,0.144 -0.3,0.216 -0.5,0.216 z m 0.53,1.068 V 505 h -1.1 v -6.576 z m 4.61,6.684 c -0.62,0 -1.18,-0.14 -1.68,-0.42 -0.5,-0.28 -0.89,-0.676 -1.18,-1.188 -0.28,-0.52 -0.42,-1.12 -0.42,-1.8 0,-0.672 0.14,-1.264 0.43,-1.776 0.3,-0.52 0.7,-0.916 1.2,-1.188 0.51,-0.28 1.07,-0.42 1.69,-0.42 0.63,0 1.19,0.14 1.7,0.42 0.5,0.272 0.9,0.664 1.18,1.176 0.3,0.512 0.45,1.108 0.45,1.788 0,0.68 -0.15,1.28 -0.46,1.8 -0.29,0.512 -0.7,0.908 -1.21,1.188 -0.51,0.28 -1.08,0.42 -1.7,0.42 z m 0,-0.96 c 0.39,0 0.76,-0.092 1.1,-0.276 0.34,-0.184 0.62,-0.46 0.83,-0.828 0.21,-0.368 0.32,-0.816 0.32,-1.344 0,-0.528 -0.1,-0.976 -0.31,-1.344 -0.21,-0.368 -0.48,-0.64 -0.82,-0.816 -0.33,-0.184 -0.7,-0.276 -1.09,-0.276 -0.4,0 -0.77,0.092 -1.1,0.276 -0.33,0.176 -0.59,0.448 -0.79,0.816 -0.2,0.368 -0.3,0.816 -0.3,1.344 0,0.536 0.09,0.988 0.28,1.356 0.2,0.368 0.47,0.644 0.8,0.828 0.32,0.176 0.68,0.264 1.08,0.264 z m 7.01,0.96 c -0.5,0 -0.95,-0.084 -1.35,-0.252 -0.4,-0.176 -0.72,-0.416 -0.95,-0.72 -0.23,-0.312 -0.36,-0.668 -0.39,-1.068 h 1.13 c 0.03,0.328 0.19,0.596 0.46,0.804 0.28,0.208 0.64,0.312 1.09,0.312 0.42,0 0.74,-0.092 0.98,-0.276 0.24,-0.184 0.36,-0.416 0.36,-0.696 0,-0.288 -0.12,-0.5 -0.38,-0.636 -0.26,-0.144 -0.65,-0.284 -1.19,-0.42 -0.49,-0.128 -0.89,-0.256 -1.2,-0.384 -0.3,-0.136 -0.57,-0.332 -0.79,-0.588 -0.22,-0.264 -0.32,-0.608 -0.32,-1.032 0,-0.336 0.1,-0.644 0.3,-0.924 0.2,-0.28 0.48,-0.5 0.85,-0.66 0.37,-0.168 0.79,-0.252 1.26,-0.252 0.73,0 1.31,0.184 1.76,0.552 0.45,0.368 0.69,0.872 0.72,1.512 h -1.09 c -0.02,-0.344 -0.16,-0.62 -0.42,-0.828 -0.25,-0.208 -0.58,-0.312 -1.01,-0.312 -0.39,0 -0.7,0.084 -0.93,0.252 -0.24,0.168 -0.35,0.388 -0.35,0.66 0,0.216 0.07,0.396 0.2,0.54 0.15,0.136 0.32,0.248 0.53,0.336 0.22,0.08 0.51,0.172 0.89,0.276 0.47,0.128 0.85,0.256 1.15,0.384 0.3,0.12 0.55,0.304 0.76,0.552 0.21,0.248 0.32,0.572 0.33,0.972 0,0.36 -0.1,0.684 -0.3,0.972 -0.2,0.288 -0.48,0.516 -0.85,0.684 -0.36,0.16 -0.78,0.24 -1.25,0.24 z m 4.39,-7.752 c -0.21,0 -0.39,-0.072 -0.53,-0.216 -0.14,-0.144 -0.22,-0.32 -0.22,-0.528 0,-0.208 0.08,-0.384 0.22,-0.528 0.14,-0.144 0.32,-0.216 0.53,-0.216 0.2,0 0.37,0.072 0.5,0.216 0.15,0.144 0.22,0.32 0.22,0.528 0,0.208 -0.07,0.384 -0.22,0.528 -0.13,0.144 -0.3,0.216 -0.5,0.216 z m 0.53,1.068 V 505 h -1.1 v -6.576 z m 4.06,6.684 c -0.5,0 -0.95,-0.084 -1.35,-0.252 -0.4,-0.176 -0.72,-0.416 -0.95,-0.72 -0.23,-0.312 -0.36,-0.668 -0.38,-1.068 h 1.12 c 0.04,0.328 0.19,0.596 0.46,0.804 0.28,0.208 0.64,0.312 1.09,0.312 0.42,0 0.75,-0.092 0.99,-0.276 0.24,-0.184 0.36,-0.416 0.36,-0.696 0,-0.288 -0.13,-0.5 -0.39,-0.636 -0.25,-0.144 -0.65,-0.284 -1.19,-0.42 -0.48,-0.128 -0.88,-0.256 -1.2,-0.384 -0.3,-0.136 -0.56,-0.332 -0.79,-0.588 -0.21,-0.264 -0.32,-0.608 -0.32,-1.032 0,-0.336 0.1,-0.644 0.3,-0.924 0.2,-0.28 0.48,-0.5 0.85,-0.66 0.37,-0.168 0.79,-0.252 1.26,-0.252 0.73,0 1.32,0.184 1.76,0.552 0.45,0.368 0.69,0.872 0.72,1.512 h -1.09 c -0.02,-0.344 -0.16,-0.62 -0.42,-0.828 -0.25,-0.208 -0.58,-0.312 -1.01,-0.312 -0.39,0 -0.7,0.084 -0.93,0.252 -0.23,0.168 -0.35,0.388 -0.35,0.66 0,0.216 0.07,0.396 0.2,0.54 0.15,0.136 0.32,0.248 0.53,0.336 0.22,0.08 0.51,0.172 0.89,0.276 0.47,0.128 0.86,0.256 1.15,0.384 0.3,0.12 0.55,0.304 0.76,0.552 0.21,0.248 0.33,0.572 0.33,0.972 0,0.36 -0.1,0.684 -0.3,0.972 -0.2,0.288 -0.48,0.516 -0.85,0.684 -0.36,0.16 -0.77,0.24 -1.25,0.24 z"
       fill="#560153"
       id="path33" />
    <path
       d="m 852.228,333.27 c 1.036,0 1.941,0.201 2.716,0.602 0.784,0.392 1.386,0.961 1.806,1.708 0.429,0.737 0.644,1.601 0.644,2.59 0,0.989 -0.215,1.848 -0.644,2.576 -0.42,0.728 -1.022,1.288 -1.806,1.68 -0.775,0.383 -1.68,0.574 -2.716,0.574 h -3.178 v -9.73 z m 0,8.428 c 1.139,0 2.011,-0.308 2.618,-0.924 0.607,-0.616 0.91,-1.484 0.91,-2.604 0,-1.129 -0.303,-2.011 -0.91,-2.646 -0.607,-0.635 -1.479,-0.952 -2.618,-0.952 h -1.582 v 7.126 z m 13.678,-2.744 c 0,0.289 -0.019,0.551 -0.056,0.784 h -5.894 c 0.046,0.616 0.275,1.111 0.686,1.484 0.41,0.373 0.914,0.56 1.512,0.56 0.858,0 1.465,-0.359 1.82,-1.078 h 1.722 c -0.234,0.709 -0.658,1.293 -1.274,1.75 -0.607,0.448 -1.363,0.672 -2.268,0.672 -0.738,0 -1.4,-0.163 -1.988,-0.49 -0.579,-0.336 -1.036,-0.803 -1.372,-1.4 -0.327,-0.607 -0.49,-1.307 -0.49,-2.1 0,-0.793 0.158,-1.489 0.476,-2.086 0.326,-0.607 0.779,-1.073 1.358,-1.4 0.588,-0.327 1.26,-0.49 2.016,-0.49 0.728,0 1.376,0.159 1.946,0.476 0.569,0.317 1.012,0.765 1.33,1.344 0.317,0.569 0.476,1.227 0.476,1.974 z m -1.666,-0.504 c -0.01,-0.588 -0.22,-1.059 -0.63,-1.414 -0.411,-0.355 -0.92,-0.532 -1.526,-0.532 -0.551,0 -1.022,0.177 -1.414,0.532 -0.392,0.345 -0.626,0.817 -0.7,1.414 z m 4.958,-1.862 v 4.27 c 0,0.289 0.066,0.499 0.196,0.63 0.14,0.121 0.374,0.182 0.7,0.182 h 0.98 V 343 h -1.26 c -0.718,0 -1.269,-0.168 -1.652,-0.504 -0.382,-0.336 -0.574,-0.882 -0.574,-1.638 v -4.27 h -0.91 v -1.302 h 0.91 v -1.918 h 1.61 v 1.918 h 1.876 v 1.302 z m 2.675,2.52 c 0,-0.775 0.159,-1.461 0.476,-2.058 0.327,-0.597 0.766,-1.059 1.316,-1.386 0.56,-0.336 1.176,-0.504 1.848,-0.504 0.607,0 1.134,0.121 1.582,0.364 0.458,0.233 0.822,0.527 1.092,0.882 v -1.12 h 1.61 V 343 h -1.61 v -1.148 c -0.27,0.364 -0.639,0.667 -1.106,0.91 -0.466,0.243 -0.998,0.364 -1.596,0.364 -0.662,0 -1.269,-0.168 -1.82,-0.504 -0.55,-0.345 -0.989,-0.821 -1.316,-1.428 -0.317,-0.616 -0.476,-1.311 -0.476,-2.086 z m 6.314,0.028 c 0,-0.532 -0.112,-0.994 -0.336,-1.386 -0.214,-0.392 -0.499,-0.691 -0.854,-0.896 -0.354,-0.205 -0.737,-0.308 -1.148,-0.308 -0.41,0 -0.793,0.103 -1.148,0.308 -0.354,0.196 -0.644,0.49 -0.868,0.882 -0.214,0.383 -0.322,0.84 -0.322,1.372 0,0.532 0.108,0.999 0.322,1.4 0.224,0.401 0.514,0.709 0.868,0.924 0.364,0.205 0.747,0.308 1.148,0.308 0.411,0 0.794,-0.103 1.148,-0.308 0.355,-0.205 0.64,-0.504 0.854,-0.896 0.224,-0.401 0.336,-0.868 0.336,-1.4 z m 4.379,-4.872 c -0.29,0 -0.532,-0.098 -0.728,-0.294 -0.196,-0.196 -0.294,-0.439 -0.294,-0.728 0,-0.289 0.098,-0.532 0.294,-0.728 0.196,-0.196 0.438,-0.294 0.728,-0.294 0.28,0 0.518,0.098 0.714,0.294 0.196,0.196 0.294,0.439 0.294,0.728 0,0.289 -0.098,0.532 -0.294,0.728 -0.196,0.196 -0.434,0.294 -0.714,0.294 z m 0.784,1.022 V 343 h -1.596 v -7.714 z m 3.551,-2.646 V 343 h -1.596 v -10.36 z m 4.755,10.486 c -0.606,0 -1.152,-0.107 -1.638,-0.322 -0.476,-0.224 -0.854,-0.523 -1.134,-0.896 -0.28,-0.383 -0.429,-0.807 -0.448,-1.274 h 1.652 c 0.028,0.327 0.182,0.602 0.462,0.826 0.29,0.215 0.649,0.322 1.078,0.322 0.448,0 0.794,-0.084 1.036,-0.252 0.252,-0.177 0.378,-0.401 0.378,-0.672 0,-0.289 -0.14,-0.504 -0.42,-0.644 -0.27,-0.14 -0.704,-0.294 -1.302,-0.462 -0.578,-0.159 -1.05,-0.313 -1.414,-0.462 -0.364,-0.149 -0.681,-0.378 -0.952,-0.686 -0.261,-0.308 -0.392,-0.714 -0.392,-1.218 0,-0.411 0.122,-0.784 0.364,-1.12 0.243,-0.345 0.588,-0.616 1.036,-0.812 0.458,-0.196 0.98,-0.294 1.568,-0.294 0.878,0 1.582,0.224 2.114,0.672 0.542,0.439 0.831,1.041 0.868,1.806 h -1.596 c -0.028,-0.345 -0.168,-0.621 -0.42,-0.826 -0.252,-0.205 -0.592,-0.308 -1.022,-0.308 -0.42,0 -0.742,0.079 -0.966,0.238 -0.224,0.159 -0.336,0.369 -0.336,0.63 0,0.205 0.075,0.378 0.224,0.518 0.15,0.14 0.332,0.252 0.546,0.336 0.215,0.075 0.532,0.173 0.952,0.294 0.56,0.149 1.018,0.303 1.372,0.462 0.364,0.149 0.677,0.373 0.938,0.672 0.262,0.299 0.397,0.695 0.406,1.19 0,0.439 -0.121,0.831 -0.364,1.176 -0.242,0.345 -0.588,0.616 -1.036,0.812 -0.438,0.196 -0.956,0.294 -1.554,0.294 z"
       fill="#560153"
       id="path34" />
    <rect
       x="848"
       y="359"
       width="190"
       height="12"
       rx="6"
       fill="#f2f2f2"
       id="rect34" />
    <rect
       x="848"
       y="378"
       width="140"
       height="12"
       rx="6"
       fill="#f2f2f2"
       id="rect35" />
    <rect
       x="848"
       y="397"
       width="120"
       height="12"
       rx="6"
       fill="#f2f2f2"
       id="rect36" />
    <rect
       x="938"
       y="207"
       width="60"
       height="10"
       rx="5"
       fill="#f2f2f2"
       id="rect37" />
    <rect
       x="1055"
       y="109"
       width="122"
       height="146"
       rx="16"
       fill="#ffbe67"
       id="rect38" />
    <rect
       x="1055"
       y="109"
       width="122"
       height="146"
       rx="16"
       stroke="#ffe999"
       stroke-width="2"
       id="rect39" />
    <path
       d="m 1089.56,211.105 c -0.7,0 -1.33,-0.12 -1.89,-0.36 -0.56,-0.25 -1,-0.6 -1.32,-1.05 -0.32,-0.45 -0.48,-0.975 -0.48,-1.575 h 1.83 c 0.04,0.45 0.22,0.82 0.53,1.11 0.32,0.29 0.76,0.435 1.33,0.435 0.59,0 1.05,-0.14 1.38,-0.42 0.33,-0.29 0.5,-0.66 0.5,-1.11 0,-0.35 -0.11,-0.635 -0.32,-0.855 -0.2,-0.22 -0.45,-0.39 -0.76,-0.51 -0.3,-0.12 -0.72,-0.25 -1.26,-0.39 -0.68,-0.18 -1.24,-0.36 -1.67,-0.54 -0.42,-0.19 -0.78,-0.48 -1.08,-0.87 -0.3,-0.39 -0.45,-0.91 -0.45,-1.56 0,-0.6 0.15,-1.125 0.45,-1.575 0.3,-0.45 0.72,-0.795 1.26,-1.035 0.54,-0.24 1.17,-0.36 1.88,-0.36 1.01,0 1.83,0.255 2.47,0.765 0.65,0.5 1.01,1.19 1.08,2.07 h -1.89 c -0.03,-0.38 -0.21,-0.705 -0.54,-0.975 -0.33,-0.27 -0.76,-0.405 -1.3,-0.405 -0.49,0 -0.89,0.125 -1.2,0.375 -0.31,0.25 -0.47,0.61 -0.47,1.08 0,0.32 0.1,0.585 0.29,0.795 0.2,0.2 0.45,0.36 0.75,0.48 0.3,0.12 0.71,0.25 1.23,0.39 0.69,0.19 1.25,0.38 1.68,0.57 0.44,0.19 0.81,0.485 1.11,0.885 0.31,0.39 0.46,0.915 0.46,1.575 0,0.53 -0.14,1.03 -0.43,1.5 -0.28,0.47 -0.7,0.85 -1.25,1.14 -0.54,0.28 -1.18,0.42 -1.92,0.42 z m 13.04,-4.44 c 0,0.31 -0.02,0.59 -0.06,0.84 h -6.31 c 0.05,0.66 0.29,1.19 0.73,1.59 0.44,0.4 0.98,0.6 1.62,0.6 0.92,0 1.57,-0.385 1.95,-1.155 h 1.85 c -0.25,0.76 -0.71,1.385 -1.37,1.875 -0.65,0.48 -1.46,0.72 -2.43,0.72 -0.79,0 -1.5,-0.175 -2.13,-0.525 -0.62,-0.36 -1.11,-0.86 -1.47,-1.5 -0.35,-0.65 -0.52,-1.4 -0.52,-2.25 0,-0.85 0.17,-1.595 0.51,-2.235 0.35,-0.65 0.83,-1.15 1.45,-1.5 0.63,-0.35 1.35,-0.525 2.16,-0.525 0.78,0 1.48,0.17 2.09,0.51 0.61,0.34 1.08,0.82 1.42,1.44 0.34,0.61 0.51,1.315 0.51,2.115 z m -1.78,-0.54 c -0.01,-0.63 -0.24,-1.135 -0.68,-1.515 -0.44,-0.38 -0.98,-0.57 -1.63,-0.57 -0.59,0 -1.1,0.19 -1.52,0.57 -0.42,0.37 -0.67,0.875 -0.75,1.515 z m 2.75,0.705 c 0,-0.83 0.17,-1.565 0.51,-2.205 0.35,-0.64 0.82,-1.135 1.41,-1.485 0.6,-0.36 1.26,-0.54 1.98,-0.54 0.65,0 1.21,0.13 1.69,0.39 0.49,0.25 0.88,0.565 1.17,0.945 v -1.2 h 1.73 V 211 h -1.73 v -1.23 c -0.29,0.39 -0.68,0.715 -1.18,0.975 -0.5,0.26 -1.07,0.39 -1.71,0.39 -0.71,0 -1.36,-0.18 -1.95,-0.54 -0.59,-0.37 -1.06,-0.88 -1.41,-1.53 -0.34,-0.66 -0.51,-1.405 -0.51,-2.235 z m 6.76,0.03 c 0,-0.57 -0.12,-1.065 -0.36,-1.485 -0.23,-0.42 -0.53,-0.74 -0.91,-0.96 -0.38,-0.22 -0.79,-0.33 -1.23,-0.33 -0.44,0 -0.85,0.11 -1.23,0.33 -0.38,0.21 -0.69,0.525 -0.93,0.945 -0.23,0.41 -0.35,0.9 -0.35,1.47 0,0.57 0.12,1.07 0.35,1.5 0.24,0.43 0.55,0.76 0.93,0.99 0.39,0.22 0.8,0.33 1.23,0.33 0.44,0 0.85,-0.11 1.23,-0.33 0.38,-0.22 0.68,-0.54 0.91,-0.96 0.24,-0.43 0.36,-0.93 0.36,-1.5 z m 7.29,-2.73 h -1.53 V 211 h -1.73 v -6.87 h -0.97 v -1.395 h 0.97 v -0.585 c 0,-0.95 0.25,-1.64 0.75,-2.07 0.51,-0.44 1.31,-0.66 2.39,-0.66 v 1.425 c -0.52,0 -0.89,0.1 -1.1,0.3 -0.21,0.19 -0.31,0.525 -0.31,1.005 v 0.585 h 1.53 z m 4.95,7.005 c -0.78,0 -1.49,-0.175 -2.12,-0.525 -0.63,-0.36 -1.12,-0.86 -1.48,-1.5 -0.36,-0.65 -0.54,-1.4 -0.54,-2.25 0,-0.84 0.18,-1.585 0.55,-2.235 0.37,-0.65 0.88,-1.15 1.52,-1.5 0.64,-0.35 1.35,-0.525 2.14,-0.525 0.79,0 1.51,0.175 2.15,0.525 0.64,0.35 1.14,0.85 1.51,1.5 0.37,0.65 0.56,1.395 0.56,2.235 0,0.84 -0.19,1.585 -0.57,2.235 -0.38,0.65 -0.9,1.155 -1.56,1.515 -0.65,0.35 -1.37,0.525 -2.16,0.525 z m 0,-1.485 c 0.44,0 0.85,-0.105 1.23,-0.315 0.39,-0.21 0.7,-0.525 0.94,-0.945 0.24,-0.42 0.36,-0.93 0.36,-1.53 0,-0.6 -0.11,-1.105 -0.34,-1.515 -0.23,-0.42 -0.54,-0.735 -0.92,-0.945 -0.38,-0.21 -0.79,-0.315 -1.23,-0.315 -0.44,0 -0.85,0.105 -1.23,0.315 -0.37,0.21 -0.66,0.525 -0.88,0.945 -0.22,0.41 -0.33,0.915 -0.33,1.515 0,0.89 0.22,1.58 0.67,2.07 0.46,0.48 1.04,0.72 1.73,0.72 z m 9.41,1.485 c -0.78,0 -1.48,-0.175 -2.11,-0.525 -0.63,-0.36 -1.13,-0.86 -1.49,-1.5 -0.36,-0.65 -0.54,-1.4 -0.54,-2.25 0,-0.84 0.19,-1.585 0.56,-2.235 0.37,-0.65 0.87,-1.15 1.51,-1.5 0.64,-0.35 1.36,-0.525 2.15,-0.525 0.79,0 1.5,0.175 2.14,0.525 0.64,0.35 1.15,0.85 1.52,1.5 0.37,0.65 0.55,1.395 0.55,2.235 0,0.84 -0.19,1.585 -0.57,2.235 -0.38,0.65 -0.9,1.155 -1.56,1.515 -0.65,0.35 -1.37,0.525 -2.16,0.525 z m 0,-1.485 c 0.44,0 0.85,-0.105 1.23,-0.315 0.39,-0.21 0.71,-0.525 0.95,-0.945 0.24,-0.42 0.36,-0.93 0.36,-1.53 0,-0.6 -0.12,-1.105 -0.35,-1.515 -0.23,-0.42 -0.53,-0.735 -0.91,-0.945 -0.38,-0.21 -0.79,-0.315 -1.23,-0.315 -0.44,0 -0.85,0.105 -1.23,0.315 -0.37,0.21 -0.67,0.525 -0.89,0.945 -0.22,0.41 -0.33,0.915 -0.33,1.515 0,0.89 0.23,1.58 0.68,2.07 0.46,0.48 1.03,0.72 1.72,0.72 z m 5.26,-2.82 c 0,-0.83 0.17,-1.565 0.51,-2.205 0.35,-0.64 0.82,-1.135 1.41,-1.485 0.6,-0.36 1.27,-0.54 2,-0.54 0.54,0 1.07,0.12 1.59,0.36 0.53,0.23 0.95,0.54 1.26,0.93 v -3.99 h 1.72 V 211 h -1.72 v -1.245 c -0.28,0.4 -0.67,0.73 -1.17,0.99 -0.49,0.26 -1.06,0.39 -1.7,0.39 -0.72,0 -1.38,-0.18 -1.98,-0.54 -0.59,-0.37 -1.06,-0.88 -1.41,-1.53 -0.34,-0.66 -0.51,-1.405 -0.51,-2.235 z m 6.77,0.03 c 0,-0.57 -0.12,-1.065 -0.36,-1.485 -0.23,-0.42 -0.54,-0.74 -0.92,-0.96 -0.38,-0.22 -0.79,-0.33 -1.23,-0.33 -0.44,0 -0.85,0.11 -1.23,0.33 -0.38,0.21 -0.69,0.525 -0.93,0.945 -0.23,0.41 -0.34,0.9 -0.34,1.47 0,0.57 0.11,1.07 0.34,1.5 0.24,0.43 0.55,0.76 0.93,0.99 0.39,0.22 0.8,0.33 1.23,0.33 0.44,0 0.85,-0.11 1.23,-0.33 0.38,-0.22 0.69,-0.54 0.92,-0.96 0.24,-0.43 0.36,-0.93 0.36,-1.5 z"
       fill="#560153"
       id="path39" />
    <path
       d="m 1101.87,227.14 h -3.65 l -0.67,1.86 h -1.15 l 3.02,-8.316 h 1.26 l 3.01,8.316 h -1.15 z m -0.31,-0.888 -1.52,-4.224 -1.51,4.224 z m 4.42,-6.132 V 229 h -1.09 v -8.88 z m 2.84,0 V 229 h -1.1 v -8.88 z m 7.74,5.34 c 0,0.208 -0.02,0.428 -0.04,0.66 h -5.26 c 0.04,0.648 0.26,1.156 0.66,1.524 0.41,0.36 0.9,0.54 1.48,0.54 0.47,0 0.86,-0.108 1.18,-0.324 0.32,-0.224 0.54,-0.52 0.67,-0.888 h 1.17 c -0.17,0.632 -0.52,1.148 -1.05,1.548 -0.53,0.392 -1.19,0.588 -1.97,0.588 -0.62,0 -1.18,-0.14 -1.68,-0.42 -0.49,-0.28 -0.87,-0.676 -1.15,-1.188 -0.28,-0.52 -0.42,-1.12 -0.42,-1.8 0,-0.68 0.13,-1.276 0.41,-1.788 0.27,-0.512 0.65,-0.904 1.14,-1.176 0.49,-0.28 1.06,-0.42 1.7,-0.42 0.62,0 1.18,0.136 1.66,0.408 0.48,0.272 0.84,0.648 1.1,1.128 0.26,0.472 0.4,1.008 0.4,1.608 z m -1.13,-0.228 c 0,-0.416 -0.09,-0.772 -0.28,-1.068 -0.18,-0.304 -0.43,-0.532 -0.75,-0.684 -0.32,-0.16 -0.66,-0.24 -1.05,-0.24 -0.55,0 -1.02,0.176 -1.41,0.528 -0.39,0.352 -0.61,0.84 -0.66,1.464 z m 3.54,-1.74 c 0.19,-0.376 0.46,-0.668 0.82,-0.876 0.36,-0.208 0.79,-0.312 1.3,-0.312 v 1.128 h -0.28 c -1.23,0 -1.84,0.664 -1.84,1.992 V 229 h -1.09 v -6.576 h 1.09 z m 5.98,-1.176 c 0.56,0 1.06,0.124 1.48,0.372 0.44,0.248 0.76,0.56 0.96,0.936 v -1.2 h 1.11 v 6.72 c 0,0.6 -0.13,1.132 -0.39,1.596 -0.25,0.472 -0.62,0.84 -1.1,1.104 -0.47,0.264 -1.02,0.396 -1.66,0.396 -0.86,0 -1.58,-0.204 -2.16,-0.612 -0.57,-0.408 -0.91,-0.964 -1.02,-1.668 h 1.08 c 0.12,0.4 0.37,0.72 0.75,0.96 0.37,0.248 0.83,0.372 1.35,0.372 0.6,0 1.09,-0.188 1.47,-0.564 0.38,-0.376 0.57,-0.904 0.57,-1.584 v -1.38 c -0.21,0.384 -0.53,0.704 -0.96,0.96 -0.42,0.256 -0.92,0.384 -1.48,0.384 -0.59,0 -1.12,-0.144 -1.6,-0.432 -0.47,-0.288 -0.84,-0.692 -1.12,-1.212 -0.27,-0.52 -0.4,-1.112 -0.4,-1.776 0,-0.672 0.13,-1.26 0.4,-1.764 0.28,-0.512 0.65,-0.908 1.12,-1.188 0.48,-0.28 1.01,-0.42 1.6,-0.42 z m 2.44,3.384 c 0,-0.496 -0.1,-0.928 -0.3,-1.296 -0.2,-0.368 -0.47,-0.648 -0.81,-0.84 -0.34,-0.2 -0.71,-0.3 -1.12,-0.3 -0.41,0 -0.78,0.096 -1.11,0.288 -0.34,0.192 -0.61,0.472 -0.81,0.84 -0.2,0.368 -0.3,0.8 -0.3,1.296 0,0.504 0.1,0.944 0.3,1.32 0.2,0.368 0.47,0.652 0.81,0.852 0.33,0.192 0.7,0.288 1.11,0.288 0.41,0 0.78,-0.096 1.12,-0.288 0.34,-0.2 0.61,-0.484 0.81,-0.852 0.2,-0.376 0.3,-0.812 0.3,-1.308 z m 8.5,-3.276 -3.96,9.672 h -1.13 l 1.3,-3.168 -2.66,-6.504 h 1.22 l 2.06,5.328 2.04,-5.328 z"
       fill="#fffae8"
       id="path40" />
    <rect
       x="1090"
       y="130"
       width="52"
       height="52"
       rx="26"
       fill="#ffe999"
       id="rect40" />
    <g
       clip-path="url(#clip4_670_9220)"
       id="g45">
      <path
         d="m 1122.5,162.5 c -3,-6 0.5,-11 0,-11.5 -4.4,-2.8 -12.17,2.833 -15.5,6 7.5,8.5 15,6.5 15.5,5.5 z"
         fill="#9ea9fd"
         id="path41" />
      <path
         d="m 1123.25,150.92 c -1.45,1.691 -2.25,3.849 -2.25,6.08 0,2.329 0.85,4.46 2.27,6.095"
         stroke="#181818"
         stroke-width="1.5"
         stroke-linecap="round"
         stroke-linejoin="round"
         id="path42" />
      <path
         d="m 1103.67,153.67 c 10.28,11.529 19.66,13.687 26.66,3.331 -7,-10.348 -16.38,-8.19 -26.66,3.338"
         stroke="#181818"
         stroke-width="1.5"
         stroke-linecap="round"
         stroke-linejoin="round"
         id="path43" />
      <path
         d="m 1125,155.666 v 0.013"
         stroke="#181818"
         stroke-width="1.5"
         stroke-linecap="round"
         stroke-linejoin="round"
         id="path44" />
      <path
         d="m 1116.33,155 c -0.88,1.333 -0.88,2.667 0,4"
         stroke="#181818"
         stroke-width="1.5"
         stroke-linecap="round"
         stroke-linejoin="round"
         id="path45" />
    </g>
    <rect
       x="1137"
       y="283"
       width="122"
       height="146"
       rx="16"
       fill="#ffe999"
       id="rect45" />
    <rect
       x="1137"
       y="283"
       width="122"
       height="146"
       rx="16"
       stroke="#fffae8"
       stroke-width="2"
       id="rect46" />
    <path
       d="m 1175.42,377.68 c 0,0.53 -0.13,1.03 -0.38,1.5 -0.25,0.47 -0.65,0.855 -1.2,1.155 -0.55,0.29 -1.25,0.435 -2.11,0.435 h -1.89 V 385 h -1.71 v -10.425 h 3.6 c 0.8,0 1.47,0.14 2.02,0.42 0.56,0.27 0.98,0.64 1.25,1.11 0.28,0.47 0.42,0.995 0.42,1.575 z m -3.69,1.695 c 0.65,0 1.13,-0.145 1.45,-0.435 0.32,-0.3 0.48,-0.72 0.48,-1.26 0,-1.14 -0.64,-1.71 -1.93,-1.71 h -1.89 v 3.405 z m 12.74,1.29 c 0,0.31 -0.02,0.59 -0.06,0.84 h -6.31 c 0.05,0.66 0.29,1.19 0.73,1.59 0.44,0.4 0.98,0.6 1.62,0.6 0.92,0 1.57,-0.385 1.95,-1.155 h 1.85 c -0.25,0.76 -0.71,1.385 -1.37,1.875 -0.65,0.48 -1.46,0.72 -2.43,0.72 -0.79,0 -1.5,-0.175 -2.13,-0.525 -0.62,-0.36 -1.11,-0.86 -1.47,-1.5 -0.35,-0.65 -0.52,-1.4 -0.52,-2.25 0,-0.85 0.17,-1.595 0.51,-2.235 0.35,-0.65 0.83,-1.15 1.45,-1.5 0.63,-0.35 1.35,-0.525 2.16,-0.525 0.78,0 1.48,0.17 2.09,0.51 0.61,0.34 1.08,0.82 1.42,1.44 0.34,0.61 0.51,1.315 0.51,2.115 z m -1.78,-0.54 c -0.01,-0.63 -0.24,-1.135 -0.68,-1.515 -0.44,-0.38 -0.98,-0.57 -1.63,-0.57 -0.59,0 -1.1,0.19 -1.52,0.57 -0.42,0.37 -0.67,0.875 -0.75,1.515 z m 7.48,-3.525 c 0.65,0 1.23,0.135 1.74,0.405 0.52,0.27 0.93,0.67 1.22,1.2 0.29,0.53 0.43,1.17 0.43,1.92 V 385 h -1.69 v -4.62 c 0,-0.74 -0.19,-1.305 -0.56,-1.695 -0.37,-0.4 -0.87,-0.6 -1.51,-0.6 -0.64,0 -1.15,0.2 -1.53,0.6 -0.37,0.39 -0.56,0.955 -0.56,1.695 V 385 H 1186 v -8.265 h 1.71 v 0.945 c 0.28,-0.34 0.64,-0.605 1.07,-0.795 0.44,-0.19 0.9,-0.285 1.39,-0.285 z m 6.29,-0.96 c -0.31,0 -0.57,-0.105 -0.78,-0.315 -0.21,-0.21 -0.31,-0.47 -0.31,-0.78 0,-0.31 0.1,-0.57 0.31,-0.78 0.21,-0.21 0.47,-0.315 0.78,-0.315 0.3,0 0.56,0.105 0.77,0.315 0.21,0.21 0.31,0.47 0.31,0.78 0,0.31 -0.1,0.57 -0.31,0.78 -0.21,0.21 -0.47,0.315 -0.77,0.315 z m 0.84,1.095 V 385 h -1.71 v -8.265 z m 1.53,4.125 c 0,-0.85 0.17,-1.595 0.51,-2.235 0.35,-0.65 0.83,-1.15 1.44,-1.5 0.61,-0.35 1.31,-0.525 2.1,-0.525 1,0 1.82,0.24 2.48,0.72 0.66,0.47 1.1,1.145 1.33,2.025 h -1.85 c -0.15,-0.41 -0.39,-0.73 -0.72,-0.96 -0.33,-0.23 -0.74,-0.345 -1.24,-0.345 -0.7,0 -1.26,0.25 -1.68,0.75 -0.41,0.49 -0.62,1.18 -0.62,2.07 0,0.89 0.21,1.585 0.62,2.085 0.42,0.5 0.98,0.75 1.68,0.75 0.99,0 1.64,-0.435 1.96,-1.305 h 1.85 c -0.24,0.84 -0.69,1.51 -1.35,2.01 -0.66,0.49 -1.48,0.735 -2.46,0.735 -0.79,0 -1.49,-0.175 -2.1,-0.525 -0.61,-0.36 -1.09,-0.86 -1.44,-1.5 -0.34,-0.65 -0.51,-1.4 -0.51,-2.25 z m 10.28,-5.22 c -0.31,0 -0.57,-0.105 -0.78,-0.315 -0.21,-0.21 -0.31,-0.47 -0.31,-0.78 0,-0.31 0.1,-0.57 0.31,-0.78 0.21,-0.21 0.47,-0.315 0.78,-0.315 0.3,0 0.56,0.105 0.77,0.315 0.21,0.21 0.31,0.47 0.31,0.78 0,0.31 -0.1,0.57 -0.31,0.78 -0.21,0.21 -0.47,0.315 -0.77,0.315 z m 0.84,1.095 V 385 h -1.71 v -8.265 z m 3.81,-2.835 V 385 h -1.71 v -11.1 z m 3.8,0 V 385 h -1.71 v -11.1 z m 2.97,1.74 c -0.31,0 -0.57,-0.105 -0.78,-0.315 -0.21,-0.21 -0.32,-0.47 -0.32,-0.78 0,-0.31 0.11,-0.57 0.32,-0.78 0.21,-0.21 0.47,-0.315 0.78,-0.315 0.3,0 0.55,0.105 0.76,0.315 0.21,0.21 0.32,0.47 0.32,0.78 0,0.31 -0.11,0.57 -0.32,0.78 -0.21,0.21 -0.46,0.315 -0.76,0.315 z m 0.84,1.095 V 385 h -1.71 v -8.265 z m 6.26,-0.135 c 0.65,0 1.23,0.135 1.74,0.405 0.52,0.27 0.93,0.67 1.22,1.2 0.29,0.53 0.43,1.17 0.43,1.92 V 385 h -1.69 v -4.62 c 0,-0.74 -0.19,-1.305 -0.56,-1.695 -0.37,-0.4 -0.87,-0.6 -1.51,-0.6 -0.64,0 -1.15,0.2 -1.53,0.6 -0.37,0.39 -0.56,0.955 -0.56,1.695 V 385 h -1.71 v -8.265 h 1.71 v 0.945 c 0.28,-0.34 0.64,-0.605 1.07,-0.795 0.44,-0.19 0.9,-0.285 1.39,-0.285 z"
       fill="#560153"
       id="path46" />
    <path
       d="m 1183.87,401.14 h -3.65 l -0.67,1.86 h -1.15 l 3.02,-8.316 h 1.26 l 3.01,8.316 h -1.15 z m -0.31,-0.888 -1.52,-4.224 -1.51,4.224 z m 4.42,-6.132 V 403 h -1.09 v -8.88 z m 2.84,0 V 403 h -1.1 v -8.88 z m 7.74,5.34 c 0,0.208 -0.02,0.428 -0.04,0.66 h -5.26 c 0.04,0.648 0.26,1.156 0.66,1.524 0.41,0.36 0.9,0.54 1.48,0.54 0.47,0 0.86,-0.108 1.18,-0.324 0.32,-0.224 0.54,-0.52 0.67,-0.888 h 1.17 c -0.17,0.632 -0.52,1.148 -1.05,1.548 -0.53,0.392 -1.19,0.588 -1.97,0.588 -0.62,0 -1.18,-0.14 -1.68,-0.42 -0.49,-0.28 -0.87,-0.676 -1.15,-1.188 -0.28,-0.52 -0.42,-1.12 -0.42,-1.8 0,-0.68 0.13,-1.276 0.41,-1.788 0.27,-0.512 0.65,-0.904 1.14,-1.176 0.49,-0.28 1.06,-0.42 1.7,-0.42 0.62,0 1.18,0.136 1.66,0.408 0.48,0.272 0.84,0.648 1.1,1.128 0.26,0.472 0.4,1.008 0.4,1.608 z m -1.13,-0.228 c 0,-0.416 -0.09,-0.772 -0.28,-1.068 -0.18,-0.304 -0.43,-0.532 -0.75,-0.684 -0.32,-0.16 -0.66,-0.24 -1.05,-0.24 -0.55,0 -1.02,0.176 -1.41,0.528 -0.39,0.352 -0.61,0.84 -0.66,1.464 z m 3.54,-1.74 c 0.19,-0.376 0.46,-0.668 0.82,-0.876 0.36,-0.208 0.79,-0.312 1.3,-0.312 v 1.128 h -0.28 c -1.23,0 -1.84,0.664 -1.84,1.992 V 403 h -1.09 v -6.576 h 1.09 z m 5.98,-1.176 c 0.56,0 1.06,0.124 1.48,0.372 0.44,0.248 0.76,0.56 0.96,0.936 v -1.2 h 1.11 v 6.72 c 0,0.6 -0.13,1.132 -0.39,1.596 -0.25,0.472 -0.62,0.84 -1.1,1.104 -0.47,0.264 -1.02,0.396 -1.66,0.396 -0.86,0 -1.58,-0.204 -2.16,-0.612 -0.57,-0.408 -0.91,-0.964 -1.02,-1.668 h 1.08 c 0.12,0.4 0.37,0.72 0.75,0.96 0.37,0.248 0.83,0.372 1.35,0.372 0.6,0 1.09,-0.188 1.47,-0.564 0.38,-0.376 0.57,-0.904 0.57,-1.584 v -1.38 c -0.21,0.384 -0.53,0.704 -0.96,0.96 -0.42,0.256 -0.92,0.384 -1.48,0.384 -0.59,0 -1.12,-0.144 -1.6,-0.432 -0.47,-0.288 -0.84,-0.692 -1.12,-1.212 -0.27,-0.52 -0.4,-1.112 -0.4,-1.776 0,-0.672 0.13,-1.26 0.4,-1.764 0.28,-0.512 0.65,-0.908 1.12,-1.188 0.48,-0.28 1.01,-0.42 1.6,-0.42 z m 2.44,3.384 c 0,-0.496 -0.1,-0.928 -0.3,-1.296 -0.2,-0.368 -0.47,-0.648 -0.81,-0.84 -0.34,-0.2 -0.71,-0.3 -1.12,-0.3 -0.41,0 -0.78,0.096 -1.11,0.288 -0.34,0.192 -0.61,0.472 -0.81,0.84 -0.2,0.368 -0.3,0.8 -0.3,1.296 0,0.504 0.1,0.944 0.3,1.32 0.2,0.368 0.47,0.652 0.81,0.852 0.33,0.192 0.7,0.288 1.11,0.288 0.41,0 0.78,-0.096 1.12,-0.288 0.34,-0.2 0.61,-0.484 0.81,-0.852 0.2,-0.376 0.3,-0.812 0.3,-1.308 z m 8.5,-3.276 -3.96,9.672 h -1.13 l 1.3,-3.168 -2.66,-6.504 h 1.22 l 2.06,5.328 2.04,-5.328 z"
       fill="#c67dff"
       id="path47" />
    <rect
       x="1172"
       y="304"
       width="52"
       height="52"
       rx="26"
       fill="#fffae8"
       id="rect47" />
    <g
       clip-path="url(#clip5_670_9220)"
       id="g52">
      <rect
         x="1192"
         y="330"
         width="13"
         height="8"
         fill="#c67dff"
         id="rect48" />
      <path
         d="m 1194,319.333 c 0,-0.353 0.14,-0.692 0.39,-0.942 0.25,-0.251 0.59,-0.391 0.94,-0.391 h 5.34 c 0.35,0 0.69,0.14 0.94,0.391 0.25,0.25 0.39,0.589 0.39,0.942 v 1.334 c 0,0.353 -0.14,0.692 -0.39,0.942 -0.25,0.251 -0.59,0.391 -0.94,0.391 h -5.34 c -0.35,0 -0.69,-0.14 -0.94,-0.391 -0.25,-0.25 -0.39,-0.589 -0.39,-0.942 z"
         stroke="#000000"
         stroke-width="1.5"
         stroke-linecap="round"
         stroke-linejoin="round"
         id="path48" />
      <path
         d="m 1195.33,322 v 1.307 c 0,1.169 -0.84,2.168 -2,2.36 -1.15,0.192 -2,1.19 -2,2.36 v 11.306 c 0,0.708 0.28,1.386 0.78,1.886 0.5,0.5 1.18,0.781 1.89,0.781 h 8 c 0.71,0 1.38,-0.281 1.88,-0.781 0.5,-0.5 0.79,-1.178 0.79,-1.886 v -11.306 c 0,-1.17 -0.85,-2.168 -2,-2.36 -0.56,-0.093 -1.07,-0.382 -1.44,-0.814 -0.36,-0.432 -0.56,-0.98 -0.56,-1.546 V 322"
         stroke="#000000"
         stroke-width="1.5"
         stroke-linecap="round"
         stroke-linejoin="round"
         id="path49" />
      <path
         d="m 1191.33,330 h 13.34"
         stroke="#000000"
         stroke-width="1.5"
         stroke-linecap="round"
         stroke-linejoin="round"
         id="path50" />
      <path
         d="m 1191.33,338 h 13.34"
         stroke="#000000"
         stroke-width="1.5"
         stroke-linecap="round"
         stroke-linejoin="round"
         id="path51" />
      <path
         d="m 1196.67,334 h 2.66"
         stroke="#000000"
         stroke-width="1.5"
         stroke-linecap="round"
         stroke-linejoin="round"
         id="path52" />
    </g>
  </g>
  <defs
     id="defs57">
    <clipPath
       id="clip0_670_9220">
      <rect
         width="24"
         height="24"
         fill="#ffffff"
         transform="translate(108,96)"
         id="rect52"
         x="0"
         y="0" />
    </clipPath>
    <clipPath
       id="clip1_670_9220">
      <rect
         width="24"
         height="24"
         fill="#ffffff"
         transform="translate(876,253)"
         id="rect53"
         x="0"
         y="0" />
    </clipPath>
    <clipPath
       id="clip2_670_9220">
      <rect
         width="24"
         height="24"
         fill="#ffffff"
         transform="translate(956,253)"
         id="rect54"
         x="0"
         y="0" />
    </clipPath>
    <clipPath
       id="clip3_670_9220">
      <rect
         width="24"
         height="24"
         fill="#ffffff"
         transform="translate(1036,253)"
         id="rect55"
         x="0"
         y="0" />
    </clipPath>
    <clipPath
       id="clip4_670_9220">
      <rect
         width="32"
         height="32"
         fill="#ffffff"
         transform="translate(1101,141)"
         id="rect56"
         x="0"
         y="0" />
    </clipPath>
    <clipPath
       id="clip5_670_9220">
      <rect
         width="32"
         height="32"
         fill="#ffffff"
         transform="translate(1182,314)"
         id="rect57"
         x="0"
         y="0" />
    </clipPath>
  </defs>
</svg>
