<svg width="768" height="768" fill="none" xmlns="http://www.w3.org/2000/svg"><rect width="768" height="768" rx="32" fill="#eddeff" style="stroke-width:.848943;fill:#e5dbff;fill-opacity:1" ry="32"/><path stroke="#c67dff" stroke-width="2.518" stroke-linecap="round" stroke-dasharray="0.25, 6" d="M138.128 198.5h183.233m116.898-.241h183.234"/><rect x="414.5" y="289.5" width="299" height="299" rx="15.5" fill="#fffae8"/><rect x="414.5" y="289.5" width="299" height="299" rx="15.5" stroke="#ffbe67"/><rect x="424" y="299" width="280" height="280" rx="10" fill="#fff"/><path d="M447.402 321.146v3.672h4.32v1.674h-4.32v3.834h4.86V332h-6.912v-12.528h6.912v1.674zm11.365 2.61h-1.836V332h-2.07v-8.244h-1.17v-1.674h1.17v-.702c0-1.14.3-1.968.9-2.484.612-.528 1.566-.792 2.862-.792v1.71c-.624 0-1.062.12-1.314.36-.252.228-.378.63-.378 1.206v.702h1.836zm5.797 0h-1.836V332h-2.07v-8.244h-1.17v-1.674h1.17v-.702c0-1.14.3-1.968.9-2.484.612-.528 1.566-.792 2.862-.792v1.71c-.624 0-1.062.12-1.314.36-.252.228-.378.63-.378 1.206v.702h1.836zm10.729 3.042c0 .372-.024.708-.072 1.008h-7.578c.06.792.354 1.428.882 1.908s1.176.72 1.944.72c1.104 0 1.884-.462 2.34-1.386h2.214a4.498 4.498 0 0 1-1.638 2.25c-.78.576-1.752.864-2.916.864-.948 0-1.8-.21-2.556-.63a4.708 4.708 0 0 1-1.764-1.8c-.42-.78-.63-1.68-.63-2.7 0-1.02.204-1.914.612-2.682a4.428 4.428 0 0 1 1.746-1.8c.756-.42 1.62-.63 2.592-.63.936 0 1.77.204 2.502.612a4.31 4.31 0 0 1 1.71 1.728c.408.732.612 1.578.612 2.538zm-2.142-.648c-.012-.756-.282-1.362-.81-1.818-.528-.456-1.182-.684-1.962-.684-.708 0-1.314.228-1.818.684-.504.444-.804 1.05-.9 1.818zm3.297.882c0-1.02.204-1.914.612-2.682.42-.78.996-1.38 1.728-1.8.732-.42 1.572-.63 2.52-.63 1.2 0 2.19.288 2.97.864.792.564 1.326 1.374 1.602 2.43h-2.214a2.341 2.341 0 0 0-.864-1.152c-.396-.276-.894-.414-1.494-.414-.84 0-1.512.3-2.016.9-.492.588-.738 1.416-.738 2.484s.246 1.902.738 2.502c.504.6 1.176.9 2.016.9 1.188 0 1.974-.522 2.358-1.566h2.214c-.288 1.008-.828 1.812-1.62 2.412-.792.588-1.776.882-2.952.882-.948 0-1.788-.21-2.52-.63a4.62 4.62 0 0 1-1.728-1.8c-.408-.78-.612-1.68-.612-2.7zm13.691-3.276v5.49c0 .372.084.642.252.81.18.156.48.234.9.234h1.26V332h-1.62c-.924 0-1.632-.216-2.124-.648-.492-.432-.738-1.134-.738-2.106v-5.49h-1.17v-1.674h1.17v-2.466h2.07v2.466h2.412v1.674zm12.921 8.406c-.936 0-1.782-.21-2.538-.63a4.67 4.67 0 0 1-1.782-1.8c-.432-.78-.648-1.68-.648-2.7 0-1.008.222-1.902.666-2.682a4.6 4.6 0 0 1 1.818-1.8c.768-.42 1.626-.63 2.574-.63s1.806.21 2.574.63a4.6 4.6 0 0 1 1.818 1.8c.444.78.666 1.674.666 2.682s-.228 1.902-.684 2.682a4.783 4.783 0 0 1-1.872 1.818c-.78.42-1.644.63-2.592.63zm0-1.782c.528 0 1.02-.126 1.476-.378.468-.252.846-.63 1.134-1.134.288-.504.432-1.116.432-1.836s-.138-1.326-.414-1.818c-.276-.504-.642-.882-1.098-1.134a3.003 3.003 0 0 0-1.476-.378c-.528 0-1.02.126-1.476.378-.444.252-.798.63-1.062 1.134-.264.492-.396 1.098-.396 1.818 0 1.068.27 1.896.81 2.484.552.576 1.242.864 2.07.864zm12-8.46c.78 0 1.476.162 2.088.486.624.324 1.11.804 1.458 1.44.348.636.522 1.404.522 2.304V332h-2.034v-5.544c0-.888-.222-1.566-.666-2.034-.444-.48-1.05-.72-1.818-.72s-1.38.24-1.836.72c-.444.468-.666 1.146-.666 2.034V332h-2.052v-9.918h2.052v1.134a3.412 3.412 0 0 1 1.278-.954 4.178 4.178 0 0 1 1.674-.342zm13.054 1.638c.348-.48.822-.87 1.422-1.17a4.413 4.413 0 0 1 2.034-.468c.876 0 1.668.21 2.376.63.708.42 1.266 1.02 1.674 1.8.408.768.612 1.65.612 2.646s-.204 1.89-.612 2.682a4.63 4.63 0 0 1-1.692 1.836 4.439 4.439 0 0 1-2.358.648c-.768 0-1.452-.15-2.052-.45-.588-.3-1.056-.684-1.404-1.152V332h-2.052v-13.32h2.052zm6.03 3.438c0-.684-.144-1.272-.432-1.764a2.748 2.748 0 0 0-1.116-1.134 2.896 2.896 0 0 0-1.476-.396 2.96 2.96 0 0 0-1.476.396 3.033 3.033 0 0 0-1.116 1.152c-.276.504-.414 1.098-.414 1.782 0 .684.138 1.284.414 1.8.288.504.66.888 1.116 1.152.468.264.96.396 1.476.396.528 0 1.02-.132 1.476-.396.468-.276.84-.672 1.116-1.188.288-.516.432-1.116.432-1.8zm5.989-8.316V332h-2.052v-13.32zm6.816 13.482c-.936 0-1.782-.21-2.538-.63a4.67 4.67 0 0 1-1.782-1.8c-.432-.78-.648-1.68-.648-2.7 0-1.008.222-1.902.666-2.682a4.6 4.6 0 0 1 1.818-1.8c.768-.42 1.626-.63 2.574-.63s1.806.21 2.574.63a4.6 4.6 0 0 1 1.818 1.8c.444.78.666 1.674.666 2.682s-.228 1.902-.684 2.682a4.783 4.783 0 0 1-1.872 1.818c-.78.42-1.644.63-2.592.63zm0-1.782c.528 0 1.02-.126 1.476-.378.468-.252.846-.63 1.134-1.134.288-.504.432-1.116.432-1.836s-.138-1.326-.414-1.818c-.276-.504-.642-.882-1.098-1.134a3.003 3.003 0 0 0-1.476-.378c-.528 0-1.02.126-1.476.378-.444.252-.798.63-1.062 1.134-.264.492-.396 1.098-.396 1.818 0 1.068.27 1.896.81 2.484.552.576 1.242.864 2.07.864zm11.299 1.782c-.936 0-1.782-.21-2.538-.63a4.67 4.67 0 0 1-1.782-1.8c-.432-.78-.648-1.68-.648-2.7 0-1.008.222-1.902.666-2.682a4.6 4.6 0 0 1 1.818-1.8c.768-.42 1.626-.63 2.574-.63s1.806.21 2.574.63a4.6 4.6 0 0 1 1.818 1.8c.444.78.666 1.674.666 2.682s-.228 1.902-.684 2.682a4.783 4.783 0 0 1-1.872 1.818c-.78.42-1.644.63-2.592.63zm0-1.782c.528 0 1.02-.126 1.476-.378.468-.252.846-.63 1.134-1.134.288-.504.432-1.116.432-1.836s-.138-1.326-.414-1.818c-.276-.504-.642-.882-1.098-1.134a3.003 3.003 0 0 0-1.476-.378c-.528 0-1.02.126-1.476.378-.444.252-.798.63-1.062 1.134-.264.492-.396 1.098-.396 1.818 0 1.068.27 1.896.81 2.484.552.576 1.242.864 2.07.864zm6.312-3.384c0-.996.204-1.878.612-2.646a4.564 4.564 0 0 1 4.086-2.43 4.51 4.51 0 0 1 1.908.432c.636.276 1.14.648 1.512 1.116v-4.788h2.07V332h-2.07v-1.494c-.336.48-.804.876-1.404 1.188-.588.312-1.266.468-2.034.468a4.532 4.532 0 0 1-2.376-.648 4.81 4.81 0 0 1-1.692-1.836c-.408-.792-.612-1.686-.612-2.682zm8.118.036c0-.684-.144-1.278-.432-1.782a2.907 2.907 0 0 0-1.098-1.152 2.896 2.896 0 0 0-1.476-.396c-.528 0-1.02.132-1.476.396-.456.252-.828.63-1.116 1.134-.276.492-.414 1.08-.414 1.764 0 .684.138 1.284.414 1.8.288.516.66.912 1.116 1.188.468.264.96.396 1.476.396.528 0 1.02-.132 1.476-.396a2.907 2.907 0 0 0 1.098-1.152c.288-.516.432-1.116.432-1.8zm13.077-5.112c.768 0 1.446.156 2.034.468.6.3 1.068.678 1.404 1.134v-1.44h2.07v10.08c0 .912-.192 1.722-.576 2.43a4.133 4.133 0 0 1-1.674 1.692c-.72.408-1.584.612-2.592.612-1.344 0-2.46-.318-3.348-.954-.888-.624-1.392-1.476-1.512-2.556h2.034c.156.516.486.93.99 1.242.516.324 1.128.486 1.836.486.828 0 1.494-.252 1.998-.756.516-.504.774-1.236.774-2.196v-1.656c-.348.468-.822.864-1.422 1.188-.588.312-1.26.468-2.016.468a4.532 4.532 0 0 1-2.376-.648 4.81 4.81 0 0 1-1.692-1.836c-.408-.792-.612-1.686-.612-2.682s.204-1.878.612-2.646c.42-.768.984-1.362 1.692-1.782a4.532 4.532 0 0 1 2.376-.648zm3.438 5.112c0-.684-.144-1.278-.432-1.782a2.907 2.907 0 0 0-1.098-1.152 2.896 2.896 0 0 0-1.476-.396c-.528 0-1.02.132-1.476.396-.456.252-.828.63-1.116 1.134-.276.492-.414 1.08-.414 1.764 0 .684.138 1.284.414 1.8.288.516.66.912 1.116 1.188.468.264.96.396 1.476.396.528 0 1.02-.132 1.476-.396a2.907 2.907 0 0 0 1.098-1.152c.288-.516.432-1.116.432-1.8zm6.637-8.352V332h-2.052v-13.32zm11.496 3.402V332h-2.052v-1.17c-.324.408-.75.732-1.278.972a4.051 4.051 0 0 1-1.656.342c-.78 0-1.482-.162-2.106-.486a3.582 3.582 0 0 1-1.458-1.44c-.348-.636-.522-1.404-.522-2.304v-5.832h2.034v5.526c0 .888.222 1.572.666 2.052.444.468 1.05.702 1.818.702s1.374-.234 1.818-.702c.456-.48.684-1.164.684-2.052v-5.526zm1.844 4.95c0-1.02.204-1.914.612-2.682.42-.78.996-1.38 1.728-1.8.732-.42 1.572-.63 2.52-.63 1.2 0 2.19.288 2.97.864.792.564 1.326 1.374 1.602 2.43h-2.214a2.341 2.341 0 0 0-.864-1.152c-.396-.276-.894-.414-1.494-.414-.84 0-1.512.3-2.016.9-.492.588-.738 1.416-.738 2.484s.246 1.902.738 2.502c.504.6 1.176.9 2.016.9 1.188 0 1.974-.522 2.358-1.566h2.214c-.288 1.008-.828 1.812-1.62 2.412-.792.588-1.776.882-2.952.882-.948 0-1.788-.21-2.52-.63a4.62 4.62 0 0 1-1.728-1.8c-.408-.78-.612-1.68-.612-2.7zm15.599 5.13c-.936 0-1.782-.21-2.538-.63a4.67 4.67 0 0 1-1.782-1.8c-.432-.78-.648-1.68-.648-2.7 0-1.008.222-1.902.666-2.682a4.6 4.6 0 0 1 1.818-1.8c.768-.42 1.626-.63 2.574-.63s1.806.21 2.574.63a4.6 4.6 0 0 1 1.818 1.8c.444.78.666 1.674.666 2.682s-.228 1.902-.684 2.682a4.783 4.783 0 0 1-1.872 1.818c-.78.42-1.644.63-2.592.63zm0-1.782c.528 0 1.02-.126 1.476-.378.468-.252.846-.63 1.134-1.134.288-.504.432-1.116.432-1.836s-.138-1.326-.414-1.818c-.276-.504-.642-.882-1.098-1.134a3.003 3.003 0 0 0-1.476-.378c-.528 0-1.02.126-1.476.378-.444.252-.798.63-1.062 1.134-.264.492-.396 1.098-.396 1.818 0 1.068.27 1.896.81 2.484.552.576 1.242.864 2.07.864zm10.596 1.782c-.78 0-1.482-.138-2.106-.414-.612-.288-1.098-.672-1.458-1.152a2.915 2.915 0 0 1-.576-1.638h2.124c.036.42.234.774.594 1.062.372.276.834.414 1.386.414.576 0 1.02-.108 1.332-.324.324-.228.486-.516.486-.864 0-.372-.18-.648-.54-.828-.348-.18-.906-.378-1.674-.594a16.244 16.244 0 0 1-1.818-.594 3.263 3.263 0 0 1-1.224-.882c-.336-.396-.504-.918-.504-1.566 0-.528.156-1.008.468-1.44.312-.444.756-.792 1.332-1.044.588-.252 1.26-.378 2.016-.378 1.128 0 2.034.288 2.718.864.696.564 1.068 1.338 1.116 2.322h-2.052c-.036-.444-.216-.798-.54-1.062-.324-.264-.762-.396-1.314-.396-.54 0-.954.102-1.242.306-.288.204-.432.474-.432.81 0 .264.096.486.288.666.192.18.426.324.702.432.276.096.684.222 1.224.378.72.192 1.308.39 1.764.594.468.192.87.48 1.206.864.336.384.51.894.522 1.53 0 .564-.156 1.068-.468 1.512-.312.444-.756.792-1.332 1.044-.564.252-1.23.378-1.998.378zm14.926-5.364c0 .372-.024.708-.072 1.008h-7.578c.06.792.354 1.428.882 1.908s1.176.72 1.944.72c1.104 0 1.884-.462 2.34-1.386h2.214a4.498 4.498 0 0 1-1.638 2.25c-.78.576-1.752.864-2.916.864-.948 0-1.8-.21-2.556-.63a4.708 4.708 0 0 1-1.764-1.8c-.42-.78-.63-1.68-.63-2.7 0-1.02.204-1.914.612-2.682a4.428 4.428 0 0 1 1.746-1.8c.756-.42 1.62-.63 2.592-.63.936 0 1.77.204 2.502.612a4.31 4.31 0 0 1 1.71 1.728c.408.732.612 1.578.612 2.538zm-2.142-.648c-.012-.756-.282-1.362-.81-1.818-.528-.456-1.182-.684-1.962-.684-.708 0-1.314.228-1.818.684-.504.444-.804 1.05-.9 1.818z" fill="#560153"/><path d="M442 419h244.571M442 377.26h244.571M442 460h244.571" stroke="#e2e7e7" stroke-dasharray="3, 6"/><path d="M444 501h240" stroke="#e2e7e7"/><path d="M444.879 512.953c0-1.147.186-2.04.56-2.68.373-.647 1.026-.97 1.96-.97.926 0 1.576.323 1.95.97.373.64.56 1.533.56 2.68 0 1.166-.187 2.073-.56 2.72-.374.646-1.024.97-1.95.97-.934 0-1.587-.324-1.96-.97-.374-.647-.56-1.554-.56-2.72zm4.13 0c0-.58-.04-1.07-.12-1.47-.074-.407-.23-.734-.47-.98-.234-.247-.574-.37-1.02-.37-.454 0-.8.123-1.04.37-.234.246-.39.573-.47.98-.074.4-.11.89-.11 1.47 0 .6.036 1.103.11 1.51.08.406.236.733.47.98.24.246.586.37 1.04.37.446 0 .786-.124 1.02-.37.24-.247.396-.574.47-.98.08-.407.12-.91.12-1.51zm1.909-2.71v-.83h1.88v7.23h-.92v-6.4zm37.186 2.71c0-1.147.187-2.04.56-2.68.374-.647 1.027-.97 1.96-.97.927 0 1.577.323 1.95.97.374.64.56 1.533.56 2.68 0 1.166-.186 2.073-.56 2.72-.373.646-1.023.97-1.95.97-.933 0-1.586-.324-1.96-.97-.373-.647-.56-1.554-.56-2.72zm4.13 0c0-.58-.04-1.07-.12-1.47-.073-.407-.23-.734-.47-.98-.233-.247-.573-.37-1.02-.37-.453 0-.8.123-1.04.37-.233.246-.39.573-.47.98-.073.4-.11.89-.11 1.47 0 .6.037 1.103.11 1.51.08.406.237.733.47.98.24.246.587.37 1.04.37.447 0 .787-.124 1.02-.37.24-.247.397-.574.47-.98.08-.407.12-.91.12-1.51zm2.04 2.96c.846-.68 1.51-1.237 1.99-1.67.48-.44.883-.897 1.21-1.37.333-.48.5-.95.5-1.41 0-.434-.107-.774-.32-1.02-.207-.254-.544-.38-1.01-.38-.454 0-.807.143-1.06.43-.247.28-.38.656-.4 1.13h-.88c.026-.747.253-1.324.68-1.73.426-.407.976-.61 1.65-.61.686 0 1.23.19 1.63.57.406.38.61.903.61 1.57 0 .553-.167 1.093-.5 1.62-.327.52-.7.98-1.12 1.38-.42.393-.957.853-1.61 1.38h3.44v.76h-4.81zm39.762-2.96c0-1.147.187-2.04.56-2.68.373-.647 1.027-.97 1.96-.97.927 0 1.577.323 1.95.97.373.64.56 1.533.56 2.68 0 1.166-.187 2.073-.56 2.72-.373.646-1.023.97-1.95.97-.933 0-1.587-.324-1.96-.97-.373-.647-.56-1.554-.56-2.72zm4.13 0c0-.58-.04-1.07-.12-1.47-.073-.407-.23-.734-.47-.98-.233-.247-.573-.37-1.02-.37-.453 0-.8.123-1.04.37-.233.246-.39.573-.47.98-.073.4-.11.89-.11 1.47 0 .6.037 1.103.11 1.51.08.406.237.733.47.98.24.246.587.37 1.04.37.447 0 .787-.124 1.02-.37.24-.247.397-.574.47-.98.08-.407.12-.91.12-1.51zm2.129-1.72c.047-.614.284-1.094.71-1.44.427-.347.98-.52 1.66-.52.454 0 .844.083 1.17.25.334.16.584.38.75.66.174.28.26.596.26.95 0 .413-.12.77-.36 1.07-.233.3-.54.493-.92.58v.05c.434.106.777.316 1.03.63.254.313.38.723.38 1.23 0 .38-.086.723-.26 1.03-.173.3-.433.536-.78.71-.346.173-.763.26-1.25.26-.706 0-1.286-.184-1.74-.55-.453-.374-.706-.9-.76-1.58h.88c.047.4.21.726.49.98.28.253.654.38 1.12.38.467 0 .82-.12 1.06-.36.247-.247.37-.564.37-.95 0-.5-.166-.86-.5-1.08-.333-.22-.836-.33-1.51-.33h-.23v-.76h.24c.614-.007 1.077-.107 1.39-.3.314-.2.47-.507.47-.92 0-.354-.116-.637-.35-.85-.226-.214-.553-.32-.98-.32-.413 0-.746.106-1 .32-.253.213-.403.5-.45.86zm39.541 1.72c0-1.147.186-2.04.56-2.68.373-.647 1.026-.97 1.96-.97.926 0 1.576.323 1.95.97.373.64.56 1.533.56 2.68 0 1.166-.187 2.073-.56 2.72-.374.646-1.024.97-1.95.97-.934 0-1.587-.324-1.96-.97-.374-.647-.56-1.554-.56-2.72zm4.13 0c0-.58-.04-1.07-.12-1.47-.074-.407-.23-.734-.47-.98-.234-.247-.574-.37-1.02-.37-.454 0-.8.123-1.04.37-.234.246-.39.573-.47.98-.074.4-.11.89-.11 1.47 0 .6.036 1.103.11 1.51.08.406.236.733.47.98.24.246.586.37 1.04.37.446 0 .786-.124 1.02-.37.24-.247.396-.574.47-.98.08-.407.12-.91.12-1.51zm1.929 2.08v-.69l3.51-4.86h1.09v4.76h1v.79h-1v1.61h-.9v-1.61zm3.74-4.6-2.69 3.81h2.69zm36.206 2.52c0-1.147.186-2.04.56-2.68.373-.647 1.026-.97 1.96-.97.926 0 1.576.323 1.95.97.373.64.56 1.533.56 2.68 0 1.166-.187 2.073-.56 2.72-.374.646-1.024.97-1.95.97-.934 0-1.587-.324-1.96-.97-.374-.647-.56-1.554-.56-2.72zm4.13 0c0-.58-.04-1.07-.12-1.47-.074-.407-.23-.734-.47-.98-.234-.247-.574-.37-1.02-.37-.454 0-.8.123-1.04.37-.234.246-.39.573-.47.98-.074.4-.11.89-.11 1.47 0 .6.036 1.103.11 1.51.08.406.236.733.47.98.24.246.586.37 1.04.37.446 0 .786-.124 1.02-.37.24-.247.396-.574.47-.98.08-.407.12-.91.12-1.51zm6.759-2.75h-3.51v2.28c.153-.214.38-.387.68-.52.3-.14.623-.21.97-.21.553 0 1.003.116 1.35.35.347.226.593.523.74.89.153.36.23.743.23 1.15 0 .48-.09.91-.27 1.29-.18.38-.457.68-.83.9-.367.22-.823.33-1.37.33-.7 0-1.267-.18-1.7-.54-.433-.36-.697-.84-.79-1.44h.89c.087.38.27.676.55.89.28.213.633.32 1.06.32.527 0 .923-.157 1.19-.47.267-.32.4-.74.4-1.26s-.133-.92-.4-1.2c-.267-.287-.66-.43-1.18-.43-.353 0-.663.086-.93.26-.26.166-.45.396-.57.69h-.86v-4.08h4.35zm35.077 2.75c0-1.147.186-2.04.56-2.68.373-.647 1.026-.97 1.96-.97.926 0 1.576.323 1.95.97.373.64.56 1.533.56 2.68 0 1.166-.187 2.073-.56 2.72-.374.646-1.024.97-1.95.97-.934 0-1.587-.324-1.96-.97-.374-.647-.56-1.554-.56-2.72zm4.13 0c0-.58-.04-1.07-.12-1.47-.074-.407-.23-.734-.47-.98-.234-.247-.574-.37-1.02-.37-.454 0-.8.123-1.04.37-.234.246-.39.573-.47.98-.074.4-.11.89-.11 1.47 0 .6.036 1.103.11 1.51.08.406.236.733.47.98.24.246.586.37 1.04.37.446 0 .786-.124 1.02-.37.24-.247.396-.574.47-.98.08-.407.12-.91.12-1.51zm6.179-1.82c-.147-.74-.604-1.11-1.37-1.11-.594 0-1.037.23-1.33.69-.294.453-.437 1.203-.43 2.25.153-.347.406-.617.76-.81.36-.2.76-.3 1.2-.3.686 0 1.233.213 1.64.64.413.426.62 1.016.62 1.77 0 .453-.09.86-.27 1.22-.174.36-.44.646-.8.86-.354.213-.784.32-1.29.32-.687 0-1.224-.154-1.61-.46-.387-.307-.657-.73-.81-1.27-.154-.54-.23-1.207-.23-2 0-2.447.853-3.67 2.56-3.67.653 0 1.166.176 1.54.53.373.353.593.8.66 1.34zm-1.36 1.49c-.287 0-.557.06-.81.18-.254.113-.46.29-.62.53-.154.233-.23.52-.23.86 0 .506.146.92.44 1.24.293.313.713.47 1.26.47.466 0 .836-.144 1.11-.43.28-.294.42-.687.42-1.18 0-.52-.134-.927-.4-1.22-.267-.3-.657-.45-1.17-.45z" fill="#000"/><circle cx="449" cy="554" r="5" fill="#ffb858"/><circle cx="531" cy="554" r="5" fill="#721f6f"/><path d="m457.564 432.999 45.577-32.713 39.978 61 43.114-58.246 43.113 24.367 43.114-13.184" stroke="#721f6f" stroke-width="3" stroke-linecap="round" stroke-linejoin="round"/><path d="m457.57 459.286 45.577 13.288 39.977-50.716 43.114 7.469 43.113 33.756 43.114-78.9" stroke="#ffbe67" stroke-width="3" stroke-linecap="round" stroke-linejoin="round"/><rect x="460" y="549" width="36" height="10" rx="5" fill="#ffe999"/><rect x="542" y="549" width="64" height="10" rx="5" fill="#f2f2f2"/><rect x="340" y="159" width="80" height="80" rx="40" fill="#fffae8"/><g clip-path="url(#a)" transform="translate(-240 62)" stroke="#000" stroke-width="3" stroke-linecap="round" stroke-linejoin="round"><path d="M605.422 155.75h29.167m-27.089-6.248h4.167m-2.081 0v6.25"/><path d="m613.75 134.916 6.25 6.25 12.5-12.5-6.25-6.25z" fill="#ffbe67"/><path d="m616.875 138.039-3.125 3.125m16.664-22.914 6.25 6.25M620 155.748a12.496 12.496 0 0 0 11.811-8.404 12.5 12.5 0 0 0-4.071-13.912"/></g><rect x="392" y="138" width="44" height="44" rx="22" fill="#ffb858"/><rect x="392" y="138" width="44" height="44" rx="22" stroke="#eddeff" stroke-width="4"/><g clip-path="url(#b)" transform="translate(-240 62)"><path d="M649.831 105.5a.833.833 0 1 1 0-1.667h.833v-1.666h-3.333a1.67 1.67 0 0 1-1.179-.488 1.67 1.67 0 0 1-.488-1.179v-8.333a1.669 1.669 0 0 1 1.667-1.667h13.333a1.668 1.668 0 0 1 1.667 1.667v8.333c0 .442-.176.866-.488 1.179a1.67 1.67 0 0 1-1.179.488h-3.333v1.666h.833a.833.833 0 0 1 0 1.667zm5.833-3.333h-3.333v1.666h3.333z" fill="#fff"/></g><rect x="637" y="159" width="80" height="80" rx="40" fill="#fff"/><rect x="637" y="159" width="80" height="80" rx="40" fill="#c67dff" fill-opacity=".4"/><g clip-path="url(#c)" transform="translate(-310 62)"><path d="M1002.84 142.617c.26 0 .51.102.69.284.19.182.29.429.29.687v4.401l3.83-2.2a.972.972 0 0 1 1.33.355l.98 1.681c.13.223.16.488.1.736a.97.97 0 0 1-.46.59l-3.83 2.201 3.83 2.202c.23.129.39.341.46.589.06.249.03.514-.1.737l-.98 1.681a.972.972 0 0 1-1.33.355l-3.83-2.202v4.402c0 .258-.1.504-.29.686a.972.972 0 0 1-.69.285h-1.95c-.25 0-.5-.103-.69-.285a.974.974 0 0 1-.281-.686v-4.402l-3.832 2.201a.976.976 0 0 1-1.332-.355l-.976-1.681a.969.969 0 0 1 .357-1.326l3.831-2.201-3.831-2.201a.972.972 0 0 1-.357-1.326l.976-1.681a.974.974 0 0 1 1.332-.355l3.832 2.2v-4.401c0-.258.101-.505.281-.687.19-.182.44-.284.69-.284z" fill="#721f6f"/><path d="M978.664 126.583a8.334 8.334 0 1 0 16.669 0 8.334 8.334 0 0 0-16.669 0zM974.5 155.75v-4.167a8.332 8.332 0 0 1 8.333-8.333h8.334" stroke="#000" stroke-width="3" stroke-linecap="round" stroke-linejoin="round"/></g><rect x="45" y="159" width="80" height="80" rx="40" fill="#9ea9fd" fill-opacity=".4" style="fill:#9775fa;fill-opacity:.40000001"/><g clip-path="url(#d)" transform="translate(-168 62)" stroke-width="3" stroke-linecap="round" stroke-linejoin="round"><path d="M240.492 120.334h-2.083a4.167 4.167 0 0 0-4.167 4.167v7.291a11.46 11.46 0 1 0 22.917 0v-7.291a4.168 4.168 0 0 0-4.167-4.167h-2.083" stroke="#000"/><path d="M244.664 143.25a12.499 12.499 0 1 0 25 0V137m-18.758-18.75v4.167M240.5 118.25v4.167" stroke="#000"/><path d="M265.492 132.831a4.164 4.164 0 0 0 4.167 4.166 4.167 4.167 0 1 0-4.167-4.166z" fill="#9ea9fd" stroke="#9ea9fd"/></g><rect x="97" y="138" width="44" height="44" rx="22" fill="#9ea9fd"/><rect x="97" y="138" width="44" height="44" rx="22" stroke="#eddeff" stroke-width="4"/><g clip-path="url(#e)" transform="translate(-168 62)"><path d="M292 89.666a2.501 2.501 0 0 1 2.5 2.5v11.667a2.501 2.501 0 0 1-2.5 2.5h-10a2.501 2.501 0 0 1-2.5-2.5V92.166a2.5 2.5 0 0 1 2.5-2.5zm-2.5 13.333h-5a.833.833 0 0 0 0 1.667h5a.833.833 0 0 0 0-1.667z" fill="#fff"/></g><rect x="689" y="138" width="44" height="44" rx="22" fill="#721f6f"/><rect x="689" y="138" width="44" height="44" rx="22" stroke="#eddeff" stroke-width="4"/><g clip-path="url(#f)" transform="translate(-310 62)"><path d="M1024.33 89.666c.64 0 1.25.244 1.72.681.46.438.74 1.036.78 1.672v11.814c0 .637-.24 1.251-.68 1.715-.44.464-1.04.743-1.67.781l-.15.004h-6.67a2.496 2.496 0 0 1-2.49-2.354l-.01-.146V92.166c0-.638.25-1.251.69-1.715a2.472 2.472 0 0 1 1.67-.78l.14-.005zm-3.33 11.667a.824.824 0 0 0-.83.736l-.01.097.01.106a.824.824 0 0 0 .83.735.83.83 0 0 0 .82-.735l.01-.098-.01-.105a.824.824 0 0 0-.82-.736zm.83-10h-1.67l-.09.006a.839.839 0 0 0-.53.274.861.861 0 0 0-.21.553c0 .204.08.4.21.553.14.153.32.25.53.274l.09.006h1.67l.1-.006c.2-.024.39-.121.52-.274a.81.81 0 0 0 .21-.553.81.81 0 0 0-.21-.553.815.815 0 0 0-.52-.275z" fill="#fff"/></g><rect x="47.5" y="289.5" width="299" height="299" rx="15.5" fill="#d9ddff"/><rect x="47.5" y="289.5" width="299" height="299" rx="15.5" stroke="#9ea9fd"/><rect x="57" y="299" width="280" height="280" rx="10" fill="#fff"/><rect x="77" y="420" width="70" height="70" rx="35" fill="#721f6f"/><path d="M98.266 448.18v5.917h6.45v1.904h-6.45v6.095h7.212V464h-9.523v-17.724h9.523v1.904zm28.407-1.752V464h-2.311v-13.103L118.522 464h-1.625l-5.866-13.128V464h-2.311v-17.572h2.489l6.5 14.525 6.501-14.525z" fill="#fff"/><rect x="77.5" y="516.5" width="239" height="40" rx="20" stroke="#f2f2f2"/><path d="M144.422 539.154h-3.783l-.65 1.846h-1.547l3.237-9.048h1.716l3.237 9.048h-1.56zm-.416-1.209-1.469-4.199-1.482 4.199zm3.409-.559c0-.719.148-1.356.442-1.911a3.304 3.304 0 0 1 2.951-1.755c.468 0 .928.104 1.378.312.46.199.824.468 1.092.806v-3.458h1.495V541h-1.495v-1.079c-.242.347-.58.633-1.014.858-.424.225-.914.338-1.469.338a3.273 3.273 0 0 1-1.716-.468 3.486 3.486 0 0 1-1.222-1.326c-.294-.572-.442-1.218-.442-1.937zm5.863.026c0-.494-.104-.923-.312-1.287a2.086 2.086 0 0 0-1.859-1.118c-.381 0-.736.095-1.066.286a2.096 2.096 0 0 0-.806.819c-.199.355-.299.78-.299 1.274s.1.927.299 1.3c.208.373.477.659.806.858a2.137 2.137 0 0 0 2.132 0c.33-.191.594-.468.793-.832.208-.373.312-.806.312-1.3zm2.818-.026c0-.719.147-1.356.442-1.911a3.297 3.297 0 0 1 2.951-1.755c.468 0 .927.104 1.378.312.459.199.823.468 1.092.806v-3.458h1.495V541h-1.495v-1.079a2.761 2.761 0 0 1-1.014.858c-.425.225-.914.338-1.469.338a3.273 3.273 0 0 1-1.716-.468 3.478 3.478 0 0 1-1.222-1.326c-.295-.572-.442-1.218-.442-1.937zm5.863.026c0-.494-.104-.923-.312-1.287a2.102 2.102 0 0 0-.793-.832 2.088 2.088 0 0 0-1.066-.286c-.381 0-.737.095-1.066.286a2.096 2.096 0 0 0-.806.819c-.199.355-.299.78-.299 1.274s.1.927.299 1.3c.208.373.477.659.806.858a2.134 2.134 0 0 0 2.132 0c.329-.191.594-.468.793-.832.208-.373.312-.806.312-1.3zm6.064-.026c0-.719.148-1.356.442-1.911a3.304 3.304 0 0 1 2.938-1.755c.564 0 1.053.113 1.469.338.425.217.763.49 1.015.819v-1.04h1.495V541h-1.495v-1.066c-.252.338-.594.62-1.028.845-.433.225-.927.338-1.482.338a3.185 3.185 0 0 1-1.69-.468 3.486 3.486 0 0 1-1.222-1.326c-.294-.572-.442-1.218-.442-1.937zm5.864.026c0-.494-.105-.923-.313-1.287a2.086 2.086 0 0 0-1.859-1.118c-.381 0-.736.095-1.066.286a2.096 2.096 0 0 0-.806.819c-.199.355-.299.78-.299 1.274s.1.927.299 1.3c.208.373.477.659.806.858a2.137 2.137 0 0 0 2.132 0c.33-.191.594-.468.793-.832.208-.373.313-.806.313-1.3zM187.868 541h-1.482l-4.459-6.747V541h-1.482v-9.048h1.482l4.459 6.734v-6.734h1.482zm8.381-3.757c0 .269-.017.511-.052.728h-5.473c.043.572.256 1.031.637 1.378s.849.52 1.404.52c.797 0 1.361-.334 1.69-1.001h1.599a3.25 3.25 0 0 1-1.183 1.625c-.563.416-1.265.624-2.106.624-.685 0-1.3-.152-1.846-.455a3.4 3.4 0 0 1-1.274-1.3c-.303-.563-.455-1.213-.455-1.95 0-.737.147-1.382.442-1.937a3.198 3.198 0 0 1 1.261-1.3c.546-.303 1.17-.455 1.872-.455.676 0 1.278.147 1.807.442.529.295.94.711 1.235 1.248.295.529.442 1.14.442 1.833zm-1.547-.468c-.009-.546-.204-.984-.585-1.313-.381-.329-.854-.494-1.417-.494-.511 0-.949.165-1.313.494-.364.321-.581.758-.65 1.313zm12.496-2.938L204.975 541h-1.56l-1.443-5.291-1.443 5.291h-1.56l-2.236-7.163h1.508l1.495 5.759 1.521-5.759h1.547l1.456 5.733 1.482-5.733zm10.542.819c0 .459-.108.893-.325 1.3-.217.407-.563.741-1.04 1.001-.477.251-1.088.377-1.833.377h-1.638V541h-1.482v-9.035h3.12c.693 0 1.278.121 1.755.364.485.234.845.555 1.079.962.243.407.364.862.364 1.365zm-3.198 1.469c.563 0 .984-.126 1.261-.377.277-.26.416-.624.416-1.092 0-.988-.559-1.482-1.677-1.482h-1.638v2.951zm3.988 1.261c0-.719.147-1.356.442-1.911a3.29 3.29 0 0 1 1.222-1.287 3.273 3.273 0 0 1 1.716-.468c.563 0 1.053.113 1.469.338.424.217.762.49 1.014.819v-1.04h1.495V541h-1.495v-1.066c-.252.338-.594.62-1.027.845a3.173 3.173 0 0 1-1.482.338 3.18 3.18 0 0 1-1.69-.468 3.47 3.47 0 0 1-1.222-1.326c-.295-.572-.442-1.218-.442-1.937zm5.863.026c0-.494-.104-.923-.312-1.287a2.109 2.109 0 0 0-.793-.832 2.091 2.091 0 0 0-1.066-.286c-.382 0-.737.095-1.066.286a2.09 2.09 0 0 0-.806.819c-.2.355-.299.78-.299 1.274s.099.927.299 1.3c.208.373.476.659.806.858a2.134 2.134 0 0 0 2.132 0c.329-.191.593-.468.793-.832.208-.373.312-.806.312-1.3zm5.04-2.366v3.965c0 .269.061.464.182.585.13.113.347.169.65.169h.91V541h-1.17c-.667 0-1.179-.156-1.534-.468-.355-.312-.533-.819-.533-1.521v-3.965h-.845v-1.209h.845v-1.781h1.495v1.781h1.742v1.209zm3.732-2.158a.918.918 0 0 1-.676-.273.918.918 0 0 1-.273-.676c0-.269.091-.494.273-.676a.918.918 0 0 1 .676-.273c.26 0 .481.091.663.273a.918.918 0 0 1 .273.676.918.918 0 0 1-.273.676.903.903 0 0 1-.663.273zm.728.949V541h-1.482v-7.163zm8.381 3.406c0 .269-.018.511-.052.728h-5.473c.043.572.255 1.031.637 1.378.381.347.849.52 1.404.52.797 0 1.36-.334 1.69-1.001h1.599a3.25 3.25 0 0 1-1.183 1.625c-.564.416-1.266.624-2.106.624-.685 0-1.3-.152-1.846-.455a3.393 3.393 0 0 1-1.274-1.3c-.304-.563-.455-1.213-.455-1.95 0-.737.147-1.382.442-1.937a3.192 3.192 0 0 1 1.261-1.3c.546-.303 1.17-.455 1.872-.455.676 0 1.278.147 1.807.442.528.295.94.711 1.235 1.248.294.529.442 1.14.442 1.833zm-1.547-.468c-.009-.546-.204-.984-.585-1.313-.382-.329-.854-.494-1.417-.494a1.89 1.89 0 0 0-1.313.494c-.364.321-.581.758-.65 1.313zm6.489-3.055c.563 0 1.066.117 1.508.351.451.234.802.581 1.053 1.04.251.459.377 1.014.377 1.664V541h-1.469v-4.004c0-.641-.16-1.131-.481-1.469-.321-.347-.758-.52-1.313-.52-.555 0-.997.173-1.326.52-.321.338-.481.828-.481 1.469V541h-1.482v-7.163h1.482v.819c.243-.295.55-.524.923-.689a3.01 3.01 0 0 1 1.209-.247zm6.428 1.326v3.965c0 .269.06.464.182.585.13.113.346.169.65.169h.91V541h-1.17c-.668 0-1.179-.156-1.534-.468-.356-.312-.533-.819-.533-1.521v-3.965h-.845v-1.209h.845v-1.781h1.495v1.781h1.742v1.209z" fill="#000"/><rect x="77" y="319" width="70" height="70" rx="35" fill="#9ea9fd"/><path d="M102.736 347.18v5.917h6.45v1.904h-6.45v6.095h7.212V363h-9.523v-17.724h9.523v1.904zm21.348-1.879v1.879h-4.825V363h-2.311v-15.82h-4.85v-1.879z" fill="#fff"/><path d="M174.024 320.352v3.264h3.84v1.488h-3.84v3.408h4.32V330H172.2v-11.136h6.144v1.488zm8.535 2.32v4.88c0 .331.074.571.224.72.16.139.426.208.8.208h1.12V330h-1.44c-.822 0-1.451-.192-1.888-.576-.438-.384-.656-1.008-.656-1.872v-4.88h-1.04v-1.488h1.04v-2.192h1.84v2.192h2.144v1.488zm8.225-1.632c.672 0 1.269.144 1.792.432.533.288.949.715 1.248 1.28.309.565.464 1.248.464 2.048v5.2h-1.808v-4.928c0-.789-.198-1.392-.592-1.808-.395-.427-.934-.64-1.616-.64-.683 0-1.227.213-1.632.64-.395.416-.592 1.019-.592 1.808V330h-1.824v-11.84h1.824v4.048a3.07 3.07 0 0 1 1.168-.864 3.982 3.982 0 0 1 1.568-.304zm5.062 4.512c0-.885.182-1.669.544-2.352a4.066 4.066 0 0 1 3.616-2.16c.694 0 1.296.139 1.808.416.523.267.939.603 1.248 1.008v-1.28h1.84V330h-1.84v-1.312c-.309.416-.73.763-1.264 1.04-.533.277-1.141.416-1.824.416a3.92 3.92 0 0 1-2.08-.576 4.288 4.288 0 0 1-1.504-1.632c-.362-.704-.544-1.499-.544-2.384zm7.216.032c0-.608-.128-1.136-.384-1.584a2.58 2.58 0 0 0-.976-1.024 2.568 2.568 0 0 0-1.312-.352c-.469 0-.906.117-1.312.352a2.58 2.58 0 0 0-.992 1.008c-.245.437-.368.96-.368 1.568 0 .608.123 1.141.368 1.6.256.459.587.811.992 1.056a2.63 2.63 0 0 0 2.624 0 2.58 2.58 0 0 0 .976-1.024c.256-.459.384-.992.384-1.6zm8.524-4.544c.693 0 1.312.144 1.856.432.555.288.987.715 1.296 1.28.309.565.464 1.248.464 2.048v5.2h-1.808v-4.928c0-.789-.197-1.392-.592-1.808-.395-.427-.933-.64-1.616-.64s-1.227.213-1.632.64c-.395.416-.592 1.019-.592 1.808V330h-1.824v-8.816h1.824v1.008a3.033 3.033 0 0 1 1.136-.848 3.706 3.706 0 0 1 1.488-.304zm9.171 3.376c0-1.088.251-2.064.752-2.928a5.427 5.427 0 0 1 2.064-2.016 5.752 5.752 0 0 1 2.864-.736c1.184 0 2.235.293 3.152.88.928.576 1.6 1.397 2.016 2.464h-2.192c-.288-.587-.688-1.024-1.2-1.312-.512-.288-1.104-.432-1.776-.432-.736 0-1.392.165-1.968.496a3.506 3.506 0 0 0-1.36 1.424c-.32.619-.48 1.339-.48 2.16 0 .821.16 1.541.48 2.16a3.613 3.613 0 0 0 1.36 1.44c.576.331 1.232.496 1.968.496.672 0 1.264-.144 1.776-.432.512-.288.912-.725 1.2-1.312h2.192c-.416 1.067-1.088 1.888-2.016 2.464-.917.576-1.968.864-3.152.864-1.045 0-2-.24-2.864-.72a5.55 5.55 0 0 1-2.064-2.032c-.501-.864-.752-1.84-.752-2.928zm16.647 5.728c-.832 0-1.584-.187-2.256-.56a4.149 4.149 0 0 1-1.584-1.6c-.384-.693-.576-1.493-.576-2.4 0-.896.197-1.691.592-2.384a4.09 4.09 0 0 1 1.616-1.6c.683-.373 1.445-.56 2.288-.56.843 0 1.605.187 2.288.56a4.09 4.09 0 0 1 1.616 1.6c.395.693.592 1.488.592 2.384 0 .896-.203 1.691-.608 2.384a4.252 4.252 0 0 1-1.664 1.616 4.783 4.783 0 0 1-2.304.56zm0-1.584a2.67 2.67 0 0 0 1.312-.336c.416-.224.752-.56 1.008-1.008.256-.448.384-.992.384-1.632 0-.64-.123-1.179-.368-1.616a2.473 2.473 0 0 0-.976-1.008 2.67 2.67 0 0 0-1.312-.336 2.67 2.67 0 0 0-1.312.336c-.395.224-.709.56-.944 1.008-.235.437-.352.976-.352 1.616 0 .949.24 1.685.72 2.208.491.512 1.104.768 1.84.768zm10.043 1.584c-.832 0-1.584-.187-2.256-.56a4.149 4.149 0 0 1-1.584-1.6c-.384-.693-.576-1.493-.576-2.4 0-.896.197-1.691.592-2.384a4.09 4.09 0 0 1 1.616-1.6c.683-.373 1.445-.56 2.288-.56.843 0 1.605.187 2.288.56a4.09 4.09 0 0 1 1.616 1.6c.395.693.592 1.488.592 2.384 0 .896-.203 1.691-.608 2.384a4.252 4.252 0 0 1-1.664 1.616 4.783 4.783 0 0 1-2.304.56zm0-1.584a2.67 2.67 0 0 0 1.312-.336c.416-.224.752-.56 1.008-1.008.256-.448.384-.992.384-1.632 0-.64-.123-1.179-.368-1.616a2.473 2.473 0 0 0-.976-1.008 2.67 2.67 0 0 0-1.312-.336 2.67 2.67 0 0 0-1.312.336c-.395.224-.709.56-.944 1.008-.235.437-.352.976-.352 1.616 0 .949.24 1.685.72 2.208.491.512 1.104.768 1.84.768zm8.043-6.08c.31-.405.731-.747 1.264-1.024.534-.277 1.136-.416 1.808-.416.768 0 1.467.192 2.096.576.64.373 1.142.901 1.504 1.584.363.683.544 1.467.544 2.352 0 .885-.181 1.68-.544 2.384a4.116 4.116 0 0 1-1.504 1.632 3.945 3.945 0 0 1-2.096.576c-.672 0-1.269-.133-1.792-.4a4.122 4.122 0 0 1-1.28-1.024v5.472h-1.824v-13.008h1.824zm5.36 3.072c0-.608-.128-1.131-.384-1.568a2.441 2.441 0 0 0-.992-1.008 2.63 2.63 0 0 0-2.624 0 2.7 2.7 0 0 0-.992 1.024c-.245.448-.368.976-.368 1.584 0 .608.123 1.141.368 1.6a2.7 2.7 0 0 0 .992 1.024 2.63 2.63 0 0 0 2.624 0 2.63 2.63 0 0 0 .992-1.056c.256-.459.384-.992.384-1.6zm11.58-.176c0 .331-.021.629-.064.896h-6.736c.053.704.315 1.269.784 1.696.469.427 1.045.64 1.728.64.981 0 1.675-.411 2.08-1.232h1.968a4 4 0 0 1-1.456 2c-.693.512-1.557.768-2.592.768-.843 0-1.6-.187-2.272-.56a4.185 4.185 0 0 1-1.568-1.6c-.373-.693-.56-1.493-.56-2.4 0-.907.181-1.701.544-2.384a3.936 3.936 0 0 1 1.552-1.6c.672-.373 1.44-.56 2.304-.56.832 0 1.573.181 2.224.544a3.835 3.835 0 0 1 1.52 1.536c.363.651.544 1.403.544 2.256zm-1.904-.576c-.011-.672-.251-1.211-.72-1.616s-1.051-.608-1.744-.608c-.629 0-1.168.203-1.616.608-.448.395-.715.933-.8 1.616zm5.363-2.336a2.824 2.824 0 0 1 1.056-1.04c.448-.256.976-.384 1.584-.384v1.888h-.464c-.715 0-1.259.181-1.632.544-.363.363-.544.992-.544 1.888V330h-1.824v-8.816h1.824z" fill="#560153"/><rect x="171" y="340" width="52" height="19" rx="4.789" fill="#d9ddff"/><path d="M179.37 349.51c0-.68.157-1.29.47-1.83.32-.54.75-.96 1.29-1.26a3.594 3.594 0 0 1 1.79-.46c.74 0 1.397.183 1.97.55.58.36 1 .873 1.26 1.54h-1.37c-.18-.367-.43-.64-.75-.82-.32-.18-.69-.27-1.11-.27-.46 0-.87.103-1.23.31-.36.207-.643.503-.85.89-.2.387-.3.837-.3 1.35 0 .513.1.963.3 1.35.207.387.49.687.85.9.36.207.77.31 1.23.31.42 0 .79-.09 1.11-.27.32-.18.57-.453.75-.82h1.37c-.26.667-.68 1.18-1.26 1.54-.573.36-1.23.54-1.97.54-.653 0-1.25-.15-1.79-.45a3.47 3.47 0 0 1-1.29-1.27c-.313-.54-.47-1.15-.47-1.83zm9.154-3.91v7.4h-1.14v-7.4zm1.017 4.62c0-.553.113-1.043.34-1.47a2.535 2.535 0 0 1 2.26-1.35c.433 0 .81.087 1.13.26.327.167.587.377.78.63v-.8h1.15V353h-1.15v-.82a2.26 2.26 0 0 1-.79.65c-.333.173-.713.26-1.14.26-.473 0-.907-.12-1.3-.36a2.677 2.677 0 0 1-.94-1.02 3.203 3.203 0 0 1-.34-1.49zm4.51.02c0-.38-.08-.71-.24-.99a1.606 1.606 0 0 0-1.43-.86c-.293 0-.567.073-.82.22-.253.14-.46.35-.62.63-.153.273-.23.6-.23.98s.077.713.23 1c.16.287.367.507.62.66a1.64 1.64 0 0 0 1.64 0c.253-.147.457-.36.61-.64.16-.287.24-.62.24-1zm3.687-1.95c.167-.28.387-.497.66-.65.28-.16.61-.24.99-.24v1.18h-.29c-.446 0-.786.113-1.02.34-.226.227-.34.62-.34 1.18v2.9h-1.14v-5.51h1.14zm3.178-1.53a.707.707 0 0 1-.52-.21.706.706 0 0 1-.21-.52c0-.207.07-.38.21-.52.14-.14.314-.21.52-.21.2 0 .37.07.51.21.14.14.21.313.21.52 0 .207-.07.38-.21.52-.14.14-.31.21-.51.21zm.56.73V353h-1.14v-5.51zm2.727.93v3.05c0 .207.047.357.14.45.1.087.267.13.5.13h.7v.95h-.9c-.513 0-.907-.12-1.18-.36-.273-.24-.41-.63-.41-1.17v-3.05h-.65v-.93h.65v-1.37h1.15v1.37h1.34v.93zm2.871-1.66a.706.706 0 0 1-.52-.21.706.706 0 0 1-.21-.52c0-.207.07-.38.21-.52.14-.14.313-.21.52-.21.2 0 .37.07.51.21.14.14.21.313.21.52 0 .207-.07.38-.21.52-.14.14-.31.21-.51.21zm.56.73V353h-1.14v-5.51zm4.176-.09c.434 0 .82.09 1.16.27.347.18.617.447.81.8.194.353.29.78.29 1.28V353h-1.13v-3.08c0-.493-.123-.87-.37-1.13-.246-.267-.583-.4-1.01-.4-.426 0-.766.133-1.02.4-.246.26-.37.637-.37 1.13V353h-1.14v-5.51h1.14v.63c.187-.227.424-.403.71-.53a2.32 2.32 0 0 1 .93-.19z" fill="#560153"/><rect x="231" y="340" width="78" height="19" rx="4.789" fill="#d9ddff"/><path d="M243.94 351.58h-2.91l-.5 1.42h-1.19l2.49-6.96h1.32l2.49 6.96h-1.2zm-.32-.93-1.13-3.23-1.14 3.23zm4.333-2.23v3.05c0 .207.046.357.14.45.1.087.266.13.5.13h.7v.95h-.9c-.514 0-.907-.12-1.18-.36-.274-.24-.41-.63-.41-1.17v-3.05h-.65v-.93h.65v-1.37h1.15v1.37h1.34v.93zm4.68 4.67c-.52 0-.99-.117-1.41-.35-.42-.24-.75-.573-.99-1-.24-.433-.36-.933-.36-1.5 0-.56.124-1.057.37-1.49a2.562 2.562 0 0 1 1.01-1c.427-.233.904-.35 1.43-.35.527 0 1.004.117 1.43.35a2.55 2.55 0 0 1 1.01 1c.247.433.37.93.37 1.49 0 .56-.126 1.057-.38 1.49-.253.433-.6.77-1.04 1.01a2.99 2.99 0 0 1-1.44.35zm0-.99c.294 0 .567-.07.82-.21.26-.14.47-.35.63-.63.16-.28.24-.62.24-1.02s-.076-.737-.23-1.01a1.54 1.54 0 0 0-.61-.63 1.665 1.665 0 0 0-.82-.21c-.293 0-.566.07-.82.21-.246.14-.443.35-.59.63-.146.273-.22.61-.22 1.01 0 .593.15 1.053.45 1.38.307.32.69.48 1.15.48zm5.027-3.81c.167-.28.387-.497.66-.65.28-.16.61-.24.99-.24v1.18h-.29c-.446 0-.786.113-1.02.34-.226.227-.34.62-.34 1.18v2.9h-1.14v-5.51h1.14zm4.728 3.69 1.56-4.49h1.21l-2.1 5.51h-1.36l-2.09-5.51h1.22zm3.152-1.76c0-.553.113-1.043.34-1.47a2.535 2.535 0 0 1 2.26-1.35c.433 0 .81.087 1.13.26.327.167.587.377.78.63v-.8h1.15V353h-1.15v-.82a2.26 2.26 0 0 1-.79.65c-.333.173-.713.26-1.14.26-.473 0-.907-.12-1.3-.36a2.677 2.677 0 0 1-.94-1.02 3.203 3.203 0 0 1-.34-1.49zm4.51.02c0-.38-.08-.71-.24-.99a1.606 1.606 0 0 0-1.43-.86c-.293 0-.567.073-.82.22-.253.14-.46.35-.62.63-.153.273-.23.6-.23.98s.077.713.23 1c.16.287.367.507.62.66a1.64 1.64 0 0 0 1.64 0c.253-.147.457-.36.61-.64.16-.287.24-.62.24-1zm4.547 2.85a2.87 2.87 0 0 1-1.17-.23 2.11 2.11 0 0 1-.81-.64 1.624 1.624 0 0 1-.32-.91h1.18c.02.233.13.43.33.59.207.153.464.23.77.23.32 0 .567-.06.74-.18.18-.127.27-.287.27-.48 0-.207-.1-.36-.3-.46-.193-.1-.503-.21-.93-.33a8.91 8.91 0 0 1-1.01-.33 1.822 1.822 0 0 1-.68-.49c-.186-.22-.28-.51-.28-.87 0-.293.087-.56.26-.8.174-.247.42-.44.74-.58.327-.14.7-.21 1.12-.21.627 0 1.13.16 1.51.48.387.313.594.743.62 1.29h-1.14a.812.812 0 0 0-.3-.59c-.18-.147-.423-.22-.73-.22-.3 0-.53.057-.69.17a.526.526 0 0 0-.24.45c0 .147.054.27.16.37.107.1.237.18.39.24.154.053.38.123.68.21.4.107.727.217.98.33.26.107.484.267.67.48.187.213.284.497.29.85 0 .313-.086.593-.26.84-.173.247-.42.44-.74.58-.313.14-.683.21-1.11.21zm4.572-4.67v3.05c0 .207.047.357.14.45.1.087.267.13.5.13h.7v.95h-.9c-.513 0-.907-.12-1.18-.36-.273-.24-.41-.63-.41-1.17v-3.05h-.65v-.93h.65v-1.37h1.15v1.37h1.34v.93zm1.911 1.8c0-.553.113-1.043.34-1.47.233-.427.546-.757.94-.99.4-.24.84-.36 1.32-.36.433 0 .81.087 1.13.26.326.167.586.377.78.63v-.8h1.15V353h-1.15v-.82a2.27 2.27 0 0 1-.79.65c-.334.173-.714.26-1.14.26-.474 0-.907-.12-1.3-.36a2.669 2.669 0 0 1-.94-1.02 3.203 3.203 0 0 1-.34-1.49zm4.51.02c0-.38-.08-.71-.24-.99a1.624 1.624 0 0 0-.61-.64 1.608 1.608 0 0 0-.82-.22c-.294 0-.567.073-.82.22-.254.14-.46.35-.62.63-.154.273-.23.6-.23.98s.076.713.23 1c.16.287.366.507.62.66a1.64 1.64 0 0 0 1.64 0c.253-.147.456-.36.61-.64.16-.287.24-.62.24-1zm3.877-1.82v3.05c0 .207.047.357.14.45.1.087.267.13.5.13h.7v.95h-.9c-.513 0-.907-.12-1.18-.36-.273-.24-.41-.63-.41-1.17v-3.05h-.65v-.93h.65v-1.37h1.15v1.37h1.34v.93zm2.871-1.66a.706.706 0 0 1-.52-.21.706.706 0 0 1-.21-.52c0-.207.07-.38.21-.52.14-.14.313-.21.52-.21.2 0 .37.07.51.21.14.14.21.313.21.52 0 .207-.07.38-.21.52-.14.14-.31.21-.51.21zm.56.73V353h-1.14v-5.51zm4.177-.09c.433 0 .82.09 1.16.27.346.18.616.447.81.8.193.353.29.78.29 1.28V353h-1.13v-3.08c0-.493-.124-.87-.37-1.13-.247-.267-.584-.4-1.01-.4-.427 0-.767.133-1.02.4-.247.26-.37.637-.37 1.13V353h-1.14v-5.51h1.14v.63c.186-.227.423-.403.71-.53.293-.127.603-.19.93-.19z" fill="#560153"/><rect x="171" y="369" width="114" height="10" rx="5" fill="#f2f2f2"/><rect x="171" y="385" width="85" height="10" rx="5" fill="#f2f2f2"/><path d="M174.024 421.352v3.264h3.84v1.488h-3.84v3.408h4.32V431H172.2v-11.136h6.144v1.488zm17.079.688c.693 0 1.312.144 1.856.432a3.07 3.07 0 0 1 1.296 1.28c.32.565.48 1.248.48 2.048v5.2h-1.808v-4.928c0-.789-.198-1.392-.592-1.808-.395-.427-.934-.64-1.616-.64-.683 0-1.227.213-1.632.64-.395.416-.592 1.019-.592 1.808V431h-1.808v-4.928c0-.789-.198-1.392-.592-1.808-.395-.427-.934-.64-1.616-.64-.683 0-1.227.213-1.632.64-.395.416-.592 1.019-.592 1.808V431h-1.824v-8.816h1.824v1.008a3.025 3.025 0 0 1 1.136-.848 3.592 3.592 0 0 1 1.472-.304c.704 0 1.333.149 1.888.448.554.299.981.731 1.28 1.296.266-.533.682-.955 1.248-1.264a3.64 3.64 0 0 1 1.824-.48zm6.721-1.024a1.13 1.13 0 0 1-.832-.336 1.13 1.13 0 0 1-.336-.832c0-.331.112-.608.336-.832a1.13 1.13 0 0 1 .832-.336c.32 0 .592.112.816.336.224.224.336.501.336.832 0 .331-.112.608-.336.832a1.11 1.11 0 0 1-.816.336zm.896 1.168V431h-1.824v-8.816zm4.058-3.024V431h-1.824v-11.84zm10.171 3.024-5.408 12.96h-1.888l1.792-4.288-3.472-8.672h2.032l2.48 6.72 2.576-6.72zm16.925-2.304V431h-1.824v-7.616L224.658 431h-1.264l-3.408-7.616V431h-1.824v-11.12h1.968l3.904 8.72 3.888-8.72zm1.629 6.672c0-.885.182-1.669.544-2.352a4.066 4.066 0 0 1 3.616-2.16c.694 0 1.296.139 1.808.416.523.267.939.603 1.248 1.008v-1.28h1.84V431h-1.84v-1.312c-.309.416-.73.763-1.264 1.04-.533.277-1.141.416-1.824.416a3.92 3.92 0 0 1-2.08-.576 4.288 4.288 0 0 1-1.504-1.632c-.362-.704-.544-1.499-.544-2.384zm7.216.032c0-.608-.128-1.136-.384-1.584a2.58 2.58 0 0 0-.976-1.024 2.568 2.568 0 0 0-1.312-.352c-.469 0-.906.117-1.312.352a2.58 2.58 0 0 0-.992 1.008c-.245.437-.368.96-.368 1.568 0 .608.123 1.141.368 1.6.256.459.587.811.992 1.056a2.63 2.63 0 0 0 2.624 0 2.58 2.58 0 0 0 .976-1.024c.256-.459.384-.992.384-1.6zm6.204-2.912v4.88c0 .331.075.571.224.72.16.139.427.208.8.208h1.12V431h-1.44c-.821 0-1.451-.192-1.888-.576-.437-.384-.656-1.008-.656-1.872v-4.88h-1.04v-1.488h1.04v-2.192h1.84v2.192h2.144v1.488zm5.793 0v4.88c0 .331.075.571.224.72.16.139.427.208.8.208h1.12V431h-1.44c-.821 0-1.451-.192-1.888-.576-.437-.384-.656-1.008-.656-1.872v-4.88h-1.04v-1.488h1.04v-2.192h1.84v2.192h2.144v1.488zm8.225-1.632c.672 0 1.27.144 1.792.432.534.288.95.715 1.248 1.28.31.565.464 1.248.464 2.048v5.2h-1.808v-4.928c0-.789-.197-1.392-.592-1.808-.394-.427-.933-.64-1.616-.64-.682 0-1.226.213-1.632.64-.394.416-.592 1.019-.592 1.808V431h-1.824v-11.84h1.824v4.048c.31-.373.699-.661 1.168-.864a3.985 3.985 0 0 1 1.568-.304zm13.751 4.336c0 .331-.021.629-.064.896h-6.736c.053.704.315 1.269.784 1.696.469.427 1.045.64 1.728.64.981 0 1.675-.411 2.08-1.232h1.968a4 4 0 0 1-1.456 2c-.693.512-1.557.768-2.592.768-.843 0-1.6-.187-2.272-.56a4.185 4.185 0 0 1-1.568-1.6c-.373-.693-.56-1.493-.56-2.4 0-.907.181-1.701.544-2.384a3.936 3.936 0 0 1 1.552-1.6c.672-.373 1.44-.56 2.304-.56.832 0 1.573.181 2.224.544a3.835 3.835 0 0 1 1.52 1.536c.363.651.544 1.403.544 2.256zm-1.904-.576c-.011-.672-.251-1.211-.72-1.616s-1.051-.608-1.744-.608c-.629 0-1.168.203-1.616.608-.448.395-.715.933-.8 1.616zm15.379-3.616L283.431 431h-1.92l-1.776-6.512-1.776 6.512h-1.92l-2.752-8.816h1.856l1.84 7.088 1.872-7.088h1.904l1.792 7.056 1.824-7.056zm4.403 8.96c-.693 0-1.317-.123-1.872-.368-.544-.256-.976-.597-1.296-1.024a2.588 2.588 0 0 1-.512-1.456h1.888c.032.373.208.688.528.944.331.245.741.368 1.232.368.512 0 .907-.096 1.184-.288.288-.203.432-.459.432-.768 0-.331-.16-.576-.48-.736-.309-.16-.805-.336-1.488-.528-.661-.181-1.2-.357-1.616-.528a2.902 2.902 0 0 1-1.088-.784c-.299-.352-.448-.816-.448-1.392 0-.469.139-.896.416-1.28.277-.395.672-.704 1.184-.928.523-.224 1.12-.336 1.792-.336 1.003 0 1.808.256 2.416.768.619.501.949 1.189.992 2.064h-1.824a1.3 1.3 0 0 0-.48-.944c-.288-.235-.677-.352-1.168-.352-.48 0-.848.091-1.104.272a.841.841 0 0 0-.384.72c0 .235.085.432.256.592.171.16.379.288.624.384.245.085.608.197 1.088.336.64.171 1.163.347 1.568.528.416.171.773.427 1.072.768.299.341.453.795.464 1.36 0 .501-.139.949-.416 1.344-.277.395-.672.704-1.184.928-.501.224-1.093.336-1.776.336z" fill="#560153"/><rect x="171" y="441" width="67" height="19" rx="4.789" fill="#d9ddff"/><path d="M187.07 447.05V454h-1.14v-4.76l-2.12 4.76h-.79l-2.13-4.76V454h-1.14v-6.95h1.23l2.44 5.45 2.43-5.45zm6.448 4.06c0 .207-.013.393-.04.56h-4.21c.034.44.197.793.49 1.06.294.267.654.4 1.08.4.614 0 1.047-.257 1.3-.77h1.23c-.166.507-.47.923-.91 1.25-.433.32-.973.48-1.62.48-.526 0-1-.117-1.42-.35a2.616 2.616 0 0 1-.98-1c-.233-.433-.35-.933-.35-1.5s.114-1.063.34-1.49c.234-.433.557-.767.97-1 .42-.233.9-.35 1.44-.35a2.8 2.8 0 0 1 1.39.34c.407.227.724.547.95.96.227.407.34.877.34 1.41zm-1.19-.36c-.006-.42-.156-.757-.45-1.01-.293-.253-.656-.38-1.09-.38-.393 0-.73.127-1.01.38-.28.247-.446.583-.5 1.01zm3.542-1.33v3.05c0 .207.047.357.14.45.1.087.267.13.5.13h.7v.95h-.9c-.513 0-.906-.12-1.18-.36-.273-.24-.41-.63-.41-1.17v-3.05h-.65v-.93h.65v-1.37h1.15v1.37h1.34v.93zm4.601 0h-1.02V454h-1.15v-4.58h-.65v-.93h.65v-.39c0-.633.167-1.093.5-1.38.34-.293.87-.44 1.59-.44v.95c-.347 0-.59.067-.73.2-.14.127-.21.35-.21.67v.39h1.02zm3.3 4.67c-.52 0-.99-.117-1.41-.35-.42-.24-.75-.573-.99-1-.24-.433-.36-.933-.36-1.5 0-.56.124-1.057.37-1.49a2.562 2.562 0 0 1 1.01-1c.427-.233.904-.35 1.43-.35.527 0 1.004.117 1.43.35a2.55 2.55 0 0 1 1.01 1c.247.433.37.93.37 1.49 0 .56-.126 1.057-.38 1.49-.253.433-.6.77-1.04 1.01a2.99 2.99 0 0 1-1.44.35zm0-.99c.294 0 .567-.07.82-.21.26-.14.47-.35.63-.63.16-.28.24-.62.24-1.02s-.076-.737-.23-1.01a1.54 1.54 0 0 0-.61-.63 1.665 1.665 0 0 0-.82-.21c-.293 0-.566.07-.82.21-.246.14-.443.35-.59.63-.146.273-.22.61-.22 1.01 0 .593.15 1.053.45 1.38.307.32.69.48 1.15.48zm5.027-3.81c.167-.28.387-.497.66-.65.28-.16.61-.24.99-.24v1.18h-.29c-.446 0-.786.113-1.02.34-.226.227-.34.62-.34 1.18v2.9h-1.14v-5.51h1.14zm9.268-.89c.433 0 .82.09 1.16.27.347.18.617.447.81.8.2.353.3.78.3 1.28V454h-1.13v-3.08c0-.493-.123-.87-.37-1.13-.247-.267-.583-.4-1.01-.4-.427 0-.767.133-1.02.4-.247.26-.37.637-.37 1.13V454h-1.13v-3.08c0-.493-.123-.87-.37-1.13-.247-.267-.583-.4-1.01-.4-.427 0-.767.133-1.02.4-.247.26-.37.637-.37 1.13V454h-1.14v-5.51h1.14v.63c.187-.227.423-.403.71-.53s.593-.19.92-.19c.44 0 .833.093 1.18.28.347.187.613.457.8.81.167-.333.427-.597.78-.79.353-.2.733-.3 1.14-.3zm4.201-.64a.706.706 0 0 1-.52-.21.706.706 0 0 1-.21-.52c0-.207.07-.38.21-.52.14-.14.313-.21.52-.21.2 0 .37.07.51.21.14.14.21.313.21.52 0 .207-.07.38-.21.52-.14.14-.31.21-.51.21zm.56.73V454h-1.14v-5.51zm4.176-.09c.434 0 .82.09 1.16.27.347.18.617.447.81.8.194.353.29.78.29 1.28V454h-1.13v-3.08c0-.493-.123-.87-.37-1.13-.246-.267-.583-.4-1.01-.4-.426 0-.766.133-1.02.4-.246.26-.37.637-.37 1.13V454h-1.14v-5.51h1.14v.63c.187-.227.424-.403.71-.53a2.32 2.32 0 0 1 .93-.19z" fill="#560153"/><rect x="171" y="470" width="114" height="10" rx="5" fill="#f2f2f2"/><rect x="171" y="486" width="85" height="10" rx="5" fill="#f2f2f2"/><defs><clipPath id="a"><path fill="#fff" transform="translate(595 112)" d="M0 0h50v50H0z"/></clipPath><clipPath id="b"><path fill="#fff" transform="translate(644 88)" d="M0 0h20v20H0z"/></clipPath><clipPath id="c"><path fill="#fff" transform="translate(962 112)" d="M0 0h50v50H0z"/></clipPath><clipPath id="d"><path fill="#fff" transform="translate(228 112)" d="M0 0h50v50H0z"/></clipPath><clipPath id="e"><path fill="#fff" transform="translate(277 88)" d="M0 0h20v20H0z"/></clipPath><clipPath id="f"><path fill="#fff" transform="translate(1011 88)" d="M0 0h20v20H0z"/></clipPath></defs></svg>