<svg width="620" height="620" fill="none" xmlns="http://www.w3.org/2000/svg"><rect width="620" height="620" fill="#ffe999" rx="32" ry="32"/><rect x="62.863" y="164.978" width="419.53" height="289.745" rx="8.248" fill="#fff" stroke="#c67dff" stroke-width="1.48"/><circle cx="397.72" cy="196.132" r="3.808" fill="#fff"/><circle cx="397.72" cy="211.84" r="3.808" fill="#fff"/><circle cx="397.72" cy="227.549" r="3.808" fill="#fff"/><g clip-path="url(#a)" transform="translate(0 -541)"><rect x="429.611" y="782.83" width="151.943" height="158.515" rx="8.988" fill="#d9ddff"/><path d="M486.371 854.686v-1.898h4.3v16.535h-2.104v-14.637zm6.937 12.968c1.936-1.555 3.453-2.829 4.551-3.82 1.098-1.006 2.02-2.05 2.767-3.133.763-1.098 1.144-2.173 1.144-3.225 0-.991-.244-1.768-.732-2.332-.473-.58-1.243-.869-2.31-.869-1.037 0-1.845.327-2.424.983-.564.64-.869 1.502-.915 2.584h-2.013c.061-1.707.58-3.026 1.556-3.956.975-.93 2.233-1.395 3.773-1.395 1.571 0 2.813.434 3.728 1.303.93.869 1.395 2.066 1.395 3.591 0 1.265-.381 2.5-1.143 3.705a16.316 16.316 0 0 1-2.562 3.156c-.96.9-2.188 1.952-3.682 3.156h7.867v1.738h-11zm12.263-11.138c0-1.037.312-1.86.937-2.47.626-.625 1.426-.938 2.402-.938.976 0 1.776.313 2.401.938.625.61.938 1.433.938 2.47 0 1.052-.313 1.891-.938 2.516-.625.61-1.425.914-2.401.914-.976 0-1.776-.304-2.402-.914-.625-.625-.937-1.464-.937-2.516zm13.356-3.156-9.262 15.963h-2.059l9.263-15.963zm-10.017 1.029c-.519 0-.93.183-1.235.549-.29.351-.435.877-.435 1.578 0 .701.145 1.235.435 1.601.305.366.716.549 1.235.549.518 0 .93-.183 1.235-.549.305-.381.457-.915.457-1.601 0-.701-.152-1.227-.457-1.578-.305-.366-.717-.549-1.235-.549zm5.42 11.778c0-1.052.313-1.883.938-2.493.625-.625 1.425-.937 2.401-.937.976 0 1.769.312 2.379.937.625.61.937 1.441.937 2.493 0 1.037-.312 1.868-.937 2.493-.61.625-1.403.938-2.379.938s-1.776-.305-2.401-.915c-.625-.625-.938-1.464-.938-2.516zm3.316-2.127c-.518 0-.93.183-1.235.549-.305.351-.457.877-.457 1.578 0 .686.152 1.212.457 1.578.305.351.717.526 1.235.526.519 0 .93-.175 1.235-.526.305-.366.458-.892.458-1.578 0-.701-.153-1.227-.458-1.578-.305-.366-.716-.549-1.235-.549z" fill="#560153"/><path d="M505.579 909.474c25.588 0 46.332-20.743 46.332-46.331 0-25.588-20.744-46.331-46.332-46.331s-46.331 20.743-46.331 46.331c0 25.588 20.743 46.331 46.331 46.331z" stroke="#560153" stroke-width="9.741" stroke-linejoin="round"/><path d="M459.248 863.143c0-25.59 20.742-46.331 46.331-46.331" stroke="#fff" stroke-width="9.741" stroke-linejoin="round"/><path d="M475.715 827.718a46.145 46.145 0 0 1 29.861-10.906" stroke="#ffe999" stroke-width="9.741" stroke-linejoin="round"/></g><rect x="430.351" y="242.57" width="150.463" height="157.036" rx="8.248" stroke="#afb8ff" stroke-width="1.48"/><path d="M409.915 197.794h1.81v.549h-2.486v-5.171h.676zm4.3.616a2.1 2.1 0 0 1-1.038-.26 1.889 1.889 0 0 1-.728-.734 2.315 2.315 0 0 1-.259-1.113 2.2 2.2 0 0 1 .267-1.098c.183-.322.43-.567.742-.735.311-.173.66-.26 1.046-.26s.735.087 1.046.26c.312.168.557.411.735.727.183.317.274.685.274 1.106 0 .42-.094.791-.282 1.113a1.908 1.908 0 0 1-.749.734c-.317.173-.668.26-1.054.26zm0-.594c.243 0 .47-.056.683-.17a1.28 1.28 0 0 0 .512-.512c.133-.228.2-.505.2-.831 0-.327-.064-.604-.193-.831a1.231 1.231 0 0 0-.504-.505 1.381 1.381 0 0 0-.675-.17c-.248 0-.475.056-.683.17a1.208 1.208 0 0 0-.49.505c-.123.227-.185.504-.185.831 0 .331.059.611.178.838.124.228.287.398.49.512.202.109.425.163.667.163zm3.648-2.878c.119-.233.287-.413.505-.542.222-.129.492-.193.809-.193v.697h-.178c-.757 0-1.136.411-1.136 1.232v2.211h-.675v-4.066h.675zm5.803 1.216c0 .129-.007.265-.022.409h-3.25c.025.4.161.714.408.942.252.222.556.334.913.334.291 0 .534-.067.727-.201.198-.138.336-.321.415-.549h.727c-.109.391-.326.71-.653.957-.326.243-.732.364-1.216.364-.386 0-.733-.087-1.039-.26a1.859 1.859 0 0 1-.713-.734 2.315 2.315 0 0 1-.259-1.113c0-.421.084-.789.252-1.106.168-.316.403-.559.705-.727.307-.173.658-.26 1.054-.26.385 0 .727.085 1.023.253.297.168.525.4.683.697.163.292.245.623.245.994zm-.698-.141c0-.257-.056-.477-.17-.66a1.076 1.076 0 0 0-.468-.423 1.392 1.392 0 0 0-.645-.148 1.27 1.27 0 0 0-.876.326c-.237.218-.373.52-.408.905zm6.479-1.81c.316 0 .598.067.846.2.247.129.442.324.586.586.143.263.215.582.215.958v2.396h-.668v-2.3c0-.406-.101-.715-.304-.927-.198-.218-.467-.327-.809-.327-.351 0-.63.114-.838.341-.208.223-.312.547-.312.972v2.241h-.668v-2.3c0-.406-.101-.715-.304-.927-.198-.218-.467-.327-.809-.327-.351 0-.63.114-.838.341-.208.223-.312.547-.312.972v2.241h-.675v-4.066h.675v.586a1.34 1.34 0 0 1 .535-.489c.227-.114.477-.171.749-.171.341 0 .643.077.905.23.262.153.458.378.586.675.114-.287.302-.509.564-.668.262-.158.554-.237.876-.237zm-18.598 14.706c.564 0 1.052.106 1.462.319.416.208.732.507.95.898.222.391.334.851.334 1.38 0 .529-.112.989-.334 1.38a2.173 2.173 0 0 1-.95.89c-.41.203-.898.305-1.462.305h-1.61v-5.172zm0 4.615c.668 0 1.178-.176 1.529-.527.351-.356.527-.853.527-1.491 0-.643-.178-1.145-.535-1.506-.351-.361-.858-.542-1.521-.542h-.934v4.066zm5.41.623c-.381 0-.727-.086-1.039-.259a1.882 1.882 0 0 1-.727-.735 2.31 2.31 0 0 1-.26-1.113c0-.415.089-.781.267-1.098.183-.322.431-.566.742-.735a2.12 2.12 0 0 1 1.046-.259c.386 0 .735.086 1.047.259.311.169.556.411.734.728.183.316.275.685.275 1.105 0 .421-.094.792-.282 1.113a1.906 1.906 0 0 1-.75.735 2.156 2.156 0 0 1-1.053.259zm0-.593c.242 0 .47-.057.682-.171.213-.114.384-.284.512-.512.134-.227.201-.504.201-.831 0-.326-.065-.603-.193-.831a1.237 1.237 0 0 0-.505-.504 1.382 1.382 0 0 0-.675-.171c-.247 0-.475.057-.683.171a1.203 1.203 0 0 0-.489.504c-.124.228-.186.505-.186.831 0 .332.059.611.178.839.124.227.287.398.49.512.203.108.425.163.668.163zm3.648-4.964v5.491h-.676v-5.491zm2.924 5.557c-.381 0-.727-.086-1.039-.259a1.882 1.882 0 0 1-.727-.735 2.31 2.31 0 0 1-.26-1.113c0-.415.089-.781.267-1.098.183-.322.431-.566.742-.735a2.12 2.12 0 0 1 1.046-.259c.386 0 .735.086 1.047.259.311.169.556.411.734.728.183.316.275.685.275 1.105 0 .421-.094.792-.282 1.113a1.906 1.906 0 0 1-.75.735 2.156 2.156 0 0 1-1.053.259zm0-.593c.242 0 .47-.057.682-.171.213-.114.384-.284.512-.512.134-.227.201-.504.201-.831 0-.326-.065-.603-.193-.831a1.237 1.237 0 0 0-.505-.504 1.382 1.382 0 0 0-.675-.171c-.247 0-.475.057-.683.171a1.203 1.203 0 0 0-.489.504c-.124.228-.186.505-.186.831 0 .332.06.611.178.839.124.227.287.398.49.512.203.108.425.163.668.163zm3.648-2.879a1.3 1.3 0 0 1 .504-.542c.223-.128.492-.193.809-.193v.698h-.178c-.757 0-1.135.41-1.135 1.231v2.212h-.676v-4.067h.676zm5.51 3.472c-.312 0-.591-.052-.838-.155a1.462 1.462 0 0 1-.587-.446 1.208 1.208 0 0 1-.237-.66h.697a.69.69 0 0 0 .282.497c.174.129.399.193.676.193.257 0 .46-.057.608-.171a.521.521 0 0 0 .223-.43.417.417 0 0 0-.238-.393c-.158-.089-.403-.176-.734-.26a6.044 6.044 0 0 1-.742-.237 1.409 1.409 0 0 1-.49-.364c-.134-.163-.2-.376-.2-.638 0-.208.061-.398.185-.571.124-.174.299-.31.527-.408.227-.104.487-.156.779-.156.45 0 .814.113 1.091.341.277.228.425.539.445.935h-.675a.695.695 0 0 0-.26-.512c-.153-.129-.361-.193-.623-.193-.243 0-.436.052-.579.156a.483.483 0 0 0-.215.408c0 .134.042.245.126.334.089.084.198.153.326.208.134.049.317.106.549.17.292.079.53.159.713.238.183.074.339.188.467.341.134.153.203.354.208.601 0 .223-.062.423-.186.601a1.258 1.258 0 0 1-.526.423c-.223.099-.48.148-.772.148zm2.786-4.793a.444.444 0 0 1-.327-.133.444.444 0 0 1-.133-.327c0-.129.044-.237.133-.326a.445.445 0 0 1 .327-.134c.124 0 .227.045.312.134a.442.442 0 0 1 .133.326.444.444 0 0 1-.133.327.413.413 0 0 1-.312.133zm.326.66v4.067h-.675v-4.067zm1.975.557v2.397c0 .197.042.338.126.423.084.079.23.118.438.118h.497v.572h-.609c-.376 0-.658-.087-.846-.26-.187-.173-.281-.458-.281-.853v-2.397h-.527v-.557h.527v-1.023h.675v1.023h1.061v.557zm-27.161 14.046v5.172h-.676v-5.172zm1.825 1.855c.134-.233.332-.425.594-.579.267-.158.576-.237.928-.237.361 0 .687.086.979.259.297.174.529.418.697.735.169.312.253.675.253 1.091 0 .41-.084.776-.253 1.098a1.854 1.854 0 0 1-1.676 1.016c-.347 0-.653-.076-.921-.23a1.707 1.707 0 0 1-.601-.586v2.679h-.675v-5.995h.675zm2.761 1.269c0-.307-.062-.574-.186-.802a1.286 1.286 0 0 0-.504-.519 1.364 1.364 0 0 0-.69-.178 1.338 1.338 0 0 0-1.195.712 1.634 1.634 0 0 0-.186.794c0 .307.062.576.186.809.129.227.297.403.505.527.212.118.442.178.69.178.252 0 .482-.06.69-.178.212-.124.38-.3.504-.527.124-.233.186-.505.186-.816zm3.018 2.114c-.312 0-.591-.052-.839-.155a1.465 1.465 0 0 1-.586-.446 1.208 1.208 0 0 1-.237-.66h.697a.69.69 0 0 0 .282.497c.173.129.398.193.675.193.258 0 .461-.057.609-.171a.521.521 0 0 0 .223-.43.417.417 0 0 0-.238-.393c-.158-.089-.403-.176-.734-.26a5.988 5.988 0 0 1-.742-.237 1.409 1.409 0 0 1-.49-.364c-.134-.163-.201-.376-.201-.638 0-.208.062-.398.186-.571.124-.173.299-.31.527-.408.227-.104.487-.156.779-.156.45 0 .814.113 1.091.341.277.228.425.539.445.935h-.675a.695.695 0 0 0-.26-.512c-.153-.129-.361-.193-.623-.193-.243 0-.436.052-.579.156a.48.48 0 0 0-.215.408c0 .134.042.245.126.334.089.084.198.153.326.208.134.049.317.106.549.17.292.079.53.159.713.238.183.074.339.188.467.341.134.153.203.354.208.601 0 .223-.062.423-.186.601a1.258 1.258 0 0 1-.526.423c-.223.099-.48.148-.772.148zm6.043-4.132v4.066h-.675v-.601a1.334 1.334 0 0 1-.542.489c-.227.114-.48.171-.757.171-.316 0-.601-.064-.853-.193a1.474 1.474 0 0 1-.601-.594c-.143-.262-.215-.581-.215-.957v-2.381h.668v2.292c0 .401.101.71.304.928.203.212.48.319.831.319.361 0 .645-.112.853-.334.208-.223.312-.547.312-.972v-2.233zm6.03-.075c.316 0 .598.067.846.201.247.128.442.324.586.586.143.262.215.581.215.957v2.397h-.668v-2.301c0-.405-.101-.714-.304-.927-.198-.218-.467-.327-.809-.327-.351 0-.63.114-.838.342-.208.222-.312.546-.312.972v2.241h-.668v-2.301c0-.405-.101-.714-.304-.927-.198-.218-.467-.327-.809-.327-.351 0-.63.114-.838.342-.208.222-.312.546-.312.972v2.241h-.675v-4.066h.675v.586c.134-.213.312-.376.535-.49.227-.114.477-.171.749-.171.341 0 .643.077.905.23.262.154.458.379.586.676.114-.287.302-.51.564-.668.262-.159.554-.238.876-.238zM373.905 394.78c.514 0 .958.097 1.332.291.378.189.667.461.865.817.203.356.304.776.304 1.258s-.101.901-.304 1.257a1.987 1.987 0 0 1-.865.811c-.374.185-.818.277-1.332.277h-1.467v-4.711zm0 4.204c.609 0 1.073-.16 1.393-.48.32-.324.48-.777.48-1.358 0-.586-.163-1.043-.487-1.372-.32-.329-.782-.494-1.386-.494h-.851v3.704zm3.928-3.704v1.575h1.716v.507h-1.716v1.622h1.919v.507h-2.534v-4.718h2.534v.507zm2.62 1.852c0-.459.104-.872.311-1.237.207-.369.489-.658.845-.865a2.36 2.36 0 0 1 1.196-.311c.514 0 .963.124 1.346.372.383.248.662.599.838 1.054h-.737a1.47 1.47 0 0 0-.568-.655c-.243-.154-.536-.23-.879-.23-.329 0-.624.076-.885.23a1.602 1.602 0 0 0-.615.655c-.149.28-.223.609-.223.987 0 .374.074.703.223.987.149.279.354.496.615.649.261.153.556.23.885.23.343 0 .636-.075.879-.223.248-.153.437-.372.568-.656h.737c-.176.451-.455.8-.838 1.048-.383.243-.832.365-1.346.365-.437 0-.835-.102-1.196-.304a2.278 2.278 0 0 1-.845-.859 2.462 2.462 0 0 1-.311-1.237zm-35.123 2.359h-.615l-2.474-3.751v3.751h-.615v-4.718h.615l2.474 3.745v-3.745h.615zm3.185.048c-.438 0-.836-.102-1.197-.305a2.309 2.309 0 0 1-.858-.858 2.492 2.492 0 0 1-.311-1.244c0-.459.103-.872.311-1.237.212-.369.498-.655.858-.858a2.361 2.361 0 0 1 1.197-.311c.441 0 .842.104 1.203.311.36.203.644.486.851.851.208.365.311.78.311 1.244 0 .464-.103.879-.311 1.244a2.255 2.255 0 0 1-.851.858 2.412 2.412 0 0 1-1.203.305zm0-.534c.329 0 .624-.077.885-.23.266-.153.473-.372.622-.656a2.05 2.05 0 0 0 .23-.987c0-.378-.077-.707-.23-.987a1.602 1.602 0 0 0-.615-.655 1.726 1.726 0 0 0-.892-.23c-.334 0-.631.076-.893.23a1.652 1.652 0 0 0-.622.655c-.148.28-.223.609-.223.987 0 .374.075.703.223.987.154.284.361.503.622.656.266.153.564.23.893.23zm7.071-4.225-1.778 4.711h-.71l-1.777-4.711h.655l1.481 4.062 1.48-4.062zm-42.096 4.759c-.438 0-.836-.102-1.197-.305a2.309 2.309 0 0 1-.858-.858 2.492 2.492 0 0 1-.311-1.244c0-.459.103-.872.311-1.237.212-.369.498-.655.858-.858a2.361 2.361 0 0 1 1.197-.311c.441 0 .842.104 1.203.311.36.203.644.486.851.851.208.365.311.78.311 1.244 0 .464-.103.879-.311 1.244a2.255 2.255 0 0 1-.851.858 2.412 2.412 0 0 1-1.203.305zm0-.534c.329 0 .624-.077.885-.23.266-.153.473-.372.622-.656a2.05 2.05 0 0 0 .23-.987c0-.378-.077-.707-.23-.987a1.602 1.602 0 0 0-.615-.655 1.726 1.726 0 0 0-.892-.23c-.334 0-.631.076-.893.23a1.652 1.652 0 0 0-.622.655c-.148.28-.223.609-.223.987 0 .374.075.703.223.987.154.284.361.503.622.656.266.153.564.23.893.23zm2.948-1.873c0-.459.103-.872.31-1.237.208-.369.489-.658.845-.865.361-.207.76-.311 1.197-.311.514 0 .962.124 1.345.372s.662.599.838 1.054h-.737a1.468 1.468 0 0 0-.567-.655c-.244-.154-.537-.23-.879-.23-.329 0-.624.076-.886.23a1.602 1.602 0 0 0-.615.655c-.148.28-.223.609-.223.987 0 .374.075.703.223.987.149.279.354.496.615.649.262.153.557.23.886.23.342 0 .635-.075.879-.223a1.47 1.47 0 0 0 .567-.656h.737c-.176.451-.455.8-.838 1.048-.383.243-.831.365-1.345.365a2.41 2.41 0 0 1-1.197-.304 2.285 2.285 0 0 1-.845-.859 2.462 2.462 0 0 1-.31-1.237zm8.35-2.352v.5h-1.284v4.211h-.615v-4.211h-1.291v-.5zm-41.325 4.759c-.311 0-.591-.055-.839-.163a1.434 1.434 0 0 1-.574-.459 1.19 1.19 0 0 1-.216-.683h.655a.884.884 0 0 0 .271.561c.162.149.396.223.703.223.293 0 .522-.072.689-.216a.72.72 0 0 0 .257-.568.64.64 0 0 0-.149-.439.939.939 0 0 0-.372-.257 5.736 5.736 0 0 0-.601-.19 5.45 5.45 0 0 1-.75-.243 1.243 1.243 0 0 1-.48-.378c-.131-.176-.196-.41-.196-.703 0-.257.065-.485.196-.683.13-.198.313-.352.547-.46.239-.108.512-.162.818-.162.442 0 .802.111 1.082.331.283.221.443.514.479.879h-.675a.722.722 0 0 0-.284-.473c-.167-.14-.388-.21-.663-.21-.257 0-.466.068-.628.203-.163.131-.244.316-.244.554 0 .172.048.311.142.419.099.109.219.192.358.251.145.054.345.117.602.189.311.085.561.171.75.257.19.081.352.209.487.385.135.171.203.406.203.703 0 .23-.061.446-.183.649a1.337 1.337 0 0 1-.54.493c-.239.126-.521.19-.845.19zm3.088-4.259v1.575h1.717v.507h-1.717v1.622h1.92v.507h-2.535v-4.718h2.535v.507zm6 .879c0 .392-.135.719-.405.98-.266.257-.674.385-1.224.385h-.905v1.967h-.616v-4.711h1.521c.532 0 .935.128 1.21.385.28.257.419.588.419.994zm-1.629.858c.343 0 .595-.074.757-.223.163-.148.244-.36.244-.635 0-.581-.334-.872-1.001-.872h-.905v1.73zm-36.958 1.427h-2.055l-.378 1.047h-.649l1.703-4.684h.71l1.696 4.684h-.648zm-.176-.501-.851-2.379-.852 2.379zm2.547-3.163v2.981c0 .419.102.73.305.933.207.202.493.304.858.304.361 0 .642-.102.845-.304.207-.203.311-.514.311-.933v-2.981h.615v2.974c0 .392-.079.723-.237.994a1.48 1.48 0 0 1-.642.595c-.266.13-.565.196-.899.196-.333 0-.635-.066-.906-.196a1.502 1.502 0 0 1-.635-.595c-.153-.271-.23-.602-.23-.994v-2.974zm7.529 1.365a1.445 1.445 0 0 0-.568-.635 1.613 1.613 0 0 0-.865-.23c-.329 0-.626.077-.892.23a1.597 1.597 0 0 0-.622.649 2.037 2.037 0 0 0-.223.973c0 .37.074.694.223.974.153.279.36.495.622.648.266.149.563.223.892.223.46 0 .838-.137 1.136-.412.297-.275.47-.646.52-1.115h-1.879v-.5h2.535v.473a2.307 2.307 0 0 1-1.183 1.832 2.322 2.322 0 0 1-1.129.277c-.437 0-.836-.102-1.196-.304a2.314 2.314 0 0 1-.859-.859 2.462 2.462 0 0 1-.311-1.237c0-.459.104-.872.311-1.237.212-.369.498-.655.859-.858.36-.207.759-.311 1.196-.311.5 0 .942.124 1.325.372.387.247.669.597.845 1.047zm-40.436-1.365v3.481c0 .388-.119.698-.358.933-.239.23-.554.345-.946.345-.397 0-.715-.118-.953-.352-.239-.239-.359-.563-.359-.973h.615c.005.23.063.417.176.561.117.144.291.216.521.216.229 0 .401-.068.513-.203a.809.809 0 0 0 .169-.527v-3.481zm1.814 0v2.981c0 .419.101.73.304.933.207.202.493.304.858.304.361 0 .642-.102.845-.304.207-.203.311-.514.311-.933v-2.981h.615v2.974c0 .392-.079.723-.237.994a1.48 1.48 0 0 1-.642.595c-.266.13-.565.196-.899.196a2.06 2.06 0 0 1-.905-.196 1.499 1.499 0 0 1-.636-.595c-.153-.271-.23-.602-.23-.994v-2.974zm4.574 4.211h1.65v.5h-2.265v-4.711h.615zm-36.913-4.014v3.481c0 .387-.119.698-.358.933-.239.229-.554.344-.946.344-.397 0-.715-.117-.953-.351-.239-.239-.359-.563-.359-.974h.615c.005.23.064.417.176.561.117.145.291.217.521.217.229 0 .401-.068.513-.203a.81.81 0 0 0 .169-.527v-3.481zm1.814 0v2.981c0 .419.101.73.304.932.207.203.493.305.858.305.361 0 .642-.102.845-.305.207-.202.311-.513.311-.932v-2.981h.615v2.974c0 .392-.079.723-.236.993a1.482 1.482 0 0 1-.643.595 2.002 2.002 0 0 1-.899.196c-.333 0-.635-.065-.905-.196a1.493 1.493 0 0 1-.636-.595c-.153-.27-.23-.601-.23-.993v-2.974zm7.663 4.711h-.615l-2.474-3.751v3.751h-.615v-4.718h.615l2.474 3.745v-3.745h.615zm-38.799-4.874v4.677h-.616v-3.488l-1.554 3.488h-.433l-1.561-3.494v3.494h-.615v-4.677h.662l1.731 3.866 1.73-3.866zm3.828 3.63h-2.055l-.379 1.047h-.649l1.704-4.684h.709l1.697 4.684h-.649zm-.176-.501-.852-2.379-.852 2.379zm5.244-3.163-1.534 2.934v1.777h-.616v-1.777l-1.541-2.934h.683l1.163 2.386 1.162-2.386zm-41.492 3.664h-2.055l-.378 1.047h-.649l1.703-4.684h.71l1.696 4.684h-.648zm-.176-.501-.851-2.379-.852 2.379zm5.096-1.784c0 .392-.136.719-.406.98-.266.257-.674.385-1.223.385h-.906v1.967h-.615v-4.711h1.521c.531 0 .935.128 1.21.385.279.257.419.588.419.994zm-1.629.858c.342 0 .594-.074.757-.223.162-.148.243-.36.243-.635 0-.581-.333-.872-1-.872h-.906v1.73zm4.874 2.474-1.122-1.926h-.744v1.926h-.615v-4.711h1.521c.356 0 .656.061.899.182.248.122.433.287.554.494.122.207.183.444.183.71 0 .324-.095.61-.284.858-.185.248-.464.412-.838.493l1.183 1.974zm-1.866-2.42h.906c.333 0 .584-.081.75-.243.167-.167.25-.388.25-.662 0-.28-.083-.496-.25-.649-.162-.154-.412-.23-.75-.23h-.906z" fill="#000"/><path fill="#560153" d="M187.988 278.651h15.958v104.77h-15.958zm30.53 23.592h15.958v81.179h-15.958zm30.529 38.508h15.958v42.671h-15.958zm0-62.1h15.958v62.099h-15.958z"/><path fill="#c67dff" d="M157.938 292.201h15.759v34.67h-15.759z"/><path fill="#560153" d="M370.816 326.874h15.958v56.548h-15.958zm-212.877 0h15.611v56.548h-15.611zm121.635-24.631h15.958v81.179h-15.958zm30.28 49.842h15.759v31.518h-15.759zm30.779-49.842h15.611v81.179h-15.611zM187.988 239.45h15.958v39.202h-15.958z"/><path fill="#c67dff" d="M127.051 313.002h15.759v31.518h-15.759z"/><path fill="#560153" d="M127.051 344.521h15.759v39.082h-15.759z"/><path fill="#d9ddff" d="M309.854 292.201h15.759v59.884h-15.759z"/><path fill="#c67dff" d="M309.854 292.201h15.759v-16.389h-15.759zm86.359-93.293h6.304v-3.782h-6.304z"/><path fill="#d9ddff" d="M396.213 214.667h6.304v-3.782h-6.304z"/><path fill="#560153" d="M396.213 230.426h6.304v-3.782h-6.304z"/><defs><clipPath id="a"><rect x="429.611" y="782.83" width="151.943" height="158.515" rx="8.988" fill="#fff"/></clipPath></defs></svg>