<?xml version="1.0" encoding="UTF-8" standalone="no"?>
<svg
   width="768"
   height="768"
   viewBox="0 0 768 768"
   fill="none"
   version="1.1"
   id="svg69"
   sodipodi:docname="hero-empi-square.svg"
   inkscape:version="1.4 (86a8ad7, 2024-10-11)"
   xmlns:inkscape="http://www.inkscape.org/namespaces/inkscape"
   xmlns:sodipodi="http://sodipodi.sourceforge.net/DTD/sodipodi-0.dtd"
   xmlns="http://www.w3.org/2000/svg"
   xmlns:svg="http://www.w3.org/2000/svg">
  <sodipodi:namedview
     id="namedview69"
     pagecolor="#ffffff"
     bordercolor="#000000"
     borderopacity="0.25"
     inkscape:showpageshadow="2"
     inkscape:pageopacity="0.0"
     inkscape:pagecheckerboard="0"
     inkscape:deskcolor="#d1d1d1"
     inkscape:zoom="1.375"
     inkscape:cx="408.36364"
     inkscape:cy="454.18182"
     inkscape:window-width="3840"
     inkscape:window-height="2054"
     inkscape:window-x="-11"
     inkscape:window-y="-11"
     inkscape:window-maximized="1"
     inkscape:current-layer="svg69" />
  <rect
     width="768"
     height="768"
     rx="32"
     fill="#ffe999"
     id="rect2"
     x="0"
     y="0"
     style="stroke-width:0.848943"
     ry="32" />
  <g
     id="g100"
     transform="translate(-246,56)">
    <rect
       x="278.78"
       y="229.78"
       width="197.44"
       height="242.44"
       rx="11.2199"
       fill="#fffae8"
       id="rect3"
       clip-path="url(#clipPath99)"
       transform="translate(28)" />
    <rect
       x="278.78"
       y="229.78"
       width="197.44"
       height="242.44"
       rx="11.2199"
       stroke="#ffe999"
       stroke-width="1.56016"
       id="rect4"
       clip-path="url(#clipPath98)"
       transform="translate(28)" />
    <path
       d="m 324.718,350.185 v 8.517 c 0,1.054 -0.323,1.887 -0.969,2.499 -0.635,0.612 -1.473,0.918 -2.516,0.918 -1.043,0 -1.887,-0.306 -2.533,-0.918 -0.635,-0.612 -0.952,-1.445 -0.952,-2.499 h 1.955 c 0.011,0.521 0.142,0.935 0.391,1.241 0.261,0.306 0.64,0.459 1.139,0.459 0.499,0 0.878,-0.153 1.139,-0.459 0.261,-0.317 0.391,-0.731 0.391,-1.241 v -8.517 z m 11.636,2.448 V 362 h -1.938 v -1.105 c -0.306,0.385 -0.709,0.691 -1.207,0.918 -0.488,0.215 -1.009,0.323 -1.564,0.323 -0.737,0 -1.4,-0.153 -1.989,-0.459 -0.578,-0.306 -1.037,-0.759 -1.377,-1.36 -0.329,-0.601 -0.493,-1.326 -0.493,-2.176 v -5.508 h 1.921 v 5.219 c 0,0.839 0.209,1.485 0.629,1.938 0.419,0.442 0.991,0.663 1.717,0.663 0.725,0 1.297,-0.221 1.717,-0.663 0.43,-0.453 0.646,-1.099 0.646,-1.938 v -5.219 z m 7.283,-0.153 c 0.736,0 1.394,0.153 1.972,0.459 0.589,0.306 1.048,0.759 1.377,1.36 0.328,0.601 0.493,1.326 0.493,2.176 V 362 h -1.921 v -5.236 c 0,-0.839 -0.21,-1.479 -0.629,-1.921 -0.42,-0.453 -0.992,-0.68 -1.717,-0.68 -0.726,0 -1.304,0.227 -1.734,0.68 -0.42,0.442 -0.629,1.082 -0.629,1.921 V 362 h -1.938 v -9.367 h 1.938 v 1.071 c 0.317,-0.385 0.719,-0.686 1.207,-0.901 0.498,-0.215 1.025,-0.323 1.581,-0.323 z m 14.899,4.607 c 0,0.351 -0.023,0.669 -0.068,0.952 h -7.157 c 0.056,0.748 0.334,1.349 0.833,1.802 0.498,0.453 1.11,0.68 1.836,0.68 1.042,0 1.779,-0.436 2.21,-1.309 h 2.091 c -0.284,0.861 -0.799,1.57 -1.547,2.125 -0.737,0.544 -1.655,0.816 -2.754,0.816 -0.896,0 -1.7,-0.198 -2.414,-0.595 -0.703,-0.408 -1.258,-0.975 -1.666,-1.7 -0.397,-0.737 -0.595,-1.587 -0.595,-2.55 0,-0.963 0.192,-1.808 0.578,-2.533 0.396,-0.737 0.946,-1.303 1.649,-1.7 0.714,-0.397 1.53,-0.595 2.448,-0.595 0.884,0 1.671,0.193 2.363,0.578 0.691,0.385 1.229,0.929 1.615,1.632 0.385,0.691 0.578,1.49 0.578,2.397 z m -2.023,-0.612 c -0.012,-0.714 -0.267,-1.286 -0.765,-1.717 -0.499,-0.431 -1.117,-0.646 -1.853,-0.646 -0.669,0 -1.241,0.215 -1.717,0.646 -0.476,0.419 -0.76,0.992 -0.85,1.717 z m 6.055,3.196 -2.057,4.692 h -1.258 l 1.207,-4.692 z m 7.945,-4.148 c -1.178,-0.589 -1.768,-1.519 -1.768,-2.788 0,-0.612 0.153,-1.173 0.459,-1.683 0.306,-0.51 0.765,-0.912 1.377,-1.207 0.612,-0.306 1.36,-0.459 2.244,-0.459 0.873,0 1.615,0.153 2.227,0.459 0.624,0.295 1.088,0.697 1.394,1.207 0.306,0.51 0.459,1.071 0.459,1.683 0,0.635 -0.164,1.196 -0.493,1.683 -0.317,0.476 -0.742,0.844 -1.275,1.105 0.646,0.238 1.156,0.629 1.53,1.173 0.374,0.533 0.561,1.162 0.561,1.887 0,0.737 -0.187,1.388 -0.561,1.955 -0.374,0.567 -0.895,1.003 -1.564,1.309 -0.668,0.306 -1.428,0.459 -2.278,0.459 -0.85,0 -1.609,-0.153 -2.278,-0.459 -0.657,-0.306 -1.173,-0.742 -1.547,-1.309 -0.374,-0.567 -0.561,-1.218 -0.561,-1.955 0,-0.737 0.187,-1.371 0.561,-1.904 0.374,-0.533 0.879,-0.918 1.513,-1.156 z m 4.539,-2.55 c 0,-0.635 -0.198,-1.122 -0.595,-1.462 -0.396,-0.34 -0.94,-0.51 -1.632,-0.51 -0.68,0 -1.218,0.17 -1.615,0.51 -0.396,0.34 -0.595,0.833 -0.595,1.479 0,0.567 0.204,1.031 0.612,1.394 0.42,0.351 0.952,0.527 1.598,0.527 0.646,0 1.179,-0.181 1.598,-0.544 0.42,-0.363 0.629,-0.827 0.629,-1.394 z m -2.227,3.4 c -0.748,0 -1.36,0.187 -1.836,0.561 -0.464,0.363 -0.697,0.89 -0.697,1.581 0,0.646 0.227,1.173 0.68,1.581 0.454,0.397 1.071,0.595 1.853,0.595 0.771,0 1.377,-0.204 1.819,-0.612 0.454,-0.408 0.68,-0.929 0.68,-1.564 0,-0.68 -0.232,-1.207 -0.697,-1.581 -0.453,-0.374 -1.054,-0.561 -1.802,-0.561 z m 8.954,-2.159 v 5.185 c 0,0.351 0.079,0.606 0.238,0.765 0.17,0.147 0.453,0.221 0.85,0.221 h 1.19 V 362 h -1.53 c -0.873,0 -1.541,-0.204 -2.006,-0.612 -0.465,-0.408 -0.697,-1.071 -0.697,-1.989 v -5.185 h -1.105 v -1.581 h 1.105 v -2.329 h 1.955 v 2.329 h 2.278 v 1.581 z m 8.909,-1.734 c 0.714,0 1.349,0.153 1.904,0.459 0.567,0.306 1.009,0.759 1.326,1.36 0.329,0.601 0.493,1.326 0.493,2.176 V 362 h -1.921 v -5.236 c 0,-0.839 -0.209,-1.479 -0.629,-1.921 -0.419,-0.453 -0.991,-0.68 -1.717,-0.68 -0.725,0 -1.303,0.227 -1.734,0.68 -0.419,0.442 -0.629,1.082 -0.629,1.921 V 362 h -1.938 v -12.58 h 1.938 v 4.301 c 0.329,-0.397 0.743,-0.703 1.241,-0.918 0.51,-0.215 1.066,-0.323 1.666,-0.323 z m 10.101,-1.105 v -1.768 h 3.536 V 362 h -1.955 v -10.625 z m 8.613,7.259 c 0.113,0.567 0.357,0.997 0.731,1.292 0.374,0.295 0.878,0.442 1.513,0.442 0.804,0 1.394,-0.317 1.768,-0.952 0.374,-0.635 0.561,-1.717 0.561,-3.247 -0.272,0.385 -0.658,0.686 -1.156,0.901 -0.488,0.204 -1.02,0.306 -1.598,0.306 -0.737,0 -1.406,-0.147 -2.006,-0.442 -0.601,-0.306 -1.077,-0.754 -1.428,-1.343 -0.34,-0.601 -0.51,-1.326 -0.51,-2.176 0,-1.247 0.362,-2.238 1.088,-2.975 0.736,-0.748 1.745,-1.122 3.026,-1.122 1.541,0 2.635,0.516 3.281,1.547 0.657,1.02 0.986,2.59 0.986,4.709 0,1.462 -0.125,2.658 -0.374,3.587 -0.238,0.929 -0.658,1.632 -1.258,2.108 -0.601,0.476 -1.434,0.714 -2.499,0.714 -1.213,0 -2.148,-0.317 -2.805,-0.952 -0.658,-0.635 -1.026,-1.434 -1.105,-2.397 z m 2.159,-2.89 c 0.68,0 1.212,-0.21 1.598,-0.629 0.396,-0.431 0.595,-0.997 0.595,-1.7 0,-0.782 -0.21,-1.388 -0.629,-1.819 -0.408,-0.442 -0.969,-0.663 -1.683,-0.663 -0.714,0 -1.281,0.227 -1.7,0.68 -0.408,0.442 -0.612,1.026 -0.612,1.751 0,0.691 0.198,1.264 0.595,1.717 0.408,0.442 1.02,0.663 1.836,0.663 z m 8.309,-0.221 c -1.179,-0.589 -1.768,-1.519 -1.768,-2.788 0,-0.612 0.153,-1.173 0.459,-1.683 0.306,-0.51 0.765,-0.912 1.377,-1.207 0.612,-0.306 1.36,-0.459 2.244,-0.459 0.872,0 1.615,0.153 2.227,0.459 0.623,0.295 1.088,0.697 1.394,1.207 0.306,0.51 0.459,1.071 0.459,1.683 0,0.635 -0.165,1.196 -0.493,1.683 -0.318,0.476 -0.743,0.844 -1.275,1.105 0.646,0.238 1.156,0.629 1.53,1.173 0.374,0.533 0.561,1.162 0.561,1.887 0,0.737 -0.187,1.388 -0.561,1.955 -0.374,0.567 -0.896,1.003 -1.564,1.309 -0.669,0.306 -1.428,0.459 -2.278,0.459 -0.85,0 -1.61,-0.153 -2.278,-0.459 -0.658,-0.306 -1.173,-0.742 -1.547,-1.309 -0.374,-0.567 -0.561,-1.218 -0.561,-1.955 0,-0.737 0.187,-1.371 0.561,-1.904 0.374,-0.533 0.878,-0.918 1.513,-1.156 z m 4.539,-2.55 c 0,-0.635 -0.199,-1.122 -0.595,-1.462 -0.397,-0.34 -0.941,-0.51 -1.632,-0.51 -0.68,0 -1.219,0.17 -1.615,0.51 -0.397,0.34 -0.595,0.833 -0.595,1.479 0,0.567 0.204,1.031 0.612,1.394 0.419,0.351 0.952,0.527 1.598,0.527 0.646,0 1.178,-0.181 1.598,-0.544 0.419,-0.363 0.629,-0.827 0.629,-1.394 z m -2.227,3.4 c -0.748,0 -1.36,0.187 -1.836,0.561 -0.465,0.363 -0.697,0.89 -0.697,1.581 0,0.646 0.226,1.173 0.68,1.581 0.453,0.397 1.071,0.595 1.853,0.595 0.77,0 1.377,-0.204 1.819,-0.612 0.453,-0.408 0.68,-0.929 0.68,-1.564 0,-0.68 -0.233,-1.207 -0.697,-1.581 -0.454,-0.374 -1.054,-0.561 -1.802,-0.561 z m 8.529,-0.85 c -1.179,-0.589 -1.768,-1.519 -1.768,-2.788 0,-0.612 0.153,-1.173 0.459,-1.683 0.306,-0.51 0.765,-0.912 1.377,-1.207 0.612,-0.306 1.36,-0.459 2.244,-0.459 0.872,0 1.615,0.153 2.227,0.459 0.623,0.295 1.088,0.697 1.394,1.207 0.306,0.51 0.459,1.071 0.459,1.683 0,0.635 -0.165,1.196 -0.493,1.683 -0.318,0.476 -0.743,0.844 -1.275,1.105 0.646,0.238 1.156,0.629 1.53,1.173 0.374,0.533 0.561,1.162 0.561,1.887 0,0.737 -0.187,1.388 -0.561,1.955 -0.374,0.567 -0.896,1.003 -1.564,1.309 -0.669,0.306 -1.428,0.459 -2.278,0.459 -0.85,0 -1.61,-0.153 -2.278,-0.459 -0.658,-0.306 -1.173,-0.742 -1.547,-1.309 -0.374,-0.567 -0.561,-1.218 -0.561,-1.955 0,-0.737 0.187,-1.371 0.561,-1.904 0.374,-0.533 0.878,-0.918 1.513,-1.156 z m 4.539,-2.55 c 0,-0.635 -0.199,-1.122 -0.595,-1.462 -0.397,-0.34 -0.941,-0.51 -1.632,-0.51 -0.68,0 -1.219,0.17 -1.615,0.51 -0.397,0.34 -0.595,0.833 -0.595,1.479 0,0.567 0.204,1.031 0.612,1.394 0.419,0.351 0.952,0.527 1.598,0.527 0.646,0 1.178,-0.181 1.598,-0.544 0.419,-0.363 0.629,-0.827 0.629,-1.394 z m -2.227,3.4 c -0.748,0 -1.36,0.187 -1.836,0.561 -0.465,0.363 -0.697,0.89 -0.697,1.581 0,0.646 0.226,1.173 0.68,1.581 0.453,0.397 1.071,0.595 1.853,0.595 0.77,0 1.377,-0.204 1.819,-0.612 0.453,-0.408 0.68,-0.929 0.68,-1.564 0,-0.68 -0.233,-1.207 -0.697,-1.581 -0.454,-0.374 -1.054,-0.561 -1.802,-0.561 z"
       fill="#000000"
       id="path4"
       clip-path="url(#clipPath97)"
       transform="translate(28)" />
    <rect
       x="352"
       y="249"
       width="52"
       height="52"
       rx="26"
       fill="#ffe999"
       id="rect5"
       clip-path="url(#clipPath96)"
       transform="translate(28)" />
    <g
       clip-path="url(#clipPath95)"
       id="g8"
       transform="translate(28)">
      <path
         d="m 370,273 h 16 v 5 l -4,-2 -4,2 -4,-2 -4,2 z"
         fill="#c67dff"
         id="path5" />
      <path
         d="m 369,283 h 18 v -8 c 0,-0.796 -0.316,-1.559 -0.879,-2.121 C 385.559,272.316 384.796,272 384,272 h -12 c -0.796,0 -1.559,0.316 -2.121,0.879 C 369.316,273.441 369,274.204 369,275 Z"
         stroke="#000000"
         stroke-width="2"
         stroke-linecap="round"
         stroke-linejoin="round"
         id="path6" />
      <path
         d="m 369,277.804 c 0.312,0.135 0.654,0.204 1,0.197 0.389,0.008 0.775,-0.079 1.124,-0.253 0.348,-0.175 0.649,-0.431 0.876,-0.747 0.227,-0.317 0.528,-0.573 0.876,-0.748 0.349,-0.174 0.735,-0.261 1.124,-0.252 0.389,-0.009 0.775,0.078 1.124,0.252 0.348,0.175 0.649,0.431 0.876,0.748 0.227,0.316 0.528,0.572 0.876,0.747 0.349,0.174 0.735,0.261 1.124,0.253 0.389,0.008 0.775,-0.079 1.124,-0.253 0.348,-0.175 0.649,-0.431 0.876,-0.747 0.227,-0.317 0.528,-0.573 0.876,-0.748 0.349,-0.174 0.735,-0.261 1.124,-0.252 0.389,-0.009 0.775,0.078 1.124,0.252 0.348,0.175 0.649,0.431 0.876,0.748 0.227,0.316 0.528,0.572 0.876,0.747 0.349,0.174 0.735,0.261 1.124,0.253 0.35,0.007 0.692,-0.062 1,-0.197"
         stroke="#000000"
         stroke-width="2"
         stroke-linecap="round"
         stroke-linejoin="round"
         id="path7" />
      <path
         d="m 377.999,267 1.465,1.638 c 0.262,0.281 0.437,0.631 0.505,1.009 0.067,0.378 0.025,0.767 -0.123,1.122 -0.147,0.354 -0.393,0.658 -0.709,0.877 -0.316,0.218 -0.688,0.341 -1.071,0.353 -0.384,0.013 -0.763,-0.085 -1.093,-0.282 -0.329,-0.197 -0.595,-0.485 -0.765,-0.829 -0.17,-0.344 -0.238,-0.73 -0.196,-1.111 0.043,-0.381 0.195,-0.742 0.437,-1.04 z"
         stroke="#000000"
         stroke-width="2"
         stroke-linecap="round"
         stroke-linejoin="round"
         id="path8" />
    </g>
    <rect
       x="348"
       y="326"
       width="60"
       height="10"
       rx="5"
       fill="#ffb858"
       id="rect8"
       clip-path="url(#clipPath94)"
       transform="translate(28)" />
    <rect
       x="298"
       y="391"
       width="159"
       height="14"
       rx="7"
       fill="#ffe999"
       id="rect9"
       clip-path="url(#clipPath93)"
       transform="translate(28)" />
    <rect
       x="298"
       y="415"
       width="159"
       height="14"
       rx="7"
       fill="#ffe999"
       id="rect10"
       clip-path="url(#clipPath92)"
       transform="translate(28)" />
    <rect
       x="340"
       y="439"
       width="75"
       height="14"
       rx="7"
       fill="#ffe999"
       id="rect11"
       clip-path="url(#clipPath91)"
       transform="translate(28)" />
    <g
       clip-path="url(#clipPath90)"
       id="g45">
      <rect
         x="445"
         y="106"
         width="334"
         height="458"
         rx="20"
         fill="#ffffff"
         id="rect12" />
      <g
         clip-path="url(#clip3_670_9084)"
         id="g17">
        <rect
           x="477"
           y="256"
           width="49"
           height="12"
           rx="6"
           fill="#f2f2f2"
           id="rect13" />
        <rect
           x="477"
           y="316"
           width="60"
           height="12"
           rx="6"
           fill="#f2f2f2"
           id="rect14" />
        <rect
           x="668"
           y="256"
           width="38"
           height="12"
           rx="6"
           fill="#f2f2f2"
           id="rect15" />
        <path
           d="m 479.016,278.524 v 2.796 h 3.048 v 0.9 h -3.048 v 2.88 h 3.408 v 0.9 h -4.5 v -8.376 h 4.5 v 0.9 z m 12.728,0.78 c 0.512,0 0.968,0.108 1.368,0.324 0.4,0.208 0.716,0.524 0.948,0.948 0.232,0.424 0.348,0.94 0.348,1.548 V 286 h -1.08 v -3.72 c 0,-0.656 -0.164,-1.156 -0.492,-1.5 -0.32,-0.352 -0.756,-0.528 -1.308,-0.528 -0.568,0 -1.02,0.184 -1.356,0.552 -0.336,0.36 -0.504,0.884 -0.504,1.572 V 286 h -1.08 v -3.72 c 0,-0.656 -0.164,-1.156 -0.492,-1.5 -0.32,-0.352 -0.756,-0.528 -1.308,-0.528 -0.568,0 -1.02,0.184 -1.356,0.552 -0.336,0.36 -0.504,0.884 -0.504,1.572 V 286 h -1.092 v -6.576 h 1.092 v 0.948 c 0.216,-0.344 0.504,-0.608 0.864,-0.792 0.368,-0.184 0.772,-0.276 1.212,-0.276 0.552,0 1.04,0.124 1.464,0.372 0.424,0.248 0.74,0.612 0.948,1.092 0.184,-0.464 0.488,-0.824 0.912,-1.08 0.424,-0.256 0.896,-0.384 1.416,-0.384 z m 4.78,-0.948 c -0.208,0 -0.384,-0.072 -0.528,-0.216 -0.144,-0.144 -0.216,-0.32 -0.216,-0.528 0,-0.208 0.072,-0.384 0.216,-0.528 0.144,-0.144 0.32,-0.216 0.528,-0.216 0.2,0 0.368,0.072 0.504,0.216 0.144,0.144 0.216,0.32 0.216,0.528 0,0.208 -0.072,0.384 -0.216,0.528 -0.136,0.144 -0.304,0.216 -0.504,0.216 z m 0.528,1.068 V 286 h -1.092 v -6.576 z m 2.713,-2.304 V 286 h -1.092 v -8.88 z m 7.285,2.304 -3.96,9.672 h -1.128 l 1.296,-3.168 -2.652,-6.504 h 1.212 l 2.064,5.328 2.04,-5.328 z m 12.301,-1.728 V 286 h -1.092 v -6.192 l -2.76,6.192 h -0.768 l -2.772,-6.204 V 286 h -1.092 v -8.304 h 1.176 l 3.072,6.864 3.072,-6.864 z m 1.204,4.992 c 0,-0.672 0.136,-1.26 0.408,-1.764 0.272,-0.512 0.644,-0.908 1.116,-1.188 0.48,-0.28 1.012,-0.42 1.596,-0.42 0.576,0 1.076,0.124 1.5,0.372 0.424,0.248 0.74,0.56 0.948,0.936 v -1.2 h 1.104 V 286 h -1.104 v -1.224 c -0.216,0.384 -0.54,0.704 -0.972,0.96 -0.424,0.248 -0.92,0.372 -1.488,0.372 -0.584,0 -1.112,-0.144 -1.584,-0.432 -0.472,-0.288 -0.844,-0.692 -1.116,-1.212 -0.272,-0.52 -0.408,-1.112 -0.408,-1.776 z m 5.568,0.012 c 0,-0.496 -0.1,-0.928 -0.3,-1.296 -0.2,-0.368 -0.472,-0.648 -0.816,-0.84 -0.336,-0.2 -0.708,-0.3 -1.116,-0.3 -0.408,0 -0.78,0.096 -1.116,0.288 -0.336,0.192 -0.604,0.472 -0.804,0.84 -0.2,0.368 -0.3,0.8 -0.3,1.296 0,0.504 0.1,0.944 0.3,1.32 0.2,0.368 0.468,0.652 0.804,0.852 0.336,0.192 0.708,0.288 1.116,0.288 0.408,0 0.78,-0.096 1.116,-0.288 0.344,-0.2 0.616,-0.484 0.816,-0.852 0.2,-0.376 0.3,-0.812 0.3,-1.308 z m 4.041,-2.376 v 3.876 c 0,0.32 0.068,0.548 0.204,0.684 0.136,0.128 0.372,0.192 0.708,0.192 h 0.804 V 286 h -0.984 c -0.608,0 -1.064,-0.14 -1.368,-0.42 -0.304,-0.28 -0.456,-0.74 -0.456,-1.38 v -3.876 h -0.852 v -0.9 h 0.852 v -1.656 h 1.092 v 1.656 h 1.716 v 0.9 z m 4.131,0 v 3.876 c 0,0.32 0.068,0.548 0.204,0.684 0.136,0.128 0.372,0.192 0.708,0.192 h 0.804 V 286 h -0.984 c -0.608,0 -1.064,-0.14 -1.368,-0.42 -0.304,-0.28 -0.456,-0.74 -0.456,-1.38 v -3.876 h -0.852 v -0.9 h 0.852 v -1.656 h 1.092 v 1.656 h 1.716 v 0.9 z m 6.063,-1.02 c 0.496,0 0.944,0.108 1.344,0.324 0.4,0.208 0.712,0.524 0.936,0.948 0.232,0.424 0.348,0.94 0.348,1.548 V 286 h -1.08 v -3.72 c 0,-0.656 -0.164,-1.156 -0.492,-1.5 -0.328,-0.352 -0.776,-0.528 -1.344,-0.528 -0.576,0 -1.036,0.18 -1.38,0.54 -0.336,0.36 -0.504,0.884 -0.504,1.572 V 286 h -1.092 v -8.88 h 1.092 v 3.24 c 0.216,-0.336 0.512,-0.596 0.888,-0.78 0.384,-0.184 0.812,-0.276 1.284,-0.276 z m 10.172,3.156 c 0,0.208 -0.012,0.428 -0.036,0.66 h -5.256 c 0.04,0.648 0.26,1.156 0.66,1.524 0.408,0.36 0.9,0.54 1.476,0.54 0.472,0 0.864,-0.108 1.176,-0.324 0.32,-0.224 0.544,-0.52 0.672,-0.888 h 1.176 c -0.176,0.632 -0.528,1.148 -1.056,1.548 -0.528,0.392 -1.184,0.588 -1.968,0.588 -0.624,0 -1.184,-0.14 -1.68,-0.42 -0.488,-0.28 -0.872,-0.676 -1.152,-1.188 -0.28,-0.52 -0.42,-1.12 -0.42,-1.8 0,-0.68 0.136,-1.276 0.408,-1.788 0.272,-0.512 0.652,-0.904 1.14,-1.176 0.496,-0.28 1.064,-0.42 1.704,-0.42 0.624,0 1.176,0.136 1.656,0.408 0.48,0.272 0.848,0.648 1.104,1.128 0.264,0.472 0.396,1.008 0.396,1.608 z m -1.128,-0.228 c 0,-0.416 -0.092,-0.772 -0.276,-1.068 -0.184,-0.304 -0.436,-0.532 -0.756,-0.684 -0.312,-0.16 -0.66,-0.24 -1.044,-0.24 -0.552,0 -1.024,0.176 -1.416,0.528 -0.384,0.352 -0.604,0.84 -0.66,1.464 z m 11.09,-2.808 -2.052,6.576 h -1.128 l -1.584,-5.22 -1.584,5.22 h -1.128 l -2.064,-6.576 h 1.116 l 1.512,5.52 1.632,-5.52 h 1.116 l 1.596,5.532 1.488,-5.532 z m 3.171,6.684 c -0.504,0 -0.956,-0.084 -1.356,-0.252 -0.4,-0.176 -0.716,-0.416 -0.948,-0.72 -0.232,-0.312 -0.36,-0.668 -0.384,-1.068 h 1.128 c 0.032,0.328 0.184,0.596 0.456,0.804 0.28,0.208 0.644,0.312 1.092,0.312 0.416,0 0.744,-0.092 0.984,-0.276 0.24,-0.184 0.36,-0.416 0.36,-0.696 0,-0.288 -0.128,-0.5 -0.384,-0.636 -0.256,-0.144 -0.652,-0.284 -1.188,-0.42 -0.488,-0.128 -0.888,-0.256 -1.2,-0.384 -0.304,-0.136 -0.568,-0.332 -0.792,-0.588 -0.216,-0.264 -0.324,-0.608 -0.324,-1.032 0,-0.336 0.1,-0.644 0.3,-0.924 0.2,-0.28 0.484,-0.5 0.852,-0.66 0.368,-0.168 0.788,-0.252 1.26,-0.252 0.728,0 1.316,0.184 1.764,0.552 0.448,0.368 0.688,0.872 0.72,1.512 h -1.092 c -0.024,-0.344 -0.164,-0.62 -0.42,-0.828 -0.248,-0.208 -0.584,-0.312 -1.008,-0.312 -0.392,0 -0.704,0.084 -0.936,0.252 -0.232,0.168 -0.348,0.388 -0.348,0.66 0,0.216 0.068,0.396 0.204,0.54 0.144,0.136 0.32,0.248 0.528,0.336 0.216,0.08 0.512,0.172 0.888,0.276 0.472,0.128 0.856,0.256 1.152,0.384 0.296,0.12 0.548,0.304 0.756,0.552 0.216,0.248 0.328,0.572 0.336,0.972 0,0.36 -0.1,0.684 -0.3,0.972 -0.2,0.288 -0.484,0.516 -0.852,0.684 -0.36,0.16 -0.776,0.24 -1.248,0.24 z"
           fill="#000000"
           id="path15" />
        <path
           d="m 483.924,342.46 c 0,0.208 -0.012,0.428 -0.036,0.66 h -5.256 c 0.04,0.648 0.26,1.156 0.66,1.524 0.408,0.36 0.9,0.54 1.476,0.54 0.472,0 0.864,-0.108 1.176,-0.324 0.32,-0.224 0.544,-0.52 0.672,-0.888 h 1.176 c -0.176,0.632 -0.528,1.148 -1.056,1.548 -0.528,0.392 -1.184,0.588 -1.968,0.588 -0.624,0 -1.184,-0.14 -1.68,-0.42 -0.488,-0.28 -0.872,-0.676 -1.152,-1.188 -0.28,-0.52 -0.42,-1.12 -0.42,-1.8 0,-0.68 0.136,-1.276 0.408,-1.788 0.272,-0.512 0.652,-0.904 1.14,-1.176 0.496,-0.28 1.064,-0.42 1.704,-0.42 0.624,0 1.176,0.136 1.656,0.408 0.48,0.272 0.848,0.648 1.104,1.128 0.264,0.472 0.396,1.008 0.396,1.608 z m -1.128,-0.228 c 0,-0.416 -0.092,-0.772 -0.276,-1.068 -0.184,-0.304 -0.436,-0.532 -0.756,-0.684 -0.312,-0.16 -0.66,-0.24 -1.044,-0.24 -0.552,0 -1.024,0.176 -1.416,0.528 -0.384,0.352 -0.604,0.84 -0.66,1.464 z m 10.237,-2.928 c 0.512,0 0.968,0.108 1.368,0.324 0.4,0.208 0.716,0.524 0.948,0.948 0.232,0.424 0.348,0.94 0.348,1.548 V 346 h -1.08 v -3.72 c 0,-0.656 -0.164,-1.156 -0.492,-1.5 -0.32,-0.352 -0.756,-0.528 -1.308,-0.528 -0.568,0 -1.02,0.184 -1.356,0.552 -0.336,0.36 -0.504,0.884 -0.504,1.572 V 346 h -1.08 v -3.72 c 0,-0.656 -0.164,-1.156 -0.492,-1.5 -0.32,-0.352 -0.756,-0.528 -1.308,-0.528 -0.568,0 -1.02,0.184 -1.356,0.552 -0.336,0.36 -0.504,0.884 -0.504,1.572 V 346 h -1.092 v -6.576 h 1.092 v 0.948 c 0.216,-0.344 0.504,-0.608 0.864,-0.792 0.368,-0.184 0.772,-0.276 1.212,-0.276 0.552,0 1.04,0.124 1.464,0.372 0.424,0.248 0.74,0.612 0.948,1.092 0.184,-0.464 0.488,-0.824 0.912,-1.08 0.424,-0.256 0.896,-0.384 1.416,-0.384 z m 4.78,-0.948 c -0.208,0 -0.384,-0.072 -0.528,-0.216 -0.144,-0.144 -0.216,-0.32 -0.216,-0.528 0,-0.208 0.072,-0.384 0.216,-0.528 0.144,-0.144 0.32,-0.216 0.528,-0.216 0.2,0 0.368,0.072 0.504,0.216 0.144,0.144 0.216,0.32 0.216,0.528 0,0.208 -0.072,0.384 -0.216,0.528 -0.136,0.144 -0.304,0.216 -0.504,0.216 z m 0.528,1.068 V 346 h -1.092 v -6.576 z m 2.713,-2.304 V 346 h -1.092 v -8.88 z m 7.285,2.304 -3.96,9.672 h -1.128 l 1.296,-3.168 -2.652,-6.504 h 1.212 l 2.064,5.328 2.04,-5.328 z m 1.206,6.648 c -0.208,0 -0.384,-0.072 -0.528,-0.216 -0.144,-0.144 -0.216,-0.32 -0.216,-0.528 0,-0.208 0.072,-0.384 0.216,-0.528 0.144,-0.144 0.32,-0.216 0.528,-0.216 0.2,0 0.368,0.072 0.504,0.216 0.144,0.144 0.216,0.32 0.216,0.528 0,0.208 -0.072,0.384 -0.216,0.528 -0.136,0.144 -0.304,0.216 -0.504,0.216 z m 9.839,-6.768 c 0.512,0 0.968,0.108 1.368,0.324 0.4,0.208 0.716,0.524 0.948,0.948 0.232,0.424 0.348,0.94 0.348,1.548 V 346 h -1.08 v -3.72 c 0,-0.656 -0.164,-1.156 -0.492,-1.5 -0.32,-0.352 -0.756,-0.528 -1.308,-0.528 -0.568,0 -1.02,0.184 -1.356,0.552 -0.336,0.36 -0.504,0.884 -0.504,1.572 V 346 h -1.08 v -3.72 c 0,-0.656 -0.164,-1.156 -0.492,-1.5 -0.32,-0.352 -0.756,-0.528 -1.308,-0.528 -0.568,0 -1.02,0.184 -1.356,0.552 -0.336,0.36 -0.504,0.884 -0.504,1.572 V 346 h -1.092 v -6.576 h 1.092 v 0.948 c 0.216,-0.344 0.504,-0.608 0.864,-0.792 0.368,-0.184 0.772,-0.276 1.212,-0.276 0.552,0 1.04,0.124 1.464,0.372 0.424,0.248 0.74,0.612 0.948,1.092 0.184,-0.464 0.488,-0.824 0.912,-1.08 0.424,-0.256 0.896,-0.384 1.416,-0.384 z m 3.807,3.384 c 0,-0.672 0.136,-1.26 0.408,-1.764 0.272,-0.512 0.644,-0.908 1.116,-1.188 0.48,-0.28 1.012,-0.42 1.596,-0.42 0.576,0 1.076,0.124 1.5,0.372 0.424,0.248 0.74,0.56 0.948,0.936 v -1.2 h 1.104 V 346 h -1.104 v -1.224 c -0.216,0.384 -0.54,0.704 -0.972,0.96 -0.424,0.248 -0.92,0.372 -1.488,0.372 -0.584,0 -1.112,-0.144 -1.584,-0.432 -0.472,-0.288 -0.844,-0.692 -1.116,-1.212 -0.272,-0.52 -0.408,-1.112 -0.408,-1.776 z m 5.568,0.012 c 0,-0.496 -0.1,-0.928 -0.3,-1.296 -0.2,-0.368 -0.472,-0.648 -0.816,-0.84 -0.336,-0.2 -0.708,-0.3 -1.116,-0.3 -0.408,0 -0.78,0.096 -1.116,0.288 -0.336,0.192 -0.604,0.472 -0.804,0.84 -0.2,0.368 -0.3,0.8 -0.3,1.296 0,0.504 0.1,0.944 0.3,1.32 0.2,0.368 0.468,0.652 0.804,0.852 0.336,0.192 0.708,0.288 1.116,0.288 0.408,0 0.78,-0.096 1.116,-0.288 0.344,-0.2 0.616,-0.484 0.816,-0.852 0.2,-0.376 0.3,-0.812 0.3,-1.308 z m 4.042,-2.376 v 3.876 c 0,0.32 0.068,0.548 0.204,0.684 0.136,0.128 0.372,0.192 0.708,0.192 h 0.804 V 346 h -0.984 c -0.608,0 -1.064,-0.14 -1.368,-0.42 -0.304,-0.28 -0.456,-0.74 -0.456,-1.38 v -3.876 h -0.852 v -0.9 h 0.852 v -1.656 h 1.092 v 1.656 h 1.716 v 0.9 z m 4.131,0 v 3.876 c 0,0.32 0.068,0.548 0.204,0.684 0.136,0.128 0.372,0.192 0.708,0.192 h 0.804 V 346 h -0.984 c -0.608,0 -1.064,-0.14 -1.368,-0.42 -0.304,-0.28 -0.456,-0.74 -0.456,-1.38 v -3.876 h -0.852 v -0.9 h 0.852 v -1.656 h 1.092 v 1.656 h 1.716 v 0.9 z m 6.063,-1.02 c 0.496,0 0.944,0.108 1.344,0.324 0.4,0.208 0.712,0.524 0.936,0.948 0.232,0.424 0.348,0.94 0.348,1.548 V 346 h -1.08 v -3.72 c 0,-0.656 -0.164,-1.156 -0.492,-1.5 -0.328,-0.352 -0.776,-0.528 -1.344,-0.528 -0.576,0 -1.036,0.18 -1.38,0.54 -0.336,0.36 -0.504,0.884 -0.504,1.572 V 346 h -1.092 v -8.88 h 1.092 v 3.24 c 0.216,-0.336 0.512,-0.596 0.888,-0.78 0.384,-0.184 0.812,-0.276 1.284,-0.276 z m 10.172,3.156 c 0,0.208 -0.012,0.428 -0.036,0.66 h -5.256 c 0.04,0.648 0.26,1.156 0.66,1.524 0.408,0.36 0.9,0.54 1.476,0.54 0.472,0 0.864,-0.108 1.176,-0.324 0.32,-0.224 0.544,-0.52 0.672,-0.888 h 1.176 c -0.176,0.632 -0.528,1.148 -1.056,1.548 -0.528,0.392 -1.184,0.588 -1.968,0.588 -0.624,0 -1.184,-0.14 -1.68,-0.42 -0.488,-0.28 -0.872,-0.676 -1.152,-1.188 -0.28,-0.52 -0.42,-1.12 -0.42,-1.8 0,-0.68 0.136,-1.276 0.408,-1.788 0.272,-0.512 0.652,-0.904 1.14,-1.176 0.496,-0.28 1.064,-0.42 1.704,-0.42 0.624,0 1.176,0.136 1.656,0.408 0.48,0.272 0.848,0.648 1.104,1.128 0.264,0.472 0.396,1.008 0.396,1.608 z m -1.128,-0.228 c 0,-0.416 -0.092,-0.772 -0.276,-1.068 -0.184,-0.304 -0.436,-0.532 -0.756,-0.684 -0.312,-0.16 -0.66,-0.24 -1.044,-0.24 -0.552,0 -1.024,0.176 -1.416,0.528 -0.384,0.352 -0.604,0.84 -0.66,1.464 z m 11.089,-2.808 -2.052,6.576 h -1.128 l -1.584,-5.22 -1.584,5.22 h -1.128 l -2.064,-6.576 h 1.116 l 1.512,5.52 1.632,-5.52 h 1.116 l 1.596,5.532 1.488,-5.532 z m 3.172,6.684 c -0.504,0 -0.956,-0.084 -1.356,-0.252 -0.4,-0.176 -0.716,-0.416 -0.948,-0.72 -0.232,-0.312 -0.36,-0.668 -0.384,-1.068 h 1.128 c 0.032,0.328 0.184,0.596 0.456,0.804 0.28,0.208 0.644,0.312 1.092,0.312 0.416,0 0.744,-0.092 0.984,-0.276 0.24,-0.184 0.36,-0.416 0.36,-0.696 0,-0.288 -0.128,-0.5 -0.384,-0.636 -0.256,-0.144 -0.652,-0.284 -1.188,-0.42 -0.488,-0.128 -0.888,-0.256 -1.2,-0.384 -0.304,-0.136 -0.568,-0.332 -0.792,-0.588 -0.216,-0.264 -0.324,-0.608 -0.324,-1.032 0,-0.336 0.1,-0.644 0.3,-0.924 0.2,-0.28 0.484,-0.5 0.852,-0.66 0.368,-0.168 0.788,-0.252 1.26,-0.252 0.728,0 1.316,0.184 1.764,0.552 0.448,0.368 0.688,0.872 0.72,1.512 h -1.092 c -0.024,-0.344 -0.164,-0.62 -0.42,-0.828 -0.248,-0.208 -0.584,-0.312 -1.008,-0.312 -0.392,0 -0.704,0.084 -0.936,0.252 -0.232,0.168 -0.348,0.388 -0.348,0.66 0,0.216 0.068,0.396 0.204,0.54 0.144,0.136 0.32,0.248 0.528,0.336 0.216,0.08 0.512,0.172 0.888,0.276 0.472,0.128 0.856,0.256 1.152,0.384 0.296,0.12 0.548,0.304 0.756,0.552 0.216,0.248 0.328,0.572 0.336,0.972 0,0.36 -0.1,0.684 -0.3,0.972 -0.2,0.288 -0.484,0.516 -0.852,0.684 -0.36,0.16 -0.776,0.24 -1.248,0.24 z m 9.701,-7.8 c 0.888,0 1.66,0.168 2.316,0.504 0.657,0.336 1.16,0.808 1.512,1.416 0.352,0.6 0.529,1.296 0.529,2.088 0,0.632 -0.105,1.24 -0.313,1.824 -0.207,0.576 -0.511,1.044 -0.911,1.404 -0.393,0.36 -0.853,0.54 -1.381,0.54 -0.4,0 -0.708,-0.1 -0.924,-0.3 -0.216,-0.2 -0.34,-0.472 -0.372,-0.816 -0.248,0.344 -0.564,0.616 -0.948,0.816 -0.376,0.2 -0.776,0.3 -1.2,0.3 -0.608,0 -1.088,-0.184 -1.44,-0.552 -0.344,-0.376 -0.516,-0.88 -0.516,-1.512 0,-0.6 0.124,-1.16 0.372,-1.68 0.256,-0.52 0.608,-0.936 1.056,-1.248 0.448,-0.32 0.956,-0.48 1.525,-0.48 0.759,0 1.271,0.288 1.535,0.864 l 0.133,-0.744 h 0.947 l -0.6,3.468 c -0.024,0.152 -0.036,0.292 -0.036,0.42 0,0.48 0.212,0.72 0.636,0.72 0.32,0 0.596,-0.152 0.829,-0.456 0.239,-0.304 0.419,-0.684 0.539,-1.14 0.12,-0.464 0.181,-0.92 0.181,-1.368 0,-1.048 -0.316,-1.86 -0.948,-2.436 -0.624,-0.576 -1.509,-0.864 -2.653,-0.864 -0.952,0 -1.812,0.232 -2.58,0.696 -0.76,0.456 -1.356,1.084 -1.788,1.884 -0.432,0.8 -0.648,1.684 -0.648,2.652 -0.008,1.056 0.308,1.868 0.948,2.436 0.64,0.576 1.528,0.864 2.664,0.864 0.752,0 1.416,-0.136 1.992,-0.408 l 0.144,0.744 c -0.712,0.296 -1.496,0.444 -2.352,0.444 -0.856,0 -1.612,-0.164 -2.268,-0.492 -0.648,-0.32 -1.152,-0.784 -1.512,-1.392 -0.352,-0.6 -0.528,-1.3 -0.528,-2.1 0,-1.128 0.26,-2.156 0.78,-3.084 0.52,-0.936 1.24,-1.672 2.16,-2.208 0.928,-0.536 1.968,-0.804 3.12,-0.804 z m -1.368,6.924 c 0.36,0 0.692,-0.104 0.996,-0.312 0.304,-0.216 0.544,-0.504 0.72,-0.864 0.176,-0.368 0.264,-0.768 0.264,-1.2 0,-0.416 -0.116,-0.752 -0.348,-1.008 -0.224,-0.264 -0.544,-0.396 -0.959,-0.396 -0.385,0 -0.725,0.116 -1.021,0.348 -0.288,0.224 -0.512,0.524 -0.672,0.9 -0.16,0.368 -0.24,0.752 -0.24,1.152 0,0.424 0.108,0.76 0.324,1.008 0.216,0.248 0.528,0.372 0.936,0.372 z m 13.281,-2.772 c 0,0.208 -0.012,0.428 -0.036,0.66 h -5.256 c 0.04,0.648 0.26,1.156 0.66,1.524 0.408,0.36 0.9,0.54 1.476,0.54 0.472,0 0.864,-0.108 1.176,-0.324 0.32,-0.224 0.544,-0.52 0.672,-0.888 h 1.176 c -0.176,0.632 -0.528,1.148 -1.056,1.548 -0.528,0.392 -1.184,0.588 -1.968,0.588 -0.624,0 -1.184,-0.14 -1.68,-0.42 -0.488,-0.28 -0.872,-0.676 -1.152,-1.188 -0.28,-0.52 -0.42,-1.12 -0.42,-1.8 0,-0.68 0.136,-1.276 0.408,-1.788 0.272,-0.512 0.652,-0.904 1.14,-1.176 0.496,-0.28 1.064,-0.42 1.704,-0.42 0.624,0 1.176,0.136 1.656,0.408 0.48,0.272 0.848,0.648 1.104,1.128 0.264,0.472 0.396,1.008 0.396,1.608 z m -1.128,-0.228 c 0,-0.416 -0.092,-0.772 -0.276,-1.068 -0.184,-0.304 -0.436,-0.532 -0.756,-0.684 -0.312,-0.16 -0.66,-0.24 -1.044,-0.24 -0.552,0 -1.024,0.176 -1.416,0.528 -0.384,0.352 -0.604,0.84 -0.66,1.464 z m 5.761,3.768 -1.56,-2.448 -1.5,2.448 h -1.14 l 2.124,-3.264 -2.124,-3.312 h 1.236 l 1.56,2.436 1.488,-2.436 h 1.14 l -2.112,3.252 2.124,3.324 z m 1.662,-3.312 c 0,-0.672 0.136,-1.26 0.408,-1.764 0.272,-0.512 0.644,-0.908 1.116,-1.188 0.48,-0.28 1.012,-0.42 1.596,-0.42 0.576,0 1.076,0.124 1.5,0.372 0.424,0.248 0.74,0.56 0.948,0.936 v -1.2 h 1.104 V 346 h -1.104 v -1.224 c -0.216,0.384 -0.54,0.704 -0.972,0.96 -0.424,0.248 -0.92,0.372 -1.488,0.372 -0.584,0 -1.112,-0.144 -1.584,-0.432 -0.472,-0.288 -0.844,-0.692 -1.116,-1.212 -0.272,-0.52 -0.408,-1.112 -0.408,-1.776 z m 5.568,0.012 c 0,-0.496 -0.1,-0.928 -0.3,-1.296 -0.2,-0.368 -0.472,-0.648 -0.816,-0.84 -0.336,-0.2 -0.708,-0.3 -1.116,-0.3 -0.408,0 -0.78,0.096 -1.116,0.288 -0.336,0.192 -0.604,0.472 -0.804,0.84 -0.2,0.368 -0.3,0.8 -0.3,1.296 0,0.504 0.1,0.944 0.3,1.32 0.2,0.368 0.468,0.652 0.804,0.852 0.336,0.192 0.708,0.288 1.116,0.288 0.408,0 0.78,-0.096 1.116,-0.288 0.344,-0.2 0.616,-0.484 0.816,-0.852 0.2,-0.376 0.3,-0.812 0.3,-1.308 z m 10.618,-3.396 c 0.512,0 0.968,0.108 1.368,0.324 0.4,0.208 0.716,0.524 0.948,0.948 0.232,0.424 0.348,0.94 0.348,1.548 V 346 h -1.08 v -3.72 c 0,-0.656 -0.164,-1.156 -0.492,-1.5 -0.32,-0.352 -0.756,-0.528 -1.308,-0.528 -0.568,0 -1.02,0.184 -1.356,0.552 -0.336,0.36 -0.504,0.884 -0.504,1.572 V 346 h -1.08 v -3.72 c 0,-0.656 -0.164,-1.156 -0.492,-1.5 -0.32,-0.352 -0.756,-0.528 -1.308,-0.528 -0.568,0 -1.02,0.184 -1.356,0.552 -0.336,0.36 -0.504,0.884 -0.504,1.572 V 346 h -1.092 v -6.576 h 1.092 v 0.948 c 0.216,-0.344 0.504,-0.608 0.864,-0.792 0.368,-0.184 0.772,-0.276 1.212,-0.276 0.552,0 1.04,0.124 1.464,0.372 0.424,0.248 0.74,0.612 0.948,1.092 0.184,-0.464 0.488,-0.824 0.912,-1.08 0.424,-0.256 0.896,-0.384 1.416,-0.384 z m 5.307,1.332 c 0.216,-0.376 0.536,-0.688 0.96,-0.936 0.432,-0.256 0.932,-0.384 1.5,-0.384 0.584,0 1.112,0.14 1.584,0.42 0.48,0.28 0.856,0.676 1.128,1.188 0.272,0.504 0.408,1.092 0.408,1.764 0,0.664 -0.136,1.256 -0.408,1.776 -0.272,0.52 -0.648,0.924 -1.128,1.212 -0.472,0.288 -1,0.432 -1.584,0.432 -0.56,0 -1.056,-0.124 -1.488,-0.372 -0.424,-0.256 -0.748,-0.572 -0.972,-0.948 v 4.332 h -1.092 v -9.696 h 1.092 z m 4.464,2.052 c 0,-0.496 -0.1,-0.928 -0.3,-1.296 -0.2,-0.368 -0.472,-0.648 -0.816,-0.84 -0.336,-0.192 -0.708,-0.288 -1.116,-0.288 -0.4,0 -0.772,0.1 -1.116,0.3 -0.336,0.192 -0.608,0.476 -0.816,0.852 -0.2,0.368 -0.3,0.796 -0.3,1.284 0,0.496 0.1,0.932 0.3,1.308 0.208,0.368 0.48,0.652 0.816,0.852 0.344,0.192 0.716,0.288 1.116,0.288 0.408,0 0.78,-0.096 1.116,-0.288 0.344,-0.2 0.616,-0.484 0.816,-0.852 0.2,-0.376 0.3,-0.816 0.3,-1.32 z m 3.405,-5.568 V 346 h -1.092 v -8.88 z m 7.622,5.34 c 0,0.208 -0.012,0.428 -0.036,0.66 h -5.256 c 0.04,0.648 0.26,1.156 0.66,1.524 0.408,0.36 0.9,0.54 1.476,0.54 0.472,0 0.864,-0.108 1.176,-0.324 0.32,-0.224 0.544,-0.52 0.672,-0.888 h 1.176 c -0.176,0.632 -0.528,1.148 -1.056,1.548 -0.528,0.392 -1.184,0.588 -1.968,0.588 -0.624,0 -1.184,-0.14 -1.68,-0.42 -0.488,-0.28 -0.872,-0.676 -1.152,-1.188 -0.28,-0.52 -0.42,-1.12 -0.42,-1.8 0,-0.68 0.136,-1.276 0.408,-1.788 0.272,-0.512 0.652,-0.904 1.14,-1.176 0.496,-0.28 1.064,-0.42 1.704,-0.42 0.624,0 1.176,0.136 1.656,0.408 0.48,0.272 0.848,0.648 1.104,1.128 0.264,0.472 0.396,1.008 0.396,1.608 z m -1.128,-0.228 c 0,-0.416 -0.092,-0.772 -0.276,-1.068 -0.184,-0.304 -0.436,-0.532 -0.756,-0.684 -0.312,-0.16 -0.66,-0.24 -1.044,-0.24 -0.552,0 -1.024,0.176 -1.416,0.528 -0.384,0.352 -0.604,0.84 -0.66,1.464 z m 2.677,3.84 c -0.208,0 -0.384,-0.072 -0.528,-0.216 -0.144,-0.144 -0.216,-0.32 -0.216,-0.528 0,-0.208 0.072,-0.384 0.216,-0.528 0.144,-0.144 0.32,-0.216 0.528,-0.216 0.2,0 0.368,0.072 0.504,0.216 0.144,0.144 0.216,0.32 0.216,0.528 0,0.208 -0.072,0.384 -0.216,0.528 -0.136,0.144 -0.304,0.216 -0.504,0.216 z m 1.524,-3.372 c 0,-0.68 0.136,-1.272 0.408,-1.776 0.272,-0.512 0.648,-0.908 1.128,-1.188 0.488,-0.28 1.044,-0.42 1.668,-0.42 0.808,0 1.472,0.196 1.992,0.588 0.528,0.392 0.876,0.936 1.044,1.632 h -1.176 c -0.112,-0.4 -0.332,-0.716 -0.66,-0.948 -0.32,-0.232 -0.72,-0.348 -1.2,-0.348 -0.624,0 -1.128,0.216 -1.512,0.648 -0.384,0.424 -0.576,1.028 -0.576,1.812 0,0.792 0.192,1.404 0.576,1.836 0.384,0.432 0.888,0.648 1.512,0.648 0.48,0 0.88,-0.112 1.2,-0.336 0.32,-0.224 0.54,-0.544 0.66,-0.96 h 1.176 c -0.176,0.672 -0.528,1.212 -1.056,1.62 -0.528,0.4 -1.188,0.6 -1.98,0.6 -0.624,0 -1.18,-0.14 -1.668,-0.42 -0.48,-0.28 -0.856,-0.676 -1.128,-1.188 -0.272,-0.512 -0.408,-1.112 -0.408,-1.8 z m 10.325,3.408 c -0.616,0 -1.176,-0.14 -1.68,-0.42 -0.496,-0.28 -0.888,-0.676 -1.176,-1.188 -0.28,-0.52 -0.42,-1.12 -0.42,-1.8 0,-0.672 0.144,-1.264 0.432,-1.776 0.296,-0.52 0.696,-0.916 1.2,-1.188 0.504,-0.28 1.068,-0.42 1.692,-0.42 0.624,0 1.188,0.14 1.692,0.42 0.504,0.272 0.9,0.664 1.188,1.176 0.296,0.512 0.444,1.108 0.444,1.788 0,0.68 -0.152,1.28 -0.456,1.8 -0.296,0.512 -0.7,0.908 -1.212,1.188 -0.512,0.28 -1.08,0.42 -1.704,0.42 z m 0,-0.96 c 0.392,0 0.76,-0.092 1.104,-0.276 0.344,-0.184 0.62,-0.46 0.828,-0.828 0.216,-0.368 0.324,-0.816 0.324,-1.344 0,-0.528 -0.104,-0.976 -0.312,-1.344 -0.208,-0.368 -0.48,-0.64 -0.816,-0.816 -0.336,-0.184 -0.7,-0.276 -1.092,-0.276 -0.4,0 -0.768,0.092 -1.104,0.276 -0.328,0.176 -0.592,0.448 -0.792,0.816 -0.2,0.368 -0.3,0.816 -0.3,1.344 0,0.536 0.096,0.988 0.288,1.356 0.2,0.368 0.464,0.644 0.792,0.828 0.328,0.176 0.688,0.264 1.08,0.264 z m 12.475,-5.844 c 0.512,0 0.968,0.108 1.368,0.324 0.4,0.208 0.716,0.524 0.948,0.948 0.232,0.424 0.348,0.94 0.348,1.548 V 346 h -1.08 v -3.72 c 0,-0.656 -0.164,-1.156 -0.492,-1.5 -0.32,-0.352 -0.756,-0.528 -1.308,-0.528 -0.568,0 -1.02,0.184 -1.356,0.552 -0.336,0.36 -0.504,0.884 -0.504,1.572 V 346 h -1.08 v -3.72 c 0,-0.656 -0.164,-1.156 -0.492,-1.5 -0.32,-0.352 -0.756,-0.528 -1.308,-0.528 -0.568,0 -1.02,0.184 -1.356,0.552 -0.336,0.36 -0.504,0.884 -0.504,1.572 V 346 h -1.092 v -6.576 h 1.092 v 0.948 c 0.216,-0.344 0.504,-0.608 0.864,-0.792 0.368,-0.184 0.772,-0.276 1.212,-0.276 0.552,0 1.04,0.124 1.464,0.372 0.424,0.248 0.74,0.612 0.948,1.092 0.184,-0.464 0.488,-0.824 0.912,-1.08 0.424,-0.256 0.896,-0.384 1.416,-0.384 z"
           fill="#000000"
           id="path16" />
        <path
           d="m 670.148,283.672 c 0.08,0.456 0.264,0.808 0.552,1.056 0.296,0.248 0.692,0.372 1.188,0.372 0.664,0 1.152,-0.26 1.464,-0.78 0.32,-0.52 0.472,-1.396 0.456,-2.628 -0.168,0.36 -0.448,0.644 -0.84,0.852 -0.392,0.2 -0.828,0.3 -1.308,0.3 -0.536,0 -1.016,-0.108 -1.44,-0.324 -0.416,-0.224 -0.744,-0.548 -0.984,-0.972 -0.24,-0.424 -0.36,-0.936 -0.36,-1.536 0,-0.856 0.248,-1.544 0.744,-2.064 0.496,-0.528 1.2,-0.792 2.112,-0.792 1.12,0 1.904,0.364 2.352,1.092 0.456,0.728 0.684,1.812 0.684,3.252 0,1.008 -0.092,1.84 -0.276,2.496 -0.176,0.656 -0.48,1.156 -0.912,1.5 -0.424,0.344 -1.008,0.516 -1.752,0.516 -0.816,0 -1.452,-0.22 -1.908,-0.66 -0.456,-0.44 -0.716,-1 -0.78,-1.68 z m 1.692,-1.752 c 0.536,0 0.976,-0.164 1.32,-0.492 0.344,-0.336 0.516,-0.788 0.516,-1.356 0,-0.6 -0.168,-1.084 -0.504,-1.452 -0.336,-0.368 -0.808,-0.552 -1.416,-0.552 -0.56,0 -1.008,0.176 -1.344,0.528 -0.328,0.352 -0.492,0.816 -0.492,1.392 0,0.584 0.164,1.052 0.492,1.404 0.328,0.352 0.804,0.528 1.428,0.528 z m 3.935,-3.6 v -0.996 h 2.256 V 286 h -1.104 v -7.68 z m 9.231,-0.144 -3.336,7.824 h -1.104 l 3.384,-7.716 h -4.632 v -0.936 h 5.688 z m 3.642,0.144 v -0.996 h 2.256 V 286 H 689.8 v -7.68 z m 3.76,6.804 c 1.016,-0.816 1.812,-1.484 2.388,-2.004 0.576,-0.528 1.06,-1.076 1.452,-1.644 0.4,-0.576 0.6,-1.14 0.6,-1.692 0,-0.52 -0.128,-0.928 -0.384,-1.224 -0.248,-0.304 -0.652,-0.456 -1.212,-0.456 -0.544,0 -0.968,0.172 -1.272,0.516 -0.296,0.336 -0.456,0.788 -0.48,1.356 h -1.056 c 0.032,-0.896 0.304,-1.588 0.816,-2.076 0.512,-0.488 1.172,-0.732 1.98,-0.732 0.824,0 1.476,0.228 1.956,0.684 0.488,0.456 0.732,1.084 0.732,1.884 0,0.664 -0.2,1.312 -0.6,1.944 -0.392,0.624 -0.84,1.176 -1.344,1.656 -0.504,0.472 -1.148,1.024 -1.932,1.656 h 4.128 v 0.912 h -5.772 z m 6.77,-5.616 c 0.056,-0.736 0.34,-1.312 0.852,-1.728 0.512,-0.416 1.176,-0.624 1.992,-0.624 0.544,0 1.012,0.1 1.404,0.3 0.4,0.192 0.7,0.456 0.9,0.792 0.208,0.336 0.312,0.716 0.312,1.14 0,0.496 -0.144,0.924 -0.432,1.284 -0.28,0.36 -0.648,0.592 -1.104,0.696 v 0.06 c 0.52,0.128 0.932,0.38 1.236,0.756 0.304,0.376 0.456,0.868 0.456,1.476 0,0.456 -0.104,0.868 -0.312,1.236 -0.208,0.36 -0.52,0.644 -0.936,0.852 -0.416,0.208 -0.916,0.312 -1.5,0.312 -0.848,0 -1.544,-0.22 -2.088,-0.66 -0.544,-0.448 -0.848,-1.08 -0.912,-1.896 h 1.056 c 0.056,0.48 0.252,0.872 0.588,1.176 0.336,0.304 0.784,0.456 1.344,0.456 0.56,0 0.984,-0.144 1.272,-0.432 0.296,-0.296 0.444,-0.676 0.444,-1.14 0,-0.6 -0.2,-1.032 -0.6,-1.296 -0.4,-0.264 -1.004,-0.396 -1.812,-0.396 h -0.276 v -0.912 h 0.288 c 0.736,-0.008 1.292,-0.128 1.668,-0.36 0.376,-0.24 0.564,-0.608 0.564,-1.104 0,-0.424 -0.14,-0.764 -0.42,-1.02 -0.272,-0.256 -0.664,-0.384 -1.176,-0.384 -0.496,0 -0.896,0.128 -1.2,0.384 -0.304,0.256 -0.484,0.6 -0.54,1.032 z m 9.546,4.56 v -0.828 l 4.212,-5.832 h 1.308 v 5.712 h 1.2 v 0.948 h -1.2 V 286 h -1.08 v -1.932 z m 4.488,-5.52 -3.228,4.572 h 3.228 z m 8.615,-0.276 h -4.212 v 2.736 c 0.184,-0.256 0.456,-0.464 0.816,-0.624 0.36,-0.168 0.748,-0.252 1.164,-0.252 0.664,0 1.204,0.14 1.62,0.42 0.416,0.272 0.712,0.628 0.888,1.068 0.184,0.432 0.276,0.892 0.276,1.38 0,0.576 -0.108,1.092 -0.324,1.548 -0.216,0.456 -0.548,0.816 -0.996,1.08 -0.44,0.264 -0.988,0.396 -1.644,0.396 -0.84,0 -1.52,-0.216 -2.04,-0.648 -0.52,-0.432 -0.836,-1.008 -0.948,-1.728 h 1.068 c 0.104,0.456 0.324,0.812 0.66,1.068 0.336,0.256 0.76,0.384 1.272,0.384 0.632,0 1.108,-0.188 1.428,-0.564 0.32,-0.384 0.48,-0.888 0.48,-1.512 0,-0.624 -0.16,-1.104 -0.48,-1.44 -0.32,-0.344 -0.792,-0.516 -1.416,-0.516 -0.424,0 -0.796,0.104 -1.116,0.312 -0.312,0.2 -0.54,0.476 -0.684,0.828 h -1.032 v -4.896 h 5.22 z m 6.599,1.116 c -0.176,-0.888 -0.724,-1.332 -1.644,-1.332 -0.712,0 -1.244,0.276 -1.596,0.828 -0.352,0.544 -0.524,1.444 -0.516,2.7 0.184,-0.416 0.488,-0.74 0.912,-0.972 0.432,-0.24 0.912,-0.36 1.44,-0.36 0.824,0 1.48,0.256 1.968,0.768 0.496,0.512 0.744,1.22 0.744,2.124 0,0.544 -0.108,1.032 -0.324,1.464 -0.208,0.432 -0.528,0.776 -0.96,1.032 -0.424,0.256 -0.94,0.384 -1.548,0.384 -0.824,0 -1.468,-0.184 -1.932,-0.552 -0.464,-0.368 -0.788,-0.876 -0.972,-1.524 -0.184,-0.648 -0.276,-1.448 -0.276,-2.4 0,-2.936 1.024,-4.404 3.072,-4.404 0.784,0 1.4,0.212 1.848,0.636 0.448,0.424 0.712,0.96 0.792,1.608 z m -1.632,1.788 c -0.344,0 -0.668,0.072 -0.972,0.216 -0.304,0.136 -0.552,0.348 -0.744,0.636 -0.184,0.28 -0.276,0.624 -0.276,1.032 0,0.608 0.176,1.104 0.528,1.488 0.352,0.376 0.856,0.564 1.512,0.564 0.56,0 1.004,-0.172 1.332,-0.516 0.336,-0.352 0.504,-0.824 0.504,-1.416 0,-0.624 -0.16,-1.112 -0.48,-1.464 -0.32,-0.36 -0.788,-0.54 -1.404,-0.54 z"
           fill="#000000"
           id="path17" />
      </g>
      <path
         d="M 766.5,216.5 V 376 c 0,5.247 -4.253,9.5 -9.5,9.5 H 467 c -5.247,0 -9.5,-4.253 -9.5,-9.5 V 216.5 Z"
         stroke="#f2f2f2"
         id="path18" />
      <g
         clip-path="url(#clip4_670_9084)"
         id="g41">
        <rect
           x="477"
           y="415"
           width="49"
           height="12"
           rx="6"
           fill="#f2f2f2"
           id="rect18" />
        <path
           d="m 480.424,522.424 v 4.12 c 0,0.459 -0.141,0.827 -0.424,1.104 -0.283,0.272 -0.656,0.408 -1.12,0.408 -0.469,0 -0.845,-0.139 -1.128,-0.416 -0.283,-0.283 -0.424,-0.667 -0.424,-1.152 h 0.728 c 0.005,0.272 0.075,0.493 0.208,0.664 0.139,0.171 0.344,0.256 0.616,0.256 0.272,0 0.475,-0.08 0.608,-0.24 0.133,-0.165 0.2,-0.373 0.2,-0.624 v -4.12 z m 4.73,4.336 h -2.432 l -0.448,1.24 h -0.768 l 2.016,-5.544 h 0.84 L 486.37,528 h -0.768 z m -0.208,-0.592 -1.008,-2.816 -1.008,2.816 z m 6.687,1.832 h -0.728 l -2.928,-4.44 V 528 h -0.728 v -5.584 h 0.728 l 2.928,4.432 v -4.432 h 0.728 z"
           fill="#000000"
           id="path19" />
        <path
           d="m 503.768,522.424 v 0.592 h -2.424 v 1.88 h 1.968 v 0.592 h -1.968 V 528 h -0.728 v -5.576 z m 1.607,0.592 v 1.864 h 2.032 v 0.6 h -2.032 v 1.92 h 2.272 v 0.6 h -3 v -5.584 h 3 v 0.6 z m 7.982,-0.592 -2.104,5.576 h -0.84 l -2.104,-5.576 h 0.776 l 1.752,4.808 1.752,-4.808 z"
           fill="#000000"
           id="path20" />
        <path
           d="M 527.272,522.464 V 528 h -0.728 v -4.128 l -1.84,4.128 h -0.512 l -1.848,-4.136 V 528 h -0.728 v -5.536 h 0.784 l 2.048,4.576 2.048,-4.576 z m 4.531,4.296 h -2.432 l -0.448,1.24 h -0.768 l 2.016,-5.544 h 0.84 l 2.008,5.544 h -0.768 z m -0.208,-0.592 -1.008,-2.816 -1.008,2.816 z m 5.238,1.832 -1.328,-2.28 h -0.88 V 528 h -0.728 v -5.576 h 1.8 c 0.422,0 0.776,0.072 1.064,0.216 0.294,0.144 0.512,0.339 0.656,0.584 0.144,0.245 0.216,0.525 0.216,0.84 0,0.384 -0.112,0.723 -0.336,1.016 -0.218,0.293 -0.549,0.488 -0.992,0.584 l 1.4,2.336 z m -2.208,-2.864 h 1.072 c 0.395,0 0.691,-0.096 0.888,-0.288 0.198,-0.197 0.296,-0.459 0.296,-0.784 0,-0.331 -0.098,-0.587 -0.296,-0.768 -0.192,-0.181 -0.488,-0.272 -0.888,-0.272 h -1.072 z"
           fill="#000000"
           id="path21" />
        <path
           d="m 549.912,526.76 h -2.432 l -0.448,1.24 h -0.768 l 2.016,-5.544 h 0.84 l 2.008,5.544 h -0.768 z m -0.208,-0.592 -1.008,-2.816 -1.008,2.816 z m 6.031,-2.112 c 0,0.464 -0.16,0.851 -0.48,1.16 -0.315,0.304 -0.798,0.456 -1.448,0.456 h -1.072 V 528 h -0.728 v -5.576 h 1.8 c 0.629,0 1.106,0.152 1.432,0.456 0.33,0.304 0.496,0.696 0.496,1.176 z m -1.928,1.016 c 0.405,0 0.704,-0.088 0.896,-0.264 0.192,-0.176 0.288,-0.427 0.288,-0.752 0,-0.688 -0.395,-1.032 -1.184,-1.032 h -1.072 v 2.048 z m 5.768,2.928 -1.328,-2.28 h -0.88 V 528 h -0.728 v -5.576 h 1.8 c 0.422,0 0.776,0.072 1.064,0.216 0.294,0.144 0.512,0.339 0.656,0.584 0.144,0.245 0.216,0.525 0.216,0.84 0,0.384 -0.112,0.723 -0.336,1.016 -0.218,0.293 -0.549,0.488 -0.992,0.584 l 1.4,2.336 z m -2.208,-2.864 h 1.072 c 0.395,0 0.691,-0.096 0.888,-0.288 0.198,-0.197 0.296,-0.459 0.296,-0.784 0,-0.331 -0.098,-0.587 -0.296,-0.768 -0.192,-0.181 -0.488,-0.272 -0.888,-0.272 h -1.072 z"
           fill="#000000"
           id="path22" />
        <path
           d="M 574.272,522.464 V 528 h -0.728 v -4.128 l -1.84,4.128 h -0.512 l -1.848,-4.136 V 528 h -0.728 v -5.536 h 0.784 l 2.048,4.576 2.048,-4.576 z m 4.531,4.296 h -2.432 l -0.448,1.24 h -0.768 l 2.016,-5.544 h 0.84 l 2.008,5.544 h -0.768 z m -0.208,-0.592 -1.008,-2.816 -1.008,2.816 z m 6.206,-3.744 -1.816,3.472 V 528 h -0.728 v -2.104 l -1.824,-3.472 h 0.808 l 1.376,2.824 1.376,-2.824 z"
           fill="#000000"
           id="path23" />
        <path
           d="m 595.424,522.424 v 4.12 c 0,0.459 -0.141,0.827 -0.424,1.104 -0.283,0.272 -0.656,0.408 -1.12,0.408 -0.469,0 -0.845,-0.139 -1.128,-0.416 -0.283,-0.283 -0.424,-0.667 -0.424,-1.152 h 0.728 c 0.005,0.272 0.075,0.493 0.208,0.664 0.139,0.171 0.344,0.256 0.616,0.256 0.272,0 0.475,-0.08 0.608,-0.24 0.133,-0.165 0.2,-0.373 0.2,-0.624 v -4.12 z m 2.146,0 v 3.528 c 0,0.496 0.12,0.864 0.36,1.104 0.246,0.24 0.584,0.36 1.016,0.36 0.427,0 0.76,-0.12 1,-0.36 0.246,-0.24 0.368,-0.608 0.368,-1.104 v -3.528 h 0.728 v 3.52 c 0,0.464 -0.093,0.856 -0.28,1.176 -0.186,0.315 -0.44,0.549 -0.76,0.704 -0.314,0.155 -0.669,0.232 -1.064,0.232 -0.394,0 -0.752,-0.077 -1.072,-0.232 -0.314,-0.155 -0.565,-0.389 -0.752,-0.704 -0.181,-0.32 -0.272,-0.712 -0.272,-1.176 v -3.52 z m 9.071,5.576 h -0.728 l -2.928,-4.44 V 528 h -0.728 v -5.584 h 0.728 l 2.928,4.432 v -4.432 h 0.728 z"
           fill="#000000"
           id="path24" />
        <path
           d="m 618.424,522.424 v 4.12 c 0,0.459 -0.141,0.827 -0.424,1.104 -0.283,0.272 -0.656,0.408 -1.12,0.408 -0.469,0 -0.845,-0.139 -1.128,-0.416 -0.283,-0.283 -0.424,-0.667 -0.424,-1.152 h 0.728 c 0.005,0.272 0.075,0.493 0.208,0.664 0.139,0.171 0.344,0.256 0.616,0.256 0.272,0 0.475,-0.08 0.608,-0.24 0.133,-0.165 0.2,-0.373 0.2,-0.624 v -4.12 z m 2.146,0 v 3.528 c 0,0.496 0.12,0.864 0.36,1.104 0.246,0.24 0.584,0.36 1.016,0.36 0.427,0 0.76,-0.12 1,-0.36 0.246,-0.24 0.368,-0.608 0.368,-1.104 v -3.528 h 0.728 v 3.52 c 0,0.464 -0.093,0.856 -0.28,1.176 -0.186,0.315 -0.44,0.549 -0.76,0.704 -0.314,0.155 -0.669,0.232 -1.064,0.232 -0.394,0 -0.752,-0.077 -1.072,-0.232 -0.314,-0.155 -0.565,-0.389 -0.752,-0.704 -0.181,-0.32 -0.272,-0.712 -0.272,-1.176 v -3.52 z m 5.415,4.984 h 1.952 V 528 h -2.68 v -5.576 h 0.728 z"
           fill="#000000"
           id="path25" />
        <path
           d="m 639.912,526.76 h -2.432 l -0.448,1.24 h -0.768 l 2.016,-5.544 h 0.84 l 2.008,5.544 h -0.768 z m -0.208,-0.592 -1.008,-2.816 -1.008,2.816 z m 3.015,-3.744 v 3.528 c 0,0.496 0.12,0.864 0.36,1.104 0.245,0.24 0.584,0.36 1.016,0.36 0.426,0 0.76,-0.12 1,-0.36 0.245,-0.24 0.368,-0.608 0.368,-1.104 v -3.528 h 0.728 v 3.52 c 0,0.464 -0.094,0.856 -0.28,1.176 -0.187,0.315 -0.44,0.549 -0.76,0.704 -0.315,0.155 -0.67,0.232 -1.064,0.232 -0.395,0 -0.752,-0.077 -1.072,-0.232 -0.315,-0.155 -0.566,-0.389 -0.752,-0.704 -0.182,-0.32 -0.272,-0.712 -0.272,-1.176 v -3.52 z m 8.91,1.616 c -0.155,-0.325 -0.379,-0.576 -0.672,-0.752 -0.293,-0.181 -0.635,-0.272 -1.024,-0.272 -0.389,0 -0.741,0.091 -1.056,0.272 -0.309,0.176 -0.555,0.432 -0.736,0.768 -0.176,0.331 -0.264,0.715 -0.264,1.152 0,0.437 0.088,0.821 0.264,1.152 0.181,0.331 0.427,0.587 0.736,0.768 0.315,0.176 0.667,0.264 1.056,0.264 0.544,0 0.992,-0.163 1.344,-0.488 0.352,-0.325 0.557,-0.765 0.616,-1.32 h -2.224 v -0.592 h 3 v 0.56 c -0.043,0.459 -0.187,0.88 -0.432,1.264 -0.245,0.379 -0.568,0.68 -0.968,0.904 -0.4,0.219 -0.845,0.328 -1.336,0.328 -0.517,0 -0.989,-0.12 -1.416,-0.36 -0.427,-0.245 -0.765,-0.584 -1.016,-1.016 -0.245,-0.432 -0.368,-0.92 -0.368,-1.464 0,-0.544 0.123,-1.032 0.368,-1.464 0.251,-0.437 0.589,-0.776 1.016,-1.016 0.427,-0.245 0.899,-0.368 1.416,-0.368 0.592,0 1.115,0.147 1.568,0.44 0.459,0.293 0.792,0.707 1,1.24 z"
           fill="#000000"
           id="path26" />
        <path
           d="m 663.384,528.056 c -0.368,0 -0.699,-0.064 -0.992,-0.192 -0.288,-0.133 -0.515,-0.315 -0.68,-0.544 -0.165,-0.235 -0.251,-0.504 -0.256,-0.808 h 0.776 c 0.027,0.261 0.133,0.483 0.32,0.664 0.192,0.176 0.469,0.264 0.832,0.264 0.347,0 0.619,-0.085 0.816,-0.256 0.203,-0.176 0.304,-0.4 0.304,-0.672 0,-0.213 -0.059,-0.387 -0.176,-0.52 -0.117,-0.133 -0.264,-0.235 -0.44,-0.304 -0.176,-0.069 -0.413,-0.144 -0.712,-0.224 -0.368,-0.096 -0.664,-0.192 -0.888,-0.288 -0.219,-0.096 -0.408,-0.245 -0.568,-0.448 -0.155,-0.208 -0.232,-0.485 -0.232,-0.832 0,-0.304 0.077,-0.573 0.232,-0.808 0.155,-0.235 0.371,-0.416 0.648,-0.544 0.283,-0.128 0.605,-0.192 0.968,-0.192 0.523,0 0.949,0.131 1.28,0.392 0.336,0.261 0.525,0.608 0.568,1.04 h -0.8 c -0.027,-0.213 -0.139,-0.4 -0.336,-0.56 -0.197,-0.165 -0.459,-0.248 -0.784,-0.248 -0.304,0 -0.552,0.08 -0.744,0.24 -0.192,0.155 -0.288,0.373 -0.288,0.656 0,0.203 0.056,0.368 0.168,0.496 0.117,0.128 0.259,0.227 0.424,0.296 0.171,0.064 0.408,0.139 0.712,0.224 0.368,0.101 0.664,0.203 0.888,0.304 0.224,0.096 0.416,0.248 0.576,0.456 0.16,0.203 0.24,0.48 0.24,0.832 0,0.272 -0.072,0.528 -0.216,0.768 -0.144,0.24 -0.357,0.435 -0.64,0.584 -0.283,0.149 -0.616,0.224 -1,0.224 z m 3.655,-5.04 v 1.864 h 2.032 v 0.6 h -2.032 v 1.92 h 2.272 v 0.6 h -3 v -5.584 h 3 v 0.6 z m 7.102,1.04 c 0,0.464 -0.16,0.851 -0.48,1.16 -0.315,0.304 -0.797,0.456 -1.448,0.456 h -1.072 V 528 h -0.728 v -5.576 h 1.8 c 0.629,0 1.107,0.152 1.432,0.456 0.331,0.304 0.496,0.696 0.496,1.176 z m -1.928,1.016 c 0.405,0 0.704,-0.088 0.896,-0.264 0.192,-0.176 0.288,-0.427 0.288,-0.752 0,-0.688 -0.395,-1.032 -1.184,-1.032 h -1.072 v 2.048 z"
           fill="#000000"
           id="path27" />
        <path
           d="m 685.144,528.056 c -0.517,0 -0.989,-0.12 -1.416,-0.36 -0.427,-0.245 -0.765,-0.584 -1.016,-1.016 -0.245,-0.437 -0.368,-0.928 -0.368,-1.472 0,-0.544 0.123,-1.032 0.368,-1.464 0.251,-0.437 0.589,-0.776 1.016,-1.016 0.427,-0.245 0.899,-0.368 1.416,-0.368 0.523,0 0.997,0.123 1.424,0.368 0.427,0.24 0.763,0.576 1.008,1.008 0.245,0.432 0.368,0.923 0.368,1.472 0,0.549 -0.123,1.04 -0.368,1.472 -0.245,0.432 -0.581,0.771 -1.008,1.016 -0.427,0.24 -0.901,0.36 -1.424,0.36 z m 0,-0.632 c 0.389,0 0.739,-0.091 1.048,-0.272 0.315,-0.181 0.56,-0.44 0.736,-0.776 0.181,-0.336 0.272,-0.725 0.272,-1.168 0,-0.448 -0.091,-0.837 -0.272,-1.168 -0.176,-0.336 -0.419,-0.595 -0.728,-0.776 -0.309,-0.181 -0.661,-0.272 -1.056,-0.272 -0.395,0 -0.747,0.091 -1.056,0.272 -0.309,0.181 -0.555,0.44 -0.736,0.776 -0.176,0.331 -0.264,0.72 -0.264,1.168 0,0.443 0.088,0.832 0.264,1.168 0.181,0.336 0.427,0.595 0.736,0.776 0.315,0.181 0.667,0.272 1.056,0.272 z m 3.489,-2.216 c 0,-0.544 0.123,-1.032 0.368,-1.464 0.245,-0.437 0.579,-0.779 1,-1.024 0.427,-0.245 0.899,-0.368 1.416,-0.368 0.608,0 1.139,0.147 1.592,0.44 0.453,0.293 0.784,0.709 0.992,1.248 h -0.872 c -0.155,-0.336 -0.379,-0.595 -0.672,-0.776 -0.288,-0.181 -0.635,-0.272 -1.04,-0.272 -0.389,0 -0.739,0.091 -1.048,0.272 -0.309,0.181 -0.552,0.44 -0.728,0.776 -0.176,0.331 -0.264,0.72 -0.264,1.168 0,0.443 0.088,0.832 0.264,1.168 0.176,0.331 0.419,0.587 0.728,0.768 0.309,0.181 0.659,0.272 1.048,0.272 0.405,0 0.752,-0.088 1.04,-0.264 0.293,-0.181 0.517,-0.44 0.672,-0.776 h 0.872 c -0.208,0.533 -0.539,0.947 -0.992,1.24 -0.453,0.288 -0.984,0.432 -1.592,0.432 -0.517,0 -0.989,-0.12 -1.416,-0.36 -0.421,-0.245 -0.755,-0.584 -1,-1.016 -0.245,-0.432 -0.368,-0.92 -0.368,-1.464 z m 9.884,-2.784 v 0.592 h -1.52 V 528 h -0.728 v -4.984 h -1.528 v -0.592 z"
           fill="#000000"
           id="path28" />
        <path
           d="m 711,528 h -0.728 l -2.928,-4.44 V 528 h -0.728 v -5.584 h 0.728 l 2.928,4.432 v -4.432 H 711 Z m 3.769,0.056 c -0.517,0 -0.989,-0.12 -1.416,-0.36 -0.427,-0.245 -0.765,-0.584 -1.016,-1.016 -0.245,-0.437 -0.368,-0.928 -0.368,-1.472 0,-0.544 0.123,-1.032 0.368,-1.464 0.251,-0.437 0.589,-0.776 1.016,-1.016 0.427,-0.245 0.899,-0.368 1.416,-0.368 0.523,0 0.997,0.123 1.424,0.368 0.427,0.24 0.763,0.576 1.008,1.008 0.245,0.432 0.368,0.923 0.368,1.472 0,0.549 -0.123,1.04 -0.368,1.472 -0.245,0.432 -0.581,0.771 -1.008,1.016 -0.427,0.24 -0.901,0.36 -1.424,0.36 z m 0,-0.632 c 0.389,0 0.739,-0.091 1.048,-0.272 0.315,-0.181 0.56,-0.44 0.736,-0.776 0.181,-0.336 0.272,-0.725 0.272,-1.168 0,-0.448 -0.091,-0.837 -0.272,-1.168 -0.176,-0.336 -0.419,-0.595 -0.728,-0.776 -0.309,-0.181 -0.661,-0.272 -1.056,-0.272 -0.395,0 -0.747,0.091 -1.056,0.272 -0.309,0.181 -0.555,0.44 -0.736,0.776 -0.176,0.331 -0.264,0.72 -0.264,1.168 0,0.443 0.088,0.832 0.264,1.168 0.181,0.336 0.427,0.595 0.736,0.776 0.315,0.181 0.667,0.272 1.056,0.272 z m 8.369,-5 -2.104,5.576 h -0.84 l -2.104,-5.576 h 0.776 l 1.752,4.808 1.752,-4.808 z"
           fill="#000000"
           id="path29" />
        <path
           d="m 733.352,522.424 c 0.608,0 1.133,0.115 1.576,0.344 0.448,0.224 0.789,0.547 1.024,0.968 0.24,0.421 0.36,0.917 0.36,1.488 0,0.571 -0.12,1.067 -0.36,1.488 -0.235,0.416 -0.576,0.736 -1.024,0.96 -0.443,0.219 -0.968,0.328 -1.576,0.328 h -1.736 v -5.576 z m 0,4.976 c 0.72,0 1.269,-0.189 1.648,-0.568 0.379,-0.384 0.568,-0.92 0.568,-1.608 0,-0.693 -0.192,-1.235 -0.576,-1.624 -0.379,-0.389 -0.925,-0.584 -1.64,-0.584 h -1.008 V 527.4 Z M 738,523.016 v 1.864 h 2.032 v 0.6 H 738 v 1.92 h 2.272 v 0.6 h -3 v -5.584 h 3 v 0.6 z m 3.102,2.192 c 0,-0.544 0.122,-1.032 0.368,-1.464 0.245,-0.437 0.578,-0.779 1,-1.024 0.426,-0.245 0.898,-0.368 1.416,-0.368 0.608,0 1.138,0.147 1.592,0.44 0.453,0.293 0.784,0.709 0.992,1.248 h -0.872 c -0.155,-0.336 -0.379,-0.595 -0.672,-0.776 -0.288,-0.181 -0.635,-0.272 -1.04,-0.272 -0.39,0 -0.739,0.091 -1.048,0.272 -0.31,0.181 -0.552,0.44 -0.728,0.776 -0.176,0.331 -0.264,0.72 -0.264,1.168 0,0.443 0.088,0.832 0.264,1.168 0.176,0.331 0.418,0.587 0.728,0.768 0.309,0.181 0.658,0.272 1.048,0.272 0.405,0 0.752,-0.088 1.04,-0.264 0.293,-0.181 0.517,-0.44 0.672,-0.776 h 0.872 c -0.208,0.533 -0.539,0.947 -0.992,1.24 -0.454,0.288 -0.984,0.432 -1.592,0.432 -0.518,0 -0.99,-0.12 -1.416,-0.36 -0.422,-0.245 -0.755,-0.584 -1,-1.016 -0.246,-0.432 -0.368,-0.92 -0.368,-1.464 z"
           fill="#000000"
           id="path30" />
        <rect
           x="478"
           y="454"
           width="14"
           height="58"
           fill="#eddeff"
           id="rect30" />
        <rect
           x="501"
           y="481"
           width="14"
           height="31"
           fill="#eddeff"
           id="rect31" />
        <rect
           x="524"
           y="492"
           width="14"
           height="20"
           fill="#eddeff"
           id="rect32" />
        <rect
           x="547"
           y="468"
           width="14"
           height="44"
           fill="#eddeff"
           id="rect33" />
        <rect
           x="570"
           y="481"
           width="14"
           height="31"
           fill="#eddeff"
           id="rect34" />
        <rect
           x="593"
           y="476"
           width="14"
           height="36"
           fill="#eddeff"
           id="rect35" />
        <rect
           x="616"
           y="463"
           width="14"
           height="49"
           fill="#eddeff"
           id="rect36" />
        <rect
           x="639"
           y="474"
           width="14"
           height="38"
           fill="#eddeff"
           id="rect37" />
        <rect
           x="662"
           y="460"
           width="14"
           height="52"
           fill="#eddeff"
           id="rect38" />
        <rect
           x="685"
           y="474"
           width="14"
           height="38"
           fill="#eddeff"
           id="rect39" />
        <rect
           x="708"
           y="492"
           width="14"
           height="20"
           fill="#eddeff"
           id="rect40" />
        <rect
           x="731"
           y="492"
           width="14"
           height="20"
           fill="#eddeff"
           id="rect41" />
      </g>
      <rect
         x="457.5"
         y="395.5"
         width="309"
         height="156"
         rx="9.5"
         stroke="#f2f2f2"
         id="rect42" />
      <path
         d="m 456,126 c 0,-5.523 4.477,-10 10,-10 h 312 c 5.523,0 10,4.477 10,10 v 90 H 456 Z"
         fill="#d9ddff"
         id="path42" />
      <rect
         x="569.5"
         y="173.5"
         width="85"
         height="85"
         rx="42.5"
         fill="#721f6f"
         id="rect43" />
      <rect
         x="569.5"
         y="173.5"
         width="85"
         height="85"
         rx="42.5"
         stroke="#ffffff"
         stroke-width="5"
         id="rect44" />
      <path
         d="m 598.485,209.292 v 5.916 h 6.45 v 1.905 h -6.45 v 6.094 h 7.211 v 1.904 h -9.522 v -17.724 h 9.522 v 1.905 z m 28.407,-1.753 v 17.572 h -2.311 v -13.102 l -5.84,13.102 h -1.626 l -5.865,-13.128 v 13.128 h -2.311 v -17.572 h 2.488 l 6.501,14.525 6.501,-14.525 z"
         fill="#ffffff"
         id="path44" />
      <path
         d="m 478,462.419 h 12.892 l 60.05,38.581 28.498,-53.701 28.498,21.376 h 29.516 L 666.97,443.128 728.715,462.419 745,440"
         stroke="#721f6f"
         stroke-width="3"
         id="path45" />
    </g>
    <rect
       x="446"
       y="107"
       width="332"
       height="456"
       rx="19"
       stroke="#c67dff"
       stroke-width="2"
       id="rect45"
       clip-path="url(#clipPath89)" />
    <rect
       x="754"
       y="429"
       width="280"
       height="172"
       rx="11"
       fill="#eddeff"
       id="rect46"
       clip-path="url(#clipPath88)"
       transform="translate(-72)" />
    <rect
       x="754"
       y="429"
       width="280"
       height="172"
       rx="11"
       stroke="#ffbe67"
       stroke-width="2"
       id="rect47"
       clip-path="url(#clipPath87)"
       transform="translate(-72)" />
    <rect
       x="775"
       y="518"
       width="125"
       height="26"
       rx="6"
       fill="#ffffff"
       id="rect48"
       clip-path="url(#clipPath86)"
       transform="translate(-72)" />
    <path
       d="m 789.52,534.89 h 3.66 V 536 h -5.025 v -10.455 h 1.365 z m 12.46,-3.315 c 0,0.26 -0.015,0.535 -0.045,0.825 h -6.57 c 0.05,0.81 0.325,1.445 0.825,1.905 0.51,0.45 1.125,0.675 1.845,0.675 0.59,0 1.08,-0.135 1.47,-0.405 0.4,-0.28 0.68,-0.65 0.84,-1.11 h 1.47 c -0.22,0.79 -0.66,1.435 -1.32,1.935 -0.66,0.49 -1.48,0.735 -2.46,0.735 -0.78,0 -1.48,-0.175 -2.1,-0.525 -0.61,-0.35 -1.09,-0.845 -1.44,-1.485 -0.35,-0.65 -0.525,-1.4 -0.525,-2.25 0,-0.85 0.17,-1.595 0.51,-2.235 0.34,-0.64 0.815,-1.13 1.425,-1.47 0.62,-0.35 1.33,-0.525 2.13,-0.525 0.78,0 1.47,0.17 2.07,0.51 0.6,0.34 1.06,0.81 1.38,1.41 0.33,0.59 0.495,1.26 0.495,2.01 z m -1.41,-0.285 c 0,-0.52 -0.115,-0.965 -0.345,-1.335 -0.23,-0.38 -0.545,-0.665 -0.945,-0.855 -0.39,-0.2 -0.825,-0.3 -1.305,-0.3 -0.69,0 -1.28,0.22 -1.77,0.66 -0.48,0.44 -0.755,1.05 -0.825,1.83 z m 6.121,3.45 2.55,-6.96 h 1.455 l -3.225,8.22 h -1.59 l -3.225,-8.22 h 1.47 z m 8.784,1.395 c -0.77,0 -1.47,-0.175 -2.1,-0.525 -0.62,-0.35 -1.11,-0.845 -1.47,-1.485 -0.35,-0.65 -0.525,-1.4 -0.525,-2.25 0,-0.84 0.18,-1.58 0.54,-2.22 0.37,-0.65 0.87,-1.145 1.5,-1.485 0.63,-0.35 1.335,-0.525 2.115,-0.525 0.78,0 1.485,0.175 2.115,0.525 0.63,0.34 1.125,0.83 1.485,1.47 0.37,0.64 0.555,1.385 0.555,2.235 0,0.85 -0.19,1.6 -0.57,2.25 -0.37,0.64 -0.875,1.135 -1.515,1.485 -0.64,0.35 -1.35,0.525 -2.13,0.525 z m 0,-1.2 c 0.49,0 0.95,-0.115 1.38,-0.345 0.43,-0.23 0.775,-0.575 1.035,-1.035 0.27,-0.46 0.405,-1.02 0.405,-1.68 0,-0.66 -0.13,-1.22 -0.39,-1.68 -0.26,-0.46 -0.6,-0.8 -1.02,-1.02 -0.42,-0.23 -0.875,-0.345 -1.365,-0.345 -0.5,0 -0.96,0.115 -1.38,0.345 -0.41,0.22 -0.74,0.56 -0.99,1.02 -0.25,0.46 -0.375,1.02 -0.375,1.68 0,0.67 0.12,1.235 0.36,1.695 0.25,0.46 0.58,0.805 0.99,1.035 0.41,0.22 0.86,0.33 1.35,0.33 z m 7.524,-6.03 v 4.845 c 0,0.4 0.085,0.685 0.255,0.855 0.17,0.16 0.465,0.24 0.885,0.24 h 1.005 V 536 h -1.23 c -0.76,0 -1.33,-0.175 -1.71,-0.525 -0.38,-0.35 -0.57,-0.925 -0.57,-1.725 v -4.845 h -1.065 v -1.125 h 1.065 v -2.07 h 1.365 v 2.07 h 2.145 v 1.125 z m 7.729,-1.275 c 0.62,0 1.18,0.135 1.68,0.405 0.5,0.26 0.89,0.655 1.17,1.185 0.29,0.53 0.435,1.175 0.435,1.935 V 536 h -1.35 v -4.65 c 0,-0.82 -0.205,-1.445 -0.615,-1.875 -0.41,-0.44 -0.97,-0.66 -1.68,-0.66 -0.72,0 -1.295,0.225 -1.725,0.675 -0.42,0.45 -0.63,1.105 -0.63,1.965 V 536 h -1.365 v -11.1 h 1.365 v 4.05 c 0.27,-0.42 0.64,-0.745 1.11,-0.975 0.48,-0.23 1.015,-0.345 1.605,-0.345 z m 12.445,0.15 -4.95,12.09 h -1.41 l 1.62,-3.96 -3.315,-8.13 h 1.515 l 2.58,6.66 2.55,-6.66 z m 2.587,1.335 c 0.24,-0.47 0.58,-0.835 1.02,-1.095 0.45,-0.26 0.995,-0.39 1.635,-0.39 v 1.41 h -0.36 c -1.53,0 -2.295,0.83 -2.295,2.49 V 536 h -1.365 v -8.22 h 1.365 z m 7.666,7.02 c -0.77,0 -1.47,-0.175 -2.1,-0.525 -0.62,-0.35 -1.11,-0.845 -1.47,-1.485 -0.35,-0.65 -0.525,-1.4 -0.525,-2.25 0,-0.84 0.18,-1.58 0.54,-2.22 0.37,-0.65 0.87,-1.145 1.5,-1.485 0.63,-0.35 1.335,-0.525 2.115,-0.525 0.78,0 1.485,0.175 2.115,0.525 0.63,0.34 1.125,0.83 1.485,1.47 0.37,0.64 0.555,1.385 0.555,2.235 0,0.85 -0.19,1.6 -0.57,2.25 -0.37,0.64 -0.875,1.135 -1.515,1.485 -0.64,0.35 -1.35,0.525 -2.13,0.525 z m 0,-1.2 c 0.49,0 0.95,-0.115 1.38,-0.345 0.43,-0.23 0.775,-0.575 1.035,-1.035 0.27,-0.46 0.405,-1.02 0.405,-1.68 0,-0.66 -0.13,-1.22 -0.39,-1.68 -0.26,-0.46 -0.6,-0.8 -1.02,-1.02 -0.42,-0.23 -0.875,-0.345 -1.365,-0.345 -0.5,0 -0.96,0.115 -1.38,0.345 -0.41,0.22 -0.74,0.56 -0.99,1.02 -0.25,0.46 -0.375,1.02 -0.375,1.68 0,0.67 0.12,1.235 0.36,1.695 0.25,0.46 0.58,0.805 0.99,1.035 0.41,0.22 0.86,0.33 1.35,0.33 z m 10.149,1.065 -1.95,-3.06 -1.875,3.06 h -1.425 l 2.655,-4.08 -2.655,-4.14 h 1.545 l 1.95,3.045 1.86,-3.045 h 1.425 l -2.64,4.065 2.655,4.155 z m 3.443,-9.555 c -0.26,0 -0.48,-0.09 -0.66,-0.27 -0.18,-0.18 -0.27,-0.4 -0.27,-0.66 0,-0.26 0.09,-0.48 0.27,-0.66 0.18,-0.18 0.4,-0.27 0.66,-0.27 0.25,0 0.46,0.09 0.63,0.27 0.18,0.18 0.27,0.4 0.27,0.66 0,0.26 -0.09,0.48 -0.27,0.66 -0.17,0.18 -0.38,0.27 -0.63,0.27 z m 0.66,1.335 V 536 h -1.365 v -8.22 z m 6.182,-0.15 c 1,0 1.81,0.305 2.43,0.915 0.62,0.6 0.93,1.47 0.93,2.61 V 536 h -1.35 v -4.65 c 0,-0.82 -0.205,-1.445 -0.615,-1.875 -0.41,-0.44 -0.97,-0.66 -1.68,-0.66 -0.72,0 -1.295,0.225 -1.725,0.675 -0.42,0.45 -0.63,1.105 -0.63,1.965 V 536 h -1.365 v -8.22 h 1.365 v 1.17 c 0.27,-0.42 0.635,-0.745 1.095,-0.975 0.47,-0.23 0.985,-0.345 1.545,-0.345 z m 12.939,3.945 c 0,0.26 -0.015,0.535 -0.045,0.825 h -6.57 c 0.05,0.81 0.325,1.445 0.825,1.905 0.51,0.45 1.125,0.675 1.845,0.675 0.59,0 1.08,-0.135 1.47,-0.405 0.4,-0.28 0.68,-0.65 0.84,-1.11 h 1.47 c -0.22,0.79 -0.66,1.435 -1.32,1.935 -0.66,0.49 -1.48,0.735 -2.46,0.735 -0.78,0 -1.48,-0.175 -2.1,-0.525 -0.61,-0.35 -1.09,-0.845 -1.44,-1.485 -0.35,-0.65 -0.525,-1.4 -0.525,-2.25 0,-0.85 0.17,-1.595 0.51,-2.235 0.34,-0.64 0.815,-1.13 1.425,-1.47 0.62,-0.35 1.33,-0.525 2.13,-0.525 0.78,0 1.47,0.17 2.07,0.51 0.6,0.34 1.06,0.81 1.38,1.41 0.33,0.59 0.495,1.26 0.495,2.01 z m -1.41,-0.285 c 0,-0.52 -0.115,-0.965 -0.345,-1.335 -0.23,-0.38 -0.545,-0.665 -0.945,-0.855 -0.39,-0.2 -0.825,-0.3 -1.305,-0.3 -0.69,0 -1.28,0.22 -1.77,0.66 -0.48,0.44 -0.755,1.05 -0.825,1.83 z"
       fill="#560153"
       id="path48"
       clip-path="url(#clipPath85)"
       transform="translate(-72)" />
    <rect
       x="911"
       y="518"
       width="100"
       height="26"
       rx="6"
       fill="#ffffff"
       id="rect49"
       clip-path="url(#clipPath84)"
       transform="translate(-72)" />
    <path
       d="M 934.76,525.62 V 536 h -1.365 v -7.74 l -3.45,7.74 h -0.96 l -3.465,-7.755 V 536 h -1.365 v -10.38 h 1.47 l 3.84,8.58 3.84,-8.58 z m 9.665,5.955 c 0,0.26 -0.015,0.535 -0.045,0.825 h -6.57 c 0.05,0.81 0.325,1.445 0.825,1.905 0.51,0.45 1.125,0.675 1.845,0.675 0.59,0 1.08,-0.135 1.47,-0.405 0.4,-0.28 0.68,-0.65 0.84,-1.11 h 1.47 c -0.22,0.79 -0.66,1.435 -1.32,1.935 -0.66,0.49 -1.48,0.735 -2.46,0.735 -0.78,0 -1.48,-0.175 -2.1,-0.525 -0.61,-0.35 -1.09,-0.845 -1.44,-1.485 -0.35,-0.65 -0.525,-1.4 -0.525,-2.25 0,-0.85 0.17,-1.595 0.51,-2.235 0.34,-0.64 0.815,-1.13 1.425,-1.47 0.62,-0.35 1.33,-0.525 2.13,-0.525 0.78,0 1.47,0.17 2.07,0.51 0.6,0.34 1.06,0.81 1.38,1.41 0.33,0.59 0.495,1.26 0.495,2.01 z m -1.41,-0.285 c 0,-0.52 -0.115,-0.965 -0.345,-1.335 -0.23,-0.38 -0.545,-0.665 -0.945,-0.855 -0.39,-0.2 -0.825,-0.3 -1.305,-0.3 -0.69,0 -1.28,0.22 -1.77,0.66 -0.48,0.44 -0.755,1.05 -0.825,1.83 z m 4.727,-2.385 v 4.845 c 0,0.4 0.085,0.685 0.255,0.855 0.17,0.16 0.465,0.24 0.885,0.24 h 1.005 V 536 h -1.23 c -0.76,0 -1.33,-0.175 -1.71,-0.525 -0.38,-0.35 -0.57,-0.925 -0.57,-1.725 v -4.845 h -1.065 v -1.125 h 1.065 v -2.07 h 1.365 v 2.07 h 2.145 v 1.125 z m 6.994,0 h -1.725 V 536 h -1.365 v -7.095 h -1.065 v -1.125 h 1.065 v -0.585 c 0,-0.92 0.235,-1.59 0.705,-2.01 0.48,-0.43 1.245,-0.645 2.295,-0.645 v 1.14 c -0.6,0 -1.025,0.12 -1.275,0.36 -0.24,0.23 -0.36,0.615 -0.36,1.155 v 0.585 h 1.725 z m 5.026,7.23 c -0.77,0 -1.47,-0.175 -2.1,-0.525 -0.62,-0.35 -1.11,-0.845 -1.47,-1.485 -0.35,-0.65 -0.525,-1.4 -0.525,-2.25 0,-0.84 0.18,-1.58 0.54,-2.22 0.37,-0.65 0.87,-1.145 1.5,-1.485 0.63,-0.35 1.335,-0.525 2.115,-0.525 0.78,0 1.485,0.175 2.115,0.525 0.63,0.34 1.125,0.83 1.485,1.47 0.37,0.64 0.555,1.385 0.555,2.235 0,0.85 -0.19,1.6 -0.57,2.25 -0.37,0.64 -0.875,1.135 -1.515,1.485 -0.64,0.35 -1.35,0.525 -2.13,0.525 z m 0,-1.2 c 0.49,0 0.95,-0.115 1.38,-0.345 0.43,-0.23 0.775,-0.575 1.035,-1.035 0.27,-0.46 0.405,-1.02 0.405,-1.68 0,-0.66 -0.13,-1.22 -0.39,-1.68 -0.26,-0.46 -0.6,-0.8 -1.02,-1.02 -0.42,-0.23 -0.875,-0.345 -1.365,-0.345 -0.5,0 -0.96,0.115 -1.38,0.345 -0.41,0.22 -0.74,0.56 -0.99,1.02 -0.25,0.46 -0.375,1.02 -0.375,1.68 0,0.67 0.12,1.235 0.36,1.695 0.25,0.46 0.58,0.805 0.99,1.035 0.41,0.22 0.86,0.33 1.35,0.33 z m 7.225,-5.82 c 0.24,-0.47 0.58,-0.835 1.02,-1.095 0.45,-0.26 0.995,-0.39 1.635,-0.39 v 1.41 h -0.36 c -1.53,0 -2.295,0.83 -2.295,2.49 V 536 h -1.365 v -8.22 h 1.365 z m 13.965,-1.485 c 0.64,0 1.21,0.135 1.71,0.405 0.5,0.26 0.895,0.655 1.185,1.185 0.29,0.53 0.435,1.175 0.435,1.935 V 536 h -1.35 v -4.65 c 0,-0.82 -0.205,-1.445 -0.615,-1.875 -0.4,-0.44 -0.945,-0.66 -1.635,-0.66 -0.71,0 -1.275,0.23 -1.695,0.69 -0.42,0.45 -0.63,1.105 -0.63,1.965 V 536 h -1.35 v -4.65 c 0,-0.82 -0.205,-1.445 -0.615,-1.875 -0.4,-0.44 -0.945,-0.66 -1.635,-0.66 -0.71,0 -1.275,0.23 -1.695,0.69 -0.42,0.45 -0.63,1.105 -0.63,1.965 V 536 h -1.365 v -8.22 h 1.365 v 1.185 c 0.27,-0.43 0.63,-0.76 1.08,-0.99 0.46,-0.23 0.965,-0.345 1.515,-0.345 0.69,0 1.3,0.155 1.83,0.465 0.53,0.31 0.925,0.765 1.185,1.365 0.23,-0.58 0.61,-1.03 1.14,-1.35 0.53,-0.32 1.12,-0.48 1.77,-0.48 z m 6.125,-1.185 c -0.26,0 -0.48,-0.09 -0.66,-0.27 -0.18,-0.18 -0.27,-0.4 -0.27,-0.66 0,-0.26 0.09,-0.48 0.27,-0.66 0.18,-0.18 0.4,-0.27 0.66,-0.27 0.25,0 0.46,0.09 0.63,0.27 0.18,0.18 0.27,0.4 0.27,0.66 0,0.26 -0.09,0.48 -0.27,0.66 -0.17,0.18 -0.38,0.27 -0.63,0.27 z m 0.66,1.335 V 536 h -1.365 v -8.22 z m 6.181,-0.15 c 1,0 1.81,0.305 2.43,0.915 0.62,0.6 0.93,1.47 0.93,2.61 V 536 h -1.35 v -4.65 c 0,-0.82 -0.205,-1.445 -0.615,-1.875 -0.41,-0.44 -0.97,-0.66 -1.68,-0.66 -0.72,0 -1.295,0.225 -1.725,0.675 -0.42,0.45 -0.63,1.105 -0.63,1.965 V 536 h -1.365 v -8.22 h 1.365 v 1.17 c 0.27,-0.42 0.635,-0.745 1.095,-0.975 0.47,-0.23 0.985,-0.345 1.545,-0.345 z"
       fill="#560153"
       id="path49"
       clip-path="url(#clipPath83)"
       transform="translate(-72)" />
    <rect
       x="775"
       y="554"
       width="146"
       height="26"
       rx="6"
       fill="#ffffff"
       id="rect50"
       clip-path="url(#clipPath82)"
       transform="translate(-72)" />
    <path
       d="m 792.895,572.105 c -0.97,0 -1.855,-0.225 -2.655,-0.675 -0.8,-0.46 -1.435,-1.095 -1.905,-1.905 -0.46,-0.82 -0.69,-1.74 -0.69,-2.76 0,-1.02 0.23,-1.935 0.69,-2.745 0.47,-0.82 1.105,-1.455 1.905,-1.905 0.8,-0.46 1.685,-0.69 2.655,-0.69 0.98,0 1.87,0.23 2.67,0.69 0.8,0.45 1.43,1.08 1.89,1.89 0.46,0.81 0.69,1.73 0.69,2.76 0,1.03 -0.23,1.95 -0.69,2.76 -0.46,0.81 -1.09,1.445 -1.89,1.905 -0.8,0.45 -1.69,0.675 -2.67,0.675 z m 0,-1.185 c 0.73,0 1.385,-0.17 1.965,-0.51 0.59,-0.34 1.05,-0.825 1.38,-1.455 0.34,-0.63 0.51,-1.36 0.51,-2.19 0,-0.84 -0.17,-1.57 -0.51,-2.19 -0.33,-0.63 -0.785,-1.115 -1.365,-1.455 -0.58,-0.34 -1.24,-0.51 -1.98,-0.51 -0.74,0 -1.4,0.17 -1.98,0.51 -0.58,0.34 -1.04,0.825 -1.38,1.455 -0.33,0.62 -0.495,1.35 -0.495,2.19 0,0.83 0.165,1.56 0.495,2.19 0.34,0.63 0.8,1.115 1.38,1.455 0.59,0.34 1.25,0.51 1.98,0.51 z m 8.267,-5.805 c 0.24,-0.47 0.58,-0.835 1.02,-1.095 0.45,-0.26 0.995,-0.39 1.635,-0.39 v 1.41 h -0.36 c -1.53,0 -2.295,0.83 -2.295,2.49 V 572 h -1.365 v -8.22 h 1.365 z m 5.746,-0.21 v 4.845 c 0,0.4 0.085,0.685 0.255,0.855 0.17,0.16 0.465,0.24 0.885,0.24 h 1.005 V 572 h -1.23 c -0.76,0 -1.33,-0.175 -1.71,-0.525 -0.38,-0.35 -0.57,-0.925 -0.57,-1.725 v -4.845 h -1.065 v -1.125 h 1.065 v -2.07 h 1.365 v 2.07 h 2.145 v 1.125 z m 7.729,-1.275 c 0.62,0 1.18,0.135 1.68,0.405 0.5,0.26 0.89,0.655 1.17,1.185 0.29,0.53 0.435,1.175 0.435,1.935 V 572 h -1.35 v -4.65 c 0,-0.82 -0.205,-1.445 -0.615,-1.875 -0.41,-0.44 -0.97,-0.66 -1.68,-0.66 -0.72,0 -1.295,0.225 -1.725,0.675 -0.42,0.45 -0.63,1.105 -0.63,1.965 V 572 h -1.365 v -11.1 h 1.365 v 4.05 c 0.27,-0.42 0.64,-0.745 1.11,-0.975 0.48,-0.23 1.015,-0.345 1.605,-0.345 z m 8.949,8.505 c -0.77,0 -1.47,-0.175 -2.1,-0.525 -0.62,-0.35 -1.11,-0.845 -1.47,-1.485 -0.35,-0.65 -0.525,-1.4 -0.525,-2.25 0,-0.84 0.18,-1.58 0.54,-2.22 0.37,-0.65 0.87,-1.145 1.5,-1.485 0.63,-0.35 1.335,-0.525 2.115,-0.525 0.78,0 1.485,0.175 2.115,0.525 0.63,0.34 1.125,0.83 1.485,1.47 0.37,0.64 0.555,1.385 0.555,2.235 0,0.85 -0.19,1.6 -0.57,2.25 -0.37,0.64 -0.875,1.135 -1.515,1.485 -0.64,0.35 -1.35,0.525 -2.13,0.525 z m 0,-1.2 c 0.49,0 0.95,-0.115 1.38,-0.345 0.43,-0.23 0.775,-0.575 1.035,-1.035 0.27,-0.46 0.405,-1.02 0.405,-1.68 0,-0.66 -0.13,-1.22 -0.39,-1.68 -0.26,-0.46 -0.6,-0.8 -1.02,-1.02 -0.42,-0.23 -0.875,-0.345 -1.365,-0.345 -0.5,0 -0.96,0.115 -1.38,0.345 -0.41,0.22 -0.74,0.56 -0.99,1.02 -0.25,0.46 -0.375,1.02 -0.375,1.68 0,0.67 0.12,1.235 0.36,1.695 0.25,0.46 0.58,0.805 0.99,1.035 0.41,0.22 0.86,0.33 1.35,0.33 z m 16.144,-9.39 v 1.11 h -2.85 V 572 h -1.365 v -9.345 h -2.865 v -1.11 z m 2.895,3.57 c 0.24,-0.47 0.58,-0.835 1.02,-1.095 0.45,-0.26 0.995,-0.39 1.635,-0.39 v 1.41 h -0.36 c -1.53,0 -2.295,0.83 -2.295,2.49 V 572 h -1.365 v -8.22 h 1.365 z m 4.786,-2.67 c -0.26,0 -0.48,-0.09 -0.66,-0.27 -0.18,-0.18 -0.27,-0.4 -0.27,-0.66 0,-0.26 0.09,-0.48 0.27,-0.66 0.18,-0.18 0.4,-0.27 0.66,-0.27 0.25,0 0.46,0.09 0.63,0.27 0.18,0.18 0.27,0.4 0.27,0.66 0,0.26 -0.09,0.48 -0.27,0.66 -0.17,0.18 -0.38,0.27 -0.63,0.27 z m 0.66,1.335 V 572 h -1.365 v -8.22 z m 7.876,2.145 v 1.155 h -5.985 v -1.155 z m 1.902,0.84 c 0,-1.02 0.23,-1.935 0.69,-2.745 0.46,-0.82 1.085,-1.46 1.875,-1.92 0.8,-0.46 1.685,-0.69 2.655,-0.69 1.14,0 2.135,0.275 2.985,0.825 0.85,0.55 1.47,1.33 1.86,2.34 h -1.635 c -0.29,-0.63 -0.71,-1.115 -1.26,-1.455 -0.54,-0.34 -1.19,-0.51 -1.95,-0.51 -0.73,0 -1.385,0.17 -1.965,0.51 -0.58,0.34 -1.035,0.825 -1.365,1.455 -0.33,0.62 -0.495,1.35 -0.495,2.19 0,0.83 0.165,1.56 0.495,2.19 0.33,0.62 0.785,1.1 1.365,1.44 0.58,0.34 1.235,0.51 1.965,0.51 0.76,0 1.41,-0.165 1.95,-0.495 0.55,-0.34 0.97,-0.825 1.26,-1.455 h 1.635 c -0.39,1 -1.01,1.775 -1.86,2.325 -0.85,0.54 -1.845,0.81 -2.985,0.81 -0.97,0 -1.855,-0.225 -2.655,-0.675 -0.79,-0.46 -1.415,-1.095 -1.875,-1.905 -0.46,-0.81 -0.69,-1.725 -0.69,-2.745 z m 19.027,-2.985 -4.95,12.09 h -1.41 l 1.62,-3.96 -3.315,-8.13 h 1.515 l 2.58,6.66 2.55,-6.66 z m 0.712,4.095 c 0,-0.85 0.17,-1.59 0.51,-2.22 0.34,-0.64 0.81,-1.135 1.41,-1.485 0.61,-0.35 1.305,-0.525 2.085,-0.525 1.01,0 1.84,0.245 2.49,0.735 0.66,0.49 1.095,1.17 1.305,2.04 h -1.47 c -0.14,-0.5 -0.415,-0.895 -0.825,-1.185 -0.4,-0.29 -0.9,-0.435 -1.5,-0.435 -0.78,0 -1.41,0.27 -1.89,0.81 -0.48,0.53 -0.72,1.285 -0.72,2.265 0,0.99 0.24,1.755 0.72,2.295 0.48,0.54 1.11,0.81 1.89,0.81 0.6,0 1.1,-0.14 1.5,-0.42 0.4,-0.28 0.675,-0.68 0.825,-1.2 h 1.47 c -0.22,0.84 -0.66,1.515 -1.32,2.025 -0.66,0.5 -1.485,0.75 -2.475,0.75 -0.78,0 -1.475,-0.175 -2.085,-0.525 -0.6,-0.35 -1.07,-0.845 -1.41,-1.485 -0.34,-0.64 -0.51,-1.39 -0.51,-2.25 z M 888.424,560.9 V 572 h -1.365 v -11.1 z m 9.677,6.675 c 0,0.26 -0.015,0.535 -0.045,0.825 h -6.57 c 0.05,0.81 0.325,1.445 0.825,1.905 0.51,0.45 1.125,0.675 1.845,0.675 0.59,0 1.08,-0.135 1.47,-0.405 0.4,-0.28 0.68,-0.65 0.84,-1.11 h 1.47 c -0.22,0.79 -0.66,1.435 -1.32,1.935 -0.66,0.49 -1.48,0.735 -2.46,0.735 -0.78,0 -1.48,-0.175 -2.1,-0.525 -0.61,-0.35 -1.09,-0.845 -1.44,-1.485 -0.35,-0.65 -0.525,-1.4 -0.525,-2.25 0,-0.85 0.17,-1.595 0.51,-2.235 0.34,-0.64 0.815,-1.13 1.425,-1.47 0.62,-0.35 1.33,-0.525 2.13,-0.525 0.78,0 1.47,0.17 2.07,0.51 0.6,0.34 1.06,0.81 1.38,1.41 0.33,0.59 0.495,1.26 0.495,2.01 z m -1.41,-0.285 c 0,-0.52 -0.115,-0.965 -0.345,-1.335 -0.23,-0.38 -0.545,-0.665 -0.945,-0.855 -0.39,-0.2 -0.825,-0.3 -1.305,-0.3 -0.69,0 -1.28,0.22 -1.77,0.66 -0.48,0.44 -0.755,1.05 -0.825,1.83 z m 7.067,-3.66 c 1,0 1.81,0.305 2.43,0.915 0.62,0.6 0.93,1.47 0.93,2.61 V 572 h -1.35 v -4.65 c 0,-0.82 -0.205,-1.445 -0.615,-1.875 -0.41,-0.44 -0.97,-0.66 -1.68,-0.66 -0.72,0 -1.295,0.225 -1.725,0.675 -0.42,0.45 -0.63,1.105 -0.63,1.965 V 572 h -1.365 v -8.22 h 1.365 v 1.17 c 0.27,-0.42 0.635,-0.745 1.095,-0.975 0.47,-0.23 0.985,-0.345 1.545,-0.345 z"
       fill="#560153"
       id="path50"
       clip-path="url(#clipPath81)"
       transform="translate(-72)" />
    <path
       d="M 856.719,481.185 V 493 h -1.938 v -8.092 L 851.177,493 h -1.343 l -3.621,-8.092 V 493 h -1.938 v -11.815 h 2.091 l 4.148,9.265 4.131,-9.265 z m 11.132,6.902 c 0,0.351 -0.022,0.669 -0.068,0.952 h -7.157 c 0.057,0.748 0.335,1.349 0.833,1.802 0.499,0.453 1.111,0.68 1.836,0.68 1.043,0 1.78,-0.436 2.21,-1.309 h 2.091 c -0.283,0.861 -0.799,1.57 -1.547,2.125 -0.736,0.544 -1.654,0.816 -2.754,0.816 -0.895,0 -1.7,-0.198 -2.414,-0.595 -0.702,-0.408 -1.258,-0.975 -1.666,-1.7 -0.396,-0.737 -0.595,-1.587 -0.595,-2.55 0,-0.963 0.193,-1.808 0.578,-2.533 0.397,-0.737 0.947,-1.303 1.649,-1.7 0.714,-0.397 1.53,-0.595 2.448,-0.595 0.884,0 1.672,0.193 2.363,0.578 0.692,0.385 1.23,0.929 1.615,1.632 0.386,0.691 0.578,1.49 0.578,2.397 z m -2.023,-0.612 c -0.011,-0.714 -0.266,-1.286 -0.765,-1.717 -0.498,-0.431 -1.116,-0.646 -1.853,-0.646 -0.668,0 -1.241,0.215 -1.717,0.646 -0.476,0.419 -0.759,0.992 -0.85,1.717 z m 3.284,0.799 c 0,-0.941 0.193,-1.774 0.578,-2.499 0.397,-0.725 0.93,-1.286 1.598,-1.683 0.68,-0.408 1.434,-0.612 2.261,-0.612 0.612,0 1.213,0.136 1.802,0.408 0.601,0.261 1.077,0.612 1.428,1.054 v -4.522 h 1.955 V 493 h -1.955 v -1.411 c -0.317,0.453 -0.759,0.827 -1.326,1.122 -0.555,0.295 -1.195,0.442 -1.921,0.442 -0.816,0 -1.564,-0.204 -2.244,-0.612 -0.668,-0.419 -1.201,-0.997 -1.598,-1.734 -0.385,-0.748 -0.578,-1.592 -0.578,-2.533 z m 7.667,0.034 c 0,-0.646 -0.136,-1.207 -0.408,-1.683 -0.26,-0.476 -0.606,-0.839 -1.037,-1.088 -0.43,-0.249 -0.895,-0.374 -1.394,-0.374 -0.498,0 -0.963,0.125 -1.394,0.374 -0.43,0.238 -0.782,0.595 -1.054,1.071 -0.26,0.465 -0.391,1.02 -0.391,1.666 0,0.646 0.131,1.213 0.391,1.7 0.272,0.487 0.624,0.861 1.054,1.122 0.442,0.249 0.907,0.374 1.394,0.374 0.499,0 0.964,-0.125 1.394,-0.374 0.431,-0.249 0.777,-0.612 1.037,-1.088 0.272,-0.487 0.408,-1.054 0.408,-1.7 z m 5.487,-5.916 c -0.351,0 -0.646,-0.119 -0.884,-0.357 -0.238,-0.238 -0.357,-0.533 -0.357,-0.884 0,-0.351 0.119,-0.646 0.357,-0.884 0.238,-0.238 0.533,-0.357 0.884,-0.357 0.34,0 0.629,0.119 0.867,0.357 0.238,0.238 0.357,0.533 0.357,0.884 0,0.351 -0.119,0.646 -0.357,0.884 -0.238,0.238 -0.527,0.357 -0.867,0.357 z m 0.952,1.241 V 493 h -1.938 v -9.367 z m 1.898,4.675 c 0,-0.963 0.193,-1.808 0.578,-2.533 0.397,-0.737 0.941,-1.303 1.632,-1.7 0.692,-0.397 1.485,-0.595 2.38,-0.595 1.134,0 2.069,0.272 2.805,0.816 0.748,0.533 1.253,1.298 1.513,2.295 h -2.091 c -0.17,-0.465 -0.442,-0.827 -0.816,-1.088 -0.374,-0.261 -0.844,-0.391 -1.411,-0.391 -0.793,0 -1.428,0.283 -1.904,0.85 -0.464,0.555 -0.697,1.337 -0.697,2.346 0,1.009 0.233,1.796 0.697,2.363 0.476,0.567 1.111,0.85 1.904,0.85 1.122,0 1.865,-0.493 2.227,-1.479 h 2.091 c -0.272,0.952 -0.782,1.711 -1.53,2.278 -0.748,0.555 -1.677,0.833 -2.788,0.833 -0.895,0 -1.688,-0.198 -2.38,-0.595 -0.691,-0.408 -1.235,-0.975 -1.632,-1.7 -0.385,-0.737 -0.578,-1.587 -0.578,-2.55 z m 10.194,-0.034 c 0,-0.941 0.192,-1.774 0.578,-2.499 0.396,-0.725 0.929,-1.286 1.598,-1.683 0.68,-0.408 1.428,-0.612 2.244,-0.612 0.736,0 1.377,0.147 1.921,0.442 0.555,0.283 0.997,0.64 1.326,1.071 v -1.36 h 1.955 V 493 h -1.955 v -1.394 c -0.329,0.442 -0.777,0.81 -1.343,1.105 -0.567,0.295 -1.213,0.442 -1.938,0.442 -0.805,0 -1.542,-0.204 -2.21,-0.612 -0.669,-0.419 -1.202,-0.997 -1.598,-1.734 -0.386,-0.748 -0.578,-1.592 -0.578,-2.533 z m 7.667,0.034 c 0,-0.646 -0.136,-1.207 -0.408,-1.683 -0.261,-0.476 -0.607,-0.839 -1.037,-1.088 -0.431,-0.249 -0.896,-0.374 -1.394,-0.374 -0.499,0 -0.964,0.125 -1.394,0.374 -0.431,0.238 -0.782,0.595 -1.054,1.071 -0.261,0.465 -0.391,1.02 -0.391,1.666 0,0.646 0.13,1.213 0.391,1.7 0.272,0.487 0.623,0.861 1.054,1.122 0.442,0.249 0.906,0.374 1.394,0.374 0.498,0 0.963,-0.125 1.394,-0.374 0.43,-0.249 0.776,-0.612 1.037,-1.088 0.272,-0.487 0.408,-1.054 0.408,-1.7 z m 6.761,-3.094 v 5.185 c 0,0.351 0.079,0.606 0.238,0.765 0.17,0.147 0.453,0.221 0.85,0.221 h 1.19 V 493 h -1.53 c -0.873,0 -1.541,-0.204 -2.006,-0.612 -0.465,-0.408 -0.697,-1.071 -0.697,-1.989 v -5.185 h -1.105 v -1.581 h 1.105 v -2.329 h 1.955 v 2.329 h 2.278 v 1.581 z m 5.05,-2.822 c -0.351,0 -0.646,-0.119 -0.884,-0.357 -0.238,-0.238 -0.357,-0.533 -0.357,-0.884 0,-0.351 0.119,-0.646 0.357,-0.884 0.238,-0.238 0.533,-0.357 0.884,-0.357 0.34,0 0.629,0.119 0.867,0.357 0.238,0.238 0.357,0.533 0.357,0.884 0,0.351 -0.119,0.646 -0.357,0.884 -0.238,0.238 -0.527,0.357 -0.867,0.357 z m 0.952,1.241 V 493 h -1.938 v -9.367 z m 6.608,9.52 c -0.884,0 -1.683,-0.198 -2.397,-0.595 -0.714,-0.408 -1.275,-0.975 -1.683,-1.7 -0.408,-0.737 -0.612,-1.587 -0.612,-2.55 0,-0.952 0.209,-1.796 0.629,-2.533 0.419,-0.737 0.991,-1.303 1.717,-1.7 0.725,-0.397 1.535,-0.595 2.431,-0.595 0.895,0 1.705,0.198 2.431,0.595 0.725,0.397 1.297,0.963 1.717,1.7 0.419,0.737 0.629,1.581 0.629,2.533 0,0.952 -0.216,1.796 -0.646,2.533 -0.431,0.737 -1.02,1.309 -1.768,1.717 -0.737,0.397 -1.553,0.595 -2.448,0.595 z m 0,-1.683 c 0.498,0 0.963,-0.119 1.394,-0.357 0.442,-0.238 0.799,-0.595 1.071,-1.071 0.272,-0.476 0.408,-1.054 0.408,-1.734 0,-0.68 -0.131,-1.252 -0.391,-1.717 -0.261,-0.476 -0.607,-0.833 -1.037,-1.071 -0.431,-0.238 -0.896,-0.357 -1.394,-0.357 -0.499,0 -0.964,0.119 -1.394,0.357 -0.42,0.238 -0.754,0.595 -1.003,1.071 -0.25,0.465 -0.374,1.037 -0.374,1.717 0,1.009 0.255,1.791 0.765,2.346 0.521,0.544 1.173,0.816 1.955,0.816 z m 11.504,-7.99 c 0.736,0 1.394,0.153 1.972,0.459 0.589,0.306 1.048,0.759 1.377,1.36 0.328,0.601 0.493,1.326 0.493,2.176 V 493 h -1.921 v -5.236 c 0,-0.839 -0.21,-1.479 -0.629,-1.921 -0.42,-0.453 -0.992,-0.68 -1.717,-0.68 -0.726,0 -1.304,0.227 -1.734,0.68 -0.42,0.442 -0.629,1.082 -0.629,1.921 V 493 h -1.938 v -9.367 h 1.938 v 1.071 c 0.317,-0.385 0.719,-0.686 1.207,-0.901 0.498,-0.215 1.025,-0.323 1.581,-0.323 z"
       fill="#000000"
       id="path51"
       clip-path="url(#clipPath80)"
       transform="translate(-72)" />
    <rect
       x="843"
       y="459"
       width="60"
       height="10"
       rx="5"
       fill="#fffae8"
       id="rect51"
       clip-path="url(#clipPath79)"
       transform="translate(-72)" />
    <rect
       x="775"
       y="450"
       width="52"
       height="52"
       rx="26"
       fill="#fffae8"
       id="rect52"
       clip-path="url(#clipPath78)"
       transform="translate(-72)" />
    <g
       clip-path="url(#clipPath77)"
       id="g54"
       transform="translate(-72)">
      <path
         d="m 804.503,479.5 -7,-8 -4.5,5.5 c -0.834,1.167 -1.9,4.1 0.5,6.5 2.4,2.4 5,1.667 6,1 z"
         fill="#c67dff"
         id="path52" />
      <path
         d="m 793.497,476.501 8,-8 c 0.928,-0.929 2.187,-1.45 3.5,-1.45 1.312,0 2.571,0.521 3.5,1.45 0.928,0.928 1.449,2.187 1.449,3.5 0,1.312 -0.521,2.571 -1.449,3.5 l -8,8 c -0.929,0.928 -2.188,1.449 -3.5,1.449 -1.313,0 -2.572,-0.521 -3.5,-1.449 -0.929,-0.929 -1.45,-2.188 -1.45,-3.5 0,-1.313 0.521,-2.572 1.45,-3.5 z"
         stroke="#000000"
         stroke-width="2"
         stroke-linecap="round"
         stroke-linejoin="round"
         id="path53" />
      <path
         d="m 797.5,472.5 7,7"
         stroke="#000000"
         stroke-width="2"
         stroke-linecap="round"
         stroke-linejoin="round"
         id="path54" />
    </g>
    <rect
       x="714"
       y="50"
       width="252"
       height="148"
       rx="11"
       fill="#fffae8"
       id="rect54"
       clip-path="url(#clipPath76)"
       transform="translate(-44)" />
    <rect
       x="714"
       y="50"
       width="252"
       height="148"
       rx="11"
       stroke="#ffbe67"
       stroke-width="2"
       id="rect55"
       clip-path="url(#clipPath75)"
       transform="translate(-44)" />
    <rect
       x="735"
       y="71"
       width="52"
       height="52"
       rx="26"
       fill="#fffae8"
       id="rect56"
       clip-path="url(#clipPath74)"
       transform="translate(-44)" />
    <g
       clip-path="url(#clipPath73)"
       id="g61"
       transform="translate(-44)">
      <path
         d="m 752,99 5,-5 5,5 v 7 h -10 z"
         fill="#9ea9fd"
         id="path56" />
      <path
         d="m 762,106 v -7 l -5,-5 -5,5 v 7 h 5 m 5,0 h -5 m 5,0 h 8 V 89 c 0,-0.2652 -0.105,-0.5196 -0.293,-0.7071 C 769.52,88.1054 769.265,88 769,88 h -10 c -0.265,0 -0.52,0.1054 -0.707,0.2929 C 758.105,88.4804 758,88.7348 758,89 v 6 m -1,11 v -4"
         stroke="#000000"
         stroke-width="2"
         stroke-linecap="round"
         stroke-linejoin="round"
         id="path57" />
      <path
         d="m 762,92 v 0.01"
         stroke="#000000"
         stroke-width="2"
         stroke-linecap="round"
         stroke-linejoin="round"
         id="path58" />
      <path
         d="m 766,92 v 0.01"
         stroke="#000000"
         stroke-width="2"
         stroke-linecap="round"
         stroke-linejoin="round"
         id="path59" />
      <path
         d="m 766,96 v 0.01"
         stroke="#000000"
         stroke-width="2"
         stroke-linecap="round"
         stroke-linejoin="round"
         id="path60" />
      <path
         d="m 766,100 v 0.01"
         stroke="#000000"
         stroke-width="2"
         stroke-linecap="round"
         stroke-linejoin="round"
         id="path61" />
    </g>
    <rect
       x="735"
       y="139"
       width="210"
       height="14"
       rx="7"
       fill="#ffbe67"
       id="rect61"
       clip-path="url(#clipPath72)"
       transform="translate(-44)" />
    <rect
       x="735"
       y="163"
       width="171"
       height="14"
       rx="7"
       fill="#ffbe67"
       id="rect62"
       clip-path="url(#clipPath71)"
       transform="translate(-44)" />
    <path
       d="M 813.71,102.185 V 114 h -1.938 v -5.168 h -5.559 V 114 h -1.938 v -11.815 h 1.938 v 5.066 h 5.559 v -5.066 z m 6.614,11.968 c -0.884,0 -1.683,-0.198 -2.397,-0.595 -0.714,-0.408 -1.275,-0.975 -1.683,-1.7 -0.408,-0.737 -0.612,-1.587 -0.612,-2.55 0,-0.952 0.21,-1.796 0.629,-2.533 0.42,-0.737 0.992,-1.303 1.717,-1.7 0.726,-0.397 1.536,-0.595 2.431,-0.595 0.896,0 1.706,0.198 2.431,0.595 0.726,0.397 1.298,0.963 1.717,1.7 0.42,0.737 0.629,1.581 0.629,2.533 0,0.952 -0.215,1.796 -0.646,2.533 -0.43,0.737 -1.02,1.309 -1.768,1.717 -0.736,0.397 -1.552,0.595 -2.448,0.595 z m 0,-1.683 c 0.499,0 0.964,-0.119 1.394,-0.357 0.442,-0.238 0.799,-0.595 1.071,-1.071 0.272,-0.476 0.408,-1.054 0.408,-1.734 0,-0.68 -0.13,-1.252 -0.391,-1.717 -0.26,-0.476 -0.606,-0.833 -1.037,-1.071 -0.43,-0.238 -0.895,-0.357 -1.394,-0.357 -0.498,0 -0.963,0.119 -1.394,0.357 -0.419,0.238 -0.753,0.595 -1.003,1.071 -0.249,0.465 -0.374,1.037 -0.374,1.717 0,1.009 0.255,1.791 0.765,2.346 0.522,0.544 1.173,0.816 1.955,0.816 z m 18.117,-7.99 c 0.737,0 1.394,0.153 1.972,0.459 0.589,0.306 1.048,0.759 1.377,1.36 0.34,0.601 0.51,1.326 0.51,2.176 V 114 h -1.921 v -5.236 c 0,-0.839 -0.21,-1.479 -0.629,-1.921 -0.419,-0.453 -0.992,-0.68 -1.717,-0.68 -0.725,0 -1.303,0.227 -1.734,0.68 -0.419,0.442 -0.629,1.082 -0.629,1.921 V 114 h -1.921 v -5.236 c 0,-0.839 -0.21,-1.479 -0.629,-1.921 -0.419,-0.453 -0.992,-0.68 -1.717,-0.68 -0.725,0 -1.303,0.227 -1.734,0.68 -0.419,0.442 -0.629,1.082 -0.629,1.921 V 114 h -1.938 v -9.367 h 1.938 v 1.071 c 0.317,-0.385 0.72,-0.686 1.207,-0.901 0.487,-0.215 1.009,-0.323 1.564,-0.323 0.748,0 1.417,0.159 2.006,0.476 0.589,0.317 1.043,0.776 1.36,1.377 0.283,-0.567 0.725,-1.014 1.326,-1.343 0.601,-0.34 1.247,-0.51 1.938,-0.51 z m 14.91,4.607 c 0,0.351 -0.022,0.669 -0.068,0.952 h -7.157 c 0.057,0.748 0.335,1.349 0.833,1.802 0.499,0.453 1.111,0.68 1.836,0.68 1.043,0 1.78,-0.436 2.21,-1.309 h 2.091 c -0.283,0.861 -0.799,1.57 -1.547,2.125 -0.736,0.544 -1.654,0.816 -2.754,0.816 -0.895,0 -1.7,-0.198 -2.414,-0.595 -0.702,-0.408 -1.258,-0.975 -1.666,-1.7 -0.396,-0.737 -0.595,-1.587 -0.595,-2.55 0,-0.963 0.193,-1.808 0.578,-2.533 0.397,-0.737 0.947,-1.303 1.649,-1.7 0.714,-0.397 1.53,-0.595 2.448,-0.595 0.884,0 1.672,0.193 2.363,0.578 0.692,0.385 1.23,0.929 1.615,1.632 0.386,0.691 0.578,1.49 0.578,2.397 z m -2.023,-0.612 c -0.011,-0.714 -0.266,-1.286 -0.765,-1.717 -0.498,-0.431 -1.116,-0.646 -1.853,-0.646 -0.668,0 -1.241,0.215 -1.717,0.646 -0.476,0.419 -0.759,0.992 -0.85,1.717 z m 15.469,3.111 H 861.85 L 861,114 h -2.023 l 4.233,-11.832 h 2.244 L 869.687,114 h -2.04 z m -0.544,-1.581 -1.921,-5.491 -1.938,5.491 z m 4.629,-0.731 c 0,-0.941 0.193,-1.774 0.578,-2.499 0.397,-0.725 0.929,-1.286 1.598,-1.683 0.68,-0.408 1.434,-0.612 2.261,-0.612 0.612,0 1.213,0.136 1.802,0.408 0.601,0.261 1.077,0.612 1.428,1.054 v -4.522 h 1.955 V 114 h -1.955 v -1.411 c -0.317,0.453 -0.759,0.827 -1.326,1.122 -0.555,0.295 -1.196,0.442 -1.921,0.442 -0.816,0 -1.564,-0.204 -2.244,-0.612 -0.669,-0.419 -1.201,-0.997 -1.598,-1.734 -0.385,-0.748 -0.578,-1.592 -0.578,-2.533 z m 7.667,0.034 c 0,-0.646 -0.136,-1.207 -0.408,-1.683 -0.261,-0.476 -0.606,-0.839 -1.037,-1.088 -0.431,-0.249 -0.895,-0.374 -1.394,-0.374 -0.499,0 -0.963,0.125 -1.394,0.374 -0.431,0.238 -0.782,0.595 -1.054,1.071 -0.261,0.465 -0.391,1.02 -0.391,1.666 0,0.646 0.13,1.213 0.391,1.7 0.272,0.487 0.623,0.861 1.054,1.122 0.442,0.249 0.907,0.374 1.394,0.374 0.499,0 0.963,-0.125 1.394,-0.374 0.431,-0.249 0.776,-0.612 1.037,-1.088 0.272,-0.487 0.408,-1.054 0.408,-1.7 z m 3.854,-0.034 c 0,-0.941 0.193,-1.774 0.578,-2.499 0.397,-0.725 0.93,-1.286 1.598,-1.683 0.68,-0.408 1.434,-0.612 2.261,-0.612 0.612,0 1.213,0.136 1.802,0.408 0.601,0.261 1.077,0.612 1.428,1.054 v -4.522 h 1.955 V 114 h -1.955 v -1.411 c -0.317,0.453 -0.759,0.827 -1.326,1.122 -0.555,0.295 -1.195,0.442 -1.921,0.442 -0.816,0 -1.564,-0.204 -2.244,-0.612 -0.668,-0.419 -1.201,-0.997 -1.598,-1.734 -0.385,-0.748 -0.578,-1.592 -0.578,-2.533 z m 7.667,0.034 c 0,-0.646 -0.136,-1.207 -0.408,-1.683 -0.26,-0.476 -0.606,-0.839 -1.037,-1.088 -0.43,-0.249 -0.895,-0.374 -1.394,-0.374 -0.498,0 -0.963,0.125 -1.394,0.374 -0.43,0.238 -0.782,0.595 -1.054,1.071 -0.26,0.465 -0.391,1.02 -0.391,1.666 0,0.646 0.131,1.213 0.391,1.7 0.272,0.487 0.624,0.861 1.054,1.122 0.442,0.249 0.907,0.374 1.394,0.374 0.499,0 0.964,-0.125 1.394,-0.374 0.431,-0.249 0.777,-0.612 1.037,-1.088 0.272,-0.487 0.408,-1.054 0.408,-1.7 z m 6.439,-3.315 c 0.283,-0.476 0.657,-0.844 1.122,-1.105 0.476,-0.272 1.037,-0.408 1.683,-0.408 v 2.006 h -0.493 c -0.759,0 -1.337,0.193 -1.734,0.578 -0.385,0.385 -0.578,1.054 -0.578,2.006 V 114 h -1.938 v -9.367 h 1.938 z m 13.171,3.094 c 0,0.351 -0.022,0.669 -0.068,0.952 h -7.157 c 0.057,0.748 0.335,1.349 0.833,1.802 0.499,0.453 1.111,0.68 1.836,0.68 1.043,0 1.78,-0.436 2.21,-1.309 h 2.091 c -0.283,0.861 -0.799,1.57 -1.547,2.125 -0.736,0.544 -1.654,0.816 -2.754,0.816 -0.895,0 -1.7,-0.198 -2.414,-0.595 -0.702,-0.408 -1.258,-0.975 -1.666,-1.7 -0.396,-0.737 -0.595,-1.587 -0.595,-2.55 0,-0.963 0.193,-1.808 0.578,-2.533 0.397,-0.737 0.947,-1.303 1.649,-1.7 0.714,-0.397 1.53,-0.595 2.448,-0.595 0.884,0 1.672,0.193 2.363,0.578 0.692,0.385 1.23,0.929 1.615,1.632 0.386,0.691 0.578,1.49 0.578,2.397 z m -2.023,-0.612 c -0.011,-0.714 -0.266,-1.286 -0.765,-1.717 -0.498,-0.431 -1.116,-0.646 -1.853,-0.646 -0.668,0 -1.241,0.215 -1.717,0.646 -0.476,0.419 -0.759,0.992 -0.85,1.717 z m 7.331,5.678 c -0.737,0 -1.4,-0.13 -1.989,-0.391 -0.578,-0.272 -1.037,-0.635 -1.377,-1.088 -0.34,-0.465 -0.522,-0.98 -0.544,-1.547 h 2.006 c 0.034,0.397 0.221,0.731 0.561,1.003 0.351,0.261 0.787,0.391 1.309,0.391 0.544,0 0.963,-0.102 1.258,-0.306 0.306,-0.215 0.459,-0.487 0.459,-0.816 0,-0.351 -0.17,-0.612 -0.51,-0.782 -0.329,-0.17 -0.856,-0.357 -1.581,-0.561 -0.703,-0.193 -1.275,-0.38 -1.717,-0.561 -0.442,-0.181 -0.828,-0.459 -1.156,-0.833 -0.318,-0.374 -0.476,-0.867 -0.476,-1.479 0,-0.499 0.147,-0.952 0.442,-1.36 0.294,-0.419 0.714,-0.748 1.258,-0.986 0.555,-0.238 1.19,-0.357 1.904,-0.357 1.065,0 1.921,0.272 2.567,0.816 0.657,0.533 1.008,1.264 1.054,2.193 h -1.938 c -0.034,-0.419 -0.204,-0.754 -0.51,-1.003 -0.306,-0.249 -0.72,-0.374 -1.241,-0.374 -0.51,0 -0.901,0.096 -1.173,0.289 -0.272,0.193 -0.408,0.448 -0.408,0.765 0,0.249 0.09,0.459 0.272,0.629 0.181,0.17 0.402,0.306 0.663,0.408 0.26,0.091 0.646,0.21 1.156,0.357 0.68,0.181 1.235,0.368 1.666,0.561 0.442,0.181 0.821,0.453 1.139,0.816 0.317,0.363 0.481,0.844 0.493,1.445 0,0.533 -0.148,1.009 -0.442,1.428 -0.295,0.419 -0.714,0.748 -1.258,0.986 -0.533,0.238 -1.162,0.357 -1.887,0.357 z m 9.081,0 c -0.737,0 -1.4,-0.13 -1.989,-0.391 -0.578,-0.272 -1.037,-0.635 -1.377,-1.088 -0.34,-0.465 -0.522,-0.98 -0.544,-1.547 h 2.006 c 0.034,0.397 0.221,0.731 0.561,1.003 0.351,0.261 0.787,0.391 1.309,0.391 0.544,0 0.963,-0.102 1.258,-0.306 0.306,-0.215 0.459,-0.487 0.459,-0.816 0,-0.351 -0.17,-0.612 -0.51,-0.782 -0.329,-0.17 -0.856,-0.357 -1.581,-0.561 -0.703,-0.193 -1.275,-0.38 -1.717,-0.561 -0.442,-0.181 -0.828,-0.459 -1.156,-0.833 -0.318,-0.374 -0.476,-0.867 -0.476,-1.479 0,-0.499 0.147,-0.952 0.442,-1.36 0.294,-0.419 0.714,-0.748 1.258,-0.986 0.555,-0.238 1.19,-0.357 1.904,-0.357 1.065,0 1.921,0.272 2.567,0.816 0.657,0.533 1.008,1.264 1.054,2.193 h -1.938 c -0.034,-0.419 -0.204,-0.754 -0.51,-1.003 -0.306,-0.249 -0.72,-0.374 -1.241,-0.374 -0.51,0 -0.901,0.096 -1.173,0.289 -0.272,0.193 -0.408,0.448 -0.408,0.765 0,0.249 0.09,0.459 0.272,0.629 0.181,0.17 0.402,0.306 0.663,0.408 0.26,0.091 0.646,0.21 1.156,0.357 0.68,0.181 1.235,0.368 1.666,0.561 0.442,0.181 0.821,0.453 1.139,0.816 0.317,0.363 0.481,0.844 0.493,1.445 0,0.533 -0.148,1.009 -0.442,1.428 -0.295,0.419 -0.714,0.748 -1.258,0.986 -0.533,0.238 -1.162,0.357 -1.887,0.357 z"
       fill="#000000"
       id="path62"
       clip-path="url(#clipPath70)"
       transform="translate(-44)" />
    <rect
       x="803"
       y="80"
       width="60"
       height="10"
       rx="5"
       fill="#ffbe67"
       id="rect63"
       clip-path="url(#clipPath69)"
       transform="translate(-44)" />
  </g>
  <defs
     id="defs69">
    <clipPath
       id="clip1_670_9084">
      <rect
         width="24"
         height="24"
         fill="#ffffff"
         transform="translate(366,263)"
         id="rect65"
         x="0"
         y="0" />
    </clipPath>
    <clipPath
       id="clip2_670_9084">
      <rect
         x="445"
         y="106"
         width="334"
         height="458"
         rx="20"
         fill="#ffffff"
         id="rect66" />
    </clipPath>
    <clipPath
       id="clip3_670_9084">
      <path
         d="m 457,216 h 310 v 160 c 0,5.523 -4.477,10 -10,10 H 467 c -5.523,0 -10,-4.477 -10,-10 z"
         fill="#ffffff"
         id="path66" />
    </clipPath>
    <clipPath
       id="clip4_670_9084">
      <rect
         x="457"
         y="395"
         width="310"
         height="157"
         rx="10"
         fill="#ffffff"
         id="rect67" />
    </clipPath>
    <clipPath
       id="clip5_670_9084">
      <rect
         width="24"
         height="24"
         fill="#ffffff"
         transform="translate(789,464)"
         id="rect68"
         x="0"
         y="0" />
    </clipPath>
    <clipPath
       id="clip6_670_9084">
      <rect
         width="24"
         height="24"
         fill="#ffffff"
         transform="translate(749,85)"
         id="rect69"
         x="0"
         y="0" />
    </clipPath>
    <clipPath
       clipPathUnits="userSpaceOnUse"
       id="clipPath69">
      <rect
         width="1240"
         height="660"
         rx="20"
         fill="#ffffff"
         id="rect70"
         x="0"
         y="0" />
    </clipPath>
    <clipPath
       clipPathUnits="userSpaceOnUse"
       id="clipPath70">
      <rect
         width="1240"
         height="660"
         rx="20"
         fill="#ffffff"
         id="rect71"
         x="0"
         y="0" />
    </clipPath>
    <clipPath
       clipPathUnits="userSpaceOnUse"
       id="clipPath71">
      <rect
         width="1240"
         height="660"
         rx="20"
         fill="#ffffff"
         id="rect72"
         x="0"
         y="0" />
    </clipPath>
    <clipPath
       clipPathUnits="userSpaceOnUse"
       id="clipPath72">
      <rect
         width="1240"
         height="660"
         rx="20"
         fill="#ffffff"
         id="rect73"
         x="0"
         y="0" />
    </clipPath>
    <clipPath
       clipPathUnits="userSpaceOnUse"
       id="clipPath73">
      <rect
         width="1240"
         height="660"
         rx="20"
         fill="#ffffff"
         id="rect74"
         x="0"
         y="0" />
    </clipPath>
    <clipPath
       clipPathUnits="userSpaceOnUse"
       id="clipPath74">
      <rect
         width="1240"
         height="660"
         rx="20"
         fill="#ffffff"
         id="rect75"
         x="0"
         y="0" />
    </clipPath>
    <clipPath
       clipPathUnits="userSpaceOnUse"
       id="clipPath75">
      <rect
         width="1240"
         height="660"
         rx="20"
         fill="#ffffff"
         id="rect76"
         x="0"
         y="0" />
    </clipPath>
    <clipPath
       clipPathUnits="userSpaceOnUse"
       id="clipPath76">
      <rect
         width="1240"
         height="660"
         rx="20"
         fill="#ffffff"
         id="rect77"
         x="0"
         y="0" />
    </clipPath>
    <clipPath
       clipPathUnits="userSpaceOnUse"
       id="clipPath77">
      <rect
         width="1240"
         height="660"
         rx="20"
         fill="#ffffff"
         id="rect78"
         x="0"
         y="0" />
    </clipPath>
    <clipPath
       clipPathUnits="userSpaceOnUse"
       id="clipPath78">
      <rect
         width="1240"
         height="660"
         rx="20"
         fill="#ffffff"
         id="rect79"
         x="0"
         y="0" />
    </clipPath>
    <clipPath
       clipPathUnits="userSpaceOnUse"
       id="clipPath79">
      <rect
         width="1240"
         height="660"
         rx="20"
         fill="#ffffff"
         id="rect80"
         x="0"
         y="0" />
    </clipPath>
    <clipPath
       clipPathUnits="userSpaceOnUse"
       id="clipPath80">
      <rect
         width="1240"
         height="660"
         rx="20"
         fill="#ffffff"
         id="rect81"
         x="0"
         y="0" />
    </clipPath>
    <clipPath
       clipPathUnits="userSpaceOnUse"
       id="clipPath81">
      <rect
         width="1240"
         height="660"
         rx="20"
         fill="#ffffff"
         id="rect82"
         x="0"
         y="0" />
    </clipPath>
    <clipPath
       clipPathUnits="userSpaceOnUse"
       id="clipPath82">
      <rect
         width="1240"
         height="660"
         rx="20"
         fill="#ffffff"
         id="rect83"
         x="0"
         y="0" />
    </clipPath>
    <clipPath
       clipPathUnits="userSpaceOnUse"
       id="clipPath83">
      <rect
         width="1240"
         height="660"
         rx="20"
         fill="#ffffff"
         id="rect84"
         x="0"
         y="0" />
    </clipPath>
    <clipPath
       clipPathUnits="userSpaceOnUse"
       id="clipPath84">
      <rect
         width="1240"
         height="660"
         rx="20"
         fill="#ffffff"
         id="rect85"
         x="0"
         y="0" />
    </clipPath>
    <clipPath
       clipPathUnits="userSpaceOnUse"
       id="clipPath85">
      <rect
         width="1240"
         height="660"
         rx="20"
         fill="#ffffff"
         id="rect86"
         x="0"
         y="0" />
    </clipPath>
    <clipPath
       clipPathUnits="userSpaceOnUse"
       id="clipPath86">
      <rect
         width="1240"
         height="660"
         rx="20"
         fill="#ffffff"
         id="rect87"
         x="0"
         y="0" />
    </clipPath>
    <clipPath
       clipPathUnits="userSpaceOnUse"
       id="clipPath87">
      <rect
         width="1240"
         height="660"
         rx="20"
         fill="#ffffff"
         id="rect88"
         x="0"
         y="0" />
    </clipPath>
    <clipPath
       clipPathUnits="userSpaceOnUse"
       id="clipPath88">
      <rect
         width="1240"
         height="660"
         rx="20"
         fill="#ffffff"
         id="rect89"
         x="0"
         y="0" />
    </clipPath>
    <clipPath
       clipPathUnits="userSpaceOnUse"
       id="clipPath89">
      <rect
         width="1240"
         height="660"
         rx="20"
         fill="#ffffff"
         id="rect90"
         x="0"
         y="0" />
    </clipPath>
    <clipPath
       clipPathUnits="userSpaceOnUse"
       id="clipPath90">
      <rect
         width="1240"
         height="660"
         rx="20"
         fill="#ffffff"
         id="rect91"
         x="0"
         y="0" />
    </clipPath>
    <clipPath
       clipPathUnits="userSpaceOnUse"
       id="clipPath91">
      <rect
         width="1240"
         height="660"
         rx="20"
         fill="#ffffff"
         id="rect92"
         x="0"
         y="0" />
    </clipPath>
    <clipPath
       clipPathUnits="userSpaceOnUse"
       id="clipPath92">
      <rect
         width="1240"
         height="660"
         rx="20"
         fill="#ffffff"
         id="rect93"
         x="0"
         y="0" />
    </clipPath>
    <clipPath
       clipPathUnits="userSpaceOnUse"
       id="clipPath93">
      <rect
         width="1240"
         height="660"
         rx="20"
         fill="#ffffff"
         id="rect94"
         x="0"
         y="0" />
    </clipPath>
    <clipPath
       clipPathUnits="userSpaceOnUse"
       id="clipPath94">
      <rect
         width="1240"
         height="660"
         rx="20"
         fill="#ffffff"
         id="rect95"
         x="0"
         y="0" />
    </clipPath>
    <clipPath
       clipPathUnits="userSpaceOnUse"
       id="clipPath95">
      <rect
         width="1240"
         height="660"
         rx="20"
         fill="#ffffff"
         id="rect96"
         x="0"
         y="0" />
    </clipPath>
    <clipPath
       clipPathUnits="userSpaceOnUse"
       id="clipPath96">
      <rect
         width="1240"
         height="660"
         rx="20"
         fill="#ffffff"
         id="rect97"
         x="0"
         y="0" />
    </clipPath>
    <clipPath
       clipPathUnits="userSpaceOnUse"
       id="clipPath97">
      <rect
         width="1240"
         height="660"
         rx="20"
         fill="#ffffff"
         id="rect98"
         x="0"
         y="0" />
    </clipPath>
    <clipPath
       clipPathUnits="userSpaceOnUse"
       id="clipPath98">
      <rect
         width="1240"
         height="660"
         rx="20"
         fill="#ffffff"
         id="rect99"
         x="0"
         y="0" />
    </clipPath>
    <clipPath
       clipPathUnits="userSpaceOnUse"
       id="clipPath99">
      <rect
         width="1240"
         height="660"
         rx="20"
         fill="#ffffff"
         id="rect100"
         x="0"
         y="0" />
    </clipPath>
  </defs>
</svg>
