<?xml version="1.0" encoding="UTF-8" standalone="no"?>
<svg
   width="850"
   height="850"
   viewBox="0 0 850 850"
   fill="none"
   version="1.1"
   id="svg80"
   sodipodi:docname="hero-custom-apps-and-portals-square.svg"
   inkscape:version="1.4 (86a8ad7, 2024-10-11)"
   xmlns:inkscape="http://www.inkscape.org/namespaces/inkscape"
   xmlns:sodipodi="http://sodipodi.sourceforge.net/DTD/sodipodi-0.dtd"
   xmlns="http://www.w3.org/2000/svg"
   xmlns:svg="http://www.w3.org/2000/svg">
  <sodipodi:namedview
     id="namedview80"
     pagecolor="#ffffff"
     bordercolor="#000000"
     borderopacity="0.25"
     inkscape:showpageshadow="2"
     inkscape:pageopacity="0.0"
     inkscape:pagecheckerboard="0"
     inkscape:deskcolor="#d1d1d1"
     inkscape:zoom="1.375"
     inkscape:cx="671.63636"
     inkscape:cy="450.54545"
     inkscape:window-width="3840"
     inkscape:window-height="2054"
     inkscape:window-x="-11"
     inkscape:window-y="-11"
     inkscape:window-maximized="1"
     inkscape:current-layer="svg80" />
  <rect
     width="850"
     height="850"
     rx="35"
     fill="#d9ddff"
     id="rect1"
     x="0"
     y="0"
     style="stroke-width:0.939586"
     ry="35" />
  <rect
     x="69.5"
     y="186.5"
     width="697"
     height="497"
     rx="38.5"
     fill="#9ea9fd"
     id="rect2" />
  <rect
     x="69.5"
     y="186.5"
     width="697"
     height="497"
     rx="38.5"
     stroke="#afb8ff"
     stroke-width="3"
     id="rect3" />
  <rect
     x="98"
     y="215"
     width="640"
     height="440"
     rx="12"
     fill="#fffae8"
     id="rect4" />
  <rect
     width="640"
     height="30"
     fill="#ffe999"
     id="rect5"
     x="98"
     y="215" />
  <rect
     x="118"
     y="226"
     width="40"
     height="8"
     rx="4"
     fill="#ffbe67"
     id="rect6" />
  <rect
     x="178"
     y="226"
     width="50"
     height="8"
     rx="4"
     fill="#ffffff"
     id="rect7" />
  <rect
     x="248"
     y="226"
     width="36"
     height="8"
     rx="4"
     fill="#ffbe67"
     id="rect8" />
  <rect
     x="304"
     y="226"
     width="44"
     height="8"
     rx="4"
     fill="#ffbe67"
     id="rect9" />
  <rect
     x="368"
     y="226"
     width="54"
     height="8"
     rx="4"
     fill="#ffbe67"
     id="rect10" />
  <rect
     x="442"
     y="226"
     width="36"
     height="8"
     rx="4"
     fill="#ffbe67"
     id="rect11" />
  <rect
     x="650"
     y="226"
     width="36"
     height="8"
     rx="4"
     fill="#fffae8"
     id="rect12" />
  <rect
     x="698"
     y="220"
     width="20"
     height="20"
     rx="10"
     fill="#fffae8"
     id="rect13" />
  <g
     clip-path="url(#clip0_670_8746)"
     id="g14"
     transform="translate(-194,96)">
    <path
       d="m 902.005,129.834 c 0.412,0 0.815,0.122 1.158,0.351 0.342,0.229 0.609,0.554 0.767,0.935 0.158,0.381 0.199,0.8 0.119,1.204 -0.081,0.404 -0.279,0.775 -0.571,1.066 -0.291,0.292 -0.662,0.49 -1.066,0.571 -0.404,0.08 -0.823,0.039 -1.204,-0.119 -0.381,-0.158 -0.706,-0.425 -0.935,-0.767 -0.229,-0.343 -0.351,-0.746 -0.351,-1.158 l 0.002,-0.09 c 0.023,-0.536 0.253,-1.043 0.64,-1.414 0.388,-0.372 0.904,-0.579 1.441,-0.579 z"
       fill="#721f6f"
       id="path13" />
    <path
       d="m 902.828,134.834 c 0.553,0 1.083,0.219 1.473,0.61 0.391,0.391 0.61,0.921 0.61,1.473 v 0.417 c 0,0.221 -0.087,0.433 -0.244,0.589 -0.156,0.157 -0.368,0.244 -0.589,0.244 h -4.167 c -0.221,0 -0.433,-0.087 -0.589,-0.244 -0.156,-0.156 -0.244,-0.368 -0.244,-0.589 v -0.417 c 0,-0.552 0.22,-1.082 0.61,-1.473 0.391,-0.391 0.921,-0.61 1.473,-0.61 z"
       fill="#721f6f"
       id="path14" />
  </g>
  <rect
     x="525"
     y="265"
     width="193"
     height="175"
     rx="10"
     fill="#ffffff"
     id="rect14" />
  <rect
     x="118"
     y="265"
     width="387"
     height="370"
     rx="10"
     fill="#ffffff"
     id="rect15" />
  <rect
     x="525"
     y="459"
     width="193"
     height="175"
     rx="10"
     fill="#ffffff"
     id="rect16" />
  <path
     d="m 569.74,476.05 -2.61,6.95 h -1.32 l -2.62,-6.95 h 1.22 l 2.06,5.78 2.07,-5.78 z m 1.333,0.71 c -0.206,0 -0.38,-0.07 -0.52,-0.21 -0.14,-0.14 -0.21,-0.313 -0.21,-0.52 0,-0.207 0.07,-0.38 0.21,-0.52 0.14,-0.14 0.314,-0.21 0.52,-0.21 0.2,0 0.37,0.07 0.51,0.21 0.14,0.14 0.21,0.313 0.21,0.52 0,0.207 -0.07,0.38 -0.21,0.52 -0.14,0.14 -0.31,0.21 -0.51,0.21 z m 0.56,0.73 V 483 h -1.14 v -5.51 z m 3.297,5.6 c -0.433,0 -0.823,-0.077 -1.17,-0.23 -0.34,-0.16 -0.61,-0.373 -0.81,-0.64 -0.2,-0.273 -0.307,-0.577 -0.32,-0.91 h 1.18 c 0.02,0.233 0.13,0.43 0.33,0.59 0.207,0.153 0.463,0.23 0.77,0.23 0.32,0 0.567,-0.06 0.74,-0.18 0.18,-0.127 0.27,-0.287 0.27,-0.48 0,-0.207 -0.1,-0.36 -0.3,-0.46 -0.193,-0.1 -0.503,-0.21 -0.93,-0.33 -0.413,-0.113 -0.75,-0.223 -1.01,-0.33 -0.26,-0.107 -0.487,-0.27 -0.68,-0.49 -0.187,-0.22 -0.28,-0.51 -0.28,-0.87 0,-0.293 0.087,-0.56 0.26,-0.8 0.173,-0.247 0.42,-0.44 0.74,-0.58 0.327,-0.14 0.7,-0.21 1.12,-0.21 0.627,0 1.13,0.16 1.51,0.48 0.387,0.313 0.593,0.743 0.62,1.29 h -1.14 c -0.02,-0.247 -0.12,-0.443 -0.3,-0.59 -0.18,-0.147 -0.423,-0.22 -0.73,-0.22 -0.3,0 -0.53,0.057 -0.69,0.17 -0.16,0.113 -0.24,0.263 -0.24,0.45 0,0.147 0.053,0.27 0.16,0.37 0.107,0.1 0.237,0.18 0.39,0.24 0.153,0.053 0.38,0.123 0.68,0.21 0.4,0.107 0.727,0.217 0.98,0.33 0.26,0.107 0.483,0.267 0.67,0.48 0.187,0.213 0.283,0.497 0.29,0.85 0,0.313 -0.087,0.593 -0.26,0.84 -0.173,0.247 -0.42,0.44 -0.74,0.58 -0.313,0.14 -0.683,0.21 -1.11,0.21 z m 3.722,-6.33 c -0.207,0 -0.38,-0.07 -0.52,-0.21 -0.14,-0.14 -0.21,-0.313 -0.21,-0.52 0,-0.207 0.07,-0.38 0.21,-0.52 0.14,-0.14 0.313,-0.21 0.52,-0.21 0.2,0 0.37,0.07 0.51,0.21 0.14,0.14 0.21,0.313 0.21,0.52 0,0.207 -0.07,0.38 -0.21,0.52 -0.14,0.14 -0.31,0.21 -0.51,0.21 z m 0.56,0.73 V 483 h -1.14 v -5.51 z m 2.627,0.93 v 3.05 c 0,0.207 0.046,0.357 0.14,0.45 0.1,0.087 0.266,0.13 0.5,0.13 h 0.7 V 483 h -0.9 c -0.514,0 -0.907,-0.12 -1.18,-0.36 -0.274,-0.24 -0.41,-0.63 -0.41,-1.17 v -3.05 h -0.65 v -0.93 h 0.65 v -1.37 h 1.15 v 1.37 h 1.34 v 0.93 z m 4.19,4.67 c -0.433,0 -0.823,-0.077 -1.17,-0.23 -0.34,-0.16 -0.61,-0.373 -0.81,-0.64 -0.2,-0.273 -0.306,-0.577 -0.32,-0.91 h 1.18 c 0.02,0.233 0.13,0.43 0.33,0.59 0.207,0.153 0.464,0.23 0.77,0.23 0.32,0 0.567,-0.06 0.74,-0.18 0.18,-0.127 0.27,-0.287 0.27,-0.48 0,-0.207 -0.1,-0.36 -0.3,-0.46 -0.193,-0.1 -0.503,-0.21 -0.93,-0.33 -0.413,-0.113 -0.75,-0.223 -1.01,-0.33 -0.26,-0.107 -0.486,-0.27 -0.68,-0.49 -0.186,-0.22 -0.28,-0.51 -0.28,-0.87 0,-0.293 0.087,-0.56 0.26,-0.8 0.174,-0.247 0.42,-0.44 0.74,-0.58 0.327,-0.14 0.7,-0.21 1.12,-0.21 0.627,0 1.13,0.16 1.51,0.48 0.387,0.313 0.594,0.743 0.62,1.29 h -1.14 c -0.02,-0.247 -0.12,-0.443 -0.3,-0.59 -0.18,-0.147 -0.423,-0.22 -0.73,-0.22 -0.3,0 -0.53,0.057 -0.69,0.17 -0.16,0.113 -0.24,0.263 -0.24,0.45 0,0.147 0.054,0.27 0.16,0.37 0.107,0.1 0.237,0.18 0.39,0.24 0.154,0.053 0.38,0.123 0.68,0.21 0.4,0.107 0.727,0.217 0.98,0.33 0.26,0.107 0.484,0.267 0.67,0.48 0.187,0.213 0.284,0.497 0.29,0.85 0,0.313 -0.086,0.593 -0.26,0.84 -0.173,0.247 -0.42,0.44 -0.74,0.58 -0.313,0.14 -0.683,0.21 -1.11,0.21 z m 6.68,-4.8 c 0.166,-0.28 0.386,-0.497 0.66,-0.65 0.28,-0.16 0.61,-0.24 0.99,-0.24 v 1.18 h -0.29 c -0.447,0 -0.787,0.113 -1.02,0.34 -0.227,0.227 -0.34,0.62 -0.34,1.18 v 2.9 h -1.14 v -5.51 h 1.14 z m 7.548,1.82 c 0,0.207 -0.014,0.393 -0.04,0.56 h -4.21 c 0.033,0.44 0.196,0.793 0.49,1.06 0.293,0.267 0.653,0.4 1.08,0.4 0.613,0 1.046,-0.257 1.3,-0.77 h 1.23 c -0.167,0.507 -0.47,0.923 -0.91,1.25 -0.434,0.32 -0.974,0.48 -1.62,0.48 -0.527,0 -1,-0.117 -1.42,-0.35 -0.414,-0.24 -0.74,-0.573 -0.98,-1 -0.234,-0.433 -0.35,-0.933 -0.35,-1.5 0,-0.567 0.113,-1.063 0.34,-1.49 0.233,-0.433 0.556,-0.767 0.97,-1 0.42,-0.233 0.9,-0.35 1.44,-0.35 0.52,0 0.983,0.113 1.39,0.34 0.406,0.227 0.723,0.547 0.95,0.96 0.226,0.407 0.34,0.877 0.34,1.41 z m -1.19,-0.36 c -0.007,-0.42 -0.157,-0.757 -0.45,-1.01 -0.294,-0.253 -0.657,-0.38 -1.09,-0.38 -0.394,0 -0.73,0.127 -1.01,0.38 -0.28,0.247 -0.447,0.583 -0.5,1.01 z m 3.252,-1.45 c 0.193,-0.253 0.456,-0.467 0.79,-0.64 0.333,-0.173 0.71,-0.26 1.13,-0.26 0.48,0 0.916,0.12 1.31,0.36 0.4,0.233 0.713,0.563 0.94,0.99 0.226,0.427 0.34,0.917 0.34,1.47 0,0.553 -0.114,1.05 -0.34,1.49 -0.227,0.433 -0.54,0.773 -0.94,1.02 -0.394,0.24 -0.83,0.36 -1.31,0.36 -0.42,0 -0.794,-0.083 -1.12,-0.25 -0.327,-0.173 -0.594,-0.387 -0.8,-0.64 v 3.42 h -1.14 v -8.13 h 1.14 z m 3.35,1.92 c 0,-0.38 -0.08,-0.707 -0.24,-0.98 -0.154,-0.28 -0.36,-0.49 -0.62,-0.63 -0.254,-0.147 -0.527,-0.22 -0.82,-0.22 -0.287,0 -0.56,0.073 -0.82,0.22 -0.254,0.147 -0.46,0.36 -0.62,0.64 -0.154,0.28 -0.23,0.61 -0.23,0.99 0,0.38 0.076,0.713 0.23,1 0.16,0.28 0.366,0.493 0.62,0.64 0.26,0.147 0.533,0.22 0.82,0.22 0.293,0 0.566,-0.073 0.82,-0.22 0.26,-0.153 0.466,-0.373 0.62,-0.66 0.16,-0.287 0.24,-0.62 0.24,-1 z m 1.707,0 c 0,-0.553 0.113,-1.043 0.34,-1.47 0.233,-0.427 0.547,-0.757 0.94,-0.99 0.4,-0.24 0.84,-0.36 1.32,-0.36 0.433,0 0.81,0.087 1.13,0.26 0.327,0.167 0.587,0.377 0.78,0.63 v -0.8 h 1.15 V 483 h -1.15 v -0.82 c -0.193,0.26 -0.457,0.477 -0.79,0.65 -0.333,0.173 -0.713,0.26 -1.14,0.26 -0.473,0 -0.907,-0.12 -1.3,-0.36 -0.393,-0.247 -0.707,-0.587 -0.94,-1.02 -0.227,-0.44 -0.34,-0.937 -0.34,-1.49 z m 4.51,0.02 c 0,-0.38 -0.08,-0.71 -0.24,-0.99 -0.153,-0.28 -0.357,-0.493 -0.61,-0.64 -0.253,-0.147 -0.527,-0.22 -0.82,-0.22 -0.293,0 -0.567,0.073 -0.82,0.22 -0.253,0.14 -0.46,0.35 -0.62,0.63 -0.153,0.273 -0.23,0.6 -0.23,0.98 0,0.38 0.077,0.713 0.23,1 0.16,0.287 0.367,0.507 0.62,0.66 0.26,0.147 0.533,0.22 0.82,0.22 0.293,0 0.567,-0.073 0.82,-0.22 0.253,-0.147 0.457,-0.36 0.61,-0.64 0.16,-0.287 0.24,-0.62 0.24,-1 z m 3.587,-1.95 c 0.167,-0.28 0.387,-0.497 0.66,-0.65 0.28,-0.16 0.61,-0.24 0.99,-0.24 v 1.18 h -0.29 c -0.446,0 -0.786,0.113 -1.02,0.34 -0.226,0.227 -0.34,0.62 -0.34,1.18 v 2.9 h -1.14 v -5.51 h 1.14 z m 3.828,0.13 v 3.05 c 0,0.207 0.047,0.357 0.14,0.45 0.1,0.087 0.267,0.13 0.5,0.13 h 0.7 V 483 h -0.9 c -0.513,0 -0.907,-0.12 -1.18,-0.36 -0.273,-0.24 -0.41,-0.63 -0.41,-1.17 v -3.05 h -0.65 v -0.93 h 0.65 v -1.37 h 1.15 v 1.37 h 1.34 v 0.93 z m 2.771,-1.66 c -0.207,0 -0.38,-0.07 -0.52,-0.21 -0.14,-0.14 -0.21,-0.313 -0.21,-0.52 0,-0.207 0.07,-0.38 0.21,-0.52 0.14,-0.14 0.313,-0.21 0.52,-0.21 0.2,0 0.37,0.07 0.51,0.21 0.14,0.14 0.21,0.313 0.21,0.52 0,0.207 -0.07,0.38 -0.21,0.52 -0.14,0.14 -0.31,0.21 -0.51,0.21 z m 0.56,0.73 V 483 h -1.14 v -5.51 z m 2.627,0.93 v 3.05 c 0,0.207 0.046,0.357 0.14,0.45 0.1,0.087 0.266,0.13 0.5,0.13 h 0.7 V 483 h -0.9 c -0.514,0 -0.907,-0.12 -1.18,-0.36 -0.274,-0.24 -0.41,-0.63 -0.41,-1.17 v -3.05 h -0.65 v -0.93 h 0.65 v -1.37 h 1.15 v 1.37 h 1.34 v 0.93 z m 2.77,-1.66 c -0.206,0 -0.38,-0.07 -0.52,-0.21 -0.14,-0.14 -0.21,-0.313 -0.21,-0.52 0,-0.207 0.07,-0.38 0.21,-0.52 0.14,-0.14 0.314,-0.21 0.52,-0.21 0.2,0 0.37,0.07 0.51,0.21 0.14,0.14 0.21,0.313 0.21,0.52 0,0.207 -0.07,0.38 -0.21,0.52 -0.14,0.14 -0.31,0.21 -0.51,0.21 z m 0.56,0.73 V 483 h -1.14 v -5.51 z m 3.687,5.6 c -0.52,0 -0.99,-0.117 -1.41,-0.35 -0.42,-0.24 -0.75,-0.573 -0.99,-1 -0.24,-0.433 -0.36,-0.933 -0.36,-1.5 0,-0.56 0.123,-1.057 0.37,-1.49 0.247,-0.433 0.583,-0.767 1.01,-1 0.427,-0.233 0.903,-0.35 1.43,-0.35 0.527,0 1.003,0.117 1.43,0.35 0.427,0.233 0.763,0.567 1.01,1 0.247,0.433 0.37,0.93 0.37,1.49 0,0.56 -0.127,1.057 -0.38,1.49 -0.253,0.433 -0.6,0.77 -1.04,1.01 -0.433,0.233 -0.913,0.35 -1.44,0.35 z m 0,-0.99 c 0.293,0 0.567,-0.07 0.82,-0.21 0.26,-0.14 0.47,-0.35 0.63,-0.63 0.16,-0.28 0.24,-0.62 0.24,-1.02 0,-0.4 -0.077,-0.737 -0.23,-1.01 -0.153,-0.28 -0.357,-0.49 -0.61,-0.63 -0.253,-0.14 -0.527,-0.21 -0.82,-0.21 -0.293,0 -0.567,0.07 -0.82,0.21 -0.247,0.14 -0.443,0.35 -0.59,0.63 -0.147,0.273 -0.22,0.61 -0.22,1.01 0,0.593 0.15,1.053 0.45,1.38 0.307,0.32 0.69,0.48 1.15,0.48 z m 6.567,-4.7 c 0.433,0 0.82,0.09 1.16,0.27 0.347,0.18 0.617,0.447 0.81,0.8 0.193,0.353 0.29,0.78 0.29,1.28 V 483 h -1.13 v -3.08 c 0,-0.493 -0.123,-0.87 -0.37,-1.13 -0.247,-0.267 -0.583,-0.4 -1.01,-0.4 -0.427,0 -0.767,0.133 -1.02,0.4 -0.247,0.26 -0.37,0.637 -0.37,1.13 V 483 h -1.14 v -5.51 h 1.14 v 0.63 c 0.187,-0.227 0.423,-0.403 0.71,-0.53 0.293,-0.127 0.603,-0.19 0.93,-0.19 z"
     fill="#000000"
     id="path16" />
  <rect
     width="10"
     height="6"
     transform="scale(1,-1)"
     fill="#560153"
     id="rect17"
     x="545"
     y="-621" />
  <path
     d="m 566,621 h -0.728 l -2.928,-4.44 V 621 h -0.728 v -5.584 h 0.728 l 2.928,4.432 v -4.432 H 566 Z m 5.241,-2.36 c 0,0.139 -0.008,0.285 -0.024,0.44 h -3.504 c 0.027,0.432 0.173,0.771 0.44,1.016 0.272,0.24 0.6,0.36 0.984,0.36 0.315,0 0.576,-0.072 0.784,-0.216 0.213,-0.149 0.363,-0.347 0.448,-0.592 h 0.784 c -0.117,0.421 -0.352,0.765 -0.704,1.032 -0.352,0.261 -0.789,0.392 -1.312,0.392 -0.416,0 -0.789,-0.093 -1.12,-0.28 -0.325,-0.187 -0.581,-0.451 -0.768,-0.792 -0.187,-0.347 -0.28,-0.747 -0.28,-1.2 0,-0.453 0.091,-0.851 0.272,-1.192 0.181,-0.341 0.435,-0.603 0.76,-0.784 0.331,-0.187 0.709,-0.28 1.136,-0.28 0.416,0 0.784,0.091 1.104,0.272 0.32,0.181 0.565,0.432 0.736,0.752 0.176,0.315 0.264,0.672 0.264,1.072 z m -0.752,-0.152 c 0,-0.277 -0.061,-0.515 -0.184,-0.712 -0.123,-0.203 -0.291,-0.355 -0.504,-0.456 -0.208,-0.107 -0.44,-0.16 -0.696,-0.16 -0.368,0 -0.683,0.117 -0.944,0.352 -0.256,0.235 -0.403,0.56 -0.44,0.976 z m 7.553,-1.872 -1.368,4.384 h -0.752 l -1.056,-3.48 -1.056,3.48 h -0.752 l -1.376,-4.384 h 0.744 l 1.008,3.68 1.088,-3.68 h 0.744 l 1.064,3.688 0.992,-3.688 z"
     fill="#000000"
     id="path17" />
  <rect
     width="10"
     height="6"
     transform="scale(1,-1)"
     fill="#ffbe67"
     id="rect18"
     x="586"
     y="-621" />
  <path
     d="m 605.552,621 -1.328,-2.28 h -0.88 V 621 h -0.728 v -5.576 h 1.8 c 0.421,0 0.776,0.072 1.064,0.216 0.293,0.144 0.512,0.339 0.656,0.584 0.144,0.245 0.216,0.525 0.216,0.84 0,0.384 -0.112,0.723 -0.336,1.016 -0.219,0.293 -0.549,0.488 -0.992,0.584 l 1.4,2.336 z m -2.208,-2.864 h 1.072 c 0.395,0 0.691,-0.096 0.888,-0.288 0.197,-0.197 0.296,-0.459 0.296,-0.784 0,-0.331 -0.099,-0.587 -0.296,-0.768 -0.192,-0.181 -0.488,-0.272 -0.888,-0.272 h -1.072 z m 8.139,0.504 c 0,0.139 -0.008,0.285 -0.024,0.44 h -3.504 c 0.027,0.432 0.174,0.771 0.44,1.016 0.272,0.24 0.6,0.36 0.984,0.36 0.315,0 0.576,-0.072 0.784,-0.216 0.214,-0.149 0.363,-0.347 0.448,-0.592 h 0.784 c -0.117,0.421 -0.352,0.765 -0.704,1.032 -0.352,0.261 -0.789,0.392 -1.312,0.392 -0.416,0 -0.789,-0.093 -1.12,-0.28 -0.325,-0.187 -0.581,-0.451 -0.768,-0.792 -0.186,-0.347 -0.28,-0.747 -0.28,-1.2 0,-0.453 0.091,-0.851 0.272,-1.192 0.182,-0.341 0.435,-0.603 0.76,-0.784 0.331,-0.187 0.71,-0.28 1.136,-0.28 0.416,0 0.784,0.091 1.104,0.272 0.32,0.181 0.566,0.432 0.736,0.752 0.176,0.315 0.264,0.672 0.264,1.072 z m -0.752,-0.152 c 0,-0.277 -0.061,-0.515 -0.184,-0.712 -0.122,-0.203 -0.29,-0.355 -0.504,-0.456 -0.208,-0.107 -0.44,-0.16 -0.696,-0.16 -0.368,0 -0.682,0.117 -0.944,0.352 -0.256,0.235 -0.402,0.56 -0.44,0.976 z m 2.601,-1.272 v 2.584 c 0,0.213 0.045,0.365 0.136,0.456 0.091,0.085 0.248,0.128 0.472,0.128 h 0.536 V 621 h -0.656 c -0.405,0 -0.709,-0.093 -0.912,-0.28 -0.203,-0.187 -0.304,-0.493 -0.304,-0.92 v -2.584 h -0.568 v -0.6 h 0.568 v -1.104 h 0.728 v 1.104 h 1.144 v 0.6 z m 5.914,-0.6 V 621 h -0.728 v -0.648 c -0.138,0.224 -0.333,0.4 -0.584,0.528 -0.245,0.123 -0.517,0.184 -0.816,0.184 -0.341,0 -0.648,-0.069 -0.92,-0.208 -0.272,-0.144 -0.488,-0.357 -0.648,-0.64 -0.154,-0.283 -0.232,-0.627 -0.232,-1.032 v -2.568 h 0.72 v 2.472 c 0,0.432 0.11,0.765 0.328,1 0.219,0.229 0.518,0.344 0.896,0.344 0.39,0 0.696,-0.12 0.92,-0.36 0.224,-0.24 0.336,-0.589 0.336,-1.048 v -2.408 z m 1.957,0.712 c 0.128,-0.251 0.31,-0.445 0.544,-0.584 0.24,-0.139 0.531,-0.208 0.872,-0.208 v 0.752 h -0.192 c -0.816,0 -1.224,0.443 -1.224,1.328 V 621 h -0.728 v -4.384 h 0.728 z m 4.393,-0.792 c 0.533,0 0.965,0.163 1.296,0.488 0.33,0.32 0.496,0.784 0.496,1.392 V 621 h -0.72 v -2.48 c 0,-0.437 -0.11,-0.771 -0.328,-1 -0.219,-0.235 -0.518,-0.352 -0.896,-0.352 -0.384,0 -0.691,0.12 -0.92,0.36 -0.224,0.24 -0.336,0.589 -0.336,1.048 V 621 h -0.728 v -4.384 h 0.728 v 0.624 c 0.144,-0.224 0.338,-0.397 0.584,-0.52 0.25,-0.123 0.525,-0.184 0.824,-0.184 z m 3.357,-0.632 c -0.139,0 -0.256,-0.048 -0.352,-0.144 -0.096,-0.096 -0.144,-0.213 -0.144,-0.352 0,-0.139 0.048,-0.256 0.144,-0.352 0.096,-0.096 0.213,-0.144 0.352,-0.144 0.133,0 0.245,0.048 0.336,0.144 0.096,0.096 0.144,0.213 0.144,0.352 0,0.139 -0.048,0.256 -0.144,0.352 -0.091,0.096 -0.203,0.144 -0.336,0.144 z m 0.352,0.712 V 621 h -0.728 v -4.384 z m 3.377,-0.08 c 0.533,0 0.965,0.163 1.296,0.488 0.33,0.32 0.496,0.784 0.496,1.392 V 621 h -0.72 v -2.48 c 0,-0.437 -0.11,-0.771 -0.328,-1 -0.219,-0.235 -0.518,-0.352 -0.896,-0.352 -0.384,0 -0.691,0.12 -0.92,0.36 -0.224,0.24 -0.336,0.589 -0.336,1.048 V 621 h -0.728 v -4.384 h 0.728 v 0.624 c 0.144,-0.224 0.338,-0.397 0.584,-0.52 0.25,-0.123 0.525,-0.184 0.824,-0.184 z m 4.789,0.008 c 0.379,0 0.709,0.083 0.992,0.248 0.288,0.165 0.501,0.373 0.64,0.624 v -0.8 h 0.736 v 4.48 c 0,0.4 -0.085,0.755 -0.256,1.064 -0.171,0.315 -0.416,0.56 -0.736,0.736 -0.315,0.176 -0.683,0.264 -1.104,0.264 -0.576,0 -1.056,-0.136 -1.44,-0.408 -0.384,-0.272 -0.611,-0.643 -0.68,-1.112 h 0.72 c 0.08,0.267 0.245,0.48 0.496,0.64 0.251,0.165 0.552,0.248 0.904,0.248 0.4,0 0.725,-0.125 0.976,-0.376 0.256,-0.251 0.384,-0.603 0.384,-1.056 v -0.92 c -0.144,0.256 -0.357,0.469 -0.64,0.64 -0.283,0.171 -0.613,0.256 -0.992,0.256 -0.389,0 -0.744,-0.096 -1.064,-0.288 -0.315,-0.192 -0.563,-0.461 -0.744,-0.808 -0.181,-0.347 -0.272,-0.741 -0.272,-1.184 0,-0.448 0.091,-0.84 0.272,-1.176 0.181,-0.341 0.429,-0.605 0.744,-0.792 0.32,-0.187 0.675,-0.28 1.064,-0.28 z m 1.632,2.256 c 0,-0.331 -0.067,-0.619 -0.2,-0.864 -0.133,-0.245 -0.315,-0.432 -0.544,-0.56 -0.224,-0.133 -0.472,-0.2 -0.744,-0.2 -0.272,0 -0.52,0.064 -0.744,0.192 -0.224,0.128 -0.403,0.315 -0.536,0.56 -0.133,0.245 -0.2,0.533 -0.2,0.864 0,0.336 0.067,0.629 0.2,0.88 0.133,0.245 0.312,0.435 0.536,0.568 0.224,0.128 0.472,0.192 0.744,0.192 0.272,0 0.52,-0.064 0.744,-0.192 0.229,-0.133 0.411,-0.323 0.544,-0.568 0.133,-0.251 0.2,-0.541 0.2,-0.872 z"
     fill="#000000"
     id="path18" />
  <path
     d="M 545,516 H 698"
     stroke="#e2e7e7"
     stroke-dasharray="3, 6"
     id="path19" />
  <path
     d="M 545,556 H 698"
     stroke="#e2e7e7"
     stroke-dasharray="3, 6"
     id="path20" />
  <path
     d="M 545,596 H 698"
     stroke="#e2e7e7"
     id="path21" />
  <path
     d="m 545,579.5 31.5,-5 31.5,-18.5 31,-20 30.5,-14.5 31,-26.5"
     stroke="#721f6f"
     stroke-width="2"
     id="path22" />
  <path
     d="m 545.5,561.5 31,25 31,-25 31,6 31.5,-30 30.5,2"
     stroke="#ffbe67"
     stroke-width="2"
     id="path23" />
  <rect
     x="533"
     y="467"
     width="24"
     height="24"
     rx="12"
     fill="#eddeff"
     id="rect23" />
  <g
     clip-path="url(#clip1_670_8746)"
     id="g28"
     transform="translate(-194,96)">
    <rect
       x="759"
       y="52"
       width="252"
       height="252"
       rx="21.6"
       fill="#ffffff"
       id="rect24" />
    <circle
       cx="885.5"
       cy="152.5"
       r="54.5"
       stroke="#9ea9fd"
       stroke-width="24.1765"
       id="circle24" />
    <path
       d="M 885.189,98 C 915.46,98 940,122.4 940,152.5 940,182.6 915.46,207 885.189,207 860.777,207 840.093,191.131 833,169.202"
       stroke="#c67dff"
       stroke-width="24.1765"
       id="path24" />
    <path
       d="m 885,98 c 30.376,0 55,24.375 55,54.442 0,17.812 -8.641,33.625 -22,43.558"
       stroke="#721f6f"
       stroke-width="24.1765"
       id="path25" />
    <rect
       width="14.8705"
       height="8.9222803"
       transform="matrix(1,0,0,-1,780,265.922)"
       fill="#c67dff"
       id="rect25"
       x="0"
       y="0" />
    <path
       d="m 807.338,265.544 c -0.547,0 -1.039,-0.095 -1.475,-0.285 -0.429,-0.198 -0.766,-0.468 -1.011,-0.809 -0.246,-0.349 -0.373,-0.749 -0.381,-1.202 h 1.154 c 0.039,0.389 0.198,0.718 0.476,0.988 0.285,0.262 0.698,0.392 1.237,0.392 0.515,0 0.92,-0.126 1.213,-0.38 0.302,-0.262 0.452,-0.595 0.452,-1 0,-0.317 -0.087,-0.575 -0.261,-0.773 -0.175,-0.198 -0.393,-0.349 -0.655,-0.452 -0.261,-0.103 -0.614,-0.214 -1.058,-0.333 -0.548,-0.143 -0.988,-0.285 -1.321,-0.428 -0.325,-0.143 -0.607,-0.365 -0.845,-0.666 -0.23,-0.31 -0.345,-0.722 -0.345,-1.238 0,-0.452 0.115,-0.852 0.345,-1.201 0.23,-0.349 0.552,-0.619 0.964,-0.809 0.42,-0.19 0.9,-0.286 1.439,-0.286 0.778,0 1.412,0.195 1.904,0.583 0.5,0.389 0.781,0.904 0.845,1.547 h -1.19 c -0.04,-0.317 -0.206,-0.595 -0.5,-0.833 -0.293,-0.246 -0.682,-0.369 -1.166,-0.369 -0.452,0 -0.82,0.119 -1.106,0.357 -0.285,0.23 -0.428,0.555 -0.428,0.976 0,0.301 0.083,0.547 0.25,0.737 0.174,0.191 0.384,0.337 0.63,0.44 0.254,0.096 0.607,0.207 1.059,0.333 0.547,0.151 0.987,0.302 1.32,0.453 0.333,0.142 0.619,0.368 0.857,0.678 0.238,0.301 0.357,0.713 0.357,1.237 0,0.404 -0.107,0.785 -0.321,1.142 -0.215,0.357 -0.532,0.646 -0.952,0.868 -0.42,0.222 -0.916,0.333 -1.487,0.333 z m 5.673,-5.71 v 3.843 c 0,0.317 0.068,0.543 0.203,0.678 0.134,0.127 0.368,0.19 0.702,0.19 h 0.797 v 0.916 h -0.976 c -0.603,0 -1.055,-0.139 -1.356,-0.416 -0.301,-0.278 -0.452,-0.734 -0.452,-1.368 v -3.843 h -0.845 v -0.892 h 0.845 V 257.3 h 1.082 v 1.642 h 1.702 v 0.892 z m 2.609,2.344 c 0,-0.666 0.135,-1.249 0.404,-1.749 0.27,-0.508 0.639,-0.9 1.107,-1.178 0.475,-0.277 1.003,-0.416 1.582,-0.416 0.571,0 1.067,0.123 1.487,0.369 0.42,0.246 0.733,0.555 0.94,0.928 v -1.19 h 1.094 v 6.519 h -1.094 v -1.213 c -0.214,0.38 -0.536,0.698 -0.964,0.951 -0.42,0.246 -0.912,0.369 -1.475,0.369 -0.579,0 -1.102,-0.143 -1.57,-0.428 -0.468,-0.286 -0.837,-0.686 -1.107,-1.202 -0.269,-0.515 -0.404,-1.102 -0.404,-1.76 z m 5.52,0.012 c 0,-0.492 -0.099,-0.92 -0.298,-1.285 -0.198,-0.365 -0.468,-0.643 -0.809,-0.833 -0.333,-0.198 -0.702,-0.297 -1.106,-0.297 -0.405,0 -0.773,0.095 -1.106,0.285 -0.334,0.191 -0.599,0.468 -0.797,0.833 -0.199,0.365 -0.298,0.793 -0.298,1.285 0,0.499 0.099,0.936 0.298,1.308 0.198,0.365 0.463,0.647 0.797,0.845 0.333,0.19 0.701,0.286 1.106,0.286 0.404,0 0.773,-0.096 1.106,-0.286 0.341,-0.198 0.611,-0.48 0.809,-0.845 0.199,-0.372 0.298,-0.805 0.298,-1.296 z m 5.576,-2.356 h -1.368 v 5.627 h -1.082 v -5.627 h -0.845 v -0.892 h 0.845 v -0.464 c 0,-0.73 0.186,-1.261 0.559,-1.594 0.381,-0.341 0.987,-0.512 1.82,-0.512 v 0.904 c -0.476,0 -0.813,0.096 -1.011,0.286 -0.19,0.182 -0.286,0.488 -0.286,0.916 v 0.464 h 1.368 z m 3.916,0 h -1.368 v 5.627 h -1.083 v -5.627 h -0.845 v -0.892 h 0.845 v -0.464 c 0,-0.73 0.186,-1.261 0.559,-1.594 0.381,-0.341 0.987,-0.512 1.82,-0.512 v 0.904 c -0.476,0 -0.813,0.096 -1.011,0.286 -0.19,0.182 -0.285,0.488 -0.285,0.916 v 0.464 h 1.368 z"
       fill="#000000"
       id="path26" />
    <rect
       width="14.8705"
       height="8.9222803"
       transform="matrix(1,0,0,-1,839.793,265.922)"
       fill="#9ea9fd"
       id="rect26"
       x="0"
       y="0" />
    <path
       d="m 870.045,259.596 c 0,0.69 -0.238,1.265 -0.714,1.725 -0.468,0.452 -1.185,0.678 -2.153,0.678 h -1.594 v 3.462 h -1.083 v -8.292 h 2.677 c 0.936,0 1.646,0.226 2.13,0.679 0.491,0.452 0.737,1.034 0.737,1.748 z m -2.867,1.511 c 0.603,0 1.047,-0.131 1.333,-0.392 0.285,-0.262 0.428,-0.635 0.428,-1.119 0,-1.023 -0.587,-1.534 -1.761,-1.534 h -1.594 v 3.045 z m 3.808,1.071 c 0,-0.666 0.135,-1.249 0.405,-1.749 0.269,-0.508 0.638,-0.9 1.106,-1.178 0.476,-0.277 1.003,-0.416 1.582,-0.416 0.571,0 1.067,0.123 1.487,0.369 0.421,0.246 0.734,0.555 0.94,0.928 v -1.19 h 1.095 v 6.519 h -1.095 v -1.213 c -0.214,0.38 -0.535,0.698 -0.963,0.951 -0.421,0.246 -0.913,0.369 -1.476,0.369 -0.579,0 -1.102,-0.143 -1.57,-0.428 -0.468,-0.286 -0.837,-0.686 -1.106,-1.202 -0.27,-0.515 -0.405,-1.102 -0.405,-1.76 z m 5.52,0.012 c 0,-0.492 -0.099,-0.92 -0.297,-1.285 -0.199,-0.365 -0.468,-0.643 -0.809,-0.833 -0.333,-0.198 -0.702,-0.297 -1.107,-0.297 -0.404,0 -0.773,0.095 -1.106,0.285 -0.333,0.191 -0.599,0.468 -0.797,0.833 -0.198,0.365 -0.297,0.793 -0.297,1.285 0,0.499 0.099,0.936 0.297,1.308 0.198,0.365 0.464,0.647 0.797,0.845 0.333,0.19 0.702,0.286 1.106,0.286 0.405,0 0.774,-0.096 1.107,-0.286 0.341,-0.198 0.61,-0.48 0.809,-0.845 0.198,-0.372 0.297,-0.805 0.297,-1.296 z m 4.245,-2.356 v 3.843 c 0,0.317 0.067,0.543 0.202,0.678 0.135,0.127 0.369,0.19 0.702,0.19 h 0.797 v 0.916 h -0.976 c -0.603,0 -1.055,-0.139 -1.356,-0.416 -0.301,-0.278 -0.452,-0.734 -0.452,-1.368 v -3.843 h -0.845 v -0.892 h 0.845 V 257.3 h 1.083 v 1.642 h 1.701 v 0.892 z m 3.571,-1.951 c -0.206,0 -0.38,-0.071 -0.523,-0.214 -0.143,-0.143 -0.214,-0.317 -0.214,-0.523 0,-0.207 0.071,-0.381 0.214,-0.524 0.143,-0.143 0.317,-0.214 0.523,-0.214 0.199,0 0.365,0.071 0.5,0.214 0.143,0.143 0.214,0.317 0.214,0.524 0,0.206 -0.071,0.38 -0.214,0.523 -0.135,0.143 -0.301,0.214 -0.5,0.214 z m 0.524,1.059 v 6.519 h -1.083 v -6.519 z m 7.793,3.01 c 0,0.206 -0.012,0.424 -0.036,0.654 h -5.21 c 0.04,0.642 0.258,1.146 0.654,1.511 0.405,0.357 0.892,0.535 1.463,0.535 0.468,0 0.857,-0.107 1.166,-0.321 0.318,-0.222 0.54,-0.515 0.666,-0.88 h 1.166 c -0.174,0.626 -0.523,1.138 -1.047,1.534 -0.523,0.389 -1.173,0.583 -1.951,0.583 -0.618,0 -1.173,-0.139 -1.665,-0.416 -0.484,-0.278 -0.865,-0.67 -1.142,-1.178 -0.278,-0.515 -0.416,-1.11 -0.416,-1.784 0,-0.674 0.134,-1.265 0.404,-1.773 0.27,-0.507 0.646,-0.896 1.13,-1.166 0.492,-0.277 1.055,-0.416 1.689,-0.416 0.619,0 1.166,0.135 1.642,0.404 0.476,0.27 0.841,0.643 1.095,1.119 0.261,0.468 0.392,0.999 0.392,1.594 z m -1.118,-0.226 c 0,-0.413 -0.091,-0.766 -0.274,-1.059 -0.182,-0.301 -0.432,-0.527 -0.749,-0.678 -0.309,-0.159 -0.654,-0.238 -1.035,-0.238 -0.547,0 -1.015,0.174 -1.404,0.523 -0.381,0.349 -0.599,0.833 -0.654,1.452 z m 5.723,-2.903 c 0.794,0 1.436,0.242 1.928,0.726 0.491,0.476 0.737,1.166 0.737,2.07 v 3.842 h -1.07 v -3.688 c 0,-0.65 -0.163,-1.146 -0.488,-1.487 -0.325,-0.349 -0.769,-0.523 -1.333,-0.523 -0.571,0 -1.027,0.178 -1.368,0.535 -0.333,0.357 -0.499,0.877 -0.499,1.559 v 3.604 h -1.083 v -6.519 h 1.083 v 0.928 c 0.214,-0.333 0.503,-0.591 0.868,-0.773 0.373,-0.183 0.781,-0.274 1.225,-0.274 z m 5.754,1.011 v 3.843 c 0,0.317 0.068,0.543 0.202,0.678 0.135,0.127 0.369,0.19 0.702,0.19 h 0.797 v 0.916 h -0.975 c -0.603,0 -1.055,-0.139 -1.356,-0.416 -0.302,-0.278 -0.452,-0.734 -0.452,-1.368 v -3.843 h -0.845 v -0.892 h 0.845 V 257.3 h 1.082 v 1.642 h 1.701 v 0.892 z"
       fill="#000000"
       id="path27" />
    <rect
       width="14.8705"
       height="8.9222803"
       transform="matrix(1,0,0,-1,913.585,265.922)"
       fill="#721f6f"
       id="rect27"
       x="0"
       y="0" />
    <path
       d="m 942.66,265.461 -1.975,-3.39 h -1.308 v 3.39 h -1.083 v -8.292 h 2.677 c 0.626,0 1.154,0.107 1.582,0.322 0.436,0.214 0.761,0.503 0.976,0.868 0.214,0.365 0.321,0.781 0.321,1.249 0,0.571 -0.167,1.075 -0.5,1.511 -0.325,0.436 -0.817,0.726 -1.475,0.868 l 2.082,3.474 z m -3.283,-4.259 h 1.594 c 0.587,0 1.027,-0.142 1.32,-0.428 0.294,-0.293 0.441,-0.682 0.441,-1.166 0,-0.492 -0.147,-0.872 -0.441,-1.142 -0.285,-0.27 -0.725,-0.404 -1.32,-0.404 h -1.594 z m 12.103,0.75 c 0,0.206 -0.012,0.424 -0.036,0.654 h -5.21 c 0.039,0.642 0.258,1.146 0.654,1.511 0.405,0.357 0.892,0.535 1.463,0.535 0.468,0 0.857,-0.107 1.166,-0.321 0.317,-0.222 0.54,-0.515 0.666,-0.88 h 1.166 c -0.174,0.626 -0.523,1.138 -1.047,1.534 -0.523,0.389 -1.173,0.583 -1.951,0.583 -0.618,0 -1.173,-0.139 -1.665,-0.416 -0.484,-0.278 -0.865,-0.67 -1.142,-1.178 -0.278,-0.515 -0.417,-1.11 -0.417,-1.784 0,-0.674 0.135,-1.265 0.405,-1.773 0.27,-0.507 0.646,-0.896 1.13,-1.166 0.492,-0.277 1.055,-0.416 1.689,-0.416 0.619,0 1.166,0.135 1.642,0.404 0.476,0.27 0.841,0.643 1.095,1.119 0.261,0.468 0.392,0.999 0.392,1.594 z m -1.118,-0.226 c 0,-0.413 -0.091,-0.766 -0.274,-1.059 -0.182,-0.301 -0.432,-0.527 -0.749,-0.678 -0.31,-0.159 -0.655,-0.238 -1.035,-0.238 -0.547,0 -1.015,0.174 -1.404,0.523 -0.381,0.349 -0.599,0.833 -0.654,1.452 z m 5.2,-1.892 h -1.368 v 5.627 h -1.083 v -5.627 h -0.844 v -0.892 h 0.844 v -0.464 c 0,-0.73 0.187,-1.261 0.559,-1.594 0.381,-0.341 0.988,-0.512 1.821,-0.512 v 0.904 c -0.476,0 -0.813,0.096 -1.012,0.286 -0.19,0.182 -0.285,0.488 -0.285,0.916 v 0.464 h 1.368 z m 1.607,5.699 c -0.206,0 -0.38,-0.072 -0.523,-0.215 -0.143,-0.142 -0.214,-0.317 -0.214,-0.523 0,-0.206 0.071,-0.381 0.214,-0.523 0.143,-0.143 0.317,-0.215 0.523,-0.215 0.198,0 0.365,0.072 0.5,0.215 0.143,0.142 0.214,0.317 0.214,0.523 0,0.206 -0.071,0.381 -0.214,0.523 -0.135,0.143 -0.302,0.215 -0.5,0.215 z m 10.868,-5.937 c 0,0.69 -0.238,1.265 -0.714,1.725 -0.467,0.452 -1.185,0.678 -2.153,0.678 h -1.594 v 3.462 h -1.082 v -8.292 h 2.676 c 0.936,0 1.646,0.226 2.13,0.679 0.491,0.452 0.737,1.034 0.737,1.748 z m -2.867,1.511 c 0.603,0 1.047,-0.131 1.333,-0.392 0.285,-0.262 0.428,-0.635 0.428,-1.119 0,-1.023 -0.587,-1.534 -1.761,-1.534 h -1.594 v 3.045 z m 7.449,-2.284 c 0.491,0 0.935,0.107 1.332,0.321 0.397,0.206 0.706,0.52 0.928,0.94 0.23,0.42 0.345,0.932 0.345,1.535 v 3.842 h -1.071 v -3.688 c 0,-0.65 -0.162,-1.146 -0.488,-1.487 -0.325,-0.349 -0.769,-0.523 -1.332,-0.523 -0.571,0 -1.027,0.178 -1.368,0.535 -0.333,0.357 -0.5,0.877 -0.5,1.559 v 3.604 h -1.082 v -8.803 h 1.082 v 3.212 c 0.214,-0.333 0.508,-0.591 0.881,-0.773 0.38,-0.183 0.805,-0.274 1.273,-0.274 z m 9.988,0.119 -3.925,9.588 h -1.119 l 1.285,-3.14 -2.629,-6.448 h 1.202 l 2.046,5.282 2.022,-5.282 z m 3.396,6.626 c -0.499,0 -0.947,-0.083 -1.344,-0.25 -0.396,-0.174 -0.71,-0.412 -0.94,-0.713 -0.23,-0.31 -0.357,-0.663 -0.38,-1.059 h 1.118 c 0.032,0.325 0.182,0.591 0.452,0.797 0.278,0.206 0.638,0.309 1.083,0.309 0.412,0 0.737,-0.091 0.975,-0.273 0.238,-0.183 0.357,-0.413 0.357,-0.69 0,-0.286 -0.127,-0.496 -0.381,-0.631 -0.253,-0.143 -0.646,-0.281 -1.177,-0.416 -0.484,-0.127 -0.881,-0.254 -1.19,-0.381 -0.301,-0.135 -0.563,-0.329 -0.785,-0.583 -0.214,-0.262 -0.321,-0.603 -0.321,-1.023 0,-0.333 0.099,-0.638 0.297,-0.916 0.198,-0.278 0.48,-0.496 0.845,-0.654 0.364,-0.167 0.781,-0.25 1.249,-0.25 0.721,0 1.304,0.182 1.748,0.547 0.445,0.365 0.683,0.865 0.714,1.499 h -1.082 c -0.024,-0.341 -0.163,-0.615 -0.417,-0.821 -0.246,-0.206 -0.579,-0.309 -0.999,-0.309 -0.389,0 -0.698,0.083 -0.928,0.25 -0.23,0.166 -0.345,0.384 -0.345,0.654 0,0.214 0.068,0.393 0.202,0.535 0.143,0.135 0.318,0.246 0.524,0.333 0.214,0.08 0.507,0.171 0.88,0.274 0.468,0.127 0.849,0.254 1.142,0.381 0.294,0.119 0.543,0.301 0.75,0.547 0.214,0.246 0.325,0.567 0.333,0.964 0,0.357 -0.099,0.678 -0.298,0.963 -0.198,0.286 -0.479,0.512 -0.844,0.678 -0.357,0.159 -0.77,0.238 -1.238,0.238 z"
       fill="#000000"
       id="path28" />
  </g>
  <rect
     x="566.40399"
     y="149.4041"
     width="249.192"
     height="249.192"
     rx="20.1959"
     stroke="#afb8ff"
     stroke-width="2.80829"
     id="rect28" />
  <rect
     x="36.404007"
     y="316.40399"
     width="417.19199"
     height="387.19199"
     rx="20.1959"
     fill="#ffffff"
     id="rect29" />
  <rect
     x="36.404007"
     y="316.40399"
     width="417.19199"
     height="387.19199"
     rx="20.1959"
     stroke="#c67dff"
     stroke-width="2.80829"
     id="rect30" />
  <path
     d="m 68.768,411.424 v 0.592 h -2.424 v 1.88 h 1.968 v 0.592 H 66.344 V 417 h -0.728 v -5.576 z m 4.687,1.192 V 417 h -0.728 v -0.648 c -0.138,0.224 -0.333,0.4 -0.584,0.528 -0.245,0.123 -0.517,0.184 -0.816,0.184 -0.341,0 -0.648,-0.069 -0.92,-0.208 -0.272,-0.144 -0.488,-0.357 -0.648,-0.64 -0.154,-0.283 -0.232,-0.627 -0.232,-1.032 v -2.568 h 0.72 v 2.472 c 0,0.432 0.11,0.765 0.328,1 0.219,0.229 0.518,0.344 0.896,0.344 0.39,0 0.696,-0.12 0.92,-0.36 0.224,-0.24 0.336,-0.589 0.336,-1.048 v -2.408 z m 1.877,-1.536 V 417 h -0.728 v -5.92 z m 1.889,0 V 417 h -0.728 v -5.92 z m 7.598,5.92 h -0.728 l -2.928,-4.44 V 417 h -0.728 v -5.584 h 0.728 l 2.928,4.432 v -4.432 h 0.728 z m 0.889,-2.208 c 0,-0.448 0.09,-0.84 0.272,-1.176 0.181,-0.341 0.429,-0.605 0.744,-0.792 0.32,-0.187 0.674,-0.28 1.064,-0.28 0.384,0 0.717,0.083 1,0.248 0.282,0.165 0.493,0.373 0.632,0.624 v -0.8 h 0.736 V 417 H 89.42 v -0.816 c -0.144,0.256 -0.36,0.469 -0.648,0.64 -0.283,0.165 -0.614,0.248 -0.992,0.248 -0.39,0 -0.742,-0.096 -1.056,-0.288 -0.315,-0.192 -0.563,-0.461 -0.744,-0.808 -0.182,-0.347 -0.272,-0.741 -0.272,-1.184 z m 3.712,0.008 c 0,-0.331 -0.067,-0.619 -0.2,-0.864 -0.134,-0.245 -0.315,-0.432 -0.544,-0.56 -0.224,-0.133 -0.472,-0.2 -0.744,-0.2 -0.272,0 -0.52,0.064 -0.744,0.192 -0.224,0.128 -0.403,0.315 -0.536,0.56 -0.134,0.245 -0.2,0.533 -0.2,0.864 0,0.336 0.066,0.629 0.2,0.88 0.133,0.245 0.312,0.435 0.536,0.568 0.224,0.128 0.472,0.192 0.744,0.192 0.272,0 0.52,-0.064 0.744,-0.192 0.229,-0.133 0.41,-0.323 0.544,-0.568 0.133,-0.251 0.2,-0.541 0.2,-0.872 z m 7.158,-2.264 c 0.341,0 0.645,0.072 0.912,0.216 0.267,0.139 0.477,0.349 0.632,0.632 0.155,0.283 0.232,0.627 0.232,1.032 V 417 h -0.72 v -2.48 c 0,-0.437 -0.109,-0.771 -0.328,-1 -0.213,-0.235 -0.504,-0.352 -0.872,-0.352 -0.379,0 -0.68,0.123 -0.904,0.368 -0.224,0.24 -0.336,0.589 -0.336,1.048 V 417 h -0.72 v -2.48 c 0,-0.437 -0.109,-0.771 -0.328,-1 -0.213,-0.235 -0.504,-0.352 -0.872,-0.352 -0.379,0 -0.68,0.123 -0.904,0.368 -0.224,0.24 -0.336,0.589 -0.336,1.048 V 417 h -0.728 v -4.384 h 0.728 v 0.632 c 0.144,-0.229 0.336,-0.405 0.576,-0.528 0.245,-0.123 0.515,-0.184 0.808,-0.184 0.368,0 0.693,0.083 0.976,0.248 0.283,0.165 0.493,0.408 0.632,0.728 0.123,-0.309 0.325,-0.549 0.608,-0.72 0.283,-0.171 0.597,-0.256 0.944,-0.256 z m 6.89,2.104 c 0,0.139 -0.008,0.285 -0.024,0.44 H 99.94 c 0.027,0.432 0.174,0.771 0.44,1.016 0.272,0.24 0.6,0.36 0.984,0.36 0.315,0 0.576,-0.072 0.784,-0.216 0.214,-0.149 0.363,-0.347 0.448,-0.592 h 0.784 c -0.117,0.421 -0.352,0.765 -0.704,1.032 -0.352,0.261 -0.789,0.392 -1.312,0.392 -0.416,0 -0.789,-0.093 -1.12,-0.28 -0.325,-0.187 -0.581,-0.451 -0.768,-0.792 -0.186,-0.347 -0.28,-0.747 -0.28,-1.2 0,-0.453 0.091,-0.851 0.272,-1.192 0.182,-0.341 0.435,-0.603 0.76,-0.784 0.331,-0.187 0.71,-0.28 1.136,-0.28 0.416,0 0.784,0.091 1.104,0.272 0.32,0.181 0.566,0.432 0.736,0.752 0.176,0.315 0.264,0.672 0.264,1.072 z m -0.752,-0.152 c 0,-0.277 -0.061,-0.515 -0.184,-0.712 -0.122,-0.203 -0.29,-0.355 -0.504,-0.456 -0.208,-0.107 -0.44,-0.16 -0.696,-0.16 -0.368,0 -0.682,0.117 -0.944,0.352 -0.256,0.235 -0.402,0.56 -0.44,0.976 z"
     fill="#363636"
     id="path30" />
  <path
     d="m 217.352,411.424 c 0.608,0 1.133,0.115 1.576,0.344 0.448,0.224 0.789,0.547 1.024,0.968 0.24,0.421 0.36,0.917 0.36,1.488 0,0.571 -0.12,1.067 -0.36,1.488 -0.235,0.416 -0.576,0.736 -1.024,0.96 -0.443,0.219 -0.968,0.328 -1.576,0.328 h -1.736 v -5.576 z m 0,4.976 c 0.72,0 1.269,-0.189 1.648,-0.568 0.379,-0.384 0.568,-0.92 0.568,-1.608 0,-0.693 -0.192,-1.235 -0.576,-1.624 -0.379,-0.389 -0.925,-0.584 -1.64,-0.584 h -1.008 v 4.384 z m 7.84,-1.76 c 0,0.139 -0.008,0.285 -0.024,0.44 h -3.504 c 0.027,0.432 0.174,0.771 0.44,1.016 0.272,0.24 0.6,0.36 0.984,0.36 0.315,0 0.576,-0.072 0.784,-0.216 0.214,-0.149 0.363,-0.347 0.448,-0.592 h 0.784 c -0.117,0.421 -0.352,0.765 -0.704,1.032 -0.352,0.261 -0.789,0.392 -1.312,0.392 -0.416,0 -0.789,-0.093 -1.12,-0.28 -0.325,-0.187 -0.581,-0.451 -0.768,-0.792 -0.186,-0.347 -0.28,-0.747 -0.28,-1.2 0,-0.453 0.091,-0.851 0.272,-1.192 0.182,-0.341 0.435,-0.603 0.76,-0.784 0.331,-0.187 0.71,-0.28 1.136,-0.28 0.416,0 0.784,0.091 1.104,0.272 0.32,0.181 0.566,0.432 0.736,0.752 0.176,0.315 0.264,0.672 0.264,1.072 z m -0.752,-0.152 c 0,-0.277 -0.061,-0.515 -0.184,-0.712 -0.122,-0.203 -0.29,-0.355 -0.504,-0.456 -0.208,-0.107 -0.44,-0.16 -0.696,-0.16 -0.368,0 -0.682,0.117 -0.944,0.352 -0.256,0.235 -0.402,0.56 -0.44,0.976 z m 3.185,2.584 c -0.336,0 -0.637,-0.056 -0.904,-0.168 -0.266,-0.117 -0.477,-0.277 -0.632,-0.48 -0.154,-0.208 -0.24,-0.445 -0.256,-0.712 h 0.752 c 0.022,0.219 0.123,0.397 0.304,0.536 0.187,0.139 0.43,0.208 0.728,0.208 0.278,0 0.496,-0.061 0.656,-0.184 0.16,-0.123 0.24,-0.277 0.24,-0.464 0,-0.192 -0.085,-0.333 -0.256,-0.424 -0.17,-0.096 -0.434,-0.189 -0.792,-0.28 -0.325,-0.085 -0.592,-0.171 -0.8,-0.256 -0.202,-0.091 -0.378,-0.221 -0.528,-0.392 -0.144,-0.176 -0.216,-0.405 -0.216,-0.688 0,-0.224 0.067,-0.429 0.2,-0.616 0.134,-0.187 0.323,-0.333 0.568,-0.44 0.246,-0.112 0.526,-0.168 0.84,-0.168 0.486,0 0.878,0.123 1.176,0.368 0.299,0.245 0.459,0.581 0.48,1.008 h -0.728 c -0.016,-0.229 -0.109,-0.413 -0.28,-0.552 -0.165,-0.139 -0.389,-0.208 -0.672,-0.208 -0.261,0 -0.469,0.056 -0.624,0.168 -0.154,0.112 -0.232,0.259 -0.232,0.44 0,0.144 0.046,0.264 0.136,0.36 0.096,0.091 0.214,0.165 0.352,0.224 0.144,0.053 0.342,0.115 0.592,0.184 0.315,0.085 0.571,0.171 0.768,0.256 0.198,0.08 0.366,0.203 0.504,0.368 0.144,0.165 0.219,0.381 0.224,0.648 0,0.24 -0.066,0.456 -0.2,0.648 -0.133,0.192 -0.322,0.344 -0.568,0.456 -0.24,0.107 -0.517,0.16 -0.832,0.16 z m 2.276,-2.272 c 0,-0.453 0.091,-0.848 0.272,-1.184 0.181,-0.341 0.432,-0.605 0.752,-0.792 0.325,-0.187 0.696,-0.28 1.112,-0.28 0.539,0 0.981,0.131 1.328,0.392 0.352,0.261 0.584,0.624 0.696,1.088 h -0.784 c -0.075,-0.267 -0.221,-0.477 -0.44,-0.632 -0.213,-0.155 -0.48,-0.232 -0.8,-0.232 -0.416,0 -0.752,0.144 -1.008,0.432 -0.256,0.283 -0.384,0.685 -0.384,1.208 0,0.528 0.128,0.936 0.384,1.224 0.256,0.288 0.592,0.432 1.008,0.432 0.32,0 0.587,-0.075 0.8,-0.224 0.213,-0.149 0.36,-0.363 0.44,-0.64 h 0.784 c -0.117,0.448 -0.352,0.808 -0.704,1.08 -0.352,0.267 -0.792,0.4 -1.32,0.4 -0.416,0 -0.787,-0.093 -1.112,-0.28 -0.32,-0.187 -0.571,-0.451 -0.752,-0.792 -0.181,-0.341 -0.272,-0.741 -0.272,-1.2 z m 5.779,-1.472 c 0.128,-0.251 0.31,-0.445 0.544,-0.584 0.24,-0.139 0.531,-0.208 0.872,-0.208 v 0.752 h -0.192 c -0.816,0 -1.224,0.443 -1.224,1.328 V 417 h -0.728 v -4.384 h 0.728 z m 2.553,-1.424 c -0.139,0 -0.256,-0.048 -0.352,-0.144 -0.096,-0.096 -0.144,-0.213 -0.144,-0.352 0,-0.139 0.048,-0.256 0.144,-0.352 0.096,-0.096 0.213,-0.144 0.352,-0.144 0.133,0 0.245,0.048 0.336,0.144 0.096,0.096 0.144,0.213 0.144,0.352 0,0.139 -0.048,0.256 -0.144,0.352 -0.091,0.096 -0.203,0.144 -0.336,0.144 z m 0.352,0.712 V 417 h -0.728 v -4.384 z m 1.888,0.808 c 0.144,-0.251 0.358,-0.459 0.64,-0.624 0.288,-0.171 0.622,-0.256 1,-0.256 0.39,0 0.742,0.093 1.056,0.28 0.32,0.187 0.571,0.451 0.752,0.792 0.182,0.336 0.272,0.728 0.272,1.176 0,0.443 -0.09,0.837 -0.272,1.184 -0.181,0.347 -0.432,0.616 -0.752,0.808 -0.314,0.192 -0.666,0.288 -1.056,0.288 -0.373,0 -0.704,-0.083 -0.992,-0.248 -0.282,-0.171 -0.498,-0.381 -0.648,-0.632 v 2.888 h -0.728 v -6.464 h 0.728 z m 2.976,1.368 c 0,-0.331 -0.066,-0.619 -0.2,-0.864 -0.133,-0.245 -0.314,-0.432 -0.544,-0.56 -0.224,-0.128 -0.472,-0.192 -0.744,-0.192 -0.266,0 -0.514,0.067 -0.744,0.2 -0.224,0.128 -0.405,0.317 -0.544,0.568 -0.133,0.245 -0.2,0.531 -0.2,0.856 0,0.331 0.067,0.621 0.2,0.872 0.139,0.245 0.32,0.435 0.544,0.568 0.23,0.128 0.478,0.192 0.744,0.192 0.272,0 0.52,-0.064 0.744,-0.192 0.23,-0.133 0.411,-0.323 0.544,-0.568 0.134,-0.251 0.2,-0.544 0.2,-0.88 z m 2.511,-1.576 v 2.584 c 0,0.213 0.045,0.365 0.136,0.456 0.09,0.085 0.248,0.128 0.472,0.128 h 0.536 V 417 h -0.656 c -0.406,0 -0.71,-0.093 -0.912,-0.28 -0.203,-0.187 -0.304,-0.493 -0.304,-0.92 v -2.584 h -0.568 v -0.6 h 0.568 v -1.104 h 0.728 v 1.104 h 1.144 v 0.6 z m 2.322,-1.312 c -0.139,0 -0.256,-0.048 -0.352,-0.144 -0.096,-0.096 -0.144,-0.213 -0.144,-0.352 0,-0.139 0.048,-0.256 0.144,-0.352 0.096,-0.096 0.213,-0.144 0.352,-0.144 0.133,0 0.245,0.048 0.336,0.144 0.096,0.096 0.144,0.213 0.144,0.352 0,0.139 -0.048,0.256 -0.144,0.352 -0.091,0.096 -0.203,0.144 -0.336,0.144 z m 0.352,0.712 V 417 h -0.728 v -4.384 z m 3.072,4.456 c -0.41,0 -0.784,-0.093 -1.12,-0.28 -0.33,-0.187 -0.592,-0.451 -0.784,-0.792 -0.186,-0.347 -0.28,-0.747 -0.28,-1.2 0,-0.448 0.096,-0.843 0.288,-1.184 0.198,-0.347 0.464,-0.611 0.8,-0.792 0.336,-0.187 0.712,-0.28 1.128,-0.28 0.416,0 0.792,0.093 1.128,0.28 0.336,0.181 0.6,0.443 0.792,0.784 0.198,0.341 0.296,0.739 0.296,1.192 0,0.453 -0.101,0.853 -0.304,1.2 -0.197,0.341 -0.466,0.605 -0.808,0.792 -0.341,0.187 -0.72,0.28 -1.136,0.28 z m 0,-0.64 c 0.262,0 0.507,-0.061 0.736,-0.184 0.23,-0.123 0.414,-0.307 0.552,-0.552 0.144,-0.245 0.216,-0.544 0.216,-0.896 0,-0.352 -0.069,-0.651 -0.208,-0.896 -0.138,-0.245 -0.32,-0.427 -0.544,-0.544 -0.224,-0.123 -0.466,-0.184 -0.728,-0.184 -0.266,0 -0.512,0.061 -0.736,0.184 -0.218,0.117 -0.394,0.299 -0.528,0.544 -0.133,0.245 -0.2,0.544 -0.2,0.896 0,0.357 0.064,0.659 0.192,0.904 0.134,0.245 0.31,0.429 0.528,0.552 0.219,0.117 0.459,0.176 0.72,0.176 z m 5.262,-3.896 c 0.533,0 0.965,0.163 1.296,0.488 0.33,0.32 0.496,0.784 0.496,1.392 V 417 h -0.72 v -2.48 c 0,-0.437 -0.11,-0.771 -0.328,-1 -0.219,-0.235 -0.518,-0.352 -0.896,-0.352 -0.384,0 -0.691,0.12 -0.92,0.36 -0.224,0.24 -0.336,0.589 -0.336,1.048 V 417 h -0.728 v -4.384 h 0.728 v 0.624 c 0.144,-0.224 0.338,-0.397 0.584,-0.52 0.25,-0.123 0.525,-0.184 0.824,-0.184 z"
     fill="#363636"
     id="path31" />
  <path
     d="M 360.755,411.464 V 417 h -0.728 v -4.128 l -1.84,4.128 h -0.512 l -1.848,-4.136 V 417 h -0.728 v -5.536 h 0.784 l 2.048,4.576 2.048,-4.576 z m 5.155,3.176 c 0,0.139 -0.008,0.285 -0.024,0.44 h -3.504 c 0.026,0.432 0.173,0.771 0.44,1.016 0.272,0.24 0.6,0.36 0.984,0.36 0.314,0 0.576,-0.072 0.784,-0.216 0.213,-0.149 0.362,-0.347 0.448,-0.592 h 0.784 c -0.118,0.421 -0.352,0.765 -0.704,1.032 -0.352,0.261 -0.79,0.392 -1.312,0.392 -0.416,0 -0.79,-0.093 -1.12,-0.28 -0.326,-0.187 -0.582,-0.451 -0.768,-0.792 -0.187,-0.347 -0.28,-0.747 -0.28,-1.2 0,-0.453 0.09,-0.851 0.272,-1.192 0.181,-0.341 0.434,-0.603 0.76,-0.784 0.33,-0.187 0.709,-0.28 1.136,-0.28 0.416,0 0.784,0.091 1.104,0.272 0.32,0.181 0.565,0.432 0.736,0.752 0.176,0.315 0.264,0.672 0.264,1.072 z m -0.752,-0.152 c 0,-0.277 -0.062,-0.515 -0.184,-0.712 -0.123,-0.203 -0.291,-0.355 -0.504,-0.456 -0.208,-0.107 -0.44,-0.16 -0.696,-0.16 -0.368,0 -0.683,0.117 -0.944,0.352 -0.256,0.235 -0.403,0.56 -0.44,0.976 z m 1.361,0.304 c 0,-0.448 0.09,-0.84 0.272,-1.176 0.181,-0.341 0.429,-0.605 0.744,-0.792 0.32,-0.187 0.677,-0.28 1.072,-0.28 0.341,0 0.658,0.08 0.952,0.24 0.293,0.155 0.517,0.36 0.672,0.616 v -2.32 h 0.736 V 417 h -0.736 v -0.824 c -0.144,0.261 -0.358,0.477 -0.64,0.648 -0.283,0.165 -0.614,0.248 -0.992,0.248 -0.39,0 -0.744,-0.096 -1.064,-0.288 -0.315,-0.192 -0.563,-0.461 -0.744,-0.808 -0.182,-0.347 -0.272,-0.741 -0.272,-1.184 z m 3.712,0.008 c 0,-0.331 -0.067,-0.619 -0.2,-0.864 -0.134,-0.245 -0.315,-0.432 -0.544,-0.56 -0.224,-0.133 -0.472,-0.2 -0.744,-0.2 -0.272,0 -0.52,0.064 -0.744,0.192 -0.224,0.128 -0.403,0.315 -0.536,0.56 -0.134,0.245 -0.2,0.533 -0.2,0.864 0,0.336 0.066,0.629 0.2,0.88 0.133,0.245 0.312,0.435 0.536,0.568 0.224,0.128 0.472,0.192 0.744,0.192 0.272,0 0.52,-0.064 0.744,-0.192 0.229,-0.133 0.41,-0.323 0.544,-0.568 0.133,-0.251 0.2,-0.541 0.2,-0.872 z m 2.262,-2.896 c -0.139,0 -0.256,-0.048 -0.352,-0.144 -0.096,-0.096 -0.144,-0.213 -0.144,-0.352 0,-0.139 0.048,-0.256 0.144,-0.352 0.096,-0.096 0.213,-0.144 0.352,-0.144 0.133,0 0.245,0.048 0.336,0.144 0.096,0.096 0.144,0.213 0.144,0.352 0,0.139 -0.048,0.256 -0.144,0.352 -0.091,0.096 -0.203,0.144 -0.336,0.144 z m 0.352,0.712 V 417 h -0.728 v -4.384 z m 0.889,2.184 c 0,-0.453 0.09,-0.848 0.272,-1.184 0.181,-0.341 0.432,-0.605 0.752,-0.792 0.325,-0.187 0.696,-0.28 1.112,-0.28 0.538,0 0.981,0.131 1.328,0.392 0.352,0.261 0.584,0.624 0.696,1.088 h -0.784 c -0.075,-0.267 -0.222,-0.477 -0.44,-0.632 -0.214,-0.155 -0.48,-0.232 -0.8,-0.232 -0.416,0 -0.752,0.144 -1.008,0.432 -0.256,0.283 -0.384,0.685 -0.384,1.208 0,0.528 0.128,0.936 0.384,1.224 0.256,0.288 0.592,0.432 1.008,0.432 0.32,0 0.586,-0.075 0.8,-0.224 0.213,-0.149 0.36,-0.363 0.44,-0.64 h 0.784 c -0.118,0.448 -0.352,0.808 -0.704,1.08 -0.352,0.267 -0.792,0.4 -1.32,0.4 -0.416,0 -0.787,-0.093 -1.112,-0.28 -0.32,-0.187 -0.571,-0.451 -0.752,-0.792 -0.182,-0.341 -0.272,-0.741 -0.272,-1.2 z m 4.779,-0.008 c 0,-0.448 0.091,-0.84 0.272,-1.176 0.181,-0.341 0.429,-0.605 0.744,-0.792 0.32,-0.187 0.675,-0.28 1.064,-0.28 0.384,0 0.717,0.083 1,0.248 0.283,0.165 0.493,0.373 0.632,0.624 v -0.8 h 0.736 V 417 h -0.736 v -0.816 c -0.144,0.256 -0.36,0.469 -0.648,0.64 -0.283,0.165 -0.613,0.248 -0.992,0.248 -0.389,0 -0.741,-0.096 -1.056,-0.288 -0.315,-0.192 -0.563,-0.461 -0.744,-0.808 -0.181,-0.347 -0.272,-0.741 -0.272,-1.184 z m 3.712,0.008 c 0,-0.331 -0.067,-0.619 -0.2,-0.864 -0.133,-0.245 -0.315,-0.432 -0.544,-0.56 -0.224,-0.133 -0.472,-0.2 -0.744,-0.2 -0.272,0 -0.52,0.064 -0.744,0.192 -0.224,0.128 -0.403,0.315 -0.536,0.56 -0.133,0.245 -0.2,0.533 -0.2,0.864 0,0.336 0.067,0.629 0.2,0.88 0.133,0.245 0.312,0.435 0.536,0.568 0.224,0.128 0.472,0.192 0.744,0.192 0.272,0 0.52,-0.064 0.744,-0.192 0.229,-0.133 0.411,-0.323 0.544,-0.568 0.133,-0.251 0.2,-0.541 0.2,-0.872 z m 2.774,-1.584 v 2.584 c 0,0.213 0.046,0.365 0.136,0.456 0.091,0.085 0.248,0.128 0.472,0.128 h 0.536 V 417 h -0.656 c -0.405,0 -0.709,-0.093 -0.912,-0.28 -0.202,-0.187 -0.304,-0.493 -0.304,-0.92 v -2.584 h -0.568 v -0.6 h 0.568 v -1.104 h 0.728 v 1.104 h 1.144 v 0.6 z m 2.322,-1.312 c -0.138,0 -0.256,-0.048 -0.352,-0.144 -0.096,-0.096 -0.144,-0.213 -0.144,-0.352 0,-0.139 0.048,-0.256 0.144,-0.352 0.096,-0.096 0.214,-0.144 0.352,-0.144 0.134,0 0.246,0.048 0.336,0.144 0.096,0.096 0.144,0.213 0.144,0.352 0,0.139 -0.048,0.256 -0.144,0.352 -0.09,0.096 -0.202,0.144 -0.336,0.144 z m 0.352,0.712 V 417 h -0.728 v -4.384 z m 3.073,4.456 c -0.411,0 -0.784,-0.093 -1.12,-0.28 -0.331,-0.187 -0.592,-0.451 -0.784,-0.792 -0.187,-0.347 -0.28,-0.747 -0.28,-1.2 0,-0.448 0.096,-0.843 0.288,-1.184 0.197,-0.347 0.464,-0.611 0.8,-0.792 0.336,-0.187 0.712,-0.28 1.128,-0.28 0.416,0 0.792,0.093 1.128,0.28 0.336,0.181 0.6,0.443 0.792,0.784 0.197,0.341 0.296,0.739 0.296,1.192 0,0.453 -0.101,0.853 -0.304,1.2 -0.197,0.341 -0.467,0.605 -0.808,0.792 -0.341,0.187 -0.72,0.28 -1.136,0.28 z m 0,-0.64 c 0.261,0 0.507,-0.061 0.736,-0.184 0.229,-0.123 0.413,-0.307 0.552,-0.552 0.144,-0.245 0.216,-0.544 0.216,-0.896 0,-0.352 -0.069,-0.651 -0.208,-0.896 -0.139,-0.245 -0.32,-0.427 -0.544,-0.544 -0.224,-0.123 -0.467,-0.184 -0.728,-0.184 -0.267,0 -0.512,0.061 -0.736,0.184 -0.219,0.117 -0.395,0.299 -0.528,0.544 -0.133,0.245 -0.2,0.544 -0.2,0.896 0,0.357 0.064,0.659 0.192,0.904 0.133,0.245 0.309,0.429 0.528,0.552 0.219,0.117 0.459,0.176 0.72,0.176 z m 5.261,-3.896 c 0.534,0 0.966,0.163 1.296,0.488 0.331,0.32 0.496,0.784 0.496,1.392 V 417 h -0.72 v -2.48 c 0,-0.437 -0.109,-0.771 -0.328,-1 -0.218,-0.235 -0.517,-0.352 -0.896,-0.352 -0.384,0 -0.69,0.12 -0.92,0.36 -0.224,0.24 -0.336,0.589 -0.336,1.048 V 417 h -0.728 v -4.384 h 0.728 v 0.624 c 0.144,-0.224 0.339,-0.397 0.584,-0.52 0.251,-0.123 0.526,-0.184 0.824,-0.184 z m 4.454,4.536 c -0.336,0 -0.638,-0.056 -0.904,-0.168 -0.267,-0.117 -0.478,-0.277 -0.632,-0.48 -0.155,-0.208 -0.24,-0.445 -0.256,-0.712 h 0.752 c 0.021,0.219 0.122,0.397 0.304,0.536 0.186,0.139 0.429,0.208 0.728,0.208 0.277,0 0.496,-0.061 0.656,-0.184 0.16,-0.123 0.24,-0.277 0.24,-0.464 0,-0.192 -0.086,-0.333 -0.256,-0.424 -0.171,-0.096 -0.435,-0.189 -0.792,-0.28 -0.326,-0.085 -0.592,-0.171 -0.8,-0.256 -0.203,-0.091 -0.379,-0.221 -0.528,-0.392 -0.144,-0.176 -0.216,-0.405 -0.216,-0.688 0,-0.224 0.066,-0.429 0.2,-0.616 0.133,-0.187 0.322,-0.333 0.568,-0.44 0.245,-0.112 0.525,-0.168 0.84,-0.168 0.485,0 0.877,0.123 1.176,0.368 0.298,0.245 0.458,0.581 0.48,1.008 h -0.728 c -0.016,-0.229 -0.11,-0.413 -0.28,-0.552 -0.166,-0.139 -0.39,-0.208 -0.672,-0.208 -0.262,0 -0.47,0.056 -0.624,0.168 -0.155,0.112 -0.232,0.259 -0.232,0.44 0,0.144 0.045,0.264 0.136,0.36 0.096,0.091 0.213,0.165 0.352,0.224 0.144,0.053 0.341,0.115 0.592,0.184 0.314,0.085 0.57,0.171 0.768,0.256 0.197,0.08 0.365,0.203 0.504,0.368 0.144,0.165 0.218,0.381 0.224,0.648 0,0.24 -0.067,0.456 -0.2,0.648 -0.134,0.192 -0.323,0.344 -0.568,0.456 -0.24,0.107 -0.518,0.16 -0.832,0.16 z"
     fill="#363636"
     id="path32" />
  <path
     d="m 160.344,416.408 h 1.952 V 417 h -2.68 v -5.576 h 0.728 z m 2.373,-1.616 c 0,-0.448 0.091,-0.84 0.272,-1.176 0.181,-0.341 0.429,-0.605 0.744,-0.792 0.32,-0.187 0.675,-0.28 1.064,-0.28 0.384,0 0.717,0.083 1,0.248 0.283,0.165 0.493,0.373 0.632,0.624 v -0.8 h 0.736 V 417 h -0.736 v -0.816 c -0.144,0.256 -0.36,0.469 -0.648,0.64 -0.283,0.165 -0.613,0.248 -0.992,0.248 -0.389,0 -0.741,-0.096 -1.056,-0.288 -0.315,-0.192 -0.563,-0.461 -0.744,-0.808 -0.181,-0.347 -0.272,-0.741 -0.272,-1.184 z m 3.712,0.008 c 0,-0.331 -0.067,-0.619 -0.2,-0.864 -0.133,-0.245 -0.315,-0.432 -0.544,-0.56 -0.224,-0.133 -0.472,-0.2 -0.744,-0.2 -0.272,0 -0.52,0.064 -0.744,0.192 -0.224,0.128 -0.403,0.315 -0.536,0.56 -0.133,0.245 -0.2,0.533 -0.2,0.864 0,0.336 0.067,0.629 0.2,0.88 0.133,0.245 0.312,0.435 0.536,0.568 0.224,0.128 0.472,0.192 0.744,0.192 0.272,0 0.52,-0.064 0.744,-0.192 0.229,-0.133 0.411,-0.323 0.544,-0.568 0.133,-0.251 0.2,-0.541 0.2,-0.872 z m 3.438,2.272 c -0.336,0 -0.637,-0.056 -0.904,-0.168 -0.266,-0.117 -0.477,-0.277 -0.632,-0.48 -0.154,-0.208 -0.24,-0.445 -0.256,-0.712 h 0.752 c 0.022,0.219 0.123,0.397 0.304,0.536 0.187,0.139 0.43,0.208 0.728,0.208 0.278,0 0.496,-0.061 0.656,-0.184 0.16,-0.123 0.24,-0.277 0.24,-0.464 0,-0.192 -0.085,-0.333 -0.256,-0.424 -0.17,-0.096 -0.434,-0.189 -0.792,-0.28 -0.325,-0.085 -0.592,-0.171 -0.8,-0.256 -0.202,-0.091 -0.378,-0.221 -0.528,-0.392 -0.144,-0.176 -0.216,-0.405 -0.216,-0.688 0,-0.224 0.067,-0.429 0.2,-0.616 0.134,-0.187 0.323,-0.333 0.568,-0.44 0.246,-0.112 0.526,-0.168 0.84,-0.168 0.486,0 0.878,0.123 1.176,0.368 0.299,0.245 0.459,0.581 0.48,1.008 h -0.728 c -0.016,-0.229 -0.109,-0.413 -0.28,-0.552 -0.165,-0.139 -0.389,-0.208 -0.672,-0.208 -0.261,0 -0.469,0.056 -0.624,0.168 -0.154,0.112 -0.232,0.259 -0.232,0.44 0,0.144 0.046,0.264 0.136,0.36 0.096,0.091 0.214,0.165 0.352,0.224 0.144,0.053 0.342,0.115 0.592,0.184 0.315,0.085 0.571,0.171 0.768,0.256 0.198,0.08 0.366,0.203 0.504,0.368 0.144,0.165 0.219,0.381 0.224,0.648 0,0.24 -0.066,0.456 -0.2,0.648 -0.133,0.192 -0.322,0.344 -0.568,0.456 -0.24,0.107 -0.517,0.16 -0.832,0.16 z m 3.436,-3.856 v 2.584 c 0,0.213 0.045,0.365 0.136,0.456 0.091,0.085 0.248,0.128 0.472,0.128 h 0.536 V 417 h -0.656 c -0.405,0 -0.709,-0.093 -0.912,-0.28 -0.203,-0.187 -0.304,-0.493 -0.304,-0.92 v -2.584 h -0.568 v -0.6 h 0.568 v -1.104 h 0.728 v 1.104 h 1.144 v 0.6 z m 5.631,3.112 1.36,-3.712 h 0.776 L 179.35,417 h -0.848 l -1.72,-4.384 h 0.784 z m 3.148,-4.424 c -0.138,0 -0.256,-0.048 -0.352,-0.144 -0.096,-0.096 -0.144,-0.213 -0.144,-0.352 0,-0.139 0.048,-0.256 0.144,-0.352 0.096,-0.096 0.214,-0.144 0.352,-0.144 0.134,0 0.246,0.048 0.336,0.144 0.096,0.096 0.144,0.213 0.144,0.352 0,0.139 -0.048,0.256 -0.144,0.352 -0.09,0.096 -0.202,0.144 -0.336,0.144 z m 0.352,0.712 V 417 h -0.728 v -4.384 z m 2.713,4.456 c -0.336,0 -0.637,-0.056 -0.904,-0.168 -0.267,-0.117 -0.477,-0.277 -0.632,-0.48 -0.155,-0.208 -0.24,-0.445 -0.256,-0.712 h 0.752 c 0.021,0.219 0.123,0.397 0.304,0.536 0.187,0.139 0.429,0.208 0.728,0.208 0.277,0 0.496,-0.061 0.656,-0.184 0.16,-0.123 0.24,-0.277 0.24,-0.464 0,-0.192 -0.085,-0.333 -0.256,-0.424 -0.171,-0.096 -0.435,-0.189 -0.792,-0.28 -0.325,-0.085 -0.592,-0.171 -0.8,-0.256 -0.203,-0.091 -0.379,-0.221 -0.528,-0.392 -0.144,-0.176 -0.216,-0.405 -0.216,-0.688 0,-0.224 0.067,-0.429 0.2,-0.616 0.133,-0.187 0.323,-0.333 0.568,-0.44 0.245,-0.112 0.525,-0.168 0.84,-0.168 0.485,0 0.877,0.123 1.176,0.368 0.299,0.245 0.459,0.581 0.48,1.008 h -0.728 c -0.016,-0.229 -0.109,-0.413 -0.28,-0.552 -0.165,-0.139 -0.389,-0.208 -0.672,-0.208 -0.261,0 -0.469,0.056 -0.624,0.168 -0.155,0.112 -0.232,0.259 -0.232,0.44 0,0.144 0.045,0.264 0.136,0.36 0.096,0.091 0.213,0.165 0.352,0.224 0.144,0.053 0.341,0.115 0.592,0.184 0.315,0.085 0.571,0.171 0.768,0.256 0.197,0.08 0.365,0.203 0.504,0.368 0.144,0.165 0.219,0.381 0.224,0.648 0,0.24 -0.067,0.456 -0.2,0.648 -0.133,0.192 -0.323,0.344 -0.568,0.456 -0.24,0.107 -0.517,0.16 -0.832,0.16 z m 2.924,-5.168 c -0.139,0 -0.256,-0.048 -0.352,-0.144 -0.096,-0.096 -0.144,-0.213 -0.144,-0.352 0,-0.139 0.048,-0.256 0.144,-0.352 0.096,-0.096 0.213,-0.144 0.352,-0.144 0.133,0 0.245,0.048 0.336,0.144 0.096,0.096 0.144,0.213 0.144,0.352 0,0.139 -0.048,0.256 -0.144,0.352 -0.091,0.096 -0.203,0.144 -0.336,0.144 z m 0.352,0.712 V 417 h -0.728 v -4.384 z m 2.049,0.6 v 2.584 c 0,0.213 0.045,0.365 0.136,0.456 0.09,0.085 0.248,0.128 0.472,0.128 h 0.536 V 417 h -0.656 c -0.406,0 -0.71,-0.093 -0.912,-0.28 -0.203,-0.187 -0.304,-0.493 -0.304,-0.92 v -2.584 h -0.568 v -0.6 h 0.568 v -1.104 h 0.728 v 1.104 h 1.144 v 0.6 z"
     fill="#363636"
     id="path33" />
  <line
     x1="65"
     y1="430.5"
     x2="425"
     y2="430.5"
     stroke="#f2f2f2"
     id="line33" />
  <rect
     x="159"
     y="445"
     width="24.5478"
     height="7.3643398"
     rx="3.6821699"
     fill="#f2f2f2"
     id="rect33" />
  <rect
     x="89"
     y="446"
     width="50"
     height="7"
     rx="3.5"
     fill="#f2f2f2"
     id="rect34" />
  <rect
     x="215"
     y="445"
     width="112.92"
     height="7.3643398"
     rx="3.6821699"
     fill="#f2f2f2"
     id="rect35" />
  <rect
     x="354.48297"
     y="445"
     width="24.5478"
     height="7.3643398"
     rx="3.6821699"
     fill="#f2f2f2"
     id="rect36" />
  <rect
     x="383.94"
     y="445"
     width="24.5478"
     height="7.3643398"
     rx="3.6821699"
     fill="#f2f2f2"
     id="rect37" />
  <circle
     cx="75"
     cy="449"
     r="10"
     fill="#eddeff"
     id="circle37" />
  <g
     clip-path="url(#clip2_670_8746)"
     id="g38"
     transform="translate(-194,96)">
    <path
       d="m 269,348.833 c 0.412,0 0.815,0.122 1.157,0.351 0.343,0.229 0.61,0.555 0.768,0.935 0.157,0.381 0.199,0.8 0.118,1.204 -0.08,0.404 -0.279,0.775 -0.57,1.067 -0.291,0.291 -0.662,0.49 -1.067,0.57 -0.404,0.08 -0.823,0.039 -1.203,-0.119 -0.381,-0.157 -0.706,-0.424 -0.935,-0.767 -0.229,-0.343 -0.351,-0.745 -0.351,-1.157 l 0.002,-0.091 c 0.023,-0.536 0.252,-1.043 0.64,-1.414 0.388,-0.371 0.904,-0.579 1.441,-0.579 z"
       fill="#ffffff"
       id="path37" />
    <path
       d="m 269.833,353.833 c 0.553,0 1.083,0.22 1.473,0.61 0.391,0.391 0.611,0.921 0.611,1.474 v 0.416 c 0,0.221 -0.088,0.433 -0.244,0.59 -0.157,0.156 -0.369,0.244 -0.59,0.244 h -4.166 c -0.221,0 -0.433,-0.088 -0.59,-0.244 -0.156,-0.157 -0.244,-0.369 -0.244,-0.59 v -0.416 c 0,-0.553 0.22,-1.083 0.611,-1.474 0.39,-0.39 0.92,-0.61 1.473,-0.61 z"
       fill="#ffffff"
       id="path38" />
  </g>
  <line
     x1="65"
     y1="466.5"
     x2="425.48297"
     y2="466.5"
     stroke="#f2f2f2"
     id="line38" />
  <rect
     x="159"
     y="481"
     width="24.5478"
     height="7.3643398"
     rx="3.6821699"
     fill="#f2f2f2"
     id="rect38" />
  <rect
     x="89"
     y="482"
     width="50"
     height="7"
     rx="3.5"
     fill="#f2f2f2"
     id="rect39" />
  <rect
     x="215"
     y="481"
     width="93"
     height="7"
     rx="3.5"
     fill="#f2f2f2"
     id="rect40" />
  <rect
     x="354.48297"
     y="481"
     width="71"
     height="7"
     rx="3.5"
     fill="#f2f2f2"
     id="rect41" />
  <circle
     cx="75"
     cy="485"
     r="10"
     fill="#ffe999"
     id="circle41" />
  <g
     clip-path="url(#clip3_670_8746)"
     id="g42"
     transform="translate(-194,96)">
    <path
       d="m 269,384.833 c 0.412,0 0.815,0.122 1.157,0.351 0.343,0.229 0.61,0.555 0.768,0.935 0.157,0.381 0.199,0.8 0.118,1.204 -0.08,0.404 -0.279,0.775 -0.57,1.067 -0.291,0.291 -0.662,0.49 -1.067,0.57 -0.404,0.08 -0.823,0.039 -1.203,-0.119 -0.381,-0.157 -0.706,-0.424 -0.935,-0.767 -0.229,-0.343 -0.351,-0.745 -0.351,-1.157 l 0.002,-0.091 c 0.023,-0.536 0.252,-1.043 0.64,-1.414 0.388,-0.371 0.904,-0.579 1.441,-0.579 z"
       fill="#ffffff"
       id="path41" />
    <path
       d="m 269.833,389.833 c 0.553,0 1.083,0.22 1.473,0.61 0.391,0.391 0.611,0.921 0.611,1.474 v 0.416 c 0,0.221 -0.088,0.433 -0.244,0.59 -0.157,0.156 -0.369,0.244 -0.59,0.244 h -4.166 c -0.221,0 -0.433,-0.088 -0.59,-0.244 -0.156,-0.157 -0.244,-0.369 -0.244,-0.59 v -0.416 c 0,-0.553 0.22,-1.083 0.611,-1.474 0.39,-0.39 0.92,-0.61 1.473,-0.61 z"
       fill="#ffffff"
       id="path42" />
  </g>
  <line
     x1="65"
     y1="502.5"
     x2="425.48297"
     y2="502.5"
     stroke="#f2f2f2"
     id="line42" />
  <rect
     x="159"
     y="517"
     width="24.5478"
     height="7.3643398"
     rx="3.6821699"
     fill="#f2f2f2"
     id="rect42" />
  <rect
     x="89"
     y="518"
     width="40"
     height="7"
     rx="3.5"
     fill="#f2f2f2"
     id="rect43" />
  <rect
     x="215"
     y="517"
     width="105"
     height="7"
     rx="3.5"
     fill="#f2f2f2"
     id="rect44" />
  <rect
     x="354.48297"
     y="517"
     width="50"
     height="7"
     rx="3.5"
     fill="#f2f2f2"
     id="rect45" />
  <circle
     cx="75"
     cy="521"
     r="10"
     fill="#9ea9fd"
     id="circle45" />
  <g
     clip-path="url(#clip4_670_8746)"
     id="g46"
     transform="translate(-194,96)">
    <path
       d="m 269,420.833 c 0.412,0 0.815,0.122 1.157,0.351 0.343,0.229 0.61,0.555 0.768,0.935 0.157,0.381 0.199,0.8 0.118,1.204 -0.08,0.404 -0.279,0.775 -0.57,1.067 -0.291,0.291 -0.662,0.49 -1.067,0.57 -0.404,0.08 -0.823,0.039 -1.203,-0.119 -0.381,-0.157 -0.706,-0.424 -0.935,-0.767 -0.229,-0.343 -0.351,-0.745 -0.351,-1.157 l 0.002,-0.091 c 0.023,-0.536 0.252,-1.043 0.64,-1.414 0.388,-0.371 0.904,-0.579 1.441,-0.579 z"
       fill="#ffffff"
       id="path45" />
    <path
       d="m 269.833,425.833 c 0.553,0 1.083,0.22 1.473,0.61 0.391,0.391 0.611,0.921 0.611,1.474 v 0.416 c 0,0.221 -0.088,0.433 -0.244,0.59 -0.157,0.156 -0.369,0.244 -0.59,0.244 h -4.166 c -0.221,0 -0.433,-0.088 -0.59,-0.244 -0.156,-0.157 -0.244,-0.369 -0.244,-0.59 v -0.416 c 0,-0.553 0.22,-1.083 0.611,-1.474 0.39,-0.39 0.92,-0.61 1.473,-0.61 z"
       fill="#ffffff"
       id="path46" />
  </g>
  <line
     x1="65"
     y1="538.5"
     x2="425.48297"
     y2="538.5"
     stroke="#f2f2f2"
     id="line46" />
  <rect
     x="159"
     y="553"
     width="24.5478"
     height="7.3643398"
     rx="3.6821699"
     fill="#f2f2f2"
     id="rect46" />
  <rect
     x="89"
     y="554"
     width="40"
     height="7"
     rx="3.5"
     fill="#f2f2f2"
     id="rect47" />
  <rect
     x="215"
     y="553"
     width="112.92"
     height="7.3643398"
     rx="3.6821699"
     fill="#f2f2f2"
     id="rect48" />
  <rect
     x="354.48297"
     y="553"
     width="36.821701"
     height="7.3643398"
     rx="3.6821699"
     fill="#f2f2f2"
     id="rect49" />
  <circle
     cx="75"
     cy="557"
     r="10"
     fill="#eddeff"
     id="circle49" />
  <g
     clip-path="url(#clip5_670_8746)"
     id="g50"
     transform="translate(-194,96)">
    <path
       d="m 269,456.833 c 0.412,0 0.815,0.122 1.157,0.351 0.343,0.229 0.61,0.555 0.768,0.935 0.157,0.381 0.199,0.8 0.118,1.204 -0.08,0.404 -0.279,0.775 -0.57,1.067 -0.291,0.291 -0.662,0.49 -1.067,0.57 -0.404,0.08 -0.823,0.039 -1.203,-0.119 -0.381,-0.157 -0.706,-0.424 -0.935,-0.767 -0.229,-0.343 -0.351,-0.745 -0.351,-1.157 l 0.002,-0.091 c 0.023,-0.536 0.252,-1.043 0.64,-1.414 0.388,-0.371 0.904,-0.579 1.441,-0.579 z"
       fill="#ffffff"
       id="path49" />
    <path
       d="m 269.833,461.833 c 0.553,0 1.083,0.22 1.473,0.61 0.391,0.391 0.611,0.921 0.611,1.474 v 0.416 c 0,0.221 -0.088,0.433 -0.244,0.59 -0.157,0.156 -0.369,0.244 -0.59,0.244 h -4.166 c -0.221,0 -0.433,-0.088 -0.59,-0.244 -0.156,-0.157 -0.244,-0.369 -0.244,-0.59 v -0.416 c 0,-0.553 0.22,-1.083 0.611,-1.474 0.39,-0.39 0.92,-0.61 1.473,-0.61 z"
       fill="#ffffff"
       id="path50" />
  </g>
  <line
     x1="65"
     y1="574.5"
     x2="425.48297"
     y2="574.5"
     stroke="#f2f2f2"
     id="line50" />
  <rect
     x="159"
     y="589"
     width="24.5478"
     height="7.3643398"
     rx="3.6821699"
     fill="#f2f2f2"
     id="rect50" />
  <rect
     x="89"
     y="590"
     width="50"
     height="7"
     rx="3.5"
     fill="#f2f2f2"
     id="rect51" />
  <rect
     x="215"
     y="589"
     width="105"
     height="7"
     rx="3.5"
     fill="#f2f2f2"
     id="rect52" />
  <rect
     x="354.48297"
     y="589"
     width="24.5478"
     height="7.3643398"
     rx="3.6821699"
     fill="#f2f2f2"
     id="rect53" />
  <rect
     x="383.94"
     y="589"
     width="24.5478"
     height="7.3643398"
     rx="3.6821699"
     fill="#f2f2f2"
     id="rect54" />
  <circle
     cx="75"
     cy="593"
     r="10"
     fill="#9f9f9f"
     id="circle54" />
  <g
     clip-path="url(#clip6_670_8746)"
     id="g55"
     transform="translate(-194,96)">
    <path
       d="m 269,492.833 c 0.412,0 0.815,0.122 1.157,0.351 0.343,0.229 0.61,0.555 0.768,0.935 0.157,0.381 0.199,0.8 0.118,1.204 -0.08,0.404 -0.279,0.775 -0.57,1.067 -0.291,0.291 -0.662,0.49 -1.067,0.57 -0.404,0.08 -0.823,0.039 -1.203,-0.119 -0.381,-0.157 -0.706,-0.424 -0.935,-0.767 -0.229,-0.343 -0.351,-0.745 -0.351,-1.157 l 0.002,-0.091 c 0.023,-0.536 0.252,-1.043 0.64,-1.414 0.388,-0.371 0.904,-0.579 1.441,-0.579 z"
       fill="#ffffff"
       id="path54" />
    <path
       d="m 269.833,497.833 c 0.553,0 1.083,0.22 1.473,0.61 0.391,0.391 0.611,0.921 0.611,1.474 v 0.416 c 0,0.221 -0.088,0.433 -0.244,0.59 -0.157,0.156 -0.369,0.244 -0.59,0.244 h -4.166 c -0.221,0 -0.433,-0.088 -0.59,-0.244 -0.156,-0.157 -0.244,-0.369 -0.244,-0.59 v -0.416 c 0,-0.553 0.22,-1.083 0.611,-1.474 0.39,-0.39 0.92,-0.61 1.473,-0.61 z"
       fill="#ffffff"
       id="path55" />
  </g>
  <line
     x1="65"
     y1="610.5"
     x2="425.48297"
     y2="610.5"
     stroke="#f2f2f2"
     id="line55" />
  <rect
     x="159"
     y="625"
     width="24.5478"
     height="7.3643398"
     rx="3.6821699"
     fill="#f2f2f2"
     id="rect55" />
  <rect
     x="89"
     y="626"
     width="40"
     height="7"
     rx="3.5"
     fill="#f2f2f2"
     id="rect56" />
  <rect
     x="215"
     y="625"
     width="87"
     height="7"
     rx="3.5"
     fill="#f2f2f2"
     id="rect57" />
  <rect
     x="354.48297"
     y="625"
     width="71"
     height="7"
     rx="3.5"
     fill="#f2f2f2"
     id="rect58" />
  <circle
     cx="75"
     cy="629"
     r="10"
     fill="#c67dff"
     id="circle58" />
  <g
     clip-path="url(#clip7_670_8746)"
     id="g59"
     transform="translate(-194,96)">
    <path
       d="m 269,528.833 c 0.412,0 0.815,0.122 1.157,0.351 0.343,0.229 0.61,0.555 0.768,0.935 0.157,0.381 0.199,0.8 0.118,1.204 -0.08,0.404 -0.279,0.775 -0.57,1.067 -0.291,0.291 -0.662,0.49 -1.067,0.57 -0.404,0.08 -0.823,0.039 -1.203,-0.119 -0.381,-0.157 -0.706,-0.424 -0.935,-0.767 -0.229,-0.343 -0.351,-0.745 -0.351,-1.157 l 0.002,-0.091 c 0.023,-0.536 0.252,-1.043 0.64,-1.414 0.388,-0.371 0.904,-0.579 1.441,-0.579 z"
       fill="#ffffff"
       id="path58" />
    <path
       d="m 269.833,533.833 c 0.553,0 1.083,0.22 1.473,0.61 0.391,0.391 0.611,0.921 0.611,1.474 v 0.416 c 0,0.221 -0.088,0.433 -0.244,0.59 -0.157,0.156 -0.369,0.244 -0.59,0.244 h -4.166 c -0.221,0 -0.433,-0.088 -0.59,-0.244 -0.156,-0.157 -0.244,-0.369 -0.244,-0.59 v -0.416 c 0,-0.553 0.22,-1.083 0.611,-1.474 0.39,-0.39 0.92,-0.61 1.473,-0.61 z"
       fill="#ffffff"
       id="path59" />
  </g>
  <line
     x1="65"
     y1="646.5"
     x2="425.48297"
     y2="646.5"
     stroke="#f2f2f2"
     id="line59" />
  <rect
     x="159"
     y="661"
     width="24.5478"
     height="7.3643398"
     rx="3.6821699"
     fill="#f2f2f2"
     id="rect59" />
  <rect
     x="89"
     y="662"
     width="40"
     height="7"
     rx="3.5"
     fill="#f2f2f2"
     id="rect60" />
  <rect
     x="215"
     y="661"
     width="87"
     height="7"
     rx="3.5"
     fill="#f2f2f2"
     id="rect61" />
  <rect
     x="354.48297"
     y="661"
     width="71"
     height="7"
     rx="3.5"
     fill="#f2f2f2"
     id="rect62" />
  <circle
     cx="75"
     cy="665"
     r="10"
     fill="#ffbe67"
     id="circle62" />
  <g
     clip-path="url(#clip8_670_8746)"
     id="g63"
     transform="translate(-194,96)">
    <path
       d="m 269,564.833 c 0.412,0 0.815,0.122 1.157,0.351 0.343,0.229 0.61,0.555 0.768,0.935 0.157,0.381 0.199,0.8 0.118,1.204 -0.08,0.404 -0.279,0.775 -0.57,1.067 -0.291,0.291 -0.662,0.49 -1.067,0.57 -0.404,0.08 -0.823,0.039 -1.203,-0.119 -0.381,-0.157 -0.706,-0.424 -0.935,-0.767 -0.229,-0.343 -0.351,-0.745 -0.351,-1.157 l 0.002,-0.091 c 0.023,-0.536 0.252,-1.043 0.64,-1.414 0.388,-0.371 0.904,-0.579 1.441,-0.579 z"
       fill="#ffffff"
       id="path62" />
    <path
       d="m 269.833,569.833 c 0.553,0 1.083,0.22 1.473,0.61 0.391,0.391 0.611,0.921 0.611,1.474 v 0.416 c 0,0.221 -0.088,0.433 -0.244,0.59 -0.157,0.156 -0.369,0.244 -0.59,0.244 h -4.166 c -0.221,0 -0.433,-0.088 -0.59,-0.244 -0.156,-0.157 -0.244,-0.369 -0.244,-0.59 v -0.416 c 0,-0.553 0.22,-1.083 0.611,-1.474 0.39,-0.39 0.92,-0.61 1.473,-0.61 z"
       fill="#ffffff"
       id="path63" />
  </g>
  <path
     d="m 136.854,359.168 c 0,0.495 -0.117,0.961 -0.35,1.4 -0.233,0.439 -0.607,0.798 -1.12,1.078 -0.513,0.271 -1.171,0.406 -1.974,0.406 h -1.764 V 366 h -1.596 v -9.73 h 3.36 c 0.747,0 1.377,0.131 1.89,0.392 0.523,0.252 0.91,0.597 1.162,1.036 0.261,0.439 0.392,0.929 0.392,1.47 z m -3.444,1.582 c 0.607,0 1.059,-0.135 1.358,-0.406 0.299,-0.28 0.448,-0.672 0.448,-1.176 0,-1.064 -0.602,-1.596 -1.806,-1.596 h -1.764 v 3.178 z m 4.154,1.358 c 0,-0.775 0.159,-1.461 0.476,-2.058 0.327,-0.597 0.766,-1.059 1.316,-1.386 0.56,-0.336 1.176,-0.504 1.848,-0.504 0.607,0 1.134,0.121 1.582,0.364 0.458,0.233 0.822,0.527 1.092,0.882 v -1.12 h 1.61 V 366 h -1.61 v -1.148 c -0.27,0.364 -0.639,0.667 -1.106,0.91 -0.466,0.243 -0.998,0.364 -1.596,0.364 -0.662,0 -1.269,-0.168 -1.82,-0.504 -0.55,-0.345 -0.989,-0.821 -1.316,-1.428 -0.317,-0.616 -0.476,-1.311 -0.476,-2.086 z m 6.314,0.028 c 0,-0.532 -0.112,-0.994 -0.336,-1.386 -0.214,-0.392 -0.499,-0.691 -0.854,-0.896 -0.354,-0.205 -0.737,-0.308 -1.148,-0.308 -0.41,0 -0.793,0.103 -1.148,0.308 -0.354,0.196 -0.644,0.49 -0.868,0.882 -0.214,0.383 -0.322,0.84 -0.322,1.372 0,0.532 0.108,0.999 0.322,1.4 0.224,0.401 0.514,0.709 0.868,0.924 0.364,0.205 0.747,0.308 1.148,0.308 0.411,0 0.794,-0.103 1.148,-0.308 0.355,-0.205 0.64,-0.504 0.854,-0.896 0.224,-0.401 0.336,-0.868 0.336,-1.4 z m 5.288,-2.548 v 4.27 c 0,0.289 0.066,0.499 0.196,0.63 0.14,0.121 0.374,0.182 0.7,0.182 h 0.98 V 366 h -1.26 c -0.718,0 -1.269,-0.168 -1.652,-0.504 -0.382,-0.336 -0.574,-0.882 -0.574,-1.638 v -4.27 h -0.91 v -1.302 h 0.91 v -1.918 h 1.61 v 1.918 h 1.876 v 1.302 z m 3.879,-2.324 c -0.289,0 -0.532,-0.098 -0.728,-0.294 -0.196,-0.196 -0.294,-0.439 -0.294,-0.728 0,-0.289 0.098,-0.532 0.294,-0.728 0.196,-0.196 0.439,-0.294 0.728,-0.294 0.28,0 0.518,0.098 0.714,0.294 0.196,0.196 0.294,0.439 0.294,0.728 0,0.289 -0.098,0.532 -0.294,0.728 -0.196,0.196 -0.434,0.294 -0.714,0.294 z m 0.784,1.022 V 366 h -1.596 v -7.714 z m 8.886,3.668 c 0,0.289 -0.019,0.551 -0.056,0.784 h -5.894 c 0.047,0.616 0.275,1.111 0.686,1.484 0.411,0.373 0.915,0.56 1.512,0.56 0.859,0 1.465,-0.359 1.82,-1.078 h 1.722 c -0.233,0.709 -0.658,1.293 -1.274,1.75 -0.607,0.448 -1.363,0.672 -2.268,0.672 -0.737,0 -1.4,-0.163 -1.988,-0.49 -0.579,-0.336 -1.036,-0.803 -1.372,-1.4 -0.327,-0.607 -0.49,-1.307 -0.49,-2.1 0,-0.793 0.159,-1.489 0.476,-2.086 0.327,-0.607 0.779,-1.073 1.358,-1.4 0.588,-0.327 1.26,-0.49 2.016,-0.49 0.728,0 1.377,0.159 1.946,0.476 0.569,0.317 1.013,0.765 1.33,1.344 0.317,0.569 0.476,1.227 0.476,1.974 z m -1.666,-0.504 c -0.009,-0.588 -0.219,-1.059 -0.63,-1.414 -0.411,-0.355 -0.919,-0.532 -1.526,-0.532 -0.551,0 -1.022,0.177 -1.414,0.532 -0.392,0.345 -0.625,0.817 -0.7,1.414 z m 6.848,-3.29 c 0.607,0 1.148,0.126 1.624,0.378 0.486,0.252 0.864,0.625 1.134,1.12 0.271,0.495 0.406,1.092 0.406,1.792 V 366 h -1.582 v -4.312 c 0,-0.691 -0.172,-1.218 -0.518,-1.582 -0.345,-0.373 -0.816,-0.56 -1.414,-0.56 -0.597,0 -1.073,0.187 -1.428,0.56 -0.345,0.364 -0.518,0.891 -0.518,1.582 V 366 h -1.596 v -7.714 h 1.596 v 0.882 c 0.262,-0.317 0.593,-0.565 0.994,-0.742 0.411,-0.177 0.845,-0.266 1.302,-0.266 z m 6.782,1.428 v 4.27 c 0,0.289 0.066,0.499 0.196,0.63 0.14,0.121 0.374,0.182 0.7,0.182 h 0.98 V 366 h -1.26 c -0.718,0 -1.269,-0.168 -1.652,-0.504 -0.382,-0.336 -0.574,-0.882 -0.574,-1.638 v -4.27 h -0.91 v -1.302 h 0.91 v -1.918 h 1.61 v 1.918 h 1.876 v 1.302 z m 8.02,5.124 h 3.29 V 366 h -4.886 v -9.73 h 1.596 z m 5.157,-7.448 c -0.29,0 -0.532,-0.098 -0.728,-0.294 -0.196,-0.196 -0.294,-0.439 -0.294,-0.728 0,-0.289 0.098,-0.532 0.294,-0.728 0.196,-0.196 0.438,-0.294 0.728,-0.294 0.28,0 0.518,0.098 0.714,0.294 0.196,0.196 0.294,0.439 0.294,0.728 0,0.289 -0.098,0.532 -0.294,0.728 -0.196,0.196 -0.434,0.294 -0.714,0.294 z m 0.784,1.022 V 366 h -1.596 v -7.714 z m 4.615,7.84 c -0.607,0 -1.153,-0.107 -1.638,-0.322 -0.476,-0.224 -0.854,-0.523 -1.134,-0.896 -0.28,-0.383 -0.429,-0.807 -0.448,-1.274 h 1.652 c 0.028,0.327 0.182,0.602 0.462,0.826 0.289,0.215 0.649,0.322 1.078,0.322 0.448,0 0.793,-0.084 1.036,-0.252 0.252,-0.177 0.378,-0.401 0.378,-0.672 0,-0.289 -0.14,-0.504 -0.42,-0.644 -0.271,-0.14 -0.705,-0.294 -1.302,-0.462 -0.579,-0.159 -1.05,-0.313 -1.414,-0.462 -0.364,-0.149 -0.681,-0.378 -0.952,-0.686 -0.261,-0.308 -0.392,-0.714 -0.392,-1.218 0,-0.411 0.121,-0.784 0.364,-1.12 0.243,-0.345 0.588,-0.616 1.036,-0.812 0.457,-0.196 0.98,-0.294 1.568,-0.294 0.877,0 1.582,0.224 2.114,0.672 0.541,0.439 0.831,1.041 0.868,1.806 h -1.596 c -0.028,-0.345 -0.168,-0.621 -0.42,-0.826 -0.252,-0.205 -0.593,-0.308 -1.022,-0.308 -0.42,0 -0.742,0.079 -0.966,0.238 -0.224,0.159 -0.336,0.369 -0.336,0.63 0,0.205 0.075,0.378 0.224,0.518 0.149,0.14 0.331,0.252 0.546,0.336 0.215,0.075 0.532,0.173 0.952,0.294 0.56,0.149 1.017,0.303 1.372,0.462 0.364,0.149 0.677,0.373 0.938,0.672 0.261,0.299 0.397,0.695 0.406,1.19 0,0.439 -0.121,0.831 -0.364,1.176 -0.243,0.345 -0.588,0.616 -1.036,0.812 -0.439,0.196 -0.957,0.294 -1.554,0.294 z m 6.261,-6.538 v 4.27 c 0,0.289 0.065,0.499 0.196,0.63 0.14,0.121 0.373,0.182 0.7,0.182 h 0.98 V 366 h -1.26 c -0.719,0 -1.27,-0.168 -1.652,-0.504 -0.383,-0.336 -0.574,-0.882 -0.574,-1.638 v -4.27 h -0.91 v -1.302 h 0.91 v -1.918 h 1.61 v 1.918 h 1.876 v 1.302 z"
     fill="#181818"
     id="path64" />
  <rect
     x="65"
     y="335"
     width="52"
     height="52"
     rx="26"
     fill="#eddeff"
     id="rect64" />
  <g
     clip-path="url(#clip9_670_8746)"
     id="g70"
     transform="translate(-194,96)">
    <path
       d="m 286,258 h 8"
       stroke="#000000"
       stroke-width="1.5"
       stroke-linecap="round"
       stroke-linejoin="round"
       id="path65" />
    <path
       d="m 286,262 h 5"
       stroke="#000000"
       stroke-width="1.5"
       stroke-linecap="round"
       stroke-linejoin="round"
       id="path66" />
    <path
       d="m 286,268 h 8"
       stroke="#000000"
       stroke-width="1.5"
       stroke-linecap="round"
       stroke-linejoin="round"
       id="path67" />
    <path
       d="m 286,272 h 5"
       stroke="#000000"
       stroke-width="1.5"
       stroke-linecap="round"
       stroke-linejoin="round"
       id="path68" />
    <path
       d="m 276,258 c 0,-0.265 0.105,-0.52 0.293,-0.707 C 276.48,257.105 276.735,257 277,257 h 4 c 0.265,0 0.52,0.105 0.707,0.293 0.188,0.187 0.293,0.442 0.293,0.707 v 4 c 0,0.265 -0.105,0.52 -0.293,0.707 C 281.52,262.895 281.265,263 281,263 h -4 c -0.265,0 -0.52,-0.105 -0.707,-0.293 C 276.105,262.52 276,262.265 276,262 Z"
       fill="#c67dff"
       stroke="#c67dff"
       stroke-width="1.5"
       stroke-linecap="round"
       stroke-linejoin="round"
       id="path69" />
    <path
       d="m 276,268 c 0,-0.265 0.105,-0.52 0.293,-0.707 C 276.48,267.105 276.735,267 277,267 h 4 c 0.265,0 0.52,0.105 0.707,0.293 0.188,0.187 0.293,0.442 0.293,0.707 v 4 c 0,0.265 -0.105,0.52 -0.293,0.707 C 281.52,272.895 281.265,273 281,273 h -4 c -0.265,0 -0.52,-0.105 -0.707,-0.293 C 276.105,272.52 276,272.265 276,272 Z"
       fill="#c67dff"
       stroke="#c67dff"
       stroke-width="1.5"
       stroke-linecap="round"
       stroke-linejoin="round"
       id="path70" />
  </g>
  <rect
     x="339"
     y="349"
     width="86"
     height="25"
     rx="12.5"
     fill="#721f6f"
     id="rect70" />
  <path
     d="m 357.94,363.58 h -2.91 l -0.5,1.42 h -1.19 l 2.49,-6.96 h 1.32 l 2.49,6.96 h -1.2 z m -0.32,-0.93 -1.13,-3.23 -1.14,3.23 z m 2.623,-0.43 c 0,-0.553 0.113,-1.043 0.34,-1.47 0.233,-0.427 0.546,-0.757 0.94,-0.99 0.4,-0.24 0.843,-0.36 1.33,-0.36 0.36,0 0.713,0.08 1.06,0.24 0.353,0.153 0.633,0.36 0.84,0.62 v -2.66 h 1.15 v 7.4 h -1.15 v -0.83 c -0.187,0.267 -0.447,0.487 -0.78,0.66 -0.327,0.173 -0.704,0.26 -1.13,0.26 -0.48,0 -0.92,-0.12 -1.32,-0.36 -0.394,-0.247 -0.707,-0.587 -0.94,-1.02 -0.227,-0.44 -0.34,-0.937 -0.34,-1.49 z m 4.51,0.02 c 0,-0.38 -0.08,-0.71 -0.24,-0.99 -0.154,-0.28 -0.357,-0.493 -0.61,-0.64 -0.254,-0.147 -0.527,-0.22 -0.82,-0.22 -0.294,0 -0.567,0.073 -0.82,0.22 -0.254,0.14 -0.46,0.35 -0.62,0.63 -0.154,0.273 -0.23,0.6 -0.23,0.98 0,0.38 0.076,0.713 0.23,1 0.16,0.287 0.366,0.507 0.62,0.66 0.26,0.147 0.533,0.22 0.82,0.22 0.293,0 0.566,-0.073 0.82,-0.22 0.253,-0.147 0.456,-0.36 0.61,-0.64 0.16,-0.287 0.24,-0.62 0.24,-1 z m 2.167,-0.02 c 0,-0.553 0.113,-1.043 0.34,-1.47 0.233,-0.427 0.547,-0.757 0.94,-0.99 0.4,-0.24 0.843,-0.36 1.33,-0.36 0.36,0 0.713,0.08 1.06,0.24 0.353,0.153 0.633,0.36 0.84,0.62 v -2.66 h 1.15 v 7.4 h -1.15 v -0.83 c -0.187,0.267 -0.447,0.487 -0.78,0.66 -0.327,0.173 -0.703,0.26 -1.13,0.26 -0.48,0 -0.92,-0.12 -1.32,-0.36 -0.393,-0.247 -0.707,-0.587 -0.94,-1.02 -0.227,-0.44 -0.34,-0.937 -0.34,-1.49 z m 4.51,0.02 c 0,-0.38 -0.08,-0.71 -0.24,-0.99 -0.153,-0.28 -0.357,-0.493 -0.61,-0.64 -0.253,-0.147 -0.527,-0.22 -0.82,-0.22 -0.293,0 -0.567,0.073 -0.82,0.22 -0.253,0.14 -0.46,0.35 -0.62,0.63 -0.153,0.273 -0.23,0.6 -0.23,0.98 0,0.38 0.077,0.713 0.23,1 0.16,0.287 0.367,0.507 0.62,0.66 0.26,0.147 0.533,0.22 0.82,0.22 0.293,0 0.567,-0.073 0.82,-0.22 0.253,-0.147 0.457,-0.36 0.61,-0.64 0.16,-0.287 0.24,-0.62 0.24,-1 z m 9.905,-2.12 c 0,0.353 -0.083,0.687 -0.25,1 -0.167,0.313 -0.433,0.57 -0.8,0.77 -0.367,0.193 -0.837,0.29 -1.41,0.29 h -1.26 V 365 h -1.14 v -6.95 h 2.4 c 0.533,0 0.983,0.093 1.35,0.28 0.373,0.18 0.65,0.427 0.83,0.74 0.187,0.313 0.28,0.663 0.28,1.05 z m -2.46,1.13 c 0.433,0 0.757,-0.097 0.97,-0.29 0.213,-0.2 0.32,-0.48 0.32,-0.84 0,-0.76 -0.43,-1.14 -1.29,-1.14 h -1.26 v 2.27 z m 3.067,0.97 c 0,-0.553 0.114,-1.043 0.34,-1.47 0.234,-0.427 0.547,-0.757 0.94,-0.99 0.4,-0.24 0.84,-0.36 1.32,-0.36 0.434,0 0.81,0.087 1.13,0.26 0.327,0.167 0.587,0.377 0.78,0.63 v -0.8 h 1.15 V 365 h -1.15 v -0.82 c -0.193,0.26 -0.456,0.477 -0.79,0.65 -0.333,0.173 -0.713,0.26 -1.14,0.26 -0.473,0 -0.906,-0.12 -1.3,-0.36 -0.393,-0.247 -0.706,-0.587 -0.94,-1.02 -0.226,-0.44 -0.34,-0.937 -0.34,-1.49 z m 4.51,0.02 c 0,-0.38 -0.08,-0.71 -0.24,-0.99 -0.153,-0.28 -0.356,-0.493 -0.61,-0.64 -0.253,-0.147 -0.526,-0.22 -0.82,-0.22 -0.293,0 -0.566,0.073 -0.82,0.22 -0.253,0.14 -0.46,0.35 -0.62,0.63 -0.153,0.273 -0.23,0.6 -0.23,0.98 0,0.38 0.077,0.713 0.23,1 0.16,0.287 0.367,0.507 0.62,0.66 0.26,0.147 0.534,0.22 0.82,0.22 0.294,0 0.567,-0.073 0.82,-0.22 0.254,-0.147 0.457,-0.36 0.61,-0.64 0.16,-0.287 0.24,-0.62 0.24,-1 z m 3.878,-1.82 v 3.05 c 0,0.207 0.046,0.357 0.14,0.45 0.1,0.087 0.266,0.13 0.5,0.13 h 0.7 V 365 h -0.9 c -0.514,0 -0.907,-0.12 -1.18,-0.36 -0.274,-0.24 -0.41,-0.63 -0.41,-1.17 v -3.05 h -0.65 v -0.93 h 0.65 v -1.37 h 1.15 v 1.37 h 1.34 v 0.93 z m 2.87,-1.66 c -0.206,0 -0.38,-0.07 -0.52,-0.21 -0.14,-0.14 -0.21,-0.313 -0.21,-0.52 0,-0.207 0.07,-0.38 0.21,-0.52 0.14,-0.14 0.314,-0.21 0.52,-0.21 0.2,0 0.37,0.07 0.51,0.21 0.14,0.14 0.21,0.313 0.21,0.52 0,0.207 -0.07,0.38 -0.21,0.52 -0.14,0.14 -0.31,0.21 -0.51,0.21 z m 0.56,0.73 V 365 h -1.14 v -5.51 z m 6.447,2.62 c 0,0.207 -0.013,0.393 -0.04,0.56 h -4.21 c 0.033,0.44 0.197,0.793 0.49,1.06 0.293,0.267 0.653,0.4 1.08,0.4 0.613,0 1.047,-0.257 1.3,-0.77 h 1.23 c -0.167,0.507 -0.47,0.923 -0.91,1.25 -0.433,0.32 -0.973,0.48 -1.62,0.48 -0.527,0 -1,-0.117 -1.42,-0.35 -0.413,-0.24 -0.74,-0.573 -0.98,-1 -0.233,-0.433 -0.35,-0.933 -0.35,-1.5 0,-0.567 0.113,-1.063 0.34,-1.49 0.233,-0.433 0.557,-0.767 0.97,-1 0.42,-0.233 0.9,-0.35 1.44,-0.35 0.52,0 0.983,0.113 1.39,0.34 0.407,0.227 0.723,0.547 0.95,0.96 0.227,0.407 0.34,0.877 0.34,1.41 z m -1.19,-0.36 c -0.007,-0.42 -0.157,-0.757 -0.45,-1.01 -0.293,-0.253 -0.657,-0.38 -1.09,-0.38 -0.393,0 -0.73,0.127 -1.01,0.38 -0.28,0.247 -0.447,0.583 -0.5,1.01 z m 4.992,-2.35 c 0.433,0 0.82,0.09 1.16,0.27 0.347,0.18 0.617,0.447 0.81,0.8 0.193,0.353 0.29,0.78 0.29,1.28 V 365 h -1.13 v -3.08 c 0,-0.493 -0.123,-0.87 -0.37,-1.13 -0.247,-0.267 -0.583,-0.4 -1.01,-0.4 -0.427,0 -0.767,0.133 -1.02,0.4 -0.247,0.26 -0.37,0.637 -0.37,1.13 V 365 h -1.14 v -5.51 h 1.14 v 0.63 c 0.187,-0.227 0.423,-0.403 0.71,-0.53 0.293,-0.127 0.603,-0.19 0.93,-0.19 z m 4.944,1.02 v 3.05 c 0,0.207 0.047,0.357 0.14,0.45 0.1,0.087 0.267,0.13 0.5,0.13 h 0.7 V 365 h -0.9 c -0.513,0 -0.907,-0.12 -1.18,-0.36 -0.273,-0.24 -0.41,-0.63 -0.41,-1.17 v -3.05 h -0.65 v -0.93 h 0.65 v -1.37 h 1.15 v 1.37 h 1.34 v 0.93 z"
     fill="#ffffff"
     id="path71" />
  <defs
     id="defs80">
    <clipPath
       id="clip0_670_8746">
      <rect
         width="10"
         height="10"
         fill="#ffffff"
         transform="translate(897,129)"
         id="rect71"
         x="0"
         y="0" />
    </clipPath>
    <clipPath
       id="clip1_670_8746">
      <rect
         x="759"
         y="52"
         width="252"
         height="252"
         rx="21.6"
         fill="#ffffff"
         id="rect72" />
    </clipPath>
    <clipPath
       id="clip2_670_8746">
      <rect
         width="10"
         height="10"
         fill="#ffffff"
         transform="translate(264,348)"
         id="rect73"
         x="0"
         y="0" />
    </clipPath>
    <clipPath
       id="clip3_670_8746">
      <rect
         width="10"
         height="10"
         fill="#ffffff"
         transform="translate(264,384)"
         id="rect74"
         x="0"
         y="0" />
    </clipPath>
    <clipPath
       id="clip4_670_8746">
      <rect
         width="10"
         height="10"
         fill="#ffffff"
         transform="translate(264,420)"
         id="rect75"
         x="0"
         y="0" />
    </clipPath>
    <clipPath
       id="clip5_670_8746">
      <rect
         width="10"
         height="10"
         fill="#ffffff"
         transform="translate(264,456)"
         id="rect76"
         x="0"
         y="0" />
    </clipPath>
    <clipPath
       id="clip6_670_8746">
      <rect
         width="10"
         height="10"
         fill="#ffffff"
         transform="translate(264,492)"
         id="rect77"
         x="0"
         y="0" />
    </clipPath>
    <clipPath
       id="clip7_670_8746">
      <rect
         width="10"
         height="10"
         fill="#ffffff"
         transform="translate(264,528)"
         id="rect78"
         x="0"
         y="0" />
    </clipPath>
    <clipPath
       id="clip8_670_8746">
      <rect
         width="10"
         height="10"
         fill="#ffffff"
         transform="translate(264,564)"
         id="rect79"
         x="0"
         y="0" />
    </clipPath>
    <clipPath
       id="clip9_670_8746">
      <rect
         width="24"
         height="24"
         fill="#ffffff"
         transform="translate(273,253)"
         id="rect80"
         x="0"
         y="0" />
    </clipPath>
  </defs>
</svg>
