<?xml version="1.0" encoding="UTF-8" standalone="no"?>
<svg
   width="768"
   height="768"
   viewBox="0 0 768 768"
   fill="none"
   version="1.1"
   id="svg70"
   sodipodi:docname="hero-specialty-clinic-square.svg"
   inkscape:version="1.4 (86a8ad7, 2024-10-11)"
   xmlns:inkscape="http://www.inkscape.org/namespaces/inkscape"
   xmlns:sodipodi="http://sodipodi.sourceforge.net/DTD/sodipodi-0.dtd"
   xmlns="http://www.w3.org/2000/svg"
   xmlns:svg="http://www.w3.org/2000/svg">
  <sodipodi:namedview
     id="namedview70"
     pagecolor="#ffffff"
     bordercolor="#000000"
     borderopacity="0.25"
     inkscape:showpageshadow="2"
     inkscape:pageopacity="0.0"
     inkscape:pagecheckerboard="0"
     inkscape:deskcolor="#d1d1d1"
     inkscape:zoom="1.375"
     inkscape:cx="442.54545"
     inkscape:cy="400.36364"
     inkscape:window-width="3840"
     inkscape:window-height="2054"
     inkscape:window-x="-11"
     inkscape:window-y="-11"
     inkscape:window-maximized="1"
     inkscape:current-layer="svg70" />
  <rect
     width="768"
     height="768"
     rx="32"
     fill="#eddeff"
     id="rect1"
     x="0"
     y="0"
     style="stroke-width:0.848943;fill:#e5dbff;fill-opacity:1"
     ry="32" />
  <line
     x1="138.12755"
     y1="198.5"
     x2="321.36105"
     y2="198.5"
     stroke="#c67dff"
     stroke-width="2.51847"
     stroke-linecap="round"
     stroke-dasharray="0.25, 6"
     id="line1" />
  <line
     x1="438.25925"
     y1="198.25925"
     x2="621.49274"
     y2="198.25925"
     stroke="#c67dff"
     stroke-width="2.51847"
     stroke-linecap="round"
     stroke-dasharray="0.25, 6"
     id="line1-0" />
  <rect
     x="414.5"
     y="289.5"
     width="299"
     height="299"
     rx="15.5"
     fill="#fffae8"
     id="rect2" />
  <rect
     x="414.5"
     y="289.5"
     width="299"
     height="299"
     rx="15.5"
     stroke="#ffbe67"
     id="rect3" />
  <rect
     x="424"
     y="299"
     width="280"
     height="280"
     rx="10"
     fill="#ffffff"
     id="rect4" />
  <path
     d="m 447.402,321.146 v 3.672 h 4.32 v 1.674 h -4.32 v 3.834 h 4.86 V 332 h -6.912 v -12.528 h 6.912 v 1.674 z m 11.365,2.61 h -1.836 V 332 h -2.07 v -8.244 h -1.17 v -1.674 h 1.17 v -0.702 c 0,-1.14 0.3,-1.968 0.9,-2.484 0.612,-0.528 1.566,-0.792 2.862,-0.792 v 1.71 c -0.624,0 -1.062,0.12 -1.314,0.36 -0.252,0.228 -0.378,0.63 -0.378,1.206 v 0.702 h 1.836 z m 5.797,0 h -1.836 V 332 h -2.07 v -8.244 h -1.17 v -1.674 h 1.17 v -0.702 c 0,-1.14 0.3,-1.968 0.9,-2.484 0.612,-0.528 1.566,-0.792 2.862,-0.792 v 1.71 c -0.624,0 -1.062,0.12 -1.314,0.36 -0.252,0.228 -0.378,0.63 -0.378,1.206 v 0.702 h 1.836 z m 10.729,3.042 c 0,0.372 -0.024,0.708 -0.072,1.008 h -7.578 c 0.06,0.792 0.354,1.428 0.882,1.908 0.528,0.48 1.176,0.72 1.944,0.72 1.104,0 1.884,-0.462 2.34,-1.386 h 2.214 c -0.3,0.912 -0.846,1.662 -1.638,2.25 -0.78,0.576 -1.752,0.864 -2.916,0.864 -0.948,0 -1.8,-0.21 -2.556,-0.63 -0.744,-0.432 -1.332,-1.032 -1.764,-1.8 -0.42,-0.78 -0.63,-1.68 -0.63,-2.7 0,-1.02 0.204,-1.914 0.612,-2.682 0.42,-0.78 1.002,-1.38 1.746,-1.8 0.756,-0.42 1.62,-0.63 2.592,-0.63 0.936,0 1.77,0.204 2.502,0.612 0.732,0.408 1.302,0.984 1.71,1.728 0.408,0.732 0.612,1.578 0.612,2.538 z m -2.142,-0.648 c -0.012,-0.756 -0.282,-1.362 -0.81,-1.818 -0.528,-0.456 -1.182,-0.684 -1.962,-0.684 -0.708,0 -1.314,0.228 -1.818,0.684 -0.504,0.444 -0.804,1.05 -0.9,1.818 z m 3.297,0.882 c 0,-1.02 0.204,-1.914 0.612,-2.682 0.42,-0.78 0.996,-1.38 1.728,-1.8 0.732,-0.42 1.572,-0.63 2.52,-0.63 1.2,0 2.19,0.288 2.97,0.864 0.792,0.564 1.326,1.374 1.602,2.43 h -2.214 c -0.18,-0.492 -0.468,-0.876 -0.864,-1.152 -0.396,-0.276 -0.894,-0.414 -1.494,-0.414 -0.84,0 -1.512,0.3 -2.016,0.9 -0.492,0.588 -0.738,1.416 -0.738,2.484 0,1.068 0.246,1.902 0.738,2.502 0.504,0.6 1.176,0.9 2.016,0.9 1.188,0 1.974,-0.522 2.358,-1.566 h 2.214 c -0.288,1.008 -0.828,1.812 -1.62,2.412 -0.792,0.588 -1.776,0.882 -2.952,0.882 -0.948,0 -1.788,-0.21 -2.52,-0.63 -0.732,-0.432 -1.308,-1.032 -1.728,-1.8 -0.408,-0.78 -0.612,-1.68 -0.612,-2.7 z m 13.691,-3.276 v 5.49 c 0,0.372 0.084,0.642 0.252,0.81 0.18,0.156 0.48,0.234 0.9,0.234 h 1.26 V 332 h -1.62 c -0.924,0 -1.632,-0.216 -2.124,-0.648 -0.492,-0.432 -0.738,-1.134 -0.738,-2.106 v -5.49 h -1.17 v -1.674 h 1.17 v -2.466 h 2.07 v 2.466 h 2.412 v 1.674 z m 12.921,8.406 c -0.936,0 -1.782,-0.21 -2.538,-0.63 -0.756,-0.432 -1.35,-1.032 -1.782,-1.8 -0.432,-0.78 -0.648,-1.68 -0.648,-2.7 0,-1.008 0.222,-1.902 0.666,-2.682 0.444,-0.78 1.05,-1.38 1.818,-1.8 0.768,-0.42 1.626,-0.63 2.574,-0.63 0.948,0 1.806,0.21 2.574,0.63 0.768,0.42 1.374,1.02 1.818,1.8 0.444,0.78 0.666,1.674 0.666,2.682 0,1.008 -0.228,1.902 -0.684,2.682 -0.456,0.78 -1.08,1.386 -1.872,1.818 -0.78,0.42 -1.644,0.63 -2.592,0.63 z m 0,-1.782 c 0.528,0 1.02,-0.126 1.476,-0.378 0.468,-0.252 0.846,-0.63 1.134,-1.134 0.288,-0.504 0.432,-1.116 0.432,-1.836 0,-0.72 -0.138,-1.326 -0.414,-1.818 -0.276,-0.504 -0.642,-0.882 -1.098,-1.134 -0.456,-0.252 -0.948,-0.378 -1.476,-0.378 -0.528,0 -1.02,0.126 -1.476,0.378 -0.444,0.252 -0.798,0.63 -1.062,1.134 -0.264,0.492 -0.396,1.098 -0.396,1.818 0,1.068 0.27,1.896 0.81,2.484 0.552,0.576 1.242,0.864 2.07,0.864 z m 12,-8.46 c 0.78,0 1.476,0.162 2.088,0.486 0.624,0.324 1.11,0.804 1.458,1.44 0.348,0.636 0.522,1.404 0.522,2.304 V 332 h -2.034 v -5.544 c 0,-0.888 -0.222,-1.566 -0.666,-2.034 -0.444,-0.48 -1.05,-0.72 -1.818,-0.72 -0.768,0 -1.38,0.24 -1.836,0.72 -0.444,0.468 -0.666,1.146 -0.666,2.034 V 332 h -2.052 v -9.918 h 2.052 v 1.134 c 0.336,-0.408 0.762,-0.726 1.278,-0.954 0.528,-0.228 1.086,-0.342 1.674,-0.342 z m 13.054,1.638 c 0.348,-0.48 0.822,-0.87 1.422,-1.17 0.612,-0.312 1.29,-0.468 2.034,-0.468 0.876,0 1.668,0.21 2.376,0.63 0.708,0.42 1.266,1.02 1.674,1.8 0.408,0.768 0.612,1.65 0.612,2.646 0,0.996 -0.204,1.89 -0.612,2.682 -0.408,0.78 -0.972,1.392 -1.692,1.836 -0.708,0.432 -1.494,0.648 -2.358,0.648 -0.768,0 -1.452,-0.15 -2.052,-0.45 -0.588,-0.3 -1.056,-0.684 -1.404,-1.152 V 332 h -2.052 v -13.32 h 2.052 z m 6.03,3.438 c 0,-0.684 -0.144,-1.272 -0.432,-1.764 -0.276,-0.504 -0.648,-0.882 -1.116,-1.134 -0.456,-0.264 -0.948,-0.396 -1.476,-0.396 -0.516,0 -1.008,0.132 -1.476,0.396 -0.456,0.264 -0.828,0.648 -1.116,1.152 -0.276,0.504 -0.414,1.098 -0.414,1.782 0,0.684 0.138,1.284 0.414,1.8 0.288,0.504 0.66,0.888 1.116,1.152 0.468,0.264 0.96,0.396 1.476,0.396 0.528,0 1.02,-0.132 1.476,-0.396 0.468,-0.276 0.84,-0.672 1.116,-1.188 0.288,-0.516 0.432,-1.116 0.432,-1.8 z m 5.989,-8.316 V 332 h -2.052 v -13.32 z m 6.816,13.482 c -0.936,0 -1.782,-0.21 -2.538,-0.63 -0.756,-0.432 -1.35,-1.032 -1.782,-1.8 -0.432,-0.78 -0.648,-1.68 -0.648,-2.7 0,-1.008 0.222,-1.902 0.666,-2.682 0.444,-0.78 1.05,-1.38 1.818,-1.8 0.768,-0.42 1.626,-0.63 2.574,-0.63 0.948,0 1.806,0.21 2.574,0.63 0.768,0.42 1.374,1.02 1.818,1.8 0.444,0.78 0.666,1.674 0.666,2.682 0,1.008 -0.228,1.902 -0.684,2.682 -0.456,0.78 -1.08,1.386 -1.872,1.818 -0.78,0.42 -1.644,0.63 -2.592,0.63 z m 0,-1.782 c 0.528,0 1.02,-0.126 1.476,-0.378 0.468,-0.252 0.846,-0.63 1.134,-1.134 0.288,-0.504 0.432,-1.116 0.432,-1.836 0,-0.72 -0.138,-1.326 -0.414,-1.818 -0.276,-0.504 -0.642,-0.882 -1.098,-1.134 -0.456,-0.252 -0.948,-0.378 -1.476,-0.378 -0.528,0 -1.02,0.126 -1.476,0.378 -0.444,0.252 -0.798,0.63 -1.062,1.134 -0.264,0.492 -0.396,1.098 -0.396,1.818 0,1.068 0.27,1.896 0.81,2.484 0.552,0.576 1.242,0.864 2.07,0.864 z m 11.299,1.782 c -0.936,0 -1.782,-0.21 -2.538,-0.63 -0.756,-0.432 -1.35,-1.032 -1.782,-1.8 -0.432,-0.78 -0.648,-1.68 -0.648,-2.7 0,-1.008 0.222,-1.902 0.666,-2.682 0.444,-0.78 1.05,-1.38 1.818,-1.8 0.768,-0.42 1.626,-0.63 2.574,-0.63 0.948,0 1.806,0.21 2.574,0.63 0.768,0.42 1.374,1.02 1.818,1.8 0.444,0.78 0.666,1.674 0.666,2.682 0,1.008 -0.228,1.902 -0.684,2.682 -0.456,0.78 -1.08,1.386 -1.872,1.818 -0.78,0.42 -1.644,0.63 -2.592,0.63 z m 0,-1.782 c 0.528,0 1.02,-0.126 1.476,-0.378 0.468,-0.252 0.846,-0.63 1.134,-1.134 0.288,-0.504 0.432,-1.116 0.432,-1.836 0,-0.72 -0.138,-1.326 -0.414,-1.818 -0.276,-0.504 -0.642,-0.882 -1.098,-1.134 -0.456,-0.252 -0.948,-0.378 -1.476,-0.378 -0.528,0 -1.02,0.126 -1.476,0.378 -0.444,0.252 -0.798,0.63 -1.062,1.134 -0.264,0.492 -0.396,1.098 -0.396,1.818 0,1.068 0.27,1.896 0.81,2.484 0.552,0.576 1.242,0.864 2.07,0.864 z m 6.312,-3.384 c 0,-0.996 0.204,-1.878 0.612,-2.646 0.42,-0.768 0.984,-1.362 1.692,-1.782 0.72,-0.432 1.518,-0.648 2.394,-0.648 0.648,0 1.284,0.144 1.908,0.432 0.636,0.276 1.14,0.648 1.512,1.116 v -4.788 h 2.07 V 332 h -2.07 v -1.494 c -0.336,0.48 -0.804,0.876 -1.404,1.188 -0.588,0.312 -1.266,0.468 -2.034,0.468 -0.864,0 -1.656,-0.216 -2.376,-0.648 -0.708,-0.444 -1.272,-1.056 -1.692,-1.836 -0.408,-0.792 -0.612,-1.686 -0.612,-2.682 z m 8.118,0.036 c 0,-0.684 -0.144,-1.278 -0.432,-1.782 -0.276,-0.504 -0.642,-0.888 -1.098,-1.152 -0.456,-0.264 -0.948,-0.396 -1.476,-0.396 -0.528,0 -1.02,0.132 -1.476,0.396 -0.456,0.252 -0.828,0.63 -1.116,1.134 -0.276,0.492 -0.414,1.08 -0.414,1.764 0,0.684 0.138,1.284 0.414,1.8 0.288,0.516 0.66,0.912 1.116,1.188 0.468,0.264 0.96,0.396 1.476,0.396 0.528,0 1.02,-0.132 1.476,-0.396 0.456,-0.264 0.822,-0.648 1.098,-1.152 0.288,-0.516 0.432,-1.116 0.432,-1.8 z m 13.077,-5.112 c 0.768,0 1.446,0.156 2.034,0.468 0.6,0.3 1.068,0.678 1.404,1.134 v -1.44 h 2.07 v 10.08 c 0,0.912 -0.192,1.722 -0.576,2.43 -0.384,0.72 -0.942,1.284 -1.674,1.692 -0.72,0.408 -1.584,0.612 -2.592,0.612 -1.344,0 -2.46,-0.318 -3.348,-0.954 -0.888,-0.624 -1.392,-1.476 -1.512,-2.556 h 2.034 c 0.156,0.516 0.486,0.93 0.99,1.242 0.516,0.324 1.128,0.486 1.836,0.486 0.828,0 1.494,-0.252 1.998,-0.756 0.516,-0.504 0.774,-1.236 0.774,-2.196 v -1.656 c -0.348,0.468 -0.822,0.864 -1.422,1.188 -0.588,0.312 -1.26,0.468 -2.016,0.468 -0.864,0 -1.656,-0.216 -2.376,-0.648 -0.708,-0.444 -1.272,-1.056 -1.692,-1.836 -0.408,-0.792 -0.612,-1.686 -0.612,-2.682 0,-0.996 0.204,-1.878 0.612,-2.646 0.42,-0.768 0.984,-1.362 1.692,-1.782 0.72,-0.432 1.512,-0.648 2.376,-0.648 z m 3.438,5.112 c 0,-0.684 -0.144,-1.278 -0.432,-1.782 -0.276,-0.504 -0.642,-0.888 -1.098,-1.152 -0.456,-0.264 -0.948,-0.396 -1.476,-0.396 -0.528,0 -1.02,0.132 -1.476,0.396 -0.456,0.252 -0.828,0.63 -1.116,1.134 -0.276,0.492 -0.414,1.08 -0.414,1.764 0,0.684 0.138,1.284 0.414,1.8 0.288,0.516 0.66,0.912 1.116,1.188 0.468,0.264 0.96,0.396 1.476,0.396 0.528,0 1.02,-0.132 1.476,-0.396 0.456,-0.264 0.822,-0.648 1.098,-1.152 0.288,-0.516 0.432,-1.116 0.432,-1.8 z m 6.637,-8.352 V 332 h -2.052 v -13.32 z m 11.496,3.402 V 332 h -2.052 v -1.17 c -0.324,0.408 -0.75,0.732 -1.278,0.972 -0.516,0.228 -1.068,0.342 -1.656,0.342 -0.78,0 -1.482,-0.162 -2.106,-0.486 -0.612,-0.324 -1.098,-0.804 -1.458,-1.44 -0.348,-0.636 -0.522,-1.404 -0.522,-2.304 v -5.832 h 2.034 v 5.526 c 0,0.888 0.222,1.572 0.666,2.052 0.444,0.468 1.05,0.702 1.818,0.702 0.768,0 1.374,-0.234 1.818,-0.702 0.456,-0.48 0.684,-1.164 0.684,-2.052 v -5.526 z m 1.844,4.95 c 0,-1.02 0.204,-1.914 0.612,-2.682 0.42,-0.78 0.996,-1.38 1.728,-1.8 0.732,-0.42 1.572,-0.63 2.52,-0.63 1.2,0 2.19,0.288 2.97,0.864 0.792,0.564 1.326,1.374 1.602,2.43 h -2.214 c -0.18,-0.492 -0.468,-0.876 -0.864,-1.152 -0.396,-0.276 -0.894,-0.414 -1.494,-0.414 -0.84,0 -1.512,0.3 -2.016,0.9 -0.492,0.588 -0.738,1.416 -0.738,2.484 0,1.068 0.246,1.902 0.738,2.502 0.504,0.6 1.176,0.9 2.016,0.9 1.188,0 1.974,-0.522 2.358,-1.566 h 2.214 c -0.288,1.008 -0.828,1.812 -1.62,2.412 -0.792,0.588 -1.776,0.882 -2.952,0.882 -0.948,0 -1.788,-0.21 -2.52,-0.63 -0.732,-0.432 -1.308,-1.032 -1.728,-1.8 -0.408,-0.78 -0.612,-1.68 -0.612,-2.7 z m 15.599,5.13 c -0.936,0 -1.782,-0.21 -2.538,-0.63 -0.756,-0.432 -1.35,-1.032 -1.782,-1.8 -0.432,-0.78 -0.648,-1.68 -0.648,-2.7 0,-1.008 0.222,-1.902 0.666,-2.682 0.444,-0.78 1.05,-1.38 1.818,-1.8 0.768,-0.42 1.626,-0.63 2.574,-0.63 0.948,0 1.806,0.21 2.574,0.63 0.768,0.42 1.374,1.02 1.818,1.8 0.444,0.78 0.666,1.674 0.666,2.682 0,1.008 -0.228,1.902 -0.684,2.682 -0.456,0.78 -1.08,1.386 -1.872,1.818 -0.78,0.42 -1.644,0.63 -2.592,0.63 z m 0,-1.782 c 0.528,0 1.02,-0.126 1.476,-0.378 0.468,-0.252 0.846,-0.63 1.134,-1.134 0.288,-0.504 0.432,-1.116 0.432,-1.836 0,-0.72 -0.138,-1.326 -0.414,-1.818 -0.276,-0.504 -0.642,-0.882 -1.098,-1.134 -0.456,-0.252 -0.948,-0.378 -1.476,-0.378 -0.528,0 -1.02,0.126 -1.476,0.378 -0.444,0.252 -0.798,0.63 -1.062,1.134 -0.264,0.492 -0.396,1.098 -0.396,1.818 0,1.068 0.27,1.896 0.81,2.484 0.552,0.576 1.242,0.864 2.07,0.864 z m 10.596,1.782 c -0.78,0 -1.482,-0.138 -2.106,-0.414 -0.612,-0.288 -1.098,-0.672 -1.458,-1.152 -0.36,-0.492 -0.552,-1.038 -0.576,-1.638 h 2.124 c 0.036,0.42 0.234,0.774 0.594,1.062 0.372,0.276 0.834,0.414 1.386,0.414 0.576,0 1.02,-0.108 1.332,-0.324 0.324,-0.228 0.486,-0.516 0.486,-0.864 0,-0.372 -0.18,-0.648 -0.54,-0.828 -0.348,-0.18 -0.906,-0.378 -1.674,-0.594 -0.744,-0.204 -1.35,-0.402 -1.818,-0.594 -0.468,-0.192 -0.876,-0.486 -1.224,-0.882 -0.336,-0.396 -0.504,-0.918 -0.504,-1.566 0,-0.528 0.156,-1.008 0.468,-1.44 0.312,-0.444 0.756,-0.792 1.332,-1.044 0.588,-0.252 1.26,-0.378 2.016,-0.378 1.128,0 2.034,0.288 2.718,0.864 0.696,0.564 1.068,1.338 1.116,2.322 h -2.052 c -0.036,-0.444 -0.216,-0.798 -0.54,-1.062 -0.324,-0.264 -0.762,-0.396 -1.314,-0.396 -0.54,0 -0.954,0.102 -1.242,0.306 -0.288,0.204 -0.432,0.474 -0.432,0.81 0,0.264 0.096,0.486 0.288,0.666 0.192,0.18 0.426,0.324 0.702,0.432 0.276,0.096 0.684,0.222 1.224,0.378 0.72,0.192 1.308,0.39 1.764,0.594 0.468,0.192 0.87,0.48 1.206,0.864 0.336,0.384 0.51,0.894 0.522,1.53 0,0.564 -0.156,1.068 -0.468,1.512 -0.312,0.444 -0.756,0.792 -1.332,1.044 -0.564,0.252 -1.23,0.378 -1.998,0.378 z m 14.926,-5.364 c 0,0.372 -0.024,0.708 -0.072,1.008 h -7.578 c 0.06,0.792 0.354,1.428 0.882,1.908 0.528,0.48 1.176,0.72 1.944,0.72 1.104,0 1.884,-0.462 2.34,-1.386 h 2.214 c -0.3,0.912 -0.846,1.662 -1.638,2.25 -0.78,0.576 -1.752,0.864 -2.916,0.864 -0.948,0 -1.8,-0.21 -2.556,-0.63 -0.744,-0.432 -1.332,-1.032 -1.764,-1.8 -0.42,-0.78 -0.63,-1.68 -0.63,-2.7 0,-1.02 0.204,-1.914 0.612,-2.682 0.42,-0.78 1.002,-1.38 1.746,-1.8 0.756,-0.42 1.62,-0.63 2.592,-0.63 0.936,0 1.77,0.204 2.502,0.612 0.732,0.408 1.302,0.984 1.71,1.728 0.408,0.732 0.612,1.578 0.612,2.538 z m -2.142,-0.648 c -0.012,-0.756 -0.282,-1.362 -0.81,-1.818 -0.528,-0.456 -1.182,-0.684 -1.962,-0.684 -0.708,0 -1.314,0.228 -1.818,0.684 -0.504,0.444 -0.804,1.05 -0.9,1.818 z"
     fill="#560153"
     id="path4" />
  <path
     d="M 442,419 H 686.571"
     stroke="#e2e7e7"
     stroke-dasharray="3, 6"
     id="path5" />
  <path
     d="M 442,377.26 H 686.571"
     stroke="#e2e7e7"
     stroke-dasharray="3, 6"
     id="path6" />
  <path
     d="M 442,460 H 686.571"
     stroke="#e2e7e7"
     stroke-dasharray="3, 6"
     id="path7" />
  <path
     d="M 444,501 H 684"
     stroke="#e2e7e7"
     id="path8" />
  <path
     d="m 444.879,512.953 c 0,-1.147 0.186,-2.04 0.56,-2.68 0.373,-0.647 1.026,-0.97 1.96,-0.97 0.926,0 1.576,0.323 1.95,0.97 0.373,0.64 0.56,1.533 0.56,2.68 0,1.166 -0.187,2.073 -0.56,2.72 -0.374,0.646 -1.024,0.97 -1.95,0.97 -0.934,0 -1.587,-0.324 -1.96,-0.97 -0.374,-0.647 -0.56,-1.554 -0.56,-2.72 z m 4.13,0 c 0,-0.58 -0.04,-1.07 -0.12,-1.47 -0.074,-0.407 -0.23,-0.734 -0.47,-0.98 -0.234,-0.247 -0.574,-0.37 -1.02,-0.37 -0.454,0 -0.8,0.123 -1.04,0.37 -0.234,0.246 -0.39,0.573 -0.47,0.98 -0.074,0.4 -0.11,0.89 -0.11,1.47 0,0.6 0.036,1.103 0.11,1.51 0.08,0.406 0.236,0.733 0.47,0.98 0.24,0.246 0.586,0.37 1.04,0.37 0.446,0 0.786,-0.124 1.02,-0.37 0.24,-0.247 0.396,-0.574 0.47,-0.98 0.08,-0.407 0.12,-0.91 0.12,-1.51 z m 1.909,-2.71 v -0.83 h 1.88 v 7.23 h -0.92 v -6.4 z"
     fill="#000000"
     id="path9" />
  <path
     d="m 488.104,512.953 c 0,-1.147 0.187,-2.04 0.56,-2.68 0.374,-0.647 1.027,-0.97 1.96,-0.97 0.927,0 1.577,0.323 1.95,0.97 0.374,0.64 0.56,1.533 0.56,2.68 0,1.166 -0.186,2.073 -0.56,2.72 -0.373,0.646 -1.023,0.97 -1.95,0.97 -0.933,0 -1.586,-0.324 -1.96,-0.97 -0.373,-0.647 -0.56,-1.554 -0.56,-2.72 z m 4.13,0 c 0,-0.58 -0.04,-1.07 -0.12,-1.47 -0.073,-0.407 -0.23,-0.734 -0.47,-0.98 -0.233,-0.247 -0.573,-0.37 -1.02,-0.37 -0.453,0 -0.8,0.123 -1.04,0.37 -0.233,0.246 -0.39,0.573 -0.47,0.98 -0.073,0.4 -0.11,0.89 -0.11,1.47 0,0.6 0.037,1.103 0.11,1.51 0.08,0.406 0.237,0.733 0.47,0.98 0.24,0.246 0.587,0.37 1.04,0.37 0.447,0 0.787,-0.124 1.02,-0.37 0.24,-0.247 0.397,-0.574 0.47,-0.98 0.08,-0.407 0.12,-0.91 0.12,-1.51 z m 2.04,2.96 c 0.846,-0.68 1.51,-1.237 1.99,-1.67 0.48,-0.44 0.883,-0.897 1.21,-1.37 0.333,-0.48 0.5,-0.95 0.5,-1.41 0,-0.434 -0.107,-0.774 -0.32,-1.02 -0.207,-0.254 -0.544,-0.38 -1.01,-0.38 -0.454,0 -0.807,0.143 -1.06,0.43 -0.247,0.28 -0.38,0.656 -0.4,1.13 h -0.88 c 0.026,-0.747 0.253,-1.324 0.68,-1.73 0.426,-0.407 0.976,-0.61 1.65,-0.61 0.686,0 1.23,0.19 1.63,0.57 0.406,0.38 0.61,0.903 0.61,1.57 0,0.553 -0.167,1.093 -0.5,1.62 -0.327,0.52 -0.7,0.98 -1.12,1.38 -0.42,0.393 -0.957,0.853 -1.61,1.38 h 3.44 v 0.76 h -4.81 z"
     fill="#000000"
     id="path10" />
  <path
     d="m 534.036,512.953 c 0,-1.147 0.187,-2.04 0.56,-2.68 0.373,-0.647 1.027,-0.97 1.96,-0.97 0.927,0 1.577,0.323 1.95,0.97 0.373,0.64 0.56,1.533 0.56,2.68 0,1.166 -0.187,2.073 -0.56,2.72 -0.373,0.646 -1.023,0.97 -1.95,0.97 -0.933,0 -1.587,-0.324 -1.96,-0.97 -0.373,-0.647 -0.56,-1.554 -0.56,-2.72 z m 4.13,0 c 0,-0.58 -0.04,-1.07 -0.12,-1.47 -0.073,-0.407 -0.23,-0.734 -0.47,-0.98 -0.233,-0.247 -0.573,-0.37 -1.02,-0.37 -0.453,0 -0.8,0.123 -1.04,0.37 -0.233,0.246 -0.39,0.573 -0.47,0.98 -0.073,0.4 -0.11,0.89 -0.11,1.47 0,0.6 0.037,1.103 0.11,1.51 0.08,0.406 0.237,0.733 0.47,0.98 0.24,0.246 0.587,0.37 1.04,0.37 0.447,0 0.787,-0.124 1.02,-0.37 0.24,-0.247 0.397,-0.574 0.47,-0.98 0.08,-0.407 0.12,-0.91 0.12,-1.51 z m 2.129,-1.72 c 0.047,-0.614 0.284,-1.094 0.71,-1.44 0.427,-0.347 0.98,-0.52 1.66,-0.52 0.454,0 0.844,0.083 1.17,0.25 0.334,0.16 0.584,0.38 0.75,0.66 0.174,0.28 0.26,0.596 0.26,0.95 0,0.413 -0.12,0.77 -0.36,1.07 -0.233,0.3 -0.54,0.493 -0.92,0.58 v 0.05 c 0.434,0.106 0.777,0.316 1.03,0.63 0.254,0.313 0.38,0.723 0.38,1.23 0,0.38 -0.086,0.723 -0.26,1.03 -0.173,0.3 -0.433,0.536 -0.78,0.71 -0.346,0.173 -0.763,0.26 -1.25,0.26 -0.706,0 -1.286,-0.184 -1.74,-0.55 -0.453,-0.374 -0.706,-0.9 -0.76,-1.58 h 0.88 c 0.047,0.4 0.21,0.726 0.49,0.98 0.28,0.253 0.654,0.38 1.12,0.38 0.467,0 0.82,-0.12 1.06,-0.36 0.247,-0.247 0.37,-0.564 0.37,-0.95 0,-0.5 -0.166,-0.86 -0.5,-1.08 -0.333,-0.22 -0.836,-0.33 -1.51,-0.33 h -0.23 v -0.76 h 0.24 c 0.614,-0.007 1.077,-0.107 1.39,-0.3 0.314,-0.2 0.47,-0.507 0.47,-0.92 0,-0.354 -0.116,-0.637 -0.35,-0.85 -0.226,-0.214 -0.553,-0.32 -0.98,-0.32 -0.413,0 -0.746,0.106 -1,0.32 -0.253,0.213 -0.403,0.5 -0.45,0.86 z"
     fill="#000000"
     id="path11" />
  <path
     d="m 579.836,512.953 c 0,-1.147 0.186,-2.04 0.56,-2.68 0.373,-0.647 1.026,-0.97 1.96,-0.97 0.926,0 1.576,0.323 1.95,0.97 0.373,0.64 0.56,1.533 0.56,2.68 0,1.166 -0.187,2.073 -0.56,2.72 -0.374,0.646 -1.024,0.97 -1.95,0.97 -0.934,0 -1.587,-0.324 -1.96,-0.97 -0.374,-0.647 -0.56,-1.554 -0.56,-2.72 z m 4.13,0 c 0,-0.58 -0.04,-1.07 -0.12,-1.47 -0.074,-0.407 -0.23,-0.734 -0.47,-0.98 -0.234,-0.247 -0.574,-0.37 -1.02,-0.37 -0.454,0 -0.8,0.123 -1.04,0.37 -0.234,0.246 -0.39,0.573 -0.47,0.98 -0.074,0.4 -0.11,0.89 -0.11,1.47 0,0.6 0.036,1.103 0.11,1.51 0.08,0.406 0.236,0.733 0.47,0.98 0.24,0.246 0.586,0.37 1.04,0.37 0.446,0 0.786,-0.124 1.02,-0.37 0.24,-0.247 0.396,-0.574 0.47,-0.98 0.08,-0.407 0.12,-0.91 0.12,-1.51 z m 1.929,2.08 v -0.69 l 3.51,-4.86 h 1.09 v 4.76 h 1 v 0.79 h -1 v 1.61 h -0.9 v -1.61 z m 3.74,-4.6 -2.69,3.81 h 2.69 z"
     fill="#000000"
     id="path12" />
  <path
     d="m 625.841,512.953 c 0,-1.147 0.186,-2.04 0.56,-2.68 0.373,-0.647 1.026,-0.97 1.96,-0.97 0.926,0 1.576,0.323 1.95,0.97 0.373,0.64 0.56,1.533 0.56,2.68 0,1.166 -0.187,2.073 -0.56,2.72 -0.374,0.646 -1.024,0.97 -1.95,0.97 -0.934,0 -1.587,-0.324 -1.96,-0.97 -0.374,-0.647 -0.56,-1.554 -0.56,-2.72 z m 4.13,0 c 0,-0.58 -0.04,-1.07 -0.12,-1.47 -0.074,-0.407 -0.23,-0.734 -0.47,-0.98 -0.234,-0.247 -0.574,-0.37 -1.02,-0.37 -0.454,0 -0.8,0.123 -1.04,0.37 -0.234,0.246 -0.39,0.573 -0.47,0.98 -0.074,0.4 -0.11,0.89 -0.11,1.47 0,0.6 0.036,1.103 0.11,1.51 0.08,0.406 0.236,0.733 0.47,0.98 0.24,0.246 0.586,0.37 1.04,0.37 0.446,0 0.786,-0.124 1.02,-0.37 0.24,-0.247 0.396,-0.574 0.47,-0.98 0.08,-0.407 0.12,-0.91 0.12,-1.51 z m 6.759,-2.75 h -3.51 v 2.28 c 0.153,-0.214 0.38,-0.387 0.68,-0.52 0.3,-0.14 0.623,-0.21 0.97,-0.21 0.553,0 1.003,0.116 1.35,0.35 0.347,0.226 0.593,0.523 0.74,0.89 0.153,0.36 0.23,0.743 0.23,1.15 0,0.48 -0.09,0.91 -0.27,1.29 -0.18,0.38 -0.457,0.68 -0.83,0.9 -0.367,0.22 -0.823,0.33 -1.37,0.33 -0.7,0 -1.267,-0.18 -1.7,-0.54 -0.433,-0.36 -0.697,-0.84 -0.79,-1.44 h 0.89 c 0.087,0.38 0.27,0.676 0.55,0.89 0.28,0.213 0.633,0.32 1.06,0.32 0.527,0 0.923,-0.157 1.19,-0.47 0.267,-0.32 0.4,-0.74 0.4,-1.26 0,-0.52 -0.133,-0.92 -0.4,-1.2 -0.267,-0.287 -0.66,-0.43 -1.18,-0.43 -0.353,0 -0.663,0.086 -0.93,0.26 -0.26,0.166 -0.45,0.396 -0.57,0.69 h -0.86 v -4.08 h 4.35 z"
     fill="#000000"
     id="path13" />
  <path
     d="m 671.807,512.953 c 0,-1.147 0.186,-2.04 0.56,-2.68 0.373,-0.647 1.026,-0.97 1.96,-0.97 0.926,0 1.576,0.323 1.95,0.97 0.373,0.64 0.56,1.533 0.56,2.68 0,1.166 -0.187,2.073 -0.56,2.72 -0.374,0.646 -1.024,0.97 -1.95,0.97 -0.934,0 -1.587,-0.324 -1.96,-0.97 -0.374,-0.647 -0.56,-1.554 -0.56,-2.72 z m 4.13,0 c 0,-0.58 -0.04,-1.07 -0.12,-1.47 -0.074,-0.407 -0.23,-0.734 -0.47,-0.98 -0.234,-0.247 -0.574,-0.37 -1.02,-0.37 -0.454,0 -0.8,0.123 -1.04,0.37 -0.234,0.246 -0.39,0.573 -0.47,0.98 -0.074,0.4 -0.11,0.89 -0.11,1.47 0,0.6 0.036,1.103 0.11,1.51 0.08,0.406 0.236,0.733 0.47,0.98 0.24,0.246 0.586,0.37 1.04,0.37 0.446,0 0.786,-0.124 1.02,-0.37 0.24,-0.247 0.396,-0.574 0.47,-0.98 0.08,-0.407 0.12,-0.91 0.12,-1.51 z m 6.179,-1.82 c -0.147,-0.74 -0.604,-1.11 -1.37,-1.11 -0.594,0 -1.037,0.23 -1.33,0.69 -0.294,0.453 -0.437,1.203 -0.43,2.25 0.153,-0.347 0.406,-0.617 0.76,-0.81 0.36,-0.2 0.76,-0.3 1.2,-0.3 0.686,0 1.233,0.213 1.64,0.64 0.413,0.426 0.62,1.016 0.62,1.77 0,0.453 -0.09,0.86 -0.27,1.22 -0.174,0.36 -0.44,0.646 -0.8,0.86 -0.354,0.213 -0.784,0.32 -1.29,0.32 -0.687,0 -1.224,-0.154 -1.61,-0.46 -0.387,-0.307 -0.657,-0.73 -0.81,-1.27 -0.154,-0.54 -0.23,-1.207 -0.23,-2 0,-2.447 0.853,-3.67 2.56,-3.67 0.653,0 1.166,0.176 1.54,0.53 0.373,0.353 0.593,0.8 0.66,1.34 z m -1.36,1.49 c -0.287,0 -0.557,0.06 -0.81,0.18 -0.254,0.113 -0.46,0.29 -0.62,0.53 -0.154,0.233 -0.23,0.52 -0.23,0.86 0,0.506 0.146,0.92 0.44,1.24 0.293,0.313 0.713,0.47 1.26,0.47 0.466,0 0.836,-0.144 1.11,-0.43 0.28,-0.294 0.42,-0.687 0.42,-1.18 0,-0.52 -0.134,-0.927 -0.4,-1.22 -0.267,-0.3 -0.657,-0.45 -1.17,-0.45 z"
     fill="#000000"
     id="path14" />
  <circle
     cx="449"
     cy="554"
     r="5"
     fill="#ffb858"
     id="circle14" />
  <circle
     cx="531"
     cy="554"
     r="5"
     fill="#721f6f"
     id="circle15" />
  <path
     d="m 457.564,432.999 45.577,-32.713 39.978,61 43.114,-58.246 43.113,24.367 43.114,-13.184"
     stroke="#721f6f"
     stroke-width="3"
     stroke-linecap="round"
     stroke-linejoin="round"
     id="path15" />
  <path
     d="m 457.57,459.286 45.577,13.288 39.977,-50.716 43.114,7.469 43.113,33.756 43.114,-78.9"
     stroke="#ffbe67"
     stroke-width="3"
     stroke-linecap="round"
     stroke-linejoin="round"
     id="path16" />
  <rect
     x="460"
     y="549"
     width="36"
     height="10"
     rx="5"
     fill="#ffe999"
     id="rect16" />
  <rect
     x="542"
     y="549"
     width="64"
     height="10"
     rx="5"
     fill="#f2f2f2"
     id="rect17" />
  <rect
     x="340"
     y="159"
     width="80"
     height="80"
     rx="40"
     fill="#fffae8"
     id="rect30" />
  <g
     clip-path="url(#clip2_670_8971)"
     id="g36"
     transform="translate(-240,62)">
    <path
       d="m 605.422,155.75 h 29.167"
       stroke="#000000"
       stroke-width="3"
       stroke-linecap="round"
       stroke-linejoin="round"
       id="path30" />
    <path
       d="m 607.5,149.502 h 4.167"
       stroke="#000000"
       stroke-width="3"
       stroke-linecap="round"
       stroke-linejoin="round"
       id="path31" />
    <path
       d="m 609.586,149.502 v 6.25"
       stroke="#000000"
       stroke-width="3"
       stroke-linecap="round"
       stroke-linejoin="round"
       id="path32" />
    <path
       d="m 613.75,134.916 6.25,6.25 12.5,-12.5 -6.25,-6.25 z"
       fill="#ffbe67"
       stroke="#000000"
       stroke-width="3"
       stroke-linecap="round"
       stroke-linejoin="round"
       id="path33" />
    <path
       d="m 616.875,138.039 -3.125,3.125"
       stroke="#000000"
       stroke-width="3"
       stroke-linecap="round"
       stroke-linejoin="round"
       id="path34" />
    <path
       d="m 630.414,118.25 6.25,6.25"
       stroke="#000000"
       stroke-width="3"
       stroke-linecap="round"
       stroke-linejoin="round"
       id="path35" />
    <path
       d="m 620,155.748 c 2.598,0.001 5.131,-0.809 7.248,-2.315 2.117,-1.506 3.712,-3.634 4.563,-6.089 0.851,-2.454 0.917,-5.113 0.187,-7.607 -0.73,-2.493 -2.218,-4.697 -4.258,-6.305"
       stroke="#000000"
       stroke-width="3"
       stroke-linecap="round"
       stroke-linejoin="round"
       id="path36" />
  </g>
  <rect
     x="392"
     y="138"
     width="44"
     height="44"
     rx="22"
     fill="#ffb858"
     id="rect36" />
  <rect
     x="392"
     y="138"
     width="44"
     height="44"
     rx="22"
     stroke="#eddeff"
     stroke-width="4"
     id="rect37" />
  <g
     clip-path="url(#clip3_670_8971)"
     id="g37"
     transform="translate(-240,62)">
    <path
       d="m 649.831,105.5 c -0.221,0 -0.433,-0.088 -0.59,-0.244 -0.156,-0.156 -0.244,-0.368 -0.244,-0.589 0,-0.221 0.088,-0.433 0.244,-0.59 0.157,-0.156 0.369,-0.244 0.59,-0.244 h 0.833 v -1.666 h -3.333 c -0.442,0 -0.866,-0.176 -1.179,-0.488 -0.312,-0.313 -0.488,-0.737 -0.488,-1.179 v -8.3333 c 0,-0.4421 0.176,-0.866 0.488,-1.1785 0.313,-0.3126 0.737,-0.4882 1.179,-0.4882 h 13.333 c 0.442,0 0.866,0.1756 1.179,0.4882 0.312,0.3125 0.488,0.7364 0.488,1.1785 V 100.5 c 0,0.442 -0.176,0.866 -0.488,1.179 -0.313,0.312 -0.737,0.488 -1.179,0.488 h -3.333 v 1.666 h 0.833 c 0.221,0 0.433,0.088 0.589,0.244 0.157,0.157 0.244,0.369 0.244,0.59 0,0.221 -0.087,0.433 -0.244,0.589 -0.156,0.156 -0.368,0.244 -0.589,0.244 z m 5.833,-3.333 h -3.333 v 1.666 h 3.333 z"
       fill="#ffffff"
       id="path37" />
  </g>
  <rect
     x="637"
     y="159"
     width="80"
     height="80"
     rx="40"
     fill="#ffffff"
     id="rect38" />
  <rect
     x="637"
     y="159"
     width="80"
     height="80"
     rx="40"
     fill="#c67dff"
     fill-opacity="0.4"
     id="rect39" />
  <g
     clip-path="url(#clip4_670_8971)"
     id="g41"
     transform="translate(-310,62)">
    <path
       d="m 1002.84,142.617 c 0.26,0 0.51,0.102 0.69,0.284 0.19,0.182 0.29,0.429 0.29,0.687 v 4.401 l 3.83,-2.2 c 0.23,-0.129 0.49,-0.164 0.74,-0.097 0.25,0.067 0.46,0.229 0.59,0.452 l 0.98,1.681 c 0.13,0.223 0.16,0.488 0.1,0.736 -0.07,0.249 -0.23,0.461 -0.46,0.59 l -3.83,2.201 3.83,2.202 c 0.23,0.129 0.39,0.341 0.46,0.589 0.06,0.249 0.03,0.514 -0.1,0.737 l -0.98,1.681 c -0.13,0.223 -0.34,0.385 -0.59,0.452 -0.25,0.067 -0.51,0.032 -0.74,-0.097 l -3.83,-2.202 v 4.402 c 0,0.258 -0.1,0.504 -0.29,0.686 -0.18,0.182 -0.43,0.285 -0.69,0.285 h -1.95 c -0.25,0 -0.5,-0.103 -0.69,-0.285 -0.18,-0.182 -0.281,-0.428 -0.281,-0.686 v -4.402 l -3.832,2.201 c -0.224,0.129 -0.49,0.164 -0.74,0.097 -0.25,-0.067 -0.463,-0.229 -0.592,-0.452 l -0.976,-1.681 c -0.129,-0.223 -0.164,-0.488 -0.097,-0.737 0.067,-0.248 0.23,-0.46 0.454,-0.589 l 3.831,-2.201 -3.831,-2.201 c -0.224,-0.129 -0.387,-0.341 -0.454,-0.59 -0.067,-0.248 -0.032,-0.513 0.097,-0.736 l 0.976,-1.681 c 0.129,-0.223 0.342,-0.385 0.592,-0.452 0.25,-0.067 0.516,-0.032 0.74,0.097 l 3.832,2.2 v -4.401 c 0,-0.258 0.101,-0.505 0.281,-0.687 0.19,-0.182 0.44,-0.284 0.69,-0.284 z"
       fill="#721f6f"
       id="path39" />
    <path
       d="m 978.664,126.583 c 0,2.21 0.878,4.33 2.441,5.893 1.563,1.563 3.682,2.441 5.892,2.441 2.211,0 4.33,-0.878 5.893,-2.441 1.563,-1.563 2.441,-3.683 2.441,-5.893 0,-2.21 -0.878,-4.329 -2.441,-5.892 -1.563,-1.563 -3.682,-2.441 -5.893,-2.441 -2.21,0 -4.329,0.878 -5.892,2.441 -1.563,1.563 -2.441,3.682 -2.441,5.892 z"
       stroke="#000000"
       stroke-width="3"
       stroke-linecap="round"
       stroke-linejoin="round"
       id="path40" />
    <path
       d="m 974.5,155.75 v -4.167 c 0,-2.21 0.878,-4.329 2.441,-5.892 1.563,-1.563 3.682,-2.441 5.892,-2.441 h 8.334"
       stroke="#000000"
       stroke-width="3"
       stroke-linecap="round"
       stroke-linejoin="round"
       id="path41" />
  </g>
  <rect
     x="45"
     y="159"
     width="80"
     height="80"
     rx="40"
     fill="#9ea9fd"
     fill-opacity="0.4"
     id="rect41"
     style="fill:#9775fa;fill-opacity:0.40000001" />
  <g
     clip-path="url(#clip5_670_8971)"
     id="g46"
     transform="translate(-168,62)">
    <path
       d="m 240.492,120.334 h -2.083 c -1.105,0 -2.165,0.439 -2.946,1.22 -0.782,0.782 -1.221,1.842 -1.221,2.947 v 7.291 c 0,3.039 1.207,5.954 3.356,8.103 2.149,2.148 5.064,3.356 8.103,3.356 3.038,0 5.953,-1.208 8.102,-3.356 2.149,-2.149 3.356,-5.064 3.356,-8.103 v -7.291 c 0,-1.105 -0.439,-2.165 -1.221,-2.947 -0.781,-0.781 -1.841,-1.22 -2.946,-1.22 h -2.083"
       stroke="#000000"
       stroke-width="3"
       stroke-linecap="round"
       stroke-linejoin="round"
       id="path42" />
    <path
       d="m 244.664,143.25 c 0,1.642 0.323,3.267 0.952,4.784 0.628,1.516 1.548,2.894 2.709,4.055 1.161,1.161 2.539,2.081 4.056,2.709 1.516,0.629 3.142,0.952 4.783,0.952 1.642,0 3.267,-0.323 4.784,-0.952 1.516,-0.628 2.894,-1.548 4.055,-2.709 1.161,-1.161 2.081,-2.539 2.71,-4.055 0.628,-1.517 0.951,-3.142 0.951,-4.784 V 137"
       stroke="#000000"
       stroke-width="3"
       stroke-linecap="round"
       stroke-linejoin="round"
       id="path43" />
    <path
       d="m 250.906,118.25 v 4.167"
       stroke="#000000"
       stroke-width="3"
       stroke-linecap="round"
       stroke-linejoin="round"
       id="path44" />
    <path
       d="m 240.5,118.25 v 4.167"
       stroke="#000000"
       stroke-width="3"
       stroke-linecap="round"
       stroke-linejoin="round"
       id="path45" />
    <path
       d="m 265.492,132.831 c 0,1.105 0.439,2.165 1.221,2.946 0.781,0.781 1.841,1.22 2.946,1.22 1.105,0 2.165,-0.439 2.946,-1.22 0.782,-0.781 1.221,-1.841 1.221,-2.946 0,-1.105 -0.439,-2.165 -1.221,-2.947 -0.781,-0.781 -1.841,-1.22 -2.946,-1.22 -1.105,0 -2.165,0.439 -2.946,1.22 -0.782,0.782 -1.221,1.842 -1.221,2.947 z"
       fill="#9ea9fd"
       stroke="#9ea9fd"
       stroke-width="3"
       stroke-linecap="round"
       stroke-linejoin="round"
       id="path46" />
  </g>
  <rect
     x="97"
     y="138"
     width="44"
     height="44"
     rx="22"
     fill="#9ea9fd"
     id="rect46" />
  <rect
     x="97"
     y="138"
     width="44"
     height="44"
     rx="22"
     stroke="#eddeff"
     stroke-width="4"
     id="rect47" />
  <g
     clip-path="url(#clip6_670_8971)"
     id="g47"
     transform="translate(-168,62)">
    <path
       d="m 292,89.666 c 0.663,0 1.299,0.2634 1.768,0.7322 0.469,0.4689 0.732,1.1048 0.732,1.7678 v 11.667 c 0,0.663 -0.263,1.299 -0.732,1.767 -0.469,0.469 -1.105,0.733 -1.768,0.733 h -10 c -0.663,0 -1.299,-0.264 -1.768,-0.733 -0.469,-0.468 -0.732,-1.104 -0.732,-1.767 V 92.166 c 0,-0.663 0.263,-1.2989 0.732,-1.7678 0.469,-0.4688 1.105,-0.7322 1.768,-0.7322 z m -2.5,13.333 h -5 c -0.221,0 -0.433,0.088 -0.589,0.244 -0.157,0.157 -0.244,0.369 -0.244,0.59 0,0.221 0.087,0.433 0.244,0.589 0.156,0.156 0.368,0.244 0.589,0.244 h 5 c 0.221,0 0.433,-0.088 0.589,-0.244 0.157,-0.156 0.244,-0.368 0.244,-0.589 0,-0.221 -0.087,-0.433 -0.244,-0.59 -0.156,-0.156 -0.368,-0.244 -0.589,-0.244 z"
       fill="#ffffff"
       id="path47" />
  </g>
  <rect
     x="689"
     y="138"
     width="44"
     height="44"
     rx="22"
     fill="#721f6f"
     id="rect48" />
  <rect
     x="689"
     y="138"
     width="44"
     height="44"
     rx="22"
     stroke="#eddeff"
     stroke-width="4"
     id="rect49" />
  <g
     clip-path="url(#clip7_670_8971)"
     id="g49"
     transform="translate(-310,62)">
    <path
       d="m 1024.33,89.666 c 0.64,0 1.25,0.2436 1.72,0.6811 0.46,0.4375 0.74,1.0357 0.78,1.6722 v 0.1467 11.667 c 0,0.637 -0.24,1.251 -0.68,1.715 -0.44,0.464 -1.04,0.743 -1.67,0.781 l -0.15,0.004 h -6.67 c -0.63,0 -1.25,-0.244 -1.71,-0.681 -0.47,-0.438 -0.74,-1.036 -0.78,-1.673 l -0.01,-0.146 V 92.166 c 0,-0.6377 0.25,-1.2512 0.69,-1.7152 0.43,-0.464 1.03,-0.7432 1.67,-0.7806 l 0.14,-0.0042 z m -3.33,11.667 c -0.21,0 -0.4,0.075 -0.56,0.21 -0.15,0.136 -0.25,0.323 -0.27,0.526 l -0.01,0.097 0.01,0.106 c 0.02,0.202 0.12,0.389 0.27,0.525 0.16,0.135 0.35,0.21 0.56,0.21 0.2,0 0.4,-0.075 0.55,-0.21 0.15,-0.136 0.25,-0.323 0.27,-0.525 l 0.01,-0.098 -0.01,-0.105 c -0.02,-0.203 -0.12,-0.39 -0.27,-0.526 -0.15,-0.135 -0.35,-0.21 -0.55,-0.21 z m 0.83,-10.0003 h -1.67 l -0.09,0.0058 c -0.21,0.0241 -0.39,0.1216 -0.53,0.2742 -0.13,0.1525 -0.21,0.3493 -0.21,0.5533 0,0.204 0.08,0.4009 0.21,0.5534 0.14,0.1525 0.32,0.25 0.53,0.2741 l 0.09,0.0058 h 1.67 l 0.1,-0.0058 c 0.2,-0.0241 0.39,-0.1216 0.52,-0.2741 0.14,-0.1525 0.21,-0.3494 0.21,-0.5534 0,-0.204 -0.07,-0.4008 -0.21,-0.5533 -0.13,-0.1526 -0.32,-0.2501 -0.52,-0.2742 z"
       fill="#ffffff"
       id="path49" />
  </g>
  <rect
     x="47.5"
     y="289.5"
     width="299"
     height="299"
     rx="15.5"
     fill="#d9ddff"
     id="rect50" />
  <rect
     x="47.5"
     y="289.5"
     width="299"
     height="299"
     rx="15.5"
     stroke="#9ea9fd"
     id="rect51" />
  <rect
     x="57"
     y="299"
     width="280"
     height="280"
     rx="10"
     fill="#ffffff"
     id="rect52" />
  <rect
     x="77"
     y="420"
     width="70"
     height="70"
     rx="35"
     fill="#721f6f"
     id="rect53" />
  <path
     d="m 98.266,448.18 v 5.917 h 6.45 v 1.904 h -6.45 v 6.095 h 7.212 V 464 h -9.523 v -17.724 h 9.523 v 1.904 z m 28.407,-1.752 V 464 h -2.311 V 450.897 L 118.522,464 h -1.625 l -5.866,-13.128 V 464 h -2.311 v -17.572 h 2.489 l 6.5,14.525 6.501,-14.525 z"
     fill="#ffffff"
     id="path53" />
  <rect
     x="77.5"
     y="516.5"
     width="239"
     height="40"
     rx="20"
     stroke="#f2f2f2"
     id="rect54" />
  <path
     d="m 144.422,539.154 h -3.783 l -0.65,1.846 h -1.547 l 3.237,-9.048 h 1.716 l 3.237,9.048 h -1.56 z m -0.416,-1.209 -1.469,-4.199 -1.482,4.199 z m 3.409,-0.559 c 0,-0.719 0.148,-1.356 0.442,-1.911 0.304,-0.555 0.711,-0.984 1.222,-1.287 0.52,-0.312 1.097,-0.468 1.729,-0.468 0.468,0 0.928,0.104 1.378,0.312 0.46,0.199 0.824,0.468 1.092,0.806 v -3.458 h 1.495 V 541 h -1.495 v -1.079 c -0.242,0.347 -0.58,0.633 -1.014,0.858 -0.424,0.225 -0.914,0.338 -1.469,0.338 -0.624,0 -1.196,-0.156 -1.716,-0.468 -0.511,-0.321 -0.918,-0.763 -1.222,-1.326 -0.294,-0.572 -0.442,-1.218 -0.442,-1.937 z m 5.863,0.026 c 0,-0.494 -0.104,-0.923 -0.312,-1.287 -0.199,-0.364 -0.463,-0.641 -0.793,-0.832 -0.329,-0.191 -0.684,-0.286 -1.066,-0.286 -0.381,0 -0.736,0.095 -1.066,0.286 -0.329,0.182 -0.598,0.455 -0.806,0.819 -0.199,0.355 -0.299,0.78 -0.299,1.274 0,0.494 0.1,0.927 0.299,1.3 0.208,0.373 0.477,0.659 0.806,0.858 0.338,0.191 0.694,0.286 1.066,0.286 0.382,0 0.737,-0.095 1.066,-0.286 0.33,-0.191 0.594,-0.468 0.793,-0.832 0.208,-0.373 0.312,-0.806 0.312,-1.3 z m 2.818,-0.026 c 0,-0.719 0.147,-1.356 0.442,-1.911 0.303,-0.555 0.711,-0.984 1.222,-1.287 0.52,-0.312 1.096,-0.468 1.729,-0.468 0.468,0 0.927,0.104 1.378,0.312 0.459,0.199 0.823,0.468 1.092,0.806 v -3.458 h 1.495 V 541 h -1.495 v -1.079 c -0.243,0.347 -0.581,0.633 -1.014,0.858 -0.425,0.225 -0.914,0.338 -1.469,0.338 -0.624,0 -1.196,-0.156 -1.716,-0.468 -0.511,-0.321 -0.919,-0.763 -1.222,-1.326 -0.295,-0.572 -0.442,-1.218 -0.442,-1.937 z m 5.863,0.026 c 0,-0.494 -0.104,-0.923 -0.312,-1.287 -0.199,-0.364 -0.464,-0.641 -0.793,-0.832 -0.329,-0.191 -0.685,-0.286 -1.066,-0.286 -0.381,0 -0.737,0.095 -1.066,0.286 -0.329,0.182 -0.598,0.455 -0.806,0.819 -0.199,0.355 -0.299,0.78 -0.299,1.274 0,0.494 0.1,0.927 0.299,1.3 0.208,0.373 0.477,0.659 0.806,0.858 0.338,0.191 0.693,0.286 1.066,0.286 0.381,0 0.737,-0.095 1.066,-0.286 0.329,-0.191 0.594,-0.468 0.793,-0.832 0.208,-0.373 0.312,-0.806 0.312,-1.3 z m 6.064,-0.026 c 0,-0.719 0.148,-1.356 0.442,-1.911 0.304,-0.555 0.711,-0.984 1.222,-1.287 0.52,-0.312 1.092,-0.468 1.716,-0.468 0.564,0 1.053,0.113 1.469,0.338 0.425,0.217 0.763,0.49 1.015,0.819 v -1.04 h 1.495 V 541 h -1.495 v -1.066 c -0.252,0.338 -0.594,0.62 -1.028,0.845 -0.433,0.225 -0.927,0.338 -1.482,0.338 -0.615,0 -1.178,-0.156 -1.69,-0.468 -0.511,-0.321 -0.918,-0.763 -1.222,-1.326 -0.294,-0.572 -0.442,-1.218 -0.442,-1.937 z m 5.864,0.026 c 0,-0.494 -0.105,-0.923 -0.313,-1.287 -0.199,-0.364 -0.463,-0.641 -0.793,-0.832 -0.329,-0.191 -0.684,-0.286 -1.066,-0.286 -0.381,0 -0.736,0.095 -1.066,0.286 -0.329,0.182 -0.598,0.455 -0.806,0.819 -0.199,0.355 -0.299,0.78 -0.299,1.274 0,0.494 0.1,0.927 0.299,1.3 0.208,0.373 0.477,0.659 0.806,0.858 0.338,0.191 0.694,0.286 1.066,0.286 0.382,0 0.737,-0.095 1.066,-0.286 0.33,-0.191 0.594,-0.468 0.793,-0.832 0.208,-0.373 0.313,-0.806 0.313,-1.3 z M 187.868,541 h -1.482 l -4.459,-6.747 V 541 h -1.482 v -9.048 h 1.482 l 4.459,6.734 v -6.734 h 1.482 z m 8.381,-3.757 c 0,0.269 -0.017,0.511 -0.052,0.728 h -5.473 c 0.043,0.572 0.256,1.031 0.637,1.378 0.381,0.347 0.849,0.52 1.404,0.52 0.797,0 1.361,-0.334 1.69,-1.001 h 1.599 c -0.217,0.659 -0.611,1.2 -1.183,1.625 -0.563,0.416 -1.265,0.624 -2.106,0.624 -0.685,0 -1.3,-0.152 -1.846,-0.455 -0.537,-0.312 -0.962,-0.745 -1.274,-1.3 -0.303,-0.563 -0.455,-1.213 -0.455,-1.95 0,-0.737 0.147,-1.382 0.442,-1.937 0.303,-0.563 0.724,-0.997 1.261,-1.3 0.546,-0.303 1.17,-0.455 1.872,-0.455 0.676,0 1.278,0.147 1.807,0.442 0.529,0.295 0.94,0.711 1.235,1.248 0.295,0.529 0.442,1.14 0.442,1.833 z m -1.547,-0.468 c -0.009,-0.546 -0.204,-0.984 -0.585,-1.313 -0.381,-0.329 -0.854,-0.494 -1.417,-0.494 -0.511,0 -0.949,0.165 -1.313,0.494 -0.364,0.321 -0.581,0.758 -0.65,1.313 z m 12.496,-2.938 -2.223,7.163 h -1.56 l -1.443,-5.291 -1.443,5.291 h -1.56 l -2.236,-7.163 h 1.508 l 1.495,5.759 1.521,-5.759 h 1.547 l 1.456,5.733 1.482,-5.733 z m 10.542,0.819 c 0,0.459 -0.108,0.893 -0.325,1.3 -0.217,0.407 -0.563,0.741 -1.04,1.001 -0.477,0.251 -1.088,0.377 -1.833,0.377 h -1.638 V 541 h -1.482 v -9.035 h 3.12 c 0.693,0 1.278,0.121 1.755,0.364 0.485,0.234 0.845,0.555 1.079,0.962 0.243,0.407 0.364,0.862 0.364,1.365 z m -3.198,1.469 c 0.563,0 0.984,-0.126 1.261,-0.377 0.277,-0.26 0.416,-0.624 0.416,-1.092 0,-0.988 -0.559,-1.482 -1.677,-1.482 h -1.638 v 2.951 z m 3.988,1.261 c 0,-0.719 0.147,-1.356 0.442,-1.911 0.303,-0.555 0.71,-0.984 1.222,-1.287 0.52,-0.312 1.092,-0.468 1.716,-0.468 0.563,0 1.053,0.113 1.469,0.338 0.424,0.217 0.762,0.49 1.014,0.819 v -1.04 h 1.495 V 541 h -1.495 v -1.066 c -0.252,0.338 -0.594,0.62 -1.027,0.845 -0.434,0.225 -0.928,0.338 -1.482,0.338 -0.616,0 -1.179,-0.156 -1.69,-0.468 -0.512,-0.321 -0.919,-0.763 -1.222,-1.326 -0.295,-0.572 -0.442,-1.218 -0.442,-1.937 z m 5.863,0.026 c 0,-0.494 -0.104,-0.923 -0.312,-1.287 -0.2,-0.364 -0.464,-0.641 -0.793,-0.832 -0.33,-0.191 -0.685,-0.286 -1.066,-0.286 -0.382,0 -0.737,0.095 -1.066,0.286 -0.33,0.182 -0.598,0.455 -0.806,0.819 -0.2,0.355 -0.299,0.78 -0.299,1.274 0,0.494 0.099,0.927 0.299,1.3 0.208,0.373 0.476,0.659 0.806,0.858 0.338,0.191 0.693,0.286 1.066,0.286 0.381,0 0.736,-0.095 1.066,-0.286 0.329,-0.191 0.593,-0.468 0.793,-0.832 0.208,-0.373 0.312,-0.806 0.312,-1.3 z m 5.04,-2.366 v 3.965 c 0,0.269 0.061,0.464 0.182,0.585 0.13,0.113 0.347,0.169 0.65,0.169 h 0.91 V 541 h -1.17 c -0.667,0 -1.179,-0.156 -1.534,-0.468 -0.355,-0.312 -0.533,-0.819 -0.533,-1.521 v -3.965 h -0.845 v -1.209 h 0.845 v -1.781 h 1.495 v 1.781 h 1.742 v 1.209 z m 3.732,-2.158 c -0.269,0 -0.494,-0.091 -0.676,-0.273 -0.182,-0.182 -0.273,-0.407 -0.273,-0.676 0,-0.269 0.091,-0.494 0.273,-0.676 0.182,-0.182 0.407,-0.273 0.676,-0.273 0.26,0 0.481,0.091 0.663,0.273 0.182,0.182 0.273,0.407 0.273,0.676 0,0.269 -0.091,0.494 -0.273,0.676 -0.182,0.182 -0.403,0.273 -0.663,0.273 z m 0.728,0.949 V 541 h -1.482 v -7.163 z m 8.381,3.406 c 0,0.269 -0.018,0.511 -0.052,0.728 h -5.473 c 0.043,0.572 0.255,1.031 0.637,1.378 0.381,0.347 0.849,0.52 1.404,0.52 0.797,0 1.36,-0.334 1.69,-1.001 h 1.599 c -0.217,0.659 -0.611,1.2 -1.183,1.625 -0.564,0.416 -1.266,0.624 -2.106,0.624 -0.685,0 -1.3,-0.152 -1.846,-0.455 -0.538,-0.312 -0.962,-0.745 -1.274,-1.3 -0.304,-0.563 -0.455,-1.213 -0.455,-1.95 0,-0.737 0.147,-1.382 0.442,-1.937 0.303,-0.563 0.723,-0.997 1.261,-1.3 0.546,-0.303 1.17,-0.455 1.872,-0.455 0.676,0 1.278,0.147 1.807,0.442 0.528,0.295 0.94,0.711 1.235,1.248 0.294,0.529 0.442,1.14 0.442,1.833 z m -1.547,-0.468 c -0.009,-0.546 -0.204,-0.984 -0.585,-1.313 -0.382,-0.329 -0.854,-0.494 -1.417,-0.494 -0.512,0 -0.949,0.165 -1.313,0.494 -0.364,0.321 -0.581,0.758 -0.65,1.313 z m 6.489,-3.055 c 0.563,0 1.066,0.117 1.508,0.351 0.451,0.234 0.802,0.581 1.053,1.04 0.251,0.459 0.377,1.014 0.377,1.664 V 541 h -1.469 v -4.004 c 0,-0.641 -0.16,-1.131 -0.481,-1.469 -0.321,-0.347 -0.758,-0.52 -1.313,-0.52 -0.555,0 -0.997,0.173 -1.326,0.52 -0.321,0.338 -0.481,0.828 -0.481,1.469 V 541 h -1.482 v -7.163 h 1.482 v 0.819 c 0.243,-0.295 0.55,-0.524 0.923,-0.689 0.381,-0.165 0.784,-0.247 1.209,-0.247 z m 6.428,1.326 v 3.965 c 0,0.269 0.06,0.464 0.182,0.585 0.13,0.113 0.346,0.169 0.65,0.169 h 0.91 V 541 h -1.17 c -0.668,0 -1.179,-0.156 -1.534,-0.468 -0.356,-0.312 -0.533,-0.819 -0.533,-1.521 v -3.965 h -0.845 v -1.209 h 0.845 v -1.781 h 1.495 v 1.781 h 1.742 v 1.209 z"
     fill="#000000"
     id="path54" />
  <rect
     x="77"
     y="319"
     width="70"
     height="70"
     rx="35"
     fill="#9ea9fd"
     id="rect55" />
  <path
     d="m 102.736,347.18 v 5.917 h 6.45 v 1.904 h -6.45 v 6.095 h 7.212 V 363 h -9.523 v -17.724 h 9.523 v 1.904 z m 21.348,-1.879 v 1.879 h -4.825 V 363 h -2.311 v -15.82 h -4.85 v -1.879 z"
     fill="#ffffff"
     id="path55" />
  <path
     d="m 174.024,320.352 v 3.264 h 3.84 v 1.488 h -3.84 v 3.408 h 4.32 V 330 H 172.2 v -11.136 h 6.144 v 1.488 z m 8.535,2.32 v 4.88 c 0,0.331 0.074,0.571 0.224,0.72 0.16,0.139 0.426,0.208 0.8,0.208 h 1.12 V 330 h -1.44 c -0.822,0 -1.451,-0.192 -1.888,-0.576 -0.438,-0.384 -0.656,-1.008 -0.656,-1.872 v -4.88 h -1.04 v -1.488 h 1.04 v -2.192 h 1.84 v 2.192 h 2.144 v 1.488 z m 8.225,-1.632 c 0.672,0 1.269,0.144 1.792,0.432 0.533,0.288 0.949,0.715 1.248,1.28 0.309,0.565 0.464,1.248 0.464,2.048 v 5.2 h -1.808 v -4.928 c 0,-0.789 -0.198,-1.392 -0.592,-1.808 -0.395,-0.427 -0.934,-0.64 -1.616,-0.64 -0.683,0 -1.227,0.213 -1.632,0.64 -0.395,0.416 -0.592,1.019 -0.592,1.808 V 330 h -1.824 v -11.84 h 1.824 v 4.048 c 0.309,-0.373 0.698,-0.661 1.168,-0.864 0.48,-0.203 1.002,-0.304 1.568,-0.304 z m 5.062,4.512 c 0,-0.885 0.182,-1.669 0.544,-2.352 0.374,-0.683 0.875,-1.211 1.504,-1.584 0.64,-0.384 1.344,-0.576 2.112,-0.576 0.694,0 1.296,0.139 1.808,0.416 0.523,0.267 0.939,0.603 1.248,1.008 v -1.28 h 1.84 V 330 h -1.84 v -1.312 c -0.309,0.416 -0.73,0.763 -1.264,1.04 -0.533,0.277 -1.141,0.416 -1.824,0.416 -0.757,0 -1.45,-0.192 -2.08,-0.576 -0.629,-0.395 -1.13,-0.939 -1.504,-1.632 -0.362,-0.704 -0.544,-1.499 -0.544,-2.384 z m 7.216,0.032 c 0,-0.608 -0.128,-1.136 -0.384,-1.584 -0.245,-0.448 -0.57,-0.789 -0.976,-1.024 -0.405,-0.235 -0.842,-0.352 -1.312,-0.352 -0.469,0 -0.906,0.117 -1.312,0.352 -0.405,0.224 -0.736,0.56 -0.992,1.008 -0.245,0.437 -0.368,0.96 -0.368,1.568 0,0.608 0.123,1.141 0.368,1.6 0.256,0.459 0.587,0.811 0.992,1.056 0.416,0.235 0.854,0.352 1.312,0.352 0.47,0 0.907,-0.117 1.312,-0.352 0.406,-0.235 0.731,-0.576 0.976,-1.024 0.256,-0.459 0.384,-0.992 0.384,-1.6 z m 8.524,-4.544 c 0.693,0 1.312,0.144 1.856,0.432 0.555,0.288 0.987,0.715 1.296,1.28 0.309,0.565 0.464,1.248 0.464,2.048 v 5.2 h -1.808 v -4.928 c 0,-0.789 -0.197,-1.392 -0.592,-1.808 -0.395,-0.427 -0.933,-0.64 -1.616,-0.64 -0.683,0 -1.227,0.213 -1.632,0.64 -0.395,0.416 -0.592,1.019 -0.592,1.808 V 330 h -1.824 v -8.816 h 1.824 v 1.008 c 0.299,-0.363 0.677,-0.645 1.136,-0.848 0.469,-0.203 0.965,-0.304 1.488,-0.304 z m 9.171,3.376 c 0,-1.088 0.251,-2.064 0.752,-2.928 0.512,-0.864 1.2,-1.536 2.064,-2.016 0.875,-0.491 1.829,-0.736 2.864,-0.736 1.184,0 2.235,0.293 3.152,0.88 0.928,0.576 1.6,1.397 2.016,2.464 h -2.192 c -0.288,-0.587 -0.688,-1.024 -1.2,-1.312 -0.512,-0.288 -1.104,-0.432 -1.776,-0.432 -0.736,0 -1.392,0.165 -1.968,0.496 -0.576,0.331 -1.029,0.805 -1.36,1.424 -0.32,0.619 -0.48,1.339 -0.48,2.16 0,0.821 0.16,1.541 0.48,2.16 0.331,0.619 0.784,1.099 1.36,1.44 0.576,0.331 1.232,0.496 1.968,0.496 0.672,0 1.264,-0.144 1.776,-0.432 0.512,-0.288 0.912,-0.725 1.2,-1.312 h 2.192 c -0.416,1.067 -1.088,1.888 -2.016,2.464 -0.917,0.576 -1.968,0.864 -3.152,0.864 -1.045,0 -2,-0.24 -2.864,-0.72 -0.864,-0.491 -1.552,-1.168 -2.064,-2.032 -0.501,-0.864 -0.752,-1.84 -0.752,-2.928 z m 16.647,5.728 c -0.832,0 -1.584,-0.187 -2.256,-0.56 -0.672,-0.384 -1.2,-0.917 -1.584,-1.6 -0.384,-0.693 -0.576,-1.493 -0.576,-2.4 0,-0.896 0.197,-1.691 0.592,-2.384 0.395,-0.693 0.933,-1.227 1.616,-1.6 0.683,-0.373 1.445,-0.56 2.288,-0.56 0.843,0 1.605,0.187 2.288,0.56 0.683,0.373 1.221,0.907 1.616,1.6 0.395,0.693 0.592,1.488 0.592,2.384 0,0.896 -0.203,1.691 -0.608,2.384 -0.405,0.693 -0.96,1.232 -1.664,1.616 -0.693,0.373 -1.461,0.56 -2.304,0.56 z m 0,-1.584 c 0.469,0 0.907,-0.112 1.312,-0.336 0.416,-0.224 0.752,-0.56 1.008,-1.008 0.256,-0.448 0.384,-0.992 0.384,-1.632 0,-0.64 -0.123,-1.179 -0.368,-1.616 -0.245,-0.448 -0.571,-0.784 -0.976,-1.008 -0.405,-0.224 -0.843,-0.336 -1.312,-0.336 -0.469,0 -0.907,0.112 -1.312,0.336 -0.395,0.224 -0.709,0.56 -0.944,1.008 -0.235,0.437 -0.352,0.976 -0.352,1.616 0,0.949 0.24,1.685 0.72,2.208 0.491,0.512 1.104,0.768 1.84,0.768 z m 10.043,1.584 c -0.832,0 -1.584,-0.187 -2.256,-0.56 -0.672,-0.384 -1.2,-0.917 -1.584,-1.6 -0.384,-0.693 -0.576,-1.493 -0.576,-2.4 0,-0.896 0.197,-1.691 0.592,-2.384 0.395,-0.693 0.933,-1.227 1.616,-1.6 0.683,-0.373 1.445,-0.56 2.288,-0.56 0.843,0 1.605,0.187 2.288,0.56 0.683,0.373 1.221,0.907 1.616,1.6 0.395,0.693 0.592,1.488 0.592,2.384 0,0.896 -0.203,1.691 -0.608,2.384 -0.405,0.693 -0.96,1.232 -1.664,1.616 -0.693,0.373 -1.461,0.56 -2.304,0.56 z m 0,-1.584 c 0.469,0 0.907,-0.112 1.312,-0.336 0.416,-0.224 0.752,-0.56 1.008,-1.008 0.256,-0.448 0.384,-0.992 0.384,-1.632 0,-0.64 -0.123,-1.179 -0.368,-1.616 -0.245,-0.448 -0.571,-0.784 -0.976,-1.008 -0.405,-0.224 -0.843,-0.336 -1.312,-0.336 -0.469,0 -0.907,0.112 -1.312,0.336 -0.395,0.224 -0.709,0.56 -0.944,1.008 -0.235,0.437 -0.352,0.976 -0.352,1.616 0,0.949 0.24,1.685 0.72,2.208 0.491,0.512 1.104,0.768 1.84,0.768 z m 8.043,-6.08 c 0.31,-0.405 0.731,-0.747 1.264,-1.024 0.534,-0.277 1.136,-0.416 1.808,-0.416 0.768,0 1.467,0.192 2.096,0.576 0.64,0.373 1.142,0.901 1.504,1.584 0.363,0.683 0.544,1.467 0.544,2.352 0,0.885 -0.181,1.68 -0.544,2.384 -0.362,0.693 -0.864,1.237 -1.504,1.632 -0.629,0.384 -1.328,0.576 -2.096,0.576 -0.672,0 -1.269,-0.133 -1.792,-0.4 -0.522,-0.277 -0.949,-0.619 -1.28,-1.024 v 5.472 h -1.824 v -13.008 h 1.824 z m 5.36,3.072 c 0,-0.608 -0.128,-1.131 -0.384,-1.568 -0.245,-0.448 -0.576,-0.784 -0.992,-1.008 -0.405,-0.235 -0.842,-0.352 -1.312,-0.352 -0.458,0 -0.896,0.117 -1.312,0.352 -0.405,0.235 -0.736,0.576 -0.992,1.024 -0.245,0.448 -0.368,0.976 -0.368,1.584 0,0.608 0.123,1.141 0.368,1.6 0.256,0.448 0.587,0.789 0.992,1.024 0.416,0.235 0.854,0.352 1.312,0.352 0.47,0 0.907,-0.117 1.312,-0.352 0.416,-0.245 0.747,-0.597 0.992,-1.056 0.256,-0.459 0.384,-0.992 0.384,-1.6 z m 11.58,-0.176 c 0,0.331 -0.021,0.629 -0.064,0.896 h -6.736 c 0.053,0.704 0.315,1.269 0.784,1.696 0.469,0.427 1.045,0.64 1.728,0.64 0.981,0 1.675,-0.411 2.08,-1.232 h 1.968 c -0.267,0.811 -0.752,1.477 -1.456,2 -0.693,0.512 -1.557,0.768 -2.592,0.768 -0.843,0 -1.6,-0.187 -2.272,-0.56 -0.661,-0.384 -1.184,-0.917 -1.568,-1.6 -0.373,-0.693 -0.56,-1.493 -0.56,-2.4 0,-0.907 0.181,-1.701 0.544,-2.384 0.373,-0.693 0.891,-1.227 1.552,-1.6 0.672,-0.373 1.44,-0.56 2.304,-0.56 0.832,0 1.573,0.181 2.224,0.544 0.651,0.363 1.157,0.875 1.52,1.536 0.363,0.651 0.544,1.403 0.544,2.256 z m -1.904,-0.576 c -0.011,-0.672 -0.251,-1.211 -0.72,-1.616 -0.469,-0.405 -1.051,-0.608 -1.744,-0.608 -0.629,0 -1.168,0.203 -1.616,0.608 -0.448,0.395 -0.715,0.933 -0.8,1.616 z m 5.363,-2.336 c 0.267,-0.448 0.619,-0.795 1.056,-1.04 0.448,-0.256 0.976,-0.384 1.584,-0.384 v 1.888 h -0.464 c -0.715,0 -1.259,0.181 -1.632,0.544 -0.363,0.363 -0.544,0.992 -0.544,1.888 V 330 h -1.824 v -8.816 h 1.824 z"
     fill="#560153"
     id="path56" />
  <rect
     x="171"
     y="340"
     width="52"
     height="19"
     rx="4.7892499"
     fill="#d9ddff"
     id="rect56" />
  <path
     d="m 179.37,349.51 c 0,-0.68 0.157,-1.29 0.47,-1.83 0.32,-0.54 0.75,-0.96 1.29,-1.26 0.547,-0.307 1.143,-0.46 1.79,-0.46 0.74,0 1.397,0.183 1.97,0.55 0.58,0.36 1,0.873 1.26,1.54 h -1.37 c -0.18,-0.367 -0.43,-0.64 -0.75,-0.82 -0.32,-0.18 -0.69,-0.27 -1.11,-0.27 -0.46,0 -0.87,0.103 -1.23,0.31 -0.36,0.207 -0.643,0.503 -0.85,0.89 -0.2,0.387 -0.3,0.837 -0.3,1.35 0,0.513 0.1,0.963 0.3,1.35 0.207,0.387 0.49,0.687 0.85,0.9 0.36,0.207 0.77,0.31 1.23,0.31 0.42,0 0.79,-0.09 1.11,-0.27 0.32,-0.18 0.57,-0.453 0.75,-0.82 h 1.37 c -0.26,0.667 -0.68,1.18 -1.26,1.54 -0.573,0.36 -1.23,0.54 -1.97,0.54 -0.653,0 -1.25,-0.15 -1.79,-0.45 -0.54,-0.307 -0.97,-0.73 -1.29,-1.27 -0.313,-0.54 -0.47,-1.15 -0.47,-1.83 z m 9.154,-3.91 v 7.4 h -1.14 v -7.4 z m 1.017,4.62 c 0,-0.553 0.113,-1.043 0.34,-1.47 0.233,-0.427 0.547,-0.757 0.94,-0.99 0.4,-0.24 0.84,-0.36 1.32,-0.36 0.433,0 0.81,0.087 1.13,0.26 0.327,0.167 0.587,0.377 0.78,0.63 v -0.8 h 1.15 V 353 h -1.15 v -0.82 c -0.193,0.26 -0.457,0.477 -0.79,0.65 -0.333,0.173 -0.713,0.26 -1.14,0.26 -0.473,0 -0.907,-0.12 -1.3,-0.36 -0.393,-0.247 -0.707,-0.587 -0.94,-1.02 -0.227,-0.44 -0.34,-0.937 -0.34,-1.49 z m 4.51,0.02 c 0,-0.38 -0.08,-0.71 -0.24,-0.99 -0.153,-0.28 -0.357,-0.493 -0.61,-0.64 -0.253,-0.147 -0.527,-0.22 -0.82,-0.22 -0.293,0 -0.567,0.073 -0.82,0.22 -0.253,0.14 -0.46,0.35 -0.62,0.63 -0.153,0.273 -0.23,0.6 -0.23,0.98 0,0.38 0.077,0.713 0.23,1 0.16,0.287 0.367,0.507 0.62,0.66 0.26,0.147 0.533,0.22 0.82,0.22 0.293,0 0.567,-0.073 0.82,-0.22 0.253,-0.147 0.457,-0.36 0.61,-0.64 0.16,-0.287 0.24,-0.62 0.24,-1 z m 3.687,-1.95 c 0.167,-0.28 0.387,-0.497 0.66,-0.65 0.28,-0.16 0.61,-0.24 0.99,-0.24 v 1.18 h -0.29 c -0.446,0 -0.786,0.113 -1.02,0.34 -0.226,0.227 -0.34,0.62 -0.34,1.18 v 2.9 h -1.14 v -5.51 h 1.14 z m 3.178,-1.53 c -0.206,0 -0.38,-0.07 -0.52,-0.21 -0.14,-0.14 -0.21,-0.313 -0.21,-0.52 0,-0.207 0.07,-0.38 0.21,-0.52 0.14,-0.14 0.314,-0.21 0.52,-0.21 0.2,0 0.37,0.07 0.51,0.21 0.14,0.14 0.21,0.313 0.21,0.52 0,0.207 -0.07,0.38 -0.21,0.52 -0.14,0.14 -0.31,0.21 -0.51,0.21 z m 0.56,0.73 V 353 h -1.14 v -5.51 z m 2.727,0.93 v 3.05 c 0,0.207 0.047,0.357 0.14,0.45 0.1,0.087 0.267,0.13 0.5,0.13 h 0.7 V 353 h -0.9 c -0.513,0 -0.907,-0.12 -1.18,-0.36 -0.273,-0.24 -0.41,-0.63 -0.41,-1.17 v -3.05 h -0.65 v -0.93 h 0.65 v -1.37 h 1.15 v 1.37 h 1.34 v 0.93 z m 2.871,-1.66 c -0.207,0 -0.38,-0.07 -0.52,-0.21 -0.14,-0.14 -0.21,-0.313 -0.21,-0.52 0,-0.207 0.07,-0.38 0.21,-0.52 0.14,-0.14 0.313,-0.21 0.52,-0.21 0.2,0 0.37,0.07 0.51,0.21 0.14,0.14 0.21,0.313 0.21,0.52 0,0.207 -0.07,0.38 -0.21,0.52 -0.14,0.14 -0.31,0.21 -0.51,0.21 z m 0.56,0.73 V 353 h -1.14 v -5.51 z m 4.176,-0.09 c 0.434,0 0.82,0.09 1.16,0.27 0.347,0.18 0.617,0.447 0.81,0.8 0.194,0.353 0.29,0.78 0.29,1.28 V 353 h -1.13 v -3.08 c 0,-0.493 -0.123,-0.87 -0.37,-1.13 -0.246,-0.267 -0.583,-0.4 -1.01,-0.4 -0.426,0 -0.766,0.133 -1.02,0.4 -0.246,0.26 -0.37,0.637 -0.37,1.13 V 353 h -1.14 v -5.51 h 1.14 v 0.63 c 0.187,-0.227 0.424,-0.403 0.71,-0.53 0.294,-0.127 0.604,-0.19 0.93,-0.19 z"
     fill="#560153"
     id="path57" />
  <rect
     x="231"
     y="340"
     width="78"
     height="19"
     rx="4.7892499"
     fill="#d9ddff"
     id="rect57" />
  <path
     d="m 243.94,351.58 h -2.91 l -0.5,1.42 h -1.19 l 2.49,-6.96 h 1.32 l 2.49,6.96 h -1.2 z m -0.32,-0.93 -1.13,-3.23 -1.14,3.23 z m 4.333,-2.23 v 3.05 c 0,0.207 0.046,0.357 0.14,0.45 0.1,0.087 0.266,0.13 0.5,0.13 h 0.7 V 353 h -0.9 c -0.514,0 -0.907,-0.12 -1.18,-0.36 -0.274,-0.24 -0.41,-0.63 -0.41,-1.17 v -3.05 h -0.65 v -0.93 h 0.65 v -1.37 h 1.15 v 1.37 h 1.34 v 0.93 z m 4.68,4.67 c -0.52,0 -0.99,-0.117 -1.41,-0.35 -0.42,-0.24 -0.75,-0.573 -0.99,-1 -0.24,-0.433 -0.36,-0.933 -0.36,-1.5 0,-0.56 0.124,-1.057 0.37,-1.49 0.247,-0.433 0.584,-0.767 1.01,-1 0.427,-0.233 0.904,-0.35 1.43,-0.35 0.527,0 1.004,0.117 1.43,0.35 0.427,0.233 0.764,0.567 1.01,1 0.247,0.433 0.37,0.93 0.37,1.49 0,0.56 -0.126,1.057 -0.38,1.49 -0.253,0.433 -0.6,0.77 -1.04,1.01 -0.433,0.233 -0.913,0.35 -1.44,0.35 z m 0,-0.99 c 0.294,0 0.567,-0.07 0.82,-0.21 0.26,-0.14 0.47,-0.35 0.63,-0.63 0.16,-0.28 0.24,-0.62 0.24,-1.02 0,-0.4 -0.076,-0.737 -0.23,-1.01 -0.153,-0.28 -0.356,-0.49 -0.61,-0.63 -0.253,-0.14 -0.526,-0.21 -0.82,-0.21 -0.293,0 -0.566,0.07 -0.82,0.21 -0.246,0.14 -0.443,0.35 -0.59,0.63 -0.146,0.273 -0.22,0.61 -0.22,1.01 0,0.593 0.15,1.053 0.45,1.38 0.307,0.32 0.69,0.48 1.15,0.48 z m 5.027,-3.81 c 0.167,-0.28 0.387,-0.497 0.66,-0.65 0.28,-0.16 0.61,-0.24 0.99,-0.24 v 1.18 h -0.29 c -0.446,0 -0.786,0.113 -1.02,0.34 -0.226,0.227 -0.34,0.62 -0.34,1.18 v 2.9 h -1.14 v -5.51 h 1.14 z m 4.728,3.69 1.56,-4.49 h 1.21 l -2.1,5.51 h -1.36 l -2.09,-5.51 h 1.22 z m 3.152,-1.76 c 0,-0.553 0.113,-1.043 0.34,-1.47 0.233,-0.427 0.547,-0.757 0.94,-0.99 0.4,-0.24 0.84,-0.36 1.32,-0.36 0.433,0 0.81,0.087 1.13,0.26 0.327,0.167 0.587,0.377 0.78,0.63 v -0.8 h 1.15 V 353 h -1.15 v -0.82 c -0.193,0.26 -0.457,0.477 -0.79,0.65 -0.333,0.173 -0.713,0.26 -1.14,0.26 -0.473,0 -0.907,-0.12 -1.3,-0.36 -0.393,-0.247 -0.707,-0.587 -0.94,-1.02 -0.227,-0.44 -0.34,-0.937 -0.34,-1.49 z m 4.51,0.02 c 0,-0.38 -0.08,-0.71 -0.24,-0.99 -0.153,-0.28 -0.357,-0.493 -0.61,-0.64 -0.253,-0.147 -0.527,-0.22 -0.82,-0.22 -0.293,0 -0.567,0.073 -0.82,0.22 -0.253,0.14 -0.46,0.35 -0.62,0.63 -0.153,0.273 -0.23,0.6 -0.23,0.98 0,0.38 0.077,0.713 0.23,1 0.16,0.287 0.367,0.507 0.62,0.66 0.26,0.147 0.533,0.22 0.82,0.22 0.293,0 0.567,-0.073 0.82,-0.22 0.253,-0.147 0.457,-0.36 0.61,-0.64 0.16,-0.287 0.24,-0.62 0.24,-1 z m 4.547,2.85 c -0.433,0 -0.823,-0.077 -1.17,-0.23 -0.34,-0.16 -0.61,-0.373 -0.81,-0.64 -0.2,-0.273 -0.306,-0.577 -0.32,-0.91 h 1.18 c 0.02,0.233 0.13,0.43 0.33,0.59 0.207,0.153 0.464,0.23 0.77,0.23 0.32,0 0.567,-0.06 0.74,-0.18 0.18,-0.127 0.27,-0.287 0.27,-0.48 0,-0.207 -0.1,-0.36 -0.3,-0.46 -0.193,-0.1 -0.503,-0.21 -0.93,-0.33 -0.413,-0.113 -0.75,-0.223 -1.01,-0.33 -0.26,-0.107 -0.486,-0.27 -0.68,-0.49 -0.186,-0.22 -0.28,-0.51 -0.28,-0.87 0,-0.293 0.087,-0.56 0.26,-0.8 0.174,-0.247 0.42,-0.44 0.74,-0.58 0.327,-0.14 0.7,-0.21 1.12,-0.21 0.627,0 1.13,0.16 1.51,0.48 0.387,0.313 0.594,0.743 0.62,1.29 h -1.14 c -0.02,-0.247 -0.12,-0.443 -0.3,-0.59 -0.18,-0.147 -0.423,-0.22 -0.73,-0.22 -0.3,0 -0.53,0.057 -0.69,0.17 -0.16,0.113 -0.24,0.263 -0.24,0.45 0,0.147 0.054,0.27 0.16,0.37 0.107,0.1 0.237,0.18 0.39,0.24 0.154,0.053 0.38,0.123 0.68,0.21 0.4,0.107 0.727,0.217 0.98,0.33 0.26,0.107 0.484,0.267 0.67,0.48 0.187,0.213 0.284,0.497 0.29,0.85 0,0.313 -0.086,0.593 -0.26,0.84 -0.173,0.247 -0.42,0.44 -0.74,0.58 -0.313,0.14 -0.683,0.21 -1.11,0.21 z m 4.572,-4.67 v 3.05 c 0,0.207 0.047,0.357 0.14,0.45 0.1,0.087 0.267,0.13 0.5,0.13 h 0.7 V 353 h -0.9 c -0.513,0 -0.907,-0.12 -1.18,-0.36 -0.273,-0.24 -0.41,-0.63 -0.41,-1.17 v -3.05 h -0.65 v -0.93 h 0.65 v -1.37 h 1.15 v 1.37 h 1.34 v 0.93 z m 1.911,1.8 c 0,-0.553 0.113,-1.043 0.34,-1.47 0.233,-0.427 0.546,-0.757 0.94,-0.99 0.4,-0.24 0.84,-0.36 1.32,-0.36 0.433,0 0.81,0.087 1.13,0.26 0.326,0.167 0.586,0.377 0.78,0.63 v -0.8 h 1.15 V 353 h -1.15 v -0.82 c -0.194,0.26 -0.457,0.477 -0.79,0.65 -0.334,0.173 -0.714,0.26 -1.14,0.26 -0.474,0 -0.907,-0.12 -1.3,-0.36 -0.394,-0.247 -0.707,-0.587 -0.94,-1.02 -0.227,-0.44 -0.34,-0.937 -0.34,-1.49 z m 4.51,0.02 c 0,-0.38 -0.08,-0.71 -0.24,-0.99 -0.154,-0.28 -0.357,-0.493 -0.61,-0.64 -0.254,-0.147 -0.527,-0.22 -0.82,-0.22 -0.294,0 -0.567,0.073 -0.82,0.22 -0.254,0.14 -0.46,0.35 -0.62,0.63 -0.154,0.273 -0.23,0.6 -0.23,0.98 0,0.38 0.076,0.713 0.23,1 0.16,0.287 0.366,0.507 0.62,0.66 0.26,0.147 0.533,0.22 0.82,0.22 0.293,0 0.566,-0.073 0.82,-0.22 0.253,-0.147 0.456,-0.36 0.61,-0.64 0.16,-0.287 0.24,-0.62 0.24,-1 z m 3.877,-1.82 v 3.05 c 0,0.207 0.047,0.357 0.14,0.45 0.1,0.087 0.267,0.13 0.5,0.13 h 0.7 V 353 h -0.9 c -0.513,0 -0.907,-0.12 -1.18,-0.36 -0.273,-0.24 -0.41,-0.63 -0.41,-1.17 v -3.05 h -0.65 v -0.93 h 0.65 v -1.37 h 1.15 v 1.37 h 1.34 v 0.93 z m 2.871,-1.66 c -0.207,0 -0.38,-0.07 -0.52,-0.21 -0.14,-0.14 -0.21,-0.313 -0.21,-0.52 0,-0.207 0.07,-0.38 0.21,-0.52 0.14,-0.14 0.313,-0.21 0.52,-0.21 0.2,0 0.37,0.07 0.51,0.21 0.14,0.14 0.21,0.313 0.21,0.52 0,0.207 -0.07,0.38 -0.21,0.52 -0.14,0.14 -0.31,0.21 -0.51,0.21 z m 0.56,0.73 V 353 h -1.14 v -5.51 z m 4.177,-0.09 c 0.433,0 0.82,0.09 1.16,0.27 0.346,0.18 0.616,0.447 0.81,0.8 0.193,0.353 0.29,0.78 0.29,1.28 V 353 h -1.13 v -3.08 c 0,-0.493 -0.124,-0.87 -0.37,-1.13 -0.247,-0.267 -0.584,-0.4 -1.01,-0.4 -0.427,0 -0.767,0.133 -1.02,0.4 -0.247,0.26 -0.37,0.637 -0.37,1.13 V 353 h -1.14 v -5.51 h 1.14 v 0.63 c 0.186,-0.227 0.423,-0.403 0.71,-0.53 0.293,-0.127 0.603,-0.19 0.93,-0.19 z"
     fill="#560153"
     id="path58" />
  <rect
     x="171"
     y="369"
     width="114"
     height="10"
     rx="5"
     fill="#f2f2f2"
     id="rect58" />
  <rect
     x="171"
     y="385"
     width="85"
     height="10"
     rx="5"
     fill="#f2f2f2"
     id="rect59" />
  <path
     d="m 174.024,421.352 v 3.264 h 3.84 v 1.488 h -3.84 v 3.408 h 4.32 V 431 H 172.2 v -11.136 h 6.144 v 1.488 z m 17.079,0.688 c 0.693,0 1.312,0.144 1.856,0.432 0.554,0.288 0.986,0.715 1.296,1.28 0.32,0.565 0.48,1.248 0.48,2.048 v 5.2 h -1.808 v -4.928 c 0,-0.789 -0.198,-1.392 -0.592,-1.808 -0.395,-0.427 -0.934,-0.64 -1.616,-0.64 -0.683,0 -1.227,0.213 -1.632,0.64 -0.395,0.416 -0.592,1.019 -0.592,1.808 V 431 h -1.808 v -4.928 c 0,-0.789 -0.198,-1.392 -0.592,-1.808 -0.395,-0.427 -0.934,-0.64 -1.616,-0.64 -0.683,0 -1.227,0.213 -1.632,0.64 -0.395,0.416 -0.592,1.019 -0.592,1.808 V 431 h -1.824 v -8.816 h 1.824 v 1.008 c 0.298,-0.363 0.677,-0.645 1.136,-0.848 0.458,-0.203 0.949,-0.304 1.472,-0.304 0.704,0 1.333,0.149 1.888,0.448 0.554,0.299 0.981,0.731 1.28,1.296 0.266,-0.533 0.682,-0.955 1.248,-1.264 0.565,-0.32 1.173,-0.48 1.824,-0.48 z m 6.721,-1.024 c -0.331,0 -0.608,-0.112 -0.832,-0.336 -0.224,-0.224 -0.336,-0.501 -0.336,-0.832 0,-0.331 0.112,-0.608 0.336,-0.832 0.224,-0.224 0.501,-0.336 0.832,-0.336 0.32,0 0.592,0.112 0.816,0.336 0.224,0.224 0.336,0.501 0.336,0.832 0,0.331 -0.112,0.608 -0.336,0.832 -0.224,0.224 -0.496,0.336 -0.816,0.336 z m 0.896,1.168 V 431 h -1.824 v -8.816 z m 4.058,-3.024 V 431 h -1.824 v -11.84 z m 10.171,3.024 -5.408,12.96 h -1.888 l 1.792,-4.288 -3.472,-8.672 h 2.032 l 2.48,6.72 2.576,-6.72 z m 16.925,-2.304 V 431 h -1.824 v -7.616 L 224.658,431 h -1.264 l -3.408,-7.616 V 431 h -1.824 v -11.12 h 1.968 l 3.904,8.72 3.888,-8.72 z m 1.629,6.672 c 0,-0.885 0.182,-1.669 0.544,-2.352 0.374,-0.683 0.875,-1.211 1.504,-1.584 0.64,-0.384 1.344,-0.576 2.112,-0.576 0.694,0 1.296,0.139 1.808,0.416 0.523,0.267 0.939,0.603 1.248,1.008 v -1.28 h 1.84 V 431 h -1.84 v -1.312 c -0.309,0.416 -0.73,0.763 -1.264,1.04 -0.533,0.277 -1.141,0.416 -1.824,0.416 -0.757,0 -1.45,-0.192 -2.08,-0.576 -0.629,-0.395 -1.13,-0.939 -1.504,-1.632 -0.362,-0.704 -0.544,-1.499 -0.544,-2.384 z m 7.216,0.032 c 0,-0.608 -0.128,-1.136 -0.384,-1.584 -0.245,-0.448 -0.57,-0.789 -0.976,-1.024 -0.405,-0.235 -0.842,-0.352 -1.312,-0.352 -0.469,0 -0.906,0.117 -1.312,0.352 -0.405,0.224 -0.736,0.56 -0.992,1.008 -0.245,0.437 -0.368,0.96 -0.368,1.568 0,0.608 0.123,1.141 0.368,1.6 0.256,0.459 0.587,0.811 0.992,1.056 0.416,0.235 0.854,0.352 1.312,0.352 0.47,0 0.907,-0.117 1.312,-0.352 0.406,-0.235 0.731,-0.576 0.976,-1.024 0.256,-0.459 0.384,-0.992 0.384,-1.6 z m 6.204,-2.912 v 4.88 c 0,0.331 0.075,0.571 0.224,0.72 0.16,0.139 0.427,0.208 0.8,0.208 h 1.12 V 431 h -1.44 c -0.821,0 -1.451,-0.192 -1.888,-0.576 -0.437,-0.384 -0.656,-1.008 -0.656,-1.872 v -4.88 h -1.04 v -1.488 h 1.04 v -2.192 h 1.84 v 2.192 h 2.144 v 1.488 z m 5.793,0 v 4.88 c 0,0.331 0.075,0.571 0.224,0.72 0.16,0.139 0.427,0.208 0.8,0.208 h 1.12 V 431 h -1.44 c -0.821,0 -1.451,-0.192 -1.888,-0.576 -0.437,-0.384 -0.656,-1.008 -0.656,-1.872 v -4.88 h -1.04 v -1.488 h 1.04 v -2.192 h 1.84 v 2.192 h 2.144 v 1.488 z m 8.225,-1.632 c 0.672,0 1.27,0.144 1.792,0.432 0.534,0.288 0.95,0.715 1.248,1.28 0.31,0.565 0.464,1.248 0.464,2.048 v 5.2 h -1.808 v -4.928 c 0,-0.789 -0.197,-1.392 -0.592,-1.808 -0.394,-0.427 -0.933,-0.64 -1.616,-0.64 -0.682,0 -1.226,0.213 -1.632,0.64 -0.394,0.416 -0.592,1.019 -0.592,1.808 V 431 h -1.824 v -11.84 h 1.824 v 4.048 c 0.31,-0.373 0.699,-0.661 1.168,-0.864 0.48,-0.203 1.003,-0.304 1.568,-0.304 z m 13.751,4.336 c 0,0.331 -0.021,0.629 -0.064,0.896 h -6.736 c 0.053,0.704 0.315,1.269 0.784,1.696 0.469,0.427 1.045,0.64 1.728,0.64 0.981,0 1.675,-0.411 2.08,-1.232 h 1.968 c -0.267,0.811 -0.752,1.477 -1.456,2 -0.693,0.512 -1.557,0.768 -2.592,0.768 -0.843,0 -1.6,-0.187 -2.272,-0.56 -0.661,-0.384 -1.184,-0.917 -1.568,-1.6 -0.373,-0.693 -0.56,-1.493 -0.56,-2.4 0,-0.907 0.181,-1.701 0.544,-2.384 0.373,-0.693 0.891,-1.227 1.552,-1.6 0.672,-0.373 1.44,-0.56 2.304,-0.56 0.832,0 1.573,0.181 2.224,0.544 0.651,0.363 1.157,0.875 1.52,1.536 0.363,0.651 0.544,1.403 0.544,2.256 z m -1.904,-0.576 c -0.011,-0.672 -0.251,-1.211 -0.72,-1.616 -0.469,-0.405 -1.051,-0.608 -1.744,-0.608 -0.629,0 -1.168,0.203 -1.616,0.608 -0.448,0.395 -0.715,0.933 -0.8,1.616 z m 15.379,-3.616 -2.736,8.816 h -1.92 l -1.776,-6.512 -1.776,6.512 h -1.92 l -2.752,-8.816 h 1.856 l 1.84,7.088 1.872,-7.088 h 1.904 l 1.792,7.056 1.824,-7.056 z m 4.403,8.96 c -0.693,0 -1.317,-0.123 -1.872,-0.368 -0.544,-0.256 -0.976,-0.597 -1.296,-1.024 -0.32,-0.437 -0.491,-0.923 -0.512,-1.456 h 1.888 c 0.032,0.373 0.208,0.688 0.528,0.944 0.331,0.245 0.741,0.368 1.232,0.368 0.512,0 0.907,-0.096 1.184,-0.288 0.288,-0.203 0.432,-0.459 0.432,-0.768 0,-0.331 -0.16,-0.576 -0.48,-0.736 -0.309,-0.16 -0.805,-0.336 -1.488,-0.528 -0.661,-0.181 -1.2,-0.357 -1.616,-0.528 -0.416,-0.171 -0.779,-0.432 -1.088,-0.784 -0.299,-0.352 -0.448,-0.816 -0.448,-1.392 0,-0.469 0.139,-0.896 0.416,-1.28 0.277,-0.395 0.672,-0.704 1.184,-0.928 0.523,-0.224 1.12,-0.336 1.792,-0.336 1.003,0 1.808,0.256 2.416,0.768 0.619,0.501 0.949,1.189 0.992,2.064 h -1.824 c -0.032,-0.395 -0.192,-0.709 -0.48,-0.944 -0.288,-0.235 -0.677,-0.352 -1.168,-0.352 -0.48,0 -0.848,0.091 -1.104,0.272 -0.256,0.181 -0.384,0.421 -0.384,0.72 0,0.235 0.085,0.432 0.256,0.592 0.171,0.16 0.379,0.288 0.624,0.384 0.245,0.085 0.608,0.197 1.088,0.336 0.64,0.171 1.163,0.347 1.568,0.528 0.416,0.171 0.773,0.427 1.072,0.768 0.299,0.341 0.453,0.795 0.464,1.36 0,0.501 -0.139,0.949 -0.416,1.344 -0.277,0.395 -0.672,0.704 -1.184,0.928 -0.501,0.224 -1.093,0.336 -1.776,0.336 z"
     fill="#560153"
     id="path59" />
  <rect
     x="171"
     y="441"
     width="67"
     height="19"
     rx="4.7892499"
     fill="#d9ddff"
     id="rect60" />
  <path
     d="M 187.07,447.05 V 454 h -1.14 v -4.76 l -2.12,4.76 h -0.79 l -2.13,-4.76 V 454 h -1.14 v -6.95 h 1.23 l 2.44,5.45 2.43,-5.45 z m 6.448,4.06 c 0,0.207 -0.013,0.393 -0.04,0.56 h -4.21 c 0.034,0.44 0.197,0.793 0.49,1.06 0.294,0.267 0.654,0.4 1.08,0.4 0.614,0 1.047,-0.257 1.3,-0.77 h 1.23 c -0.166,0.507 -0.47,0.923 -0.91,1.25 -0.433,0.32 -0.973,0.48 -1.62,0.48 -0.526,0 -1,-0.117 -1.42,-0.35 -0.413,-0.24 -0.74,-0.573 -0.98,-1 -0.233,-0.433 -0.35,-0.933 -0.35,-1.5 0,-0.567 0.114,-1.063 0.34,-1.49 0.234,-0.433 0.557,-0.767 0.97,-1 0.42,-0.233 0.9,-0.35 1.44,-0.35 0.52,0 0.984,0.113 1.39,0.34 0.407,0.227 0.724,0.547 0.95,0.96 0.227,0.407 0.34,0.877 0.34,1.41 z m -1.19,-0.36 c -0.006,-0.42 -0.156,-0.757 -0.45,-1.01 -0.293,-0.253 -0.656,-0.38 -1.09,-0.38 -0.393,0 -0.73,0.127 -1.01,0.38 -0.28,0.247 -0.446,0.583 -0.5,1.01 z m 3.542,-1.33 v 3.05 c 0,0.207 0.047,0.357 0.14,0.45 0.1,0.087 0.267,0.13 0.5,0.13 h 0.7 V 454 h -0.9 c -0.513,0 -0.906,-0.12 -1.18,-0.36 -0.273,-0.24 -0.41,-0.63 -0.41,-1.17 v -3.05 h -0.65 v -0.93 h 0.65 v -1.37 h 1.15 v 1.37 h 1.34 v 0.93 z m 4.601,0 h -1.02 V 454 h -1.15 v -4.58 h -0.65 v -0.93 h 0.65 v -0.39 c 0,-0.633 0.167,-1.093 0.5,-1.38 0.34,-0.293 0.87,-0.44 1.59,-0.44 v 0.95 c -0.347,0 -0.59,0.067 -0.73,0.2 -0.14,0.127 -0.21,0.35 -0.21,0.67 v 0.39 h 1.02 z m 3.3,4.67 c -0.52,0 -0.99,-0.117 -1.41,-0.35 -0.42,-0.24 -0.75,-0.573 -0.99,-1 -0.24,-0.433 -0.36,-0.933 -0.36,-1.5 0,-0.56 0.124,-1.057 0.37,-1.49 0.247,-0.433 0.584,-0.767 1.01,-1 0.427,-0.233 0.904,-0.35 1.43,-0.35 0.527,0 1.004,0.117 1.43,0.35 0.427,0.233 0.764,0.567 1.01,1 0.247,0.433 0.37,0.93 0.37,1.49 0,0.56 -0.126,1.057 -0.38,1.49 -0.253,0.433 -0.6,0.77 -1.04,1.01 -0.433,0.233 -0.913,0.35 -1.44,0.35 z m 0,-0.99 c 0.294,0 0.567,-0.07 0.82,-0.21 0.26,-0.14 0.47,-0.35 0.63,-0.63 0.16,-0.28 0.24,-0.62 0.24,-1.02 0,-0.4 -0.076,-0.737 -0.23,-1.01 -0.153,-0.28 -0.356,-0.49 -0.61,-0.63 -0.253,-0.14 -0.526,-0.21 -0.82,-0.21 -0.293,0 -0.566,0.07 -0.82,0.21 -0.246,0.14 -0.443,0.35 -0.59,0.63 -0.146,0.273 -0.22,0.61 -0.22,1.01 0,0.593 0.15,1.053 0.45,1.38 0.307,0.32 0.69,0.48 1.15,0.48 z m 5.027,-3.81 c 0.167,-0.28 0.387,-0.497 0.66,-0.65 0.28,-0.16 0.61,-0.24 0.99,-0.24 v 1.18 h -0.29 c -0.446,0 -0.786,0.113 -1.02,0.34 -0.226,0.227 -0.34,0.62 -0.34,1.18 v 2.9 h -1.14 v -5.51 h 1.14 z m 9.268,-0.89 c 0.433,0 0.82,0.09 1.16,0.27 0.347,0.18 0.617,0.447 0.81,0.8 0.2,0.353 0.3,0.78 0.3,1.28 V 454 h -1.13 v -3.08 c 0,-0.493 -0.123,-0.87 -0.37,-1.13 -0.247,-0.267 -0.583,-0.4 -1.01,-0.4 -0.427,0 -0.767,0.133 -1.02,0.4 -0.247,0.26 -0.37,0.637 -0.37,1.13 V 454 h -1.13 v -3.08 c 0,-0.493 -0.123,-0.87 -0.37,-1.13 -0.247,-0.267 -0.583,-0.4 -1.01,-0.4 -0.427,0 -0.767,0.133 -1.02,0.4 -0.247,0.26 -0.37,0.637 -0.37,1.13 V 454 h -1.14 v -5.51 h 1.14 v 0.63 c 0.187,-0.227 0.423,-0.403 0.71,-0.53 0.287,-0.127 0.593,-0.19 0.92,-0.19 0.44,0 0.833,0.093 1.18,0.28 0.347,0.187 0.613,0.457 0.8,0.81 0.167,-0.333 0.427,-0.597 0.78,-0.79 0.353,-0.2 0.733,-0.3 1.14,-0.3 z m 4.201,-0.64 c -0.207,0 -0.38,-0.07 -0.52,-0.21 -0.14,-0.14 -0.21,-0.313 -0.21,-0.52 0,-0.207 0.07,-0.38 0.21,-0.52 0.14,-0.14 0.313,-0.21 0.52,-0.21 0.2,0 0.37,0.07 0.51,0.21 0.14,0.14 0.21,0.313 0.21,0.52 0,0.207 -0.07,0.38 -0.21,0.52 -0.14,0.14 -0.31,0.21 -0.51,0.21 z m 0.56,0.73 V 454 h -1.14 v -5.51 z m 4.176,-0.09 c 0.434,0 0.82,0.09 1.16,0.27 0.347,0.18 0.617,0.447 0.81,0.8 0.194,0.353 0.29,0.78 0.29,1.28 V 454 h -1.13 v -3.08 c 0,-0.493 -0.123,-0.87 -0.37,-1.13 -0.246,-0.267 -0.583,-0.4 -1.01,-0.4 -0.426,0 -0.766,0.133 -1.02,0.4 -0.246,0.26 -0.37,0.637 -0.37,1.13 V 454 h -1.14 v -5.51 h 1.14 v 0.63 c 0.187,-0.227 0.424,-0.403 0.71,-0.53 0.294,-0.127 0.604,-0.19 0.93,-0.19 z"
     fill="#560153"
     id="path60" />
  <rect
     x="171"
     y="470"
     width="114"
     height="10"
     rx="5"
     fill="#f2f2f2"
     id="rect61" />
  <rect
     x="171"
     y="486"
     width="85"
     height="10"
     rx="5"
     fill="#f2f2f2"
     id="rect62" />
  <defs
     id="defs70">
    <clipPath
       id="clip0_670_8971">
      <rect
         width="16"
         height="16"
         fill="#ffffff"
         transform="translate(869,448)"
         id="rect63"
         x="0"
         y="0" />
    </clipPath>
    <clipPath
       id="clip1_670_8971">
      <rect
         width="16"
         height="16"
         fill="#ffffff"
         transform="translate(869,477)"
         id="rect64"
         x="0"
         y="0" />
    </clipPath>
    <clipPath
       id="clip2_670_8971">
      <rect
         width="50"
         height="50"
         fill="#ffffff"
         transform="translate(595,112)"
         id="rect65"
         x="0"
         y="0" />
    </clipPath>
    <clipPath
       id="clip3_670_8971">
      <rect
         width="20"
         height="20"
         fill="#ffffff"
         transform="translate(644,88)"
         id="rect66"
         x="0"
         y="0" />
    </clipPath>
    <clipPath
       id="clip4_670_8971">
      <rect
         width="50"
         height="50"
         fill="#ffffff"
         transform="translate(962,112)"
         id="rect67"
         x="0"
         y="0" />
    </clipPath>
    <clipPath
       id="clip5_670_8971">
      <rect
         width="50"
         height="50"
         fill="#ffffff"
         transform="translate(228,112)"
         id="rect68"
         x="0"
         y="0" />
    </clipPath>
    <clipPath
       id="clip6_670_8971">
      <rect
         width="20"
         height="20"
         fill="#ffffff"
         transform="translate(277,88)"
         id="rect69"
         x="0"
         y="0" />
    </clipPath>
    <clipPath
       id="clip7_670_8971">
      <rect
         width="20"
         height="20"
         fill="#ffffff"
         transform="translate(1011,88)"
         id="rect70"
         x="0"
         y="0" />
    </clipPath>
  </defs>
</svg>
