<?xml version="1.0" encoding="UTF-8" standalone="no"?>
<svg
   width="768"
   height="768"
   viewBox="0 0 768 768"
   fill="none"
   version="1.1"
   id="svg18"
   sodipodi:docname="hero-compliance-and-security-square.svg"
   inkscape:version="1.4 (86a8ad7, 2024-10-11)"
   xmlns:inkscape="http://www.inkscape.org/namespaces/inkscape"
   xmlns:sodipodi="http://sodipodi.sourceforge.net/DTD/sodipodi-0.dtd"
   xmlns="http://www.w3.org/2000/svg"
   xmlns:svg="http://www.w3.org/2000/svg">
  <sodipodi:namedview
     id="namedview18"
     pagecolor="#ffffff"
     bordercolor="#000000"
     borderopacity="0.25"
     inkscape:showpageshadow="2"
     inkscape:pageopacity="0.0"
     inkscape:pagecheckerboard="0"
     inkscape:deskcolor="#d1d1d1"
     inkscape:zoom="0.97227182"
     inkscape:cx="346.09663"
     inkscape:cy="261.75807"
     inkscape:window-width="3840"
     inkscape:window-height="2054"
     inkscape:window-x="-11"
     inkscape:window-y="-11"
     inkscape:window-maximized="1"
     inkscape:current-layer="svg18" />
  <rect
     width="768"
     height="768"
     rx="32"
     fill="#c67dff"
     id="rect1"
     x="0"
     y="0"
     style="fill:#748ffc;fill-opacity:1;stroke-width:0.848943"
     ry="32" />
  <rect
     x="40.842041"
     y="172.09204"
     width="487.53815"
     height="298.23196"
     rx="21.463957"
     fill="#ffffff"
     id="rect2"
     style="stroke-width:0.958671" />
  <rect
     x="40.842041"
     y="172.09204"
     width="487.53815"
     height="298.23196"
     rx="21.463957"
     stroke="#9ea9fd"
     stroke-width="2.22492"
     id="rect3" />
  <rect
     x="62.305328"
     y="195.46123"
     width="433.36765"
     height="68.993874"
     rx="10.220915"
     fill="#d9ddff"
     id="rect4"
     style="stroke-width:0.958671" />
  <path
     d="m 137.26569,222.25149 v 13.92129 h -2.09754 v -6.08988 h -6.01609 v 6.08988 h -2.09662 v -13.92129 h 2.09662 v 5.96884 h 6.01609 v -5.96884 z m 4.49002,0 v 13.92129 h -2.09663 v -13.92129 z m 11.32747,4.14628 c 0,0.70722 -0.15343,1.37542 -0.4603,2.00261 -0.30595,0.6282 -0.79657,1.14236 -1.47186,1.54248 -0.67438,0.38712 -1.53894,0.58118 -2.59368,0.58118 h -2.31805 v 5.64874 h -2.09755 v -13.92129 h 4.4156 c 0.98124,0 1.80905,0.18706 2.48343,0.56117 0.68723,0.36011 1.19623,0.85427 1.52699,1.48146 0.34362,0.62819 0.51542,1.32941 0.51542,2.10365 z m -4.52584,2.2637 c 0.79749,0 1.39193,-0.19406 1.78424,-0.58118 0.39232,-0.40113 0.58893,-0.9613 0.58893,-1.68252 0,-1.52247 -0.79105,-2.28371 -2.37317,-2.28371 h -2.31805 v 4.54741 z m 13.86695,4.66643 h -5.35366 l -0.9206,2.84488 h -2.1885 l 4.58097,-13.9413 h 2.4283 l 4.58097,13.9413 h -2.2078 z m -0.58893,-1.86257 -2.07917,-6.47 -2.09755,6.47 z m 13.04924,1.86257 h -5.35457 l -0.91968,2.84488 h -2.18943 l 4.58098,-13.9413 h 2.42922 l 4.58097,13.9413 h -2.2078 z m -0.58892,-1.86257 -2.07917,-6.47 -2.09755,6.47 z m 9.05169,-0.82125 c 0,-1.13535 0.20856,-2.12966 0.62568,-2.98492 0.42906,-0.86727 1.01799,-1.53548 1.76679,-2.00262 0.74787,-0.46715 1.606,-0.70122 2.5753,-0.70122 1.22655,0 2.23812,0.3211 3.03561,0.9613 0.80943,0.62819 1.35518,1.52947 1.63724,2.70483 h -2.26292 c -0.18376,-0.54817 -0.47868,-0.9753 -0.88294,-1.28239 -0.40518,-0.3071 -0.91417,-0.46114 -1.52699,-0.46114 -0.85905,0 -1.54537,0.3341 -2.06079,1.0023 -0.50257,0.65421 -0.75431,1.57549 -0.75431,2.76386 0,1.18836 0.25174,2.11665 0.75431,2.78385 0.51542,0.66821 1.20174,1.00231 2.06079,1.00231 1.21461,0 2.01761,-0.58118 2.40993,-1.74353 h 2.26292 c -0.29401,1.12234 -0.84619,2.01662 -1.65562,2.68482 -0.80943,0.65421 -1.81548,0.98131 -3.01723,0.98131 -0.9693,0 -1.82743,-0.23408 -2.5753,-0.70122 -0.7488,-0.48015 -1.33773,-1.14835 -1.76679,-2.00262 -0.41712,-0.86826 -0.62568,-1.86957 -0.62568,-3.00492 z m 15.75961,5.70876 c -0.95644,0 -1.821,-0.23408 -2.59368,-0.70122 -0.77269,-0.48015 -1.37999,-1.14835 -1.821,-2.00262 -0.44193,-0.86826 -0.66243,-1.86957 -0.66243,-3.00492 0,-1.12135 0.22694,-2.11666 0.68081,-2.98492 0.45387,-0.86727 1.07312,-1.53548 1.85774,-2.00262 0.78463,-0.46715 1.66205,-0.70122 2.63135,-0.70122 0.96838,0 1.8458,0.23407 2.63043,0.70122 0.78463,0.46714 1.4048,1.13535 1.85775,2.00262 0.45387,0.86826 0.6808,1.86357 0.6808,2.98492 0,1.12134 -0.23244,2.11665 -0.69918,2.98492 -0.46581,0.86726 -1.10344,1.54247 -1.91287,2.02262 -0.79749,0.46714 -1.68042,0.70122 -2.64972,0.70122 z m 0,-1.98261 c 0.54023,0 1.0428,-0.14105 1.50861,-0.42113 0.47868,-0.28009 0.86548,-0.70122 1.15949,-1.26239 0.294,-0.56018 0.44192,-1.24139 0.44192,-2.04263 0,-0.80125 -0.14149,-1.47546 -0.42355,-2.02263 -0.28206,-0.56117 -0.656,-0.9823 -1.12273,-1.26239 -0.46582,-0.28008 -0.96838,-0.42013 -1.50862,-0.42013 -0.53931,0 -1.04188,0.14005 -1.50861,0.42013 -0.45296,0.28009 -0.81495,0.70122 -1.08507,1.26239 -0.27011,0.54717 -0.40425,1.22138 -0.40425,2.02263 0,1.18836 0.27563,2.10965 0.8278,2.76385 0.56413,0.6412 1.26882,0.9623 2.11501,0.9623 z m 19.23898,-9.41491 c 0.79657,0 1.50861,0.18006 2.13429,0.54117 0.63763,0.36011 1.13376,0.89428 1.49024,1.60249 0.36751,0.70722 0.55126,1.56249 0.55126,2.56379 v 6.51001 h -2.07825 v -6.1699 c 0,-0.98831 -0.22693,-1.74254 -0.68081,-2.2637 -0.45387,-0.53316 -1.07312,-0.80025 -1.85866,-0.80025 -0.78463,0 -1.41031,0.26709 -1.87612,0.80025 -0.45387,0.52116 -0.68081,1.27539 -0.68081,2.2637 v 6.1699 h -2.07917 v -6.1699 c 0,-0.98831 -0.22693,-1.74254 -0.68081,-2.2637 -0.45387,-0.53316 -1.07312,-0.80025 -1.85774,-0.80025 -0.78555,0 -1.41123,0.26709 -1.87704,0.80025 -0.45387,0.52116 -0.68081,1.27539 -0.68081,2.2637 v 6.1699 h -2.09663 v -11.0374 h 2.09663 v 1.26239 c 0.34362,-0.45414 0.77912,-0.80825 1.30649,-1.06133 0.52737,-0.25408 1.09149,-0.38112 1.69237,-0.38112 0.80943,0 1.53342,0.18706 2.17104,0.56118 0.63763,0.37411 1.12825,0.91428 1.47187,1.6225 0.30686,-0.66821 0.78462,-1.19537 1.43511,-1.58249 0.64957,-0.40113 1.34875,-0.60119 2.09755,-0.60119 z m 8.57393,1.80256 c 0.35556,-0.50716 0.84067,-0.93429 1.45349,-1.2814 0.61373,-0.3471 1.30648,-0.52116 2.07917,-0.52116 0.88293,0 1.68685,0.24008 2.40992,0.72122 0.73594,0.46715 1.31292,1.12835 1.72912,1.98262 0.41712,0.85526 0.62568,1.83656 0.62568,2.9449 0,1.10835 -0.20856,2.10365 -0.62568,2.98492 -0.4162,0.86727 -0.99318,1.54848 -1.72912,2.04263 -0.72307,0.48115 -1.52699,0.72123 -2.40992,0.72123 -0.77269,0 -1.45992,-0.16705 -2.0608,-0.50116 -0.60087,-0.3471 -1.09149,-0.77424 -1.47186,-1.28139 v 6.85011 h -2.09663 v -16.28502 h 2.09663 z m 6.16309,3.84618 c 0,-0.76123 -0.14701,-1.41543 -0.44101,-1.9626 -0.28206,-0.56117 -0.66243,-0.9823 -1.14111,-1.26239 -0.46581,-0.29409 -0.96838,-0.44014 -1.50861,-0.44014 -0.52738,0 -1.02994,0.14605 -1.50862,0.44014 -0.46581,0.29409 -0.84618,0.72122 -1.14019,1.2824 -0.28206,0.56017 -0.42355,1.22137 -0.42355,1.98261 0,0.76123 0.14149,1.42844 0.42355,2.00261 0.29401,0.56118 0.67438,0.98831 1.14019,1.2824 0.47868,0.29409 0.98124,0.44114 1.50862,0.44114 0.54023,0 1.0428,-0.14705 1.50861,-0.44114 0.47868,-0.3071 0.85905,-0.74823 1.14111,-1.32241 0.294,-0.57418 0.44101,-1.24138 0.44101,-2.00262 z m 5.93799,-9.25385 v 14.82257 h -2.09755 v -14.82257 z m 3.45272,2.32372 c -0.38037,0 -0.69918,-0.14105 -0.95643,-0.42113 -0.25818,-0.28009 -0.3868,-0.6272 -0.3868,-1.04132 0,-0.41413 0.12862,-0.76124 0.3868,-1.04132 0.25725,-0.28109 0.57606,-0.42113 0.95643,-0.42113 0.36751,0 0.68081,0.14004 0.93806,0.42113 0.25818,0.28008 0.38681,0.62719 0.38681,1.04132 0,0.41412 -0.12863,0.76123 -0.38681,1.04132 -0.25725,0.28008 -0.57055,0.42113 -0.93806,0.42113 z m 1.02994,1.46145 v 11.0374 h -2.09662 v -11.0374 z m 1.68686,5.46868 c 0,-1.10834 0.20856,-2.08964 0.62568,-2.9449 0.42906,-0.85427 1.00605,-1.51547 1.72912,-1.98262 0.73593,-0.48114 1.54536,-0.72122 2.4283,-0.72122 0.79749,0 1.49024,0.17406 2.07917,0.52116 0.60087,0.33311 1.07955,0.75424 1.43511,1.26139 v -1.60249 h 2.11592 v 11.0374 h -2.11592 v -1.64251 c -0.35556,0.52017 -0.83975,0.9543 -1.45349,1.30141 -0.61282,0.3471 -1.312,0.52116 -2.09754,0.52116 -0.87099,0 -1.66756,-0.24008 -2.39155,-0.72123 -0.72307,-0.49415 -1.30006,-1.17536 -1.72912,-2.04263 -0.41712,-0.88127 -0.62568,-1.87657 -0.62568,-2.98492 z m 8.29738,0.04 c 0,-0.76124 -0.147,-1.42244 -0.44193,-1.98261 -0.28206,-0.56118 -0.65599,-0.98831 -1.12181,-1.2824 -0.46581,-0.29409 -0.9693,-0.44014 -1.50861,-0.44014 -0.53932,0 -1.04281,0.14605 -1.50862,0.44014 -0.46582,0.28009 -0.84618,0.70122 -1.14111,1.26239 -0.28206,0.54717 -0.42263,1.20137 -0.42263,1.9626 0,0.76124 0.14057,1.42844 0.42263,2.00262 0.29493,0.57418 0.67529,1.01531 1.14111,1.32241 0.47868,0.29409 0.98124,0.44114 1.50862,0.44114 0.53931,0 1.0428,-0.14705 1.50861,-0.44114 0.46582,-0.29409 0.83975,-0.72122 1.12181,-1.2824 0.29493,-0.57417 0.44193,-1.24138 0.44193,-2.00261 z m 9.61674,-5.68876 c 0.79748,0 1.50861,0.18006 2.13429,0.54117 0.63762,0.36011 1.13468,0.89428 1.49024,1.60249 0.35556,0.70722 0.5338,1.56249 0.5338,2.56379 v 6.51001 h -2.07917 v -6.1699 c 0,-0.98831 -0.22693,-1.74254 -0.6808,-2.2637 -0.45387,-0.53316 -1.07312,-0.80025 -1.85775,-0.80025 -0.78554,0 -1.41031,0.26709 -1.87704,0.80025 -0.45387,0.52116 -0.68081,1.27539 -0.68081,2.2637 v 6.1699 h -2.09662 v -11.0374 h 2.09662 v 1.26239 c 0.34362,-0.45414 0.77912,-0.80825 1.30649,-1.06133 0.54024,-0.25408 1.10987,-0.38112 1.71075,-0.38112 z m 8.91203,2.04363 v 6.10889 c 0,0.41412 0.0864,0.71422 0.25818,0.90127 0.18375,0.17406 0.49062,0.26008 0.91968,0.26008 h 1.28811 v 1.90359 H 272.827 c -0.9445,0 -1.66848,-0.24107 -2.17105,-0.72122 -0.50348,-0.48115 -0.75431,-1.26239 -0.75431,-2.34372 v -6.10889 h -1.19623 v -1.86357 h 1.19623 v -2.74385 h 2.115 v 2.74385 h 2.46597 v 1.86357 z"
     fill="#000000"
     id="path4"
     style="stroke-width:0.958671" />
  <rect
     x="78.658478"
     y="213.26572"
     width="30.662836"
     height="33.384193"
     rx="15.331371"
     fill="#721f6f"
     id="rect5"
     style="stroke-width:0.958671;fill:#862e9c;fill-opacity:1" />
  <g
     clip-path="url(#clip0_670_9175)"
     id="g5"
     transform="matrix(0.91876692,0,0,1.0003084,-185.99051,47.915736)">
    <path
       d="m 299.538,181.987 3.708,3.708 7.417,-7.416"
       stroke="#ffffff"
       stroke-width="1.66869"
       stroke-linecap="round"
       stroke-linejoin="round"
       id="path5" />
  </g>
  <rect
     x="62.305328"
     y="286.71136"
     width="433.36765"
     height="68.993874"
     rx="10.220915"
     fill="#d9ddff"
     id="rect6"
     style="stroke-width:0.958671" />
  <path
     d="m 131.26798,327.56296 c -0.85813,0 -1.63081,-0.16005 -2.31805,-0.48115 -0.68723,-0.3331 -1.22655,-0.80025 -1.61886,-1.40143 -0.39232,-0.60119 -0.58893,-1.3024 -0.58893,-2.10365 h 2.24454 c 0.0487,0.60119 0.26369,1.09534 0.64406,1.48246 0.39231,0.38712 0.93806,0.58118 1.63724,0.58118 0.72399,0 1.28811,-0.18706 1.69237,-0.56118 0.40518,-0.38712 0.60731,-0.88127 0.60731,-1.48245 0,-0.46715 -0.12863,-0.84726 -0.38589,-1.14136 -0.24531,-0.29409 -0.55861,-0.52116 -0.93898,-0.68121 -0.3675,-0.16004 -0.88293,-0.3341 -1.54536,-0.52116 -0.83332,-0.24007 -1.51413,-0.48014 -2.0415,-0.72022 -0.51543,-0.25408 -0.95736,-0.6412 -1.32486,-1.16236 -0.36843,-0.52116 -0.55218,-1.21537 -0.55218,-2.08264 0,-0.80125 0.18375,-1.50246 0.55218,-2.10365 0.3675,-0.60118 0.88293,-1.06132 1.54536,-1.38242 0.66243,-0.3201 1.42869,-0.48015 2.29968,-0.48015 1.23849,0 2.25098,0.3401 3.0356,1.02131 0.79749,0.66721 1.2385,1.58949 1.32486,2.76386 h -2.31805 c -0.0368,-0.50716 -0.25817,-0.94129 -0.66243,-1.30141 -0.40517,-0.36111 -0.93806,-0.54116 -1.60049,-0.54116 -0.60087,0 -1.09149,0.16705 -1.47186,0.50115 -0.38037,0.3331 -0.57056,0.81425 -0.57056,1.44145 0,0.42813 0.11669,0.78124 0.34913,1.06232 0.24532,0.26709 0.55218,0.48015 0.92061,0.6412 0.36751,0.16005 0.87007,0.3331 1.50861,0.52016 0.84619,0.25408 1.53251,0.50716 2.05988,0.76124 0.54023,0.25407 0.99411,0.6482 1.36161,1.18236 0.38037,0.52016 0.57056,1.22138 0.57056,2.10265 0,0.70822 -0.17824,1.37542 -0.53381,2.00362 -0.34362,0.62719 -0.85261,1.13435 -1.52699,1.52147 -0.66243,0.37411 -1.44706,0.56117 -2.3548,0.56117 z m 12.35466,0 c -1.1898,0 -2.28773,-0.30009 -3.29378,-0.90128 -0.99318,-0.61419 -1.78424,-1.46245 -2.37317,-2.54378 -0.57607,-1.09534 -0.86456,-2.32372 -0.86456,-3.68614 0,-1.36142 0.28849,-2.5838 0.86456,-3.66513 0.58893,-1.08133 1.37999,-1.92259 2.37317,-2.52378 1.00605,-0.61419 2.10398,-0.92128 3.29378,-0.92128 1.20175,0 2.29968,0.30709 3.29286,0.92128 1.00605,0.60119 1.79711,1.44245 2.37318,2.52378 0.57698,1.08133 0.86456,2.30371 0.86456,3.66513 0,1.36242 -0.28758,2.5908 -0.86456,3.68614 -0.57607,1.08133 -1.36713,1.92959 -2.37318,2.54378 -0.99318,0.60119 -2.09111,0.90128 -3.29286,0.90128 z m 0,-1.98261 c 0.84619,0 1.60049,-0.20707 2.26292,-0.62119 0.66244,-0.42714 1.17694,-1.02832 1.54537,-1.80256 0.38037,-0.78824 0.57055,-1.69652 0.57055,-2.72484 0,-1.02832 -0.19018,-1.92959 -0.57055,-2.70383 -0.36843,-0.77424 -0.88293,-1.36842 -1.54537,-1.78255 -0.66243,-0.41413 -1.41673,-0.62119 -2.26292,-0.62119 -0.84618,0 -1.60049,0.20706 -2.26292,0.62119 -0.66243,0.41413 -1.18429,1.00831 -1.56374,1.78255 -0.36843,0.77424 -0.55218,1.67551 -0.55218,2.70383 0,1.02832 0.18375,1.9366 0.55218,2.72484 0.37945,0.77424 0.90131,1.37542 1.56374,1.80256 0.66243,0.41412 1.41674,0.62119 2.26292,0.62119 z m 7.52746,-5.14859 c 0,-1.36142 0.28849,-2.5838 0.86456,-3.66513 0.58893,-1.08133 1.37999,-1.92259 2.37409,-2.52378 1.00513,-0.61419 2.10306,-0.92128 3.29286,-0.92128 1.36162,0 2.56979,0.36711 3.62454,1.10134 1.06669,0.72122 1.83937,1.74954 2.31805,3.08495 h -2.5211 c -0.33075,-0.73423 -0.79106,-1.2824 -1.37907,-1.64251 -0.58893,-0.36111 -1.26973,-0.54116 -2.04242,-0.54116 -0.84618,0 -1.60049,0.20706 -2.26292,0.62119 -0.66243,0.41413 -1.18337,1.00831 -1.56374,1.78255 -0.36843,0.77424 -0.55218,1.67551 -0.55218,2.70383 0,1.02832 0.18375,1.9296 0.55218,2.70483 0.38037,0.77424 0.90131,1.37543 1.56374,1.80256 0.66243,0.41413 1.41674,0.62119 2.26292,0.62119 0.77269,0 1.45349,-0.18105 2.04242,-0.54116 0.58801,-0.36012 1.04832,-0.90828 1.37907,-1.64251 h 2.5211 c -0.47868,1.33541 -1.25136,2.36373 -2.31805,3.08495 -1.05475,0.72122 -2.26292,1.08133 -3.62454,1.08133 -1.20174,0 -2.29967,-0.30009 -3.29286,-0.90127 -0.9941,-0.61419 -1.78516,-1.46246 -2.37409,-2.54379 -0.57607,-1.08133 -0.86456,-2.30371 -0.86456,-3.66613 z m 15.44355,3.8862 c 1.17786,-1.10834 2.10398,-2.01662 2.77835,-2.72384 0.68724,-0.72122 1.25688,-1.46945 1.71075,-2.24369 0.45387,-0.77424 0.6808,-1.54848 0.6808,-2.32372 0,-0.80125 -0.17732,-1.42844 -0.53288,-1.88258 -0.34362,-0.45414 -0.88937,-0.68121 -1.63816,-0.68121 -0.72307,0 -1.28719,0.25408 -1.69237,0.76124 -0.39231,0.49415 -0.60087,1.16135 -0.62568,2.00361 h -2.02313 c 0.0367,-1.52247 0.45387,-2.68483 1.25045,-3.48607 0.80943,-0.81425 1.83385,-1.22138 3.07235,-1.22138 1.33681,0 2.37961,0.40012 3.12748,1.20137 0.76074,0.80125 1.14111,1.86958 1.14111,3.20499 0,0.9613 -0.22693,1.88958 -0.6808,2.78486 -0.44101,0.88127 -0.97481,1.67552 -1.60049,2.38273 -0.61282,0.69522 -1.39837,1.50247 -2.3548,2.42375 l -0.82781,0.80125 h 5.83141 v 1.90358 h -8.94052 v -1.66251 z m 13.07957,-3.8862 c 0,-1.36142 0.28849,-2.5838 0.86456,-3.66513 0.58893,-1.08133 1.37999,-1.92259 2.37317,-2.52378 1.00605,-0.61419 2.10398,-0.92128 3.29378,-0.92128 1.3607,0 2.56887,0.36711 3.62362,1.10134 1.06761,0.72122 1.84029,1.74954 2.31805,3.08495 h -2.52018 c -0.33076,-0.73423 -0.79106,-1.2824 -1.37999,-1.64251 -0.58801,-0.36111 -1.26881,-0.54116 -2.0415,-0.54116 -0.84618,0 -1.60049,0.20706 -2.26292,0.62119 -0.66243,0.41413 -1.18429,1.00831 -1.56374,1.78255 -0.36843,0.77424 -0.55218,1.67551 -0.55218,2.70383 0,1.02832 0.18375,1.9296 0.55218,2.70483 0.37945,0.77424 0.90131,1.37543 1.56374,1.80256 0.66243,0.41413 1.41674,0.62119 2.26292,0.62119 0.77269,0 1.45349,-0.18105 2.0415,-0.54116 0.58893,-0.36012 1.04923,-0.90828 1.37999,-1.64251 h 2.52018 c -0.47776,1.33541 -1.25044,2.36373 -2.31805,3.08495 -1.05475,0.72122 -2.26292,1.08133 -3.62362,1.08133 -1.20266,0 -2.29967,-0.30009 -3.29378,-0.90127 -0.99318,-0.61419 -1.78424,-1.46246 -2.37317,-2.54379 -0.57607,-1.08133 -0.86456,-2.30371 -0.86456,-3.66613 z m 18.95783,7.17121 c -0.95643,0 -1.82191,-0.23307 -2.59459,-0.70121 -0.77269,-0.48015 -1.37907,-1.14836 -1.821,-2.00262 -0.44193,-0.86827 -0.66243,-1.86958 -0.66243,-3.00493 0,-1.12134 0.22694,-2.11665 0.68081,-2.98392 0.45387,-0.86827 1.07312,-1.53647 1.85774,-2.00362 0.78555,-0.46714 1.66205,-0.70121 2.63135,-0.70121 0.9693,0 1.8458,0.23407 2.63043,0.70121 0.78555,0.46715 1.4048,1.13535 1.85867,2.00362 0.45387,0.86727 0.6808,1.86258 0.6808,2.98392 0,1.12235 -0.23336,2.11665 -0.69918,2.98492 -0.46581,0.86827 -1.10436,1.54248 -1.91379,2.02263 -0.79657,0.46814 -1.68042,0.70121 -2.64881,0.70121 z m 0,-1.98261 c 0.53932,0 1.04281,-0.14004 1.50862,-0.42113 0.47776,-0.28009 0.86456,-0.70122 1.15857,-1.26139 0.29492,-0.56117 0.44192,-1.24238 0.44192,-2.04363 0,-0.80125 -0.14149,-1.47545 -0.42355,-2.02262 -0.28206,-0.56118 -0.656,-0.9813 -1.12181,-1.26239 -0.46582,-0.28009 -0.9693,-0.42013 -1.50862,-0.42013 -0.54023,0 -1.0428,0.14004 -1.50861,0.42013 -0.45388,0.28109 -0.81587,0.70121 -1.08599,1.26239 -0.2692,0.54717 -0.40425,1.22137 -0.40425,2.02262 0,1.18837 0.27563,2.10965 0.8278,2.76485 0.56413,0.6402 1.26974,0.9613 2.11592,0.9613 z m 19.23807,-9.4149 c 0.79749,0 1.50861,0.18005 2.13429,0.54116 0.63763,0.36012 1.13468,0.89428 1.49024,1.6025 0.36751,0.70722 0.55218,1.56248 0.55218,2.56379 v 6.51001 h -2.07917 v -6.16991 c 0,-0.9873 -0.22693,-1.74253 -0.68081,-2.26269 -0.45387,-0.53417 -1.07312,-0.80125 -1.85774,-0.80125 -0.78555,0 -1.41123,0.26708 -1.87704,0.80125 -0.45387,0.52016 -0.68081,1.27539 -0.68081,2.26269 v 6.16991 h -2.07917 v -6.16991 c 0,-0.9873 -0.22693,-1.74253 -0.67989,-2.26269 -0.45387,-0.53417 -1.07404,-0.80125 -1.85866,-0.80125 -0.78463,0 -1.41031,0.26708 -1.87612,0.80125 -0.45388,0.52016 -0.68081,1.27539 -0.68081,2.26269 v 6.16991 h -2.09755 v -11.03741 h 2.09755 v 1.26239 c 0.3427,-0.45414 0.77819,-0.80825 1.30557,-1.06132 0.52737,-0.25408 1.09241,-0.38112 1.69328,-0.38112 0.80944,0 1.53251,0.18706 2.17105,0.56117 0.63763,0.37412 1.12825,0.91428 1.47095,1.6225 0.30686,-0.66821 0.78554,-1.19537 1.43511,-1.58249 0.65049,-0.40012 1.34967,-0.60118 2.09755,-0.60118 z m 8.57485,1.80255 c 0.35556,-0.50715 0.83975,-0.93428 1.45349,-1.28139 0.61281,-0.34711 1.30556,-0.52116 2.07825,-0.52116 0.88385,0 1.68685,0.24107 2.41084,0.72122 0.73593,0.46714 1.312,1.12835 1.72912,1.98361 0.41712,0.85426 0.62568,1.83557 0.62568,2.94391 0,1.10834 -0.20856,2.10365 -0.62568,2.98492 -0.41712,0.86727 -0.99319,1.54848 -1.72912,2.04263 -0.72399,0.48115 -1.52699,0.72122 -2.41084,0.72122 -0.77269,0 -1.459,-0.16705 -2.05988,-0.50015 -0.60087,-0.34811 -1.09149,-0.77524 -1.47186,-1.2824 v 6.85011 h -2.09755 v -16.28502 h 2.09755 z m 6.16309,3.84619 c 0,-0.76124 -0.14701,-1.41544 -0.44193,-1.96261 -0.28206,-0.56117 -0.66243,-0.9813 -1.14019,-1.26239 -0.46673,-0.29309 -0.9693,-0.44013 -1.50862,-0.44013 -0.52737,0 -1.03085,0.14704 -1.50861,0.44013 -0.46674,0.2941 -0.84619,0.72123 -1.14111,1.2824 -0.28206,0.56017 -0.42263,1.22138 -0.42263,1.98261 0,0.76124 0.14057,1.42944 0.42263,2.00362 0.29492,0.56017 0.67437,0.9873 1.14111,1.28139 0.47776,0.2941 0.98124,0.44114 1.50861,0.44114 0.53932,0 1.04189,-0.14704 1.50862,-0.44114 0.47776,-0.30709 0.85813,-0.74723 1.14019,-1.3214 0.29492,-0.57418 0.44193,-1.24239 0.44193,-2.00362 z m 5.93707,-9.25385 v 14.82257 h -2.09663 v -14.82257 z m 3.45272,2.32371 c -0.37945,0 -0.69918,-0.14004 -0.95643,-0.42113 -0.25726,-0.28008 -0.38588,-0.62719 -0.38588,-1.04132 0,-0.41413 0.12862,-0.76123 0.38588,-1.04132 0.25725,-0.28109 0.57698,-0.42113 0.95643,-0.42113 0.36843,0 0.68081,0.14004 0.93898,0.42113 0.25726,0.28009 0.38589,0.62719 0.38589,1.04132 0,0.41413 -0.12863,0.76124 -0.38589,1.04132 -0.25817,0.28109 -0.57055,0.42113 -0.93898,0.42113 z m 1.03086,1.46145 v 11.03741 h -2.09754 v -11.03741 z m 1.68594,5.46869 c 0,-1.10834 0.20856,-2.08965 0.62568,-2.94391 0.42906,-0.85526 1.00605,-1.51647 1.73004,-1.98361 0.73593,-0.48015 1.54536,-0.72122 2.4283,-0.72122 0.79657,0 1.49024,0.17405 2.07825,0.52116 0.60179,0.3341 1.07955,0.75423 1.43511,1.26139 v -1.6025 h 2.11592 v 11.03741 h -2.11592 v -1.64251 c -0.35556,0.52116 -0.83975,0.95429 -1.45349,1.3014 -0.61282,0.34811 -1.312,0.52116 -2.09662,0.52116 -0.87099,0 -1.66848,-0.24007 -2.39155,-0.72122 -0.72399,-0.49415 -1.30098,-1.17536 -1.73004,-2.04263 -0.41712,-0.88127 -0.62568,-1.87658 -0.62568,-2.98492 z m 8.29738,0.04 c 0,-0.76123 -0.147,-1.42244 -0.44101,-1.98261 -0.28206,-0.56117 -0.656,-0.9883 -1.12273,-1.2824 -0.46581,-0.29309 -0.96838,-0.44013 -1.50861,-0.44013 -0.53932,0 -1.04189,0.14704 -1.50862,0.44013 -0.46582,0.28109 -0.84618,0.70122 -1.14019,1.26239 -0.28206,0.54717 -0.42355,1.20137 -0.42355,1.96261 0,0.76123 0.14149,1.42944 0.42355,2.00362 0.29401,0.57417 0.67437,1.01431 1.14019,1.3214 0.47868,0.2941 0.98124,0.44114 1.50862,0.44114 0.54023,0 1.0428,-0.14704 1.50861,-0.44114 0.46673,-0.29409 0.84067,-0.72122 1.12273,-1.28139 0.29401,-0.57418 0.44101,-1.24238 0.44101,-2.00362 z m 9.61765,-5.68875 c 0.79749,0 1.50862,0.18005 2.1343,0.54116 0.63762,0.36012 1.13376,0.89428 1.49024,1.6025 0.35556,0.70722 0.53288,1.56248 0.53288,2.56379 v 6.51001 h -2.07825 V 321.253 c 0,-0.9873 -0.22693,-1.74253 -0.6808,-2.26269 -0.45387,-0.53417 -1.07312,-0.80125 -1.85867,-0.80125 -0.78463,0 -1.41031,0.26708 -1.87612,0.80125 -0.45387,0.52016 -0.68081,1.27539 -0.68081,2.26269 v 6.16991 h -2.09754 V 316.3855 h 2.09754 v 1.26239 c 0.34362,-0.45414 0.77912,-0.80825 1.30649,-1.06132 0.53932,-0.25408 1.10987,-0.38112 1.71074,-0.38112 z m 8.91204,2.04363 v 6.10888 c 0,0.41413 0.0854,0.71422 0.25726,0.90128 0.18375,0.17405 0.49062,0.26108 0.91968,0.26108 h 1.28811 v 1.90259 h -1.65561 c -0.9445,0 -1.66848,-0.24008 -2.17105,-0.72123 -0.50257,-0.48114 -0.75431,-1.26239 -0.75431,-2.34372 v -6.10888 h -1.19623 v -1.86358 h 1.19623 v -2.74384 h 2.11592 v 2.74384 h 2.46505 v 1.86358 z"
     fill="#000000"
     id="path6"
     style="stroke-width:0.958671" />
  <rect
     x="78.658478"
     y="304.51584"
     width="30.662836"
     height="33.384193"
     rx="15.331371"
     fill="#721f6f"
     id="rect7"
     style="stroke-width:0.958671;fill:#862e9c;fill-opacity:1" />
  <g
     clip-path="url(#clip1_670_9175)"
     id="g7"
     transform="matrix(0.91876692,0,0,1.0003084,-185.99051,47.915736)">
    <path
       d="m 299.538,273.209 3.708,3.709 7.417,-7.417"
       stroke="#ffffff"
       stroke-width="1.66869"
       stroke-linecap="round"
       stroke-linejoin="round"
       id="path7" />
  </g>
  <rect
     x="62.305328"
     y="377.96149"
     width="433.36765"
     height="68.993874"
     rx="10.220915"
     fill="#d9ddff"
     id="rect8"
     style="stroke-width:0.958671" />
  <path
     d="m 132.88685,418.81309 c -1.1898,0 -2.28681,-0.30009 -3.29286,-0.90127 -0.99319,-0.61419 -1.78425,-1.46245 -2.37318,-2.54379 -0.57698,-1.09534 -0.86456,-2.32371 -0.86456,-3.68513 0,-1.36242 0.28758,-2.5848 0.86456,-3.66613 0.58893,-1.08134 1.37999,-1.9226 2.37318,-2.52378 1.00605,-0.61419 2.10306,-0.92129 3.29286,-0.92129 1.20175,0 2.29967,0.3071 3.29378,0.92129 1.00513,0.60118 1.79619,1.44244 2.37317,2.52378 0.57607,1.08133 0.86456,2.30371 0.86456,3.66613 0,1.36142 -0.28849,2.58979 -0.86456,3.68513 -0.57698,1.08134 -1.36804,1.9296 -2.37317,2.54379 -0.99411,0.60118 -2.09203,0.90127 -3.29378,0.90127 z m 0,-1.98261 c 0.84618,0 1.60049,-0.20706 2.26292,-0.62119 0.66243,-0.42713 1.17786,-1.02832 1.54537,-1.80255 0.38037,-0.78825 0.57055,-1.69653 0.57055,-2.72384 0,-1.02832 -0.19018,-1.9296 -0.57055,-2.70484 -0.36751,-0.77424 -0.88294,-1.36842 -1.54537,-1.78255 -0.66243,-0.41413 -1.41674,-0.62119 -2.26292,-0.62119 -0.84618,0 -1.60049,0.20706 -2.26292,0.62119 -0.66243,0.41413 -1.18337,1.00831 -1.56374,1.78255 -0.36751,0.77524 -0.55218,1.67652 -0.55218,2.70484 0,1.02731 0.18467,1.93559 0.55218,2.72384 0.38037,0.77423 0.90131,1.37542 1.56374,1.80255 0.66243,0.41413 1.41674,0.62119 2.26292,0.62119 z m 24.87745,-12.07872 -3.78991,13.92129 h -2.37318 l -2.68647,-10.53625 -2.85185,10.53625 -2.3548,0.02 -3.62454,-13.9413 h 2.22617 l 2.64973,11.33749 2.87023,-11.33749 h 2.35479 l 2.66719,11.27748 2.66809,-11.27748 z m 9.07007,11.07741 h -5.35366 l -0.91968,2.84388 h -2.18942 l 4.58097,-13.9413 h 2.4283 l 4.58097,13.9413 h -2.2078 z m -0.58893,-1.86357 -2.07825,-6.47 -2.09755,6.47 z m 9.55334,4.84749 c -0.85813,0 -1.63081,-0.16004 -2.31805,-0.48014 -0.68632,-0.33411 -1.22655,-0.80125 -1.61887,-1.40244 -0.39231,-0.60118 -0.58893,-1.3024 -0.58893,-2.10364 h 2.24455 c 0.0496,0.60118 0.26369,1.09533 0.64406,1.48245 0.39231,0.38712 0.93806,0.58118 1.63724,0.58118 0.72399,0 1.28811,-0.18706 1.69329,-0.56117 0.40425,-0.38712 0.60638,-0.88127 0.60638,-1.48246 0,-0.46714 -0.12863,-0.84726 -0.38588,-1.14135 -0.24531,-0.29409 -0.55861,-0.52116 -0.93806,-0.68121 -0.36843,-0.16005 -0.88386,-0.3341 -1.54537,-0.52016 -0.83424,-0.24108 -1.51504,-0.48115 -2.04242,-0.72122 -0.51542,-0.25408 -0.95643,-0.6412 -1.32486,-1.16236 -0.3675,-0.52016 -0.55218,-1.21538 -0.55218,-2.08264 0,-0.80125 0.18468,-1.50247 0.55218,-2.10365 0.36843,-0.60119 0.88294,-1.06133 1.54537,-1.38143 0.66243,-0.3211 1.42868,-0.48115 2.29967,-0.48115 1.2385,0 2.25098,0.34011 3.03561,1.02132 0.79749,0.6682 1.23941,1.58949 1.32486,2.76485 h -2.31805 c -0.0367,-0.50816 -0.25725,-0.94229 -0.66243,-1.3024 -0.40518,-0.36011 -0.93806,-0.54117 -1.60049,-0.54117 -0.60088,0 -1.0915,0.16705 -1.47187,0.50116 -0.38037,0.3341 -0.57055,0.81425 -0.57055,1.44244 0,0.42713 0.11668,0.78124 0.35005,1.06133 0.24531,0.26708 0.55126,0.48115 0.91968,0.6412 0.36751,0.16005 0.871,0.3331 1.50862,0.52016 0.84618,0.25408 1.53342,0.50815 2.06079,0.76123 0.53932,0.25408 0.99319,0.6482 1.3607,1.18237 0.38037,0.52016 0.57055,1.22137 0.57055,2.10264 0,0.70822 -0.17732,1.37543 -0.5338,2.00362 -0.3427,0.6272 -0.8517,1.13435 -1.52699,1.52247 -0.66151,0.37312 -1.44706,0.56017 -2.3548,0.56017 z m 15.46376,-9.91505 c 0,0.70822 -0.15343,1.37542 -0.4603,2.00362 -0.30595,0.62719 -0.79657,1.14135 -1.47094,1.54247 -0.6753,0.38712 -1.53986,0.58018 -2.5946,0.58018 h -2.31805 v 5.64874 h -2.09755 v -13.92129 h 4.4156 c 0.98124,0 1.80905,0.18706 2.48343,0.56117 0.68723,0.36011 1.19623,0.85427 1.52699,1.48246 0.34361,0.62719 0.51542,1.32841 0.51542,2.10265 z m -4.52584,2.2637 c 0.79749,0 1.39193,-0.19406 1.78424,-0.58118 0.39324,-0.40013 0.58893,-0.9613 0.58893,-1.68252 0,-1.52247 -0.79106,-2.28371 -2.37317,-2.28371 h -2.31805 v 4.54741 z m 14.78204,7.65135 c -0.85813,0 -1.63081,-0.16004 -2.31805,-0.48014 -0.68632,-0.33411 -1.22655,-0.80125 -1.61887,-1.40244 -0.39231,-0.60118 -0.58893,-1.3024 -0.58893,-2.10364 h 2.24455 c 0.0496,0.60118 0.26369,1.09533 0.64406,1.48245 0.39231,0.38712 0.93898,0.58118 1.63724,0.58118 0.72399,0 1.28811,-0.18706 1.69329,-0.56117 0.40425,-0.38712 0.60638,-0.88127 0.60638,-1.48246 0,-0.46714 -0.12862,-0.84726 -0.38588,-1.14135 -0.24531,-0.29409 -0.55769,-0.52116 -0.93806,-0.68121 -0.36843,-0.16005 -0.88294,-0.3341 -1.54537,-0.52016 -0.83424,-0.24108 -1.51504,-0.48115 -2.04241,-0.72122 -0.51543,-0.25408 -0.95644,-0.6412 -1.32487,-1.16236 -0.3675,-0.52016 -0.55126,-1.21538 -0.55126,-2.08264 0,-0.80125 0.18376,-1.50247 0.55126,-2.10365 0.36843,-0.60119 0.88294,-1.06133 1.54537,-1.38143 0.66243,-0.3211 1.4296,-0.48115 2.29967,-0.48115 1.23942,0 2.25098,0.34011 3.03561,1.02132 0.79749,0.6682 1.23942,1.58949 1.32486,2.76485 h -2.31805 c -0.0368,-0.50816 -0.25725,-0.94229 -0.66243,-1.3024 -0.40426,-0.36011 -0.93806,-0.54117 -1.60049,-0.54117 -0.60087,0 -1.0915,0.16705 -1.47187,0.50116 -0.38037,0.3341 -0.57055,0.81425 -0.57055,1.44244 0,0.42713 0.11668,0.78124 0.35005,1.06133 0.24531,0.26708 0.55218,0.48115 0.91969,0.6412 0.36842,0.16005 0.87099,0.3331 1.50861,0.52016 0.84619,0.25408 1.53342,0.50815 2.0608,0.76123 0.53931,0.25408 0.99318,0.6482 1.36161,1.18237 0.37945,0.52016 0.56963,1.22137 0.56963,2.10264 0,0.70822 -0.17732,1.37543 -0.53288,2.00362 -0.34362,0.6272 -0.85262,1.13435 -1.52699,1.52247 -0.66243,0.37312 -1.44798,0.56017 -2.35572,0.56017 z m 15.81382,-5.92882 c 0,0.41412 -0.0248,0.78824 -0.0735,1.12134 h -7.74612 c 0.0616,0.88127 0.36199,1.58949 0.90223,2.12366 0.53932,0.53416 1.20175,0.80124 1.98637,0.80124 1.12825,0 1.92574,-0.51415 2.39155,-1.54247 h 2.26293 c -0.30595,1.01531 -0.86456,1.84957 -1.674,2.50377 -0.79749,0.6412 -1.79067,0.9613 -2.98048,0.9613 -0.96838,0 -1.83937,-0.23308 -2.61205,-0.70122 -0.76074,-0.48015 -1.36161,-1.14835 -1.80354,-2.00262 -0.42906,-0.86826 -0.64406,-1.86957 -0.64406,-3.00492 0,-1.13435 0.20856,-2.12966 0.62568,-2.98392 0.42999,-0.86827 1.02443,-1.53548 1.78517,-2.00362 0.77268,-0.46715 1.65562,-0.70122 2.6488,-0.70122 0.95644,0 1.80906,0.22707 2.55785,0.68121 0.74788,0.45414 1.33038,1.09534 1.7475,1.9236 0.41712,0.81425 0.62568,1.75554 0.62568,2.82387 z m -2.18943,-0.72123 c -0.0129,-0.84126 -0.28849,-1.51546 -0.8278,-2.02262 -0.54024,-0.50816 -1.20818,-0.76123 -2.00567,-0.76123 -0.72399,0 -1.34324,0.25307 -1.85775,0.76123 -0.51543,0.49415 -0.8223,1.16836 -0.9206,2.02262 z m 3.18629,0.98131 c 0,-1.13435 0.20856,-2.12966 0.62568,-2.98392 0.42906,-0.86827 1.01799,-1.53548 1.76587,-2.00362 0.74787,-0.46715 1.60692,-0.70122 2.5753,-0.70122 1.22656,0 2.23904,0.3211 3.03561,0.9623 0.80943,0.62719 1.35518,1.52847 1.63724,2.70383 h -2.26292 c -0.18376,-0.54717 -0.47776,-0.9753 -0.88294,-1.28239 -0.40426,-0.3071 -0.91325,-0.46014 -1.52699,-0.46014 -0.85813,0 -1.54536,0.3341 -2.05987,1.0013 -0.50349,0.65421 -0.75431,1.57549 -0.75431,2.76386 0,1.18836 0.25082,2.11665 0.75431,2.78486 0.51451,0.6672 1.20174,1.0013 2.05987,1.0013 1.21461,0 2.01761,-0.58118 2.40993,-1.74253 h 2.26292 c -0.29401,1.12134 -0.84618,2.01662 -1.65562,2.68382 -0.80943,0.65421 -1.81456,0.98131 -3.01723,0.98131 -0.96838,0 -1.82743,-0.23308 -2.5753,-0.70122 -0.74788,-0.48015 -1.33681,-1.14835 -1.76587,-2.00262 -0.41712,-0.86826 -0.62568,-1.86957 -0.62568,-3.00492 z m 20.54271,-5.5077 v 11.0364 h -2.09755 v -1.3024 c -0.33075,0.45414 -0.76625,0.81525 -1.30557,1.08233 -0.52737,0.25308 -1.09241,0.38012 -1.69328,0.38012 -0.79657,0 -1.51413,-0.18005 -2.15267,-0.54017 -0.62477,-0.36111 -1.12182,-0.89527 -1.48932,-1.60249 -0.35649,-0.70822 -0.53381,-1.56248 -0.53381,-2.56379 v -6.49 h 2.07917 v 6.14889 c 0,0.98831 0.22694,1.74954 0.67989,2.28371 0.45387,0.52116 1.07404,0.78124 1.85866,0.78124 0.78463,0 1.40388,-0.26008 1.85775,-0.78124 0.46673,-0.53417 0.69918,-1.2954 0.69918,-2.28371 v -6.14889 z m 4.49644,1.60249 c 0.30687,-0.56117 0.71205,-0.9953 1.21461,-1.3024 0.51543,-0.3201 1.12182,-0.48115 1.821,-0.48115 v 2.36373 h -0.53289 c -0.82229,0 -1.44797,0.22707 -1.87704,0.68121 -0.41712,0.45414 -0.62568,1.24238 -0.62568,2.36373 v 5.80879 h -2.09662 v -11.0364 h 2.09662 z m 5.66328,-3.06494 c -0.38037,0 -0.69918,-0.14005 -0.95735,-0.42113 -0.25726,-0.28009 -0.38589,-0.6272 -0.38589,-1.04132 0,-0.41413 0.12863,-0.76124 0.38589,-1.04132 0.25817,-0.28009 0.57698,-0.42113 0.95735,-0.42113 0.36751,0 0.67989,0.14104 0.93806,0.42113 0.25726,0.28008 0.38589,0.62719 0.38589,1.04132 0,0.41412 -0.12863,0.76123 -0.38589,1.04132 -0.25817,0.28108 -0.57055,0.42113 -0.93806,0.42113 z m 1.02994,1.46245 v 11.0364 h -2.09755 v -11.0364 z m 4.83271,1.86257 v 6.10889 c 0,0.41412 0.0854,0.71522 0.25726,0.90127 0.18375,0.17406 0.49062,0.26108 0.91968,0.26108 h 1.28812 v 1.90259 h -1.65562 c -0.94449,0 -1.66848,-0.24007 -2.17105,-0.72122 -0.50256,-0.48015 -0.75431,-1.26139 -0.75431,-2.34372 v -6.10889 h -1.19623 v -1.86257 h 1.19623 v -2.74485 h 2.11592 v 2.74485 h 2.46506 v 1.86257 z m 13.15583,-1.86257 -6.21914,16.224 h -2.17104 l 2.06079,-5.36765 -3.99204,-10.85635 h 2.33642 l 2.85186,8.41259 2.9621,-8.41259 z m 14.87943,1.12134 c -0.33076,-0.69421 -0.79106,-1.21537 -1.37999,-1.56248 -0.58801,-0.36011 -1.26882,-0.54116 -2.0415,-0.54116 -0.84618,0 -1.60049,0.20706 -2.26292,0.62119 -0.66243,0.41412 -1.18429,1.00131 -1.56374,1.76254 -0.36843,0.76124 -0.55218,1.64251 -0.55218,2.64482 0,1.0013 0.18375,1.88958 0.55218,2.66382 0.37945,0.76123 0.90131,1.34841 1.56374,1.76254 0.66243,0.41413 1.41674,0.62119 2.26292,0.62119 1.14019,0 2.06631,-0.3471 2.77743,-1.04232 0.71205,-0.69421 1.14662,-1.6355 1.30649,-2.82387 h -4.80148 v -1.82256 h 7.04603 v 1.78255 c -0.13506,1.08133 -0.49063,2.07664 -1.06669,2.98492 -0.56504,0.90728 -1.30649,1.6355 -2.22617,2.18267 -0.90775,0.53417 -1.92023,0.80125 -3.03561,0.80125 -1.20267,0 -2.29967,-0.30009 -3.29378,-0.90128 -0.99319,-0.61419 -1.78425,-1.46245 -2.37317,-2.54378 -0.57607,-1.08134 -0.86456,-2.30371 -0.86456,-3.66513 0,-1.36242 0.28849,-2.5848 0.86456,-3.66613 0.58892,-1.08134 1.37998,-1.9226 2.37317,-2.52378 1.00605,-0.61419 2.10398,-0.92129 3.29378,-0.92129 1.36069,0 2.56887,0.36712 3.62362,1.10134 1.0676,0.72123 1.84029,1.74954 2.31805,3.08495 z m 13.78793,-1.12134 v 11.0364 h -2.09754 v -1.3024 c -0.33076,0.45414 -0.76625,0.81525 -1.30557,1.08233 -0.52737,0.25308 -1.09149,0.38012 -1.69329,0.38012 -0.79657,0 -1.51412,-0.18005 -2.15175,-0.54017 -0.62568,-0.36111 -1.12273,-0.89527 -1.49024,-1.60249 -0.35648,-0.70822 -0.5338,-1.56248 -0.5338,-2.56379 v -6.49 h 2.07917 v 6.14889 c 0,0.98831 0.22693,1.74954 0.6808,2.28371 0.45296,0.52116 1.07312,0.78124 1.85775,0.78124 0.78463,0 1.40479,-0.26008 1.85775,-0.78124 0.46673,-0.53417 0.69918,-1.2954 0.69918,-2.28371 v -6.14889 z m 3.46651,-1.46245 c -0.38037,0 -0.69918,-0.14005 -0.95644,-0.42113 -0.25817,-0.28009 -0.3868,-0.6272 -0.3868,-1.04132 0,-0.41413 0.12863,-0.76124 0.3868,-1.04132 0.25726,-0.28009 0.57607,-0.42113 0.95644,-0.42113 0.36751,0 0.68081,0.14104 0.93806,0.42113 0.25818,0.28008 0.3868,0.62719 0.3868,1.04132 0,0.41412 -0.12862,0.76123 -0.3868,1.04132 -0.25725,0.28108 -0.57055,0.42113 -0.93806,0.42113 z m 1.02994,1.46245 v 11.0364 h -2.09663 v -11.0364 z m 1.68685,5.46768 c 0,-1.10834 0.20856,-2.08964 0.62568,-2.9439 0.42907,-0.85527 1.00605,-1.51547 1.72912,-1.98362 0.73594,-0.48014 1.5518,-0.72122 2.44668,-0.72122 0.66243,0 1.31292,0.16105 1.95054,0.48115 0.64957,0.3071 1.165,0.72122 1.54537,1.24238 v -5.32864 h 2.11592 v 14.82257 h -2.11592 v -1.66251 c -0.34362,0.53416 -0.82138,0.9753 -1.43512,1.32241 -0.60087,0.3471 -1.29362,0.52016 -2.07916,0.52016 -0.88294,0 -1.69237,-0.24008 -2.42831,-0.72123 -0.72307,-0.49415 -1.30005,-1.17436 -1.72912,-2.04263 -0.41712,-0.88127 -0.62568,-1.87657 -0.62568,-2.98492 z m 8.29739,0.04 c 0,-0.76124 -0.147,-1.42144 -0.44193,-1.98261 -0.28206,-0.56118 -0.656,-0.98831 -1.12181,-1.2824 -0.46582,-0.29309 -0.9693,-0.44014 -1.50862,-0.44014 -0.53931,0 -1.0428,0.14705 -1.50861,0.44014 -0.46582,0.28109 -0.84619,0.70122 -1.14111,1.26239 -0.28206,0.54717 -0.42263,1.20137 -0.42263,1.9626 0,0.76124 0.14057,1.42945 0.42263,2.00362 0.29492,0.57418 0.67529,1.01431 1.14111,1.32141 0.47867,0.29409 0.98124,0.44114 1.50861,0.44114 0.53932,0 1.0428,-0.14705 1.50862,-0.44114 0.46581,-0.29309 0.83975,-0.72122 1.12181,-1.2814 0.29493,-0.57417 0.44193,-1.24238 0.44193,-2.00361 z m 13.79345,-0.26008 c 0,0.41412 -0.0248,0.78824 -0.0735,1.12134 h -7.74521 c 0.0606,0.88127 0.36108,1.58949 0.90131,2.12366 0.53932,0.53416 1.20175,0.80124 1.98637,0.80124 1.12917,0 1.92574,-0.51415 2.39247,-1.54247 h 2.26293 c -0.30687,1.01531 -0.86548,1.84957 -1.67492,2.50377 -0.79657,0.6412 -1.79067,0.9613 -2.98048,0.9613 -0.96838,0 -1.83937,-0.23308 -2.61205,-0.70122 -0.76074,-0.48015 -1.36161,-1.14835 -1.80262,-2.00262 -0.42998,-0.86826 -0.64406,-1.86957 -0.64406,-3.00492 0,-1.13435 0.20856,-2.12966 0.62568,-2.98392 0.42907,-0.86827 1.02351,-1.53548 1.78425,-2.00362 0.77268,-0.46715 1.65562,-0.70122 2.6488,-0.70122 0.95736,0 1.80906,0.22707 2.55785,0.68121 0.74788,0.45414 1.33038,1.09534 1.7475,1.9236 0.41712,0.81425 0.62568,1.75554 0.62568,2.82387 z m -2.18943,-0.72123 c -0.0119,-0.84126 -0.28849,-1.51546 -0.8278,-2.02262 -0.53932,-0.50816 -1.20818,-0.76123 -2.00567,-0.76123 -0.72307,0 -1.34324,0.25307 -1.85775,0.76123 -0.51543,0.49415 -0.8223,1.16836 -0.91968,2.02262 z m 5.98302,-8.31256 v 14.82257 h -2.09755 v -14.82257 z m 3.45272,2.32372 c -0.38037,0 -0.69918,-0.14005 -0.95735,-0.42113 -0.25726,-0.28009 -0.38589,-0.6272 -0.38589,-1.04132 0,-0.41413 0.12863,-0.76124 0.38589,-1.04132 0.25817,-0.28009 0.57698,-0.42113 0.95735,-0.42113 0.36751,0 0.68081,0.14104 0.93806,0.42113 0.25726,0.28008 0.38588,0.62719 0.38588,1.04132 0,0.41412 -0.12862,0.76123 -0.38588,1.04132 -0.25725,0.28108 -0.57055,0.42113 -0.93806,0.42113 z m 1.02994,1.46245 v 11.0364 h -2.09755 v -11.0364 z m 7.49989,-0.18106 c 0.79749,0 1.50862,0.18106 2.1343,0.54117 0.63762,0.36111 1.13468,0.89528 1.49024,1.60249 0.35556,0.70822 0.5338,1.56249 0.5338,2.56379 v 6.51001 h -2.07917 v -6.1689 c 0,-0.98831 -0.22693,-1.74354 -0.6808,-2.2637 -0.45387,-0.53416 -1.07312,-0.80125 -1.85775,-0.80125 -0.78555,0 -1.41031,0.26709 -1.87704,0.80125 -0.45387,0.52016 -0.68081,1.27539 -0.68081,2.2637 v 6.1689 h -2.09662 v -11.0364 h 2.09662 v 1.26139 c 0.34362,-0.45414 0.77912,-0.80725 1.30649,-1.06133 0.53932,-0.25408 1.10987,-0.38112 1.71074,-0.38112 z m 15.75594,5.42868 c 0,0.41412 -0.0239,0.78824 -0.0735,1.12134 h -7.74521 c 0.0616,0.88127 0.36199,1.58949 0.90131,2.12366 0.54024,0.53416 1.20267,0.80124 1.98729,0.80124 1.12825,0 1.92574,-0.51415 2.39155,-1.54247 h 2.26293 c -0.30687,1.01531 -0.86456,1.84957 -1.674,2.50377 -0.79749,0.6412 -1.79067,0.9613 -2.98048,0.9613 -0.9693,0 -1.83937,-0.23308 -2.61205,-0.70122 -0.76074,-0.48015 -1.36161,-1.14835 -1.80354,-2.00262 -0.42906,-0.86826 -0.64406,-1.86957 -0.64406,-3.00492 0,-1.13435 0.20856,-2.12966 0.62568,-2.98392 0.42907,-0.86827 1.02443,-1.53548 1.78425,-2.00362 0.77268,-0.46715 1.65654,-0.70122 2.64972,-0.70122 0.95644,0 1.80906,0.22707 2.55693,0.68121 0.7488,0.45414 1.3313,1.09534 1.74842,1.9236 0.41712,0.81425 0.62476,1.75554 0.62476,2.82387 z m -2.18851,-0.72123 c -0.0129,-0.84126 -0.28849,-1.51546 -0.8278,-2.02262 -0.54024,-0.50816 -1.20818,-0.76123 -2.00567,-0.76123 -0.72399,0 -1.34324,0.25307 -1.85867,0.76123 -0.51451,0.49415 -0.82138,1.16836 -0.91968,2.02262 z m 7.56421,6.69007 c -0.79657,0 -1.51413,-0.15305 -2.15267,-0.46015 -0.62476,-0.32109 -1.12181,-0.74823 -1.48932,-1.28239 -0.36843,-0.54717 -0.56504,-1.15536 -0.58893,-1.82256 h 2.17105 c 0.0367,0.46714 0.23888,0.86126 0.60638,1.18136 0.38037,0.3071 0.85262,0.46114 1.41674,0.46114 0.58893,0 1.0428,-0.12003 1.36161,-0.36011 0.33168,-0.25408 0.49706,-0.57517 0.49706,-0.96229 0,-0.41313 -0.18376,-0.72123 -0.55218,-0.92129 -0.35556,-0.20006 -0.92612,-0.42013 -1.71075,-0.6612 -0.76073,-0.22707 -1.37998,-0.44714 -1.85866,-0.66021 -0.47776,-0.21406 -0.89488,-0.54116 -1.25044,-0.9823 -0.34362,-0.44013 -0.51543,-1.02131 -0.51543,-1.74254 0,-0.58718 0.15986,-1.12134 0.47868,-1.60249 0.31881,-0.49415 0.77268,-0.88127 1.36069,-1.16136 0.60179,-0.28008 1.28811,-0.42113 2.06079,-0.42113 1.15306,0 2.07917,0.3211 2.77836,0.9623 0.71112,0.62719 1.09149,1.48846 1.14019,2.5838 h -2.09663 c -0.0377,-0.49416 -0.22142,-0.88828 -0.55218,-1.18237 -0.33167,-0.29309 -0.77911,-0.44013 -1.34324,-0.44013 -0.55218,0 -0.97481,0.11303 -1.26973,0.3401 -0.29401,0.22707 -0.44101,0.52816 -0.44101,0.90128 0,0.29409 0.0983,0.54117 0.294,0.74123 0.19662,0.20006 0.4355,0.36111 0.71756,0.48115 0.28206,0.10703 0.69918,0.24707 1.25136,0.42012 0.73593,0.21407 1.33681,0.43414 1.80262,0.66121 0.47868,0.21406 0.88937,0.53416 1.23299,0.9613 0.34362,0.42713 0.52094,0.9953 0.53288,1.70252 0,0.62819 -0.15894,1.18837 -0.47776,1.68252 -0.31881,0.49415 -0.77268,0.88127 -1.36161,1.16236 -0.57607,0.28008 -1.25687,0.42013 -2.04242,0.42013 z"
     fill="#000000"
     id="path8"
     style="stroke-width:0.958671" />
  <rect
     x="78.658478"
     y="395.76599"
     width="30.662836"
     height="33.384193"
     rx="15.331371"
     fill="#721f6f"
     id="rect9"
     style="stroke-width:0.958671;fill:#862e9c;fill-opacity:1" />
  <g
     clip-path="url(#clip2_670_9175)"
     id="g9"
     transform="matrix(0.91876692,0,0,1.0003084,-185.99051,47.915736)">
    <path
       d="m 299.538,364.432 3.708,3.708 7.417,-7.416"
       stroke="#ffffff"
       stroke-width="1.66869"
       stroke-linecap="round"
       stroke-linejoin="round"
       id="path9" />
  </g>
  <rect
     x="419.62299"
     y="146.98941"
     width="309.26401"
     height="280.95517"
     rx="9.2020397"
     fill="#eddeff"
     id="rect10"
     style="stroke-width:0.851895;fill:#e5dbff;fill-opacity:1" />
  <rect
     x="419.45868"
     y="146.82509"
     width="309.59265"
     height="280.92017"
     rx="9.2118177"
     stroke="#c67dff"
     stroke-width="2.22492"
     id="rect11"
     style="stroke:#5f3dc4;stroke-opacity:1" />
  <path
     d="m 528.075,276.105 v -3.509 h 7.947 v 30.564 h -3.889 v -27.055 z m 13.287,11.456 c 0,-4.848 0.789,-8.624 2.367,-11.33 1.578,-2.733 4.34,-4.1 8.286,-4.1 3.917,0 6.665,1.367 8.243,4.1 1.578,2.706 2.367,6.482 2.367,11.33 0,4.932 -0.789,8.764 -2.367,11.498 -1.578,2.734 -4.326,4.101 -8.243,4.101 -3.946,0 -6.708,-1.367 -8.286,-4.101 -1.578,-2.734 -2.367,-6.566 -2.367,-11.498 z m 17.459,0 c 0,-2.452 -0.169,-4.524 -0.508,-6.214 -0.31,-1.72 -0.972,-3.101 -1.986,-4.143 -0.987,-1.043 -2.424,-1.564 -4.312,-1.564 -1.917,0 -3.382,0.521 -4.397,1.564 -0.986,1.042 -1.648,2.423 -1.987,4.143 -0.31,1.69 -0.465,3.762 -0.465,6.214 0,2.536 0.155,4.664 0.465,6.383 0.339,1.719 1.001,3.1 1.987,4.143 1.015,1.043 2.48,1.564 4.397,1.564 1.888,0 3.325,-0.521 4.312,-1.564 1.014,-1.043 1.676,-2.424 1.986,-4.143 0.339,-1.719 0.508,-3.847 0.508,-6.383 z m 7.817,0 c 0,-4.848 0.789,-8.624 2.368,-11.33 1.578,-2.733 4.34,-4.1 8.285,-4.1 3.918,0 6.665,1.367 8.244,4.1 1.578,2.706 2.367,6.482 2.367,11.33 0,4.932 -0.789,8.764 -2.367,11.498 -1.579,2.734 -4.326,4.101 -8.244,4.101 -3.945,0 -6.707,-1.367 -8.285,-4.101 -1.579,-2.734 -2.368,-6.566 -2.368,-11.498 z m 17.459,0 c 0,-2.452 -0.169,-4.524 -0.507,-6.214 -0.31,-1.72 -0.972,-3.101 -1.987,-4.143 -0.986,-1.043 -2.424,-1.564 -4.312,-1.564 -1.916,0 -3.382,0.521 -4.396,1.564 -0.987,1.042 -1.649,2.423 -1.987,4.143 -0.31,1.69 -0.465,3.762 -0.465,6.214 0,2.536 0.155,4.664 0.465,6.383 0.338,1.719 1,3.1 1.987,4.143 1.014,1.043 2.48,1.564 4.396,1.564 1.888,0 3.326,-0.521 4.312,-1.564 1.015,-1.043 1.677,-2.424 1.987,-4.143 0.338,-1.719 0.507,-3.847 0.507,-6.383 z m 6.972,-8.075 c 0,-1.916 0.578,-3.438 1.734,-4.565 1.155,-1.156 2.635,-1.733 4.438,-1.733 1.804,0 3.284,0.577 4.439,1.733 1.156,1.127 1.733,2.649 1.733,4.565 0,1.945 -0.577,3.495 -1.733,4.651 -1.155,1.127 -2.635,1.691 -4.439,1.691 -1.803,0 -3.283,-0.564 -4.438,-1.691 -1.156,-1.156 -1.734,-2.706 -1.734,-4.651 z m 24.688,-5.833 -17.121,29.507 h -3.804 l 17.121,-29.507 z m -18.516,1.902 c -0.958,0 -1.719,0.338 -2.282,1.015 -0.536,0.648 -0.804,1.62 -0.804,2.916 0,1.297 0.268,2.283 0.804,2.96 0.563,0.676 1.324,1.014 2.282,1.014 0.959,0 1.72,-0.338 2.283,-1.014 0.564,-0.705 0.846,-1.691 0.846,-2.96 0,-1.296 -0.282,-2.268 -0.846,-2.916 -0.563,-0.677 -1.324,-1.015 -2.283,-1.015 z m 10.019,21.771 c 0,-1.945 0.578,-3.481 1.733,-4.608 1.156,-1.155 2.635,-1.733 4.439,-1.733 1.804,0 3.269,0.578 4.397,1.733 1.155,1.127 1.733,2.663 1.733,4.608 0,1.916 -0.578,3.452 -1.733,4.608 -1.128,1.155 -2.593,1.733 -4.397,1.733 -1.804,0 -3.283,-0.564 -4.439,-1.691 -1.155,-1.155 -1.733,-2.705 -1.733,-4.65 z m 6.13,-3.932 c -0.958,0 -1.719,0.339 -2.283,1.015 -0.564,0.648 -0.845,1.621 -0.845,2.917 0,1.268 0.281,2.24 0.845,2.917 0.564,0.648 1.325,0.972 2.283,0.972 0.958,0 1.719,-0.324 2.283,-0.972 0.563,-0.677 0.845,-1.649 0.845,-2.917 0,-1.296 -0.282,-2.269 -0.845,-2.917 -0.564,-0.676 -1.325,-1.015 -2.283,-1.015 z"
     fill="#000000"
     id="path11" />
  <path
     d="m 574.255,376.618 c 49.152,0 88.997,-39.845 88.997,-88.997 0,-49.151 -39.845,-88.996 -88.997,-88.996 -49.151,0 -88.997,39.845 -88.997,88.996 0,49.152 39.846,88.997 88.997,88.997 z"
     stroke="#721f6f"
     stroke-width="17.7994"
     stroke-linejoin="round"
     id="path13"
     style="stroke:#862e9c;stroke-opacity:1" />
  <rect
     x="290.5"
     y="456.229"
     width="186.894"
     height="186.894"
     rx="22.249201"
     fill="#560153"
     id="rect13"
     style="fill:#862e9c;fill-opacity:1" />
  <path
     d="m 383.894,507.959 c 10.828,9.58 24.959,14.567 39.4,13.906 2.103,7.153 2.746,14.654 1.892,22.06 -0.854,7.406 -3.188,14.565 -6.864,21.051 -3.675,6.486 -8.617,12.166 -14.531,16.705 -5.914,4.538 -12.68,7.841 -19.897,9.713 0.007,-26.418 -0.001,-47.469 0,-83.435 z"
     fill="#c67dff"
     id="path14"
     style="fill:#91a7ff;fill-opacity:1" />
  <path
     d="m 383.887,507.959 c 10.827,9.58 24.959,14.567 39.4,13.906 2.102,7.153 2.746,14.654 1.892,22.06 -0.855,7.406 -3.189,14.565 -6.864,21.051 -3.675,6.486 -8.617,12.166 -14.531,16.705 -5.915,4.538 -12.681,7.841 -19.897,9.713 -7.216,-1.872 -13.982,-5.175 -19.897,-9.713 -5.914,-4.539 -10.855,-10.219 -14.531,-16.705 -3.675,-6.486 -6.009,-13.645 -6.863,-21.051 -0.854,-7.406 -0.211,-14.907 1.891,-22.06 14.442,0.661 28.573,-4.326 39.4,-13.906 z"
     stroke="#ffffff"
     stroke-width="4.44985"
     stroke-linecap="round"
     stroke-linejoin="round"
     id="path15" />
  <defs
     id="defs18">
    <clipPath
       id="clip0_670_9175">
      <rect
         width="17.7994"
         height="17.7994"
         fill="#ffffff"
         transform="translate(295.835,173.086)"
         id="rect15"
         x="0"
         y="0" />
    </clipPath>
    <clipPath
       id="clip1_670_9175">
      <rect
         width="17.7994"
         height="17.7994"
         fill="#ffffff"
         transform="translate(295.835,264.308)"
         id="rect16"
         x="0"
         y="0" />
    </clipPath>
    <clipPath
       id="clip2_670_9175">
      <rect
         width="17.7994"
         height="17.7994"
         fill="#ffffff"
         transform="translate(295.835,355.531)"
         id="rect17"
         x="0"
         y="0" />
    </clipPath>
  </defs>
</svg>
