<?xml version="1.0" encoding="UTF-8" standalone="no"?>
<svg
   width="620"
   height="620"
   viewBox="0 0 620 620"
   fill="none"
   version="1.1"
   id="svg72"
   sodipodi:docname="hero-charts-and-graphs.svg"
   inkscape:version="1.4 (86a8ad7, 2024-10-11)"
   xmlns:inkscape="http://www.inkscape.org/namespaces/inkscape"
   xmlns:sodipodi="http://sodipodi.sourceforge.net/DTD/sodipodi-0.dtd"
   xmlns="http://www.w3.org/2000/svg"
   xmlns:svg="http://www.w3.org/2000/svg">
  <sodipodi:namedview
     id="namedview72"
     pagecolor="#ffffff"
     bordercolor="#000000"
     borderopacity="0.25"
     inkscape:showpageshadow="2"
     inkscape:pageopacity="0.0"
     inkscape:pagecheckerboard="0"
     inkscape:deskcolor="#d1d1d1"
     inkscape:zoom="2.2108507"
     inkscape:cx="259.40241"
     inkscape:cy="341.72367"
     inkscape:window-width="3840"
     inkscape:window-height="2054"
     inkscape:window-x="-11"
     inkscape:window-y="-11"
     inkscape:window-maximized="1"
     inkscape:current-layer="svg72" />
  <rect
     width="620"
     height="620"
     fill="#ffe999"
     id="rect28"
     x="0"
     y="0"
     rx="32"
     ry="32" />
  <rect
     x="62.8629"
     y="164.97803"
     width="419.53"
     height="289.745"
     rx="8.2482595"
     fill="#ffffff"
     stroke="#c67dff"
     stroke-width="1.47967"
     id="rect29" />
  <circle
     cx="397.72"
     cy="196.13202"
     r="3.8081901"
     fill="#ffffff"
     id="circle29" />
  <circle
     cx="397.72"
     cy="211.84003"
     r="3.8081901"
     fill="#ffffff"
     id="circle30" />
  <circle
     cx="397.72"
     cy="227.54901"
     r="3.8081901"
     fill="#ffffff"
     id="circle31" />
  <g
     clip-path="url(#clip6_670_3982)"
     id="g34"
     transform="translate(0,-541)">
    <rect
       x="429.61099"
       y="782.83002"
       width="151.94299"
       height="158.515"
       rx="8.9881001"
       fill="#d9ddff"
       id="rect31" />
    <path
       d="m 486.371,854.686 v -1.898 h 4.3 v 16.535 h -2.104 v -14.637 z m 6.937,12.968 c 1.936,-1.555 3.453,-2.829 4.551,-3.82 1.098,-1.006 2.02,-2.05 2.767,-3.133 0.763,-1.098 1.144,-2.173 1.144,-3.225 0,-0.991 -0.244,-1.768 -0.732,-2.332 -0.473,-0.58 -1.243,-0.869 -2.31,-0.869 -1.037,0 -1.845,0.327 -2.424,0.983 -0.564,0.64 -0.869,1.502 -0.915,2.584 h -2.013 c 0.061,-1.707 0.58,-3.026 1.556,-3.956 0.975,-0.93 2.233,-1.395 3.773,-1.395 1.571,0 2.813,0.434 3.728,1.303 0.93,0.869 1.395,2.066 1.395,3.591 0,1.265 -0.381,2.5 -1.143,3.705 -0.747,1.189 -1.601,2.241 -2.562,3.156 -0.96,0.9 -2.188,1.952 -3.682,3.156 h 7.867 v 1.738 h -11 z m 12.263,-11.138 c 0,-1.037 0.312,-1.86 0.937,-2.47 0.626,-0.625 1.426,-0.938 2.402,-0.938 0.976,0 1.776,0.313 2.401,0.938 0.625,0.61 0.938,1.433 0.938,2.47 0,1.052 -0.313,1.891 -0.938,2.516 -0.625,0.61 -1.425,0.914 -2.401,0.914 -0.976,0 -1.776,-0.304 -2.402,-0.914 -0.625,-0.625 -0.937,-1.464 -0.937,-2.516 z m 13.356,-3.156 -9.262,15.963 h -2.059 l 9.263,-15.963 z m -10.017,1.029 c -0.519,0 -0.93,0.183 -1.235,0.549 -0.29,0.351 -0.435,0.877 -0.435,1.578 0,0.701 0.145,1.235 0.435,1.601 0.305,0.366 0.716,0.549 1.235,0.549 0.518,0 0.93,-0.183 1.235,-0.549 0.305,-0.381 0.457,-0.915 0.457,-1.601 0,-0.701 -0.152,-1.227 -0.457,-1.578 -0.305,-0.366 -0.717,-0.549 -1.235,-0.549 z m 5.42,11.778 c 0,-1.052 0.313,-1.883 0.938,-2.493 0.625,-0.625 1.425,-0.937 2.401,-0.937 0.976,0 1.769,0.312 2.379,0.937 0.625,0.61 0.937,1.441 0.937,2.493 0,1.037 -0.312,1.868 -0.937,2.493 -0.61,0.625 -1.403,0.938 -2.379,0.938 -0.976,0 -1.776,-0.305 -2.401,-0.915 -0.625,-0.625 -0.938,-1.464 -0.938,-2.516 z m 3.316,-2.127 c -0.518,0 -0.93,0.183 -1.235,0.549 -0.305,0.351 -0.457,0.877 -0.457,1.578 0,0.686 0.152,1.212 0.457,1.578 0.305,0.351 0.717,0.526 1.235,0.526 0.519,0 0.93,-0.175 1.235,-0.526 0.305,-0.366 0.458,-0.892 0.458,-1.578 0,-0.701 -0.153,-1.227 -0.458,-1.578 -0.305,-0.366 -0.716,-0.549 -1.235,-0.549 z"
       fill="#560153"
       id="path31" />
    <path
       d="m 505.579,909.474 c 25.588,0 46.332,-20.743 46.332,-46.331 0,-25.588 -20.744,-46.331 -46.332,-46.331 -25.588,0 -46.331,20.743 -46.331,46.331 0,25.588 20.743,46.331 46.331,46.331 z"
       stroke="#560153"
       stroke-width="9.74096"
       stroke-linejoin="round"
       id="path32" />
    <path
       d="m 459.248,863.143 c 0,-25.59 20.742,-46.331 46.331,-46.331"
       stroke="#ffffff"
       stroke-width="9.74096"
       stroke-linejoin="round"
       id="path33" />
    <path
       d="m 475.715,827.718 c 8.063,-6.804 18.483,-10.906 29.861,-10.906"
       stroke="#ffe999"
       stroke-width="9.74096"
       stroke-linejoin="round"
       id="path34" />
  </g>
  <rect
     x="430.35101"
     y="242.57001"
     width="150.463"
     height="157.036"
     rx="8.2482595"
     stroke="#afb8ff"
     stroke-width="1.47967"
     id="rect34" />
  <path
     d="m 409.915,197.794 h 1.81 v 0.549 h -2.486 v -5.171 h 0.676 z m 4.3,0.616 c -0.381,0 -0.727,-0.087 -1.038,-0.26 -0.307,-0.173 -0.55,-0.418 -0.728,-0.734 -0.173,-0.322 -0.259,-0.693 -0.259,-1.113 0,-0.416 0.089,-0.782 0.267,-1.098 0.183,-0.322 0.43,-0.567 0.742,-0.735 0.311,-0.173 0.66,-0.26 1.046,-0.26 0.386,0 0.735,0.087 1.046,0.26 0.312,0.168 0.557,0.411 0.735,0.727 0.183,0.317 0.274,0.685 0.274,1.106 0,0.42 -0.094,0.791 -0.282,1.113 -0.183,0.316 -0.432,0.561 -0.749,0.734 -0.317,0.173 -0.668,0.26 -1.054,0.26 z m 0,-0.594 c 0.243,0 0.47,-0.056 0.683,-0.17 0.213,-0.114 0.383,-0.285 0.512,-0.512 0.133,-0.228 0.2,-0.505 0.2,-0.831 0,-0.327 -0.064,-0.604 -0.193,-0.831 -0.128,-0.228 -0.296,-0.396 -0.504,-0.505 -0.208,-0.114 -0.433,-0.17 -0.675,-0.17 -0.248,0 -0.475,0.056 -0.683,0.17 -0.203,0.109 -0.366,0.277 -0.49,0.505 -0.123,0.227 -0.185,0.504 -0.185,0.831 0,0.331 0.059,0.611 0.178,0.838 0.124,0.228 0.287,0.398 0.49,0.512 0.202,0.109 0.425,0.163 0.667,0.163 z m 3.648,-2.878 c 0.119,-0.233 0.287,-0.413 0.505,-0.542 0.222,-0.129 0.492,-0.193 0.809,-0.193 v 0.697 h -0.178 c -0.757,0 -1.136,0.411 -1.136,1.232 v 2.211 h -0.675 v -4.066 h 0.675 z m 5.803,1.216 c 0,0.129 -0.007,0.265 -0.022,0.409 h -3.25 c 0.025,0.4 0.161,0.714 0.408,0.942 0.252,0.222 0.556,0.334 0.913,0.334 0.291,0 0.534,-0.067 0.727,-0.201 0.198,-0.138 0.336,-0.321 0.415,-0.549 h 0.727 c -0.109,0.391 -0.326,0.71 -0.653,0.957 -0.326,0.243 -0.732,0.364 -1.216,0.364 -0.386,0 -0.733,-0.087 -1.039,-0.26 -0.302,-0.173 -0.539,-0.418 -0.713,-0.734 -0.173,-0.322 -0.259,-0.693 -0.259,-1.113 0,-0.421 0.084,-0.789 0.252,-1.106 0.168,-0.316 0.403,-0.559 0.705,-0.727 0.307,-0.173 0.658,-0.26 1.054,-0.26 0.385,0 0.727,0.085 1.023,0.253 0.297,0.168 0.525,0.4 0.683,0.697 0.163,0.292 0.245,0.623 0.245,0.994 z m -0.698,-0.141 c 0,-0.257 -0.056,-0.477 -0.17,-0.66 -0.114,-0.188 -0.27,-0.329 -0.468,-0.423 -0.193,-0.099 -0.408,-0.148 -0.645,-0.148 -0.341,0 -0.633,0.109 -0.876,0.326 -0.237,0.218 -0.373,0.52 -0.408,0.905 z m 6.479,-1.81 c 0.316,0 0.598,0.067 0.846,0.2 0.247,0.129 0.442,0.324 0.586,0.586 0.143,0.263 0.215,0.582 0.215,0.958 v 2.396 h -0.668 v -2.3 c 0,-0.406 -0.101,-0.715 -0.304,-0.927 -0.198,-0.218 -0.467,-0.327 -0.809,-0.327 -0.351,0 -0.63,0.114 -0.838,0.341 -0.208,0.223 -0.312,0.547 -0.312,0.972 v 2.241 h -0.668 v -2.3 c 0,-0.406 -0.101,-0.715 -0.304,-0.927 -0.198,-0.218 -0.467,-0.327 -0.809,-0.327 -0.351,0 -0.63,0.114 -0.838,0.341 -0.208,0.223 -0.312,0.547 -0.312,0.972 v 2.241 h -0.675 v -4.066 h 0.675 v 0.586 c 0.134,-0.212 0.312,-0.376 0.535,-0.489 0.227,-0.114 0.477,-0.171 0.749,-0.171 0.341,0 0.643,0.077 0.905,0.23 0.262,0.153 0.458,0.378 0.586,0.675 0.114,-0.287 0.302,-0.509 0.564,-0.668 0.262,-0.158 0.554,-0.237 0.876,-0.237 z"
     fill="#000000"
     id="path35" />
  <path
     d="m 410.849,208.909 c 0.564,0 1.052,0.106 1.462,0.319 0.416,0.208 0.732,0.507 0.95,0.898 0.222,0.391 0.334,0.851 0.334,1.38 0,0.529 -0.112,0.989 -0.334,1.38 -0.218,0.386 -0.534,0.683 -0.95,0.89 -0.41,0.203 -0.898,0.305 -1.462,0.305 h -1.61 v -5.172 z m 0,4.615 c 0.668,0 1.178,-0.176 1.529,-0.527 0.351,-0.356 0.527,-0.853 0.527,-1.491 0,-0.643 -0.178,-1.145 -0.535,-1.506 -0.351,-0.361 -0.858,-0.542 -1.521,-0.542 h -0.934 v 4.066 z m 5.41,0.623 c -0.381,0 -0.727,-0.086 -1.039,-0.259 -0.307,-0.173 -0.549,-0.418 -0.727,-0.735 -0.173,-0.321 -0.26,-0.692 -0.26,-1.113 0,-0.415 0.089,-0.781 0.267,-1.098 0.183,-0.322 0.431,-0.566 0.742,-0.735 0.312,-0.173 0.661,-0.259 1.046,-0.259 0.386,0 0.735,0.086 1.047,0.259 0.311,0.169 0.556,0.411 0.734,0.728 0.183,0.316 0.275,0.685 0.275,1.105 0,0.421 -0.094,0.792 -0.282,1.113 -0.183,0.317 -0.433,0.562 -0.75,0.735 -0.316,0.173 -0.667,0.259 -1.053,0.259 z m 0,-0.593 c 0.242,0 0.47,-0.057 0.682,-0.171 0.213,-0.114 0.384,-0.284 0.512,-0.512 0.134,-0.227 0.201,-0.504 0.201,-0.831 0,-0.326 -0.065,-0.603 -0.193,-0.831 -0.129,-0.227 -0.297,-0.396 -0.505,-0.504 -0.208,-0.114 -0.433,-0.171 -0.675,-0.171 -0.247,0 -0.475,0.057 -0.683,0.171 -0.202,0.108 -0.366,0.277 -0.489,0.504 -0.124,0.228 -0.186,0.505 -0.186,0.831 0,0.332 0.059,0.611 0.178,0.839 0.124,0.227 0.287,0.398 0.49,0.512 0.203,0.108 0.425,0.163 0.668,0.163 z m 3.648,-4.964 v 5.491 h -0.676 v -5.491 z m 2.924,5.557 c -0.381,0 -0.727,-0.086 -1.039,-0.259 -0.307,-0.173 -0.549,-0.418 -0.727,-0.735 -0.173,-0.321 -0.26,-0.692 -0.26,-1.113 0,-0.415 0.089,-0.781 0.267,-1.098 0.183,-0.322 0.431,-0.566 0.742,-0.735 0.312,-0.173 0.661,-0.259 1.046,-0.259 0.386,0 0.735,0.086 1.047,0.259 0.311,0.169 0.556,0.411 0.734,0.728 0.183,0.316 0.275,0.685 0.275,1.105 0,0.421 -0.094,0.792 -0.282,1.113 -0.183,0.317 -0.433,0.562 -0.75,0.735 -0.316,0.173 -0.667,0.259 -1.053,0.259 z m 0,-0.593 c 0.242,0 0.47,-0.057 0.682,-0.171 0.213,-0.114 0.384,-0.284 0.512,-0.512 0.134,-0.227 0.201,-0.504 0.201,-0.831 0,-0.326 -0.065,-0.603 -0.193,-0.831 -0.129,-0.227 -0.297,-0.396 -0.505,-0.504 -0.208,-0.114 -0.433,-0.171 -0.675,-0.171 -0.247,0 -0.475,0.057 -0.683,0.171 -0.202,0.108 -0.366,0.277 -0.489,0.504 -0.124,0.228 -0.186,0.505 -0.186,0.831 0,0.332 0.06,0.611 0.178,0.839 0.124,0.227 0.287,0.398 0.49,0.512 0.203,0.108 0.425,0.163 0.668,0.163 z m 3.648,-2.879 c 0.118,-0.233 0.287,-0.413 0.504,-0.542 0.223,-0.128 0.492,-0.193 0.809,-0.193 v 0.698 h -0.178 c -0.757,0 -1.135,0.41 -1.135,1.231 v 2.212 h -0.676 v -4.067 h 0.676 z m 5.51,3.472 c -0.312,0 -0.591,-0.052 -0.838,-0.155 -0.248,-0.109 -0.443,-0.258 -0.587,-0.446 -0.143,-0.193 -0.222,-0.413 -0.237,-0.66 h 0.697 c 0.02,0.203 0.114,0.368 0.282,0.497 0.174,0.129 0.399,0.193 0.676,0.193 0.257,0 0.46,-0.057 0.608,-0.171 0.148,-0.113 0.223,-0.257 0.223,-0.43 0,-0.178 -0.08,-0.309 -0.238,-0.393 -0.158,-0.089 -0.403,-0.176 -0.734,-0.26 -0.302,-0.079 -0.549,-0.158 -0.742,-0.237 -0.188,-0.084 -0.352,-0.206 -0.49,-0.364 -0.134,-0.163 -0.2,-0.376 -0.2,-0.638 0,-0.208 0.061,-0.398 0.185,-0.571 0.124,-0.174 0.299,-0.31 0.527,-0.408 0.227,-0.104 0.487,-0.156 0.779,-0.156 0.45,0 0.814,0.113 1.091,0.341 0.277,0.228 0.425,0.539 0.445,0.935 h -0.675 c -0.015,-0.213 -0.102,-0.383 -0.26,-0.512 -0.153,-0.129 -0.361,-0.193 -0.623,-0.193 -0.243,0 -0.436,0.052 -0.579,0.156 -0.143,0.104 -0.215,0.24 -0.215,0.408 0,0.134 0.042,0.245 0.126,0.334 0.089,0.084 0.198,0.153 0.326,0.208 0.134,0.049 0.317,0.106 0.549,0.17 0.292,0.079 0.53,0.159 0.713,0.238 0.183,0.074 0.339,0.188 0.467,0.341 0.134,0.153 0.203,0.354 0.208,0.601 0,0.223 -0.062,0.423 -0.186,0.601 -0.123,0.178 -0.299,0.319 -0.526,0.423 -0.223,0.099 -0.48,0.148 -0.772,0.148 z m 2.786,-4.793 c -0.129,0 -0.238,-0.044 -0.327,-0.133 -0.089,-0.089 -0.133,-0.198 -0.133,-0.327 0,-0.129 0.044,-0.237 0.133,-0.326 0.089,-0.089 0.198,-0.134 0.327,-0.134 0.124,0 0.227,0.045 0.312,0.134 0.089,0.089 0.133,0.197 0.133,0.326 0,0.129 -0.044,0.238 -0.133,0.327 -0.085,0.089 -0.188,0.133 -0.312,0.133 z m 0.326,0.66 v 4.067 h -0.675 v -4.067 z m 1.975,0.557 v 2.397 c 0,0.197 0.042,0.338 0.126,0.423 0.084,0.079 0.23,0.118 0.438,0.118 h 0.497 v 0.572 h -0.609 c -0.376,0 -0.658,-0.087 -0.846,-0.26 -0.187,-0.173 -0.281,-0.458 -0.281,-0.853 v -2.397 h -0.527 v -0.557 h 0.527 v -1.023 h 0.675 v 1.023 h 1.061 v 0.557 z"
     fill="#000000"
     id="path36" />
  <path
     d="m 409.915,224.617 v 5.172 h -0.676 v -5.172 z m 1.825,1.855 c 0.134,-0.233 0.332,-0.425 0.594,-0.579 0.267,-0.158 0.576,-0.237 0.928,-0.237 0.361,0 0.687,0.086 0.979,0.259 0.297,0.174 0.529,0.418 0.697,0.735 0.169,0.312 0.253,0.675 0.253,1.091 0,0.41 -0.084,0.776 -0.253,1.098 -0.168,0.321 -0.4,0.571 -0.697,0.749 -0.292,0.178 -0.618,0.267 -0.979,0.267 -0.347,0 -0.653,-0.076 -0.921,-0.23 -0.262,-0.158 -0.462,-0.353 -0.601,-0.586 v 2.679 h -0.675 v -5.995 h 0.675 z m 2.761,1.269 c 0,-0.307 -0.062,-0.574 -0.186,-0.802 -0.124,-0.227 -0.292,-0.4 -0.504,-0.519 -0.208,-0.119 -0.438,-0.178 -0.69,-0.178 -0.248,0 -0.478,0.062 -0.69,0.185 -0.208,0.119 -0.376,0.295 -0.505,0.527 -0.124,0.228 -0.186,0.492 -0.186,0.794 0,0.307 0.062,0.576 0.186,0.809 0.129,0.227 0.297,0.403 0.505,0.527 0.212,0.118 0.442,0.178 0.69,0.178 0.252,0 0.482,-0.06 0.69,-0.178 0.212,-0.124 0.38,-0.3 0.504,-0.527 0.124,-0.233 0.186,-0.505 0.186,-0.816 z m 3.018,2.114 c -0.312,0 -0.591,-0.052 -0.839,-0.155 -0.247,-0.109 -0.442,-0.258 -0.586,-0.446 -0.143,-0.193 -0.222,-0.413 -0.237,-0.66 h 0.697 c 0.02,0.203 0.114,0.368 0.282,0.497 0.173,0.129 0.398,0.193 0.675,0.193 0.258,0 0.461,-0.057 0.609,-0.171 0.148,-0.113 0.223,-0.257 0.223,-0.43 0,-0.178 -0.08,-0.309 -0.238,-0.393 -0.158,-0.089 -0.403,-0.176 -0.734,-0.26 -0.302,-0.079 -0.55,-0.158 -0.742,-0.237 -0.188,-0.084 -0.352,-0.206 -0.49,-0.364 -0.134,-0.163 -0.201,-0.376 -0.201,-0.638 0,-0.208 0.062,-0.398 0.186,-0.571 0.124,-0.173 0.299,-0.31 0.527,-0.408 0.227,-0.104 0.487,-0.156 0.779,-0.156 0.45,0 0.814,0.113 1.091,0.341 0.277,0.228 0.425,0.539 0.445,0.935 h -0.675 c -0.015,-0.213 -0.102,-0.383 -0.26,-0.512 -0.153,-0.129 -0.361,-0.193 -0.623,-0.193 -0.243,0 -0.436,0.052 -0.579,0.156 -0.144,0.104 -0.215,0.24 -0.215,0.408 0,0.134 0.042,0.245 0.126,0.334 0.089,0.084 0.198,0.153 0.326,0.208 0.134,0.049 0.317,0.106 0.549,0.17 0.292,0.079 0.53,0.159 0.713,0.238 0.183,0.074 0.339,0.188 0.467,0.341 0.134,0.153 0.203,0.354 0.208,0.601 0,0.223 -0.062,0.423 -0.186,0.601 -0.123,0.178 -0.299,0.319 -0.526,0.423 -0.223,0.099 -0.48,0.148 -0.772,0.148 z m 6.043,-4.132 v 4.066 h -0.675 v -0.601 c -0.129,0.207 -0.309,0.371 -0.542,0.489 -0.227,0.114 -0.48,0.171 -0.757,0.171 -0.316,0 -0.601,-0.064 -0.853,-0.193 -0.252,-0.134 -0.453,-0.331 -0.601,-0.594 -0.143,-0.262 -0.215,-0.581 -0.215,-0.957 v -2.381 h 0.668 v 2.292 c 0,0.401 0.101,0.71 0.304,0.928 0.203,0.212 0.48,0.319 0.831,0.319 0.361,0 0.645,-0.112 0.853,-0.334 0.208,-0.223 0.312,-0.547 0.312,-0.972 v -2.233 z m 6.03,-0.075 c 0.316,0 0.598,0.067 0.846,0.201 0.247,0.128 0.442,0.324 0.586,0.586 0.143,0.262 0.215,0.581 0.215,0.957 v 2.397 h -0.668 v -2.301 c 0,-0.405 -0.101,-0.714 -0.304,-0.927 -0.198,-0.218 -0.467,-0.327 -0.809,-0.327 -0.351,0 -0.63,0.114 -0.838,0.342 -0.208,0.222 -0.312,0.546 -0.312,0.972 v 2.241 h -0.668 v -2.301 c 0,-0.405 -0.101,-0.714 -0.304,-0.927 -0.198,-0.218 -0.467,-0.327 -0.809,-0.327 -0.351,0 -0.63,0.114 -0.838,0.342 -0.208,0.222 -0.312,0.546 -0.312,0.972 v 2.241 h -0.675 v -4.066 h 0.675 v 0.586 c 0.134,-0.213 0.312,-0.376 0.535,-0.49 0.227,-0.114 0.477,-0.171 0.749,-0.171 0.341,0 0.643,0.077 0.905,0.23 0.262,0.154 0.458,0.379 0.586,0.676 0.114,-0.287 0.302,-0.51 0.564,-0.668 0.262,-0.159 0.554,-0.238 0.876,-0.238 z"
     fill="#000000"
     id="path37" />
  <path
     d="m 373.905,394.78 c 0.514,0 0.958,0.097 1.332,0.291 0.378,0.189 0.667,0.461 0.865,0.817 0.203,0.356 0.304,0.776 0.304,1.258 0,0.482 -0.101,0.901 -0.304,1.257 -0.198,0.351 -0.487,0.622 -0.865,0.811 -0.374,0.185 -0.818,0.277 -1.332,0.277 h -1.467 v -4.711 z m 0,4.204 c 0.609,0 1.073,-0.16 1.393,-0.48 0.32,-0.324 0.48,-0.777 0.48,-1.358 0,-0.586 -0.163,-1.043 -0.487,-1.372 -0.32,-0.329 -0.782,-0.494 -1.386,-0.494 h -0.851 v 3.704 z m 3.928,-3.704 v 1.575 h 1.716 v 0.507 h -1.716 v 1.622 h 1.919 v 0.507 h -2.534 v -4.718 h 2.534 v 0.507 z m 2.62,1.852 c 0,-0.459 0.104,-0.872 0.311,-1.237 0.207,-0.369 0.489,-0.658 0.845,-0.865 0.361,-0.207 0.759,-0.311 1.196,-0.311 0.514,0 0.963,0.124 1.346,0.372 0.383,0.248 0.662,0.599 0.838,1.054 h -0.737 c -0.131,-0.284 -0.32,-0.502 -0.568,-0.655 -0.243,-0.154 -0.536,-0.23 -0.879,-0.23 -0.329,0 -0.624,0.076 -0.885,0.23 -0.261,0.153 -0.466,0.371 -0.615,0.655 -0.149,0.28 -0.223,0.609 -0.223,0.987 0,0.374 0.074,0.703 0.223,0.987 0.149,0.279 0.354,0.496 0.615,0.649 0.261,0.153 0.556,0.23 0.885,0.23 0.343,0 0.636,-0.075 0.879,-0.223 0.248,-0.153 0.437,-0.372 0.568,-0.656 h 0.737 c -0.176,0.451 -0.455,0.8 -0.838,1.048 -0.383,0.243 -0.832,0.365 -1.346,0.365 -0.437,0 -0.835,-0.102 -1.196,-0.304 -0.356,-0.208 -0.638,-0.494 -0.845,-0.859 -0.207,-0.365 -0.311,-0.777 -0.311,-1.237 z"
     fill="#000000"
     id="path38" />
  <path
     d="m 345.33,399.491 h -0.615 l -2.474,-3.751 v 3.751 h -0.615 v -4.718 h 0.615 l 2.474,3.745 v -3.745 h 0.615 z m 3.185,0.048 c -0.438,0 -0.836,-0.102 -1.197,-0.305 -0.36,-0.207 -0.646,-0.493 -0.858,-0.858 -0.208,-0.37 -0.311,-0.784 -0.311,-1.244 0,-0.459 0.103,-0.872 0.311,-1.237 0.212,-0.369 0.498,-0.655 0.858,-0.858 0.361,-0.207 0.759,-0.311 1.197,-0.311 0.441,0 0.842,0.104 1.203,0.311 0.36,0.203 0.644,0.486 0.851,0.851 0.208,0.365 0.311,0.78 0.311,1.244 0,0.464 -0.103,0.879 -0.311,1.244 -0.207,0.365 -0.491,0.651 -0.851,0.858 -0.361,0.203 -0.762,0.305 -1.203,0.305 z m 0,-0.534 c 0.329,0 0.624,-0.077 0.885,-0.23 0.266,-0.153 0.473,-0.372 0.622,-0.656 0.153,-0.284 0.23,-0.613 0.23,-0.987 0,-0.378 -0.077,-0.707 -0.23,-0.987 -0.149,-0.284 -0.354,-0.502 -0.615,-0.655 -0.262,-0.154 -0.559,-0.23 -0.892,-0.23 -0.334,0 -0.631,0.076 -0.893,0.23 -0.261,0.153 -0.468,0.371 -0.622,0.655 -0.148,0.28 -0.223,0.609 -0.223,0.987 0,0.374 0.075,0.703 0.223,0.987 0.154,0.284 0.361,0.503 0.622,0.656 0.266,0.153 0.564,0.23 0.893,0.23 z m 7.071,-4.225 -1.778,4.711 h -0.71 l -1.777,-4.711 h 0.655 l 1.481,4.062 1.48,-4.062 z"
     fill="#000000"
     id="path39" />
  <path
     d="m 313.49,399.539 c -0.438,0 -0.836,-0.102 -1.197,-0.305 -0.36,-0.207 -0.646,-0.493 -0.858,-0.858 -0.208,-0.37 -0.311,-0.784 -0.311,-1.244 0,-0.459 0.103,-0.872 0.311,-1.237 0.212,-0.369 0.498,-0.655 0.858,-0.858 0.361,-0.207 0.759,-0.311 1.197,-0.311 0.441,0 0.842,0.104 1.203,0.311 0.36,0.203 0.644,0.486 0.851,0.851 0.208,0.365 0.311,0.78 0.311,1.244 0,0.464 -0.103,0.879 -0.311,1.244 -0.207,0.365 -0.491,0.651 -0.851,0.858 -0.361,0.203 -0.762,0.305 -1.203,0.305 z m 0,-0.534 c 0.329,0 0.624,-0.077 0.885,-0.23 0.266,-0.153 0.473,-0.372 0.622,-0.656 0.153,-0.284 0.23,-0.613 0.23,-0.987 0,-0.378 -0.077,-0.707 -0.23,-0.987 -0.149,-0.284 -0.354,-0.502 -0.615,-0.655 -0.262,-0.154 -0.559,-0.23 -0.892,-0.23 -0.334,0 -0.631,0.076 -0.893,0.23 -0.261,0.153 -0.468,0.371 -0.622,0.655 -0.148,0.28 -0.223,0.609 -0.223,0.987 0,0.374 0.075,0.703 0.223,0.987 0.154,0.284 0.361,0.503 0.622,0.656 0.266,0.153 0.564,0.23 0.893,0.23 z m 2.948,-1.873 c 0,-0.459 0.103,-0.872 0.31,-1.237 0.208,-0.369 0.489,-0.658 0.845,-0.865 0.361,-0.207 0.76,-0.311 1.197,-0.311 0.514,0 0.962,0.124 1.345,0.372 0.383,0.248 0.662,0.599 0.838,1.054 h -0.737 c -0.13,-0.284 -0.32,-0.502 -0.567,-0.655 -0.244,-0.154 -0.537,-0.23 -0.879,-0.23 -0.329,0 -0.624,0.076 -0.886,0.23 -0.261,0.153 -0.466,0.371 -0.615,0.655 -0.148,0.28 -0.223,0.609 -0.223,0.987 0,0.374 0.075,0.703 0.223,0.987 0.149,0.279 0.354,0.496 0.615,0.649 0.262,0.153 0.557,0.23 0.886,0.23 0.342,0 0.635,-0.075 0.879,-0.223 0.247,-0.153 0.437,-0.372 0.567,-0.656 h 0.737 c -0.176,0.451 -0.455,0.8 -0.838,1.048 -0.383,0.243 -0.831,0.365 -1.345,0.365 -0.437,0 -0.836,-0.102 -1.197,-0.304 -0.356,-0.208 -0.637,-0.494 -0.845,-0.859 -0.207,-0.365 -0.31,-0.777 -0.31,-1.237 z m 8.35,-2.352 v 0.5 h -1.284 v 4.211 h -0.615 v -4.211 h -1.291 v -0.5 z"
     fill="#000000"
     id="path40" />
  <path
     d="m 283.463,399.539 c -0.311,0 -0.591,-0.055 -0.839,-0.163 -0.243,-0.112 -0.434,-0.266 -0.574,-0.459 -0.14,-0.199 -0.212,-0.426 -0.216,-0.683 h 0.655 c 0.023,0.221 0.113,0.408 0.271,0.561 0.162,0.149 0.396,0.223 0.703,0.223 0.293,0 0.522,-0.072 0.689,-0.216 0.171,-0.149 0.257,-0.338 0.257,-0.568 0,-0.18 -0.05,-0.327 -0.149,-0.439 -0.099,-0.113 -0.223,-0.199 -0.372,-0.257 -0.148,-0.059 -0.349,-0.122 -0.601,-0.19 -0.311,-0.081 -0.561,-0.162 -0.75,-0.243 -0.185,-0.081 -0.345,-0.207 -0.48,-0.378 -0.131,-0.176 -0.196,-0.41 -0.196,-0.703 0,-0.257 0.065,-0.485 0.196,-0.683 0.13,-0.198 0.313,-0.352 0.547,-0.46 0.239,-0.108 0.512,-0.162 0.818,-0.162 0.442,0 0.802,0.111 1.082,0.331 0.283,0.221 0.443,0.514 0.479,0.879 h -0.675 c -0.023,-0.18 -0.118,-0.338 -0.284,-0.473 -0.167,-0.14 -0.388,-0.21 -0.663,-0.21 -0.257,0 -0.466,0.068 -0.628,0.203 -0.163,0.131 -0.244,0.316 -0.244,0.554 0,0.172 0.048,0.311 0.142,0.419 0.099,0.109 0.219,0.192 0.358,0.251 0.145,0.054 0.345,0.117 0.602,0.189 0.311,0.085 0.561,0.171 0.75,0.257 0.19,0.081 0.352,0.209 0.487,0.385 0.135,0.171 0.203,0.406 0.203,0.703 0,0.23 -0.061,0.446 -0.183,0.649 -0.121,0.203 -0.302,0.367 -0.54,0.493 -0.239,0.126 -0.521,0.19 -0.845,0.19 z m 3.088,-4.259 v 1.575 h 1.717 v 0.507 h -1.717 v 1.622 h 1.92 v 0.507 h -2.535 v -4.718 h 2.535 v 0.507 z m 6,0.879 c 0,0.392 -0.135,0.719 -0.405,0.98 -0.266,0.257 -0.674,0.385 -1.224,0.385 h -0.905 v 1.967 h -0.616 v -4.711 h 1.521 c 0.532,0 0.935,0.128 1.21,0.385 0.28,0.257 0.419,0.588 0.419,0.994 z m -1.629,0.858 c 0.343,0 0.595,-0.074 0.757,-0.223 0.163,-0.148 0.244,-0.36 0.244,-0.635 0,-0.581 -0.334,-0.872 -1.001,-0.872 h -0.905 v 1.73 z"
     fill="#000000"
     id="path41" />
  <path
     d="m 253.964,398.444 h -2.055 l -0.378,1.047 h -0.649 l 1.703,-4.684 h 0.71 l 1.696,4.684 h -0.648 z m -0.176,-0.501 -0.851,-2.379 -0.852,2.379 z m 2.547,-3.163 v 2.981 c 0,0.419 0.102,0.73 0.305,0.933 0.207,0.202 0.493,0.304 0.858,0.304 0.361,0 0.642,-0.102 0.845,-0.304 0.207,-0.203 0.311,-0.514 0.311,-0.933 v -2.981 h 0.615 v 2.974 c 0,0.392 -0.079,0.723 -0.237,0.994 -0.157,0.266 -0.371,0.464 -0.642,0.595 -0.266,0.13 -0.565,0.196 -0.899,0.196 -0.333,0 -0.635,-0.066 -0.906,-0.196 -0.265,-0.131 -0.477,-0.329 -0.635,-0.595 -0.153,-0.271 -0.23,-0.602 -0.23,-0.994 v -2.974 z m 7.529,1.365 c -0.131,-0.275 -0.32,-0.486 -0.568,-0.635 -0.248,-0.153 -0.536,-0.23 -0.865,-0.23 -0.329,0 -0.626,0.077 -0.892,0.23 -0.262,0.149 -0.469,0.365 -0.622,0.649 -0.149,0.279 -0.223,0.604 -0.223,0.973 0,0.37 0.074,0.694 0.223,0.974 0.153,0.279 0.36,0.495 0.622,0.648 0.266,0.149 0.563,0.223 0.892,0.223 0.46,0 0.838,-0.137 1.136,-0.412 0.297,-0.275 0.47,-0.646 0.52,-1.115 h -1.879 v -0.5 h 2.535 v 0.473 c -0.036,0.387 -0.158,0.743 -0.365,1.068 -0.208,0.32 -0.48,0.574 -0.818,0.764 -0.338,0.184 -0.714,0.277 -1.129,0.277 -0.437,0 -0.836,-0.102 -1.196,-0.304 -0.361,-0.208 -0.647,-0.494 -0.859,-0.859 -0.207,-0.365 -0.311,-0.777 -0.311,-1.237 0,-0.459 0.104,-0.872 0.311,-1.237 0.212,-0.369 0.498,-0.655 0.859,-0.858 0.36,-0.207 0.759,-0.311 1.196,-0.311 0.5,0 0.942,0.124 1.325,0.372 0.387,0.247 0.669,0.597 0.845,1.047 z"
     fill="#000000"
     id="path42" />
  <path
     d="m 223.428,394.78 v 3.481 c 0,0.388 -0.119,0.698 -0.358,0.933 -0.239,0.23 -0.554,0.345 -0.946,0.345 -0.397,0 -0.715,-0.118 -0.953,-0.352 -0.239,-0.239 -0.359,-0.563 -0.359,-0.973 h 0.615 c 0.005,0.23 0.063,0.417 0.176,0.561 0.117,0.144 0.291,0.216 0.521,0.216 0.229,0 0.401,-0.068 0.513,-0.203 0.113,-0.139 0.169,-0.315 0.169,-0.527 v -3.481 z m 1.814,0 v 2.981 c 0,0.419 0.101,0.73 0.304,0.933 0.207,0.202 0.493,0.304 0.858,0.304 0.361,0 0.642,-0.102 0.845,-0.304 0.207,-0.203 0.311,-0.514 0.311,-0.933 v -2.981 h 0.615 v 2.974 c 0,0.392 -0.079,0.723 -0.237,0.994 -0.157,0.266 -0.371,0.464 -0.642,0.595 -0.266,0.13 -0.565,0.196 -0.899,0.196 -0.333,0 -0.635,-0.066 -0.905,-0.196 -0.266,-0.131 -0.478,-0.329 -0.636,-0.595 -0.153,-0.271 -0.23,-0.602 -0.23,-0.994 v -2.974 z m 4.574,4.211 h 1.65 v 0.5 h -2.265 v -4.711 h 0.615 z"
     fill="#000000"
     id="path43" />
  <path
     d="m 192.903,394.977 v 3.481 c 0,0.387 -0.119,0.698 -0.358,0.933 -0.239,0.229 -0.554,0.344 -0.946,0.344 -0.397,0 -0.715,-0.117 -0.953,-0.351 -0.239,-0.239 -0.359,-0.563 -0.359,-0.974 h 0.615 c 0.005,0.23 0.064,0.417 0.176,0.561 0.117,0.145 0.291,0.217 0.521,0.217 0.229,0 0.401,-0.068 0.513,-0.203 0.113,-0.14 0.169,-0.315 0.169,-0.527 v -3.481 z m 1.814,0 v 2.981 c 0,0.419 0.101,0.73 0.304,0.932 0.207,0.203 0.493,0.305 0.858,0.305 0.361,0 0.642,-0.102 0.845,-0.305 0.207,-0.202 0.311,-0.513 0.311,-0.932 v -2.981 h 0.615 v 2.974 c 0,0.392 -0.079,0.723 -0.236,0.993 -0.158,0.266 -0.372,0.465 -0.643,0.595 -0.265,0.131 -0.565,0.196 -0.899,0.196 -0.333,0 -0.635,-0.065 -0.905,-0.196 -0.266,-0.13 -0.478,-0.329 -0.636,-0.595 -0.153,-0.27 -0.23,-0.601 -0.23,-0.993 v -2.974 z m 7.663,4.711 h -0.615 l -2.474,-3.751 v 3.751 h -0.615 v -4.718 h 0.615 l 2.474,3.745 v -3.745 h 0.615 z"
     fill="#000000"
     id="path44" />
  <path
     d="m 163.581,394.814 v 4.677 h -0.616 v -3.488 l -1.554,3.488 h -0.433 l -1.561,-3.494 v 3.494 h -0.615 v -4.677 h 0.662 l 1.731,3.866 1.73,-3.866 z m 3.828,3.63 h -2.055 l -0.379,1.047 h -0.649 l 1.704,-4.684 h 0.709 l 1.697,4.684 h -0.649 z m -0.176,-0.501 -0.852,-2.379 -0.852,2.379 z m 5.244,-3.163 -1.534,2.934 v 1.777 h -0.616 v -1.777 l -1.541,-2.934 h 0.683 l 1.163,2.386 1.162,-2.386 z"
     fill="#000000"
     id="path45" />
  <path
     d="m 130.985,398.444 h -2.055 l -0.378,1.047 h -0.649 l 1.703,-4.684 h 0.71 l 1.696,4.684 h -0.648 z m -0.176,-0.501 -0.851,-2.379 -0.852,2.379 z m 5.096,-1.784 c 0,0.392 -0.136,0.719 -0.406,0.98 -0.266,0.257 -0.674,0.385 -1.223,0.385 h -0.906 v 1.967 h -0.615 v -4.711 h 1.521 c 0.531,0 0.935,0.128 1.21,0.385 0.279,0.257 0.419,0.588 0.419,0.994 z m -1.629,0.858 c 0.342,0 0.594,-0.074 0.757,-0.223 0.162,-0.148 0.243,-0.36 0.243,-0.635 0,-0.581 -0.333,-0.872 -1,-0.872 h -0.906 v 1.73 z m 4.874,2.474 -1.122,-1.926 h -0.744 v 1.926 h -0.615 v -4.711 h 1.521 c 0.356,0 0.656,0.061 0.899,0.182 0.248,0.122 0.433,0.287 0.554,0.494 0.122,0.207 0.183,0.444 0.183,0.71 0,0.324 -0.095,0.61 -0.284,0.858 -0.185,0.248 -0.464,0.412 -0.838,0.493 l 1.183,1.974 z m -1.866,-2.42 h 0.906 c 0.333,0 0.584,-0.081 0.75,-0.243 0.167,-0.167 0.25,-0.388 0.25,-0.662 0,-0.28 -0.083,-0.496 -0.25,-0.649 -0.162,-0.154 -0.412,-0.23 -0.75,-0.23 h -0.906 z"
     fill="#000000"
     id="path46" />
  <rect
     x="187.98801"
     y="278.651"
     width="15.9583"
     height="104.77"
     fill="#560153"
     id="rect46" />
  <rect
     x="218.51801"
     y="302.24298"
     width="15.9583"
     height="81.179398"
     fill="#560153"
     id="rect47" />
  <rect
     x="249.047"
     y="340.75098"
     width="15.9583"
     height="42.6712"
     fill="#560153"
     id="rect48" />
  <rect
     x="249.047"
     y="278.651"
     width="15.9583"
     height="62.098801"
     fill="#560153"
     id="rect49" />
  <rect
     x="157.938"
     y="292.20099"
     width="15.7589"
     height="34.669601"
     fill="#c67dff"
     id="rect50" />
  <rect
     x="370.81601"
     y="326.87402"
     width="15.9583"
     height="56.548"
     fill="#560153"
     id="rect51" />
  <rect
     x="157.939"
     y="326.87402"
     width="15.6114"
     height="56.548"
     fill="#560153"
     id="rect52" />
  <rect
     x="279.57401"
     y="302.24298"
     width="15.9583"
     height="81.179398"
     fill="#560153"
     id="rect53" />
  <rect
     x="309.854"
     y="352.08502"
     width="15.7589"
     height="31.5179"
     fill="#560153"
     id="rect54" />
  <rect
     x="340.633"
     y="302.24298"
     width="15.6114"
     height="81.179398"
     fill="#560153"
     id="rect55" />
  <rect
     x="187.98801"
     y="239.45001"
     width="15.9583"
     height="39.202"
     fill="#560153"
     id="rect56" />
  <rect
     x="127.051"
     y="313.00201"
     width="15.7589"
     height="31.5179"
     fill="#c67dff"
     id="rect57" />
  <rect
     x="127.051"
     y="344.521"
     width="15.7589"
     height="39.0821"
     fill="#560153"
     id="rect58" />
  <rect
     x="309.854"
     y="292.20099"
     width="15.7589"
     height="59.8839"
     fill="#d9ddff"
     id="rect59" />
  <rect
     width="15.7589"
     height="16.389299"
     transform="scale(1,-1)"
     fill="#c67dff"
     id="rect60"
     x="309.854"
     y="-292.20099" />
  <rect
     width="6.3035698"
     height="3.78214"
     transform="scale(1,-1)"
     fill="#c67dff"
     id="rect61"
     x="396.21301"
     y="-198.908" />
  <rect
     width="6.3035698"
     height="3.78214"
     transform="scale(1,-1)"
     fill="#d9ddff"
     id="rect62"
     x="396.21301"
     y="-214.66701" />
  <rect
     width="6.3035698"
     height="3.78214"
     transform="scale(1,-1)"
     fill="#560153"
     id="rect63"
     x="396.21301"
     y="-230.42599" />
  <defs
     id="defs72">
    <clipPath
       id="clip0_670_3982">
      <rect
         width="24"
         height="24"
         fill="#ffffff"
         transform="translate(44,265)"
         id="rect66"
         x="0"
         y="0" />
    </clipPath>
    <clipPath
       id="clip1_670_3982">
      <rect
         width="24"
         height="24"
         fill="#ffffff"
         transform="translate(127,437)"
         id="rect67"
         x="0"
         y="0" />
    </clipPath>
    <clipPath
       id="clip2_670_3982">
      <rect
         width="24"
         height="24"
         fill="#ffffff"
         transform="translate(468,265)"
         id="rect68"
         x="0"
         y="0" />
    </clipPath>
    <clipPath
       id="clip3_670_3982">
      <rect
         width="24"
         height="24"
         fill="#ffffff"
         transform="translate(551,437)"
         id="rect69"
         x="0"
         y="0" />
    </clipPath>
    <clipPath
       id="clip4_670_3982">
      <rect
         width="24"
         height="24"
         fill="#ffffff"
         transform="translate(892,265)"
         id="rect70"
         x="0"
         y="0" />
    </clipPath>
    <clipPath
       id="clip5_670_3982">
      <rect
         width="24"
         height="24"
         fill="#ffffff"
         transform="translate(975,437)"
         id="rect71"
         x="0"
         y="0" />
    </clipPath>
    <clipPath
       id="clip6_670_3982">
      <rect
         x="429.61099"
         y="782.83002"
         width="151.94299"
         height="158.515"
         rx="8.9881001"
         fill="#ffffff"
         id="rect72" />
    </clipPath>
  </defs>
</svg>
