<svg width="768" height="768" fill="none" xmlns="http://www.w3.org/2000/svg"><rect width="768" height="768" rx="32" fill="#ffe999" style="stroke-width:.848943" ry="32"/><g transform="translate(-246 56)"><rect x="278.78" y="229.78" width="197.44" height="242.44" rx="11.22" fill="#fffae8" clip-path="url(#a)" transform="translate(28)"/><rect x="278.78" y="229.78" width="197.44" height="242.44" rx="11.22" stroke="#ffe999" stroke-width="1.56" clip-path="url(#b)" transform="translate(28)"/><path d="M324.718 350.185v8.517c0 1.054-.323 1.887-.969 2.499-.635.612-1.473.918-2.516.918s-1.887-.306-2.533-.918c-.635-.612-.952-1.445-.952-2.499h1.955c.011.521.142.935.391 1.241.261.306.64.459 1.139.459s.878-.153 1.139-.459c.261-.317.391-.731.391-1.241v-8.517zm11.636 2.448V362h-1.938v-1.105a3.21 3.21 0 0 1-1.207.918 3.835 3.835 0 0 1-1.564.323c-.737 0-1.4-.153-1.989-.459a3.38 3.38 0 0 1-1.377-1.36c-.329-.601-.493-1.326-.493-2.176v-5.508h1.921v5.219c0 .839.209 1.485.629 1.938.419.442.991.663 1.717.663.725 0 1.297-.221 1.717-.663.43-.453.646-1.099.646-1.938v-5.219zm7.283-.153c.736 0 1.394.153 1.972.459a3.254 3.254 0 0 1 1.377 1.36c.328.601.493 1.326.493 2.176V362h-1.921v-5.236c0-.839-.21-1.479-.629-1.921-.42-.453-.992-.68-1.717-.68-.726 0-1.304.227-1.734.68-.42.442-.629 1.082-.629 1.921V362h-1.938v-9.367h1.938v1.071a3.214 3.214 0 0 1 1.207-.901 3.947 3.947 0 0 1 1.581-.323zm14.899 4.607a6.1 6.1 0 0 1-.068.952h-7.157c.056.748.334 1.349.833 1.802.498.453 1.11.68 1.836.68 1.042 0 1.779-.436 2.21-1.309h2.091a4.252 4.252 0 0 1-1.547 2.125c-.737.544-1.655.816-2.754.816-.896 0-1.7-.198-2.414-.595a4.447 4.447 0 0 1-1.666-1.7c-.397-.737-.595-1.587-.595-2.55 0-.963.192-1.808.578-2.533a4.176 4.176 0 0 1 1.649-1.7c.714-.397 1.53-.595 2.448-.595.884 0 1.671.193 2.363.578a4.072 4.072 0 0 1 1.615 1.632c.385.691.578 1.49.578 2.397zm-2.023-.612c-.012-.714-.267-1.286-.765-1.717-.499-.431-1.117-.646-1.853-.646-.669 0-1.241.215-1.717.646-.476.419-.76.992-.85 1.717zm6.055 3.196-2.057 4.692h-1.258l1.207-4.692zm7.945-4.148c-1.178-.589-1.768-1.519-1.768-2.788 0-.612.153-1.173.459-1.683.306-.51.765-.912 1.377-1.207.612-.306 1.36-.459 2.244-.459.873 0 1.615.153 2.227.459.624.295 1.088.697 1.394 1.207a3.21 3.21 0 0 1 .459 1.683c0 .635-.164 1.196-.493 1.683a3.179 3.179 0 0 1-1.275 1.105 3.11 3.11 0 0 1 1.53 1.173c.374.533.561 1.162.561 1.887 0 .737-.187 1.388-.561 1.955-.374.567-.895 1.003-1.564 1.309-.668.306-1.428.459-2.278.459-.85 0-1.609-.153-2.278-.459a3.654 3.654 0 0 1-1.547-1.309c-.374-.567-.561-1.218-.561-1.955 0-.737.187-1.371.561-1.904a3.154 3.154 0 0 1 1.513-1.156zm4.539-2.55c0-.635-.198-1.122-.595-1.462-.396-.34-.94-.51-1.632-.51-.68 0-1.218.17-1.615.51-.396.34-.595.833-.595 1.479 0 .567.204 1.031.612 1.394.42.351.952.527 1.598.527.646 0 1.179-.181 1.598-.544.42-.363.629-.827.629-1.394zm-2.227 3.4c-.748 0-1.36.187-1.836.561-.464.363-.697.89-.697 1.581 0 .646.227 1.173.68 1.581.454.397 1.071.595 1.853.595.771 0 1.377-.204 1.819-.612.454-.408.68-.929.68-1.564 0-.68-.232-1.207-.697-1.581-.453-.374-1.054-.561-1.802-.561zm8.954-2.159v5.185c0 .351.079.606.238.765.17.147.453.221.85.221h1.19V362h-1.53c-.873 0-1.541-.204-2.006-.612-.465-.408-.697-1.071-.697-1.989v-5.185h-1.105v-1.581h1.105v-2.329h1.955v2.329h2.278v1.581zm8.909-1.734c.714 0 1.349.153 1.904.459a3.196 3.196 0 0 1 1.326 1.36c.329.601.493 1.326.493 2.176V362h-1.921v-5.236c0-.839-.209-1.479-.629-1.921-.419-.453-.991-.68-1.717-.68-.725 0-1.303.227-1.734.68-.419.442-.629 1.082-.629 1.921V362h-1.938v-12.58h1.938v4.301a3.264 3.264 0 0 1 1.241-.918 4.248 4.248 0 0 1 1.666-.323zm10.101-1.105v-1.768h3.536V362h-1.955v-10.625zm8.613 7.259c.113.567.357.997.731 1.292.374.295.878.442 1.513.442.804 0 1.394-.317 1.768-.952.374-.635.561-1.717.561-3.247-.272.385-.658.686-1.156.901a4.1 4.1 0 0 1-1.598.306c-.737 0-1.406-.147-2.006-.442a3.465 3.465 0 0 1-1.428-1.343c-.34-.601-.51-1.326-.51-2.176 0-1.247.362-2.238 1.088-2.975.736-.748 1.745-1.122 3.026-1.122 1.541 0 2.635.516 3.281 1.547.657 1.02.986 2.59.986 4.709 0 1.462-.125 2.658-.374 3.587-.238.929-.658 1.632-1.258 2.108-.601.476-1.434.714-2.499.714-1.213 0-2.148-.317-2.805-.952-.658-.635-1.026-1.434-1.105-2.397zm2.159-2.89c.68 0 1.212-.21 1.598-.629.396-.431.595-.997.595-1.7 0-.782-.21-1.388-.629-1.819-.408-.442-.969-.663-1.683-.663-.714 0-1.281.227-1.7.68-.408.442-.612 1.026-.612 1.751 0 .691.198 1.264.595 1.717.408.442 1.02.663 1.836.663zm8.309-.221c-1.179-.589-1.768-1.519-1.768-2.788 0-.612.153-1.173.459-1.683.306-.51.765-.912 1.377-1.207.612-.306 1.36-.459 2.244-.459.872 0 1.615.153 2.227.459.623.295 1.088.697 1.394 1.207a3.21 3.21 0 0 1 .459 1.683c0 .635-.165 1.196-.493 1.683a3.192 3.192 0 0 1-1.275 1.105 3.11 3.11 0 0 1 1.53 1.173c.374.533.561 1.162.561 1.887 0 .737-.187 1.388-.561 1.955-.374.567-.896 1.003-1.564 1.309-.669.306-1.428.459-2.278.459-.85 0-1.61-.153-2.278-.459a3.648 3.648 0 0 1-1.547-1.309c-.374-.567-.561-1.218-.561-1.955 0-.737.187-1.371.561-1.904a3.15 3.15 0 0 1 1.513-1.156zm4.539-2.55c0-.635-.199-1.122-.595-1.462-.397-.34-.941-.51-1.632-.51-.68 0-1.219.17-1.615.51-.397.34-.595.833-.595 1.479 0 .567.204 1.031.612 1.394.419.351.952.527 1.598.527.646 0 1.178-.181 1.598-.544a1.76 1.76 0 0 0 .629-1.394zm-2.227 3.4c-.748 0-1.36.187-1.836.561-.465.363-.697.89-.697 1.581 0 .646.226 1.173.68 1.581.453.397 1.071.595 1.853.595.77 0 1.377-.204 1.819-.612.453-.408.68-.929.68-1.564 0-.68-.233-1.207-.697-1.581-.454-.374-1.054-.561-1.802-.561zm8.529-.85c-1.179-.589-1.768-1.519-1.768-2.788 0-.612.153-1.173.459-1.683.306-.51.765-.912 1.377-1.207.612-.306 1.36-.459 2.244-.459.872 0 1.615.153 2.227.459.623.295 1.088.697 1.394 1.207a3.21 3.21 0 0 1 .459 1.683c0 .635-.165 1.196-.493 1.683a3.192 3.192 0 0 1-1.275 1.105 3.11 3.11 0 0 1 1.53 1.173c.374.533.561 1.162.561 1.887 0 .737-.187 1.388-.561 1.955-.374.567-.896 1.003-1.564 1.309-.669.306-1.428.459-2.278.459-.85 0-1.61-.153-2.278-.459a3.648 3.648 0 0 1-1.547-1.309c-.374-.567-.561-1.218-.561-1.955 0-.737.187-1.371.561-1.904a3.15 3.15 0 0 1 1.513-1.156zm4.539-2.55c0-.635-.199-1.122-.595-1.462-.397-.34-.941-.51-1.632-.51-.68 0-1.219.17-1.615.51-.397.34-.595.833-.595 1.479 0 .567.204 1.031.612 1.394.419.351.952.527 1.598.527.646 0 1.178-.181 1.598-.544a1.76 1.76 0 0 0 .629-1.394zm-2.227 3.4c-.748 0-1.36.187-1.836.561-.465.363-.697.89-.697 1.581 0 .646.226 1.173.68 1.581.453.397 1.071.595 1.853.595.77 0 1.377-.204 1.819-.612.453-.408.68-.929.68-1.564 0-.68-.233-1.207-.697-1.581-.454-.374-1.054-.561-1.802-.561z" fill="#000" clip-path="url(#c)" transform="translate(28)"/><rect x="352" y="249" width="52" height="52" rx="26" fill="#ffe999" clip-path="url(#d)" transform="translate(28)"/><g clip-path="url(#e)" transform="translate(28)"><path d="M370 273h16v5l-4-2-4 2-4-2-4 2z" fill="#c67dff"/><path d="M369 283h18v-8c0-.796-.316-1.559-.879-2.121A2.996 2.996 0 0 0 384 272h-12c-.796 0-1.559.316-2.121.879A2.996 2.996 0 0 0 369 275Z" stroke="#000" stroke-width="2" stroke-linecap="round" stroke-linejoin="round"/><path d="M369 277.804a2.4 2.4 0 0 0 1 .197 2.41 2.41 0 0 0 2-1 2.396 2.396 0 0 1 2-1 2.396 2.396 0 0 1 2 1 2.41 2.41 0 0 0 2 1 2.41 2.41 0 0 0 2-1 2.396 2.396 0 0 1 2-1 2.396 2.396 0 0 1 2 1 2.41 2.41 0 0 0 2 1c.35.007.692-.062 1-.197M377.999 267l1.465 1.638a1.997 1.997 0 0 1-.327 3.008 1.997 1.997 0 0 1-2.164.071 2 2 0 0 1-.524-2.98z" stroke="#000" stroke-width="2" stroke-linecap="round" stroke-linejoin="round"/></g><rect x="348" y="326" width="60" height="10" rx="5" fill="#ffb858" clip-path="url(#f)" transform="translate(28)"/><rect x="298" y="391" width="159" height="14" rx="7" fill="#ffe999" clip-path="url(#g)" transform="translate(28)"/><rect x="298" y="415" width="159" height="14" rx="7" fill="#ffe999" clip-path="url(#h)" transform="translate(28)"/><rect x="340" y="439" width="75" height="14" rx="7" fill="#ffe999" clip-path="url(#i)" transform="translate(28)"/><g clip-path="url(#j)"><rect x="445" y="106" width="334" height="458" rx="20" fill="#fff"/><g clip-path="url(#k)"><rect x="477" y="256" width="49" height="12" rx="6" fill="#f2f2f2"/><rect x="477" y="316" width="60" height="12" rx="6" fill="#f2f2f2"/><rect x="668" y="256" width="38" height="12" rx="6" fill="#f2f2f2"/><path d="M479.016 278.524v2.796h3.048v.9h-3.048v2.88h3.408v.9h-4.5v-8.376h4.5v.9zm12.728.78c.512 0 .968.108 1.368.324.4.208.716.524.948.948.232.424.348.94.348 1.548V286h-1.08v-3.72c0-.656-.164-1.156-.492-1.5-.32-.352-.756-.528-1.308-.528-.568 0-1.02.184-1.356.552-.336.36-.504.884-.504 1.572V286h-1.08v-3.72c0-.656-.164-1.156-.492-1.5-.32-.352-.756-.528-1.308-.528-.568 0-1.02.184-1.356.552-.336.36-.504.884-.504 1.572V286h-1.092v-6.576h1.092v.948c.216-.344.504-.608.864-.792a2.672 2.672 0 0 1 1.212-.276c.552 0 1.04.124 1.464.372.424.248.74.612.948 1.092.184-.464.488-.824.912-1.08a2.687 2.687 0 0 1 1.416-.384zm4.78-.948a.718.718 0 0 1-.528-.216.718.718 0 0 1-.216-.528c0-.208.072-.384.216-.528a.718.718 0 0 1 .528-.216c.2 0 .368.072.504.216.144.144.216.32.216.528a.718.718 0 0 1-.216.528.666.666 0 0 1-.504.216zm.528 1.068V286h-1.092v-6.576zm2.713-2.304V286h-1.092v-8.88zm7.285 2.304-3.96 9.672h-1.128l1.296-3.168-2.652-6.504h1.212l2.064 5.328 2.04-5.328zm12.301-1.728V286h-1.092v-6.192l-2.76 6.192h-.768l-2.772-6.204V286h-1.092v-8.304h1.176l3.072 6.864 3.072-6.864zm1.204 4.992c0-.672.136-1.26.408-1.764a2.964 2.964 0 0 1 1.116-1.188 3.11 3.11 0 0 1 1.596-.42c.576 0 1.076.124 1.5.372.424.248.74.56.948.936v-1.2h1.104V286h-1.104v-1.224c-.216.384-.54.704-.972.96-.424.248-.92.372-1.488.372a2.98 2.98 0 0 1-1.584-.432 3.03 3.03 0 0 1-1.116-1.212c-.272-.52-.408-1.112-.408-1.776zm5.568.012c0-.496-.1-.928-.3-1.296a2.065 2.065 0 0 0-.816-.84 2.14 2.14 0 0 0-1.116-.3c-.408 0-.78.096-1.116.288a2.09 2.09 0 0 0-.804.84c-.2.368-.3.8-.3 1.296 0 .504.1.944.3 1.32.2.368.468.652.804.852a2.21 2.21 0 0 0 1.116.288c.408 0 .78-.096 1.116-.288.344-.2.616-.484.816-.852.2-.376.3-.812.3-1.308zm4.041-2.376v3.876c0 .32.068.548.204.684.136.128.372.192.708.192h.804V286h-.984c-.608 0-1.064-.14-1.368-.42-.304-.28-.456-.74-.456-1.38v-3.876h-.852v-.9h.852v-1.656h1.092v1.656h1.716v.9zm4.131 0v3.876c0 .32.068.548.204.684.136.128.372.192.708.192h.804V286h-.984c-.608 0-1.064-.14-1.368-.42-.304-.28-.456-.74-.456-1.38v-3.876h-.852v-.9h.852v-1.656h1.092v1.656h1.716v.9zm6.063-1.02c.496 0 .944.108 1.344.324.4.208.712.524.936.948.232.424.348.94.348 1.548V286h-1.08v-3.72c0-.656-.164-1.156-.492-1.5-.328-.352-.776-.528-1.344-.528-.576 0-1.036.18-1.38.54-.336.36-.504.884-.504 1.572V286h-1.092v-8.88h1.092v3.24a2.16 2.16 0 0 1 .888-.78 2.933 2.933 0 0 1 1.284-.276zm10.172 3.156c0 .208-.012.428-.036.66h-5.256c.04.648.26 1.156.66 1.524.408.36.9.54 1.476.54.472 0 .864-.108 1.176-.324.32-.224.544-.52.672-.888h1.176a2.856 2.856 0 0 1-1.056 1.548c-.528.392-1.184.588-1.968.588-.624 0-1.184-.14-1.68-.42a2.995 2.995 0 0 1-1.152-1.188c-.28-.52-.42-1.12-.42-1.8 0-.68.136-1.276.408-1.788a2.836 2.836 0 0 1 1.14-1.176c.496-.28 1.064-.42 1.704-.42.624 0 1.176.136 1.656.408.48.272.848.648 1.104 1.128.264.472.396 1.008.396 1.608zm-1.128-.228c0-.416-.092-.772-.276-1.068a1.737 1.737 0 0 0-.756-.684c-.312-.16-.66-.24-1.044-.24-.552 0-1.024.176-1.416.528-.384.352-.604.84-.66 1.464zm11.09-2.808L558.44 286h-1.128l-1.584-5.22-1.584 5.22h-1.128l-2.064-6.576h1.116l1.512 5.52 1.632-5.52h1.116l1.596 5.532 1.488-5.532zm3.171 6.684c-.504 0-.956-.084-1.356-.252a2.356 2.356 0 0 1-.948-.72 1.946 1.946 0 0 1-.384-1.068h1.128c.032.328.184.596.456.804.28.208.644.312 1.092.312.416 0 .744-.092.984-.276.24-.184.36-.416.36-.696 0-.288-.128-.5-.384-.636-.256-.144-.652-.284-1.188-.42a9.777 9.777 0 0 1-1.2-.384 2.279 2.279 0 0 1-.792-.588c-.216-.264-.324-.608-.324-1.032 0-.336.1-.644.3-.924.2-.28.484-.5.852-.66a3.003 3.003 0 0 1 1.26-.252c.728 0 1.316.184 1.764.552.448.368.688.872.72 1.512h-1.092a1.12 1.12 0 0 0-.42-.828c-.248-.208-.584-.312-1.008-.312-.392 0-.704.084-.936.252a.779.779 0 0 0-.348.66c0 .216.068.396.204.54.144.136.32.248.528.336.216.08.512.172.888.276.472.128.856.256 1.152.384.296.12.548.304.756.552.216.248.328.572.336.972 0 .36-.1.684-.3.972-.2.288-.484.516-.852.684-.36.16-.776.24-1.248.24zm-79.739 56.352c0 .208-.012.428-.036.66h-5.256c.04.648.26 1.156.66 1.524.408.36.9.54 1.476.54.472 0 .864-.108 1.176-.324.32-.224.544-.52.672-.888h1.176a2.856 2.856 0 0 1-1.056 1.548c-.528.392-1.184.588-1.968.588-.624 0-1.184-.14-1.68-.42a2.995 2.995 0 0 1-1.152-1.188c-.28-.52-.42-1.12-.42-1.8 0-.68.136-1.276.408-1.788a2.836 2.836 0 0 1 1.14-1.176c.496-.28 1.064-.42 1.704-.42.624 0 1.176.136 1.656.408.48.272.848.648 1.104 1.128.264.472.396 1.008.396 1.608zm-1.128-.228c0-.416-.092-.772-.276-1.068a1.737 1.737 0 0 0-.756-.684c-.312-.16-.66-.24-1.044-.24-.552 0-1.024.176-1.416.528-.384.352-.604.84-.66 1.464zm10.237-2.928c.512 0 .968.108 1.368.324.4.208.716.524.948.948.232.424.348.94.348 1.548V346h-1.08v-3.72c0-.656-.164-1.156-.492-1.5-.32-.352-.756-.528-1.308-.528-.568 0-1.02.184-1.356.552-.336.36-.504.884-.504 1.572V346h-1.08v-3.72c0-.656-.164-1.156-.492-1.5-.32-.352-.756-.528-1.308-.528-.568 0-1.02.184-1.356.552-.336.36-.504.884-.504 1.572V346h-1.092v-6.576h1.092v.948c.216-.344.504-.608.864-.792a2.672 2.672 0 0 1 1.212-.276c.552 0 1.04.124 1.464.372.424.248.74.612.948 1.092.184-.464.488-.824.912-1.08a2.687 2.687 0 0 1 1.416-.384zm4.78-.948a.718.718 0 0 1-.528-.216.718.718 0 0 1-.216-.528c0-.208.072-.384.216-.528a.718.718 0 0 1 .528-.216c.2 0 .368.072.504.216.144.144.216.32.216.528a.718.718 0 0 1-.216.528.666.666 0 0 1-.504.216zm.528 1.068V346h-1.092v-6.576zm2.713-2.304V346h-1.092v-8.88zm7.285 2.304-3.96 9.672h-1.128l1.296-3.168-2.652-6.504h1.212l2.064 5.328 2.04-5.328zm1.206 6.648a.718.718 0 0 1-.528-.216.718.718 0 0 1-.216-.528c0-.208.072-.384.216-.528a.718.718 0 0 1 .528-.216c.2 0 .368.072.504.216.144.144.216.32.216.528a.718.718 0 0 1-.216.528.666.666 0 0 1-.504.216zm9.839-6.768c.512 0 .968.108 1.368.324.4.208.716.524.948.948.232.424.348.94.348 1.548V346h-1.08v-3.72c0-.656-.164-1.156-.492-1.5-.32-.352-.756-.528-1.308-.528-.568 0-1.02.184-1.356.552-.336.36-.504.884-.504 1.572V346h-1.08v-3.72c0-.656-.164-1.156-.492-1.5-.32-.352-.756-.528-1.308-.528-.568 0-1.02.184-1.356.552-.336.36-.504.884-.504 1.572V346h-1.092v-6.576h1.092v.948c.216-.344.504-.608.864-.792a2.672 2.672 0 0 1 1.212-.276c.552 0 1.04.124 1.464.372.424.248.74.612.948 1.092.184-.464.488-.824.912-1.08a2.687 2.687 0 0 1 1.416-.384zm3.807 3.384c0-.672.136-1.26.408-1.764a2.964 2.964 0 0 1 1.116-1.188 3.11 3.11 0 0 1 1.596-.42c.576 0 1.076.124 1.5.372.424.248.74.56.948.936v-1.2h1.104V346h-1.104v-1.224c-.216.384-.54.704-.972.96-.424.248-.92.372-1.488.372a2.98 2.98 0 0 1-1.584-.432 3.03 3.03 0 0 1-1.116-1.212c-.272-.52-.408-1.112-.408-1.776zm5.568.012c0-.496-.1-.928-.3-1.296a2.065 2.065 0 0 0-.816-.84 2.14 2.14 0 0 0-1.116-.3c-.408 0-.78.096-1.116.288a2.09 2.09 0 0 0-.804.84c-.2.368-.3.8-.3 1.296 0 .504.1.944.3 1.32.2.368.468.652.804.852a2.21 2.21 0 0 0 1.116.288c.408 0 .78-.096 1.116-.288.344-.2.616-.484.816-.852.2-.376.3-.812.3-1.308zm4.042-2.376v3.876c0 .32.068.548.204.684.136.128.372.192.708.192h.804V346h-.984c-.608 0-1.064-.14-1.368-.42-.304-.28-.456-.74-.456-1.38v-3.876h-.852v-.9h.852v-1.656h1.092v1.656h1.716v.9zm4.131 0v3.876c0 .32.068.548.204.684.136.128.372.192.708.192h.804V346h-.984c-.608 0-1.064-.14-1.368-.42-.304-.28-.456-.74-.456-1.38v-3.876h-.852v-.9h.852v-1.656h1.092v1.656h1.716v.9zm6.063-1.02c.496 0 .944.108 1.344.324.4.208.712.524.936.948.232.424.348.94.348 1.548V346h-1.08v-3.72c0-.656-.164-1.156-.492-1.5-.328-.352-.776-.528-1.344-.528-.576 0-1.036.18-1.38.54-.336.36-.504.884-.504 1.572V346h-1.092v-8.88h1.092v3.24a2.16 2.16 0 0 1 .888-.78 2.933 2.933 0 0 1 1.284-.276zm10.172 3.156c0 .208-.012.428-.036.66h-5.256c.04.648.26 1.156.66 1.524.408.36.9.54 1.476.54.472 0 .864-.108 1.176-.324.32-.224.544-.52.672-.888h1.176a2.856 2.856 0 0 1-1.056 1.548c-.528.392-1.184.588-1.968.588-.624 0-1.184-.14-1.68-.42a2.995 2.995 0 0 1-1.152-1.188c-.28-.52-.42-1.12-.42-1.8 0-.68.136-1.276.408-1.788a2.836 2.836 0 0 1 1.14-1.176c.496-.28 1.064-.42 1.704-.42.624 0 1.176.136 1.656.408.48.272.848.648 1.104 1.128.264.472.396 1.008.396 1.608zm-1.128-.228c0-.416-.092-.772-.276-1.068a1.737 1.737 0 0 0-.756-.684c-.312-.16-.66-.24-1.044-.24-.552 0-1.024.176-1.416.528-.384.352-.604.84-.66 1.464zm11.089-2.808L561.076 346h-1.128l-1.584-5.22-1.584 5.22h-1.128l-2.064-6.576h1.116l1.512 5.52 1.632-5.52h1.116l1.596 5.532 1.488-5.532zm3.172 6.684c-.504 0-.956-.084-1.356-.252a2.356 2.356 0 0 1-.948-.72 1.946 1.946 0 0 1-.384-1.068h1.128c.032.328.184.596.456.804.28.208.644.312 1.092.312.416 0 .744-.092.984-.276.24-.184.36-.416.36-.696 0-.288-.128-.5-.384-.636-.256-.144-.652-.284-1.188-.42a9.777 9.777 0 0 1-1.2-.384 2.279 2.279 0 0 1-.792-.588c-.216-.264-.324-.608-.324-1.032 0-.336.1-.644.3-.924.2-.28.484-.5.852-.66a3.003 3.003 0 0 1 1.26-.252c.728 0 1.316.184 1.764.552.448.368.688.872.72 1.512h-1.092a1.12 1.12 0 0 0-.42-.828c-.248-.208-.584-.312-1.008-.312-.392 0-.704.084-.936.252a.779.779 0 0 0-.348.66c0 .216.068.396.204.54.144.136.32.248.528.336.216.08.512.172.888.276.472.128.856.256 1.152.384.296.12.548.304.756.552.216.248.328.572.336.972 0 .36-.1.684-.3.972-.2.288-.484.516-.852.684-.36.16-.776.24-1.248.24zm9.701-7.8c.888 0 1.66.168 2.316.504a3.59 3.59 0 0 1 1.512 1.416c.352.6.529 1.296.529 2.088 0 .632-.105 1.24-.313 1.824-.207.576-.511 1.044-.911 1.404-.393.36-.853.54-1.381.54-.4 0-.708-.1-.924-.3-.216-.2-.34-.472-.372-.816a2.673 2.673 0 0 1-.948.816c-.376.2-.776.3-1.2.3-.608 0-1.088-.184-1.44-.552-.344-.376-.516-.88-.516-1.512 0-.6.124-1.16.372-1.68.256-.52.608-.936 1.056-1.248.448-.32.956-.48 1.525-.48.759 0 1.271.288 1.535.864l.133-.744h.947l-.6 3.468a2.708 2.708 0 0 0-.036.42c0 .48.212.72.636.72.32 0 .596-.152.829-.456.239-.304.419-.684.539-1.14.12-.464.181-.92.181-1.368 0-1.048-.316-1.86-.948-2.436-.624-.576-1.509-.864-2.653-.864-.952 0-1.812.232-2.58.696a4.826 4.826 0 0 0-1.788 1.884c-.432.8-.648 1.684-.648 2.652-.008 1.056.308 1.868.948 2.436.64.576 1.528.864 2.664.864.752 0 1.416-.136 1.992-.408l.144.744c-.712.296-1.496.444-2.352.444-.856 0-1.612-.164-2.268-.492a3.536 3.536 0 0 1-1.512-1.392c-.352-.6-.528-1.3-.528-2.1 0-1.128.26-2.156.78-3.084a5.728 5.728 0 0 1 2.16-2.208c.928-.536 1.968-.804 3.12-.804zm-1.368 6.924c.36 0 .692-.104.996-.312.304-.216.544-.504.72-.864.176-.368.264-.768.264-1.2 0-.416-.116-.752-.348-1.008-.224-.264-.544-.396-.959-.396-.385 0-.725.116-1.021.348a2.208 2.208 0 0 0-.672.9 2.86 2.86 0 0 0-.24 1.152c0 .424.108.76.324 1.008.216.248.528.372.936.372zm13.281-2.772c0 .208-.012.428-.036.66h-5.256c.04.648.26 1.156.66 1.524.408.36.9.54 1.476.54.472 0 .864-.108 1.176-.324.32-.224.544-.52.672-.888h1.176a2.856 2.856 0 0 1-1.056 1.548c-.528.392-1.184.588-1.968.588-.624 0-1.184-.14-1.68-.42a2.995 2.995 0 0 1-1.152-1.188c-.28-.52-.42-1.12-.42-1.8 0-.68.136-1.276.408-1.788a2.836 2.836 0 0 1 1.14-1.176c.496-.28 1.064-.42 1.704-.42.624 0 1.176.136 1.656.408.48.272.848.648 1.104 1.128.264.472.396 1.008.396 1.608zm-1.128-.228c0-.416-.092-.772-.276-1.068a1.737 1.737 0 0 0-.756-.684c-.312-.16-.66-.24-1.044-.24-.552 0-1.024.176-1.416.528-.384.352-.604.84-.66 1.464zm5.761 3.768-1.56-2.448-1.5 2.448h-1.14l2.124-3.264-2.124-3.312h1.236l1.56 2.436 1.488-2.436h1.14l-2.112 3.252 2.124 3.324zm1.662-3.312c0-.672.136-1.26.408-1.764a2.964 2.964 0 0 1 1.116-1.188 3.11 3.11 0 0 1 1.596-.42c.576 0 1.076.124 1.5.372.424.248.74.56.948.936v-1.2h1.104V346h-1.104v-1.224c-.216.384-.54.704-.972.96-.424.248-.92.372-1.488.372a2.98 2.98 0 0 1-1.584-.432 3.03 3.03 0 0 1-1.116-1.212c-.272-.52-.408-1.112-.408-1.776zm5.568.012c0-.496-.1-.928-.3-1.296a2.065 2.065 0 0 0-.816-.84 2.14 2.14 0 0 0-1.116-.3c-.408 0-.78.096-1.116.288a2.09 2.09 0 0 0-.804.84c-.2.368-.3.8-.3 1.296 0 .504.1.944.3 1.32.2.368.468.652.804.852a2.21 2.21 0 0 0 1.116.288c.408 0 .78-.096 1.116-.288.344-.2.616-.484.816-.852.2-.376.3-.812.3-1.308zm10.618-3.396c.512 0 .968.108 1.368.324.4.208.716.524.948.948.232.424.348.94.348 1.548V346h-1.08v-3.72c0-.656-.164-1.156-.492-1.5-.32-.352-.756-.528-1.308-.528-.568 0-1.02.184-1.356.552-.336.36-.504.884-.504 1.572V346h-1.08v-3.72c0-.656-.164-1.156-.492-1.5-.32-.352-.756-.528-1.308-.528-.568 0-1.02.184-1.356.552-.336.36-.504.884-.504 1.572V346h-1.092v-6.576h1.092v.948c.216-.344.504-.608.864-.792a2.672 2.672 0 0 1 1.212-.276c.552 0 1.04.124 1.464.372.424.248.74.612.948 1.092.184-.464.488-.824.912-1.08a2.687 2.687 0 0 1 1.416-.384zm5.307 1.332c.216-.376.536-.688.96-.936.432-.256.932-.384 1.5-.384.584 0 1.112.14 1.584.42.48.28.856.676 1.128 1.188.272.504.408 1.092.408 1.764 0 .664-.136 1.256-.408 1.776a3.002 3.002 0 0 1-2.712 1.644c-.56 0-1.056-.124-1.488-.372a2.764 2.764 0 0 1-.972-.948v4.332h-1.092v-9.696h1.092zm4.464 2.052c0-.496-.1-.928-.3-1.296a2.065 2.065 0 0 0-.816-.84 2.21 2.21 0 0 0-1.116-.288c-.4 0-.772.1-1.116.3a2.151 2.151 0 0 0-.816.852c-.2.368-.3.796-.3 1.284 0 .496.1.932.3 1.308.208.368.48.652.816.852.344.192.716.288 1.116.288.408 0 .78-.096 1.116-.288.344-.2.616-.484.816-.852.2-.376.3-.816.3-1.32zm3.405-5.568V346h-1.092v-8.88zm7.622 5.34c0 .208-.012.428-.036.66h-5.256c.04.648.26 1.156.66 1.524.408.36.9.54 1.476.54.472 0 .864-.108 1.176-.324.32-.224.544-.52.672-.888h1.176a2.856 2.856 0 0 1-1.056 1.548c-.528.392-1.184.588-1.968.588-.624 0-1.184-.14-1.68-.42a2.995 2.995 0 0 1-1.152-1.188c-.28-.52-.42-1.12-.42-1.8 0-.68.136-1.276.408-1.788a2.836 2.836 0 0 1 1.14-1.176c.496-.28 1.064-.42 1.704-.42.624 0 1.176.136 1.656.408.48.272.848.648 1.104 1.128.264.472.396 1.008.396 1.608zm-1.128-.228c0-.416-.092-.772-.276-1.068a1.737 1.737 0 0 0-.756-.684c-.312-.16-.66-.24-1.044-.24-.552 0-1.024.176-1.416.528-.384.352-.604.84-.66 1.464zm2.677 3.84a.718.718 0 0 1-.528-.216.718.718 0 0 1-.216-.528c0-.208.072-.384.216-.528a.718.718 0 0 1 .528-.216c.2 0 .368.072.504.216.144.144.216.32.216.528a.718.718 0 0 1-.216.528.666.666 0 0 1-.504.216zm1.524-3.372c0-.68.136-1.272.408-1.776a2.938 2.938 0 0 1 1.128-1.188c.488-.28 1.044-.42 1.668-.42.808 0 1.472.196 1.992.588.528.392.876.936 1.044 1.632h-1.176a1.679 1.679 0 0 0-.66-.948c-.32-.232-.72-.348-1.2-.348-.624 0-1.128.216-1.512.648-.384.424-.576 1.028-.576 1.812 0 .792.192 1.404.576 1.836.384.432.888.648 1.512.648.48 0 .88-.112 1.2-.336.32-.224.54-.544.66-.96h1.176a2.921 2.921 0 0 1-1.056 1.62c-.528.4-1.188.6-1.98.6-.624 0-1.18-.14-1.668-.42a2.938 2.938 0 0 1-1.128-1.188c-.272-.512-.408-1.112-.408-1.8zm10.325 3.408a3.4 3.4 0 0 1-1.68-.42 3.053 3.053 0 0 1-1.176-1.188c-.28-.52-.42-1.12-.42-1.8 0-.672.144-1.264.432-1.776.296-.52.696-.916 1.2-1.188a3.424 3.424 0 0 1 1.692-.42c.624 0 1.188.14 1.692.42.504.272.9.664 1.188 1.176.296.512.444 1.108.444 1.788 0 .68-.152 1.28-.456 1.8a3.09 3.09 0 0 1-1.212 1.188c-.512.28-1.08.42-1.704.42zm0-.96c.392 0 .76-.092 1.104-.276.344-.184.62-.46.828-.828.216-.368.324-.816.324-1.344 0-.528-.104-.976-.312-1.344a2.003 2.003 0 0 0-.816-.816 2.237 2.237 0 0 0-1.092-.276c-.4 0-.768.092-1.104.276a1.951 1.951 0 0 0-.792.816c-.2.368-.3.816-.3 1.344 0 .536.096.988.288 1.356.2.368.464.644.792.828.328.176.688.264 1.08.264zm12.475-5.844c.512 0 .968.108 1.368.324.4.208.716.524.948.948.232.424.348.94.348 1.548V346h-1.08v-3.72c0-.656-.164-1.156-.492-1.5-.32-.352-.756-.528-1.308-.528-.568 0-1.02.184-1.356.552-.336.36-.504.884-.504 1.572V346h-1.08v-3.72c0-.656-.164-1.156-.492-1.5-.32-.352-.756-.528-1.308-.528-.568 0-1.02.184-1.356.552-.336.36-.504.884-.504 1.572V346h-1.092v-6.576h1.092v.948c.216-.344.504-.608.864-.792a2.672 2.672 0 0 1 1.212-.276c.552 0 1.04.124 1.464.372.424.248.74.612.948 1.092.184-.464.488-.824.912-1.08a2.687 2.687 0 0 1 1.416-.384zm13.082-55.632c.08.456.264.808.552 1.056.296.248.692.372 1.188.372.664 0 1.152-.26 1.464-.78.32-.52.472-1.396.456-2.628-.168.36-.448.644-.84.852-.392.2-.828.3-1.308.3a3.127 3.127 0 0 1-1.44-.324 2.447 2.447 0 0 1-.984-.972c-.24-.424-.36-.936-.36-1.536 0-.856.248-1.544.744-2.064.496-.528 1.2-.792 2.112-.792 1.12 0 1.904.364 2.352 1.092.456.728.684 1.812.684 3.252 0 1.008-.092 1.84-.276 2.496-.176.656-.48 1.156-.912 1.5-.424.344-1.008.516-1.752.516-.816 0-1.452-.22-1.908-.66-.456-.44-.716-1-.78-1.68zm1.692-1.752c.536 0 .976-.164 1.32-.492.344-.336.516-.788.516-1.356 0-.6-.168-1.084-.504-1.452-.336-.368-.808-.552-1.416-.552-.56 0-1.008.176-1.344.528-.328.352-.492.816-.492 1.392 0 .584.164 1.052.492 1.404.328.352.804.528 1.428.528zm3.935-3.6v-.996h2.256V286h-1.104v-7.68zm9.231-.144L681.67 286h-1.104l3.384-7.716h-4.632v-.936h5.688zm3.642.144v-.996h2.256V286H689.8v-7.68zm3.76 6.804a56.82 56.82 0 0 0 2.388-2.004 9.777 9.777 0 0 0 1.452-1.644c.4-.576.6-1.14.6-1.692 0-.52-.128-.928-.384-1.224-.248-.304-.652-.456-1.212-.456-.544 0-.968.172-1.272.516-.296.336-.456.788-.48 1.356h-1.056c.032-.896.304-1.588.816-2.076s1.172-.732 1.98-.732c.824 0 1.476.228 1.956.684.488.456.732 1.084.732 1.884 0 .664-.2 1.312-.6 1.944a8.564 8.564 0 0 1-1.344 1.656 35.235 35.235 0 0 1-1.932 1.656h4.128v.912h-5.772zm6.77-5.616c.056-.736.34-1.312.852-1.728.512-.416 1.176-.624 1.992-.624.544 0 1.012.1 1.404.3.4.192.7.456.9.792.208.336.312.716.312 1.14 0 .496-.144.924-.432 1.284-.28.36-.648.592-1.104.696v.06c.52.128.932.38 1.236.756.304.376.456.868.456 1.476 0 .456-.104.868-.312 1.236-.208.36-.52.644-.936.852-.416.208-.916.312-1.5.312-.848 0-1.544-.22-2.088-.66-.544-.448-.848-1.08-.912-1.896h1.056c.056.48.252.872.588 1.176.336.304.784.456 1.344.456s.984-.144 1.272-.432c.296-.296.444-.676.444-1.14 0-.6-.2-1.032-.6-1.296-.4-.264-1.004-.396-1.812-.396h-.276v-.912h.288c.736-.008 1.292-.128 1.668-.36.376-.24.564-.608.564-1.104 0-.424-.14-.764-.42-1.02-.272-.256-.664-.384-1.176-.384-.496 0-.896.128-1.2.384-.304.256-.484.6-.54 1.032zm9.546 4.56v-.828l4.212-5.832h1.308v5.712h1.2v.948h-1.2V286h-1.08v-1.932zm4.488-5.52-3.228 4.572h3.228zm8.615-.276h-4.212v2.736c.184-.256.456-.464.816-.624.36-.168.748-.252 1.164-.252.664 0 1.204.14 1.62.42.416.272.712.628.888 1.068.184.432.276.892.276 1.38 0 .576-.108 1.092-.324 1.548a2.449 2.449 0 0 1-.996 1.08c-.44.264-.988.396-1.644.396-.84 0-1.52-.216-2.04-.648-.52-.432-.836-1.008-.948-1.728h1.068c.104.456.324.812.66 1.068s.76.384 1.272.384c.632 0 1.108-.188 1.428-.564.32-.384.48-.888.48-1.512s-.16-1.104-.48-1.44c-.32-.344-.792-.516-1.416-.516-.424 0-.796.104-1.116.312-.312.2-.54.476-.684.828h-1.032v-4.896h5.22zm6.599 1.116c-.176-.888-.724-1.332-1.644-1.332-.712 0-1.244.276-1.596.828-.352.544-.524 1.444-.516 2.7.184-.416.488-.74.912-.972.432-.24.912-.36 1.44-.36.824 0 1.48.256 1.968.768.496.512.744 1.22.744 2.124 0 .544-.108 1.032-.324 1.464a2.386 2.386 0 0 1-.96 1.032c-.424.256-.94.384-1.548.384-.824 0-1.468-.184-1.932-.552-.464-.368-.788-.876-.972-1.524-.184-.648-.276-1.448-.276-2.4 0-2.936 1.024-4.404 3.072-4.404.784 0 1.4.212 1.848.636.448.424.712.96.792 1.608zm-1.632 1.788c-.344 0-.668.072-.972.216a1.73 1.73 0 0 0-.744.636c-.184.28-.276.624-.276 1.032 0 .608.176 1.104.528 1.488.352.376.856.564 1.512.564.56 0 1.004-.172 1.332-.516.336-.352.504-.824.504-1.416 0-.624-.16-1.112-.48-1.464-.32-.36-.788-.54-1.404-.54z" fill="#000"/></g><path d="M766.5 216.5V376a9.5 9.5 0 0 1-9.5 9.5H467a9.5 9.5 0 0 1-9.5-9.5V216.5Z" stroke="#f2f2f2"/><g clip-path="url(#l)"><rect x="477" y="415" width="49" height="12" rx="6" fill="#f2f2f2"/><path d="M480.424 522.424v4.12c0 .459-.141.827-.424 1.104-.283.272-.656.408-1.12.408-.469 0-.845-.139-1.128-.416-.283-.283-.424-.667-.424-1.152h.728c.005.272.075.493.208.664.139.171.344.256.616.256s.475-.08.608-.24a.963.963 0 0 0 .2-.624v-4.12zm4.73 4.336h-2.432l-.448 1.24h-.768l2.016-5.544h.84L486.37 528h-.768zm-.208-.592-1.008-2.816-1.008 2.816zm6.687 1.832h-.728l-2.928-4.44V528h-.728v-5.584h.728l2.928 4.432v-4.432h.728zm12.135-5.576v.592h-2.424v1.88h1.968v.592h-1.968V528h-.728v-5.576zm1.607.592v1.864h2.032v.6h-2.032v1.92h2.272v.6h-3v-5.584h3v.6zm7.982-.592L511.253 528h-.84l-2.104-5.576h.776l1.752 4.808 1.752-4.808zm13.915.04V528h-.728v-4.128l-1.84 4.128h-.512l-1.848-4.136V528h-.728v-5.536h.784l2.048 4.576 2.048-4.576zm4.531 4.296h-2.432l-.448 1.24h-.768l2.016-5.544h.84l2.008 5.544h-.768zm-.208-.592-1.008-2.816-1.008 2.816zm5.238 1.832-1.328-2.28h-.88V528h-.728v-5.576h1.8c.422 0 .776.072 1.064.216.294.144.512.339.656.584.144.245.216.525.216.84 0 .384-.112.723-.336 1.016-.218.293-.549.488-.992.584l1.4 2.336zm-2.208-2.864h1.072c.395 0 .691-.096.888-.288.198-.197.296-.459.296-.784 0-.331-.098-.587-.296-.768-.192-.181-.488-.272-.888-.272h-1.072zm15.287 1.624h-2.432l-.448 1.24h-.768l2.016-5.544h.84l2.008 5.544h-.768zm-.208-.592-1.008-2.816-1.008 2.816zm6.031-2.112c0 .464-.16.851-.48 1.16-.315.304-.798.456-1.448.456h-1.072V528h-.728v-5.576h1.8c.629 0 1.106.152 1.432.456.33.304.496.696.496 1.176zm-1.928 1.016c.405 0 .704-.088.896-.264.192-.176.288-.427.288-.752 0-.688-.395-1.032-1.184-1.032h-1.072v2.048zm5.768 2.928-1.328-2.28h-.88V528h-.728v-5.576h1.8c.422 0 .776.072 1.064.216.294.144.512.339.656.584.144.245.216.525.216.84 0 .384-.112.723-.336 1.016-.218.293-.549.488-.992.584l1.4 2.336zm-2.208-2.864h1.072c.395 0 .691-.096.888-.288.198-.197.296-.459.296-.784 0-.331-.098-.587-.296-.768-.192-.181-.488-.272-.888-.272h-1.072zm16.905-2.672V528h-.728v-4.128l-1.84 4.128h-.512l-1.848-4.136V528h-.728v-5.536h.784l2.048 4.576 2.048-4.576zm4.531 4.296h-2.432l-.448 1.24h-.768l2.016-5.544h.84l2.008 5.544h-.768zm-.208-.592-1.008-2.816-1.008 2.816zm6.206-3.744-1.816 3.472V528h-.728v-2.104l-1.824-3.472h.808l1.376 2.824 1.376-2.824zm10.623 0v4.12c0 .459-.141.827-.424 1.104-.283.272-.656.408-1.12.408-.469 0-.845-.139-1.128-.416-.283-.283-.424-.667-.424-1.152h.728c.005.272.075.493.208.664.139.171.344.256.616.256s.475-.08.608-.24a.963.963 0 0 0 .2-.624v-4.12zm2.146 0v3.528c0 .496.12.864.36 1.104.246.24.584.36 1.016.36.427 0 .76-.12 1-.36.246-.24.368-.608.368-1.104v-3.528h.728v3.52c0 .464-.093.856-.28 1.176-.186.315-.44.549-.76.704a2.373 2.373 0 0 1-1.064.232c-.394 0-.752-.077-1.072-.232a1.775 1.775 0 0 1-.752-.704c-.181-.32-.272-.712-.272-1.176v-3.52zm9.071 5.576h-.728l-2.928-4.44V528h-.728v-5.584h.728l2.928 4.432v-4.432h.728zm11.783-5.576v4.12c0 .459-.141.827-.424 1.104-.283.272-.656.408-1.12.408-.469 0-.845-.139-1.128-.416-.283-.283-.424-.667-.424-1.152h.728c.005.272.075.493.208.664.139.171.344.256.616.256s.475-.08.608-.24a.963.963 0 0 0 .2-.624v-4.12zm2.146 0v3.528c0 .496.12.864.36 1.104.246.24.584.36 1.016.36.427 0 .76-.12 1-.36.246-.24.368-.608.368-1.104v-3.528h.728v3.52c0 .464-.093.856-.28 1.176-.186.315-.44.549-.76.704a2.373 2.373 0 0 1-1.064.232c-.394 0-.752-.077-1.072-.232a1.775 1.775 0 0 1-.752-.704c-.181-.32-.272-.712-.272-1.176v-3.52zm5.415 4.984h1.952V528h-2.68v-5.576h.728zm13.927-.648h-2.432l-.448 1.24h-.768l2.016-5.544h.84l2.008 5.544h-.768zm-.208-.592-1.008-2.816-1.008 2.816zm3.015-3.744v3.528c0 .496.12.864.36 1.104.245.24.584.36 1.016.36.426 0 .76-.12 1-.36.245-.24.368-.608.368-1.104v-3.528h.728v3.52c0 .464-.094.856-.28 1.176a1.76 1.76 0 0 1-.76.704c-.315.155-.67.232-1.064.232-.395 0-.752-.077-1.072-.232a1.764 1.764 0 0 1-.752-.704c-.182-.32-.272-.712-.272-1.176v-3.52zm8.91 1.616a1.714 1.714 0 0 0-.672-.752 1.91 1.91 0 0 0-1.024-.272c-.389 0-.741.091-1.056.272a1.894 1.894 0 0 0-.736.768 2.418 2.418 0 0 0-.264 1.152c0 .437.088.821.264 1.152.181.331.427.587.736.768.315.176.667.264 1.056.264.544 0 .992-.163 1.344-.488.352-.325.557-.765.616-1.32h-2.224v-.592h3v.56c-.043.459-.187.88-.432 1.264a2.71 2.71 0 0 1-.968.904c-.4.219-.845.328-1.336.328a2.84 2.84 0 0 1-1.416-.36 2.73 2.73 0 0 1-1.016-1.016 2.915 2.915 0 0 1-.368-1.464c0-.544.123-1.032.368-1.464a2.658 2.658 0 0 1 1.016-1.016 2.795 2.795 0 0 1 1.416-.368c.592 0 1.115.147 1.568.44.459.293.792.707 1 1.24zm11.755 4.016c-.368 0-.699-.064-.992-.192a1.692 1.692 0 0 1-.68-.544 1.413 1.413 0 0 1-.256-.808h.776c.027.261.133.483.32.664.192.176.469.264.832.264.347 0 .619-.085.816-.256a.85.85 0 0 0 .304-.672.76.76 0 0 0-.176-.52 1.122 1.122 0 0 0-.44-.304 6.93 6.93 0 0 0-.712-.224 6.468 6.468 0 0 1-.888-.288 1.47 1.47 0 0 1-.568-.448c-.155-.208-.232-.485-.232-.832 0-.304.077-.573.232-.808.155-.235.371-.416.648-.544.283-.128.605-.192.968-.192.523 0 .949.131 1.28.392.336.261.525.608.568 1.04h-.8c-.027-.213-.139-.4-.336-.56-.197-.165-.459-.248-.784-.248-.304 0-.552.08-.744.24-.192.155-.288.373-.288.656 0 .203.056.368.168.496.117.128.259.227.424.296.171.064.408.139.712.224.368.101.664.203.888.304.224.096.416.248.576.456.16.203.24.48.24.832 0 .272-.072.528-.216.768-.144.24-.357.435-.64.584a2.117 2.117 0 0 1-1 .224zm3.655-5.04v1.864h2.032v.6h-2.032v1.92h2.272v.6h-3v-5.584h3v.6zm7.102 1.04c0 .464-.16.851-.48 1.16-.315.304-.797.456-1.448.456h-1.072V528h-.728v-5.576h1.8c.629 0 1.107.152 1.432.456.331.304.496.696.496 1.176zm-1.928 1.016c.405 0 .704-.088.896-.264.192-.176.288-.427.288-.752 0-.688-.395-1.032-1.184-1.032h-1.072v2.048zm12.931 2.984a2.84 2.84 0 0 1-1.416-.36 2.73 2.73 0 0 1-1.016-1.016 2.959 2.959 0 0 1-.368-1.472c0-.544.123-1.032.368-1.464a2.658 2.658 0 0 1 1.016-1.016 2.795 2.795 0 0 1 1.416-.368c.523 0 .997.123 1.424.368.427.24.763.576 1.008 1.008.245.432.368.923.368 1.472 0 .549-.123 1.04-.368 1.472a2.666 2.666 0 0 1-1.008 1.016c-.427.24-.901.36-1.424.36zm0-.632c.389 0 .739-.091 1.048-.272.315-.181.56-.44.736-.776.181-.336.272-.725.272-1.168 0-.448-.091-.837-.272-1.168a1.896 1.896 0 0 0-.728-.776 2.05 2.05 0 0 0-1.056-.272 2.05 2.05 0 0 0-1.056.272c-.309.181-.555.44-.736.776-.176.331-.264.72-.264 1.168 0 .443.088.832.264 1.168.181.336.427.595.736.776.315.181.667.272 1.056.272zm3.489-2.216c0-.544.123-1.032.368-1.464a2.674 2.674 0 0 1 1-1.024 2.795 2.795 0 0 1 1.416-.368c.608 0 1.139.147 1.592.44.453.293.784.709.992 1.248h-.872a1.745 1.745 0 0 0-.672-.776c-.288-.181-.635-.272-1.04-.272-.389 0-.739.091-1.048.272-.309.181-.552.44-.728.776-.176.331-.264.72-.264 1.168 0 .443.088.832.264 1.168.176.331.419.587.728.768.309.181.659.272 1.048.272.405 0 .752-.088 1.04-.264.293-.181.517-.44.672-.776h.872a2.527 2.527 0 0 1-.992 1.24c-.453.288-.984.432-1.592.432a2.84 2.84 0 0 1-1.416-.36 2.688 2.688 0 0 1-1-1.016 2.915 2.915 0 0 1-.368-1.464zm9.884-2.784v.592h-1.52V528h-.728v-4.984h-1.528v-.592zM711 528h-.728l-2.928-4.44V528h-.728v-5.584h.728l2.928 4.432v-4.432H711Zm3.769.056a2.84 2.84 0 0 1-1.416-.36 2.73 2.73 0 0 1-1.016-1.016 2.959 2.959 0 0 1-.368-1.472c0-.544.123-1.032.368-1.464a2.658 2.658 0 0 1 1.016-1.016 2.795 2.795 0 0 1 1.416-.368c.523 0 .997.123 1.424.368.427.24.763.576 1.008 1.008.245.432.368.923.368 1.472 0 .549-.123 1.04-.368 1.472a2.666 2.666 0 0 1-1.008 1.016c-.427.24-.901.36-1.424.36zm0-.632c.389 0 .739-.091 1.048-.272.315-.181.56-.44.736-.776.181-.336.272-.725.272-1.168 0-.448-.091-.837-.272-1.168a1.896 1.896 0 0 0-.728-.776 2.05 2.05 0 0 0-1.056-.272 2.05 2.05 0 0 0-1.056.272c-.309.181-.555.44-.736.776-.176.331-.264.72-.264 1.168 0 .443.088.832.264 1.168.181.336.427.595.736.776.315.181.667.272 1.056.272zm8.369-5L721.034 528h-.84l-2.104-5.576h.776l1.752 4.808 1.752-4.808zm10.214 0c.608 0 1.133.115 1.576.344a2.34 2.34 0 0 1 1.024.968c.24.421.36.917.36 1.488s-.12 1.067-.36 1.488a2.351 2.351 0 0 1-1.024.96c-.443.219-.968.328-1.576.328h-1.736v-5.576zm0 4.976c.72 0 1.269-.189 1.648-.568.379-.384.568-.92.568-1.608 0-.693-.192-1.235-.576-1.624-.379-.389-.925-.584-1.64-.584h-1.008v4.384Zm4.648-4.384v1.864h2.032v.6H738v1.92h2.272v.6h-3v-5.584h3v.6zm3.102 2.192c0-.544.122-1.032.368-1.464a2.667 2.667 0 0 1 1-1.024 2.79 2.79 0 0 1 1.416-.368c.608 0 1.138.147 1.592.44.453.293.784.709.992 1.248h-.872a1.745 1.745 0 0 0-.672-.776c-.288-.181-.635-.272-1.04-.272-.39 0-.739.091-1.048.272a1.89 1.89 0 0 0-.728.776c-.176.331-.264.72-.264 1.168 0 .443.088.832.264 1.168a1.9 1.9 0 0 0 .728.768c.309.181.658.272 1.048.272.405 0 .752-.088 1.04-.264.293-.181.517-.44.672-.776h.872a2.527 2.527 0 0 1-.992 1.24c-.454.288-.984.432-1.592.432-.518 0-.99-.12-1.416-.36a2.68 2.68 0 0 1-1-1.016 2.905 2.905 0 0 1-.368-1.464z" fill="#000"/><path fill="#eddeff" d="M478 454h14v58h-14zm23 27h14v31h-14zm23 11h14v20h-14zm23-24h14v44h-14zm23 13h14v31h-14zm23-5h14v36h-14zm23-13h14v49h-14zm23 11h14v38h-14zm23-14h14v52h-14zm23 14h14v38h-14zm23 18h14v20h-14zm23 0h14v20h-14z"/></g><rect x="457.5" y="395.5" width="309" height="156" rx="9.5" stroke="#f2f2f2"/><path d="M456 126c0-5.523 4.477-10 10-10h312c5.523 0 10 4.477 10 10v90H456Z" fill="#d9ddff"/><rect x="569.5" y="173.5" width="85" height="85" rx="42.5" fill="#721f6f"/><rect x="569.5" y="173.5" width="85" height="85" rx="42.5" stroke="#fff" stroke-width="5"/><path d="M598.485 209.292v5.916h6.45v1.905h-6.45v6.094h7.211v1.904h-9.522v-17.724h9.522v1.905zm28.407-1.753v17.572h-2.311v-13.102l-5.84 13.102h-1.626l-5.865-13.128v13.128h-2.311v-17.572h2.488l6.501 14.525 6.501-14.525z" fill="#fff"/><path d="M478 462.419h12.892L550.942 501l28.498-53.701 28.498 21.376h29.516l29.516-25.547 61.745 19.291L745 440" stroke="#721f6f" stroke-width="3"/></g><rect x="446" y="107" width="332" height="456" rx="19" stroke="#c67dff" stroke-width="2" clip-path="url(#m)"/><rect x="754" y="429" width="280" height="172" rx="11" fill="#eddeff" clip-path="url(#n)" transform="translate(-72)"/><rect x="754" y="429" width="280" height="172" rx="11" stroke="#ffbe67" stroke-width="2" clip-path="url(#o)" transform="translate(-72)"/><rect x="775" y="518" width="125" height="26" rx="6" fill="#fff" clip-path="url(#p)" transform="translate(-72)"/><path d="M789.52 534.89h3.66V536h-5.025v-10.455h1.365zm12.46-3.315c0 .26-.015.535-.045.825h-6.57c.05.81.325 1.445.825 1.905.51.45 1.125.675 1.845.675.59 0 1.08-.135 1.47-.405.4-.28.68-.65.84-1.11h1.47a3.57 3.57 0 0 1-1.32 1.935c-.66.49-1.48.735-2.46.735-.78 0-1.48-.175-2.1-.525a3.743 3.743 0 0 1-1.44-1.485c-.35-.65-.525-1.4-.525-2.25 0-.85.17-1.595.51-2.235.34-.64.815-1.13 1.425-1.47.62-.35 1.33-.525 2.13-.525.78 0 1.47.17 2.07.51.6.34 1.06.81 1.38 1.41.33.59.495 1.26.495 2.01zm-1.41-.285c0-.52-.115-.965-.345-1.335a2.171 2.171 0 0 0-.945-.855c-.39-.2-.825-.3-1.305-.3-.69 0-1.28.22-1.77.66-.48.44-.755 1.05-.825 1.83zm6.121 3.45 2.55-6.96h1.455l-3.225 8.22h-1.59l-3.225-8.22h1.47zm8.784 1.395a4.25 4.25 0 0 1-2.1-.525 3.816 3.816 0 0 1-1.47-1.485c-.35-.65-.525-1.4-.525-2.25 0-.84.18-1.58.54-2.22.37-.65.87-1.145 1.5-1.485.63-.35 1.335-.525 2.115-.525.78 0 1.485.175 2.115.525.63.34 1.125.83 1.485 1.47.37.64.555 1.385.555 2.235 0 .85-.19 1.6-.57 2.25a3.862 3.862 0 0 1-1.515 1.485c-.64.35-1.35.525-2.13.525zm0-1.2c.49 0 .95-.115 1.38-.345.43-.23.775-.575 1.035-1.035.27-.46.405-1.02.405-1.68 0-.66-.13-1.22-.39-1.68-.26-.46-.6-.8-1.02-1.02a2.796 2.796 0 0 0-1.365-.345c-.5 0-.96.115-1.38.345-.41.22-.74.56-.99 1.02-.25.46-.375 1.02-.375 1.68 0 .67.12 1.235.36 1.695.25.46.58.805.99 1.035.41.22.86.33 1.35.33zm7.524-6.03v4.845c0 .4.085.685.255.855.17.16.465.24.885.24h1.005V536h-1.23c-.76 0-1.33-.175-1.71-.525-.38-.35-.57-.925-.57-1.725v-4.845h-1.065v-1.125h1.065v-2.07h1.365v2.07h2.145v1.125zm7.729-1.275c.62 0 1.18.135 1.68.405.5.26.89.655 1.17 1.185.29.53.435 1.175.435 1.935V536h-1.35v-4.65c0-.82-.205-1.445-.615-1.875-.41-.44-.97-.66-1.68-.66-.72 0-1.295.225-1.725.675-.42.45-.63 1.105-.63 1.965V536h-1.365v-11.1h1.365v4.05a2.7 2.7 0 0 1 1.11-.975 3.667 3.667 0 0 1 1.605-.345zm12.445.15-4.95 12.09h-1.41l1.62-3.96-3.315-8.13h1.515l2.58 6.66 2.55-6.66zm2.587 1.335c.24-.47.58-.835 1.02-1.095.45-.26.995-.39 1.635-.39v1.41h-.36c-1.53 0-2.295.83-2.295 2.49V536h-1.365v-8.22h1.365zm7.666 7.02a4.25 4.25 0 0 1-2.1-.525 3.816 3.816 0 0 1-1.47-1.485c-.35-.65-.525-1.4-.525-2.25 0-.84.18-1.58.54-2.22.37-.65.87-1.145 1.5-1.485.63-.35 1.335-.525 2.115-.525.78 0 1.485.175 2.115.525.63.34 1.125.83 1.485 1.47.37.64.555 1.385.555 2.235 0 .85-.19 1.6-.57 2.25a3.862 3.862 0 0 1-1.515 1.485c-.64.35-1.35.525-2.13.525zm0-1.2c.49 0 .95-.115 1.38-.345.43-.23.775-.575 1.035-1.035.27-.46.405-1.02.405-1.68 0-.66-.13-1.22-.39-1.68-.26-.46-.6-.8-1.02-1.02a2.796 2.796 0 0 0-1.365-.345c-.5 0-.96.115-1.38.345-.41.22-.74.56-.99 1.02-.25.46-.375 1.02-.375 1.68 0 .67.12 1.235.36 1.695.25.46.58.805.99 1.035.41.22.86.33 1.35.33zM863.575 536l-1.95-3.06-1.875 3.06h-1.425l2.655-4.08-2.655-4.14h1.545l1.95 3.045 1.86-3.045h1.425l-2.64 4.065L865.12 536zm3.443-9.555c-.26 0-.48-.09-.66-.27a.898.898 0 0 1-.27-.66c0-.26.09-.48.27-.66.18-.18.4-.27.66-.27.25 0 .46.09.63.27.18.18.27.4.27.66s-.09.48-.27.66c-.17.18-.38.27-.63.27zm.66 1.335V536h-1.365v-8.22zm6.182-.15c1 0 1.81.305 2.43.915.62.6.93 1.47.93 2.61V536h-1.35v-4.65c0-.82-.205-1.445-.615-1.875-.41-.44-.97-.66-1.68-.66-.72 0-1.295.225-1.725.675-.42.45-.63 1.105-.63 1.965V536h-1.365v-8.22h1.365v1.17c.27-.42.635-.745 1.095-.975.47-.23.985-.345 1.545-.345zm12.939 3.945c0 .26-.015.535-.045.825h-6.57c.05.81.325 1.445.825 1.905.51.45 1.125.675 1.845.675.59 0 1.08-.135 1.47-.405.4-.28.68-.65.84-1.11h1.47a3.57 3.57 0 0 1-1.32 1.935c-.66.49-1.48.735-2.46.735-.78 0-1.48-.175-2.1-.525a3.743 3.743 0 0 1-1.44-1.485c-.35-.65-.525-1.4-.525-2.25 0-.85.17-1.595.51-2.235.34-.64.815-1.13 1.425-1.47.62-.35 1.33-.525 2.13-.525.78 0 1.47.17 2.07.51.6.34 1.06.81 1.38 1.41.33.59.495 1.26.495 2.01zm-1.41-.285c0-.52-.115-.965-.345-1.335a2.171 2.171 0 0 0-.945-.855c-.39-.2-.825-.3-1.305-.3-.69 0-1.28.22-1.77.66-.48.44-.755 1.05-.825 1.83z" fill="#560153" clip-path="url(#q)" transform="translate(-72)"/><rect x="911" y="518" width="100" height="26" rx="6" fill="#fff" clip-path="url(#r)" transform="translate(-72)"/><path d="M934.76 525.62V536h-1.365v-7.74l-3.45 7.74h-.96l-3.465-7.755V536h-1.365v-10.38h1.47l3.84 8.58 3.84-8.58zm9.665 5.955c0 .26-.015.535-.045.825h-6.57c.05.81.325 1.445.825 1.905.51.45 1.125.675 1.845.675.59 0 1.08-.135 1.47-.405.4-.28.68-.65.84-1.11h1.47a3.57 3.57 0 0 1-1.32 1.935c-.66.49-1.48.735-2.46.735-.78 0-1.48-.175-2.1-.525a3.743 3.743 0 0 1-1.44-1.485c-.35-.65-.525-1.4-.525-2.25 0-.85.17-1.595.51-2.235.34-.64.815-1.13 1.425-1.47.62-.35 1.33-.525 2.13-.525.78 0 1.47.17 2.07.51.6.34 1.06.81 1.38 1.41.33.59.495 1.26.495 2.01zm-1.41-.285c0-.52-.115-.965-.345-1.335a2.171 2.171 0 0 0-.945-.855c-.39-.2-.825-.3-1.305-.3-.69 0-1.28.22-1.77.66-.48.44-.755 1.05-.825 1.83zm4.727-2.385v4.845c0 .4.085.685.255.855.17.16.465.24.885.24h1.005V536h-1.23c-.76 0-1.33-.175-1.71-.525-.38-.35-.57-.925-.57-1.725v-4.845h-1.065v-1.125h1.065v-2.07h1.365v2.07h2.145v1.125zm6.994 0h-1.725V536h-1.365v-7.095h-1.065v-1.125h1.065v-.585c0-.92.235-1.59.705-2.01.48-.43 1.245-.645 2.295-.645v1.14c-.6 0-1.025.12-1.275.36-.24.23-.36.615-.36 1.155v.585h1.725zm5.026 7.23a4.25 4.25 0 0 1-2.1-.525 3.816 3.816 0 0 1-1.47-1.485c-.35-.65-.525-1.4-.525-2.25 0-.84.18-1.58.54-2.22.37-.65.87-1.145 1.5-1.485.63-.35 1.335-.525 2.115-.525.78 0 1.485.175 2.115.525.63.34 1.125.83 1.485 1.47.37.64.555 1.385.555 2.235 0 .85-.19 1.6-.57 2.25a3.862 3.862 0 0 1-1.515 1.485c-.64.35-1.35.525-2.13.525zm0-1.2c.49 0 .95-.115 1.38-.345.43-.23.775-.575 1.035-1.035.27-.46.405-1.02.405-1.68 0-.66-.13-1.22-.39-1.68-.26-.46-.6-.8-1.02-1.02a2.796 2.796 0 0 0-1.365-.345c-.5 0-.96.115-1.38.345-.41.22-.74.56-.99 1.02-.25.46-.375 1.02-.375 1.68 0 .67.12 1.235.36 1.695.25.46.58.805.99 1.035.41.22.86.33 1.35.33zm7.225-5.82c.24-.47.58-.835 1.02-1.095.45-.26.995-.39 1.635-.39v1.41h-.36c-1.53 0-2.295.83-2.295 2.49V536h-1.365v-8.22h1.365zm13.965-1.485c.64 0 1.21.135 1.71.405.5.26.895.655 1.185 1.185.29.53.435 1.175.435 1.935V536h-1.35v-4.65c0-.82-.205-1.445-.615-1.875-.4-.44-.945-.66-1.635-.66-.71 0-1.275.23-1.695.69-.42.45-.63 1.105-.63 1.965V536h-1.35v-4.65c0-.82-.205-1.445-.615-1.875-.4-.44-.945-.66-1.635-.66-.71 0-1.275.23-1.695.69-.42.45-.63 1.105-.63 1.965V536h-1.365v-8.22h1.365v1.185c.27-.43.63-.76 1.08-.99a3.34 3.34 0 0 1 1.515-.345c.69 0 1.3.155 1.83.465.53.31.925.765 1.185 1.365.23-.58.61-1.03 1.14-1.35.53-.32 1.12-.48 1.77-.48zm6.125-1.185c-.26 0-.48-.09-.66-.27a.898.898 0 0 1-.27-.66c0-.26.09-.48.27-.66.18-.18.4-.27.66-.27.25 0 .46.09.63.27.18.18.27.4.27.66s-.09.48-.27.66c-.17.18-.38.27-.63.27zm.66 1.335V536h-1.365v-8.22zm6.181-.15c1 0 1.81.305 2.43.915.62.6.93 1.47.93 2.61V536h-1.35v-4.65c0-.82-.205-1.445-.615-1.875-.41-.44-.97-.66-1.68-.66-.72 0-1.295.225-1.725.675-.42.45-.63 1.105-.63 1.965V536h-1.365v-8.22h1.365v1.17c.27-.42.635-.745 1.095-.975.47-.23.985-.345 1.545-.345z" fill="#560153" clip-path="url(#s)" transform="translate(-72)"/><rect x="775" y="554" width="146" height="26" rx="6" fill="#fff" clip-path="url(#t)" transform="translate(-72)"/><path d="M792.895 572.105c-.97 0-1.855-.225-2.655-.675a5.122 5.122 0 0 1-1.905-1.905c-.46-.82-.69-1.74-.69-2.76 0-1.02.23-1.935.69-2.745a4.98 4.98 0 0 1 1.905-1.905c.8-.46 1.685-.69 2.655-.69.98 0 1.87.23 2.67.69.8.45 1.43 1.08 1.89 1.89.46.81.69 1.73.69 2.76 0 1.03-.23 1.95-.69 2.76a5.012 5.012 0 0 1-1.89 1.905c-.8.45-1.69.675-2.67.675zm0-1.185c.73 0 1.385-.17 1.965-.51.59-.34 1.05-.825 1.38-1.455.34-.63.51-1.36.51-2.19 0-.84-.17-1.57-.51-2.19a3.555 3.555 0 0 0-1.365-1.455c-.58-.34-1.24-.51-1.98-.51s-1.4.17-1.98.51c-.58.34-1.04.825-1.38 1.455-.33.62-.495 1.35-.495 2.19 0 .83.165 1.56.495 2.19.34.63.8 1.115 1.38 1.455.59.34 1.25.51 1.98.51zm8.267-5.805c.24-.47.58-.835 1.02-1.095.45-.26.995-.39 1.635-.39v1.41h-.36c-1.53 0-2.295.83-2.295 2.49V572h-1.365v-8.22h1.365zm5.746-.21v4.845c0 .4.085.685.255.855.17.16.465.24.885.24h1.005V572h-1.23c-.76 0-1.33-.175-1.71-.525-.38-.35-.57-.925-.57-1.725v-4.845h-1.065v-1.125h1.065v-2.07h1.365v2.07h2.145v1.125zm7.729-1.275c.62 0 1.18.135 1.68.405.5.26.89.655 1.17 1.185.29.53.435 1.175.435 1.935V572h-1.35v-4.65c0-.82-.205-1.445-.615-1.875-.41-.44-.97-.66-1.68-.66-.72 0-1.295.225-1.725.675-.42.45-.63 1.105-.63 1.965V572h-1.365v-11.1h1.365v4.05a2.7 2.7 0 0 1 1.11-.975 3.667 3.667 0 0 1 1.605-.345zm8.949 8.505a4.25 4.25 0 0 1-2.1-.525 3.816 3.816 0 0 1-1.47-1.485c-.35-.65-.525-1.4-.525-2.25 0-.84.18-1.58.54-2.22.37-.65.87-1.145 1.5-1.485.63-.35 1.335-.525 2.115-.525.78 0 1.485.175 2.115.525.63.34 1.125.83 1.485 1.47.37.64.555 1.385.555 2.235 0 .85-.19 1.6-.57 2.25a3.862 3.862 0 0 1-1.515 1.485c-.64.35-1.35.525-2.13.525zm0-1.2c.49 0 .95-.115 1.38-.345.43-.23.775-.575 1.035-1.035.27-.46.405-1.02.405-1.68 0-.66-.13-1.22-.39-1.68-.26-.46-.6-.8-1.02-1.02a2.796 2.796 0 0 0-1.365-.345c-.5 0-.96.115-1.38.345-.41.22-.74.56-.99 1.02-.25.46-.375 1.02-.375 1.68 0 .67.12 1.235.36 1.695.25.46.58.805.99 1.035.41.22.86.33 1.35.33zm16.144-9.39v1.11h-2.85V572h-1.365v-9.345h-2.865v-1.11zm2.895 3.57c.24-.47.58-.835 1.02-1.095.45-.26.995-.39 1.635-.39v1.41h-.36c-1.53 0-2.295.83-2.295 2.49V572h-1.365v-8.22h1.365zm4.786-2.67c-.26 0-.48-.09-.66-.27a.898.898 0 0 1-.27-.66c0-.26.09-.48.27-.66.18-.18.4-.27.66-.27.25 0 .46.09.63.27.18.18.27.4.27.66s-.09.48-.27.66c-.17.18-.38.27-.63.27zm.66 1.335V572h-1.365v-8.22zm7.876 2.145v1.155h-5.985v-1.155zm1.902.84c0-1.02.23-1.935.69-2.745a5.014 5.014 0 0 1 1.875-1.92c.8-.46 1.685-.69 2.655-.69 1.14 0 2.135.275 2.985.825.85.55 1.47 1.33 1.86 2.34h-1.635c-.29-.63-.71-1.115-1.26-1.455-.54-.34-1.19-.51-1.95-.51-.73 0-1.385.17-1.965.51-.58.34-1.035.825-1.365 1.455-.33.62-.495 1.35-.495 2.19 0 .83.165 1.56.495 2.19.33.62.785 1.1 1.365 1.44.58.34 1.235.51 1.965.51.76 0 1.41-.165 1.95-.495.55-.34.97-.825 1.26-1.455h1.635c-.39 1-1.01 1.775-1.86 2.325-.85.54-1.845.81-2.985.81-.97 0-1.855-.225-2.655-.675a5.044 5.044 0 0 1-1.875-1.905c-.46-.81-.69-1.725-.69-2.745zm19.027-2.985-4.95 12.09h-1.41l1.62-3.96-3.315-8.13h1.515l2.58 6.66 2.55-6.66zm.712 4.095c0-.85.17-1.59.51-2.22.34-.64.81-1.135 1.41-1.485.61-.35 1.305-.525 2.085-.525 1.01 0 1.84.245 2.49.735.66.49 1.095 1.17 1.305 2.04h-1.47c-.14-.5-.415-.895-.825-1.185-.4-.29-.9-.435-1.5-.435-.78 0-1.41.27-1.89.81-.48.53-.72 1.285-.72 2.265 0 .99.24 1.755.72 2.295s1.11.81 1.89.81c.6 0 1.1-.14 1.5-.42.4-.28.675-.68.825-1.2h1.47c-.22.84-.66 1.515-1.32 2.025-.66.5-1.485.75-2.475.75-.78 0-1.475-.175-2.085-.525-.6-.35-1.07-.845-1.41-1.485-.34-.64-.51-1.39-.51-2.25zm10.836-6.975V572h-1.365v-11.1zm9.677 6.675c0 .26-.015.535-.045.825h-6.57c.05.81.325 1.445.825 1.905.51.45 1.125.675 1.845.675.59 0 1.08-.135 1.47-.405.4-.28.68-.65.84-1.11h1.47a3.57 3.57 0 0 1-1.32 1.935c-.66.49-1.48.735-2.46.735-.78 0-1.48-.175-2.1-.525a3.743 3.743 0 0 1-1.44-1.485c-.35-.65-.525-1.4-.525-2.25 0-.85.17-1.595.51-2.235.34-.64.815-1.13 1.425-1.47.62-.35 1.33-.525 2.13-.525.78 0 1.47.17 2.07.51.6.34 1.06.81 1.38 1.41.33.59.495 1.26.495 2.01zm-1.41-.285c0-.52-.115-.965-.345-1.335a2.171 2.171 0 0 0-.945-.855c-.39-.2-.825-.3-1.305-.3-.69 0-1.28.22-1.77.66-.48.44-.755 1.05-.825 1.83zm7.067-3.66c1 0 1.81.305 2.43.915.62.6.93 1.47.93 2.61V572h-1.35v-4.65c0-.82-.205-1.445-.615-1.875-.41-.44-.97-.66-1.68-.66-.72 0-1.295.225-1.725.675-.42.45-.63 1.105-.63 1.965V572h-1.365v-8.22h1.365v1.17c.27-.42.635-.745 1.095-.975.47-.23.985-.345 1.545-.345z" fill="#560153" clip-path="url(#u)" transform="translate(-72)"/><path d="M856.719 481.185V493h-1.938v-8.092L851.177 493h-1.343l-3.621-8.092V493h-1.938v-11.815h2.091l4.148 9.265 4.131-9.265zm11.132 6.902c0 .351-.022.669-.068.952h-7.157c.057.748.335 1.349.833 1.802.499.453 1.111.68 1.836.68 1.043 0 1.78-.436 2.21-1.309h2.091a4.246 4.246 0 0 1-1.547 2.125c-.736.544-1.654.816-2.754.816-.895 0-1.7-.198-2.414-.595a4.454 4.454 0 0 1-1.666-1.7c-.396-.737-.595-1.587-.595-2.55 0-.963.193-1.808.578-2.533a4.188 4.188 0 0 1 1.649-1.7c.714-.397 1.53-.595 2.448-.595.884 0 1.672.193 2.363.578a4.06 4.06 0 0 1 1.615 1.632c.386.691.578 1.49.578 2.397zm-2.023-.612c-.011-.714-.266-1.286-.765-1.717-.498-.431-1.116-.646-1.853-.646-.668 0-1.241.215-1.717.646-.476.419-.759.992-.85 1.717zm3.284.799c0-.941.193-1.774.578-2.499a4.312 4.312 0 0 1 3.859-2.295c.612 0 1.213.136 1.802.408.601.261 1.077.612 1.428 1.054v-4.522h1.955V493h-1.955v-1.411c-.317.453-.759.827-1.326 1.122-.555.295-1.195.442-1.921.442a4.28 4.28 0 0 1-2.244-.612 4.545 4.545 0 0 1-1.598-1.734c-.385-.748-.578-1.592-.578-2.533zm7.667.034c0-.646-.136-1.207-.408-1.683a2.737 2.737 0 0 0-1.037-1.088 2.736 2.736 0 0 0-1.394-.374c-.498 0-.963.125-1.394.374-.43.238-.782.595-1.054 1.071-.26.465-.391 1.02-.391 1.666 0 .646.131 1.213.391 1.7.272.487.624.861 1.054 1.122a2.8 2.8 0 0 0 1.394.374c.499 0 .964-.125 1.394-.374a2.737 2.737 0 0 0 1.037-1.088c.272-.487.408-1.054.408-1.7zm5.487-5.916c-.351 0-.646-.119-.884-.357a1.201 1.201 0 0 1-.357-.884c0-.351.119-.646.357-.884s.533-.357.884-.357c.34 0 .629.119.867.357s.357.533.357.884-.119.646-.357.884a1.18 1.18 0 0 1-.867.357zm.952 1.241V493h-1.938v-9.367zm1.898 4.675c0-.963.193-1.808.578-2.533a4.22 4.22 0 0 1 1.632-1.7c.692-.397 1.485-.595 2.38-.595 1.134 0 2.069.272 2.805.816.748.533 1.253 1.298 1.513 2.295h-2.091a2.211 2.211 0 0 0-.816-1.088c-.374-.261-.844-.391-1.411-.391-.793 0-1.428.283-1.904.85-.464.555-.697 1.337-.697 2.346 0 1.009.233 1.796.697 2.363.476.567 1.111.85 1.904.85 1.122 0 1.865-.493 2.227-1.479h2.091c-.272.952-.782 1.711-1.53 2.278-.748.555-1.677.833-2.788.833-.895 0-1.688-.198-2.38-.595a4.37 4.37 0 0 1-1.632-1.7c-.385-.737-.578-1.587-.578-2.55zm10.194-.034c0-.941.192-1.774.578-2.499a4.315 4.315 0 0 1 3.842-2.295c.736 0 1.377.147 1.921.442.555.283.997.64 1.326 1.071v-1.36h1.955V493h-1.955v-1.394c-.329.442-.777.81-1.343 1.105-.567.295-1.213.442-1.938.442a4.16 4.16 0 0 1-2.21-.612 4.53 4.53 0 0 1-1.598-1.734c-.386-.748-.578-1.592-.578-2.533zm7.667.034c0-.646-.136-1.207-.408-1.683a2.75 2.75 0 0 0-1.037-1.088 2.741 2.741 0 0 0-1.394-.374c-.499 0-.964.125-1.394.374-.431.238-.782.595-1.054 1.071-.261.465-.391 1.02-.391 1.666 0 .646.13 1.213.391 1.7.272.487.623.861 1.054 1.122.442.249.906.374 1.394.374.498 0 .963-.125 1.394-.374a2.75 2.75 0 0 0 1.037-1.088c.272-.487.408-1.054.408-1.7zm6.761-3.094v5.185c0 .351.079.606.238.765.17.147.453.221.85.221h1.19V493h-1.53c-.873 0-1.541-.204-2.006-.612-.465-.408-.697-1.071-.697-1.989v-5.185h-1.105v-1.581h1.105v-2.329h1.955v2.329h2.278v1.581zm5.05-2.822c-.351 0-.646-.119-.884-.357a1.201 1.201 0 0 1-.357-.884c0-.351.119-.646.357-.884s.533-.357.884-.357c.34 0 .629.119.867.357s.357.533.357.884-.119.646-.357.884a1.18 1.18 0 0 1-.867.357zm.952 1.241V493h-1.938v-9.367zm6.608 9.52c-.884 0-1.683-.198-2.397-.595a4.413 4.413 0 0 1-1.683-1.7c-.408-.737-.612-1.587-.612-2.55 0-.952.209-1.796.629-2.533a4.338 4.338 0 0 1 1.717-1.7c.725-.397 1.535-.595 2.431-.595.895 0 1.705.198 2.431.595a4.351 4.351 0 0 1 1.717 1.7c.419.737.629 1.581.629 2.533s-.216 1.796-.646 2.533a4.517 4.517 0 0 1-1.768 1.717c-.737.397-1.553.595-2.448.595zm0-1.683c.498 0 .963-.119 1.394-.357a2.703 2.703 0 0 0 1.071-1.071c.272-.476.408-1.054.408-1.734 0-.68-.131-1.252-.391-1.717-.261-.476-.607-.833-1.037-1.071a2.839 2.839 0 0 0-1.394-.357c-.499 0-.964.119-1.394.357-.42.238-.754.595-1.003 1.071-.25.465-.374 1.037-.374 1.717 0 1.009.255 1.791.765 2.346.521.544 1.173.816 1.955.816zm11.504-7.99c.736 0 1.394.153 1.972.459a3.254 3.254 0 0 1 1.377 1.36c.328.601.493 1.326.493 2.176V493h-1.921v-5.236c0-.839-.21-1.479-.629-1.921-.42-.453-.992-.68-1.717-.68-.726 0-1.304.227-1.734.68-.42.442-.629 1.082-.629 1.921V493h-1.938v-9.367h1.938v1.071a3.214 3.214 0 0 1 1.207-.901 3.947 3.947 0 0 1 1.581-.323z" fill="#000" clip-path="url(#v)" transform="translate(-72)"/><rect x="843" y="459" width="60" height="10" rx="5" fill="#fffae8" clip-path="url(#w)" transform="translate(-72)"/><rect x="775" y="450" width="52" height="52" rx="26" fill="#fffae8" clip-path="url(#x)" transform="translate(-72)"/><g clip-path="url(#y)" transform="translate(-72)"><path d="m804.503 479.5-7-8-4.5 5.5c-.834 1.167-1.9 4.1.5 6.5 2.4 2.4 5 1.667 6 1z" fill="#c67dff"/><path d="m793.497 476.501 8-8a4.946 4.946 0 0 1 7 0 4.95 4.95 0 0 1 0 7l-8 8a4.953 4.953 0 0 1-7 0 4.95 4.95 0 0 1 0-7zm4.003-4.001 7 7" stroke="#000" stroke-width="2" stroke-linecap="round" stroke-linejoin="round"/></g><rect x="714" y="50" width="252" height="148" rx="11" fill="#fffae8" clip-path="url(#z)" transform="translate(-44)"/><rect x="714" y="50" width="252" height="148" rx="11" stroke="#ffbe67" stroke-width="2" clip-path="url(#A)" transform="translate(-44)"/><rect x="735" y="71" width="52" height="52" rx="26" fill="#fffae8" clip-path="url(#B)" transform="translate(-44)"/><g clip-path="url(#C)" transform="translate(-44)"><path d="m752 99 5-5 5 5v7h-10z" fill="#9ea9fd"/><path d="M762 106v-7l-5-5-5 5v7h5m5 0h-5m5 0h8V89a.998.998 0 0 0-1-1h-10a1 1 0 0 0-1 1v6m-1 11v-4m5-10v.01m4-.01v.01m0 3.99v.01m0 3.99v.01" stroke="#000" stroke-width="2" stroke-linecap="round" stroke-linejoin="round"/></g><rect x="735" y="139" width="210" height="14" rx="7" fill="#ffbe67" clip-path="url(#D)" transform="translate(-44)"/><rect x="735" y="163" width="171" height="14" rx="7" fill="#ffbe67" clip-path="url(#E)" transform="translate(-44)"/><path d="M813.71 102.185V114h-1.938v-5.168h-5.559V114h-1.938v-11.815h1.938v5.066h5.559v-5.066zm6.614 11.968c-.884 0-1.683-.198-2.397-.595a4.413 4.413 0 0 1-1.683-1.7c-.408-.737-.612-1.587-.612-2.55 0-.952.21-1.796.629-2.533a4.351 4.351 0 0 1 1.717-1.7c.726-.397 1.536-.595 2.431-.595.896 0 1.706.198 2.431.595a4.338 4.338 0 0 1 1.717 1.7c.42.737.629 1.581.629 2.533s-.215 1.796-.646 2.533a4.51 4.51 0 0 1-1.768 1.717c-.736.397-1.552.595-2.448.595zm0-1.683c.499 0 .964-.119 1.394-.357a2.703 2.703 0 0 0 1.071-1.071c.272-.476.408-1.054.408-1.734 0-.68-.13-1.252-.391-1.717a2.621 2.621 0 0 0-1.037-1.071 2.833 2.833 0 0 0-1.394-.357c-.498 0-.963.119-1.394.357-.419.238-.753.595-1.003 1.071-.249.465-.374 1.037-.374 1.717 0 1.009.255 1.791.765 2.346.522.544 1.173.816 1.955.816zm18.117-7.99c.737 0 1.394.153 1.972.459a3.254 3.254 0 0 1 1.377 1.36c.34.601.51 1.326.51 2.176V114h-1.921v-5.236c0-.839-.21-1.479-.629-1.921-.419-.453-.992-.68-1.717-.68-.725 0-1.303.227-1.734.68-.419.442-.629 1.082-.629 1.921V114h-1.921v-5.236c0-.839-.21-1.479-.629-1.921-.419-.453-.992-.68-1.717-.68-.725 0-1.303.227-1.734.68-.419.442-.629 1.082-.629 1.921V114h-1.938v-9.367h1.938v1.071c.317-.385.72-.686 1.207-.901a3.832 3.832 0 0 1 1.564-.323c.748 0 1.417.159 2.006.476a3.25 3.25 0 0 1 1.36 1.377c.283-.567.725-1.014 1.326-1.343a3.872 3.872 0 0 1 1.938-.51zm14.91 4.607c0 .351-.022.669-.068.952h-7.157c.057.748.335 1.349.833 1.802.499.453 1.111.68 1.836.68 1.043 0 1.78-.436 2.21-1.309h2.091a4.246 4.246 0 0 1-1.547 2.125c-.736.544-1.654.816-2.754.816-.895 0-1.7-.198-2.414-.595a4.454 4.454 0 0 1-1.666-1.7c-.396-.737-.595-1.587-.595-2.55 0-.963.193-1.808.578-2.533a4.188 4.188 0 0 1 1.649-1.7c.714-.397 1.53-.595 2.448-.595.884 0 1.672.193 2.363.578a4.06 4.06 0 0 1 1.615 1.632c.386.691.578 1.49.578 2.397zm-2.023-.612c-.011-.714-.266-1.286-.765-1.717-.498-.431-1.116-.646-1.853-.646-.668 0-1.241.215-1.717.646-.476.419-.759.992-.85 1.717zm15.469 3.111h-4.947L861 114h-2.023l4.233-11.832h2.244L869.687 114h-2.04zm-.544-1.581-1.921-5.491-1.938 5.491zm4.629-.731c0-.941.193-1.774.578-2.499a4.312 4.312 0 0 1 3.859-2.295c.612 0 1.213.136 1.802.408.601.261 1.077.612 1.428 1.054v-4.522h1.955V114h-1.955v-1.411c-.317.453-.759.827-1.326 1.122-.555.295-1.196.442-1.921.442a4.28 4.28 0 0 1-2.244-.612 4.537 4.537 0 0 1-1.598-1.734c-.385-.748-.578-1.592-.578-2.533zm7.667.034c0-.646-.136-1.207-.408-1.683a2.744 2.744 0 0 0-1.037-1.088 2.739 2.739 0 0 0-1.394-.374c-.499 0-.963.125-1.394.374-.431.238-.782.595-1.054 1.071-.261.465-.391 1.02-.391 1.666 0 .646.13 1.213.391 1.7.272.487.623.861 1.054 1.122a2.8 2.8 0 0 0 1.394.374c.499 0 .963-.125 1.394-.374a2.744 2.744 0 0 0 1.037-1.088c.272-.487.408-1.054.408-1.7zm3.854-.034c0-.941.193-1.774.578-2.499a4.312 4.312 0 0 1 3.859-2.295c.612 0 1.213.136 1.802.408.601.261 1.077.612 1.428 1.054v-4.522h1.955V114h-1.955v-1.411c-.317.453-.759.827-1.326 1.122-.555.295-1.195.442-1.921.442a4.28 4.28 0 0 1-2.244-.612 4.545 4.545 0 0 1-1.598-1.734c-.385-.748-.578-1.592-.578-2.533zm7.667.034c0-.646-.136-1.207-.408-1.683a2.737 2.737 0 0 0-1.037-1.088 2.736 2.736 0 0 0-1.394-.374c-.498 0-.963.125-1.394.374-.43.238-.782.595-1.054 1.071-.26.465-.391 1.02-.391 1.666 0 .646.131 1.213.391 1.7.272.487.624.861 1.054 1.122a2.8 2.8 0 0 0 1.394.374c.499 0 .964-.125 1.394-.374a2.737 2.737 0 0 0 1.037-1.088c.272-.487.408-1.054.408-1.7zm6.439-3.315a2.995 2.995 0 0 1 1.122-1.105c.476-.272 1.037-.408 1.683-.408v2.006h-.493c-.759 0-1.337.193-1.734.578-.385.385-.578 1.054-.578 2.006V114h-1.938v-9.367h1.938zm13.171 3.094c0 .351-.022.669-.068.952h-7.157c.057.748.335 1.349.833 1.802.499.453 1.111.68 1.836.68 1.043 0 1.78-.436 2.21-1.309h2.091a4.246 4.246 0 0 1-1.547 2.125c-.736.544-1.654.816-2.754.816-.895 0-1.7-.198-2.414-.595a4.454 4.454 0 0 1-1.666-1.7c-.396-.737-.595-1.587-.595-2.55 0-.963.193-1.808.578-2.533a4.188 4.188 0 0 1 1.649-1.7c.714-.397 1.53-.595 2.448-.595.884 0 1.672.193 2.363.578a4.06 4.06 0 0 1 1.615 1.632c.386.691.578 1.49.578 2.397zm-2.023-.612c-.011-.714-.266-1.286-.765-1.717-.498-.431-1.116-.646-1.853-.646-.668 0-1.241.215-1.717.646-.476.419-.759.992-.85 1.717zm7.331 5.678c-.737 0-1.4-.13-1.989-.391-.578-.272-1.037-.635-1.377-1.088a2.748 2.748 0 0 1-.544-1.547h2.006c.034.397.221.731.561 1.003.351.261.787.391 1.309.391.544 0 .963-.102 1.258-.306.306-.215.459-.487.459-.816 0-.351-.17-.612-.51-.782-.329-.17-.856-.357-1.581-.561a15.457 15.457 0 0 1-1.717-.561 3.073 3.073 0 0 1-1.156-.833c-.318-.374-.476-.867-.476-1.479 0-.499.147-.952.442-1.36.294-.419.714-.748 1.258-.986.555-.238 1.19-.357 1.904-.357 1.065 0 1.921.272 2.567.816.657.533 1.008 1.264 1.054 2.193h-1.938c-.034-.419-.204-.754-.51-1.003-.306-.249-.72-.374-1.241-.374-.51 0-.901.096-1.173.289-.272.193-.408.448-.408.765 0 .249.09.459.272.629.181.17.402.306.663.408.26.091.646.21 1.156.357.68.181 1.235.368 1.666.561.442.181.821.453 1.139.816.317.363.481.844.493 1.445 0 .533-.148 1.009-.442 1.428-.295.419-.714.748-1.258.986-.533.238-1.162.357-1.887.357zm9.081 0c-.737 0-1.4-.13-1.989-.391-.578-.272-1.037-.635-1.377-1.088a2.748 2.748 0 0 1-.544-1.547h2.006c.034.397.221.731.561 1.003.351.261.787.391 1.309.391.544 0 .963-.102 1.258-.306.306-.215.459-.487.459-.816 0-.351-.17-.612-.51-.782-.329-.17-.856-.357-1.581-.561a15.457 15.457 0 0 1-1.717-.561 3.073 3.073 0 0 1-1.156-.833c-.318-.374-.476-.867-.476-1.479 0-.499.147-.952.442-1.36.294-.419.714-.748 1.258-.986.555-.238 1.19-.357 1.904-.357 1.065 0 1.921.272 2.567.816.657.533 1.008 1.264 1.054 2.193h-1.938c-.034-.419-.204-.754-.51-1.003-.306-.249-.72-.374-1.241-.374-.51 0-.901.096-1.173.289-.272.193-.408.448-.408.765 0 .249.09.459.272.629.181.17.402.306.663.408.26.091.646.21 1.156.357.68.181 1.235.368 1.666.561.442.181.821.453 1.139.816.317.363.481.844.493 1.445 0 .533-.148 1.009-.442 1.428-.295.419-.714.748-1.258.986-.533.238-1.162.357-1.887.357z" fill="#000" clip-path="url(#F)" transform="translate(-44)"/><rect x="803" y="80" width="60" height="10" rx="5" fill="#ffbe67" clip-path="url(#G)" transform="translate(-44)"/></g><defs><clipPath id="k"><path d="M457 216h310v160c0 5.523-4.477 10-10 10H467c-5.523 0-10-4.477-10-10z" fill="#fff"/></clipPath><clipPath id="l"><rect x="457" y="395" width="310" height="157" rx="10" fill="#fff"/></clipPath><clipPath clipPathUnits="userSpaceOnUse" id="G"><rect width="1240" height="660" rx="20" fill="#fff"/></clipPath><clipPath clipPathUnits="userSpaceOnUse" id="F"><rect width="1240" height="660" rx="20" fill="#fff"/></clipPath><clipPath clipPathUnits="userSpaceOnUse" id="E"><rect width="1240" height="660" rx="20" fill="#fff"/></clipPath><clipPath clipPathUnits="userSpaceOnUse" id="D"><rect width="1240" height="660" rx="20" fill="#fff"/></clipPath><clipPath clipPathUnits="userSpaceOnUse" id="C"><rect width="1240" height="660" rx="20" fill="#fff"/></clipPath><clipPath clipPathUnits="userSpaceOnUse" id="B"><rect width="1240" height="660" rx="20" fill="#fff"/></clipPath><clipPath clipPathUnits="userSpaceOnUse" id="A"><rect width="1240" height="660" rx="20" fill="#fff"/></clipPath><clipPath clipPathUnits="userSpaceOnUse" id="z"><rect width="1240" height="660" rx="20" fill="#fff"/></clipPath><clipPath clipPathUnits="userSpaceOnUse" id="y"><rect width="1240" height="660" rx="20" fill="#fff"/></clipPath><clipPath clipPathUnits="userSpaceOnUse" id="x"><rect width="1240" height="660" rx="20" fill="#fff"/></clipPath><clipPath clipPathUnits="userSpaceOnUse" id="w"><rect width="1240" height="660" rx="20" fill="#fff"/></clipPath><clipPath clipPathUnits="userSpaceOnUse" id="v"><rect width="1240" height="660" rx="20" fill="#fff"/></clipPath><clipPath clipPathUnits="userSpaceOnUse" id="u"><rect width="1240" height="660" rx="20" fill="#fff"/></clipPath><clipPath clipPathUnits="userSpaceOnUse" id="t"><rect width="1240" height="660" rx="20" fill="#fff"/></clipPath><clipPath clipPathUnits="userSpaceOnUse" id="s"><rect width="1240" height="660" rx="20" fill="#fff"/></clipPath><clipPath clipPathUnits="userSpaceOnUse" id="r"><rect width="1240" height="660" rx="20" fill="#fff"/></clipPath><clipPath clipPathUnits="userSpaceOnUse" id="q"><rect width="1240" height="660" rx="20" fill="#fff"/></clipPath><clipPath clipPathUnits="userSpaceOnUse" id="p"><rect width="1240" height="660" rx="20" fill="#fff"/></clipPath><clipPath clipPathUnits="userSpaceOnUse" id="o"><rect width="1240" height="660" rx="20" fill="#fff"/></clipPath><clipPath clipPathUnits="userSpaceOnUse" id="n"><rect width="1240" height="660" rx="20" fill="#fff"/></clipPath><clipPath clipPathUnits="userSpaceOnUse" id="m"><rect width="1240" height="660" rx="20" fill="#fff"/></clipPath><clipPath clipPathUnits="userSpaceOnUse" id="j"><rect width="1240" height="660" rx="20" fill="#fff"/></clipPath><clipPath clipPathUnits="userSpaceOnUse" id="i"><rect width="1240" height="660" rx="20" fill="#fff"/></clipPath><clipPath clipPathUnits="userSpaceOnUse" id="h"><rect width="1240" height="660" rx="20" fill="#fff"/></clipPath><clipPath clipPathUnits="userSpaceOnUse" id="g"><rect width="1240" height="660" rx="20" fill="#fff"/></clipPath><clipPath clipPathUnits="userSpaceOnUse" id="f"><rect width="1240" height="660" rx="20" fill="#fff"/></clipPath><clipPath clipPathUnits="userSpaceOnUse" id="e"><rect width="1240" height="660" rx="20" fill="#fff"/></clipPath><clipPath clipPathUnits="userSpaceOnUse" id="d"><rect width="1240" height="660" rx="20" fill="#fff"/></clipPath><clipPath clipPathUnits="userSpaceOnUse" id="c"><rect width="1240" height="660" rx="20" fill="#fff"/></clipPath><clipPath clipPathUnits="userSpaceOnUse" id="b"><rect width="1240" height="660" rx="20" fill="#fff"/></clipPath><clipPath clipPathUnits="userSpaceOnUse" id="a"><rect width="1240" height="660" rx="20" fill="#fff"/></clipPath></defs></svg>