<svg width="604" height="604" fill="none" xmlns="http://www.w3.org/2000/svg"><g transform="translate(-736)"><rect x="736" width="604" height="604" rx="20" fill="#ffbe67"/><rect x="827" y="59" width="282" height="487" rx="21" fill="#fff"/><rect x="827" y="59" width="282" height="487" rx="21" stroke="#c67dff" stroke-width="2"/><rect x="930" y="90" width="76" height="76" rx="38" fill="#721f6f"/><path d="M953.589 120.484v6.364h6.937v2.049h-6.937v6.555h7.756v2.048h-10.242v-19.064h10.242v2.048zm30.554-1.884v18.9h-2.486v-14.093l-6.281 14.093h-1.748l-6.31-14.121V137.5h-2.485v-18.9h2.677l6.992 15.622 6.992-15.622z" fill="#eddeff"/><path d="M911.402 186.146v3.672h4.32v1.674h-4.32v3.834h4.86V197h-6.912v-12.528h6.912v1.674zm19.033.774c.78 0 1.476.162 2.088.486.624.324 1.11.804 1.458 1.44.36.636.54 1.404.54 2.304V197h-2.034v-5.544c0-.888-.222-1.566-.666-2.034-.444-.48-1.05-.72-1.818-.72s-1.38.24-1.836.72c-.444.468-.666 1.146-.666 2.034V197h-2.034v-5.544c0-.888-.222-1.566-.666-2.034-.444-.48-1.05-.72-1.818-.72s-1.38.24-1.836.72c-.444.468-.666 1.146-.666 2.034V197h-2.052v-9.918h2.052v1.134a3.412 3.412 0 0 1 1.278-.954 4.051 4.051 0 0 1 1.656-.342c.792 0 1.5.168 2.124.504a3.445 3.445 0 0 1 1.44 1.458c.3-.6.768-1.074 1.404-1.422.636-.36 1.32-.54 2.052-.54zm7.382-1.152c-.372 0-.684-.126-.936-.378a1.271 1.271 0 0 1-.378-.936c0-.372.126-.684.378-.936s.564-.378.936-.378c.36 0 .666.126.918.378s.378.564.378.936c0 .372-.126.684-.378.936a1.25 1.25 0 0 1-.918.378zm1.008 1.314V197h-2.052v-9.918zm4.386-3.402V197h-2.052v-13.32zm11.262 3.402-6.084 14.58h-2.124l2.016-4.824-3.906-9.756h2.286l2.79 7.56 2.898-7.56zm12.326-2.592v9.018c0 1.116-.342 1.998-1.026 2.646-.672.648-1.56.972-2.664.972s-1.998-.324-2.682-.972c-.672-.648-1.008-1.53-1.008-2.646h2.07c.012.552.15.99.414 1.314.276.324.678.486 1.206.486.528 0 .93-.162 1.206-.486.276-.336.414-.774.414-1.314v-9.018zm7.28 12.672c-.936 0-1.782-.21-2.538-.63a4.67 4.67 0 0 1-1.782-1.8c-.432-.78-.648-1.68-.648-2.7 0-1.008.222-1.902.666-2.682a4.6 4.6 0 0 1 1.818-1.8c.768-.42 1.626-.63 2.574-.63s1.806.21 2.574.63a4.6 4.6 0 0 1 1.818 1.8c.444.78.666 1.674.666 2.682s-.228 1.902-.684 2.682a4.783 4.783 0 0 1-1.872 1.818c-.78.42-1.644.63-2.592.63zm0-1.782c.528 0 1.02-.126 1.476-.378.468-.252.846-.63 1.134-1.134.288-.504.432-1.116.432-1.836s-.138-1.326-.414-1.818c-.276-.504-.642-.882-1.098-1.134a3.003 3.003 0 0 0-1.476-.378c-.528 0-1.02.126-1.476.378-.444.252-.798.63-1.062 1.134-.264.492-.396 1.098-.396 1.818 0 1.068.27 1.896.81 2.484.552.576 1.242.864 2.07.864zm11.947-8.46c.756 0 1.428.162 2.016.486a3.39 3.39 0 0 1 1.404 1.44c.348.636.522 1.404.522 2.304V197h-2.034v-5.544c0-.888-.222-1.566-.666-2.034-.444-.48-1.05-.72-1.818-.72s-1.38.24-1.836.72c-.444.468-.666 1.146-.666 2.034V197h-2.052v-13.32h2.052v4.554c.348-.42.786-.744 1.314-.972a4.489 4.489 0 0 1 1.764-.342zm11.203 0c.78 0 1.476.162 2.088.486a3.466 3.466 0 0 1 1.463 1.44c.34.636.52 1.404.52 2.304V197h-2.037v-5.544c0-.888-.222-1.566-.666-2.034-.444-.48-1.05-.72-1.818-.72s-1.38.24-1.836.72c-.444.468-.666 1.146-.666 2.034V197h-2.052v-9.918h2.052v1.134a3.412 3.412 0 0 1 1.278-.954 4.178 4.178 0 0 1 1.674-.342zm9.921 10.242c-.78 0-1.48-.138-2.1-.414-.61-.288-1.1-.672-1.46-1.152a2.965 2.965 0 0 1-.58-1.638h2.13c.03.42.23.774.59 1.062.37.276.84.414 1.39.414.57 0 1.02-.108 1.33-.324.32-.228.49-.516.49-.864 0-.372-.18-.648-.54-.828-.35-.18-.91-.378-1.68-.594-.74-.204-1.35-.402-1.82-.594a3.33 3.33 0 0 1-1.22-.882c-.34-.396-.5-.918-.5-1.566 0-.528.15-1.008.46-1.44.32-.444.76-.792 1.34-1.044.58-.252 1.26-.378 2.01-.378 1.13 0 2.04.288 2.72.864.7.564 1.07 1.338 1.12 2.322h-2.06c-.03-.444-.21-.798-.54-1.062-.32-.264-.76-.396-1.31-.396-.54 0-.95.102-1.24.306a.94.94 0 0 0-.43.81c0 .264.09.486.28.666.2.18.43.324.71.432.27.096.68.222 1.22.378.72.192 1.31.39 1.76.594.47.192.87.48 1.21.864.34.384.51.894.52 1.53 0 .564-.15 1.068-.47 1.512-.31.444-.75.792-1.33 1.044-.56.252-1.23.378-2 .378zm9.96 0c-.93 0-1.78-.21-2.54-.63a4.693 4.693 0 0 1-1.78-1.8c-.43-.78-.65-1.68-.65-2.7 0-1.008.23-1.902.67-2.682.44-.78 1.05-1.38 1.82-1.8.77-.42 1.62-.63 2.57-.63.95 0 1.81.21 2.58.63.76.42 1.37 1.02 1.81 1.8.45.78.67 1.674.67 2.682s-.23 1.902-.68 2.682a4.777 4.777 0 0 1-1.88 1.818c-.78.42-1.64.63-2.59.63zm0-1.782c.53 0 1.02-.126 1.48-.378.47-.252.84-.63 1.13-1.134.29-.504.43-1.116.43-1.836s-.13-1.326-.41-1.818c-.28-.504-.64-.882-1.1-1.134a2.986 2.986 0 0 0-1.47-.378c-.53 0-1.02.126-1.48.378a2.7 2.7 0 0 0-1.06 1.134c-.27.492-.4 1.098-.4 1.818 0 1.068.27 1.896.81 2.484.55.576 1.24.864 2.07.864zm11.82-8.46c.78 0 1.48.162 2.09.486.62.324 1.11.804 1.46 1.44.35.636.52 1.404.52 2.304V197h-2.03v-5.544c0-.888-.23-1.566-.67-2.034-.44-.48-1.05-.72-1.82-.72s-1.38.24-1.83.72c-.45.468-.67 1.146-.67 2.034V197h-2.05v-9.918h2.05v1.134c.34-.408.76-.726 1.28-.954a4.159 4.159 0 0 1 1.67-.342z" fill="#000"/><rect x="849" y="238" width="238" height="71" rx="9" stroke="#eddeff" stroke-width="2"/><path d="m944.556 294-2.87-3.18V294h-.91v-6.97h.91v3.23l2.88-3.23h1.15l-3.16 3.49 3.19 3.48zm7.106-2.95c0 .173-.01.357-.03.55h-4.38c.034.54.217.963.55 1.27.34.3.75.45 1.23.45.394 0 .72-.09.98-.27.267-.187.454-.433.56-.74h.98c-.146.527-.44.957-.88 1.29-.44.327-.986.49-1.64.49-.52 0-.986-.117-1.4-.35a2.5 2.5 0 0 1-.96-.99c-.233-.433-.35-.933-.35-1.5s.114-1.063.34-1.49a2.37 2.37 0 0 1 .95-.98c.414-.233.887-.35 1.42-.35.52 0 .98.113 1.38.34.4.227.707.54.92.94.22.393.33.84.33 1.34zm-.94-.19c0-.347-.076-.643-.23-.89a1.448 1.448 0 0 0-.63-.57c-.26-.133-.55-.2-.87-.2-.46 0-.853.147-1.18.44-.32.293-.503.7-.55 1.22zm4.081 2.3 1.7-4.64h.97l-2.15 5.48h-1.06l-2.15-5.48h.98zm3.936-5.53a.597.597 0 0 1-.44-.18.599.599 0 0 1-.18-.44c0-.173.06-.32.18-.44s.266-.18.44-.18c.166 0 .306.06.42.18.12.12.18.267.18.44s-.06.32-.18.44a.557.557 0 0 1-.42.18zm.44.89V294h-.91v-5.48zm4.121-.1c.666 0 1.206.203 1.62.61.413.4.62.98.62 1.74V294h-.9v-3.1c0-.547-.137-.963-.41-1.25-.274-.293-.647-.44-1.12-.44-.48 0-.864.15-1.15.45-.28.3-.42.737-.42 1.31V294h-.91v-5.48h.91v.78c.18-.28.423-.497.73-.65.313-.153.656-.23 1.03-.23zm8.402 5.65c-.46 0-.873-.08-1.24-.24a2.12 2.12 0 0 1-.85-.68 1.772 1.772 0 0 1-.32-1.01h.97c.034.327.167.603.4.83.24.22.587.33 1.04.33.434 0 .774-.107 1.02-.32.254-.22.38-.5.38-.84 0-.267-.073-.483-.22-.65a1.4 1.4 0 0 0-.55-.38 8.461 8.461 0 0 0-.89-.28c-.46-.12-.83-.24-1.11-.36a1.849 1.849 0 0 1-.71-.56c-.193-.26-.29-.607-.29-1.04 0-.38.097-.717.29-1.01.194-.293.464-.52.81-.68.354-.16.757-.24 1.21-.24.654 0 1.187.163 1.6.49.42.327.657.76.71 1.3h-1c-.033-.267-.173-.5-.42-.7-.246-.207-.573-.31-.98-.31-.38 0-.69.1-.93.3-.24.193-.36.467-.36.82 0 .253.07.46.21.62.147.16.324.283.53.37.214.08.51.173.89.28.46.127.83.253 1.11.38.28.12.52.31.72.57.2.253.3.6.3 1.04 0 .34-.09.66-.27.96-.18.3-.446.543-.8.73-.353.187-.77.28-1.25.28zm10.149-5.65c.427 0 .807.09 1.14.27.334.173.597.437.79.79.194.353.29.783.29 1.29V294h-.9v-3.1c0-.547-.136-.963-.41-1.25-.266-.293-.63-.44-1.09-.44-.473 0-.85.153-1.13.46-.28.3-.42.737-.42 1.31V294h-.9v-3.1c0-.547-.136-.963-.41-1.25-.266-.293-.63-.44-1.09-.44-.473 0-.85.153-1.13.46-.28.3-.42.737-.42 1.31V294h-.91v-5.48h.91v.79c.18-.287.42-.507.72-.66.307-.153.644-.23 1.01-.23.46 0 .867.103 1.22.31.354.207.617.51.79.91a1.8 1.8 0 0 1 .76-.9c.354-.213.747-.32 1.18-.32zm4.083-.79a.599.599 0 0 1-.44-.18.599.599 0 0 1-.18-.44c0-.173.06-.32.18-.44s.267-.18.44-.18c.167 0 .307.06.42.18.12.12.18.267.18.44s-.06.32-.18.44a.554.554 0 0 1-.42.18zm.44.89V294h-.91v-5.48zm2.561.75v3.23c0 .267.057.457.17.57.113.107.31.16.59.16h.67v.77h-.82c-.507 0-.887-.117-1.14-.35-.253-.233-.38-.617-.38-1.15v-3.23h-.71v-.75h.71v-1.38h.91v1.38h1.43v.75zm5.153-.85c.413 0 .786.09 1.12.27.333.173.593.437.78.79.193.353.29.783.29 1.29V294h-.9v-3.1c0-.547-.137-.963-.41-1.25-.274-.293-.647-.44-1.12-.44-.48 0-.864.15-1.15.45-.28.3-.42.737-.42 1.31V294h-.91v-7.4h.91v2.7c.18-.28.426-.497.74-.65.32-.153.676-.23 1.07-.23zm-111.869 5.65c-.46 0-.873-.08-1.24-.24a2.12 2.12 0 0 1-.85-.68 1.765 1.765 0 0 1-.32-1.01h.97c.033.327.167.603.4.83.24.22.587.33 1.04.33.433 0 .773-.107 1.02-.32.253-.22.38-.5.38-.84 0-.267-.073-.483-.22-.65a1.408 1.408 0 0 0-.55-.38 8.539 8.539 0 0 0-.89-.28c-.46-.12-.83-.24-1.11-.36a1.849 1.849 0 0 1-.71-.56c-.193-.26-.29-.607-.29-1.04 0-.38.097-.717.29-1.01.193-.293.463-.52.81-.68.353-.16.757-.24 1.21-.24.653 0 1.187.163 1.6.49.42.327.657.76.71 1.3h-1c-.033-.267-.173-.5-.42-.7-.247-.207-.573-.31-.98-.31-.38 0-.69.1-.93.3-.24.193-.36.467-.36.82 0 .253.07.46.21.62.147.16.323.283.53.37.213.08.51.173.89.28.46.127.83.253 1.11.38.28.12.52.31.72.57.2.253.3.6.3 1.04 0 .34-.09.66-.27.96-.18.3-.447.543-.8.73-.353.187-.77.28-1.25.28zm8.559-3.02c0 .173-.01.357-.03.55h-4.38c.033.54.217.963.55 1.27.34.3.75.45 1.23.45.393 0 .72-.09.98-.27.267-.187.453-.433.56-.74h.98a2.38 2.38 0 0 1-.88 1.29c-.44.327-.987.49-1.64.49a2.8 2.8 0 0 1-1.4-.35 2.487 2.487 0 0 1-.96-.99c-.233-.433-.35-.933-.35-1.5s.113-1.063.34-1.49c.227-.427.543-.753.95-.98.413-.233.887-.35 1.42-.35.52 0 .98.113 1.38.34.4.227.707.54.92.94.22.393.33.84.33 1.34zm-.94-.19c0-.347-.077-.643-.23-.89a1.448 1.448 0 0 0-.63-.57c-.26-.133-.55-.2-.87-.2-.46 0-.853.147-1.18.44-.32.293-.503.7-.55 1.22zm2.951-4.26v7.4h-.91v-7.4zm3.681 2.67h-1.15V294h-.91v-4.73h-.71v-.75h.71v-.39c0-.613.157-1.06.47-1.34.32-.287.83-.43 1.53-.43v.76c-.4 0-.683.08-.85.24-.16.153-.24.41-.24.77v.39h1.15zm138.51-2.24v.74h-3.03v2.35h2.46v.74h-2.46V294h-.91v-6.97zm6 4.02c0 .173-.01.357-.03.55h-4.38c.03.54.21.963.55 1.27.34.3.75.45 1.23.45.39 0 .72-.09.98-.27.26-.187.45-.433.56-.74h.98c-.15.527-.44.957-.88 1.29-.44.327-.99.49-1.64.49-.52 0-.99-.117-1.4-.35a2.448 2.448 0 0 1-.96-.99c-.24-.433-.35-.933-.35-1.5s.11-1.063.34-1.49c.22-.427.54-.753.95-.98.41-.233.88-.35 1.42-.35.52 0 .98.113 1.38.34.4.227.7.54.92.94.22.393.33.84.33 1.34zm-.94-.19c0-.347-.08-.643-.23-.89a1.529 1.529 0 0 0-.63-.57c-.26-.133-.55-.2-.87-.2-.46 0-.86.147-1.18.44-.32.293-.51.7-.55 1.22zm8.63-2.44c.43 0 .81.09 1.14.27.33.173.6.437.79.79.19.353.29.783.29 1.29V294h-.9v-3.1c0-.547-.14-.963-.41-1.25-.27-.293-.63-.44-1.09-.44-.47 0-.85.153-1.13.46-.28.3-.42.737-.42 1.31V294h-.9v-3.1c0-.547-.14-.963-.41-1.25-.27-.293-.63-.44-1.09-.44-.47 0-.85.153-1.13.46-.28.3-.42.737-.42 1.31V294h-.91v-5.48h.91v.79c.18-.287.42-.507.72-.66.31-.153.64-.23 1.01-.23.46 0 .87.103 1.22.31.35.207.62.51.79.91.15-.387.41-.687.76-.9.35-.213.75-.32 1.18-.32zm3.27 2.82c0-.56.11-1.05.34-1.47.23-.427.54-.757.93-.99.4-.233.84-.35 1.33-.35.48 0 .9.103 1.25.31.35.207.62.467.79.78v-1h.92V294h-.92v-1.02c-.18.32-.45.587-.81.8-.35.207-.77.31-1.24.31-.49 0-.93-.12-1.32-.36s-.7-.577-.93-1.01c-.23-.433-.34-.927-.34-1.48zm4.64.01c0-.413-.08-.773-.25-1.08a1.72 1.72 0 0 0-.68-.7 1.78 1.78 0 0 0-.93-.25c-.34 0-.65.08-.93.24-.28.16-.5.393-.67.7-.17.307-.25.667-.25 1.08 0 .42.08.787.25 1.1.17.307.39.543.67.71.28.16.59.24.93.24.34 0 .65-.08.93-.24.29-.167.51-.403.68-.71.17-.313.25-.677.25-1.09zm3.27-4.65v7.4h-.91v-7.4zm6.45 4.45c0 .173-.01.357-.03.55h-4.38c.03.54.22.963.55 1.27.34.3.75.45 1.23.45.39 0 .72-.09.98-.27.27-.187.45-.433.56-.74h.98c-.15.527-.44.957-.88 1.29-.44.327-.99.49-1.64.49-.52 0-.99-.117-1.4-.35a2.448 2.448 0 0 1-.96-.99c-.23-.433-.35-.933-.35-1.5s.11-1.063.34-1.49c.23-.427.54-.753.95-.98.41-.233.89-.35 1.42-.35.52 0 .98.113 1.38.34.4.227.71.54.92.94.22.393.33.84.33 1.34zm-.94-.19c0-.347-.08-.643-.23-.89a1.416 1.416 0 0 0-.63-.57c-.26-.133-.55-.2-.87-.2-.46 0-.85.147-1.18.44-.32.293-.5.7-.55 1.22z" fill="#363636"/><g clip-path="url(#a)" stroke="#721f6f" stroke-width="1.5" stroke-linecap="round" stroke-linejoin="round"><path d="M885 263c0 .796.316 1.559.879 2.121a2.996 2.996 0 0 0 4.242 0 2.996 2.996 0 0 0 0-4.242 2.996 2.996 0 0 0-4.242 0A2.996 2.996 0 0 0 885 263Zm-3 11v-1c0-1.061.421-2.078 1.172-2.828A3.995 3.995 0 0 1 886 269h4c1.061 0 2.078.421 2.828 1.172A3.995 3.995 0 0 1 894 273v1"/><path d="M879 258a2 2 0 0 1 2-2h14a2 2 0 0 1 2 2v14a2 2 0 0 1-2 2h-14a2 2 0 0 1-2-2Z"/></g><g clip-path="url(#b)" stroke="#721f6f" stroke-width="1.5" stroke-linecap="round" stroke-linejoin="round"><path d="M962 257h-1a2 2 0 0 0-2 2v3.5a5.496 5.496 0 0 0 5.5 5.5 5.496 5.496 0 0 0 5.5-5.5V259a2 2 0 0 0-2-2h-1"/><path d="M964 268a5.99 5.99 0 0 0 1.757 4.243A6.003 6.003 0 0 0 976 268v-3m-9-9v2m-5-2v2"/><path d="M974 263a2 2 0 1 0 4.001-.001A2 2 0 0 0 974 263Z"/></g><g clip-path="url(#c)" stroke="#721f6f" stroke-width="1.5" stroke-linecap="round" stroke-linejoin="round"><path d="M1043 262a5.03 5.03 0 0 0 1.46 3.536 5.01 5.01 0 0 0 7.08 0A5.03 5.03 0 0 0 1053 262a5.03 5.03 0 0 0-1.46-3.536 5.01 5.01 0 0 0-7.08 0A5.03 5.03 0 0 0 1043 262zm5 5v7m-3-3h6"/></g><path d="M856.82 425.27V435h-1.596v-4.256h-4.578V435h-1.596v-9.73h1.596v4.172h4.578v-4.172zm2.773.994a.99.99 0 0 1-.728-.294.99.99 0 0 1-.294-.728.99.99 0 0 1 .294-.728.99.99 0 0 1 .728-.294c.28 0 .518.098.714.294a.99.99 0 0 1 .294.728.99.99 0 0 1-.294.728.972.972 0 0 1-.714.294zm.784 1.022V435h-1.596v-7.714zm4.756 7.84c-.607 0-1.153-.107-1.638-.322a2.962 2.962 0 0 1-1.134-.896 2.262 2.262 0 0 1-.448-1.274h1.652c.028.327.182.602.462.826.289.215.648.322 1.078.322.448 0 .793-.084 1.036-.252.252-.177.378-.401.378-.672 0-.289-.14-.504-.42-.644-.271-.14-.705-.294-1.302-.462a12.75 12.75 0 0 1-1.414-.462 2.53 2.53 0 0 1-.952-.686c-.262-.308-.392-.714-.392-1.218 0-.411.121-.784.364-1.12.242-.345.588-.616 1.036-.812.457-.196.98-.294 1.568-.294.877 0 1.582.224 2.114.672.541.439.83 1.041.868 1.806h-1.596a1.137 1.137 0 0 0-.42-.826c-.252-.205-.593-.308-1.022-.308-.42 0-.742.079-.966.238a.738.738 0 0 0-.336.63.68.68 0 0 0 .224.518c.149.14.331.252.546.336.214.075.532.173.952.294a9.25 9.25 0 0 1 1.372.462c.364.149.676.373.938.672.261.299.396.695.406 1.19 0 .439-.122.831-.364 1.176-.243.345-.588.616-1.036.812-.439.196-.957.294-1.554.294zm6.4-6.538v4.27c0 .289.065.499.196.63.14.121.373.182.7.182h.98V435h-1.26c-.719 0-1.269-.168-1.652-.504-.383-.336-.574-.882-.574-1.638v-4.27h-.91v-1.302h.91v-1.918h1.61v1.918h1.876v1.302zm6.553 6.538c-.728 0-1.386-.163-1.974-.49a3.635 3.635 0 0 1-1.386-1.4c-.336-.607-.504-1.307-.504-2.1 0-.784.173-1.479.518-2.086a3.578 3.578 0 0 1 1.414-1.4c.597-.327 1.265-.49 2.002-.49.737 0 1.405.163 2.002.49a3.578 3.578 0 0 1 1.414 1.4c.345.607.518 1.302.518 2.086 0 .784-.177 1.479-.532 2.086a3.72 3.72 0 0 1-1.456 1.414 4.182 4.182 0 0 1-2.016.49zm0-1.386c.411 0 .793-.098 1.148-.294.364-.196.658-.49.882-.882.224-.392.336-.868.336-1.428 0-.56-.107-1.031-.322-1.414a2.164 2.164 0 0 0-.854-.882 2.335 2.335 0 0 0-1.148-.294c-.411 0-.793.098-1.148.294-.345.196-.621.49-.826.882-.205.383-.308.854-.308 1.414 0 .831.21 1.475.63 1.932.429.448.966.672 1.61.672zm7.038-5.334c.233-.392.541-.695.924-.91.392-.224.854-.336 1.386-.336v1.652h-.406c-.626 0-1.102.159-1.428.476-.318.317-.476.868-.476 1.652V435h-1.596v-7.714h1.596zm10.581-1.12-4.732 11.34h-1.652l1.568-3.752-3.038-7.588h1.778l2.17 5.88 2.254-5.88z" fill="#560153"/><rect x="848" y="451" width="83" height="28" rx="7" fill="#d9ddff"/><path d="M871.868 467.14h-3.648l-.672 1.86h-1.152l3.024-8.316h1.26l3.012 8.316h-1.152zm-.312-.888-1.512-4.224-1.512 4.224zm5.662 2.856c-.504 0-.956-.084-1.356-.252a2.356 2.356 0 0 1-.948-.72 1.946 1.946 0 0 1-.384-1.068h1.128c.032.328.184.596.456.804.28.208.644.312 1.092.312.416 0 .744-.092.984-.276.24-.184.36-.416.36-.696 0-.288-.128-.5-.384-.636-.256-.144-.652-.284-1.188-.42a9.777 9.777 0 0 1-1.2-.384 2.279 2.279 0 0 1-.792-.588c-.216-.264-.324-.608-.324-1.032 0-.336.1-.644.3-.924.2-.28.484-.5.852-.66a3.003 3.003 0 0 1 1.26-.252c.728 0 1.316.184 1.764.552.448.368.688.872.72 1.512h-1.092a1.12 1.12 0 0 0-.42-.828c-.248-.208-.584-.312-1.008-.312-.392 0-.704.084-.936.252a.779.779 0 0 0-.348.66c0 .216.068.396.204.54.144.136.32.248.528.336.216.08.512.172.888.276.472.128.856.256 1.152.384.296.12.548.304.756.552.216.248.328.572.336.972 0 .36-.1.684-.3.972-.2.288-.484.516-.852.684-.36.16-.776.24-1.248.24zm5.153-5.784v3.876c0 .32.068.548.204.684.136.128.372.192.708.192h.804V469h-.984c-.608 0-1.064-.14-1.368-.42-.304-.28-.456-.74-.456-1.38v-3.876h-.852v-.9h.852v-1.656h1.092v1.656h1.716v.9zm6.184-1.02c.496 0 .944.108 1.344.324.4.208.712.524.936.948.232.424.348.94.348 1.548V469h-1.08v-3.72c0-.656-.164-1.156-.492-1.5-.328-.352-.776-.528-1.344-.528-.576 0-1.036.18-1.38.54-.336.36-.504.884-.504 1.572V469h-1.092v-8.88h1.092v3.24a2.16 2.16 0 0 1 .888-.78 2.933 2.933 0 0 1 1.284-.276zm12.199 0c.512 0 .968.108 1.368.324.4.208.716.524.948.948.232.424.348.94.348 1.548V469h-1.08v-3.72c0-.656-.164-1.156-.492-1.5-.32-.352-.756-.528-1.308-.528-.568 0-1.02.184-1.356.552-.336.36-.504.884-.504 1.572V469h-1.08v-3.72c0-.656-.164-1.156-.492-1.5-.32-.352-.756-.528-1.308-.528-.568 0-1.02.184-1.356.552-.336.36-.504.884-.504 1.572V469h-1.092v-6.576h1.092v.948c.216-.344.504-.608.864-.792a2.672 2.672 0 0 1 1.212-.276c.552 0 1.04.124 1.464.372.424.248.74.612.948 1.092.184-.464.488-.824.912-1.08a2.687 2.687 0 0 1 1.416-.384zm3.928 3.384c0-.672.136-1.26.408-1.764a2.964 2.964 0 0 1 1.116-1.188 3.11 3.11 0 0 1 1.596-.42c.576 0 1.076.124 1.5.372.424.248.74.56.948.936v-1.2h1.104V469h-1.104v-1.224c-.216.384-.54.704-.972.96-.424.248-.92.372-1.488.372a2.98 2.98 0 0 1-1.584-.432 3.03 3.03 0 0 1-1.116-1.212c-.272-.52-.408-1.112-.408-1.776zm5.568.012c0-.496-.1-.928-.3-1.296a2.065 2.065 0 0 0-.816-.84 2.14 2.14 0 0 0-1.116-.3c-.408 0-.78.096-1.116.288a2.09 2.09 0 0 0-.804.84c-.2.368-.3.8-.3 1.296 0 .504.1.944.3 1.32.2.368.468.652.804.852a2.21 2.21 0 0 0 1.116.288c.408 0 .78-.096 1.116-.288.344-.2.616-.484.816-.852.2-.376.3-.812.3-1.308z" fill="#560153"/><rect x="848" y="487" width="145" height="28" rx="7" fill="#d9ddff"/><path d="M866.516 500.812c0-.816.184-1.548.552-2.196a4.012 4.012 0 0 1 1.5-1.536 4.185 4.185 0 0 1 2.124-.552c.912 0 1.708.22 2.388.66.68.44 1.176 1.064 1.488 1.872h-1.308a2.614 2.614 0 0 0-1.008-1.164c-.432-.272-.952-.408-1.56-.408a3.05 3.05 0 0 0-1.572.408c-.464.272-.828.66-1.092 1.164-.264.496-.396 1.08-.396 1.752 0 .664.132 1.248.396 1.752.264.496.628.88 1.092 1.152a3.05 3.05 0 0 0 1.572.408c.608 0 1.128-.132 1.56-.396.44-.272.776-.66 1.008-1.164h1.308c-.312.8-.808 1.42-1.488 1.86-.68.432-1.476.648-2.388.648-.776 0-1.484-.18-2.124-.54a4.035 4.035 0 0 1-1.5-1.524c-.368-.648-.552-1.38-.552-2.196zm12.822-2.508c.496 0 .944.108 1.344.324.4.208.712.524.936.948.232.424.348.94.348 1.548V505h-1.08v-3.72c0-.656-.164-1.156-.492-1.5-.328-.352-.776-.528-1.344-.528-.576 0-1.036.18-1.38.54-.336.36-.504.884-.504 1.572V505h-1.092v-8.88h1.092v3.24a2.16 2.16 0 0 1 .888-.78 2.933 2.933 0 0 1 1.284-.276zm5.383 1.188c.192-.376.464-.668.816-.876.36-.208.796-.312 1.308-.312v1.128h-.288c-1.224 0-1.836.664-1.836 1.992V505h-1.092v-6.576h1.092zm6.133 5.616a3.4 3.4 0 0 1-1.68-.42 3.053 3.053 0 0 1-1.176-1.188c-.28-.52-.42-1.12-.42-1.8 0-.672.144-1.264.432-1.776.296-.52.696-.916 1.2-1.188a3.424 3.424 0 0 1 1.692-.42c.624 0 1.188.14 1.692.42.504.272.9.664 1.188 1.176.296.512.444 1.108.444 1.788 0 .68-.152 1.28-.456 1.8a3.09 3.09 0 0 1-1.212 1.188c-.512.28-1.08.42-1.704.42zm0-.96c.392 0 .76-.092 1.104-.276.344-.184.62-.46.828-.828.216-.368.324-.816.324-1.344 0-.528-.104-.976-.312-1.344a2.003 2.003 0 0 0-.816-.816 2.237 2.237 0 0 0-1.092-.276c-.4 0-.768.092-1.104.276a1.951 1.951 0 0 0-.792.816c-.2.368-.3.816-.3 1.344 0 .536.096.988.288 1.356.2.368.464.644.792.828.328.176.688.264 1.08.264zm7.892-5.844c.8 0 1.448.244 1.944.732.496.48.744 1.176.744 2.088V505h-1.08v-3.72c0-.656-.164-1.156-.492-1.5-.328-.352-.776-.528-1.344-.528-.576 0-1.036.18-1.38.54-.336.36-.504.884-.504 1.572V505h-1.092v-6.576h1.092v.936c.216-.336.508-.596.876-.78a2.774 2.774 0 0 1 1.236-.276zm4.915-.948a.718.718 0 0 1-.528-.216.718.718 0 0 1-.216-.528c0-.208.072-.384.216-.528a.718.718 0 0 1 .528-.216c.2 0 .368.072.504.216.144.144.216.32.216.528a.718.718 0 0 1-.216.528.666.666 0 0 1-.504.216zm.528 1.068V505h-1.092v-6.576zm1.334 3.276c0-.68.136-1.272.408-1.776a2.938 2.938 0 0 1 1.128-1.188c.488-.28 1.044-.42 1.668-.42.808 0 1.472.196 1.992.588.528.392.876.936 1.044 1.632h-1.176a1.679 1.679 0 0 0-.66-.948c-.32-.232-.72-.348-1.2-.348-.624 0-1.128.216-1.512.648-.384.424-.576 1.028-.576 1.812 0 .792.192 1.404.576 1.836.384.432.888.648 1.512.648.48 0 .88-.112 1.2-.336.32-.224.54-.544.66-.96h1.176a2.921 2.921 0 0 1-1.056 1.62c-.528.4-1.188.6-1.98.6-.624 0-1.18-.14-1.668-.42a2.938 2.938 0 0 1-1.128-1.188c-.272-.512-.408-1.112-.408-1.8zm18.564-3.396c.512 0 .968.108 1.368.324.4.208.716.524.948.948.232.424.348.94.348 1.548V505h-1.08v-3.72c0-.656-.164-1.156-.492-1.5-.32-.352-.756-.528-1.308-.528-.568 0-1.02.184-1.356.552-.336.36-.504.884-.504 1.572V505h-1.08v-3.72c0-.656-.164-1.156-.492-1.5-.32-.352-.756-.528-1.308-.528-.568 0-1.02.184-1.356.552-.336.36-.504.884-.504 1.572V505h-1.092v-6.576h1.092v.948c.216-.344.504-.608.864-.792a2.672 2.672 0 0 1 1.212-.276c.552 0 1.04.124 1.464.372.424.248.74.612.948 1.092.184-.464.488-.824.912-1.08a2.687 2.687 0 0 1 1.416-.384zm4.899-.948a.718.718 0 0 1-.528-.216.718.718 0 0 1-.216-.528c0-.208.072-.384.216-.528a.718.718 0 0 1 .528-.216c.2 0 .368.072.504.216.144.144.216.32.216.528a.718.718 0 0 1-.216.528.666.666 0 0 1-.504.216zm.528 1.068V505h-1.092v-6.576zm4.453-.108c.568 0 1.064.124 1.488.372.432.248.752.56.96.936v-1.2h1.104v6.72c0 .6-.128 1.132-.384 1.596-.256.472-.624.84-1.104 1.104-.472.264-1.024.396-1.656.396-.864 0-1.584-.204-2.16-.612a2.392 2.392 0 0 1-1.02-1.668h1.08c.12.4.368.72.744.96.376.248.828.372 1.356.372.6 0 1.088-.188 1.464-.564.384-.376.576-.904.576-1.584v-1.38a2.628 2.628 0 0 1-.96.96c-.424.256-.92.384-1.488.384a3.043 3.043 0 0 1-1.596-.432 3.03 3.03 0 0 1-1.116-1.212c-.272-.52-.408-1.112-.408-1.776 0-.672.136-1.26.408-1.764a2.964 2.964 0 0 1 1.116-1.188 3.11 3.11 0 0 1 1.596-.42zm2.448 3.384c0-.496-.1-.928-.3-1.296a2.065 2.065 0 0 0-.816-.84 2.14 2.14 0 0 0-1.116-.3c-.408 0-.78.096-1.116.288a2.09 2.09 0 0 0-.804.84c-.2.368-.3.8-.3 1.296 0 .504.1.944.3 1.32.2.368.468.652.804.852a2.21 2.21 0 0 0 1.116.288c.408 0 .78-.096 1.116-.288.344-.2.616-.484.816-.852.2-.376.3-.812.3-1.308zm3.922-2.208c.192-.376.464-.668.816-.876.36-.208.796-.312 1.308-.312v1.128h-.288c-1.224 0-1.836.664-1.836 1.992V505h-1.092v-6.576h1.092zm2.856 2.196c0-.672.136-1.26.408-1.764a2.964 2.964 0 0 1 1.116-1.188 3.11 3.11 0 0 1 1.596-.42c.576 0 1.076.124 1.5.372.424.248.74.56.948.936v-1.2h1.104V505h-1.104v-1.224c-.216.384-.54.704-.972.96-.424.248-.92.372-1.488.372a2.98 2.98 0 0 1-1.584-.432 3.03 3.03 0 0 1-1.116-1.212c-.272-.52-.408-1.112-.408-1.776zm5.568.012c0-.496-.1-.928-.3-1.296a2.065 2.065 0 0 0-.816-.84 2.14 2.14 0 0 0-1.116-.3c-.408 0-.78.096-1.116.288a2.09 2.09 0 0 0-.804.84c-.2.368-.3.8-.3 1.296 0 .504.1.944.3 1.32.2.368.468.652.804.852a2.21 2.21 0 0 0 1.116.288c.408 0 .78-.096 1.116-.288.344-.2.616-.484.816-.852.2-.376.3-.812.3-1.308zm3.394-4.344a.718.718 0 0 1-.528-.216.718.718 0 0 1-.216-.528c0-.208.072-.384.216-.528a.718.718 0 0 1 .528-.216c.2 0 .368.072.504.216.144.144.216.32.216.528a.718.718 0 0 1-.216.528.666.666 0 0 1-.504.216zm.528 1.068V505h-1.092v-6.576zm4.945-.12c.8 0 1.448.244 1.944.732.496.48.744 1.176.744 2.088V505h-1.08v-3.72c0-.656-.164-1.156-.492-1.5-.328-.352-.776-.528-1.344-.528-.576 0-1.036.18-1.38.54-.336.36-.504.884-.504 1.572V505h-1.092v-6.576h1.092v.936c.216-.336.508-.596.876-.78a2.774 2.774 0 0 1 1.236-.276zm10.351 3.156c0 .208-.012.428-.036.66h-5.256c.04.648.26 1.156.66 1.524.408.36.9.54 1.476.54.472 0 .864-.108 1.176-.324.32-.224.544-.52.672-.888h1.176a2.856 2.856 0 0 1-1.056 1.548c-.528.392-1.184.588-1.968.588-.624 0-1.184-.14-1.68-.42a2.995 2.995 0 0 1-1.152-1.188c-.28-.52-.42-1.12-.42-1.8 0-.68.136-1.276.408-1.788a2.836 2.836 0 0 1 1.14-1.176c.496-.28 1.064-.42 1.704-.42.624 0 1.176.136 1.656.408.48.272.848.648 1.104 1.128.264.472.396 1.008.396 1.608zm-1.128-.228c0-.416-.092-.772-.276-1.068a1.737 1.737 0 0 0-.756-.684c-.312-.16-.66-.24-1.044-.24-.552 0-1.024.176-1.416.528-.384.352-.604.84-.66 1.464zm4.778 3.876c-.504 0-.956-.084-1.356-.252a2.356 2.356 0 0 1-.948-.72 1.946 1.946 0 0 1-.384-1.068h1.128c.032.328.184.596.456.804.28.208.644.312 1.092.312.416 0 .744-.092.984-.276.24-.184.36-.416.36-.696 0-.288-.128-.5-.384-.636-.256-.144-.652-.284-1.188-.42a9.777 9.777 0 0 1-1.2-.384 2.279 2.279 0 0 1-.792-.588c-.216-.264-.324-.608-.324-1.032 0-.336.1-.644.3-.924.2-.28.484-.5.852-.66a3.003 3.003 0 0 1 1.26-.252c.728 0 1.316.184 1.764.552.448.368.688.872.72 1.512h-1.092a1.12 1.12 0 0 0-.42-.828c-.248-.208-.584-.312-1.008-.312-.392 0-.704.084-.936.252a.779.779 0 0 0-.348.66c0 .216.068.396.204.54.144.136.32.248.528.336.216.08.512.172.888.276.472.128.856.256 1.152.384.296.12.548.304.756.552.216.248.328.572.336.972 0 .36-.1.684-.3.972-.2.288-.484.516-.852.684-.36.16-.776.24-1.248.24z" fill="#560153"/><rect x="939" y="451" width="86" height="28" rx="7" fill="#d9ddff"/><path d="M962.868 467.14h-3.648l-.672 1.86h-1.152l3.024-8.316h1.26l3.012 8.316h-1.152zm-.312-.888-1.512-4.224-1.512 4.224zm4.426-6.132V469h-1.092v-8.88zm2.833 0V469h-1.092v-8.88zm7.741 5.34c0 .208-.012.428-.036.66h-5.256c.04.648.26 1.156.66 1.524.408.36.9.54 1.476.54.472 0 .864-.108 1.176-.324.32-.224.544-.52.672-.888h1.176a2.856 2.856 0 0 1-1.056 1.548c-.528.392-1.184.588-1.968.588-.624 0-1.184-.14-1.68-.42a2.995 2.995 0 0 1-1.152-1.188c-.28-.52-.42-1.12-.42-1.8 0-.68.136-1.276.408-1.788a2.836 2.836 0 0 1 1.14-1.176c.496-.28 1.064-.42 1.704-.42.624 0 1.176.136 1.656.408.48.272.848.648 1.104 1.128.264.472.396 1.008.396 1.608zm-1.128-.228c0-.416-.092-.772-.276-1.068a1.737 1.737 0 0 0-.756-.684c-.312-.16-.66-.24-1.044-.24-.552 0-1.024.176-1.416.528-.384.352-.604.84-.66 1.464zm3.542-1.74c.192-.376.464-.668.816-.876.36-.208.796-.312 1.308-.312v1.128h-.288c-1.224 0-1.836.664-1.836 1.992V469h-1.092v-6.576h1.092zm5.976-1.176c.568 0 1.064.124 1.488.372.432.248.752.56.96.936v-1.2h1.104v6.72c0 .6-.128 1.132-.384 1.596-.256.472-.624.84-1.104 1.104-.472.264-1.024.396-1.656.396-.864 0-1.584-.204-2.16-.612a2.392 2.392 0 0 1-1.02-1.668h1.08c.12.4.368.72.744.96.376.248.828.372 1.356.372.6 0 1.088-.188 1.464-.564.384-.376.576-.904.576-1.584v-1.38a2.628 2.628 0 0 1-.96.96c-.424.256-.92.384-1.488.384a3.043 3.043 0 0 1-1.596-.432 3.03 3.03 0 0 1-1.116-1.212c-.272-.52-.408-1.112-.408-1.776 0-.672.136-1.26.408-1.764a2.964 2.964 0 0 1 1.116-1.188 3.11 3.11 0 0 1 1.596-.42zm2.448 3.384c0-.496-.1-.928-.3-1.296a2.065 2.065 0 0 0-.816-.84 2.14 2.14 0 0 0-1.116-.3c-.408 0-.78.096-1.116.288a2.09 2.09 0 0 0-.804.84c-.2.368-.3.8-.3 1.296 0 .504.1.944.3 1.32.2.368.468.652.804.852a2.21 2.21 0 0 0 1.116.288c.408 0 .78-.096 1.116-.288.344-.2.616-.484.816-.852.2-.376.3-.812.3-1.308zm3.394-4.344a.718.718 0 0 1-.528-.216.718.718 0 0 1-.216-.528c0-.208.072-.384.216-.528a.718.718 0 0 1 .528-.216c.2 0 .368.072.504.216.144.144.216.32.216.528a.718.718 0 0 1-.216.528.666.666 0 0 1-.504.216zm.528 1.068V469h-1.092v-6.576zm7.744 3.036c0 .208-.02.428-.04.66h-5.255c.04.648.26 1.156.66 1.524.408.36.9.54 1.476.54.472 0 .864-.108 1.176-.324.32-.224.544-.52.672-.888h1.176a2.856 2.856 0 0 1-1.056 1.548c-.528.392-1.184.588-1.968.588-.624 0-1.184-.14-1.68-.42a2.995 2.995 0 0 1-1.152-1.188c-.28-.52-.42-1.12-.42-1.8 0-.68.136-1.276.408-1.788a2.836 2.836 0 0 1 1.14-1.176c.496-.28 1.064-.42 1.704-.42.624 0 1.176.136 1.656.408.48.272.848.648 1.104 1.128.264.472.399 1.008.399 1.608zm-1.131-.228c0-.416-.092-.772-.276-1.068a1.737 1.737 0 0 0-.756-.684c-.312-.16-.66-.24-1.044-.24-.552 0-1.024.176-1.416.528-.384.352-.604.84-.66 1.464zm4.781 3.876c-.51 0-.96-.084-1.36-.252-.4-.176-.72-.416-.95-.72a1.927 1.927 0 0 1-.38-1.068h1.13c.03.328.18.596.45.804.28.208.65.312 1.09.312.42 0 .75-.092.99-.276.24-.184.36-.416.36-.696 0-.288-.13-.5-.39-.636-.25-.144-.65-.284-1.18-.42a9.556 9.556 0 0 1-1.2-.384 2.308 2.308 0 0 1-.8-.588c-.21-.264-.32-.608-.32-1.032 0-.336.1-.644.3-.924.2-.28.48-.5.85-.66.37-.168.79-.252 1.26-.252.73 0 1.32.184 1.77.552.44.368.68.872.72 1.512h-1.1c-.02-.344-.16-.62-.42-.828-.24-.208-.58-.312-1-.312-.4 0-.71.084-.94.252a.786.786 0 0 0-.35.66c0 .216.07.396.21.54.14.136.32.248.52.336.22.08.52.172.89.276.47.128.86.256 1.15.384.3.12.55.304.76.552.22.248.33.572.34.972 0 .36-.1.684-.3.972-.2.288-.49.516-.86.684-.36.16-.77.24-1.24.24z" fill="#560153"/><rect x="1001" y="487" width="87" height="28" rx="7" fill="#d9ddff"/><path d="M1022.58 505.084c-.56 0-1.05-.096-1.49-.288a2.57 2.57 0 0 1-1.02-.816 2.124 2.124 0 0 1-.39-1.212h1.17c.04.392.2.724.48.996.29.264.7.396 1.25.396.52 0 .92-.128 1.22-.384.3-.264.46-.6.46-1.008 0-.32-.09-.58-.27-.78-.17-.2-.39-.352-.66-.456a9.917 9.917 0 0 0-1.07-.336 9.945 9.945 0 0 1-1.33-.432 2.191 2.191 0 0 1-.85-.672c-.23-.312-.35-.728-.35-1.248 0-.456.12-.86.35-1.212.23-.352.56-.624.97-.816.43-.192.91-.288 1.45-.288.79 0 1.43.196 1.92.588.51.392.79.912.86 1.56h-1.2c-.04-.32-.21-.6-.51-.84-.29-.248-.69-.372-1.17-.372-.46 0-.83.12-1.12.36-.29.232-.43.56-.43.984 0 .304.08.552.25.744.18.192.39.34.64.444.25.096.61.208 1.06.336.56.152 1 .304 1.34.456.33.144.62.372.86.684.24.304.36.72.36 1.248 0 .408-.11.792-.32 1.152-.22.36-.54.652-.96.876-.43.224-.93.336-1.5.336zm3.86-3.384c0-.68.13-1.272.41-1.776.27-.512.64-.908 1.12-1.188.49-.28 1.05-.42 1.67-.42.81 0 1.47.196 1.99.588.53.392.88.936 1.05 1.632h-1.18a1.66 1.66 0 0 0-.66-.948c-.32-.232-.72-.348-1.2-.348-.62 0-1.13.216-1.51.648-.38.424-.58 1.028-.58 1.812 0 .792.2 1.404.58 1.836.38.432.89.648 1.51.648.48 0 .88-.112 1.2-.336.32-.224.54-.544.66-.96h1.18c-.18.672-.53 1.212-1.06 1.62-.53.4-1.19.6-1.98.6-.62 0-1.18-.14-1.67-.42-.48-.28-.85-.676-1.12-1.188-.28-.512-.41-1.112-.41-1.8zm10.44 3.408c-.61 0-1.17-.14-1.68-.42-.49-.28-.88-.676-1.17-1.188-.28-.52-.42-1.12-.42-1.8 0-.672.14-1.264.43-1.776.3-.52.7-.916 1.2-1.188.5-.28 1.07-.42 1.69-.42.63 0 1.19.14 1.69.42.51.272.9.664 1.19 1.176.3.512.45 1.108.45 1.788 0 .68-.16 1.28-.46 1.8-.3.512-.7.908-1.21 1.188-.51.28-1.08.42-1.71.42zm0-.96c.4 0 .76-.092 1.11-.276.34-.184.62-.46.83-.828.21-.368.32-.816.32-1.344 0-.528-.1-.976-.31-1.344a2 2 0 0 0-.82-.816c-.33-.184-.7-.276-1.09-.276-.4 0-.77.092-1.1.276-.33.176-.6.448-.8.816-.2.368-.3.816-.3 1.344 0 .536.1.988.29 1.356.2.368.47.644.79.828.33.176.69.264 1.08.264zm5.78-8.028V505h-1.09v-8.88zm2.31 1.236a.713.713 0 0 1-.53-.216.738.738 0 0 1-.22-.528c0-.208.08-.384.22-.528a.713.713 0 0 1 .53-.216c.2 0 .37.072.5.216a.7.7 0 0 1 .22.528.7.7 0 0 1-.22.528.648.648 0 0 1-.5.216zm.53 1.068V505h-1.1v-6.576zm4.61 6.684c-.62 0-1.18-.14-1.68-.42a3.05 3.05 0 0 1-1.18-1.188c-.28-.52-.42-1.12-.42-1.8 0-.672.14-1.264.43-1.776.3-.52.7-.916 1.2-1.188.51-.28 1.07-.42 1.69-.42.63 0 1.19.14 1.7.42.5.272.9.664 1.18 1.176.3.512.45 1.108.45 1.788 0 .68-.15 1.28-.46 1.8-.29.512-.7.908-1.21 1.188-.51.28-1.08.42-1.7.42zm0-.96c.39 0 .76-.092 1.1-.276.34-.184.62-.46.83-.828.21-.368.32-.816.32-1.344 0-.528-.1-.976-.31-1.344a2 2 0 0 0-.82-.816c-.33-.184-.7-.276-1.09-.276-.4 0-.77.092-1.1.276-.33.176-.59.448-.79.816-.2.368-.3.816-.3 1.344 0 .536.09.988.28 1.356.2.368.47.644.8.828.32.176.68.264 1.08.264zm7.01.96c-.5 0-.95-.084-1.35-.252-.4-.176-.72-.416-.95-.72a2.017 2.017 0 0 1-.39-1.068h1.13c.03.328.19.596.46.804.28.208.64.312 1.09.312.42 0 .74-.092.98-.276.24-.184.36-.416.36-.696 0-.288-.12-.5-.38-.636-.26-.144-.65-.284-1.19-.42a9.556 9.556 0 0 1-1.2-.384c-.3-.136-.57-.332-.79-.588-.22-.264-.32-.608-.32-1.032 0-.336.1-.644.3-.924.2-.28.48-.5.85-.66.37-.168.79-.252 1.26-.252.73 0 1.31.184 1.76.552.45.368.69.872.72 1.512h-1.09c-.02-.344-.16-.62-.42-.828-.25-.208-.58-.312-1.01-.312-.39 0-.7.084-.93.252a.762.762 0 0 0-.35.66c0 .216.07.396.2.54.15.136.32.248.53.336.22.08.51.172.89.276.47.128.85.256 1.15.384.3.12.55.304.76.552.21.248.32.572.33.972 0 .36-.1.684-.3.972-.2.288-.48.516-.85.684-.36.16-.78.24-1.25.24zm4.39-7.752a.713.713 0 0 1-.53-.216.738.738 0 0 1-.22-.528c0-.208.08-.384.22-.528a.713.713 0 0 1 .53-.216c.2 0 .37.072.5.216a.7.7 0 0 1 .22.528.7.7 0 0 1-.22.528.648.648 0 0 1-.5.216zm.53 1.068V505h-1.1v-6.576zm4.06 6.684c-.5 0-.95-.084-1.35-.252-.4-.176-.72-.416-.95-.72a1.927 1.927 0 0 1-.38-1.068h1.12c.04.328.19.596.46.804.28.208.64.312 1.09.312.42 0 .75-.092.99-.276.24-.184.36-.416.36-.696 0-.288-.13-.5-.39-.636-.25-.144-.65-.284-1.19-.42-.48-.128-.88-.256-1.2-.384-.3-.136-.56-.332-.79-.588-.21-.264-.32-.608-.32-1.032 0-.336.1-.644.3-.924.2-.28.48-.5.85-.66.37-.168.79-.252 1.26-.252.73 0 1.32.184 1.76.552.45.368.69.872.72 1.512h-1.09c-.02-.344-.16-.62-.42-.828-.25-.208-.58-.312-1.01-.312-.39 0-.7.084-.93.252a.786.786 0 0 0-.35.66c0 .216.07.396.2.54.15.136.32.248.53.336.22.08.51.172.89.276.47.128.86.256 1.15.384.3.12.55.304.76.552.21.248.33.572.33.972 0 .36-.1.684-.3.972-.2.288-.48.516-.85.684-.36.16-.77.24-1.25.24zM852.228 333.27c1.036 0 1.941.201 2.716.602a4.15 4.15 0 0 1 1.806 1.708c.429.737.644 1.601.644 2.59 0 .989-.215 1.848-.644 2.576a4.198 4.198 0 0 1-1.806 1.68c-.775.383-1.68.574-2.716.574h-3.178v-9.73zm0 8.428c1.139 0 2.011-.308 2.618-.924.607-.616.91-1.484.91-2.604 0-1.129-.303-2.011-.91-2.646-.607-.635-1.479-.952-2.618-.952h-1.582v7.126zm13.678-2.744c0 .289-.019.551-.056.784h-5.894c.046.616.275 1.111.686 1.484.41.373.914.56 1.512.56.858 0 1.465-.359 1.82-1.078h1.722a3.502 3.502 0 0 1-1.274 1.75c-.607.448-1.363.672-2.268.672-.738 0-1.4-.163-1.988-.49a3.662 3.662 0 0 1-1.372-1.4c-.327-.607-.49-1.307-.49-2.1 0-.793.158-1.489.476-2.086a3.438 3.438 0 0 1 1.358-1.4c.588-.327 1.26-.49 2.016-.49.728 0 1.376.159 1.946.476a3.354 3.354 0 0 1 1.33 1.344c.317.569.476 1.227.476 1.974zm-1.666-.504c-.01-.588-.22-1.059-.63-1.414-.411-.355-.92-.532-1.526-.532-.551 0-1.022.177-1.414.532-.392.345-.626.817-.7 1.414zm4.958-1.862v4.27c0 .289.066.499.196.63.14.121.374.182.7.182h.98V343h-1.26c-.718 0-1.269-.168-1.652-.504-.382-.336-.574-.882-.574-1.638v-4.27h-.91v-1.302h.91v-1.918h1.61v1.918h1.876v1.302zm2.675 2.52c0-.775.159-1.461.476-2.058a3.567 3.567 0 0 1 1.316-1.386 3.525 3.525 0 0 1 1.848-.504c.607 0 1.134.121 1.582.364.458.233.822.527 1.092.882v-1.12h1.61V343h-1.61v-1.148c-.27.364-.639.667-1.106.91-.466.243-.998.364-1.596.364a3.43 3.43 0 0 1-1.82-.504 3.744 3.744 0 0 1-1.316-1.428c-.317-.616-.476-1.311-.476-2.086zm6.314.028c0-.532-.112-.994-.336-1.386a2.252 2.252 0 0 0-2.002-1.204c-.41 0-.793.103-1.148.308a2.26 2.26 0 0 0-.868.882c-.214.383-.322.84-.322 1.372 0 .532.108.999.322 1.4.224.401.514.709.868.924.364.205.747.308 1.148.308a2.252 2.252 0 0 0 2.002-1.204c.224-.401.336-.868.336-1.4zm4.379-4.872a.988.988 0 0 1-.728-.294.99.99 0 0 1-.294-.728.99.99 0 0 1 .294-.728.988.988 0 0 1 .728-.294c.28 0 .518.098.714.294a.99.99 0 0 1 .294.728.99.99 0 0 1-.294.728.972.972 0 0 1-.714.294zm.784 1.022V343h-1.596v-7.714zm3.551-2.646V343h-1.596v-10.36zm4.755 10.486a4.007 4.007 0 0 1-1.638-.322 2.962 2.962 0 0 1-1.134-.896 2.27 2.27 0 0 1-.448-1.274h1.652c.028.327.182.602.462.826.29.215.649.322 1.078.322.448 0 .794-.084 1.036-.252.252-.177.378-.401.378-.672 0-.289-.14-.504-.42-.644-.27-.14-.704-.294-1.302-.462a12.82 12.82 0 0 1-1.414-.462 2.537 2.537 0 0 1-.952-.686c-.261-.308-.392-.714-.392-1.218 0-.411.122-.784.364-1.12.243-.345.588-.616 1.036-.812.458-.196.98-.294 1.568-.294.878 0 1.582.224 2.114.672.542.439.831 1.041.868 1.806h-1.596a1.137 1.137 0 0 0-.42-.826c-.252-.205-.592-.308-1.022-.308-.42 0-.742.079-.966.238a.738.738 0 0 0-.336.63c0 .205.075.378.224.518.15.14.332.252.546.336.215.075.532.173.952.294a9.21 9.21 0 0 1 1.372.462c.364.149.677.373.938.672.262.299.397.695.406 1.19 0 .439-.121.831-.364 1.176-.242.345-.588.616-1.036.812-.438.196-.956.294-1.554.294z" fill="#560153"/><rect x="848" y="359" width="190" height="12" rx="6" fill="#f2f2f2"/><rect x="848" y="378" width="140" height="12" rx="6" fill="#f2f2f2"/><rect x="848" y="397" width="120" height="12" rx="6" fill="#f2f2f2"/><rect x="938" y="207" width="60" height="10" rx="5" fill="#f2f2f2"/><rect x="1055" y="109" width="122" height="146" rx="16" fill="#ffbe67"/><rect x="1055" y="109" width="122" height="146" rx="16" stroke="#ffe999" stroke-width="2"/><path d="M1089.56 211.105c-.7 0-1.33-.12-1.89-.36-.56-.25-1-.6-1.32-1.05-.32-.45-.48-.975-.48-1.575h1.83c.04.45.22.82.53 1.11.32.29.76.435 1.33.435.59 0 1.05-.14 1.38-.42.33-.29.5-.66.5-1.11 0-.35-.11-.635-.32-.855-.2-.22-.45-.39-.76-.51-.3-.12-.72-.25-1.26-.39-.68-.18-1.24-.36-1.67-.54-.42-.19-.78-.48-1.08-.87-.3-.39-.45-.91-.45-1.56 0-.6.15-1.125.45-1.575.3-.45.72-.795 1.26-1.035.54-.24 1.17-.36 1.88-.36 1.01 0 1.83.255 2.47.765.65.5 1.01 1.19 1.08 2.07h-1.89c-.03-.38-.21-.705-.54-.975-.33-.27-.76-.405-1.3-.405-.49 0-.89.125-1.2.375-.31.25-.47.61-.47 1.08 0 .32.1.585.29.795.2.2.45.36.75.48s.71.25 1.23.39c.69.19 1.25.38 1.68.57.44.19.81.485 1.11.885.31.39.46.915.46 1.575 0 .53-.14 1.03-.43 1.5-.28.47-.7.85-1.25 1.14-.54.28-1.18.42-1.92.42zm13.04-4.44c0 .31-.02.59-.06.84h-6.31c.05.66.29 1.19.73 1.59.44.4.98.6 1.62.6.92 0 1.57-.385 1.95-1.155h1.85c-.25.76-.71 1.385-1.37 1.875-.65.48-1.46.72-2.43.72-.79 0-1.5-.175-2.13-.525-.62-.36-1.11-.86-1.47-1.5-.35-.65-.52-1.4-.52-2.25 0-.85.17-1.595.51-2.235.35-.65.83-1.15 1.45-1.5.63-.35 1.35-.525 2.16-.525.78 0 1.48.17 2.09.51.61.34 1.08.82 1.42 1.44.34.61.51 1.315.51 2.115zm-1.78-.54c-.01-.63-.24-1.135-.68-1.515-.44-.38-.98-.57-1.63-.57-.59 0-1.1.19-1.52.57-.42.37-.67.875-.75 1.515zm2.75.705c0-.83.17-1.565.51-2.205a3.81 3.81 0 0 1 3.39-2.025c.65 0 1.21.13 1.69.39.49.25.88.565 1.17.945v-1.2h1.73V211h-1.73v-1.23c-.29.39-.68.715-1.18.975-.5.26-1.07.39-1.71.39-.71 0-1.36-.18-1.95-.54-.59-.37-1.06-.88-1.41-1.53-.34-.66-.51-1.405-.51-2.235zm6.76.03c0-.57-.12-1.065-.36-1.485-.23-.42-.53-.74-.91-.96-.38-.22-.79-.33-1.23-.33-.44 0-.85.11-1.23.33-.38.21-.69.525-.93.945-.23.41-.35.9-.35 1.47s.12 1.07.35 1.5c.24.43.55.76.93.99.39.22.8.33 1.23.33.44 0 .85-.11 1.23-.33.38-.22.68-.54.91-.96.24-.43.36-.93.36-1.5zm7.29-2.73h-1.53V211h-1.73v-6.87h-.97v-1.395h.97v-.585c0-.95.25-1.64.75-2.07.51-.44 1.31-.66 2.39-.66v1.425c-.52 0-.89.1-1.1.3-.21.19-.31.525-.31 1.005v.585h1.53zm4.95 7.005c-.78 0-1.49-.175-2.12-.525a3.88 3.88 0 0 1-1.48-1.5c-.36-.65-.54-1.4-.54-2.25 0-.84.18-1.585.55-2.235.37-.65.88-1.15 1.52-1.5.64-.35 1.35-.525 2.14-.525s1.51.175 2.15.525c.64.35 1.14.85 1.51 1.5.37.65.56 1.395.56 2.235 0 .84-.19 1.585-.57 2.235-.38.65-.9 1.155-1.56 1.515-.65.35-1.37.525-2.16.525zm0-1.485c.44 0 .85-.105 1.23-.315.39-.21.7-.525.94-.945.24-.42.36-.93.36-1.53s-.11-1.105-.34-1.515a2.33 2.33 0 0 0-.92-.945c-.38-.21-.79-.315-1.23-.315-.44 0-.85.105-1.23.315-.37.21-.66.525-.88.945-.22.41-.33.915-.33 1.515 0 .89.22 1.58.67 2.07.46.48 1.04.72 1.73.72zm9.41 1.485c-.78 0-1.48-.175-2.11-.525-.63-.36-1.13-.86-1.49-1.5-.36-.65-.54-1.4-.54-2.25 0-.84.19-1.585.56-2.235.37-.65.87-1.15 1.51-1.5.64-.35 1.36-.525 2.15-.525.79 0 1.5.175 2.14.525.64.35 1.15.85 1.52 1.5.37.65.55 1.395.55 2.235 0 .84-.19 1.585-.57 2.235-.38.65-.9 1.155-1.56 1.515-.65.35-1.37.525-2.16.525zm0-1.485c.44 0 .85-.105 1.23-.315.39-.21.71-.525.95-.945.24-.42.36-.93.36-1.53s-.12-1.105-.35-1.515c-.23-.42-.53-.735-.91-.945-.38-.21-.79-.315-1.23-.315-.44 0-.85.105-1.23.315-.37.21-.67.525-.89.945-.22.41-.33.915-.33 1.515 0 .89.23 1.58.68 2.07.46.48 1.03.72 1.72.72zm5.26-2.82c0-.83.17-1.565.51-2.205a3.81 3.81 0 0 1 3.41-2.025c.54 0 1.07.12 1.59.36.53.23.95.54 1.26.93v-3.99h1.72V211h-1.72v-1.245c-.28.4-.67.73-1.17.99-.49.26-1.06.39-1.7.39-.72 0-1.38-.18-1.98-.54-.59-.37-1.06-.88-1.41-1.53-.34-.66-.51-1.405-.51-2.235zm6.77.03c0-.57-.12-1.065-.36-1.485a2.413 2.413 0 0 0-2.15-1.29c-.44 0-.85.11-1.23.33-.38.21-.69.525-.93.945-.23.41-.34.9-.34 1.47s.11 1.07.34 1.5c.24.43.55.76.93.99.39.22.8.33 1.23.33a2.413 2.413 0 0 0 2.15-1.29c.24-.43.36-.93.36-1.5z" fill="#560153"/><path d="M1101.87 227.14h-3.65l-.67 1.86h-1.15l3.02-8.316h1.26l3.01 8.316h-1.15zm-.31-.888-1.52-4.224-1.51 4.224zm4.42-6.132V229h-1.09v-8.88zm2.84 0V229h-1.1v-8.88zm7.74 5.34c0 .208-.02.428-.04.66h-5.26c.04.648.26 1.156.66 1.524.41.36.9.54 1.48.54.47 0 .86-.108 1.18-.324.32-.224.54-.52.67-.888h1.17a2.804 2.804 0 0 1-1.05 1.548c-.53.392-1.19.588-1.97.588-.62 0-1.18-.14-1.68-.42-.49-.28-.87-.676-1.15-1.188-.28-.52-.42-1.12-.42-1.8 0-.68.13-1.276.41-1.788.27-.512.65-.904 1.14-1.176.49-.28 1.06-.42 1.7-.42.62 0 1.18.136 1.66.408.48.272.84.648 1.1 1.128.26.472.4 1.008.4 1.608zm-1.13-.228c0-.416-.09-.772-.28-1.068a1.7 1.7 0 0 0-.75-.684c-.32-.16-.66-.24-1.05-.24-.55 0-1.02.176-1.41.528-.39.352-.61.84-.66 1.464zm3.54-1.74c.19-.376.46-.668.82-.876.36-.208.79-.312 1.3-.312v1.128h-.28c-1.23 0-1.84.664-1.84 1.992V229h-1.09v-6.576h1.09zm5.98-1.176c.56 0 1.06.124 1.48.372.44.248.76.56.96.936v-1.2h1.11v6.72c0 .6-.13 1.132-.39 1.596-.25.472-.62.84-1.1 1.104-.47.264-1.02.396-1.66.396-.86 0-1.58-.204-2.16-.612a2.433 2.433 0 0 1-1.02-1.668h1.08c.12.4.37.72.75.96.37.248.83.372 1.35.372.6 0 1.09-.188 1.47-.564.38-.376.57-.904.57-1.584v-1.38c-.21.384-.53.704-.96.96-.42.256-.92.384-1.48.384-.59 0-1.12-.144-1.6-.432a3.111 3.111 0 0 1-1.12-1.212c-.27-.52-.4-1.112-.4-1.776 0-.672.13-1.26.4-1.764.28-.512.65-.908 1.12-1.188.48-.28 1.01-.42 1.6-.42zm2.44 3.384c0-.496-.1-.928-.3-1.296-.2-.368-.47-.648-.81-.84-.34-.2-.71-.3-1.12-.3-.41 0-.78.096-1.11.288-.34.192-.61.472-.81.84-.2.368-.3.8-.3 1.296 0 .504.1.944.3 1.32.2.368.47.652.81.852.33.192.7.288 1.11.288.41 0 .78-.096 1.12-.288.34-.2.61-.484.81-.852.2-.376.3-.812.3-1.308zm8.5-3.276-3.96 9.672h-1.13l1.3-3.168-2.66-6.504h1.22l2.06 5.328 2.04-5.328z" fill="#fffae8"/><rect x="1090" y="130" width="52" height="52" rx="26" fill="#ffe999"/><g clip-path="url(#d)"><path d="M1122.5 162.5c-3-6 .5-11 0-11.5-4.4-2.8-12.17 2.833-15.5 6 7.5 8.5 15 6.5 15.5 5.5z" fill="#9ea9fd"/><path d="M1123.25 150.92A9.344 9.344 0 0 0 1121 157c0 2.329.85 4.46 2.27 6.095" stroke="#181818" stroke-width="1.5" stroke-linecap="round" stroke-linejoin="round"/><path d="M1103.67 153.67c10.28 11.529 19.66 13.687 26.66 3.331-7-10.348-16.38-8.19-26.66 3.338m21.33-4.673v.013" stroke="#181818" stroke-width="1.5" stroke-linecap="round" stroke-linejoin="round"/><path d="M1116.33 155c-.88 1.333-.88 2.667 0 4" stroke="#181818" stroke-width="1.5" stroke-linecap="round" stroke-linejoin="round"/></g><rect x="1137" y="283" width="122" height="146" rx="16" fill="#ffe999"/><rect x="1137" y="283" width="122" height="146" rx="16" stroke="#fffae8" stroke-width="2"/><path d="M1175.42 377.68c0 .53-.13 1.03-.38 1.5s-.65.855-1.2 1.155c-.55.29-1.25.435-2.11.435h-1.89V385h-1.71v-10.425h3.6c.8 0 1.47.14 2.02.42.56.27.98.64 1.25 1.11.28.47.42.995.42 1.575zm-3.69 1.695c.65 0 1.13-.145 1.45-.435.32-.3.48-.72.48-1.26 0-1.14-.64-1.71-1.93-1.71h-1.89v3.405zm12.74 1.29c0 .31-.02.59-.06.84h-6.31c.05.66.29 1.19.73 1.59.44.4.98.6 1.62.6.92 0 1.57-.385 1.95-1.155h1.85c-.25.76-.71 1.385-1.37 1.875-.65.48-1.46.72-2.43.72-.79 0-1.5-.175-2.13-.525-.62-.36-1.11-.86-1.47-1.5-.35-.65-.52-1.4-.52-2.25 0-.85.17-1.595.51-2.235.35-.65.83-1.15 1.45-1.5.63-.35 1.35-.525 2.16-.525.78 0 1.48.17 2.09.51.61.34 1.08.82 1.42 1.44.34.61.51 1.315.51 2.115zm-1.78-.54c-.01-.63-.24-1.135-.68-1.515-.44-.38-.98-.57-1.63-.57-.59 0-1.1.19-1.52.57-.42.37-.67.875-.75 1.515zm7.48-3.525c.65 0 1.23.135 1.74.405.52.27.93.67 1.22 1.2.29.53.43 1.17.43 1.92V385h-1.69v-4.62c0-.74-.19-1.305-.56-1.695-.37-.4-.87-.6-1.51-.6s-1.15.2-1.53.6c-.37.39-.56.955-.56 1.695V385H1186v-8.265h1.71v.945c.28-.34.64-.605 1.07-.795.44-.19.9-.285 1.39-.285zm6.29-.96c-.31 0-.57-.105-.78-.315-.21-.21-.31-.47-.31-.78 0-.31.1-.57.31-.78.21-.21.47-.315.78-.315.3 0 .56.105.77.315.21.21.31.47.31.78 0 .31-.1.57-.31.78-.21.21-.47.315-.77.315zm.84 1.095V385h-1.71v-8.265zm1.53 4.125c0-.85.17-1.595.51-2.235.35-.65.83-1.15 1.44-1.5.61-.35 1.31-.525 2.1-.525 1 0 1.82.24 2.48.72.66.47 1.1 1.145 1.33 2.025h-1.85c-.15-.41-.39-.73-.72-.96-.33-.23-.74-.345-1.24-.345-.7 0-1.26.25-1.68.75-.41.49-.62 1.18-.62 2.07 0 .89.21 1.585.62 2.085.42.5.98.75 1.68.75.99 0 1.64-.435 1.96-1.305h1.85c-.24.84-.69 1.51-1.35 2.01-.66.49-1.48.735-2.46.735-.79 0-1.49-.175-2.1-.525a3.85 3.85 0 0 1-1.44-1.5c-.34-.65-.51-1.4-.51-2.25zm10.28-5.22c-.31 0-.57-.105-.78-.315-.21-.21-.31-.47-.31-.78 0-.31.1-.57.31-.78.21-.21.47-.315.78-.315.3 0 .56.105.77.315.21.21.31.47.31.78 0 .31-.1.57-.31.78-.21.21-.47.315-.77.315zm.84 1.095V385h-1.71v-8.265zm3.81-2.835V385h-1.71v-11.1zm3.8 0V385h-1.71v-11.1zm2.97 1.74c-.31 0-.57-.105-.78-.315-.21-.21-.32-.47-.32-.78 0-.31.11-.57.32-.78.21-.21.47-.315.78-.315.3 0 .55.105.76.315.21.21.32.47.32.78 0 .31-.11.57-.32.78-.21.21-.46.315-.76.315zm.84 1.095V385h-1.71v-8.265zm6.26-.135c.65 0 1.23.135 1.74.405.52.27.93.67 1.22 1.2.29.53.43 1.17.43 1.92V385h-1.69v-4.62c0-.74-.19-1.305-.56-1.695-.37-.4-.87-.6-1.51-.6s-1.15.2-1.53.6c-.37.39-.56.955-.56 1.695V385h-1.71v-8.265h1.71v.945c.28-.34.64-.605 1.07-.795.44-.19.9-.285 1.39-.285z" fill="#560153"/><path d="M1183.87 401.14h-3.65l-.67 1.86h-1.15l3.02-8.316h1.26l3.01 8.316h-1.15zm-.31-.888-1.52-4.224-1.51 4.224zm4.42-6.132V403h-1.09v-8.88zm2.84 0V403h-1.1v-8.88zm7.74 5.34c0 .208-.02.428-.04.66h-5.26c.04.648.26 1.156.66 1.524.41.36.9.54 1.48.54.47 0 .86-.108 1.18-.324.32-.224.54-.52.67-.888h1.17a2.804 2.804 0 0 1-1.05 1.548c-.53.392-1.19.588-1.97.588-.62 0-1.18-.14-1.68-.42-.49-.28-.87-.676-1.15-1.188-.28-.52-.42-1.12-.42-1.8 0-.68.13-1.276.41-1.788.27-.512.65-.904 1.14-1.176.49-.28 1.06-.42 1.7-.42.62 0 1.18.136 1.66.408.48.272.84.648 1.1 1.128.26.472.4 1.008.4 1.608zm-1.13-.228c0-.416-.09-.772-.28-1.068a1.7 1.7 0 0 0-.75-.684c-.32-.16-.66-.24-1.05-.24-.55 0-1.02.176-1.41.528-.39.352-.61.84-.66 1.464zm3.54-1.74c.19-.376.46-.668.82-.876.36-.208.79-.312 1.3-.312v1.128h-.28c-1.23 0-1.84.664-1.84 1.992V403h-1.09v-6.576h1.09zm5.98-1.176c.56 0 1.06.124 1.48.372.44.248.76.56.96.936v-1.2h1.11v6.72c0 .6-.13 1.132-.39 1.596-.25.472-.62.84-1.1 1.104-.47.264-1.02.396-1.66.396-.86 0-1.58-.204-2.16-.612a2.433 2.433 0 0 1-1.02-1.668h1.08c.12.4.37.72.75.96.37.248.83.372 1.35.372.6 0 1.09-.188 1.47-.564.38-.376.57-.904.57-1.584v-1.38c-.21.384-.53.704-.96.96-.42.256-.92.384-1.48.384-.59 0-1.12-.144-1.6-.432a3.111 3.111 0 0 1-1.12-1.212c-.27-.52-.4-1.112-.4-1.776 0-.672.13-1.26.4-1.764.28-.512.65-.908 1.12-1.188.48-.28 1.01-.42 1.6-.42zm2.44 3.384c0-.496-.1-.928-.3-1.296-.2-.368-.47-.648-.81-.84-.34-.2-.71-.3-1.12-.3-.41 0-.78.096-1.11.288-.34.192-.61.472-.81.84-.2.368-.3.8-.3 1.296 0 .504.1.944.3 1.32.2.368.47.652.81.852.33.192.7.288 1.11.288.41 0 .78-.096 1.12-.288.34-.2.61-.484.81-.852.2-.376.3-.812.3-1.308zm8.5-3.276-3.96 9.672h-1.13l1.3-3.168-2.66-6.504h1.22l2.06 5.328 2.04-5.328z" fill="#c67dff"/><rect x="1172" y="304" width="52" height="52" rx="26" fill="#fffae8"/><g clip-path="url(#e)"><path fill="#c67dff" d="M1192 330h13v8h-13z"/><path d="M1194 319.333a1.332 1.332 0 0 1 1.33-1.333h5.34a1.33 1.33 0 0 1 1.33 1.333v1.334a1.332 1.332 0 0 1-1.33 1.333h-5.34a1.33 1.33 0 0 1-1.33-1.333z" stroke="#000" stroke-width="1.5" stroke-linecap="round" stroke-linejoin="round"/><path d="M1195.33 322v1.307c0 1.169-.84 2.168-2 2.36-1.15.192-2 1.19-2 2.36v11.306A2.665 2.665 0 0 0 1194 342h8c.71 0 1.38-.281 1.88-.781s.79-1.178.79-1.886v-11.306c0-1.17-.85-2.168-2-2.36a2.42 2.42 0 0 1-1.44-.814c-.36-.432-.56-.98-.56-1.546V322m-9.34 8h13.34m-13.34 8h13.34m-8-4h2.66" stroke="#000" stroke-width="1.5" stroke-linecap="round" stroke-linejoin="round"/></g></g><defs><clipPath id="a"><path fill="#fff" transform="translate(876 253)" d="M0 0h24v24H0z"/></clipPath><clipPath id="b"><path fill="#fff" transform="translate(956 253)" d="M0 0h24v24H0z"/></clipPath><clipPath id="c"><path fill="#fff" transform="translate(1036 253)" d="M0 0h24v24H0z"/></clipPath><clipPath id="d"><path fill="#fff" transform="translate(1101 141)" d="M0 0h32v32H0z"/></clipPath><clipPath id="e"><path fill="#fff" transform="translate(1182 314)" d="M0 0h32v32H0z"/></clipPath></defs></svg>