<svg width="768" height="768" fill="none" xmlns="http://www.w3.org/2000/svg"><rect width="768" height="768" rx="32" fill="#c67dff" style="fill:#748ffc;fill-opacity:1;stroke-width:.848943" ry="32"/><rect x="40.842" y="172.092" width="487.538" height="298.232" rx="21.464" fill="#fff" style="stroke-width:.958671"/><rect x="40.842" y="172.092" width="487.538" height="298.232" rx="21.464" stroke="#9ea9fd" stroke-width="2.225"/><rect x="62.305" y="195.461" width="433.368" height="68.994" rx="10.221" fill="#d9ddff" style="stroke-width:.958671"/><path d="M137.266 222.251v13.922h-2.098v-6.09h-6.016v6.09h-2.097V222.25h2.097v5.97h6.016v-5.97zm4.49 0v13.922h-2.097V222.25zm11.327 4.147a4.5 4.5 0 0 1-.46 2.002c-.306.629-.797 1.143-1.472 1.543-.674.387-1.539.581-2.594.581h-2.318v5.649h-2.097V222.25h4.415c.982 0 1.81.188 2.484.562.687.36 1.196.854 1.527 1.481.343.628.515 1.33.515 2.104zm-4.526 2.263c.798 0 1.392-.194 1.785-.58.392-.402.589-.962.589-1.683 0-1.523-.792-2.284-2.374-2.284h-2.318v4.547zm13.867 4.667h-5.353l-.921 2.845h-2.188l4.58-13.942h2.429l4.58 13.942h-2.207zm-.589-1.863-2.079-6.47-2.097 6.47zm13.05 1.863h-5.355l-.92 2.845h-2.19l4.582-13.942h2.43l4.58 13.942h-2.208zm-.59-1.863-2.078-6.47-2.098 6.47zm9.052-.82c0-1.136.209-2.13.626-2.986.43-.867 1.018-1.535 1.767-2.002.748-.468 1.606-.702 2.575-.702 1.227 0 2.238.321 3.036.962.81.628 1.355 1.53 1.637 2.704h-2.263c-.184-.548-.479-.975-.883-1.282-.405-.307-.914-.461-1.527-.461-.859 0-1.545.334-2.06 1.002-.503.654-.755 1.576-.755 2.764 0 1.188.252 2.117.754 2.784.516.668 1.202 1.002 2.061 1.002 1.215 0 2.018-.58 2.41-1.743h2.263c-.294 1.122-.846 2.016-1.656 2.685-.81.654-1.815.98-3.017.98-.97 0-1.827-.233-2.575-.7-.749-.48-1.338-1.149-1.767-2.003-.417-.868-.626-1.87-.626-3.005zm15.76 5.708c-.956 0-1.821-.234-2.594-.701-.772-.48-1.38-1.149-1.82-2.003-.443-.868-.663-1.87-.663-3.005 0-1.121.227-2.117.68-2.985.455-.867 1.074-1.535 1.858-2.002.785-.468 1.662-.702 2.632-.702.968 0 1.846.234 2.63.702.785.467 1.405 1.135 1.858 2.002.454.868.68 1.864.68 2.985 0 1.121-.232 2.117-.698 2.985a5.119 5.119 0 0 1-1.913 2.023 5.146 5.146 0 0 1-2.65.7zm0-1.983c.54 0 1.043-.14 1.509-.42.478-.281.865-.702 1.16-1.263.293-.56.441-1.242.441-2.043 0-.801-.141-1.475-.424-2.023-.282-.56-.656-.982-1.122-1.262a2.875 2.875 0 0 0-1.509-.42c-.54 0-1.042.14-1.509.42-.452.28-.814.701-1.085 1.262-.27.548-.404 1.222-.404 2.023 0 1.188.276 2.11.828 2.764.564.641 1.269.962 2.115.962zm19.239-9.415c.797 0 1.509.18 2.134.541.638.36 1.134.895 1.49 1.603.368.707.552 1.562.552 2.564v6.51h-2.078v-6.17c0-.988-.227-1.743-.681-2.264-.454-.533-1.073-.8-1.859-.8-.785 0-1.41.267-1.876.8-.454.521-.68 1.276-.68 2.264v6.17h-2.08v-6.17c0-.988-.227-1.743-.68-2.264-.455-.533-1.074-.8-1.859-.8-.785 0-1.41.267-1.877.8-.454.521-.68 1.276-.68 2.264v6.17h-2.097v-11.038h2.097v1.263a3.533 3.533 0 0 1 1.306-1.062 3.849 3.849 0 0 1 1.692-.38c.81 0 1.534.186 2.171.56.638.375 1.129.915 1.472 1.623a3.514 3.514 0 0 1 1.435-1.582 3.92 3.92 0 0 1 2.098-.602zm8.574 1.803c.355-.507.84-.934 1.453-1.282.614-.347 1.307-.52 2.08-.52.882 0 1.686.24 2.41.72.735.468 1.312 1.129 1.729 1.983.417.855.625 1.837.625 2.945 0 1.108-.208 2.104-.625 2.985-.417.867-.994 1.548-1.73 2.043a4.257 4.257 0 0 1-2.41.72c-.772 0-1.46-.166-2.06-.5a4.829 4.829 0 0 1-1.472-1.282v6.85h-2.097v-16.285h2.097zm6.163 3.846c0-.761-.147-1.415-.441-1.963-.282-.56-.662-.982-1.141-1.262a2.772 2.772 0 0 0-1.509-.44c-.527 0-1.03.146-1.508.44-.466.294-.847.721-1.14 1.282-.283.56-.424 1.222-.424 1.983 0 .761.141 1.429.423 2.003.294.56.675.988 1.14 1.282.48.294.982.441 1.51.441a2.78 2.78 0 0 0 1.508-.44c.479-.308.859-.75 1.141-1.323.294-.575.441-1.242.441-2.003zm5.938-9.254v14.823h-2.098V221.35zm3.453 2.324c-.38 0-.7-.141-.957-.421-.258-.28-.387-.627-.387-1.042 0-.414.13-.76.387-1.04.258-.282.576-.422.957-.422.367 0 .68.14.938.421.258.28.387.627.387 1.041 0 .415-.13.762-.387 1.042s-.57.42-.938.42zm1.03 1.461v11.038h-2.097v-11.038zm1.686 5.47c0-1.11.21-2.09.626-2.946.43-.854 1.006-1.515 1.73-1.982a4.346 4.346 0 0 1 2.428-.722c.797 0 1.49.174 2.079.521.6.334 1.08.755 1.435 1.262v-1.603h2.116v11.038h-2.116v-1.643c-.356.52-.84.955-1.454 1.302-.612.347-1.312.52-2.097.52-.871 0-1.668-.24-2.392-.72-.723-.495-1.3-1.176-1.729-2.043-.417-.881-.626-1.877-.626-2.985zm8.298.04c0-.762-.147-1.423-.442-1.984-.282-.56-.656-.988-1.122-1.282a2.774 2.774 0 0 0-1.508-.44 2.78 2.78 0 0 0-1.51.44c-.465.28-.845.701-1.14 1.262-.282.548-.423 1.202-.423 1.963 0 .761.14 1.428.423 2.003.295.574.675 1.015 1.14 1.322.48.294.982.441 1.51.441.539 0 1.042-.147 1.508-.44.466-.295.84-.722 1.122-1.283.295-.574.442-1.242.442-2.003zm9.617-5.69c.797 0 1.508.18 2.134.541.638.36 1.135.895 1.49 1.603.356.707.534 1.562.534 2.564v6.51h-2.08v-6.17c0-.988-.226-1.743-.68-2.264-.454-.533-1.073-.8-1.858-.8-.785 0-1.41.267-1.877.8-.454.521-.68 1.276-.68 2.264v6.17h-2.097v-11.038h2.096v1.263c.344-.454.78-.808 1.307-1.062a3.97 3.97 0 0 1 1.71-.38zm8.912 2.044v6.109c0 .414.086.714.258.901.184.174.49.26.92.26h1.288v1.904h-1.656c-.945 0-1.668-.241-2.171-.721-.504-.482-.754-1.263-.754-2.344v-6.11h-1.197v-1.863h1.197v-2.743h2.115v2.743h2.466V227z" fill="#000" style="stroke-width:.958671"/><rect x="78.658" y="213.266" width="30.663" height="33.384" rx="15.331" fill="#721f6f" style="stroke-width:.958671;fill:#862e9c;fill-opacity:1"/><g clip-path="url(#a)" transform="matrix(.91877 0 0 1.0003 -185.99 47.916)"><path d="m299.538 181.987 3.708 3.708 7.417-7.416" stroke="#fff" stroke-width="1.669" stroke-linecap="round" stroke-linejoin="round"/></g><rect x="62.305" y="286.711" width="433.368" height="68.994" rx="10.221" fill="#d9ddff" style="stroke-width:.958671"/><path d="M131.268 327.563c-.858 0-1.63-.16-2.318-.481a3.935 3.935 0 0 1-1.619-1.402c-.392-.6-.589-1.302-.589-2.103h2.245c.048.6.263 1.095.644 1.482.392.387.938.581 1.637.581.724 0 1.288-.187 1.692-.56.406-.388.608-.882.608-1.483 0-.467-.129-.848-.386-1.142a2.423 2.423 0 0 0-.94-.68c-.367-.16-.882-.335-1.545-.522-.833-.24-1.514-.48-2.041-.72-.515-.254-.957-.641-1.325-1.163-.368-.52-.552-1.215-.552-2.082 0-.801.184-1.503.552-2.104a3.61 3.61 0 0 1 1.545-1.382c.663-.32 1.43-.48 2.3-.48 1.239 0 2.251.34 3.036 1.02.797.668 1.238 1.59 1.325 2.765h-2.318c-.037-.507-.259-.942-.663-1.302-.405-.36-.938-.54-1.6-.54-.601 0-1.092.166-1.472.5-.38.333-.57.815-.57 1.442 0 .428.116.781.348 1.062.246.267.552.48.92.641.368.16.871.333 1.51.52.846.255 1.532.508 2.06.762.54.254.994.648 1.361 1.182.38.52.57 1.221.57 2.103 0 .708-.178 1.375-.533 2.003-.344.628-.853 1.135-1.527 1.522-.663.374-1.447.561-2.355.561zm12.355 0c-1.19 0-2.288-.3-3.294-.901-.993-.615-1.784-1.463-2.373-2.544-.576-1.095-.865-2.324-.865-3.686s.289-2.584.865-3.665c.589-1.082 1.38-1.923 2.373-2.524a6.203 6.203 0 0 1 3.294-.921c1.201 0 2.3.307 3.292.92 1.007.602 1.798 1.443 2.374 2.525.577 1.081.864 2.303.864 3.665s-.287 2.59-.864 3.686c-.576 1.081-1.367 1.93-2.374 2.544-.993.6-2.09.901-3.292.901zm0-1.983c.846 0 1.6-.207 2.263-.62.662-.428 1.177-1.03 1.545-1.803.38-.789.57-1.697.57-2.725 0-1.029-.19-1.93-.57-2.704-.369-.774-.883-1.368-1.545-1.783-.663-.414-1.417-.62-2.263-.62-.847 0-1.6.206-2.263.62-.663.415-1.185 1.009-1.564 1.783-.368.774-.552 1.675-.552 2.704 0 1.028.184 1.936.552 2.725.38.774.901 1.375 1.564 1.802.662.414 1.416.621 2.263.621zm7.527-5.148c0-1.362.289-2.584.865-3.665.589-1.082 1.38-1.923 2.374-2.524a6.198 6.198 0 0 1 3.293-.921c1.361 0 2.57.367 3.624 1.1 1.067.722 1.84 1.75 2.318 3.086h-2.52c-.332-.734-.792-1.283-1.38-1.643-.589-.36-1.27-.54-2.042-.54-.847 0-1.6.206-2.263.62-.663.415-1.184 1.009-1.564 1.783-.368.774-.552 1.675-.552 2.704 0 1.028.184 1.93.552 2.705.38.774.901 1.375 1.564 1.802.662.414 1.416.621 2.263.621.772 0 1.453-.18 2.042-.54.588-.36 1.048-.91 1.38-1.643h2.52c-.478 1.335-1.251 2.363-2.318 3.085-1.055.72-2.263 1.08-3.624 1.08-1.202 0-2.3-.3-3.293-.9-.994-.615-1.785-1.463-2.374-2.544-.576-1.081-.865-2.304-.865-3.666zm15.444 3.886a75.252 75.252 0 0 0 2.778-2.724 12.22 12.22 0 0 0 1.71-2.244c.455-.774.682-1.548.682-2.323 0-.802-.178-1.429-.533-1.883-.344-.454-.89-.681-1.638-.681-.724 0-1.288.254-1.693.761-.392.494-.6 1.162-.626 2.004h-2.023c.037-1.523.454-2.685 1.25-3.486.81-.815 1.835-1.222 3.073-1.222 1.337 0 2.38.4 3.128 1.202.76.8 1.14 1.87 1.14 3.205 0 .961-.226 1.89-.68 2.785a11.016 11.016 0 0 1-1.6 2.382 42.484 42.484 0 0 1-2.355 2.424l-.828.801h5.831v1.904h-8.94v-1.663zm13.08-3.886c0-1.362.288-2.584.864-3.665.589-1.082 1.38-1.923 2.373-2.524a6.203 6.203 0 0 1 3.294-.921c1.36 0 2.569.367 3.623 1.1 1.068.722 1.84 1.75 2.318 3.086h-2.52c-.33-.734-.79-1.283-1.38-1.643-.588-.36-1.269-.54-2.041-.54-.846 0-1.6.206-2.263.62-.663.415-1.184 1.009-1.564 1.783-.368.774-.552 1.675-.552 2.704 0 1.028.184 1.93.552 2.705.38.774.901 1.375 1.564 1.802.662.414 1.417.621 2.263.621.772 0 1.453-.18 2.041-.54.59-.36 1.05-.91 1.38-1.643h2.52c-.477 1.335-1.25 2.363-2.318 3.085-1.054.72-2.263 1.08-3.623 1.08-1.203 0-2.3-.3-3.294-.9-.993-.615-1.784-1.463-2.373-2.544-.576-1.081-.865-2.304-.865-3.666zm18.957 7.171c-.956 0-1.822-.233-2.595-.701-.772-.48-1.379-1.149-1.82-2.003-.442-.868-.663-1.87-.663-3.005 0-1.121.227-2.116.68-2.984.455-.868 1.074-1.536 1.859-2.003.785-.467 1.662-.702 2.63-.702.97 0 1.847.235 2.631.702.786.467 1.405 1.135 1.859 2.003.454.868.68 1.863.68 2.984 0 1.123-.233 2.117-.698 2.985a5.101 5.101 0 0 1-1.914 2.023 5.133 5.133 0 0 1-2.649.701zm0-1.983c.54 0 1.043-.14 1.509-.42.477-.28.864-.702 1.158-1.262.295-.561.442-1.243.442-2.044 0-.801-.141-1.475-.423-2.022-.282-.562-.656-.982-1.122-1.263a2.88 2.88 0 0 0-1.509-.42c-.54 0-1.043.14-1.508.42-.454.281-.816.701-1.086 1.263-.27.547-.405 1.221-.405 2.022 0 1.189.276 2.11.828 2.765.564.64 1.27.961 2.116.961zm19.238-9.415c.798 0 1.509.18 2.134.542.638.36 1.135.894 1.49 1.602.368.707.553 1.563.553 2.564v6.51h-2.08v-6.17c0-.987-.226-1.743-.68-2.263-.454-.534-1.073-.8-1.858-.8-.785 0-1.411.266-1.877.8-.454.52-.68 1.276-.68 2.263v6.17h-2.08v-6.17c0-.987-.227-1.743-.68-2.263-.454-.534-1.074-.8-1.858-.8-.785 0-1.41.266-1.877.8-.453.52-.68 1.276-.68 2.263v6.17h-2.098v-11.037h2.098v1.262a3.514 3.514 0 0 1 1.305-1.061 3.853 3.853 0 0 1 1.693-.382c.81 0 1.533.188 2.172.562.637.374 1.128.914 1.47 1.622a3.52 3.52 0 0 1 1.436-1.582c.65-.4 1.35-.602 2.097-.602zm8.575 1.803c.356-.507.84-.934 1.453-1.281.613-.347 1.306-.522 2.079-.522.884 0 1.687.242 2.41.722.736.467 1.313 1.128 1.73 1.983.417.855.625 1.836.625 2.944 0 1.109-.208 2.104-.625 2.985-.417.867-.994 1.549-1.73 2.043a4.26 4.26 0 0 1-2.41.721c-.773 0-1.46-.167-2.06-.5a4.845 4.845 0 0 1-1.472-1.283v6.85h-2.098v-16.284h2.098zm6.163 3.846c0-.761-.147-1.415-.442-1.962-.282-.562-.662-.982-1.14-1.263a2.785 2.785 0 0 0-1.509-.44c-.527 0-1.03.147-1.508.44-.467.294-.846.721-1.141 1.283-.282.56-.423 1.221-.423 1.982 0 .761.14 1.43.423 2.004.295.56.674.987 1.14 1.281a2.84 2.84 0 0 0 1.51.441c.539 0 1.041-.147 1.508-.44.478-.308.858-.748 1.14-1.322.295-.574.442-1.243.442-2.004zm5.937-9.254v14.823h-2.097V312.6zm3.453 2.324c-.38 0-.7-.14-.957-.421-.257-.28-.385-.627-.385-1.041 0-.415.128-.762.385-1.042.258-.28.577-.42.957-.42.368 0 .68.14.939.42.257.28.386.627.386 1.042 0 .414-.129.76-.386 1.04-.258.282-.57.422-.94.422zm1.03 1.462v11.037h-2.097v-11.037zm1.687 5.468c0-1.108.208-2.09.625-2.944.43-.855 1.006-1.516 1.73-1.983a4.354 4.354 0 0 1 2.429-.722c.796 0 1.49.175 2.078.522.602.334 1.08.754 1.435 1.261v-1.602h2.116v11.037h-2.116v-1.643c-.356.522-.84.955-1.453 1.302-.613.348-1.312.521-2.097.521-.871 0-1.669-.24-2.392-.721-.724-.494-1.3-1.176-1.73-2.043-.417-.881-.625-1.876-.625-2.985zm8.297.04c0-.761-.147-1.422-.441-1.982-.282-.562-.656-.989-1.123-1.283a2.78 2.78 0 0 0-1.508-.44c-.54 0-1.042.147-1.509.44-.466.281-.846.701-1.14 1.263-.282.547-.424 1.2-.424 1.962 0 .761.142 1.43.424 2.004.294.574.674 1.014 1.14 1.321.479.294.981.441 1.509.441a2.78 2.78 0 0 0 1.508-.44c.467-.295.841-.722 1.123-1.282.294-.574.441-1.243.441-2.004zm9.618-5.689c.797 0 1.508.18 2.134.542.638.36 1.134.894 1.49 1.602.356.707.533 1.563.533 2.564v6.51h-2.078v-6.17c0-.987-.227-1.743-.681-2.263-.454-.534-1.073-.8-1.859-.8-.784 0-1.41.266-1.876.8-.454.52-.68 1.276-.68 2.263v6.17h-2.098v-11.038h2.097v1.263c.344-.454.78-.808 1.307-1.061a3.966 3.966 0 0 1 1.71-.382zm8.912 2.044v6.109c0 .414.085.714.257.901.184.174.49.261.92.261h1.288v1.903h-1.656c-.944 0-1.668-.24-2.17-.721-.503-.481-.755-1.263-.755-2.344v-6.109h-1.196v-1.864h1.196v-2.743h2.116v2.743h2.465v1.864z" fill="#000" style="stroke-width:.958671"/><rect x="78.658" y="304.516" width="30.663" height="33.384" rx="15.331" fill="#721f6f" style="stroke-width:.958671;fill:#862e9c;fill-opacity:1"/><g clip-path="url(#b)" transform="matrix(.91877 0 0 1.0003 -185.99 47.916)"><path d="m299.538 273.209 3.708 3.709 7.417-7.417" stroke="#fff" stroke-width="1.669" stroke-linecap="round" stroke-linejoin="round"/></g><rect x="62.305" y="377.961" width="433.368" height="68.994" rx="10.221" fill="#d9ddff" style="stroke-width:.958671"/><path d="M132.887 418.813a6.3 6.3 0 0 1-3.293-.901c-.993-.614-1.784-1.463-2.373-2.544-.577-1.095-.865-2.324-.865-3.685 0-1.363.288-2.585.865-3.666.589-1.082 1.38-1.923 2.373-2.524a6.2 6.2 0 0 1 3.293-.921c1.202 0 2.3.307 3.294.921 1.005.601 1.796 1.442 2.373 2.524.576 1.081.864 2.303.864 3.666 0 1.361-.288 2.59-.864 3.685-.577 1.081-1.368 1.93-2.373 2.544-.994.601-2.092.901-3.294.901zm0-1.983c.846 0 1.6-.207 2.263-.62.662-.428 1.178-1.029 1.545-1.803.38-.789.57-1.697.57-2.724 0-1.028-.19-1.93-.57-2.705-.367-.774-.883-1.368-1.545-1.782-.663-.415-1.417-.622-2.263-.622-.846 0-1.6.207-2.263.622-.662.414-1.183 1.008-1.564 1.782-.367.775-.552 1.677-.552 2.705 0 1.027.185 1.935.552 2.724.38.774.902 1.375 1.564 1.802.662.414 1.417.621 2.263.621zm24.877-12.078-3.79 13.921h-2.373l-2.686-10.536-2.852 10.536-2.355.02-3.624-13.941h2.226l2.65 11.337 2.87-11.337h2.354l2.668 11.277 2.668-11.277zm9.07 11.077h-5.353l-.92 2.844h-2.19l4.582-13.941h2.428l4.58 13.941h-2.207zm-.589-1.863-2.078-6.47-2.097 6.47zm9.554 4.847c-.858 0-1.631-.16-2.318-.48a3.95 3.95 0 0 1-1.62-1.402c-.391-.602-.588-1.303-.588-2.104h2.244c.05.601.264 1.095.645 1.482.392.387.938.581 1.637.581.724 0 1.288-.187 1.693-.56.404-.388.606-.882.606-1.483 0-.467-.128-.847-.385-1.141a2.426 2.426 0 0 0-.938-.682c-.369-.16-.884-.334-1.546-.52-.834-.24-1.515-.481-2.042-.721-.516-.254-.957-.641-1.325-1.162-.368-.52-.552-1.216-.552-2.083 0-.801.184-1.503.552-2.104a3.607 3.607 0 0 1 1.545-1.381c.663-.321 1.429-.481 2.3-.481 1.238 0 2.25.34 3.036 1.021.797.668 1.239 1.59 1.324 2.765h-2.318c-.036-.508-.257-.942-.662-1.303-.405-.36-.938-.54-1.6-.54-.601 0-1.092.166-1.472.5-.38.335-.571.815-.571 1.443 0 .427.117.781.35 1.061.245.267.551.481.92.641.367.16.87.334 1.508.52.847.255 1.534.509 2.061.762.54.254.993.648 1.36 1.182.381.52.571 1.222.571 2.103 0 .708-.177 1.375-.533 2.003-.343.628-.852 1.135-1.527 1.523-.662.373-1.447.56-2.355.56zm15.464-9.915a4.52 4.52 0 0 1-.46 2.004c-.307.627-.797 1.141-1.472 1.542-.675.387-1.54.58-2.594.58h-2.318v5.649h-2.098v-13.921h4.416c.98 0 1.809.187 2.483.56.687.361 1.196.855 1.527 1.483.344.628.516 1.329.516 2.103zm-4.526 2.264c.797 0 1.392-.194 1.784-.581.393-.4.589-.962.589-1.683 0-1.522-.791-2.284-2.373-2.284h-2.318v4.548zm14.782 7.651c-.858 0-1.631-.16-2.318-.48a3.95 3.95 0 0 1-1.62-1.402c-.391-.602-.588-1.303-.588-2.104h2.244c.05.601.264 1.095.645 1.482.392.387.938.581 1.637.581.724 0 1.288-.187 1.693-.56.404-.388.606-.882.606-1.483 0-.467-.128-.847-.385-1.141a2.42 2.42 0 0 0-.939-.682c-.368-.16-.882-.334-1.545-.52-.834-.24-1.515-.481-2.042-.721-.516-.254-.957-.641-1.325-1.162-.368-.52-.551-1.216-.551-2.083 0-.801.183-1.503.55-2.104a3.607 3.607 0 0 1 1.546-1.381c.663-.321 1.43-.481 2.3-.481 1.24 0 2.25.34 3.035 1.021.798.668 1.24 1.59 1.325 2.765h-2.318c-.037-.508-.257-.942-.662-1.303-.404-.36-.938-.54-1.6-.54-.602 0-1.092.166-1.473.5-.38.335-.57.815-.57 1.443 0 .427.117.781.35 1.061.245.267.552.481.92.641.368.16.87.334 1.508.52.846.255 1.534.509 2.061.762.54.254.993.648 1.362 1.182.38.52.57 1.222.57 2.103 0 .708-.178 1.375-.534 2.003-.343.628-.852 1.135-1.527 1.523-.662.373-1.448.56-2.355.56zm15.814-5.929a7.8 7.8 0 0 1-.074 1.122h-7.746c.062.88.362 1.59.902 2.123.54.534 1.202.802 1.987.802 1.128 0 1.925-.515 2.391-1.543h2.263a4.999 4.999 0 0 1-1.674 2.504c-.797.641-1.79.961-2.98.961-.969 0-1.84-.233-2.613-.701-.76-.48-1.361-1.148-1.803-2.003-.43-.868-.644-1.87-.644-3.005 0-1.134.208-2.13.626-2.984.43-.868 1.024-1.535 1.785-2.003.772-.467 1.655-.701 2.649-.701.956 0 1.809.227 2.557.68.748.455 1.33 1.096 1.748 1.924.417.815.626 1.756.626 2.824zm-2.19-.721c-.013-.841-.288-1.515-.828-2.023-.54-.508-1.208-.76-2.005-.76-.724 0-1.344.252-1.858.76-.516.495-.822 1.169-.92 2.023zm3.186.981c0-1.134.209-2.13.626-2.984.43-.868 1.018-1.535 1.766-2.003.748-.467 1.607-.701 2.575-.701 1.227 0 2.24.32 3.036.962.81.627 1.355 1.528 1.637 2.704h-2.263c-.184-.547-.478-.976-.883-1.283-.404-.307-.913-.46-1.527-.46-.858 0-1.545.334-2.06 1.001-.503.655-.754 1.576-.754 2.764 0 1.189.25 2.117.754 2.785.515.667 1.202 1.002 2.06 1.002 1.215 0 2.018-.582 2.41-1.743h2.263c-.294 1.121-.846 2.017-1.655 2.684-.81.654-1.815.981-3.018.981-.968 0-1.827-.233-2.575-.701-.748-.48-1.337-1.148-1.766-2.003-.417-.868-.626-1.87-.626-3.005zm20.543-5.507v11.036h-2.097v-1.302a3.51 3.51 0 0 1-1.306 1.082 3.866 3.866 0 0 1-1.693.38c-.797 0-1.514-.18-2.153-.54-.625-.361-1.122-.895-1.49-1.603-.356-.708-.533-1.562-.533-2.563v-6.49h2.08v6.149c0 .988.226 1.75.679 2.283.454.521 1.074.781 1.859.781.784 0 1.404-.26 1.857-.78.467-.535.7-1.296.7-2.284v-6.15zm4.497 1.602a3.4 3.4 0 0 1 1.214-1.302c.516-.32 1.122-.481 1.821-.481v2.363h-.533c-.822 0-1.448.227-1.877.682-.417.454-.625 1.242-.625 2.363v5.81h-2.097v-11.037h2.097zm5.663-3.065c-.38 0-.7-.14-.957-.42-.258-.281-.386-.628-.386-1.042 0-.414.128-.761.386-1.042a1.25 1.25 0 0 1 .957-.42c.367 0 .68.14.938.42.257.28.386.628.386 1.042 0 .414-.129.761-.386 1.041-.258.281-.57.421-.938.421zm1.03 1.463v11.036h-2.098v-11.036zm4.833 1.862v6.11c0 .413.085.714.257.9.184.174.49.261.92.261h1.288v1.903h-1.656c-.945 0-1.669-.24-2.171-.721-.503-.48-.754-1.262-.754-2.344V409.5h-1.197v-1.862h1.197v-2.745h2.116v2.745h2.465v1.862zm13.155-1.862-6.219 16.224h-2.17l2.06-5.368-3.992-10.856h2.336l2.852 8.412 2.962-8.412zm14.88 1.121c-.331-.694-.791-1.215-1.38-1.562-.588-.36-1.269-.542-2.042-.542-.846 0-1.6.207-2.263.622-.662.414-1.184 1-1.563 1.762-.369.761-.553 1.643-.553 2.645 0 1.001.184 1.89.553 2.664.38.761.9 1.348 1.563 1.762.663.414 1.417.621 2.263.621 1.14 0 2.067-.347 2.778-1.042.712-.694 1.146-1.635 1.306-2.824h-4.801v-1.822h7.046v1.782a7.162 7.162 0 0 1-1.067 2.985 6.505 6.505 0 0 1-2.226 2.183c-.908.534-1.92.801-3.036.801-1.202 0-2.3-.3-3.294-.901-.993-.614-1.784-1.463-2.373-2.544-.576-1.081-.864-2.304-.864-3.665 0-1.363.288-2.585.864-3.666.59-1.082 1.38-1.923 2.373-2.524a6.203 6.203 0 0 1 3.294-.921c1.361 0 2.57.367 3.624 1.101 1.067.721 1.84 1.75 2.318 3.085zm13.788-1.121v11.036h-2.098v-1.302a3.51 3.51 0 0 1-1.305 1.082 3.863 3.863 0 0 1-1.694.38c-.796 0-1.514-.18-2.151-.54-.626-.361-1.123-.895-1.49-1.603-.357-.708-.534-1.562-.534-2.563v-6.49h2.079v6.149c0 .988.227 1.75.68 2.283.453.521 1.074.781 1.858.781.785 0 1.405-.26 1.858-.78.467-.535.7-1.296.7-2.284v-6.15zm3.466-1.463c-.38 0-.699-.14-.956-.42-.258-.281-.387-.628-.387-1.042 0-.414.129-.761.387-1.042.257-.28.576-.42.956-.42.368 0 .681.14.938.42.258.28.387.628.387 1.042 0 .414-.129.761-.387 1.041-.257.281-.57.421-.938.421zm1.03 1.463v11.036h-2.096v-11.036zm1.687 5.467c0-1.108.209-2.09.626-2.944.429-.855 1.006-1.515 1.729-1.983a4.385 4.385 0 0 1 2.446-.721c.663 0 1.313.16 1.951.48.65.308 1.165.722 1.545 1.243v-5.329h2.116v14.823h-2.116v-1.662c-.343.534-.821.975-1.435 1.322-.6.347-1.293.52-2.079.52-.883 0-1.692-.24-2.428-.721-.723-.494-1.3-1.174-1.73-2.043-.416-.881-.625-1.876-.625-2.985zm8.297.04c0-.76-.147-1.421-.442-1.982-.282-.561-.656-.989-1.121-1.283a2.783 2.783 0 0 0-1.509-.44c-.54 0-1.043.147-1.509.44-.465.281-.846.702-1.14 1.263-.283.547-.423 1.201-.423 1.962 0 .762.14 1.43.422 2.004.295.574.676 1.014 1.141 1.321.48.294.982.441 1.509.441.54 0 1.043-.147 1.509-.44.465-.294.84-.722 1.121-1.282.295-.574.442-1.242.442-2.004zm13.794-.26a7.8 7.8 0 0 1-.074 1.122h-7.745c.06.88.361 1.59.901 2.123.54.534 1.202.801 1.987.801 1.129 0 1.926-.514 2.392-1.542h2.263a5.006 5.006 0 0 1-1.675 2.504c-.796.641-1.79.961-2.98.961-.969 0-1.84-.233-2.612-.701-.761-.48-1.362-1.148-1.803-2.003-.43-.868-.644-1.87-.644-3.005 0-1.134.209-2.13.626-2.984.429-.868 1.023-1.535 1.784-2.003.773-.467 1.656-.701 2.649-.701.957 0 1.809.227 2.558.68.748.455 1.33 1.096 1.747 1.924.417.815.626 1.756.626 2.824zm-2.19-.721c-.011-.841-.288-1.515-.827-2.023-.54-.508-1.209-.76-2.006-.76a2.55 2.55 0 0 0-1.858.76c-.515.495-.822 1.169-.92 2.023zm5.983-8.313v14.823h-2.097V403.85zm3.453 2.324c-.38 0-.699-.14-.957-.42-.257-.281-.386-.628-.386-1.042 0-.414.129-.762.386-1.042a1.25 1.25 0 0 1 .957-.42c.368 0 .681.14.938.42.257.28.386.628.386 1.042 0 .414-.129.761-.386 1.041-.257.281-.57.421-.938.421zm1.03 1.463v11.036h-2.097v-11.036zm7.5-.181c.797 0 1.509.18 2.134.54.638.362 1.135.896 1.49 1.603.356.708.534 1.563.534 2.564v6.51h-2.079v-6.169c0-.988-.227-1.743-.68-2.264-.455-.534-1.074-.8-1.858-.8-.786 0-1.41.266-1.877.8-.454.52-.681 1.276-.681 2.264v6.169h-2.097v-11.036h2.097v1.261a3.53 3.53 0 0 1 1.306-1.061 3.966 3.966 0 0 1 1.711-.381zm15.756 5.428c0 .414-.024.788-.074 1.122h-7.745c.062.88.362 1.59.902 2.123.54.534 1.202.801 1.987.801 1.128 0 1.926-.514 2.391-1.542h2.263a5.005 5.005 0 0 1-1.674 2.504c-.797.641-1.79.961-2.98.961-.97 0-1.84-.233-2.612-.701-.761-.48-1.362-1.148-1.804-2.003-.429-.868-.644-1.87-.644-3.005 0-1.134.209-2.13.626-2.984.429-.868 1.024-1.535 1.784-2.003.773-.467 1.657-.701 2.65-.701.956 0 1.809.227 2.557.68.749.455 1.331 1.096 1.748 1.924.417.815.625 1.756.625 2.824zm-2.189-.721c-.012-.841-.288-1.515-.827-2.023-.54-.508-1.209-.76-2.006-.76-.724 0-1.343.252-1.859.76-.514.495-.821 1.169-.92 2.023zm7.565 6.69c-.797 0-1.515-.153-2.153-.46a3.97 3.97 0 0 1-1.49-1.282 3.42 3.42 0 0 1-.588-1.823h2.17c.037.467.24.861.607 1.181.38.307.853.461 1.417.461.589 0 1.043-.12 1.361-.36.332-.254.498-.575.498-.962 0-.413-.184-.721-.553-.921-.355-.2-.926-.42-1.71-.661a16.108 16.108 0 0 1-1.86-.66 3.364 3.364 0 0 1-1.25-.983c-.343-.44-.515-1.021-.515-1.742 0-.588.16-1.122.479-1.603.319-.494.772-.881 1.36-1.161.602-.28 1.289-.421 2.061-.421 1.153 0 2.08.32 2.779.962.71.627 1.091 1.488 1.14 2.584h-2.097c-.038-.494-.221-.889-.552-1.183-.332-.293-.78-.44-1.343-.44-.552 0-.975.113-1.27.34a1.084 1.084 0 0 0-.441.902c0 .294.098.54.294.74.197.2.435.362.718.482.282.107.699.247 1.25.42.737.214 1.338.434 1.804.661.478.214.889.534 1.233.962.343.427.52.995.532 1.702 0 .628-.159 1.188-.477 1.683-.32.494-.773.88-1.362 1.162-.576.28-1.257.42-2.042.42z" fill="#000" style="stroke-width:.958671"/><rect x="78.658" y="395.766" width="30.663" height="33.384" rx="15.331" fill="#721f6f" style="stroke-width:.958671;fill:#862e9c;fill-opacity:1"/><g clip-path="url(#c)" transform="matrix(.91877 0 0 1.0003 -185.99 47.916)"><path d="m299.538 364.432 3.708 3.708 7.417-7.416" stroke="#fff" stroke-width="1.669" stroke-linecap="round" stroke-linejoin="round"/></g><rect x="419.623" y="146.989" width="309.264" height="280.955" rx="9.202" fill="#eddeff" style="stroke-width:.851895;fill:#e5dbff;fill-opacity:1"/><rect x="419.459" y="146.825" width="309.593" height="280.92" rx="9.212" stroke="#c67dff" stroke-width="2.225" style="stroke:#5f3dc4;stroke-opacity:1"/><path d="M528.075 276.105v-3.509h7.947v30.564h-3.889v-27.055zm13.287 11.456c0-4.848.789-8.624 2.367-11.33 1.578-2.733 4.34-4.1 8.286-4.1 3.917 0 6.665 1.367 8.243 4.1 1.578 2.706 2.367 6.482 2.367 11.33 0 4.932-.789 8.764-2.367 11.498-1.578 2.734-4.326 4.101-8.243 4.101-3.946 0-6.708-1.367-8.286-4.101-1.578-2.734-2.367-6.566-2.367-11.498zm17.459 0c0-2.452-.169-4.524-.508-6.214-.31-1.72-.972-3.101-1.986-4.143-.987-1.043-2.424-1.564-4.312-1.564-1.917 0-3.382.521-4.397 1.564-.986 1.042-1.648 2.423-1.987 4.143-.31 1.69-.465 3.762-.465 6.214 0 2.536.155 4.664.465 6.383.339 1.719 1.001 3.1 1.987 4.143 1.015 1.043 2.48 1.564 4.397 1.564 1.888 0 3.325-.521 4.312-1.564 1.014-1.043 1.676-2.424 1.986-4.143.339-1.719.508-3.847.508-6.383zm7.817 0c0-4.848.789-8.624 2.368-11.33 1.578-2.733 4.34-4.1 8.285-4.1 3.918 0 6.665 1.367 8.244 4.1 1.578 2.706 2.367 6.482 2.367 11.33 0 4.932-.789 8.764-2.367 11.498-1.579 2.734-4.326 4.101-8.244 4.101-3.945 0-6.707-1.367-8.285-4.101-1.579-2.734-2.368-6.566-2.368-11.498zm17.459 0c0-2.452-.169-4.524-.507-6.214-.31-1.72-.972-3.101-1.987-4.143-.986-1.043-2.424-1.564-4.312-1.564-1.916 0-3.382.521-4.396 1.564-.987 1.042-1.649 2.423-1.987 4.143-.31 1.69-.465 3.762-.465 6.214 0 2.536.155 4.664.465 6.383.338 1.719 1 3.1 1.987 4.143 1.014 1.043 2.48 1.564 4.396 1.564 1.888 0 3.326-.521 4.312-1.564 1.015-1.043 1.677-2.424 1.987-4.143.338-1.719.507-3.847.507-6.383zm6.972-8.075c0-1.916.578-3.438 1.734-4.565 1.155-1.156 2.635-1.733 4.438-1.733 1.804 0 3.284.577 4.439 1.733 1.156 1.127 1.733 2.649 1.733 4.565 0 1.945-.577 3.495-1.733 4.651-1.155 1.127-2.635 1.691-4.439 1.691-1.803 0-3.283-.564-4.438-1.691-1.156-1.156-1.734-2.706-1.734-4.651zm24.688-5.833-17.121 29.507h-3.804l17.121-29.507zm-18.516 1.902c-.958 0-1.719.338-2.282 1.015-.536.648-.804 1.62-.804 2.916 0 1.297.268 2.283.804 2.96.563.676 1.324 1.014 2.282 1.014.959 0 1.72-.338 2.283-1.014.564-.705.846-1.691.846-2.96 0-1.296-.282-2.268-.846-2.916-.563-.677-1.324-1.015-2.283-1.015zm10.019 21.771c0-1.945.578-3.481 1.733-4.608 1.156-1.155 2.635-1.733 4.439-1.733 1.804 0 3.269.578 4.397 1.733 1.155 1.127 1.733 2.663 1.733 4.608 0 1.916-.578 3.452-1.733 4.608-1.128 1.155-2.593 1.733-4.397 1.733-1.804 0-3.283-.564-4.439-1.691-1.155-1.155-1.733-2.705-1.733-4.65zm6.13-3.932c-.958 0-1.719.339-2.283 1.015-.564.648-.845 1.621-.845 2.917 0 1.268.281 2.24.845 2.917.564.648 1.325.972 2.283.972s1.719-.324 2.283-.972c.563-.677.845-1.649.845-2.917 0-1.296-.282-2.269-.845-2.917-.564-.676-1.325-1.015-2.283-1.015z" fill="#000"/><path d="M574.255 376.618c49.152 0 88.997-39.845 88.997-88.997 0-49.151-39.845-88.996-88.997-88.996-49.151 0-88.997 39.845-88.997 88.996 0 49.152 39.846 88.997 88.997 88.997z" stroke="#721f6f" stroke-width="17.799" stroke-linejoin="round" style="stroke:#862e9c;stroke-opacity:1"/><rect x="290.5" y="456.229" width="186.894" height="186.894" rx="22.249" fill="#560153" style="fill:#862e9c;fill-opacity:1"/><path d="M383.894 507.959a55.621 55.621 0 0 0 39.4 13.906 55.617 55.617 0 0 1-4.972 43.111 55.627 55.627 0 0 1-34.428 26.418c.007-26.418-.001-47.469 0-83.435z" fill="#c67dff" style="fill:#91a7ff;fill-opacity:1"/><path d="M383.887 507.959a55.62 55.62 0 0 0 39.4 13.906 55.635 55.635 0 0 1-4.972 43.111 55.627 55.627 0 0 1-34.428 26.418 55.642 55.642 0 0 1-19.897-9.713 55.63 55.63 0 0 1-19.503-59.816 55.618 55.618 0 0 0 39.4-13.906z" stroke="#fff" stroke-width="4.45" stroke-linecap="round" stroke-linejoin="round"/><defs><clipPath id="a"><path fill="#fff" transform="translate(295.835 173.086)" d="M0 0h17.799v17.799H0z"/></clipPath><clipPath id="b"><path fill="#fff" transform="translate(295.835 264.308)" d="M0 0h17.799v17.799H0z"/></clipPath><clipPath id="c"><path fill="#fff" transform="translate(295.835 355.531)" d="M0 0h17.799v17.799H0z"/></clipPath></defs></svg>