<svg width="34" height="34" viewBox="0 0 34 34" fill="none" xmlns="http://www.w3.org/2000/svg">
<path d="M19.3729 6.11575C18.7694 3.62808 15.2306 3.62808 14.6271 6.11575C14.2361 7.72367 12.3944 8.48583 10.9834 7.6245C8.79608 6.29283 6.29425 8.79608 7.62592 10.982C7.8261 11.3103 7.94592 11.6813 7.97565 12.0646C8.00537 12.448 7.94415 12.833 7.79697 13.1882C7.64979 13.5435 7.42081 13.859 7.12867 14.109C6.83652 14.359 6.48947 14.5365 6.11575 14.6271C3.62808 15.2306 3.62808 18.7694 6.11575 19.3729C6.48913 19.4637 6.83582 19.6413 7.12764 19.8913C7.41945 20.1413 7.64816 20.4567 7.79517 20.8117C7.94218 21.1667 8.00334 21.5515 7.97369 21.9346C7.94403 22.3177 7.82439 22.6884 7.6245 23.0166C6.29283 25.2039 8.79608 27.7057 10.982 26.3741C11.3103 26.1739 11.6813 26.0541 12.0646 26.0244C12.448 25.9946 12.833 26.0558 13.1882 26.203C13.5435 26.3502 13.859 26.5792 14.109 26.8713C14.359 27.1635 14.5365 27.5105 14.6271 27.8843C15.2306 30.3719 18.7694 30.3719 19.3729 27.8843C19.4637 27.5109 19.6413 27.1642 19.8913 26.8724C20.1413 26.5805 20.4567 26.3518 20.8117 26.2048C21.1667 26.0578 21.5515 25.9967 21.9346 26.0263C22.3177 26.056 22.6884 26.1756 23.0166 26.3755C25.2039 27.7072 27.7057 25.2039 26.3741 23.018C26.1739 22.6897 26.0541 22.3187 26.0244 21.9354C25.9946 21.552 26.0558 21.167 26.203 20.8118C26.3502 20.4565 26.5792 20.141 26.8713 19.891C27.1635 19.641 27.5105 19.4635 27.8843 19.3729C30.3719 18.7694 30.3719 15.2306 27.8843 14.6271C27.5109 14.5363 27.1642 14.3587 26.8724 14.1087C26.5805 13.8587 26.3518 13.5433 26.2048 13.1883C26.0578 12.8333 25.9967 12.4485 26.0263 12.0654C26.056 11.6823 26.1756 11.3116 26.3755 10.9834C27.7072 8.79608 25.2039 6.29425 23.018 7.62592C22.6897 7.8261 22.3187 7.94592 21.9354 7.97565C21.552 8.00537 21.167 7.94415 20.8118 7.79697C20.4565 7.64979 20.141 7.42081 19.891 7.12867C19.641 6.83652 19.4635 6.48947 19.3729 6.11575Z" stroke="#946AF9" stroke-width="2" stroke-linecap="round" stroke-linejoin="round"/>
<path d="M20.0052 20.0052C20.8022 19.2082 21.25 18.1272 21.25 17C21.25 15.8728 20.8022 14.7918 20.0052 13.9948C19.2082 13.1978 18.1272 12.75 17 12.75C15.8728 12.75 14.7918 13.1978 13.9948 13.9948C13.1978 14.7918 12.75 15.8728 12.75 17C12.75 18.1272 13.1978 19.2082 13.9948 20.0052C14.7918 20.8022 15.8728 21.25 17 21.25C18.1272 21.25 19.2082 20.8022 20.0052 20.0052Z" stroke="#946AF9" stroke-width="2" stroke-linecap="round" stroke-linejoin="round"/>
</svg>
