<svg width="28" height="28" viewBox="0 0 28 28" fill="none" xmlns="http://www.w3.org/2000/svg">
<path d="M23.9167 12.5833H4.08333M23.9167 12.5833C24.6681 12.5833 25.3888 12.8818 25.9201 13.4132C26.4515 13.9446 26.75 14.6652 26.75 15.4167V23.9167C26.75 24.6681 26.4515 25.3888 25.9201 25.9201C25.3888 26.4515 24.6681 26.75 23.9167 26.75H4.08333C3.33189 26.75 2.61122 26.4515 2.07986 25.9201C1.54851 25.3888 1.25 24.6681 1.25 23.9167V15.4167C1.25 14.6652 1.54851 13.9446 2.07986 13.4132C2.61122 12.8818 3.33189 12.5833 4.08333 12.5833M23.9167 12.5833V9.75C23.9167 8.99855 23.6182 8.27788 23.0868 7.74653C22.5554 7.21518 21.8348 6.91667 21.0833 6.91667M4.08333 12.5833V9.75C4.08333 8.99855 4.38184 8.27788 4.9132 7.74653C5.44455 7.21518 6.16522 6.91667 6.91667 6.91667M21.0833 6.91667V4.08333C21.0833 3.33189 20.7848 2.61122 20.2535 2.07986C19.7221 1.54851 19.0014 1.25 18.25 1.25H9.75C8.99855 1.25 8.27788 1.54851 7.74653 2.07986C7.21518 2.61122 6.91667 3.33189 6.91667 4.08333V6.91667M21.0833 6.91667H6.91667" stroke="#946AF9" stroke-width="2" stroke-linecap="round" stroke-linejoin="round"/>
</svg>
