<svg width="32" height="32" viewBox="0 0 32 32" fill="none" xmlns="http://www.w3.org/2000/svg">
<path fill-rule="evenodd" clip-rule="evenodd" d="M5.9733 2.1333H5.86663C5.3781 2.1333 4.95783 2.1333 4.58663 2.22077C4.01199 2.35808 3.48658 2.6518 3.06862 3.06938C2.65066 3.48697 2.35646 4.01212 2.21863 4.58663C2.1333 4.95783 2.1333 5.37597 2.1333 5.86663V11.2C2.1333 11.6885 2.1333 12.1088 2.22077 12.48C2.35808 13.0546 2.6518 13.58 3.06938 13.998C3.48697 14.4159 4.01212 14.7101 4.58663 14.848C4.95783 14.9333 5.37597 14.9333 5.86663 14.9333H11.2C11.6885 14.9333 12.1088 14.9333 12.48 14.8458C13.0546 14.7085 13.58 14.4148 13.998 13.9972C14.4159 13.5796 14.7101 13.0545 14.848 12.48C14.9333 12.1088 14.9333 11.6906 14.9333 11.2V5.86663C14.9333 5.3781 14.9333 4.95783 14.8458 4.58663C14.7085 4.01199 14.4148 3.48658 13.9972 3.06862C13.5796 2.65066 13.0545 2.35646 12.48 2.21863C12.1088 2.1333 11.6906 2.1333 11.2 2.1333H5.9733ZM5.0837 4.2965C5.17543 4.27517 5.31837 4.26663 5.9733 4.26663H11.0933C11.7504 4.26663 11.8912 4.27303 11.9829 4.2965C12.1745 4.34233 12.3497 4.44034 12.4891 4.57967C12.6284 4.719 12.7264 4.8942 12.7722 5.08583C12.7936 5.17543 12.8 5.31623 12.8 5.9733V11.0933C12.8 11.7504 12.7936 11.8912 12.7701 11.9829C12.7243 12.1745 12.6263 12.3497 12.4869 12.4891C12.3476 12.6284 12.1724 12.7264 11.9808 12.7722C11.8933 12.7914 11.7525 12.8 11.0933 12.8H5.9733C5.31623 12.8 5.17543 12.7936 5.0837 12.7701C4.89206 12.7243 4.71687 12.6263 4.57754 12.4869C4.43821 12.3476 4.34019 12.1724 4.29437 11.9808C4.27517 11.8933 4.26663 11.7525 4.26663 11.0933V5.9733C4.26663 5.31623 4.27303 5.17543 4.2965 5.0837C4.34233 4.89206 4.44034 4.71687 4.57967 4.57754C4.719 4.43821 4.8942 4.34019 5.08583 4.29437L5.0837 4.2965ZM20.9066 2.1333H20.8C20.3114 2.1333 19.8912 2.1333 19.52 2.22077C18.9453 2.35808 18.4199 2.6518 18.002 3.06938C17.584 3.48697 17.2898 4.01212 17.152 4.58663C17.0666 4.95783 17.0666 5.37597 17.0666 5.86663V11.2C17.0666 11.6885 17.0666 12.1088 17.1541 12.48C17.2914 13.0546 17.5851 13.58 18.0027 13.998C18.4203 14.4159 18.9454 14.7101 19.52 14.848C19.8912 14.9333 20.3093 14.9333 20.8 14.9333H26.1333C26.6218 14.9333 27.0421 14.9333 27.4133 14.8458C27.9879 14.7085 28.5134 14.4148 28.9313 13.9972C29.3493 13.5796 29.6435 13.0545 29.7813 12.48C29.8666 12.1088 29.8666 11.6906 29.8666 11.2V5.86663C29.8666 5.3781 29.8666 4.95783 29.7792 4.58663C29.6419 4.01199 29.3481 3.48658 28.9306 3.06862C28.513 2.65066 27.9878 2.35646 27.4133 2.21863C27.0421 2.1333 26.624 2.1333 26.1333 2.1333H20.9066ZM20.017 4.2965C20.1088 4.27517 20.2517 4.26663 20.9066 4.26663H26.0266C26.6837 4.26663 26.8245 4.27303 26.9162 4.2965C27.1079 4.34233 27.2831 4.44034 27.4224 4.57967C27.5617 4.719 27.6597 4.8942 27.7056 5.08583C27.7269 5.17543 27.7333 5.31623 27.7333 5.9733V11.0933C27.7333 11.7504 27.7248 11.8912 27.7034 11.9829C27.6576 12.1745 27.5596 12.3497 27.4203 12.4891C27.2809 12.6284 27.1057 12.7264 26.9141 12.7722C26.8245 12.7936 26.6837 12.8 26.0266 12.8H20.9066C20.2496 12.8 20.1088 12.7936 20.017 12.7701C19.8254 12.7243 19.6502 12.6263 19.5109 12.4869C19.3715 12.3476 19.2735 12.1724 19.2277 11.9808C19.2085 11.8933 19.2 11.7525 19.2 11.0933V5.9733C19.2 5.31623 19.2064 5.17543 19.2298 5.0837C19.2757 4.89206 19.3737 4.71687 19.513 4.57754C19.6523 4.43821 19.8275 4.34019 20.0192 4.29437L20.017 4.2965ZM5.86663 17.0666H11.2C11.6885 17.0666 12.1088 17.0666 12.48 17.1541C13.0546 17.2914 13.58 17.5851 13.998 18.0027C14.4159 18.4203 14.7101 18.9454 14.848 19.52C14.9333 19.8912 14.9333 20.3093 14.9333 20.8V26.1333C14.9333 26.6218 14.9333 27.0421 14.8458 27.4133C14.7085 27.9879 14.4148 28.5134 13.9972 28.9313C13.5796 29.3493 13.0545 29.6435 12.48 29.7813C12.1088 29.8666 11.6906 29.8666 11.2 29.8666H5.86663C5.3781 29.8666 4.95783 29.8666 4.58663 29.7792C4.01199 29.6419 3.48658 29.3481 3.06862 28.9306C2.65066 28.513 2.35646 27.9878 2.21863 27.4133C2.1333 27.0421 2.1333 26.624 2.1333 26.1333V20.8C2.1333 20.3114 2.1333 19.8912 2.22077 19.52C2.35808 18.9453 2.6518 18.4199 3.06938 18.002C3.48697 17.584 4.01212 17.2898 4.58663 17.152C4.95783 17.0666 5.37597 17.0666 5.86663 17.0666ZM5.9733 19.2C5.31623 19.2 5.17543 19.2064 5.0837 19.2298C4.89206 19.2757 4.71687 19.3737 4.57754 19.513C4.43821 19.6523 4.34019 19.8275 4.29437 20.0192C4.27517 20.1066 4.26663 20.2474 4.26663 20.9066V26.0266C4.26663 26.6837 4.27303 26.8245 4.2965 26.9162C4.34233 27.1079 4.44034 27.2831 4.57967 27.4224C4.719 27.5617 4.8942 27.6597 5.08583 27.7056C5.17543 27.7269 5.31623 27.7333 5.9733 27.7333H11.0933C11.7504 27.7333 11.8912 27.7248 11.9829 27.7034C12.1745 27.6576 12.3497 27.5596 12.4891 27.4203C12.6284 27.2809 12.7264 27.1057 12.7722 26.9141C12.7936 26.8245 12.8 26.6837 12.8 26.0266V20.9066C12.8 20.2496 12.7936 20.1088 12.7701 20.017C12.7243 19.8254 12.6263 19.6502 12.4869 19.5109C12.3476 19.3715 12.1724 19.2735 11.9808 19.2277C11.8933 19.2085 11.7525 19.2 11.0933 19.2H5.9733ZM20.9066 17.0666H20.8C20.3114 17.0666 19.8912 17.0666 19.52 17.1541C18.9453 17.2914 18.4199 17.5851 18.002 18.0027C17.584 18.4203 17.2898 18.9454 17.152 19.52C17.0666 19.8912 17.0666 20.3093 17.0666 20.8V26.1333C17.0666 26.6218 17.0666 27.0421 17.1541 27.4133C17.2914 27.9879 17.5851 28.5134 18.0027 28.9313C18.4203 29.3493 18.9454 29.6435 19.52 29.7813C19.8912 29.8688 20.3114 29.8688 20.8 29.8688H26.1333C26.6218 29.8688 27.0421 29.8688 27.4133 29.7813C27.9876 29.6436 28.5125 29.3498 28.9301 28.9322C29.3476 28.5146 29.6415 27.9897 29.7792 27.4154C29.8666 27.0442 29.8666 26.624 29.8666 26.1354V20.8C29.8666 20.3114 29.8666 19.8912 29.7792 19.52C29.6419 18.9453 29.3481 18.4199 28.9306 18.002C28.513 17.584 27.9878 17.2898 27.4133 17.152C27.0421 17.0666 26.624 17.0666 26.1333 17.0666H20.9066ZM20.017 19.2298C20.1088 19.2085 20.2517 19.2 20.9066 19.2H26.0266C26.6837 19.2 26.8245 19.2064 26.9162 19.2298C27.1079 19.2757 27.2831 19.3737 27.4224 19.513C27.5617 19.6523 27.6597 19.8275 27.7056 20.0192C27.7269 20.1088 27.7333 20.2496 27.7333 20.9066V26.0266C27.7333 26.6837 27.7248 26.8245 27.7034 26.9162C27.6576 27.1079 27.5596 27.2831 27.4203 27.4224C27.2809 27.5617 27.1057 27.6597 26.9141 27.7056C26.8245 27.7269 26.6837 27.7333 26.0266 27.7333H20.9066C20.2496 27.7333 20.1088 27.7248 20.017 27.7034C19.8254 27.6576 19.6502 27.5596 19.5109 27.4203C19.3715 27.2809 19.2735 27.1057 19.2277 26.9141C19.2085 26.8266 19.2 26.6858 19.2 26.0266V20.9066C19.2 20.2496 19.2064 20.1088 19.2298 20.017C19.2757 19.8254 19.3737 19.6502 19.513 19.5109C19.6523 19.3715 19.8275 19.2735 20.0192 19.2277L20.017 19.2298Z" fill="#966DF7"/>
</svg>
