<svg width="32" height="32" viewBox="0 0 32 32" fill="none" xmlns="http://www.w3.org/2000/svg">
<path d="M8.43471 2.8853C9.14538 2.66993 9.90957 2.71515 10.5899 3.01284C11.2702 3.31053 11.822 3.84115 12.146 4.5093C12.3935 5.02881 12.4939 5.60614 12.4366 6.17869C12.3792 6.75124 12.1662 7.29718 11.8207 7.7573C11.377 8.3093 10.7608 8.69626 10.0708 8.85608C9.38088 9.0159 8.65725 8.93932 8.01604 8.63863C7.59518 8.4316 7.22647 8.13224 6.93743 7.76285C6.64839 7.39347 6.44646 6.9636 6.34671 6.5053C6.18255 5.79842 6.28137 5.05596 6.62471 4.41663C7.01488 3.69744 7.66083 3.15094 8.43471 2.8853Z" stroke="#966DF7" stroke-width="2" stroke-miterlimit="10"/>
<path d="M19.2908 3.06665C20.9957 3.45089 22.608 4.16806 24.0351 5.177C25.4622 6.18593 26.676 7.46676 27.6068 8.94598M28.5961 21.1586C27.4952 23.7619 25.5911 25.9452 23.1617 27.3899C20.7323 28.8345 17.9047 29.4649 15.0917 29.189C12.2787 28.9132 9.6275 27.7454 7.52504 25.8563C5.42259 23.9672 3.97893 21.4556 3.40479 18.688" stroke="#966DF7" stroke-width="2" stroke-miterlimit="10" stroke-linecap="round"/>
</svg>
