<svg width="35" height="34" viewBox="0 0 35 34" fill="none" xmlns="http://www.w3.org/2000/svg">
<path fill-rule="evenodd" clip-rule="evenodd" d="M15.8639 7C16.65 7 16.8038 7.01322 16.9262 7.056C17.0241 7.0902 17.116 7.13939 17.1987 7.20183C17.3022 7.27994 17.3986 7.40063 17.8346 8.0547L17.9026 8.15692C18.2304 8.64997 18.5195 9.08485 18.9297 9.3945C19.1779 9.58182 19.4537 9.72941 19.7472 9.832C20.2324 10.0016 20.7546 10.0009 21.3466 10.0001L21.4694 10H24.1417C24.9453 10 25.4942 10.0006 25.9182 10.0316C26.334 10.062 26.5447 10.1174 26.687 10.1828C27.1837 10.4111 27.5653 10.8327 27.743 11.3497C27.7939 11.4978 27.8281 11.7129 27.8169 12.1297C27.8104 12.3722 27.7901 12.6541 27.7589 13H23.2012C23.157 13 23.1125 13 23.0677 13H23.0677L23.0077 13H12.3256L12.2656 13H12.2656C12.2208 13 12.1763 13 12.1321 13H7.6061L7.5631 12.3119C7.46789 10.7886 7.40516 9.74913 7.46325 8.96839C7.5192 8.21652 7.67864 7.86873 7.90235 7.6306C8.12606 7.39247 8.46323 7.21165 9.21014 7.10891C9.98573 7.00223 11.0271 7 12.5534 7H15.8639ZM5.66257 13.9658L5.56699 12.4366L5.56243 12.3637C5.47289 10.9317 5.39926 9.75406 5.46876 8.81999C5.54159 7.84123 5.77977 6.96899 6.4447 6.26121C7.10962 5.55343 7.9653 5.26131 8.93761 5.12757C9.86553 4.99993 11.0454 4.99996 12.4802 5L12.5534 5H15.8639L15.9867 4.99989C16.5787 4.9991 17.1009 4.99841 17.5861 5.168C17.8796 5.27059 18.1554 5.41818 18.4036 5.6055C18.8138 5.91515 19.1029 6.35003 19.4307 6.84308L19.4987 6.9453C19.9347 7.59937 20.0311 7.72006 20.1346 7.79817C20.2173 7.86061 20.3092 7.9098 20.4071 7.944C20.5295 7.98678 20.6833 8 21.4694 8H24.1417L24.179 8C24.9361 7.99999 25.5584 7.99998 26.064 8.03693C26.5861 8.07508 27.0681 8.15678 27.5222 8.36554C28.5156 8.82215 29.2788 9.66548 29.6343 10.6994C29.7969 11.1721 29.8302 11.6598 29.8162 12.1831C29.8032 12.6687 29.7458 13.2575 29.6748 13.9687C29.7226 14.003 29.7699 14.0385 29.8166 14.0753C30.4018 14.5373 30.8763 15.1242 31.2054 15.7932C31.6318 16.6601 31.6816 17.6066 31.5719 18.6736C31.4648 19.7147 31.1883 21.0052 30.8428 22.6174L30.8427 22.6175L30.8302 22.6762L30.8202 22.7226C30.5865 23.8135 30.3968 24.6988 30.1759 25.4058C29.9468 26.1393 29.6607 26.7637 29.1888 27.3006C28.8139 27.7272 28.3691 28.0868 27.8734 28.364C27.2495 28.7129 26.579 28.8618 25.8138 28.9322C25.0762 29 24.1708 29 23.055 29H23.0077H12.3256H12.2783C11.1625 29 10.2571 29 9.51948 28.9322C8.7543 28.8618 8.08382 28.7129 7.45992 28.364C6.96424 28.0868 6.51942 27.7272 6.14452 27.3006C5.67265 26.7637 5.38652 26.1393 5.15739 25.4058C4.93652 24.6988 4.74682 23.8135 4.51305 22.7225L4.50314 22.6762L4.49058 22.6176C4.14506 21.0053 3.8685 19.7147 3.76143 18.6736C3.6517 17.6066 3.70155 16.6601 4.12795 15.7932C4.457 15.1242 4.9315 14.5373 5.5167 14.0753C5.56469 14.0374 5.61332 14.001 5.66257 13.9658ZM12.3256 15C10.6029 15 9.3924 15.0014 8.47316 15.1016C7.56722 15.2004 7.08738 15.3835 6.75586 15.6452C6.40474 15.9224 6.12004 16.2745 5.92261 16.6759C5.7362 17.0549 5.65772 17.5625 5.75094 18.469C5.84554 19.3888 6.09779 20.5727 6.45875 22.2572C6.7048 23.4054 6.87617 24.2005 7.06641 24.8095C7.25152 25.402 7.43057 25.7343 7.64684 25.9804C7.87178 26.2363 8.13867 26.4521 8.43608 26.6184C8.72203 26.7783 9.08443 26.8838 9.70261 26.9406C10.338 26.999 11.1513 27 12.3256 27H23.0077C24.182 27 24.9953 26.999 25.6307 26.9406C26.2489 26.8838 26.6113 26.7783 26.8972 26.6184C27.1946 26.4521 27.4615 26.2363 27.6865 25.9804C27.9027 25.7343 28.0818 25.402 28.2669 24.8095C28.4571 24.2005 28.6285 23.4054 28.8746 22.2572C29.2355 20.5727 29.4878 19.3888 29.5824 18.469C29.6756 17.5625 29.5971 17.0549 29.4107 16.6759C29.2133 16.2745 28.9286 15.9224 28.5774 15.6452C28.2459 15.3835 27.7661 15.2004 26.8601 15.1016C25.9409 15.0014 24.7304 15 23.0077 15H12.3256Z" fill="#946AF9"/>
</svg>
