<svg width="32" height="32" viewBox="0 0 32 32" fill="none" xmlns="http://www.w3.org/2000/svg">
<path d="M30 18V23.5C30 25 29.1 26.3 27.7 27L26 27.8L24.3 27C22.9 26.4 22 25 22 23.5V18H30ZM32 16H20V23.5C20 25.7 21.3 27.8 23.4 28.8L26 30L28.6 28.8C30.7 27.8 32 25.8 32 23.5V16Z" fill="#966DF7"/>
<path d="M16 25H7.5C3.4 25 0 21.6 0 17.5C0 13.8 2.7 10.8 6.2 10.1C7.1 5.4 11.2 2 16 2C21.5 2 26 6.5 26 12H24C24 7.6 20.4 4 16 4C11.9 4 8.5 7.1 8 11.1V12H7.1C4.2 12.2 2 14.6 2 17.5C2 20.5 4.5 23 7.5 23H16V25Z" fill="#966DF7"/>
</svg>
