<svg width="34" height="34" viewBox="0 0 34 34" fill="none" xmlns="http://www.w3.org/2000/svg">
<path fill-rule="evenodd" clip-rule="evenodd" d="M10 12.5C10 8.35786 13.3579 5 17.5 5C20.7616 5 23.5394 7.08255 24.5712 9.99357L24.5802 10.0188C24.6936 10.3388 24.7919 10.616 24.8811 10.8308C24.964 11.0307 25.0888 11.3066 25.3 11.5284L26.0241 10.8387L25.3 11.5284C25.5165 11.7558 25.8041 11.8988 26.005 11.9929C26.23 12.0983 26.5252 12.2195 26.8733 12.3624L26.8734 12.3624L26.8973 12.3723C28.7196 13.1204 30 14.9118 30 17C30 19.7614 27.7614 22 25 22H22C21.4477 22 21 22.4477 21 23C21 23.5523 21.4477 24 22 24H25C28.866 24 32 20.866 32 17C32 14.0728 30.2036 11.5676 27.6569 10.5221C27.2782 10.3667 27.0289 10.264 26.8536 10.1819C26.8145 10.1636 26.7835 10.1483 26.7592 10.1358C26.7505 10.1165 26.7402 10.0928 26.7282 10.0639C26.6618 9.90416 26.5813 9.67788 26.4563 9.32537C25.1504 5.64115 21.6349 3 17.5 3C12.2533 3 8 7.25329 8 12.5V13.0001C8 13.5523 7.55234 14 7 14C4.23858 14 2 16.2386 2 19C2 21.7614 4.23858 24 7 24H12C12.5523 24 13 23.5523 13 23C13 22.4477 12.5523 22 12 22H7C5.34315 22 4 20.6569 4 19C4 17.3431 5.34315 16 7 16C8.6568 16 10 14.657 10 13.0001V12.5ZM16.2929 12.2929C16.6834 11.9024 17.3166 11.9024 17.7071 12.2929L22.7071 17.2929C23.0976 17.6834 23.0976 18.3166 22.7071 18.7071C22.3166 19.0976 21.6834 19.0976 21.2929 18.7071L18 15.4142V28C18 28.5523 17.5523 29 17 29C16.4477 29 16 28.5523 16 28V15.4142L12.7071 18.7071C12.3166 19.0976 11.6834 19.0976 11.2929 18.7071C10.9024 18.3166 10.9024 17.6834 11.2929 17.2929L16.2929 12.2929Z" fill="#946AF9"/>
</svg>
