<svg width="34" height="34" viewBox="0 0 34 34" fill="none" xmlns="http://www.w3.org/2000/svg">
<path d="M25.5 28.3333L30.9173 22.916C31.0768 22.7567 31.1665 22.5407 31.1667 22.3153V14.875C31.1667 14.3114 30.9428 13.7709 30.5443 13.3724C30.1458 12.9739 29.6053 12.75 29.0417 12.75C28.4781 12.75 27.9376 12.9739 27.5391 13.3724C27.1406 13.7709 26.9167 14.3114 26.9167 14.875V21.25" stroke="#966DF7" stroke-width="1.5" stroke-linecap="round" stroke-linejoin="round"/>
<path d="M25.4999 22.6667L26.7154 21.4512C26.7793 21.3874 26.8299 21.3116 26.8644 21.2283C26.899 21.1449 26.9167 21.0555 26.9166 20.9652C26.9164 20.8379 26.8808 20.713 26.8137 20.6047C26.7467 20.4964 26.6509 20.4088 26.5369 20.3518L25.9093 20.0388C25.3776 19.7729 24.7758 19.681 24.189 19.7761C23.6022 19.8712 23.0602 20.1484 22.6397 20.5686L21.3718 21.8365C20.8404 22.3677 20.5417 23.0883 20.5416 23.8397V28.3333M8.49992 28.3333L3.08259 22.916C2.92313 22.7567 2.83345 22.5407 2.83325 22.3153V14.875C2.83325 14.3114 3.05714 13.7709 3.45565 13.3724C3.85416 12.9739 4.39467 12.75 4.95825 12.75C5.52184 12.75 6.06234 12.9739 6.46085 13.3724C6.85937 13.7709 7.08325 14.3114 7.08325 14.875V21.25" stroke="#966DF7" stroke-width="1.5" stroke-linecap="round" stroke-linejoin="round"/>
<path d="M8.49992 22.6667L7.28442 21.4512C7.22062 21.3874 7.17002 21.3117 7.1355 21.2283C7.10099 21.1449 7.08323 21.0556 7.08325 20.9653C7.08325 20.7061 7.23059 20.4695 7.46292 20.3519L8.0905 20.0388C8.62219 19.773 9.22403 19.6811 9.81082 19.7762C10.3976 19.8713 10.9396 20.1485 11.3602 20.5687L12.6281 21.8366C13.1595 22.3678 13.4581 23.0884 13.4583 23.8397V28.3334M19.3615 17.0001H14.6383V13.695H11.3333V8.97183H14.6383V5.66675H19.3615V8.97183H22.6666V13.695H19.3615V17.0001Z" stroke="#966DF7" stroke-width="1.5" stroke-linecap="round" stroke-linejoin="round"/>
</svg>
