<svg width="25" height="28" viewBox="0 0 25 28" fill="none" xmlns="http://www.w3.org/2000/svg">
<path d="M6.78337 12.5833V6.91667C6.78337 5.41377 7.38039 3.97243 8.44309 2.90973C9.5058 1.84702 10.9471 1.25 12.45 1.25C13.9529 1.25 15.3943 1.84702 16.457 2.90973C17.5197 3.97243 18.1167 5.41377 18.1167 6.91667M12.45 18.25V21.0833M3.95003 26.75H20.95C21.7015 26.75 22.4221 26.4515 22.9535 25.9201C23.4849 25.3888 23.7834 24.6681 23.7834 23.9167V15.4167C23.7834 14.6652 23.4849 13.9446 22.9535 13.4132C22.4221 12.8818 21.7015 12.5833 20.95 12.5833H3.95003C3.19859 12.5833 2.47792 12.8818 1.94656 13.4132C1.41521 13.9446 1.1167 14.6652 1.1167 15.4167V23.9167C1.1167 24.6681 1.41521 25.3888 1.94656 25.9201C2.47792 26.4515 3.19859 26.75 3.95003 26.75Z" stroke="#946AF9" stroke-width="2" stroke-linecap="round" stroke-linejoin="round"/>
</svg>
