<svg width="26" height="26" viewBox="0 0 26 26" fill="none" xmlns="http://www.w3.org/2000/svg">
<path d="M18.6666 7.33335V18.6667M13 11.5834V18.6667M7.33329 15.8334V18.6667M4.49996 24.3334H21.5C22.2514 24.3334 22.9721 24.0348 23.5034 23.5035C24.0348 22.9721 24.3333 22.2515 24.3333 21.5V4.50002C24.3333 3.74857 24.0348 3.0279 23.5034 2.49655C22.9721 1.9652 22.2514 1.66669 21.5 1.66669H4.49996C3.74851 1.66669 3.02784 1.9652 2.49649 2.49655C1.96514 3.0279 1.66663 3.74857 1.66663 4.50002V21.5C1.66663 22.2515 1.96514 22.9721 2.49649 23.5035C3.02784 24.0348 3.74851 24.3334 4.49996 24.3334Z" stroke="#946AF9" stroke-width="2" stroke-linecap="round" stroke-linejoin="round"/>
</svg>
