<svg width="34" height="34" viewBox="0 0 34 34" fill="none" xmlns="http://www.w3.org/2000/svg">
<path fill-rule="evenodd" clip-rule="evenodd" d="M17 3C13.134 3 10 6.13401 10 10V12.0971C9.81922 12.1136 9.64515 12.1328 9.47767 12.1554C8.27752 12.3167 7.26702 12.6619 6.46447 13.4645C5.66191 14.267 5.31672 15.2775 5.15537 16.4777C4.99995 17.6336 4.99997 19.1034 5 20.9268V20.9268V21V21.0732V21.0732C4.99997 22.8966 4.99995 24.3664 5.15537 25.5223C5.31672 26.7225 5.66191 27.733 6.46447 28.5355C7.26702 29.3381 8.27752 29.6833 9.47767 29.8446C10.6336 30 12.1034 30 13.9269 30H14H20H20.0731C21.8966 30 23.3664 30 24.5223 29.8446C25.7225 29.6833 26.733 29.3381 27.5355 28.5355C28.3381 27.733 28.6833 26.7225 28.8446 25.5223C29.0001 24.3664 29 22.8966 29 21.0731V21V20.9269C29 19.1034 29.0001 17.6336 28.8446 16.4777C28.6833 15.2775 28.3381 14.267 27.5355 13.4645C26.733 12.6619 25.7225 12.3167 24.5223 12.1554C24.3549 12.1328 24.1808 12.1136 24 12.0971V10C24 6.13401 20.866 3 17 3ZM14 14C12.0861 14 10.7513 14.0021 9.74416 14.1375C8.7658 14.2691 8.2477 14.5097 7.87868 14.8787C7.50966 15.2477 7.26907 15.7658 7.13753 16.7442C7.00213 17.7513 7 19.0861 7 21C7 22.9139 7.00213 24.2487 7.13753 25.2558C7.26907 26.2342 7.50966 26.7523 7.87868 27.1213C8.2477 27.4903 8.7658 27.7309 9.74416 27.8625C10.7513 27.9979 12.0861 28 14 28H20C21.9139 28 23.2487 27.9979 24.2558 27.8625C25.2342 27.7309 25.7523 27.4903 26.1213 27.1213C26.4903 26.7523 26.7309 26.2342 26.8625 25.2558C26.9979 24.2487 27 22.9139 27 21C27 19.0861 26.9979 17.7513 26.8625 16.7442C26.7309 15.7658 26.4903 15.2477 26.1213 14.8787C25.7523 14.5097 25.2342 14.2691 24.2558 14.1375C23.2487 14.0021 21.9139 14 20 14H14ZM20.2226 12H22V10C22 7.23858 19.7614 5 17 5C14.2386 5 12 7.23858 12 10V12H13.7774L13.9268 12L14 12H20L20.0732 12L20.2226 12ZM14 20C14 18.3431 15.3431 17 17 17C18.6569 17 20 18.3431 20 20C20 21.3062 19.1652 22.4175 18 22.8293V25C18 25.5523 17.5523 26 17 26C16.4477 26 16 25.5523 16 25V22.8293C14.8348 22.4175 14 21.3062 14 20ZM17 21C17.5523 21 18 20.5523 18 20C18 19.4477 17.5523 19 17 19C16.4477 19 16 19.4477 16 20C16 20.5523 16.4477 21 17 21Z" fill="#946AF9"/>
</svg>
