<svg width="18" height="15" viewBox="0 0 18 15" fill="none" xmlns="http://www.w3.org/2000/svg">
<path d="M16.1367 3.62109C16.8398 3.09375 17.4727 2.46094 17.9648 1.72266C17.332 2.00391 16.5938 2.21484 15.8555 2.28516C16.6289 1.82812 17.1914 1.125 17.4727 0.246094C16.7695 0.667969 15.9609 0.984375 15.1523 1.16016C14.4492 0.421875 13.5 0 12.4453 0C10.4062 0 8.75391 1.65234 8.75391 3.69141C8.75391 3.97266 8.78906 4.25391 8.85938 4.53516C5.80078 4.35938 3.05859 2.88281 1.23047 0.667969C0.914062 1.19531 0.738281 1.82812 0.738281 2.53125C0.738281 3.79688 1.37109 4.92188 2.39062 5.58984C1.79297 5.55469 1.19531 5.41406 0.703125 5.13281V5.16797C0.703125 6.96094 1.96875 8.4375 3.65625 8.78906C3.375 8.85938 3.02344 8.92969 2.70703 8.92969C2.46094 8.92969 2.25 8.89453 2.00391 8.85938C2.46094 10.3359 3.83203 11.3906 5.44922 11.4258C4.18359 12.4102 2.60156 13.0078 0.878906 13.0078C0.5625 13.0078 0.28125 12.9727 0 12.9375C1.61719 13.9922 3.55078 14.5898 5.66016 14.5898C12.4453 14.5898 16.1367 9 16.1367 4.11328C16.1367 3.9375 16.1367 3.79688 16.1367 3.62109Z" fill="#76A9FA"/>
</svg>
