<svg width="35" height="34" viewBox="0 0 35 34" fill="none" xmlns="http://www.w3.org/2000/svg">
<path fill-rule="evenodd" clip-rule="evenodd" d="M8.34354 9.67856C9.21452 5.2185 13.1223 2 17.6667 2C22.211 2 26.1188 5.2185 26.9898 9.67856L27.407 11.815C28.2526 16.1453 28.1199 20.6098 27.0186 24.8822C26.0903 28.4834 22.8427 31 19.1237 31H16.2096C12.4906 31 9.24301 28.4834 8.3147 24.8822C7.21337 20.6098 7.08068 16.1453 7.92632 11.815L8.34354 9.67856ZM16.6667 4.06649C13.5186 4.48796 10.9292 6.87292 10.3065 10.0619L9.88924 12.1983C9.83716 12.465 9.78905 12.7323 9.74493 13H16.6667V4.06649ZM18.6667 13V4.06649C21.8148 4.48796 24.4041 6.87292 25.0269 10.0619L25.4441 12.1983C25.4962 12.465 25.5443 12.7323 25.5884 13H18.6667ZM17.6667 15H9.48987C9.20538 18.1412 9.4606 21.3152 10.2514 24.3829C10.952 27.1007 13.4029 29 16.2096 29H19.1237C21.9304 29 24.3813 27.1007 25.0819 24.3829C25.8727 21.3152 26.1279 18.1412 25.8434 15H17.6667Z" fill="#946AF9"/>
</svg>
