<svg width="32" height="32" viewBox="0 0 32 32" fill="none" xmlns="http://www.w3.org/2000/svg">
<g clip-path="url(#clip0_2431_35448)">
<path d="M28 20H32V32H16V20H20V16H28V20ZM22 20H26V18H22V20ZM30 26H28V28H26V26H22V28H20V26H18V30H30V26ZM18 22V24H30V22H18ZM14 14C14 14.9688 13.7865 15.875 13.3594 16.7188C12.9323 17.5625 12.3229 18.2708 11.5312 18.8438C12 19.0833 12.4427 19.3594 12.8594 19.6719C13.276 19.9844 13.6562 20.3333 14 20.7188V26C14 25.1771 13.8438 24.401 13.5312 23.6719C13.2188 22.9427 12.7917 22.3073 12.25 21.7656C11.7083 21.224 11.0677 20.7917 10.3281 20.4688C9.58854 20.1458 8.8125 19.9896 8 20C7.16667 20 6.39062 20.1562 5.67188 20.4688C4.95312 20.7812 4.31771 21.2083 3.76562 21.75C3.21354 22.2917 2.78125 22.9323 2.46875 23.6719C2.15625 24.4115 2 25.1875 2 26H0C0 25.2396 0.104167 24.5052 0.3125 23.7969C0.520833 23.0885 0.817708 22.4167 1.20312 21.7812C1.58854 21.1458 2.0625 20.5833 2.625 20.0938C3.1875 19.6042 3.80208 19.1823 4.46875 18.8281C3.6875 18.2656 3.08333 17.5625 2.65625 16.7188C2.22917 15.875 2.01042 14.9688 2 14C2 13.1771 2.15625 12.401 2.46875 11.6719C2.78125 10.9427 3.20833 10.3073 3.75 9.76562C4.29167 9.22396 4.92708 8.79167 5.65625 8.46875C6.38542 8.14583 7.16667 7.98958 8 8C8.75 8 9.46354 8.13021 10.1406 8.39062C10.8177 8.65104 11.4375 9.03646 12 9.54688C12.3333 9.24479 12.7031 8.97917 13.1094 8.75C12.7552 8.38542 12.4844 7.96354 12.2969 7.48438C12.1094 7.00521 12.0104 6.51042 12 6C12 5.44792 12.1042 4.93229 12.3125 4.45312C12.5208 3.97396 12.8073 3.54688 13.1719 3.17188C13.5365 2.79688 13.9583 2.51042 14.4375 2.3125C14.9167 2.11458 15.4375 2.01042 16 2C16.5521 2 17.0677 2.10417 17.5469 2.3125C18.026 2.52083 18.4531 2.80729 18.8281 3.17188C19.2031 3.53646 19.4896 3.95833 19.6875 4.4375C19.8854 4.91667 19.9896 5.4375 20 6C20 6.51042 19.9062 7.00521 19.7188 7.48438C19.5312 7.96354 19.2552 8.38542 18.8906 8.75C19.7552 9.22917 20.4583 9.875 21 10.6875C21.5417 9.875 22.2448 9.22917 23.1094 8.75C22.7552 8.38542 22.4844 7.96354 22.2969 7.48438C22.1094 7.00521 22.0104 6.51042 22 6C22 5.44792 22.1042 4.93229 22.3125 4.45312C22.5208 3.97396 22.8073 3.54688 23.1719 3.17188C23.5365 2.79688 23.9583 2.51042 24.4375 2.3125C24.9167 2.11458 25.4375 2.01042 26 2C26.5521 2 27.0677 2.10417 27.5469 2.3125C28.026 2.52083 28.4531 2.80729 28.8281 3.17188C29.2031 3.53646 29.4896 3.95833 29.6875 4.4375C29.8854 4.91667 29.9896 5.4375 30 6C30 6.51042 29.9062 7.00521 29.7188 7.48438C29.5312 7.96354 29.2552 8.38542 28.8906 8.75C29.3698 9.01042 29.8021 9.32812 30.1875 9.70312C30.5729 10.0781 30.8958 10.4896 31.1562 10.9375C31.4167 11.3854 31.625 11.875 31.7812 12.4062C31.9375 12.9375 32.0104 13.4688 32 14H30C30 13.4479 29.8958 12.9323 29.6875 12.4531C29.4792 11.974 29.1927 11.5469 28.8281 11.1719C28.4635 10.7969 28.0417 10.5104 27.5625 10.3125C27.0833 10.1146 26.5625 10.0104 26 10C25.4479 10 24.9323 10.1042 24.4531 10.3125C23.974 10.5208 23.5469 10.8073 23.1719 11.1719C22.7969 11.5365 22.5104 11.9583 22.3125 12.4375C22.1146 12.9167 22.0104 13.4375 22 14H20C20 13.4479 19.8958 12.9323 19.6875 12.4531C19.4792 11.974 19.1927 11.5469 18.8281 11.1719C18.4635 10.7969 18.0417 10.5104 17.5625 10.3125C17.0833 10.1146 16.5625 10.0104 16 10C15.4896 10 14.9948 10.0938 14.5156 10.2812C14.0365 10.4688 13.6146 10.7448 13.25 11.1094C13.5 11.5469 13.6875 12.0104 13.8125 12.5C13.9375 12.9896 14 13.4896 14 14ZM26 4C25.7188 4 25.4583 4.05208 25.2188 4.15625C24.9792 4.26042 24.7708 4.40104 24.5938 4.57812C24.4167 4.75521 24.2708 4.96875 24.1562 5.21875C24.0417 5.46875 23.9896 5.72917 24 6C24 6.28125 24.0521 6.54167 24.1562 6.78125C24.2604 7.02083 24.401 7.22917 24.5781 7.40625C24.7552 7.58333 24.9688 7.72917 25.2188 7.84375C25.4688 7.95833 25.7292 8.01042 26 8C26.2812 8 26.5417 7.94792 26.7812 7.84375C27.0208 7.73958 27.2292 7.59896 27.4062 7.42188C27.5833 7.24479 27.7292 7.03125 27.8438 6.78125C27.9583 6.53125 28.0104 6.27083 28 6C28 5.71875 27.9479 5.45833 27.8438 5.21875C27.7396 4.97917 27.599 4.77083 27.4219 4.59375C27.2448 4.41667 27.0312 4.27083 26.7812 4.15625C26.5312 4.04167 26.2708 3.98958 26 4ZM16 4C15.7188 4 15.4583 4.05208 15.2188 4.15625C14.9792 4.26042 14.7708 4.40104 14.5938 4.57812C14.4167 4.75521 14.2708 4.96875 14.1562 5.21875C14.0417 5.46875 13.9896 5.72917 14 6C14 6.28125 14.0521 6.54167 14.1562 6.78125C14.2604 7.02083 14.401 7.22917 14.5781 7.40625C14.7552 7.58333 14.9688 7.72917 15.2188 7.84375C15.4688 7.95833 15.7292 8.01042 16 8C16.2812 8 16.5417 7.94792 16.7812 7.84375C17.0208 7.73958 17.2292 7.59896 17.4062 7.42188C17.5833 7.24479 17.7292 7.03125 17.8438 6.78125C17.9583 6.53125 18.0104 6.27083 18 6C18 5.71875 17.9479 5.45833 17.8438 5.21875C17.7396 4.97917 17.599 4.77083 17.4219 4.59375C17.2448 4.41667 17.0312 4.27083 16.7812 4.15625C16.5312 4.04167 16.2708 3.98958 16 4ZM8 18C8.55208 18 9.06771 17.8958 9.54688 17.6875C10.026 17.4792 10.4531 17.1927 10.8281 16.8281C11.2031 16.4635 11.4896 16.0417 11.6875 15.5625C11.8854 15.0833 11.9896 14.5625 12 14C12 13.4479 11.8958 12.9323 11.6875 12.4531C11.4792 11.974 11.1927 11.5469 10.8281 11.1719C10.4635 10.7969 10.0417 10.5104 9.5625 10.3125C9.08333 10.1146 8.5625 10.0104 8 10C7.44792 10 6.93229 10.1042 6.45312 10.3125C5.97396 10.5208 5.54688 10.8073 5.17188 11.1719C4.79688 11.5365 4.51042 11.9583 4.3125 12.4375C4.11458 12.9167 4.01042 13.4375 4 14C4 14.5521 4.10417 15.0677 4.3125 15.5469C4.52083 16.026 4.80729 16.4531 5.17188 16.8281C5.53646 17.2031 5.95833 17.4896 6.4375 17.6875C6.91667 17.8854 7.4375 17.9896 8 18Z" fill="#966DF7"/>
</g>
<defs>
<clipPath id="clip0_2431_35448">
<rect width="32" height="32" fill="white"/>
</clipPath>
</defs>
</svg>
